<svg id="Ebene_1" data-name="Ebene 1" xmlns="http://www.w3.org/2000/svg" viewBox="0 0 548.69 298.43"><defs><style>.cls-1{fill:#090909;}.cls-2{fill:#202020;}.cls-3{fill:#626567;}.cls-4{fill:#ecefe9;}.cls-5{fill:#f69f9e;}.cls-6{fill:#fba2a1;}.cls-7{fill:#151616;}.cls-8{fill:#141515;}.cls-9{fill:#ebeee8;}.cls-10{fill:#eaece7;}.cls-11{fill:#eaede7;}.cls-12{fill:#e5e7e2;}.cls-13{fill:#fefefe;}.cls-14{fill:#d9dcd7;}.cls-15{fill:#030303;}</style></defs><title>great_shark</title><path class="cls-1" d="M271.55,360.55c-.56-.14-.75-.46-.51-1,.64-.35.58-.69,0-1l-21.26-32.31c-.32-.48-.54-1.2-1-1.38-.73-.29-1.46-.38-1.44-1.38,0-1.2,1.1-1.06,1.8-1.37,6.79-3,14.16-3.46,21.34-4.77s14.55-2.54,21.83-3.81c5.09-.89,10.32-1.35,15.24-2.82,4.5-1.34,8.68-.17,13,.11,5,.32,10,.62,15.07,1,7.64.61,15.27,1.32,22.9,2a10.05,10.05,0,0,0,3.24,0c4.66-1.19,9.15.57,13.73.72,3.68.11,7.33.92,11,1.32,5.64.62,11.28,1.16,16.9,2,5,.7,10,1,15,1.57,4.41.47,8.82,1,13.23,1.51.16,0,.41,0,.47.12,2.61,4.21,7.34,3.24,11.1,4.22,10.08,2.61,20.34,4.57,30.52,6.81,2.56.56,5.1,1.23,7.67,1.78,1.12.24,1.57-.14,2.26-1.34,2.33-4.07,5.1-7.9,7.77-11.77,5.35-7.74,10.85-15.37,15.9-23.32a8.42,8.42,0,0,1,1.6-1.88c1.14-1,2.11-1.06,2.32.81s2.11,2.21,2.8,3.61c.09.34.31.59.66.46s.39-.61.28-1l1.09-4.79c.24-.19.53-.4.31-.74s-.65-.26-1-.17c-.65.15-1.23,0-1.34-.7-.16-1,.81-1.2,1.44-1.42,2.73-.93,5.5-1.78,8.26-2.62,7.73-2.36,15.45-4.73,23.21-7,1.39-.41,2.58-2.72,4.27-.82,1.28,1.43-.91,2.39-.86,3.73,0,.41-.06.83-.07,1.24a143.72,143.72,0,0,1-1,16.58,1.36,1.36,0,0,0,.37,1.37c1,.83.36,1.54-.32,2-3.44,2.41-6.49,5.36-10.12,7.51-.84.35-.84.7,0,1.06,2.93,2.28,5.85,4.58,8.81,6.82a1.73,1.73,0,0,1,.74,1.45c.32,5,.58,10.06,1,15.08.38,4.44,1,8.86,1,13.33a3.22,3.22,0,0,0,1.83,2.75,59,59,0,0,1,8.06,5.32c6.51,5.61,14.86,7.12,22.38,10.46,3.44,1.53,7.3,2.36,10.65,3.83,6.2,2.72,12.79,2.57,19.09,4.17,9.06,2.3,18.36,2.42,27.63,2,4-.18,8.07-.72,12.12-.23q.5.81,1,0c13.9-3.57,27.8-7.16,41.72-10.67a3.4,3.4,0,0,0,2.26-2c3.06-5.29,4.76-11.1,6.63-16.85,2.2-6.74,4.29-13.52,6.41-20.29q4.91-15.71,9.78-31.43c.67-2.15,2.65-3.26,3.88-5,7-9.81,14.38-19.33,21.54-29a2.15,2.15,0,0,1,2.79-.79c1,.35.69,1.33.55,2.16-1.13,6.88-2.3,13.74-3.33,20.64-.54,3.62-.4,3.77-4.9,4.38-2.2.3-2.28,1.26-1.89,3,.77,3.5,1.9,6.64,5.36,8.52.64.35.94,2,.8,3-1.2,8.26,0,16.18,2.34,24.16,3.91,13.48,7.61,27,10.78,40.7,1.14,4.91,4.65,7.66,7.35,11.13,6.14,7.88,12.66,15.47,19,23.15,2.86,3.43,5.78,6.8,8.68,10.2.25.29.34.77.86.78,1,0,1.95.47,1.9,1.53s-1.27.89-2,1a37.85,37.85,0,0,1-10.08-.28c-3.87-.44-7.78.15-11.61-.8-1.13-.28-2.4,0-2.38-1.75.64-.35.58-.69,0-1l-.42-2.26c-.33-.77-.69-.91-1.1-.06l-.13.21c-3.22,4.63-6.8,2.64-10.53.7-6-3.11-12-6.06-18-9-8-3.93-16-7.71-23.88-11.79-3.4-1.76-6.23,0-9.17.83-12.8,3.62-25.58,7.32-38.3,11.23-3.73,1.15-6.75,3.86-9.54,6.49a15.7,15.7,0,0,1-4.87,3.21c-.75.06-1.31.21-.49,1,3.17,3.91,6.32,7.84,9.54,11.71a2.53,2.53,0,0,1,.49,2.76c-.53,1.22-1.48.52-2.35.27-6.71-2-13.47-3.82-20.14-5.93-1.88-.59-3.06-.41-4.25,1.11-4.1,5.24-9.46,9.32-13.54,14.58a6.88,6.88,0,0,1-6.06,2.56c-1.18-.2-1.68.37-1.71,1.49-1.24-.62-2.81-.71-3.86-2.25a31.78,31.78,0,0,1,3.6-.79,11.38,11.38,0,0,0,8.13-4.13c1.69-2,3.86-3.69,5.58-5.72,2.4-2.82,5.05-5.41,7.8-8.29-2.36-.72-4.29-1.37-6.25-1.89-.85-.22-1.88-.49-1.62-1.4s1.35-.59,2.17-.35l19.49,5.76,10.32,3c-4-6.19-8.92-10.82-12.84-16.27-2-2.81-4.35-5.41-6.54-8.11-.47-.58-.68-1.23-.07-1.77s1,.19,1.34.57c2.16,2.61,4.31,5.23,6.41,7.89,2.47,3.12,2.48,3.19,5.85.84,4.48-3.11,8.9-6.3,13.35-9.45.51-.36,1-1.16,1.69-.44.88,1,1.71.29,2.49.06,9.2-2.64,18.44-5.19,27.57-8.06,4-1.25,8.23-1.76,11.89-4.06a2.8,2.8,0,0,1,2.55.26c3.31,2.61,7.27,3.88,11,5.69,11.93,5.85,23.86,11.69,35.71,17.69,2,1,3.26.61,4.79-.68,1.15-1,2.13-3.1,3.37-2.76s1.81,2.39,2.7,3.67,1.72,2.94,3.74,2.84a109.22,109.22,0,0,1,12.18.5c.94.06,1.9,0,3.58,0-3.38-4-6.26-7.37-9.1-10.77q-12.66-15.13-25.26-30.3c-.78-.94-2.27-1.88-1.66-3.34.7-1.67.16-3-.28-4.56-.82-2.85-1.51-5.74-2.28-8.61-3.08-11.47-6.25-22.92-9.19-34.43-.69-2.71-1.74-5.28-1.49-8.37.44-5.47,1.52-11.35-3.59-15.73-2.34-2-1.73-5.13-2.08-7.75s2.28-2.71,4.12-3.09c1.66-.34,2.7-.71,2.87-2.86.28-3.59,1.32-7.12,1.74-10.71.3-2.52,1.17-5,1-8.15-6.7,9-13.26,17.36-19.32,26.1-2,2.92-4.66,5.46-5.72,9.18-2.55,9-5.54,17.83-8.36,26.73-3.52,11.1-7.07,22.2-10.54,33.32-.63,2-2.92,3.16-3,5.23-.13,2.47-2.23,3.5-3.35,6.11-.18-3.55-2.06-2.29-3.4-2-9.36,2.34-18.65,5-28.07,7.07-6.1,1.36-11.84,4.49-18.61,3-4-.87-8.3-.27-12.46-.11-5.45.2-10.75,1.21-16.28-.82-4.64-1.7-9.86-1.78-14.79-2.75-7.17-1.41-14.6-1.58-21.31-5.2-1.76-1-2.66-2.59-4.56-3.46-6.3-2.89-13.8-3.36-18.67-9.37-1.57-1.94-4.37-2.88-6.58-4.25-.67.65,0,2.13-1.2,2-.78-.09-1.1-1.22-1.09-2a3.11,3.11,0,0,0-1.08-2.38c-.65-.66-2.3-1.89.51-1.64.87.08.49-.67.46-1q-.94-11.47-1.92-23c-.22-2.61-.34-5.13-3-6.83a76.11,76.11,0,0,1-6-4.85c-1.7-1.36-1.45-2.64.08-3.86,2.45-2,4.85-4,7.44-5.79a4.21,4.21,0,0,0,1.93-3.74c.09-2.31,0-4.61.28-7,.46-3.91.18-7.91.82-12.12-9.46,2.91-18.51,5.75-27.61,8.43a3.8,3.8,0,0,0-3.13,3.47,33.11,33.11,0,0,1-1.46,5.49c-.51,1.52-1.4,2.13-3,1a11.84,11.84,0,0,1-2.74-2.5c-.54-.73-1.08-1-1.46-.14-.61,1.36-2,1.93-2.79,3.11-6,8.74-12,17.41-18,26.14-.41.59-1.49,1.33-.84,2s1.35,1.82,2.66,1.58c.91-.17,1.94-.65,1.5,1.1-.25,1,0,2.36-1.8,1.46a3.18,3.18,0,0,0-2.42.18q-3.66,1.16-7.34,2.26c-.75.22-1.58,1-2.27.06s.9-1.08.69-1.89l-25.53-5.63h-1c-3.32-1.23-6.87-1.55-10.25-2.52-1.93-.55-2.06.49-1.76,1.91.88,4.19,2.05,8.34,2.62,12.57.74,5.49,3.61,10.67,2.36,16.47a30.94,30.94,0,0,0-.6,4.16c-.38,5-1,10-1.53,15-.61,5.49-1.3,11-1.9,16.46-.12,1.08,0,2.69-1.24,2.56s-.77-1.83-.68-2.78c.39-3.77,1-7.51,1.43-11.28.85-7.29,1.83-14.57,2.38-21.88.18-2.42,1-4.79.36-7.37-1.9-8.27-3.55-16.59-5.17-24.92a2.22,2.22,0,0,0-2-2.1c-3.22-.71-6.4-1.59-9.63-2.21-5.17-1-10.16-2.81-15.48-3.14s-10.35-1-15.52-1.53c-6.88-.77-13.75-1.6-20.62-2.44a49.4,49.4,0,0,0-9.08-.42c-3,.18-6.1-.36-9.15-.57-5.12-.35-10.24-.62-15.35-1-7.16-.59-14.3-1.4-21.46-1.9-2.31-.16-4.68-.76-6.91-.45-6.2.84-12.33,2.13-18.5,3.19-8.28,1.42-16.59,2.68-24.84,4.24-6.3,1.18-12.8,1.52-18.86,4.27.26.47.51,1,.82,1.46,5.32,8.09,11,16,15.88,24.31a54.76,54.76,0,0,0,24,22.19,3.76,3.76,0,0,0,3,.22c11.88-3.82,23.79-7.57,35.64-11.47,3.41-1.12,7.1-1.49,10.15-3.75.7-.52,2.59-.77,3.16.3,1.08,2,3,2.9,4.74,3.68,6.62,3,13.41,5.65,20.13,8.44.77.32,1.65.63,2,1.46.9,2.49-.71,2.26-2.46,2.55-6.82,1.12-13.61,2.46-20.38,3.85-3.37.69-7.08,1-10,2.67-8.48,4.91-16.68,10.31-24.79,16.13,1.22.58,2.36,1.24,3.58,1.68l39.51,14q23.3,8.16,46.64,16.19c2,.69,4.38,1,3.1,4.11a2.63,2.63,0,0,0,.07,1.23c.63,4.4,1.33,8.79,1.89,13.2.91,7.2,1.67,14.41,2.59,21.61s1.69,14.25,3,21.29c1.52,8.32.6,17,4.36,25,1.35,2.9,2.5,6,3.78,9q5,11.77,10.45,23.35c1.61,3.4,2.79,7,5.16,10.45,3.15-9.65,6.17-19,9.25-28.32l25-75.63c.25-.75.62-1.44,1.52-1.37a116.2,116.2,0,0,0,18.63-.15c6-.47,11.94.11,17.93-.46,6.27-.59,12.6-.15,18.92-.48,11-.57,21.95-.31,32.91-.72,2.48-.09,5.31.44,7.55-1.45v-.5c1.72.91,4,0,5.48,1.57l-.06,1.19c-1.42-.21-2.85-.64-4.07.63-.59.61-1.42.35-2.15.34-9.06-.12-18.11.42-27.15.67-6.14.17-12.31-.18-18.4.42-6.4.64-12.81-.11-19.16.51-6.15.6-12.3,0-18.41.49a84.9,84.9,0,0,1-10.17.37c-1.76-.07-1.79,1.16-2.13,2.17q-5.58,16.69-11.11,33.39c-3.42,10.27-6.9,20.52-10.29,30.79q-6.22,18.81-12.34,37.66a5.58,5.58,0,0,0-.4,1.67c0,.77.19,1.58-.82,1.8-1.24.27-1.52-.75-1.89-1.57q-8.94-19.83-17.87-39.67c-.48-1.07-.74-2.38-2.34-2.52a1.42,1.42,0,0,1-.84-1.11c.19-2-1.15-3.78-.88-5.78.64-.35.58-.69,0-1-1.07-8.72-2.08-17.44-3.22-26.15-1.09-8.29-2.38-16.56-3.45-24.85-1.1-8.55-2-17.12-3-25.69a4.39,4.39,0,0,0-3.46-4.18c-19.79-6.7-39.51-13.61-59.24-20.47-7.57-2.63-15.1-5.36-22.7-7.89-2.06-.69-3.74-2.06-5.82-2.69-1-.32-2.76-.49-2.7-2.11,0-1.37,1.33-2,2.52-2.46,0,0,.13-.1.13-.14a1.92,1.92,0,0,0-.12-.34c-2.17-1.62-4.35-3.24-6.51-4.87a1.78,1.78,0,0,1-.51-2c.22-.83,1-.8,1.62-.8h5.24c.45,0,1.08.32,1.3-.32s-.46-.91-.89-1.27c-4-3.39-9.22-3.34-13.83-5-2.43-.86-5.16-.88-7.24-2.75-.61-.55-1.42-.76-1.26-1.86.13-.93-.77-1.16-1.4-1.51l-16.44-9.22c-.76-.43-1.53-.79-1-1.87C272,361.22,272.32,360.89,271.55,360.55ZM314.81,385c-.46-.37-1.1-.81-1.37-.06s.51.85,1.1.86a1.55,1.55,0,0,0,1.81,0C316.09,385.08,315.55,385,314.81,385Zm8.38-10.89c3,.43,5.79,1.71,8.64,2.67,1.66.56,1.86-.12,1.69-1.42a16.93,16.93,0,0,0-.46-1.65,2.36,2.36,0,0,1,.88-2.18c.73-.79,1.34-.34,2,0q2,1.06,3.88,2.18c1.19.69,1.7.57,1.77-1,.11-2.34.84-2.66,3-1.61,1.25.6,2.48,1.24,3.62,1.81,1.34-1.36-.59-2.32-.16-3.51,2,1.24,3.13-.77,4.68-1.18,1.14-.3,2.06-2,3.3-1s.41,2.47.45,3.75c0,.15-.23.32-.19.44.25.92-.57,2.51,1.82,1.78,3.12-1,6.44-1.21,10.18-1.86-7.19-3.06-13.92-5.9-20.63-8.78-2.46-1-4.87-3-7.34-3s-5.27,1.59-7.91,2.46c-.77.25-1.6.33-2.38.58Q313.43,368,296.86,373.4c-.61.2-1.87-.31-1.82,1.11,0,1.14,1,1.27,1.75,1.46,2.91.81,5.93,1.29,8.77,2.28,1.9.66,2,.09,2-1.52,0-4.11,0-4.17,4.13-3.59.92.13,1.48.29,1.8-.77,1-3.39,1.3-3.49,4.48-2a18.94,18.94,0,0,1,2.28.91c1,.63,1.37.14,1.61-.64.82-2.68,2.42-2.43,4.35-1.25.77.47,1.66.77,2.4,1.29,1,.65,1.43.37,1.9-.56s.56-2.19,2-2.13c-.1,1.7-1.62,2.72-2,4.29-.13.47-.64.26-1,0-.62-.41-1.29-.75-1.94-1.11-3.15-1.7-3.33-1.62-4.43,1.79a5.17,5.17,0,0,0-.12,1c-2.4.65-4-1.33-6-1.92-1.54-.46-2.22.13-1.77,1.38,1,2.93-.89,2.27-2.28,2-3.53-.74-3.71-.65-3.36,2.6.15,1.4.38,2.25,2.28,1.69a10.63,10.63,0,0,1,4.64.13c3.39.59,6.85.81,10.51,1.2C325,378.87,322.22,377.54,323.19,374.14Zm5.31,9-14.26-1.63a47,47,0,0,0,7.38,5,1.73,1.73,0,0,0,1.89,0C325,385.45,326.48,384.45,328.5,383.14Zm-9.07,5.54a57.82,57.82,0,0,0-9.76-1.07c6.19,3.61,5.49,4.37,9.76,1Zm21-12.17c-1.88-1.08-3.31-2.86-4.69-2.16-1.22.62-.8,2.72-.42,4.65,1.57-1.3,2.73-2.65,5.12-2.52Zm-6.64,2.87c-1.3-.37-2.38-.73-3.48-1s-2-1.16-3.32-.64c3.47,4.07,3.91,4.18,6.81,1.61Zm13.52-4c-.6-1.06-1.56-1.08-2.17-1.61s-1-1.09-1.68-.46a2.31,2.31,0,0,0-.38,2.35c.18.85,1,.37,1.64.22.83-.25,1.58-.38,2.59-.58Zm7.5-1.66c-1-.27-2-.51-3-.81-.37-.11-.83-.48-1.06-.06a2.1,2.1,0,0,0-.12,1.42c.12.47.67.36,1.06.34,1.06-.14,2-.83,3.12-1Z" transform="translate(-247.34 -263.34)"/><path class="cls-2" d="M615.55,443.14c0-1.12.53-1.7,1.71-1.49-1.22,1.36.44,1.28.88,1.49,5.79,2.71,11.59,5.42,17.46,8a13.48,13.48,0,0,1,5,3.76c8.16,9.36,17.78,17.09,27.85,24.28.2.14.51.21.62.4.39.64,1.76.79,1.19,1.86-.41.78-1.35.43-2.07.36-3.18-.32-6.29-.73-9.53,0-1.28.29-2.94-.88-4.39-1.48-5.83-2.4-11.5-5.31-17.5-7.14-8.62-2.62-17-5.92-25.49-8.84-11.9-4.08-23.73-8.37-35.59-12.59a12.45,12.45,0,0,1-1.73-.93l.06-1.19c9.19,3.33,18.32,6.83,27.58,10,10.45,3.52,20.61,7.83,31.33,10.67,6.59,1.74,12.86,4.9,19,7.89,5,2.42,10.24,1.53,16,2.37l-2.05-1.72c-.5-.41-.8-.6-1.18-.92-7.27-6.14-15.83-10.71-21.65-18.65a21.38,21.38,0,0,0-9.08-7.55C627.77,449.07,621.71,446,615.55,443.14Z" transform="translate(-247.34 -263.34)"/><path class="cls-2" d="M515.35,293.64c.37-.09.77-.23,1,.17s-.07.55-.31.74A1.15,1.15,0,0,0,515.35,293.64Z" transform="translate(-247.34 -263.34)"/><path class="cls-2" d="M515,299.34c.1.39.19.82-.28,1s-.57-.12-.66-.46C514.49,300,514.75,299.71,515,299.34Z" transform="translate(-247.34 -263.34)"/><path class="cls-2" d="M539.21,314.58c-.84-.36-.83-.71,0-1.06Z" transform="translate(-247.34 -263.34)"/><path class="cls-2" d="M271,358.53c.59.34.65.68,0,1Z" transform="translate(-247.34 -263.34)"/><path class="cls-2" d="M271.55,360.55c.77.34.46.67,0,1Z" transform="translate(-247.34 -263.34)"/><path class="cls-2" d="M653.55,379.55q-.5.81-1,0Z" transform="translate(-247.34 -263.34)"/><path class="cls-2" d="M768.55,411.71c.41-.85.77-.72,1.1.06Z" transform="translate(-247.34 -263.34)"/><path class="cls-2" d="M653.55,414.57c-.81-.81-.26-1,.49-1Z" transform="translate(-247.34 -263.34)"/><path class="cls-2" d="M770,414c.59.34.65.68,0,1Z" transform="translate(-247.34 -263.34)"/><path class="cls-2" d="M413.55,510c.59.34.65.68,0,1Z" transform="translate(-247.34 -263.34)"/><path class="cls-2" d="M312.45,393.06a1.92,1.92,0,0,1,.12.34l-.13.14A1.08,1.08,0,0,0,312.45,393.06Z" transform="translate(-247.34 -263.34)"/><path class="cls-3" d="M615.55,443.14c6.16,2.86,12.23,5.94,18.51,8.5a21.38,21.38,0,0,1,9.08,7.55c5.82,7.94,14.38,12.51,21.65,18.65.38.32.79.6,1.18.92s1,.82,2.05,1.72c-5.8-.85-11,0-16-2.37-6.19-3-12.46-6.15-19-7.89-10.72-2.83-20.88-7.15-31.33-10.67-9.26-3.12-18.39-6.62-27.58-10-1.51-1.62-3.76-.66-5.48-1.57-7.1-3-14.53-5.13-21.7-8-5.77-2.29-12-3.4-17.23-7.08l-.48-.2.2.48c.73,1.34,1.8,3,3.08,3.06,3.53.29,6.55,1.94,9.76,3,8.82,3,17.58,6.11,26.37,9.19-2.23,1.89-5.07,1.36-7.55,1.45-11,.41-22,.15-32.91.72-6.32.33-12.65-.11-18.92.48-6,.57-12,0-17.93.46a116.2,116.2,0,0,1-18.63.15c-.9-.07-1.27.62-1.52,1.37q-12.52,37.81-25,75.63c-3.08,9.32-6.1,18.67-9.25,28.32-2.36-3.39-3.55-7-5.16-10.45Q426.3,535,421.31,523.26c-1.28-3-2.43-6.16-3.78-9-3.76-8.06-2.83-16.73-4.36-25-1.29-7-2.07-14.18-3-21.29s-1.68-14.41-2.59-21.61c-.56-4.41-1.26-8.8-1.89-13.2a2.63,2.63,0,0,1-.07-1.23c1.29-3.15-1.1-3.42-3.1-4.11q-23.33-8.07-46.64-16.19-19.78-6.93-39.51-14c-1.22-.44-2.36-1.1-3.58-1.68,8.12-5.81,16.32-11.21,24.79-16.13,2.87-1.66,6.58-2,10-2.67,6.77-1.39,13.56-2.72,20.38-3.85,1.76-.29,3.37-.06,2.46-2.55-.3-.83-1.18-1.14-2-1.46-6.72-2.79-13.5-5.44-20.13-8.44-1.74-.81-3.74-1.66-4.79-3.66-.57-1.07-2.45-.82-3.16-.3-3.06,2.26-6.74,2.63-10.15,3.75-11.85,3.9-23.76,7.65-35.64,11.47a3.76,3.76,0,0,1-3-.22,54.76,54.76,0,0,1-24-22.19c-4.86-8.35-10.56-16.22-15.88-24.31-.31-.47-.56-1-.82-1.46,6.06-2.75,12.56-3.09,18.86-4.27,8.25-1.55,16.56-2.81,24.84-4.24,6.17-1.06,12.3-2.35,18.5-3.19,2.23-.3,4.6.29,6.91.45,7.16.5,14.3,1.3,21.46,1.9,5.11.42,10.23.7,15.35,1,3,.21,6.12.75,9.15.57a49.4,49.4,0,0,1,9.08.42c6.87.84,13.74,1.67,20.62,2.44,5.17.58,10.34,1.21,15.52,1.53s10.31,2.16,15.48,3.14c3.23.62,6.42,1.5,9.63,2.21a2.22,2.22,0,0,1,2,2.1c1.61,8.33,3.26,16.66,5.17,24.92.6,2.59-.17,5-.36,7.37-.55,7.31-1.53,14.59-2.38,21.88-.44,3.76-1,7.51-1.43,11.28-.1,1-.66,2.64.68,2.78s1.12-1.48,1.24-2.56c.6-5.49,1.28-11,1.9-16.46.56-5,1.15-10,1.53-15a30.94,30.94,0,0,1,.6-4.16c1.25-5.8-1.62-11-2.36-16.47-.57-4.23-1.74-8.38-2.62-12.57-.3-1.42-.17-2.46,1.76-1.91,3.38,1,6.93,1.29,10.25,2.52,1.59,6.74,3.33,13.44,4.72,20.22,1.08,5.24,3.38,10.3,3.14,15.72-.22,4.93-1.09,9.84-1.68,14.76-.57,4.67-1.16,9.33-1.72,14a1,1,0,0,0,.7,1.17c.27-2,.55-3.86.79-5.75.64-5.16,1.48-10.3,1.82-15.48.36-5.38,2.12-10.59-.1-16.24s-2.9-11.66-4.24-17.53c-.82-3.61-2.1-7.11-2.41-10.83l25.53,5.63c.22.82-1.33,1.06-.69,1.89s1.52.16,2.27-.06q3.68-1.1,7.34-2.26a3.18,3.18,0,0,1,2.42-.18c1.81.91,1.54-.45,1.8-1.46.44-1.75-.6-1.27-1.5-1.1-1.31.24-2-.91-2.66-1.58s.43-1.38.84-2c6-8.72,12.06-17.4,18-26.14.8-1.18,2.18-1.74,2.79-3.11.38-.83.92-.59,1.46.14a11.84,11.84,0,0,0,2.74,2.5c1.6,1.16,2.49.54,3-1a33.11,33.11,0,0,0,1.46-5.49,3.8,3.8,0,0,1,3.13-3.47c9.1-2.68,18.15-5.52,27.61-8.43-.64,4.21-.36,8.2-.82,12.12-.28,2.33-.19,4.63-.28,7a4.21,4.21,0,0,1-1.93,3.74c-2.59,1.77-5,3.82-7.44,5.79-1.53,1.23-1.78,2.5-.08,3.86a76.11,76.11,0,0,0,6,4.85c2.63,1.7,2.75,4.22,3,6.83q1,11.47,1.92,23c0,.38.42,1.13-.46,1-2.8-.25-1.16,1-.51,1.64a3.11,3.11,0,0,1,1.08,2.38c0,.83.31,2,1.09,2,1.2.15.53-1.33,1.2-2,2.2,1.37,5,2.31,6.58,4.25,4.87,6,12.37,6.48,18.67,9.37,1.9.87,2.79,2.51,4.56,3.46,6.71,3.62,14.14,3.79,21.31,5.2,4.93,1,10.15,1,14.79,2.75,5.53,2,10.83,1,16.28.82,4.16-.15,8.49-.76,12.46.11,6.77,1.48,12.51-1.65,18.61-3,9.41-2.1,18.7-4.74,28.07-7.07,1.33-.33,3.21-1.6,3.4,2,1.12-2.61,3.22-3.64,3.35-6.11.11-2.08,2.4-3.2,3-5.23q5.2-16.68,10.54-33.32c2.82-8.9,5.81-17.76,8.36-26.73,1.06-3.72,3.69-6.26,5.72-9.18,6.06-8.73,12.62-17.12,19.32-26.1.19,3.15-.68,5.63-1,8.15-.42,3.59-1.46,7.12-1.74,10.71-.17,2.15-1.21,2.52-2.87,2.86-1.84.37-4.48.36-4.12,3.09s-.26,5.74,2.08,7.75c5.11,4.39,4,10.27,3.59,15.73-.25,3.1.8,5.67,1.49,8.37,2.93,11.51,6.11,23,9.19,34.43.77,2.87,1.47,5.76,2.28,8.61.43,1.51,1,2.89.28,4.56-.61,1.46.88,2.4,1.66,3.34q12.56,15.2,25.26,30.3c2.85,3.4,5.72,6.78,9.1,10.77-1.69,0-2.64,0-3.58,0A109.22,109.22,0,0,0,776,415c-2,.09-2.8-1.5-3.74-2.84s-1.55-3.35-2.7-3.67-2.21,1.79-3.37,2.76c-1.53,1.29-2.77,1.7-4.79.68-11.85-6-23.79-11.84-35.71-17.69-3.7-1.81-7.66-3.08-11-5.69a2.8,2.8,0,0,0-2.55-.26c-3.66,2.3-7.91,2.8-11.89,4.06-9.13,2.88-18.36,5.42-27.57,8.06-.78.22-1.61.92-2.49-.06-.64-.72-1.18.08-1.69.44-4.45,3.15-8.87,6.34-13.35,9.45-3.37,2.34-3.38,2.28-5.85-.84-2.1-2.66-4.25-5.28-6.41-7.89-.32-.38-.64-1.19-1.34-.57s-.4,1.19.07,1.77c2.19,2.69,4.51,5.29,6.54,8.11,3.92,5.45,8.87,10.08,12.84,16.27l-10.47-3-19.47-5.8c-.82-.24-1.89-.61-2.17.35s.77,1.17,1.62,1.4c2,.52,3.9,1.17,6.25,1.89-2.75,2.89-5.4,5.47-7.8,8.29-1.72,2-3.89,3.67-5.58,5.72a11.38,11.38,0,0,1-8.13,4.13,31.78,31.78,0,0,0-3.6.79C612.74,442.42,614.31,442.51,615.55,443.14Zm-97.2-20.39.5.51a14.82,14.82,0,0,0,4.62,4.39l.49.19-.2-.49a14.31,14.31,0,0,0-4.61-4.4l-.51-.48-.49-.22Zm11,24.59a5.6,5.6,0,0,0-.78-.87c-4.08-3-8.24-5.9-12.25-9-9.93-7.67-20.57-14.4-30.19-22.49a4.27,4.27,0,0,0-1.57-.74q-30-8.52-60-17c-3.16-.9-6.26-2-9.65-1.08a58,58,0,0,1-6.1,1q-9.43,1.39-18.87,2.75l-18.87,2.76-19.8,2.94c9.88,3.67,19.48,7.34,29.15,10.79,12.76,4.56,25.21,9.89,38.6,12.77,23.18,5,46.19,10.74,69.28,16.15,3.85.9,7.69,2.34,11.57,2.5,9,.37,18,.11,27,.09.84,0,1.68.23,2.49-.57ZM494.76,394.9a1.69,1.69,0,0,0,1.41,1.1c6.87.86,13.76,1.64,20.62,2.58,3.07.42,6.1.67,9,2.29,8.62,4.81,17.48,9.17,26.13,13.91,5.38,3,11.33,4.43,16.85,7.07,11.88,5.69,23.91,11.06,35.93,16.43,2,.9,3.92,2.27,6.86,2.72-2.06-1.87-4.14-2.29-6-3.13-10.53-4.86-21.1-9.63-31.66-14.42-8.74-4-17.58-7.71-26.19-11.92s-16.91-8.83-25.35-13.26c-.57-.3-1.1-.79-1.83-.66-5.08.86-9.93-1-14.91-1.32-3.53-.25-7.07-.89-10.86-1.39ZM319,321.52a3.78,3.78,0,0,0-3.91-3.55c-2.12,0-3.12,1.43-3.44,3.24-.28,1.61,2.13,3.81,3.89,3.8A3.74,3.74,0,0,0,319,321.52Zm197.3,98.84a2.55,2.55,0,0,0-.4-.2l-.17.17a3.3,3.3,0,0,0,.42.22Z" transform="translate(-247.34 -263.34)"/><path class="cls-4" d="M332.55,368c-1.47,0-1.58,1.24-2,2.13s-1,1.21-1.9.56c-.74-.51-1.63-.81-2.4-1.29-1.93-1.18-3.52-1.44-4.35,1.25-.24.78-.64,1.27-1.61.64a18.94,18.94,0,0,0-2.28-.91c-3.18-1.51-3.47-1.41-4.48,2-.32,1-.87.9-1.8.77-4.09-.59-4.16-.52-4.13,3.59,0,1.62-.11,2.18-2,1.52-2.84-1-5.86-1.46-8.77-2.28-.69-.19-1.71-.32-1.75-1.46,0-1.42,1.21-.91,1.82-1.11,11-3.64,22.11-7.21,33.17-10.78.78-.25,1.61-.33,2.38-.58,2.65-.87,5.3-2.54,7.91-2.46s4.88,2,7.34,3c6.71,2.87,13.44,5.72,20.63,8.78-3.73.65-7.06.91-10.18,1.86-2.39.73-1.57-.86-1.82-1.78,0-.12.2-.3.19-.44,0-1.28.7-2.87-.45-3.75s-2.17.74-3.3,1c-1.55.42-2.71,2.42-4.68,1.18v.06a4,4,0,0,0-2.49-2h0c-.14-1-.11-2-1.78-1.27a6.85,6.85,0,0,0-3.28,2.77h0c-2,1.28-3.44-.41-5.12-.9-.91-.26-1.86-1.74-2.87-.11Z" transform="translate(-247.34 -263.34)"/><path class="cls-5" d="M323,373.94a5.18,5.18,0,0,1,.12-1c1.1-3.41,1.29-3.49,4.43-1.79.66.35,1.32.7,1.94,1.11.39.25.91.46,1,0,.42-1.57,2-2.59,2-4.29h0c1.91.84,3.8,1.75,5.75,2.49,1.27.48,2.33.27,2.24-1.48h0c1.9.21,3.07-2,5.06-1.5h0c.11,1.56.9,2.28,2.49,2v-.06c-.43,1.19,1.5,2.15.16,3.51-1.13-.57-2.37-1.2-3.62-1.81-2.19-1.06-2.92-.74-3,1.61-.08,1.57-.58,1.7-1.77,1s-2.58-1.47-3.88-2.18c-.64-.35-1.24-.8-2,0a2.36,2.36,0,0,0-.88,2.18c.12.56.38,1.09.46,1.65.17,1.3,0,2-1.69,1.42-2.85-1-5.62-2.24-8.64-2.67A1,1,0,0,1,323,373.94Z" transform="translate(-247.34 -263.34)"/><path class="cls-6" d="M323.19,374.14c-1,3.39,1.86,4.71,3.81,6.85-3.66-.4-7.12-.61-10.51-1.2a10.63,10.63,0,0,0-4.64-.13c-1.9.56-2.13-.29-2.28-1.69-.35-3.24-.17-3.34,3.36-2.6,1.39.29,3.32,1,2.28-2-.45-1.26.23-1.84,1.77-1.38,2,.59,3.59,2.57,6,1.92A1,1,0,0,0,323.19,374.14Z" transform="translate(-247.34 -263.34)"/><path class="cls-7" d="M453.12,329.59c.31,3.72,1.59,7.23,2.41,10.83,1.34,5.87,2.06,12,4.24,17.53s.45,10.86.1,16.24c-.34,5.18-1.18,10.32-1.82,15.48-.24,1.9-.52,3.79-.79,5.75-.82-.34-.74-.81-.7-1.17.56-4.67,1.15-9.33,1.72-14,.6-4.92,1.46-9.82,1.68-14.76.24-5.42-2.06-10.48-3.14-15.72-1.39-6.78-3.13-13.48-4.72-20.22Z" transform="translate(-247.34 -263.34)"/><path class="cls-8" d="M568.55,448.52c-8.79-3.07-17.55-6.2-26.37-9.19-3.21-1.09-6.23-2.73-9.76-3-1.28-.11-2.35-1.71-3.08-3.06l.27-.28c5.2,3.67,11.46,4.79,17.23,7.08,7.16,2.84,14.6,4.94,21.7,8Z" transform="translate(-247.34 -263.34)"/><path class="cls-9" d="M328.5,383.14c-2,1.34-3.49,2.34-5,3.3a1.73,1.73,0,0,1-1.89,0,47,47,0,0,1-7.38-5Z" transform="translate(-247.34 -263.34)"/><path class="cls-10" d="M319.43,388.65c-4.27,3.32-3.57,2.57-9.76-1.07A57.82,57.82,0,0,1,319.43,388.65Z" transform="translate(-247.34 -263.34)"/><path class="cls-11" d="M340.44,376.48c-2.39-.13-3.55,1.22-5.12,2.49-.37-1.93-.8-4,.42-4.65C337.13,373.62,338.55,375.4,340.44,376.48Z" transform="translate(-247.34 -263.34)"/><path class="cls-9" d="M333.8,379.35c-2.9,2.57-3.33,2.46-6.8-1.62,1.28-.52,2.25.39,3.32.64S332.49,379,333.8,379.35Z" transform="translate(-247.34 -263.34)"/><path class="cls-10" d="M347.31,375.3c-1,.2-1.8.32-2.58.51-.61.15-1.46.63-1.64-.22a2.31,2.31,0,0,1,.38-2.35c.72-.63,1.2.06,1.68.46S346.71,374.24,347.31,375.3Z" transform="translate(-247.34 -263.34)"/><path class="cls-12" d="M354.81,373.64c-1.13.14-2.06.83-3.12.89-.39,0-.94.12-1.06-.34a2.1,2.1,0,0,1,.12-1.42c.23-.42.69,0,1.06.06C352.8,373.14,353.81,373.38,354.81,373.64Z" transform="translate(-247.34 -263.34)"/><path class="cls-2" d="M314.81,385a1.24,1.24,0,0,1,1.54.83,1.55,1.55,0,0,1-1.81,0,.57.57,0,0,0,.31-.74Z" transform="translate(-247.34 -263.34)"/><path class="cls-13" d="M314.81,385a.57.57,0,0,1-.22.78l0,0c-.6,0-1.35-.15-1.1-.86S314.36,384.67,314.81,385Z" transform="translate(-247.34 -263.34)"/><path class="cls-14" d="M529.36,447.34c-.76.84-1.64.58-2.45.58-9,0-18,.28-27-.09-3.88-.16-7.72-1.59-11.57-2.5-23.09-5.42-46.1-11.17-69.28-16.15-13.39-2.88-25.84-8.21-38.6-12.77-9.67-3.45-19.27-7.13-29.15-10.79l19.8-2.94L390,399.92l18.87-2.75a58,58,0,0,0,6.1-1c3.39-.88,6.5.19,9.65,1.08l60,17a4.27,4.27,0,0,1,1.57.74c9.62,8.09,20.26,14.82,30.19,22.49,4,3.1,8.17,6,12.25,9A5.6,5.6,0,0,1,529.36,447.34Z" transform="translate(-247.34 -263.34)"/><path class="cls-8" d="M494.76,394.9c3.79.5,7.33,1.14,10.9,1.39,5,.35,9.83,2.18,14.91,1.32.74-.12,1.26.36,1.83.66,8.45,4.43,16.79,9.08,25.35,13.26s17.46,8,26.19,11.92c10.56,4.79,21.13,9.56,31.66,14.42,1.83.84,3.91,1.26,6,3.13-2.94-.45-4.84-1.81-6.86-2.72-12-5.37-24.06-10.74-35.93-16.43-5.51-2.64-11.46-4.12-16.85-7.07-8.65-4.74-17.52-9.1-26.13-13.91-2.91-1.62-5.94-1.87-9-2.29-6.86-.94-13.75-1.72-20.62-2.58A1.69,1.69,0,0,1,494.76,394.9Z" transform="translate(-247.34 -263.34)"/><path class="cls-15" d="M319,321.52A3.74,3.74,0,0,1,315.6,325c-1.76,0-4.18-2.18-3.89-3.8C312,319.4,313,318,315.15,318A3.78,3.78,0,0,1,319,321.52Z" transform="translate(-247.34 -263.34)"/><path class="cls-8" d="M519.14,423a14.32,14.32,0,0,1,4.61,4.4l-.3.29a14.83,14.83,0,0,1-4.62-4.39Z" transform="translate(-247.34 -263.34)"/><path class="cls-8" d="M516.35,420.36c-.05.06-.13.19-.15.18a3.3,3.3,0,0,1-.42-.22c.06-.06.14-.18.17-.17A2.5,2.5,0,0,1,516.35,420.36Z" transform="translate(-247.34 -263.34)"/><path class="cls-8" d="M518.34,422.75l-.21-.49.49.22Z" transform="translate(-247.34 -263.34)"/><path class="cls-8" d="M518.84,423.26l-.5-.51.28-.27.51.48Z" transform="translate(-247.34 -263.34)"/><path class="cls-8" d="M523.76,427.35l.2.49-.49-.19Z" transform="translate(-247.34 -263.34)"/><path class="cls-8" d="M529.35,433.24l-.2-.48.48.2Z" transform="translate(-247.34 -263.34)"/><path class="cls-1" d="M340.55,369c.09,1.75-1,2-2.24,1.48-2-.74-3.84-1.65-5.75-2.49,1-1.64,2-.16,2.87.11C337.07,368.61,338.55,370.3,340.55,369Z" transform="translate(-247.34 -263.34)"/><path class="cls-1" d="M345.55,367.51c-2-.51-3.16,1.71-5.06,1.5a6.86,6.86,0,0,1,3.28-2.77C345.47,365.54,345.44,366.47,345.55,367.51Z" transform="translate(-247.34 -263.34)"/><path class="cls-1" d="M348.08,369.51c-1.6.29-2.38-.43-2.49-2A4,4,0,0,1,348.08,369.51Z" transform="translate(-247.34 -263.34)"/></svg>