<svg id="Ebene_1" data-name="Ebene 1" xmlns="http://www.w3.org/2000/svg" viewBox="0 0 504.44 261.57"><defs><style>.cls-1{fill:#997f60;}.cls-2{fill:#cfb08b;}.cls-3{fill:#020202;}.cls-4{fill:#28211a;}.cls-5{fill:#3d3226;}.cls-6{fill:#443e37;}.cls-7{fill:#3c3125;}.cls-8{fill:#695742;}.cls-9{fill:#5a5248;}.cls-10{fill:#504941;}</style></defs><title>hammershark</title><path class="cls-1" d="M307.36,237.8c-.22-.27-.36-.48-.53-.66-3-3.17-3-3-6.92-.68-8.06,4.79-16.22,9.41-24.34,14.11-5.77,3.34-11.51,6.71-17.29,10-1.44.83-2.76,2-4.7,1.55-.59-.14-1.45.92-2,0s.27-1.66.8-2.19a81.27,81.27,0,0,0,5.55-6.65c3.69-4.54,7.39-9.06,11-13.66,2.61-3.33,2.36-7.62,3.54-11.43.53-1.7.73-3.5,1.17-5.69-10.45,5.91-20.52,11.64-30.65,17.27-1.21.68-2.76,2.4-3.85,1.36-.86-.82.81-2.42,1.53-3.58,3.34-5.38,6.76-10.7,10.06-16.1,1.55-2.54.63-4.75-2.37-5.51-6.84-1.71-13.69-3.4-20.58-4.87-4.95-1.06-9.83-2.52-14.95-2.73-.58,0-1.14-.59-1.69-.94a1.89,1.89,0,0,0-2.47.24Q194,219.36,179.33,231,165.63,242,152,252.93c-2.25,1.81-4.39,3.76-6.64,5.56a4.64,4.64,0,0,0-1.58,2.1c-.24.64-.51,1.7-1.47,1.25-.63-.3-.27-1.17,0-1.81q2.29-6.77,4.54-13.55c.78-2.34,1.51-4.69,2.3-7,.44-1.31,1.13-2,2.74-1.48,2.55.9,5.25.51,7.89.54.92,0,1.33-.17.94-1.32a28.41,28.41,0,0,0-1.53-3.37c-.18-.36-.24-.86-.83-.61s-1.13,1.22-1.54.16a3.13,3.13,0,0,1-.31-2.78c2.75-6.07,5.33-12.21,8-18.33.62-1.43,1.26-2.86,1.87-4.3a2.68,2.68,0,0,0-.5-3c-8-10.42-15.93-20.93-24-31.34-8.9-11.52-17.91-23-26.86-34.45-5.76-7.39-11.44-14.86-17.27-22.2-8.19-10.31-16.52-20.52-24.73-30.81-6.15-7.72-12.19-15.52-18.33-23.25-1-1.3-2.44-2.3-3.42-3.63s-1-2.26,1.17-2.58,4.4.39,6.6.47a3.31,3.31,0,0,1,2.91,2.37c1.46,3.66,3.06,7.27,4.41,11,.47,1.3,1,1.4,2.1,1s2.4-.43,3.23-1.11c1.66-1.34,2.87-.65,4,.47,6.14,5.85,13,10.82,19.56,16.15l16.52,13.36q11.06,8.89,22.16,17.74c8.11,6.46,16.23,12.92,24.4,19.3,7.84,6.12,15.77,12.13,23.63,18.23q8.39,6.51,16.69,13.12a5.92,5.92,0,0,0,5.12,1.39c3.08-.47,6.2-2,9.47-.77.3.11.89-.34,1.27-.64,10-7.8,20-15.57,29.91-23.47,1.5-1.19,2.36-1.09,3.47.25,4.74,5.66,9.54,11.27,14.22,17a2.75,2.75,0,0,0,3.58,1c8.77-3,17.6-5.85,26.4-8.78l60.67-20.23A1.58,1.58,0,0,0,354,133c1.6-12,3.27-24.09,4.9-36.14q2.53-18.74,5-37.48c.81-6.07,1.65-12.14,2.42-18.22.19-1.51-.54-3.09.38-4.56.35-.55.46-1.5,1.14-1.51,1,0,.82,1.14,1,1.75,1.61,7.26,3.12,14.54,4.69,21.8q4.07,18.76,8.19,37.52c2.26,10.32,4.55,20.63,6.76,31a4,4,0,0,0,2.36,3.12q38.43,19.46,76.82,39c4,2,8.21,3.64,12.28,5.54,2.77,1.29,6.32,1,9.53,1.28q13.09,1.26,26.19,2.44c6.51.57,13,1,19.53,1.59,4.43.4,8.85,1,13.28,1.43a9.18,9.18,0,0,0,3.47,0c1.38-.42,2.09.49,2.74,1.13.94.91-.59,1-.86,1.6a5.86,5.86,0,0,0,0,3.6c.67,3.53-.38,7.12.57,10.63.3,1.12-.89,1.21-1.73,1.13-10.62-1-21.23-2-31.86-2.86-6.11-.5-12.24-.7-18.35-1.13q-9.52-.66-19-1.51c-2.23-.2-3.68.63-5.33,2.16-10.1,9.32-19.46,19.38-29.35,28.9-1.35,1.3-1.38,2.19-.32,3.55q15,19.24,30.06,38.52,8.76,11.17,17.7,22.2c1.49,1.84,1.36,3.92,1.27,6-.07,1.57-1.1,1.44-2.3.7-5.48-3.37-10.49-7.36-15.65-11.18Q463.77,273.29,448,261.67c-9.32-6.89-18.79-13.59-27.86-20.79a24.42,24.42,0,0,0-14.45-5.24c-10.24-.6-20.49-1.15-30.7-2.06-4.46-.4-9-.12-13.37-1-7.16-1.36-13.38,1.41-19.75,3.94-22.6,9-45.27,17.72-67.83,26.75-3,1.2-5.82,2.16-9,1.86-.66-.06-1.44.08-1.76-.64-.41-.92.46-1.38,1-1.79a29.79,29.79,0,0,1,4.43-3.1c10.83-5.6,21.38-11.72,31.94-17.8C302.8,240.46,305,239.14,307.36,237.8ZM348,197l2.52-.07,51.53.1h31.45a4.69,4.69,0,0,0-2.71-.57c-9.4,0-18.81-.14-28.21,0-3.76.07-7.32-1.37-11.06-1-.44.14-.51.52-.57.9-5.16,0-10.32-.09-15.47,0-8.31.19-16.61-.67-24.92-.16a5.66,5.66,0,0,0-2.57-.15c-.51,0-1.29-.21-1.23.58S347.55,197.14,348,197Zm196.58-.51.94-.41c1.45,1.46,3.32.66,5,1,1.27.24,1.55-.15,1.52-1.36-.07-3.41-.06-6.83,0-10.24,0-1.31-.28-1.9-1.77-2-3.87-.22-7.74-.64-11.6-1-6.57-.63-13.14-1.31-19.71-1.93-4.11-.39-8.24-.63-12.34-1.09-7.31-.81-14.59-1.84-22-1.91-2.31,0-4.78.62-6.89.16-5.27-1.17-10.58-.62-15.84-1-7.42-.56-14.89-.75-22.34-1.08l-23.09-1c-7.12-.3-14.23-.69-21.35-1-7.95-.33-15.9-.74-23.84-1-6.39-.2-12.76-.83-19.16-.66-1.76,0-3.56.41-5.17.32-6.51-.34-13-.87-19.53-1.35-2.47-.18-5-.26-7.43-.47-5.68-.48-11.36-.93-17-1.44-2.21-.2-3.12.94-3.47,3-.6,3.41-1.22,6.82-2,10.19-.45,1.91.81,1.27,1.65,1.36s1.59-.11,2.41-.09c6.23.16,12.46,1.07,18.71.29a16.5,16.5,0,0,1,2-.1c4.46.29,8.93.55,13.38.94,2.52.22,5-1,7.33-.69,8.13,1.25,16.35.91,24.51,1.55,6.92.55,13.89.76,20.84,1q15.89.65,31.77,1.55c5.72.32,11.47.1,17.16.62,3.82.35,7.64.13,11.43.47,9.08.82,18.19.87,27.28,1.45,1,.06,1.92-.7,2.91-.1,2.43,1.47,5.13,1.5,7.88,1.68,7.66.5,15.31,1.24,23,1.91q7,.61,14.1,1.1c6.85.44,13.76,1.25,20.71,1.33Zm-109.8.92-.71.52,8.1,13.47.69-.43Zm-88,.29.55.52-8.63,8.45-.52-.54Z" transform="translate(-50.53 -35.09)"/><path class="cls-2" d="M299.19,183.54c-.84-.09-2.09.55-1.65-1.36.79-3.37,1.41-6.78,2-10.19.35-2,1.26-3.15,3.47-3,5.67.5,11.35,1,17,1.44,2.47.21,5,.29,7.43.47,6.51.48,13,1,19.53,1.35,1.61.08,3.41-.28,5.17-.32,6.41-.17,12.78.46,19.16.66,7.95.25,15.89.66,23.84,1,7.11.29,14.23.69,21.35,1l23.09,1c7.45.33,14.92.51,22.34,1.08,5.26.4,10.58-.15,15.84,1,2.1.47,4.58-.18,6.89-.16,7.37.07,14.65,1.1,22,1.91,4.1.46,8.23.7,12.34,1.09,6.57.62,13.14,1.3,19.71,1.93,3.86.37,7.73.8,11.6,1,1.49.08,1.79.68,1.77,2-.06,3.41-.06,6.83,0,10.24,0,1.21-.25,1.59-1.52,1.36-1.66-.31-3.53.48-5-1a2.27,2.27,0,0,1,.41-.27c3.43-1.33,4.15-2.47,3.57-5.63-.48-2.6-1.49-3.2-5.31-3.16H543c-.16-.24-.28-.31-.29.07-2.46,1.88-2.92,3.68-2.05,6.16.7,2,2.45,2.38,4,3.2-7-.08-13.86-.89-20.79-1.37q-7.05-.49-14.1-1.1c-7.65-.67-15.3-1.41-23-1.91-2.75-.18-5.45-.21-7.88-1.68-1-.6-1.93.16-2.91.1-9.09-.58-18.2-.63-27.28-1.45-3.79-.34-7.61-.13-11.43-.47-5.69-.51-11.45-.3-17.16-.62q-15.88-.88-31.77-1.55c-6.95-.28-13.92-.49-20.84-1-8.16-.64-16.38-.3-24.51-1.55-2.36-.36-4.81.91-7.33.69-4.45-.39-8.92-.65-13.38-.94a16.57,16.57,0,0,0-2,.1c-4.28-.23-8.58,0-12.86-.64a80.23,80.23,0,0,0-8.17-.57c-.31,0-.92-.24-.83.43C298.47,183.14,298.93,183.34,299.19,183.54Zm2.92-5c-.18.71.27,1,.82,1.15a4.67,4.67,0,0,0,4.52,1.71c.61.29,1-.09,1.28-.5,2.62-2.16,3.21-4,2.18-6.65a4.43,4.43,0,0,0-4.85-3c-3.2.15-5,3.39-4,7.26Z" transform="translate(-50.53 -35.09)"/><path class="cls-3" d="M544.63,196.53c-1.51-.82-3.27-1.2-4-3.2-.87-2.48-.4-4.28,2.05-6.16h.16l.13-.11h1.24c3.82,0,4.83.57,5.31,3.16.58,3.16-.14,4.3-3.57,5.63a2.27,2.27,0,0,0-.41.27Z" transform="translate(-50.53 -35.09)"/><path class="cls-4" d="M350.55,196.32c8.31-.5,16.61.35,24.92.16,5.15-.12,10.31,0,15.47,0h1.69l-1.12-.9c3.74-.36,7.3,1.08,11.06,1,9.4-.19,18.8,0,28.21,0a4.69,4.69,0,0,1,2.71.57H402l-51.53-.1Z" transform="translate(-50.53 -35.09)"/><path class="cls-5" d="M434.83,197.45,442.91,211l-.69.43L434.12,198Z" transform="translate(-50.53 -35.09)"/><path class="cls-6" d="M299.19,183.54c-.26-.19-.72-.36-.75-.58-.09-.67.52-.44.83-.43a80.23,80.23,0,0,1,8.17.57c4.28.68,8.58.42,12.86.64-6.25.79-12.47-.13-18.71-.29C300.78,183.43,300,183.55,299.19,183.54Z" transform="translate(-50.53 -35.09)"/><path class="cls-7" d="M346.81,197.74l-8.6,8.43.52.54,8.63-8.45Z" transform="translate(-50.53 -35.09)"/><path class="cls-7" d="M350.55,196.32V197L348,197v-.87A5.66,5.66,0,0,1,350.55,196.32Z" transform="translate(-50.53 -35.09)"/><path class="cls-4" d="M348,196.14V197c-.48.11-1.19.6-1.25-.29S347.55,196.14,348,196.14Z" transform="translate(-50.53 -35.09)"/><path class="cls-8" d="M391.55,195.56l1.12.9H391C391.06,196.08,391.12,195.7,391.55,195.56Z" transform="translate(-50.53 -35.09)"/><path class="cls-3" d="M307.45,181.37a4.67,4.67,0,0,1-4.52-1.71c.12-.66-.37-.89-.82-1.15-1-3.88.75-7.11,4-7.3a4.43,4.43,0,0,1,4.85,3c1,2.62.43,4.49-2.18,6.65C308.1,180.51,307.74,180.86,307.45,181.37Z" transform="translate(-50.53 -35.09)"/><path class="cls-9" d="M302.11,178.51c.45.26.94.49.82,1.15C302.37,179.48,301.93,179.22,302.11,178.51Z" transform="translate(-50.53 -35.09)"/><path class="cls-9" d="M307.45,181.37c.29-.51.65-.87,1.28-.5C308.4,181.29,308,181.66,307.45,181.37Z" transform="translate(-50.53 -35.09)"/><path class="cls-10" d="M543,187.14l-.13.11h-.16C542.73,186.78,542.85,186.85,543,187.14Z" transform="translate(-50.53 -35.09)"/></svg>