<svg id="Ebene_1" data-name="Ebene 1" xmlns="http://www.w3.org/2000/svg" viewBox="0 0 616.09 390.09"><defs><style>.cls-1{fill:#fefefe;}.cls-2{fill:#997f60;}.cls-3{fill:#cfb08b;}.cls-4{fill:#020202;}.cls-5{fill:#28211a;}.cls-6{fill:#3d3226;}.cls-7{fill:#443e37;}.cls-8{fill:#3c3125;}.cls-9{fill:#695742;}.cls-10{fill:#5a5248;}.cls-11{fill:#504941;}</style></defs><title>hammershark</title><path class="cls-1" d="M1151.5,637.91q-152.88,0-305.75,0c-1.87,0-2.3-.42-2.3-2.3q.08-192.75,0-385.5c0-1.87.42-2.3,2.3-2.3q305.75.07,611.5,0c1.87,0,2.3.42,2.3,2.3q-.08,192.75,0,385.5c0,1.87-.42,2.3-2.3,2.3Q1304.37,637.88,1151.5,637.91Zm-.69-152.25c-2.36,1.37-4.56,2.66-6.77,3.94-10.57,6.08-21.11,12.19-31.94,17.8a29.79,29.79,0,0,0-4.43,3.1c-.53.41-1.4.87-1,1.79.32.72,1.1.58,1.76.64,3.21.29,6-.67,9-1.86,22.57-9,45.23-17.8,67.83-26.75,6.37-2.52,12.59-5.3,19.75-3.94,4.4.84,8.91.56,13.37,1,10.22.91,20.46,1.46,30.7,2.06a24.42,24.42,0,0,1,14.45,5.24c9.07,7.2,18.54,13.9,27.86,20.79q15.76,11.65,31.54,23.28c5.15,3.81,10.17,7.81,15.65,11.18,1.2.74,2.24.87,2.3-.7.09-2,.21-4.11-1.27-6q-8.93-11-17.7-22.2c-10-12.82-20-25.69-30.06-38.52-1.06-1.36-1-2.25.32-3.55,9.89-9.53,19.26-19.58,29.35-28.9,1.65-1.53,3.1-2.36,5.33-2.16q9.5.86,19,1.51c6.11.42,12.25.63,18.35,1.13,10.63.87,21.24,1.91,31.86,2.86.85.08,2,0,1.73-1.13-.95-3.52.1-7.1-.57-10.63a5.86,5.86,0,0,1,0-3.6c.26-.57,1.79-.69.86-1.6-.65-.63-1.36-1.55-2.74-1.13a9.18,9.18,0,0,1-3.47.05c-4.43-.44-8.84-1-13.28-1.43-6.5-.59-13-1-19.53-1.59q-13.1-1.16-26.19-2.44c-3.21-.31-6.75,0-9.53-1.28-4.07-1.9-8.28-3.51-12.28-5.54q-38.43-19.45-76.82-39A4,4,0,0,1,1232,375c-2.2-10.33-4.5-20.64-6.76-31q-4.11-18.76-8.19-37.52c-1.58-7.26-3.08-14.54-4.69-21.8-.14-.61.09-1.76-1-1.75-.68,0-.79,1-1.14,1.51-.93,1.47-.19,3.05-.38,4.56-.77,6.08-1.6,12.14-2.42,18.22q-2.51,18.74-5,37.48c-1.63,12-3.3,24.09-4.9,36.14a1.58,1.58,0,0,1-1.33,1.63q-30.36,10-60.67,20.23c-8.8,2.94-17.63,5.78-26.4,8.78a2.75,2.75,0,0,1-3.58-1.05c-4.68-5.71-9.49-11.32-14.22-17-1.12-1.34-2-1.44-3.47-.25-9.91,7.9-19.92,15.67-29.91,23.47-.38.29-1,.75-1.27.64-3.28-1.22-6.39.29-9.47.77a5.92,5.92,0,0,1-5.12-1.39q-8.32-6.59-16.69-13.12c-7.86-6.1-15.79-12.11-23.63-18.23-8.17-6.38-16.28-12.84-24.4-19.3q-11.11-8.84-22.16-17.74-8.28-6.66-16.52-13.36c-6.57-5.32-13.42-10.3-19.56-16.15-1.18-1.12-2.39-1.81-4-.47-.83.67-2.16.7-3.23,1.11s-1.63.32-2.1-1c-1.35-3.7-2.95-7.31-4.41-11a3.31,3.31,0,0,0-2.91-2.37c-2.2-.08-4.32-.8-6.6-.47s-2.08,1.33-1.17,2.58,2.39,2.33,3.42,3.63c6.14,7.73,12.18,15.54,18.33,23.25,8.21,10.3,16.54,20.5,24.73,30.81,5.83,7.34,11.5,14.81,17.27,22.2,8.95,11.49,18,22.92,26.86,34.45,8,10.41,15.95,20.92,24,31.34a2.68,2.68,0,0,1,.5,3c-.61,1.44-1.25,2.86-1.87,4.3-2.64,6.12-5.22,12.26-8,18.33a3.13,3.13,0,0,0,.31,2.78c.41,1.06,1,.06,1.54-.16s.65.25.83.61a28.41,28.41,0,0,1,1.53,3.37c.39,1.15,0,1.33-.94,1.32-2.64,0-5.34.36-7.89-.54-1.61-.57-2.3.16-2.74,1.48-.79,2.33-1.52,4.68-2.3,7q-2.25,6.78-4.54,13.55c-.22.65-.57,1.52.05,1.81,1,.45,1.23-.61,1.47-1.25a4.64,4.64,0,0,1,1.58-2.1c2.25-1.81,4.39-3.75,6.64-5.56q13.67-11,27.38-21.9,14.67-11.7,29.34-23.39a1.89,1.89,0,0,1,2.47-.24c.55.35,1.12.92,1.69.94,5.12.21,10,1.67,14.95,2.73,6.89,1.47,13.74,3.16,20.58,4.87,3,.75,3.93,3,2.37,5.51-3.3,5.4-6.72,10.72-10.06,16.1-.72,1.16-2.39,2.75-1.53,3.58,1.08,1,2.63-.69,3.85-1.36,10.12-5.63,20.19-11.36,30.65-17.27-.44,2.19-.64,4-1.17,5.69-1.18,3.81-.93,8.1-3.54,11.43-3.6,4.6-7.31,9.12-11,13.66a81.29,81.29,0,0,1-5.55,6.65c-.53.53-1.25,1.38-.8,2.19s1.36-.14,2,0c1.94.47,3.26-.72,4.7-1.55,5.78-3.32,11.52-6.69,17.29-10,8.11-4.7,16.28-9.32,24.34-14.11,4-2.35,3.88-2.49,6.92.68C1150.45,485.18,1150.59,485.38,1150.81,485.66Z" transform="translate(-843.45 -247.86)"/><path class="cls-2" d="M1150.81,485.66c-.22-.27-.36-.48-.53-.66-3-3.17-3-3-6.92-.68-8.06,4.79-16.22,9.41-24.34,14.11-5.77,3.34-11.51,6.71-17.29,10-1.44.83-2.76,2-4.7,1.55-.59-.14-1.45.92-2,0s.27-1.66.8-2.19a81.29,81.29,0,0,0,5.55-6.65c3.69-4.54,7.39-9.06,11-13.66,2.61-3.33,2.36-7.62,3.54-11.43.53-1.7.73-3.5,1.17-5.69-10.45,5.91-20.52,11.64-30.65,17.27-1.21.68-2.76,2.4-3.85,1.36-.86-.82.81-2.42,1.53-3.58,3.34-5.38,6.76-10.7,10.06-16.1,1.55-2.54.63-4.75-2.37-5.51-6.84-1.71-13.69-3.4-20.58-4.87-4.95-1.06-9.83-2.52-14.95-2.73-.58,0-1.14-.59-1.69-.94a1.89,1.89,0,0,0-2.47.24q-14.65,11.72-29.34,23.39-13.7,10.93-27.38,21.9c-2.25,1.81-4.39,3.76-6.64,5.56a4.64,4.64,0,0,0-1.58,2.1c-.24.64-.51,1.7-1.47,1.25-.63-.3-.27-1.17-.05-1.81q2.29-6.77,4.54-13.55c.78-2.34,1.51-4.69,2.3-7,.44-1.31,1.13-2,2.74-1.48,2.55.9,5.25.51,7.89.54.92,0,1.33-.17.94-1.32a28.41,28.41,0,0,0-1.53-3.37c-.18-.36-.24-.86-.83-.61s-1.13,1.22-1.54.16a3.13,3.13,0,0,1-.31-2.78c2.75-6.07,5.33-12.21,8-18.33.62-1.43,1.26-2.86,1.87-4.3a2.68,2.68,0,0,0-.5-3c-8-10.42-15.93-20.93-24-31.34-8.9-11.52-17.91-23-26.86-34.45-5.76-7.39-11.44-14.86-17.27-22.2-8.19-10.31-16.52-20.52-24.73-30.81-6.15-7.72-12.19-15.52-18.33-23.25-1-1.3-2.44-2.3-3.42-3.63s-1-2.26,1.17-2.58,4.4.39,6.6.47a3.31,3.31,0,0,1,2.91,2.37c1.46,3.66,3.06,7.27,4.41,11,.47,1.3,1,1.4,2.1,1s2.4-.43,3.23-1.11c1.66-1.34,2.87-.65,4,.47,6.14,5.85,13,10.82,19.56,16.15q8.26,6.69,16.52,13.36,11.06,8.89,22.16,17.74c8.11,6.46,16.23,12.92,24.4,19.3,7.84,6.12,15.77,12.13,23.63,18.23q8.39,6.51,16.69,13.12a5.92,5.92,0,0,0,5.12,1.39c3.08-.47,6.2-2,9.47-.77.3.11.89-.34,1.27-.64,10-7.8,20-15.57,29.91-23.47,1.5-1.19,2.36-1.09,3.47.25,4.74,5.66,9.54,11.27,14.22,17a2.75,2.75,0,0,0,3.58,1.05c8.77-3,17.6-5.85,26.4-8.78q30.33-10.12,60.67-20.23a1.58,1.58,0,0,0,1.33-1.63c1.6-12,3.27-24.09,4.9-36.14q2.53-18.74,5-37.48c.81-6.07,1.65-12.14,2.42-18.22.19-1.51-.54-3.09.38-4.56.35-.55.46-1.5,1.14-1.51,1,0,.82,1.14,1,1.75,1.61,7.26,3.12,14.54,4.69,21.8q4.07,18.76,8.19,37.52c2.26,10.32,4.55,20.63,6.76,31a4,4,0,0,0,2.36,3.12q38.43,19.46,76.82,39c4,2,8.21,3.64,12.28,5.54,2.77,1.29,6.32,1,9.53,1.28q13.09,1.26,26.19,2.44c6.51.57,13,1,19.53,1.59,4.43.4,8.85,1,13.28,1.43a9.18,9.18,0,0,0,3.47-.05c1.38-.42,2.09.49,2.74,1.13.94.91-.59,1-.86,1.6a5.86,5.86,0,0,0,0,3.6c.67,3.53-.38,7.12.57,10.63.3,1.12-.89,1.21-1.73,1.13-10.62-1-21.23-2-31.86-2.86-6.11-.5-12.24-.7-18.35-1.13q-9.52-.66-19-1.51c-2.23-.2-3.68.63-5.33,2.16-10.1,9.32-19.46,19.38-29.35,28.9-1.35,1.3-1.38,2.19-.32,3.55,10,12.83,20,25.7,30.06,38.52q8.76,11.17,17.7,22.2c1.49,1.84,1.36,3.92,1.27,6-.07,1.57-1.1,1.44-2.3.7-5.48-3.37-10.49-7.36-15.65-11.18q-15.75-11.66-31.54-23.28c-9.32-6.89-18.79-13.59-27.86-20.79a24.42,24.42,0,0,0-14.45-5.24c-10.24-.6-20.49-1.15-30.7-2.06-4.46-.4-9-.12-13.37-1-7.16-1.36-13.38,1.41-19.75,3.94-22.6,8.95-45.27,17.72-67.83,26.75-3,1.2-5.82,2.16-9,1.86-.66-.06-1.44.08-1.76-.64-.41-.92.46-1.38,1-1.79a29.79,29.79,0,0,1,4.43-3.1c10.83-5.6,21.38-11.72,31.94-17.8C1146.25,488.32,1148.45,487,1150.81,485.66Zm40.69-40.76,2.52-.07,51.53.1,29,0H1277a4.69,4.69,0,0,0-2.71-.57c-9.4,0-18.81-.14-28.21,0-3.76.07-7.32-1.37-11.06-1-.44.14-.51.52-.57.9-5.16,0-10.32-.09-15.47,0-8.31.19-16.61-.67-24.92-.16a5.66,5.66,0,0,0-2.57-.15c-.51,0-1.29-.21-1.23.58S1191,445,1191.5,444.9Zm196.58-.51.94-.41c1.45,1.46,3.32.66,5,1,1.27.24,1.55-.15,1.52-1.36-.07-3.41-.06-6.83,0-10.24,0-1.31-.28-1.9-1.77-2-3.87-.22-7.74-.64-11.6-1-6.57-.63-13.14-1.31-19.71-1.93-4.11-.39-8.24-.63-12.34-1.09-7.31-.81-14.59-1.84-22-1.91-2.31,0-4.78.62-6.89.16-5.27-1.17-10.58-.62-15.84-1-7.42-.56-14.89-.75-22.34-1.08l-23.09-1c-7.12-.3-14.23-.69-21.35-1-7.95-.33-15.9-.74-23.84-1-6.39-.2-12.76-.83-19.16-.66-1.76,0-3.56.41-5.17.32-6.51-.34-13-.87-19.53-1.35-2.47-.18-5-.26-7.43-.47-5.68-.48-11.36-.93-17-1.44-2.21-.2-3.12.94-3.47,3-.6,3.41-1.22,6.82-2,10.19-.45,1.91.81,1.27,1.65,1.36s1.59-.11,2.41-.09c6.23.16,12.46,1.07,18.71.29a16.5,16.5,0,0,1,2-.1c4.46.29,8.93.55,13.38.94,2.52.22,5-1.05,7.33-.69,8.13,1.25,16.35.91,24.51,1.55,6.92.55,13.89.76,20.84,1q15.89.65,31.77,1.55c5.72.32,11.47.1,17.16.62,3.82.35,7.64.13,11.43.47,9.08.82,18.19.87,27.28,1.45,1,.06,1.92-.7,2.91-.1,2.43,1.47,5.13,1.5,7.88,1.68,7.66.5,15.31,1.24,23,1.91q7,.61,14.1,1.1C1374.22,443.5,1381.13,444.31,1388.08,444.39Zm-109.8.92-.71.52,8.1,13.47.69-.43Zm-88,.29.55.52-8.63,8.45-.52-.54Z" transform="translate(-843.45 -247.86)"/><path class="cls-3" d="M1142.64,431.4c-.84-.09-2.09.55-1.65-1.36.79-3.37,1.41-6.78,2-10.19.35-2,1.26-3.15,3.47-3,5.67.5,11.35,1,17,1.44,2.47.21,5,.29,7.43.47,6.51.48,13,1,19.53,1.35,1.61.08,3.41-.28,5.17-.32,6.41-.17,12.78.46,19.16.66,7.95.25,15.89.66,23.84,1,7.11.29,14.23.69,21.35,1l23.09,1c7.45.33,14.92.51,22.34,1.08,5.26.4,10.58-.15,15.84,1,2.1.47,4.58-.18,6.89-.16,7.37.07,14.65,1.1,22,1.91,4.1.46,8.23.7,12.34,1.09,6.57.62,13.14,1.3,19.71,1.93,3.86.37,7.73.8,11.6,1,1.49.08,1.79.68,1.77,2-.06,3.41-.06,6.83,0,10.24,0,1.21-.25,1.59-1.52,1.36-1.66-.31-3.53.48-5-1a2.27,2.27,0,0,1,.41-.27c3.43-1.33,4.15-2.47,3.57-5.63-.48-2.6-1.49-3.2-5.31-3.16-.41,0-.83,0-1.24,0-.16-.24-.28-.31-.29.07-2.46,1.88-2.92,3.68-2.05,6.16.7,2,2.45,2.38,4,3.2-7-.08-13.86-.89-20.79-1.37q-7.05-.49-14.1-1.1c-7.65-.67-15.3-1.41-23-1.91-2.75-.18-5.45-.21-7.88-1.68-1-.6-1.93.16-2.91.1-9.09-.58-18.2-.63-27.28-1.45-3.79-.34-7.61-.13-11.43-.47-5.69-.51-11.45-.3-17.16-.62q-15.88-.88-31.77-1.55c-6.95-.28-13.92-.49-20.84-1-8.16-.64-16.38-.3-24.51-1.55-2.36-.36-4.81.91-7.33.69-4.45-.39-8.92-.65-13.38-.94a16.57,16.57,0,0,0-2,.1c-4.28-.23-8.58,0-12.86-.64a80.22,80.22,0,0,0-8.17-.57c-.31,0-.92-.24-.83.43C1141.92,431,1142.38,431.2,1142.64,431.4Zm2.92-5c-.18.71.27,1,.82,1.15a4.67,4.67,0,0,0,4.52,1.71c.61.29,1-.09,1.28-.5,2.62-2.16,3.21-4,2.18-6.65a4.43,4.43,0,0,0-4.85-3C1146.31,419.26,1144.56,422.5,1145.56,426.37Z" transform="translate(-843.45 -247.86)"/><path class="cls-4" d="M1388.08,444.39c-1.51-.82-3.27-1.2-4-3.2-.87-2.48-.4-4.28,2.05-6.16l.16,0,.13-.11c.41,0,.83,0,1.24,0,3.82,0,4.83.57,5.31,3.16.58,3.16-.14,4.3-3.57,5.63a2.27,2.27,0,0,0-.41.27Z" transform="translate(-843.45 -247.86)"/><path class="cls-5" d="M1194,444.18c8.31-.5,16.61.35,24.92.16,5.15-.12,10.31,0,15.47,0h1.69l-1.12-.9c3.74-.36,7.3,1.08,11.06,1,9.4-.19,18.8-.05,28.21,0a4.69,4.69,0,0,1,2.71.57h-2.48l-29,0-51.53-.1Z" transform="translate(-843.45 -247.86)"/><path class="cls-6" d="M1278.28,445.31l8.08,13.57-.69.43-8.1-13.47Z" transform="translate(-843.45 -247.86)"/><path class="cls-7" d="M1142.64,431.4c-.26-.19-.72-.36-.75-.58-.09-.67.52-.44.83-.43a80.22,80.22,0,0,1,8.17.57c4.28.68,8.58.42,12.86.64-6.25.79-12.47-.13-18.71-.29C1144.23,431.29,1143.44,431.41,1142.64,431.4Z" transform="translate(-843.45 -247.86)"/><path class="cls-8" d="M1190.26,445.6l-8.6,8.43.52.54,8.63-8.45Z" transform="translate(-843.45 -247.86)"/><path class="cls-8" d="M1194,444.18l0,.65-2.52.07,0-.87A5.66,5.66,0,0,1,1194,444.18Z" transform="translate(-843.45 -247.86)"/><path class="cls-5" d="M1191.48,444l0,.87c-.48.11-1.19.6-1.25-.29S1191,444,1191.48,444Z" transform="translate(-843.45 -247.86)"/><path class="cls-9" d="M1235,443.42l1.12.9h-1.69C1234.51,443.94,1234.57,443.56,1235,443.42Z" transform="translate(-843.45 -247.86)"/><path class="cls-4" d="M1150.9,429.23a4.67,4.67,0,0,1-4.52-1.71c.12-.66-.37-.89-.82-1.15-1-3.88.75-7.11,4-7.3a4.43,4.43,0,0,1,4.85,3c1,2.62.43,4.49-2.18,6.65C1151.55,428.37,1151.19,428.72,1150.9,429.23Z" transform="translate(-843.45 -247.86)"/><path class="cls-10" d="M1145.56,426.37c.45.26.94.49.82,1.15C1145.82,427.34,1145.38,427.08,1145.56,426.37Z" transform="translate(-843.45 -247.86)"/><path class="cls-10" d="M1150.9,429.23c.29-.51.65-.87,1.28-.5C1151.85,429.15,1151.5,429.52,1150.9,429.23Z" transform="translate(-843.45 -247.86)"/><path class="cls-11" d="M1386.46,435l-.13.11-.16,0C1386.18,434.64,1386.3,434.71,1386.46,435Z" transform="translate(-843.45 -247.86)"/></svg>