<svg id="Ebene_1" data-name="Ebene 1" xmlns="http://www.w3.org/2000/svg" viewBox="0 0 697.39 265.32"><defs><style>.cls-1{fill:#1a1a1a;}.cls-2{fill:#676767;}.cls-3{fill:#727272;}.cls-4{fill:#a26d59;}.cls-5{fill:#fefefe;}.cls-6{fill:#e6e5dd;}.cls-7{fill:#070606;}.cls-8{fill:#222221;}.cls-9{fill:#0b0909;}.cls-10{fill:#0a0909;}</style></defs><title>sawshark</title><path class="cls-1" d="M287.09,462.74l5.82-2.32c.51,0,1.15.27,1.38-.41.1-.3-.25-.51-.6-.52-1.54-1.52-3.1-3-4.62-4.57-.55-.55-1.55-1.16-.61-2s1.48.2,2,.74q2.33,2.26,4.6,4.59a1.58,1.58,0,0,0,2.12.49c2.54-1.15,5.16-2.16,7.81-3.06,1.3-.44,1.38-.77.5-1.81-2.71-3.18-5.08-6.64-9.27-8.22a66.71,66.71,0,0,1-6.92-3.42c-.73-.38-2-.59-1.43-1.81s1.52-.44,2.29-.07c1.94.94,3.77,2.42,5.81,2.78,5.58,1,7.75,5.88,11,9.33,1.72,1.8,2.63,1.47,4.35.54a5.19,5.19,0,0,1-1.1-.87c-.39-.58-1.7-.81-.76-1.94s1.45,0,2,.38a6.06,6.06,0,0,0,7-.33c1.12-.91-.18-1.17-.44-1.7s-1.38-.83-.75-1.57a1.3,1.3,0,0,1,2.15.25c1.31,2,2.94,1.63,4.72.88,2.49-1.06,5-2.07,7.7-3.19-.91-.74-1.61-1.29-2.28-1.87-.48-.41-.8-.94-.37-1.52a.89.89,0,0,1,1.5,0c2.66,3.34,5.64,1.89,8.55.56,1.48-.68,3.15-1,4.43-2-.59-1.47-2-1.86-2.94-2.77-.66-.64-1.16-1.42-.53-2.17.84-1,1.35.21,1.69.63,3.14,4,6.71,3.33,10.48,1.11a5.85,5.85,0,0,1,1.17-.39c-.25-1-1.17-1.4-1.71-2.11a1,1,0,0,1-.09-1.35.92.92,0,0,1,1.29-.13l0,0a1.87,1.87,0,0,1,.37.33c2.62,3.15,5.29,1.07,7.94.07.58-.22.91-.43.78-1.25s.65-1.11,1.32-.69c2.08,1.29,3.55-.52,5.2-1.07,1.12-.37-.28-1.15-.36-1.79s-1.3-.89-.44-1.61a1.31,1.31,0,0,1,2,.32c1.78,2.64,3,1.32,4.9-.15,10.55-8,21.3-15.79,32-23.7.51-.38,1.81-.51,1-2-.34-.59,1-1.32,1.73-1.83q25.64-17,51.26-34c10.65-7.06,21.39-14,32-21.14,2.37-1.61,5.09-1.37,7.57-2.54,8.79-4.13,17.83-7.76,26.77-11.56,6.44-2.74,12.84-5.6,19.37-8.12,3-1.17,4.37-3.73,6-6,9.43-13.41,18.88-26.8,28-40.45a9.72,9.72,0,0,1,6.88-4.64c4.56-1,9-2.55,13.47-3.79,1.56-.43,3.22-1.75,4.15,1.38.3,1,2.21,2.26,1.24,3.5a25.24,25.24,0,0,0-2.68,5.24c-.87,1.87-1.65,3.79-2.59,5.63a5.37,5.37,0,0,0-.39,3.59c1.31,7.08,2.64,14.16,3.92,21.25.14.79.14,1.45,1.26,1.31,8.74-1.1,17.54-1.71,26.3-2.57,6.8-.67,13.58-1.48,20.4-1.9a9.26,9.26,0,0,0,4.33-1.74q23.84-14.83,47.6-29.76c.35-.22.73-.39,1.08-.61.61-.39.68-1.76,1.84-1.12s.47,1.71.27,2.62c-2.52,11.09-4.95,22.19-7.65,33.24-.44,1.78.25,2.08,1.38,2.26,3.9.6,7.81,1.06,11.72,1.6q6.46.88,12.92,1.8c5,.71,10.07,2,15.1,2,4.36,0,8.79-1,13.2-1.47,3.51-.38,7-.89,10.51-1.32,5.38-.66,10.76-1.33,16.15-1.94,5.07-.57,10.16-1,15.22-1.58s10.1-1.28,15.16-1.88c3.43-.41,6.87-.76,10.31-1.09,1.12-.11,2.24.21,3-1.19.35-.67,1.48-.36,2.3-.06q17,6.13,34.09,12.21c.61.22,1.19.34,1.07,1.07s-.77,1.11-1.56,1.37c-4.28,1.43-8.53,3-12.79,4.45-9.07,3.16-18.32,5.9-27.17,9.58-6.9,2.88-13.36,6.85-19.94,10.48a16.32,16.32,0,0,1-8.41,2.48,34.89,34.89,0,0,0-8.43.4c-1.58.35-3-.27-4.57-1.19-4.57-2.68-9.42-4.88-14.2-7.18-2.45-1.18-5.1-2-7.45-3.33-4.58-2.64-9.56-3.44-14.69-3.71-4.3-.23-8.64-.09-12.91-.61A47.68,47.68,0,0,1,719.41,328c-4.46-1.63-8.86-.52-13.23-.18-2.6.2-5.24.38-7.85.69-6.63.79-13.32,1-20,1.63-8.69.78-17.36,1.67-26.22,2.54a3.5,3.5,0,0,0,3,1.06c.51,0,1,0,1.27.56s-.13,1.12-.6,1.49c-3.92,3.15-7.81,6.34-11.8,9.4a14,14,0,0,0-3.48,4.77c-1.83,3.31-4.28,6.27-5.56,9.91-.49,1.39-1.94.82-2.87.68-5.94-.9-12-1-17.87-2.07-4.15-.75-7.42.45-10.8,2.29-7.12,3.88-14.26,7.73-22.11,12,1.62,1.38,3,2.75,4.63,3.88,3.33,2.37,6,5.49,9,8.2,7,6.25,13.6,12.94,20.52,19.28q3.86,3.53,7.59,7.19a5.84,5.84,0,0,0,2.77,1.55c.59.14,1.33.58,1,1.4a1.44,1.44,0,0,1-1.64.8c-7.12-.86-14.26-1.42-21.4-2-8.12-.63-16.21-1.66-24.32-2.41-4.77-.44-9.56-.62-14.32-1.06-6.31-.58-12.6-1.33-18.9-1.93-4.35-.42-8.72-.72-13.08-1-1.69-.13-3.5.43-4.83-1.24-.4-.5-1-.18-1.61,0q-20.9,7.39-41.81,14.73-20.44,7.22-40.86,14.49c-.78.28-1.4.4-1.64,1.64-.34,1.77-2.47,1-3.63,1.19-8.75,1.4-17.56,2.38-26.33,3.7-5.76.86-11.27,2.8-16.94,4.53,1.21,1.65,3,2.46,4.26,3.8.52.54,1.23,1.11.44,1.87s-1.18,0-1.71-.38c-1.54-1.25-3.12-2.44-4.64-3.7a2,2,0,0,0-1.71-.69c-3.4.48-3.59.82-1.62,3.65,1.32,1.89,2.74,3.71,4.06,5.61.42.6,1.44,1.37.5,2.06s-1.66-.16-2.27-1.07c-1.55-2.33-3.21-4.58-4.87-6.84a4.54,4.54,0,0,0-1.43-1.36,1.67,1.67,0,0,0-1.4.17c-.39.25-.06.74.11,1.09.62,1.27,1.25,2.54,1.89,3.79.39.76.87,1.73,0,2.2s-1.41-.67-1.8-1.29a26.36,26.36,0,0,1-1.89-3.77c-.56-1.34-1.41-1.39-2.6-1-1.52.56-.58,1.35-.27,2.1a4.42,4.42,0,0,1,.47,1.14c.06.63.34,1.48-.4,1.8s-1.11-.47-1.42-1c-.41-.72-.74-1.49-1.11-2.23-.55-1.08-1.42-.64-2.12-.32-.9.4-.46,1.09-.13,1.66a21.93,21.93,0,0,1,1.17,1.89c.23.5,1,1.17,0,1.62a1.24,1.24,0,0,1-1.7-.44l0-.06c-.57-1-1.17-2-1.74-3s-1.51-.6-2.18-.3c-1.13.5-.12,1.06.15,1.53,1.75,3.09,3.55,6.15,5.28,9.25.4.72,1.46,1.67.4,2.37s-1.64-.51-2.14-1.35l-4.81-8.08c-.31-.51-.33-1.31-1.37-1.35-.22,1.26.75,2.09,1.08,3.11.21.65.39,1.41-.35,1.76s-1.06-.41-1.34-.84a37.77,37.77,0,0,1-2.4-3.94c-.4-.77-.94-.92-1.57-.6-.85.43-.22,1,.08,1.4.48.63,1.06,1.27.14,1.86s-1.33-.32-1.85-.82a3,3,0,0,1-.56-.81c-.46-.91-1.1-.78-1.88-.45-1,.42-.42,1-.28,1.58.49,2.21,2.46,3.94,2,6.46-.11.64.19,1.41-.69,1.64s-1-.58-1.39-1.12c-1.15-1.79-2.32-3.56-3.48-5.34-.36-.61-.29-1.77-1.71-1.19l1.14,2c.74,1.58,1.43,3.17,2.23,4.71.37.71.39,1.18-.26,1.69s-1-.19-1.42-.43c-2.26-1.19-3-3.4-3.71-5.59-.35-1.14-.69-1.27-1.73-.78-1.26.6-.47,1.12-.09,1.7a8,8,0,0,1,1,1.44c.28.75,1.42,1.76.13,2.31a1.93,1.93,0,0,1-2.8-1.15,9.12,9.12,0,0,0-.73-1.83c-.23-.39-.21-1.25-1.14-.85s-.77.86-.42,1.58c1.41,2.9,2.77,5.83,4.13,8.76.3.64,1,1.41.09,2s-1.55-.24-1.91-1c-1.41-2.9-2.74-5.84-4.14-8.74-.28-.58-.39-1.58-1.52-1s-.55,1.2-.2,1.87q.74,1.44,1.44,2.9c.34.71.58,1.52-.26,2s-1.25-.4-1.58-1c-.56-1.11-1.15-2.21-1.68-3.33-.32-.66-.58-1.15-1.48-.71s-.53,1-.26,1.57a43,43,0,0,1,2.17,4.73c.23.78.26,1.27-.4,1.68-1,.63-1-.43-1.31-.91-.79-1.46-1.53-3-2.24-4.45-.36-.76-.68-1.14-1.67-.82-2.47.81-2.5,1-.75,2.89.9,1,2.92,2.27,1.61,3.44-1.51,1.34-2.49-1-3.09-2-1.36-2.23-2.79-2.3-4.89-1.23-4.23,2.15-4.12,2-.94,5.51,5.19,5.78,10.17,11.74,15.25,17.61,1.46,1.69,2.94,3.37,4.46,5,.41.45.73,1.1,1.61.92,1.07-.22,1.22.55,1.22,1.38v31c0,.7-.06,1.46-1,1.38-1.1-.09-.88-1-.88-1.74,0-8.75-.06-17.5,0-26.24a6.3,6.3,0,0,0-1.61-4.5c-5.2-5.9-10.44-11.76-15.62-17.67-2.55-2.92-5.06-5.88-7.47-8.92-1.14-1.43-2.1-.56-2.94.08s-2.19,1.07-1,2.58c.47.6,1.72,1.4.53,2.25-1,.74-1.55-.53-2.19-1.1-.39-.34-.45-1.36-1.19-.92s-.13,1.19.15,1.72c.49,1,1.14,1.82,1.61,2.79.24.49,1,1.18,0,1.61a1.31,1.31,0,0,1-1.85-.72,39.68,39.68,0,0,0-2.54-4.25c-.29-.43-.42-1.6-1.33-1-.73.5,0,1.19.26,1.74.44.79,1,1.53,1.38,2.34.29.6.45,1.38-.28,1.77s-1-.37-1.35-.79c-.76-1.07-1.42-2.22-2.11-3.34-.39-.64-.71-1.19-1.72-1-2.89.47-3.12.93-1.49,3.36,1.28,1.92,2.54,3.85,3.83,5.76.45.66,1.39,1.34.33,2.06s-1.56-.36-2-1c-1.76-2.49-3.5-5-5.08-7.61-.66-1.08-1.15-1.26-2.33-.81s-1.39.71-.66,1.71a24.12,24.12,0,0,1,1.85,2.93c.31.58.46,1.35-.28,1.77s-1.11-.11-1.52-.74c-3-4.71-3-4.57-8.71-3.22-2,.47-1.67.8-.63,2,1.81,2.13,3.48,4.39,5.12,6.66.3.41,1.12,1.12.3,1.7s-1.43.34-2.06-.56c-1.65-2.36-3.4-4.66-5.22-6.89-.54-.66-.91-1.74-1.94-1.74a3.43,3.43,0,0,0-2.3.65c-.61.66.39,1.25.75,1.85.68,1.14,1.36,2.27,2,3.44.32.61.45,1.36-.24,1.79s-1.07-.35-1.35-.75c-1-1.47-2.07-3-3-4.54-1.35-2.32-3-.39-4.35-.21-1.58.21-.39,1.37-.13,2.08.75,2.09,1.53,4.17,2.36,6.22.3.73.74,1.49-.3,1.83-.87.28-1.36-.43-1.65-1.16a63.54,63.54,0,0,1-2.49-6.69c-.75-2.85-2.5-1-3.71-.86-1.64.14-.73,1.24-.57,2.17s1.48,2-.11,2.51c-1.23.38-1.55-.86-1.79-1.87a1.87,1.87,0,0,0-2.8-1.42c-1.16.44-2.47.32-3.64,1.31,1.19,1.75,2.42,3.65,3.75,5.48.59.8,1.21,1.72.26,2.35s-1.4-.64-1.85-1.2c-1.18-1.47-2.18-3.09-3.28-4.64-.76-1.08-1.66-1.85-3.13-1.37-1.15.38-2.41.61-1.84,2.35a.75.75,0,0,1-.43,1l-.11,0a1.76,1.76,0,0,1-1-.58c-.52-.52-.51-1.75-1.74-1.28-.6.23-1.4.35-1.72.8s.36,1,.63,1.5c.68,1.25,3,2.47,1.38,3.84-.91.77-2-1.43-2.75-2.51a18.63,18.63,0,0,1-1.19-1.58c-.88-1.52-2.18-.62-3.07-.31-1.23.43-.41,1.33.1,2s.65,1,.1,1.53-1.21.1-1.7-.39a4.31,4.31,0,0,0-.71-.7c-.64-.4-.54-1.65-1.45-1.54a13.56,13.56,0,0,0-3.54,1c-.85.36-.19,1,.1,1.39q1.43,2,3,4c.48.61,1.12,1.25.25,1.88s-1.4-.19-1.86-.75c-1.19-1.48-2.31-3-3.47-4.51-.68-.88-3.76-1.18-4.29-.33s.27,1.5.74,2.15a1.36,1.36,0,0,1,0,1.83c-.49.54-1,.07-1.21-.33-2.48-4.74-5.88-1.68-9.26-1.21,1.82,2.43,3.46,4.68,5.18,6.86.59.75,1,1.6.22,2.18s-1.3-.46-1.7-1c-1.53-1.84-3-3.71-4.37-5.67-1.16-1.68-2.41-2.16-4.19-.77a8.08,8.08,0,0,1,1,1.37c.28.62,1.06,1.27.31,2s-1.18.1-1.73-.31a1,1,0,0,0-.87-.16c-.48.25-.23.71-.1,1.09.44,1.32,2.12,3.09.41,3.86-1.26.57-1.55-1.92-2.31-3a26.55,26.55,0,0,1-1.61-2.78,1.37,1.37,0,0,0-1.75-.83l-.07,0c-1,.35-.75,1-.46,1.76s.93,1.74-.87,2.13c-.81.18.42,1.46.62,2.27s1.16,1.56,0,2.13c-1,.5-1.46-.43-1.85-1.17a20.25,20.25,0,0,1-1.84-3.79c-.41-1.5-.89-1.89-2.5-1.46-3.48.93-3.55.9-1.68,4.15.37.65,1.49,1.24.6,2.11s-1.52-.47-2.28-.72l-1.12-2.12c-.33-.78-.46-2.26-1.54-1.69s.34,1.45.58,2.21c0,.12.26.18.4.27l1.13,2.13c0,.91.86,1.39,1.18,2.15s1,1.39,0,1.93-1.39-.27-1.77-.91c-1.15-1.91-2.38-3.79-3.35-5.78-1.19-2.43-2.9-1-4.17-.51-1.59.61.12,1.59.17,2.42s1.88,2,.58,2.73c-1.63,1-1.8-1-2.5-1.88s-.42-2.82-2.59-2.27c-3.4.87-3.39.75-1.26,3.62.93,1.25,1.69,2.63,2.54,3.94.35.53.59,1.09,0,1.55a1.17,1.17,0,0,1-1.68-.47c-1.37-2-2.72-3.92-4-5.93a2,2,0,0,0-2.6-.94c-1.35.29-1.22.81-.76,1.66q1,1.85,2.07,3.66c.33.56.51,1.14-.08,1.55a1.24,1.24,0,0,1-1.68-.56c-.8-1.25-1.49-2.57-2.25-3.85-.64-1.06-4.2-1.42-5.21-.29-.79.88.08,1.88.71,2.69a5.81,5.81,0,0,1,.42.86c-.9-1.59-1.46-2.91-3.37-3.43-.89-.24-1.43-2-3-2.36-1.15-.24-2.14-1.29-3.29,0-.27.31-.8.14-1.1-.23a.84.84,0,0,1,0-1.15c1.92-1.78.42-2.88-.77-4l-.88-.89c-.52-.52-.87-1.11-.19-1.7s1.08-.15,1.52.3c.76.77,1.55,1.51,2.29,2.3a1.79,1.79,0,0,0,2.46.41c1.16-.79-.2-1.16-.44-1.71a1.56,1.56,0,0,1,0-1.65c.55-.74,1.28-.1,1.47.19,1.64,2.51,3.67,1.67,5.91.63-.69-.93-1.37-1.9-2.11-2.82-.4-.49-.75-1-.26-1.53s1.19-.29,1.7.23a5.44,5.44,0,0,0,.89.87c.94.57,1,2.31,2.13,2.22a19.27,19.27,0,0,0,4.48-1.29c.67-.23.84-.66.32-1.31a.88.88,0,0,1,.3-1.46,1,1,0,0,1,1.31.39c1.14,1.64,2.39.79,3.7.2-.69-1-1.33-1.9-2-2.79-.47-.58-.83-1.16-.13-1.71s1.25,0,1.69.53c.64.75,1.22,1.56,1.85,2.32s1.08,1.18,2.1.58c.8-.47,1-.76.64-1.72-.72-2,1.06-1,1.91-1.25-.16-.45-.3-.81-.42-1.19-.21-.65-.42-1.39.31-1.78s1,.43,1.37.78c.68.61,1.26,1.34,2,1.92,1.33,1.1,2.27.71,2.72-.9s1.13-1.11,2-.39a1.23,1.23,0,0,0,1.74.11l.05-.05c.81-.78-.21-1.09-.52-1.55-.5-.75-1.16-1.42-1.59-2.2a1.19,1.19,0,0,1,.19-1.67l.13-.09c.64-.36,1,0,1.42.56,3.78,4.48,3.82,4.47,9.11,1.61.18-1.28-2.41-2.17-.85-3.3s1.81,1.16,2.65,1.92c.47.42,1,.75,1.56.47,3.48-1.6,7.33-2.28,10.88-4.2l-2.17-2.27c-.49-.52-.91-1.08-.23-1.7a.94.94,0,0,1,1.51.28c2.21,3.83,5.18,2.53,8.23,1.36,4.59-1.75,9.23-3.38,14-5.11L249.1,473c-.36-.52-.56-1.09,0-1.55a.94.94,0,0,1,1.5.32c1.37,3,3.55,2.43,5.93,1.51,1.29-.5,2.71-.68,4-1.13.86-.3,2.15-.57.89-2a.83.83,0,0,1,.26-1.29c.49-.31.9,0,1.35.26,2.54,1.75,7.93,1.25,10.21-.82,1-.87-.06-1.34-.28-1.88-.3-.72-1.32-1.34-.25-2.08.84-.58,1.56.23,1.8.83,1,2.44,2.45,1.86,4.24,1,2.47-1.12,5-2,7.55-3a.62.62,0,0,0,.78-.41Zm-67.74,38.19c-.2-.36-.5-.84-.89-.42s0,.88.36,1.25c.24.53.36,1.63,1.14,1s0-1.33-.6-1.83ZM705.48,274.84a9.39,9.39,0,0,0-1.29.49q-22.45,13.94-44.89,27.91c-.48.3-1.32.78-1.27,1,.29,1.54-.73,1.34-1.61,1.43-7.93.81-15.86,1.67-23.8,2.43-7.77.75-15.56,1.3-23.33,2.11-6.16.64-6.15.76-7.29-5.2a1.73,1.73,0,0,0-.05-.5c-1-5.7-1.78-11.47-3.17-17.08a7.43,7.43,0,0,1,.64-5.34c1.4-3.1,2.69-6.25,4.09-9.35a2.8,2.8,0,0,0-.2-3.22c-.91-1.21-1.83-.72-2.87-.43q-7.41,2.08-14.84,4.11a4.74,4.74,0,0,0-2.7,2Q567,298.14,551,321a4,4,0,0,1-1.82,1.56c-14,6-28.12,11.89-42.09,18-5.73,2.52-11.93,4.11-17.15,7.64-23.19,15.68-47.22,30.12-69.57,47-15.3,11.58-31.09,22.51-46.07,34.53a12,12,0,0,1-3.69,1.75c-1.85.61-4.84.11-5.23,3.28,0,.09-.44.2-.66.18-3.72-.34-4.17-.16-6.92,2.7a.83.83,0,0,1-1.13.09c-1.1-.84-2-.12-3,.26-3.62,1.44-7.15,3.18-10.88,4.25s-6.61,3.33-10.29,4.38c-3.51,1-7.61,1.49-10.18,4.8a.93.93,0,0,1-.89,0c-.87-.67-1.59,0-2.31.24-8.94,3.54-17.81,7.3-26.83,10.61-10,3.66-19.38,8.85-29.88,11.07-9.61,2-18.41,6.44-27.7,9.39-1,.31-1.19.56-.76,1.72s-1.11,1.31-2,1.67c-.59.26-1.1.06-.9-.61.62-2.08-.88-1.12-1.45-.94-2.76.9-5.47,1.91-8.2,2.89-1.59.57-3.8.63-2.67,3.9-1.84-3.27-3.83-1.41-5.7-.91-2,.55-3.26,3.42-6,2.19-.19-.09-.71.2-.85.44-.51.9-1.25.79-2.12.78s-1.72.09-2,1.17c-.12.57-.43.93-1,.59-1.48-.82-2.32-.7-2.1,1.29a.48.48,0,0,1-.74.38c-1.89-1.32-3.3-1-4.38,1.06-.3.58-.85,0-1.29-.06-1.45-.18-3.19.08-3.52,1.51-.29,1.26-.4,1.29-1.25.63-.42-.32-.83-.63-1.35-.44q-7.46,2.7-14.91,5.44c-.75.28-.86.94-.13,1.25,2.25,1,4.47,2.71,7,1.79,2-.72,4.07-1,6.08-1.56,10.48-3,21.12-5.29,31.58-8.41a82.86,82.86,0,0,1,14-3.33c.72-.08,1.82-.23,1.88-.93.16-2,.6-1.5,1.79-.58s2.63-.18,3.92-.55c.72-.21.37-.76.16-1.21s-.84-1.12-.16-1.51c.85-.5,1,.5,1.43,1,.91,1.07,5.59.9,5.61-.25,0-3.35,1.15-.93,2-.58,1.25.48,2.39-.38,3.59-.61.52-.1.47-.57.26-1s-.9-1,0-1.42c.68-.29,1,.46,1.31.9,1.14,1.63,2.42.31,3.62.19.79-.07,1-.69.9-1.48-.08-.42-.57-1,.14-1.27s.92.41,1.2.93c1,2,2.62.59,3.68.23,1.46-.5-.13-1.23-.32-1.86s-1-1-.24-1.49,1.16.28,1.46.82c.91,1.64,2.12,2.23,3.92,1.36a6.62,6.62,0,0,1,2.15-.56c1.63-.17,2.62-.65,1.69-2.52-.23-.46-.28-1.1.24-1.31.83-.33.83.59,1.12,1,.43.63.48,2.13,1.46,1.61,3.24-1.72,7.63-.39,10.16-3.86,2.41,1.44,4.19-.26,6.28-1,.6-.2,2.16.06,3.17-.19,4.89-1.18,9.74-2.53,14.61-3.8,1-.27,2.22-.25,1.93-1.92a.56.56,0,0,1,1-.49c1.21,1.35,2.24,2.28,3-.28,1.44.46,2.67-.79,3.63-.84,2.81-.14,4.54-.78,5.18-3.63.74.84,1.47,1.55,2.6,1,1.64-.8,3.31-1.54,5-2.3.37-.17.89-.32.76-.82-.57-2.1.35-1.48,1.35-.77.58.42,1.15.12,1.66-.09,1.91-.8,3.81-1.65,5.69-2.51.5-.23,1.16-.38.84-1.23-.24-.64-1-1.48-.07-1.93.77-.36.92.72,1.27,1.22.62.88,1.26.36,2,.12.92-.31.83-.81.51-1.52-.22-.48-.87-1.1-.17-1.53.87-.53,1.12.39,1.36.94.33.74.65,1,1.51.66s.91-.72.91-1.62c0-1.26-1.24-2.42-.41-3.75,1.11.13,1,1.12,1.39,1.66.57.71.1,2.46,1.84,2,1.3-.35,2.26-1.1,1.77-2.7-.13-.44-.17-.84.32-1s.72.27,1,.59.32,1,1.14,1c.17-1.1,1.29-1.56,1.85-2.41,1.45-2.2,1.6.68,2.45.52a3.82,3.82,0,0,0,1.59-.59,21.09,21.09,0,0,1,1.91-.94c2.19-1.45,4.61-.18,6.92-.87,1.92-.57,3.62-1.67,5.8-1.88s4.23-1.5,6.53-1.71a.89.89,0,0,0,.81-.83c.14-1,.5-1.42,1.37-.52a1.49,1.49,0,0,0,1.63.26c2.68-.8,5.36-1.6,8-2.37.65-.19,1.6-.33,1.58-1,0-1.83,1.43-1.77,2.38-1.87,7.31-.82,14.53-2.25,21.82-3.24,6.74-.91,13.54-1.36,20.12-3.77C461.91,426,485,418,508.06,410c3.21-1.11,5.7-2.21,5-6.2-.05-.3.15-.64.21-1,.58-3.27.7-6.41-2.09-8.93a12.24,12.24,0,0,1-1.63-2.2c-.24-.34-.46-.74-.06-1.11s.81-.06,1,.27c2,3.13,6,5.29,4.31,10.11-.51,1.48-.26,3.29-.57,4.93-.21,1.13.14,1.81,1.48,1.34,3-1,6-2,8.91-3.14,1.18-.43,1.41-1,.17-1.84-1.73-1.14-3.38-2.42-5.09-3.6-.45-.31-.9-.65-.57-1.17s.92-.25,1.32,0c1.37.94,2.66,2,4.07,2.88,2.5,1.54,4.52,3.94,7.75,4.18,4.64.35,9.27.8,13.91,1.2,6.21.54,12.41,1.06,18.62,1.62,6.62.6,13.23,1.27,19.85,1.87,8.6.79,17.2,1.6,25.81,2.28,3.64.29,7.28,1,11,.72a3.76,3.76,0,0,0-1.63-2.09q-17.54-16.36-35.11-32.68c-2.13-2-3.53-5.44-7.54-4,.18-1.22,1-1.39,1.65-1.72q14.39-7.73,28.79-15.43a2.9,2.9,0,0,1,1.87-.39c6.84.82,13.68,1.53,20.52,2.36,2.32.28,3.9-.24,4.92-2.57.9-2,2.29-3.85,3.4-5.81,1.46-2.58,2.77-5.18,5.34-7,2.85-2,5.46-4.36,8.16-6.57.37-.3,1-.46.95-1s-.82-.68-1.36-.85l-8.07-2.48c-.54-.17-1.27-.27-1-1s.81-.35,1.29-.27a11.56,11.56,0,0,0,2.71.35q11.55-.93,23.11-2c8.36-.74,16.71-1.52,25.07-2.27l26.57-2.34c.64-.06,1.39-.42,1.84.28.65,1-1,.81-1,1.58,6.34,2.46,13,2.56,19.61,2.91,3,.15,6,.93,8.94.26,1.32-.3,2.29-.66,3.6.14a218.86,218.86,0,0,0,25.46,13.24c1.59.7,3.14,1.54,4.93.54.53-.3,1.19-.39,1.56.23.74,1.21,1.89.84,2.92.83a22.45,22.45,0,0,0,12.95-3.62c2.25-1.54,4.83-2.58,7.22-3.92.54-.3,1.58-.45,1.49-1.1-.24-1.6,1-1.84,1.87-2.09a70.81,70.81,0,0,0,15.58-7.09c.53-.3,1.39-1,1.76-.38,1,1.68,2.14.72,3.21.36q11.42-3.84,22.81-7.78c.61-.21,1.77-.12,1.68-1.11-.07-.83-1.08-.85-1.78-1.1q-13.23-4.72-26.45-9.49a5.66,5.66,0,0,0-2.67-.38c-12.36,1.47-24.72,3-37.09,4.39s-24.76,2.66-37.13,4.15c-2.21.27-4.64-.11-6.6,1a4.7,4.7,0,0,1-3.44.57c-9-1.29-18.06-2.47-27.09-3.73-5.41-.75-10.81-1.61-16.23-2.36-1.43-.2-1.67-.68-1.32-2.13,2.07-8.61,4-17.25,6-25.88C704.31,280.25,704.85,277.71,705.48,274.84ZM367.64,454.14c.28.38.33,1,.94,1a.51.51,0,0,0,.32-.78c-.18-.34-.29-.81-.8-.82S367.55,453.74,367.64,454.14Zm-51.18,20.79c-.13.23-.35.44-.3.56a.69.69,0,0,0,.48.36c.38,0,.54-.22.41-.54-.07-.17-.34-.17-.59-.36Z" transform="translate(-164.62 -266.63)"/><path class="cls-2" d="M287.09,462.74a.62.62,0,0,1-.75.45l-.15-.06-5.43-7.7C283.49,457.36,285,460.29,287.09,462.74Z" transform="translate(-164.62 -266.63)"/><path class="cls-3" d="M333.55,476.23a7.79,7.79,0,0,1-1.63-5A8.35,8.35,0,0,1,333.55,476.23Z" transform="translate(-164.62 -266.63)"/><path class="cls-2" d="M293.7,459.49c.35,0,.7.22.6.52-.24.68-.87.42-1.38.41Z" transform="translate(-164.62 -266.63)"/><polygon class="cls-1" points="13.9 249.31 14.01 249.43 13.87 249.5 13.9 249.31"/><path class="cls-4" d="M705.48,274.84c-.63,2.87-1.17,5.41-1.74,8-2,8.63-3.9,17.27-6,25.88-.35,1.45-.12,1.93,1.32,2.13,5.41.75,10.81,1.6,16.23,2.36,9,1.26,18.07,2.43,27.09,3.73a4.7,4.7,0,0,0,3.44-.57c2-1.15,4.39-.77,6.6-1,12.36-1.48,24.75-2.74,37.13-4.15s24.72-2.92,37.09-4.39a5.66,5.66,0,0,1,2.67.38q13.21,4.79,26.45,9.49c.7.25,1.71.27,1.78,1.1.09,1-1.07.9-1.68,1.11q-11.38,4-22.81,7.78c-1.07.36-2.2,1.32-3.21-.36-.38-.63-1.24.08-1.76.38a70.81,70.81,0,0,1-15.58,7.09c-.86.25-2.11.49-1.87,2.09.1.65-.95.8-1.49,1.1-2.39,1.34-5,2.39-7.22,3.92A22.45,22.45,0,0,1,789,344.48c-1,0-2.18.38-2.92-.83-.38-.61-1-.53-1.56-.23-1.79,1-3.34.17-4.93-.54a218.87,218.87,0,0,1-25.47-13.06c-1.31-.8-2.28-.44-3.6-.14-2.94.67-6-.11-8.94-.26-6.6-.34-13.27-.44-19.61-2.91-.07-.77,1.6-.58,1-1.58-.45-.69-1.19-.34-1.84-.28L694.53,327l-25.07,2.27q-11.55,1-23.11,2a11.56,11.56,0,0,1-2.71-.35c-.49-.08-1.11-.34-1.29.27-.23.77.49.87,1,1l8.07,2.48c.54.16,1.26.16,1.36.85s-.58.73-.95,1c-2.71,2.21-5.31,4.57-8.16,6.57-2.58,1.81-3.89,4.41-5.34,7-1.11,2-2.5,3.77-3.4,5.81-1,2.32-2.61,2.85-4.92,2.57-6.83-.84-13.68-1.55-20.52-2.36a2.9,2.9,0,0,0-1.87.39q-14.39,7.73-28.79,15.43c-.62.33-1.46.5-1.65,1.72,4-1.39,5.41,2.08,7.54,4q17.62,16.27,35.11,32.68a4,4,0,0,1,1.63,2.09c-3.77.25-7.4-.43-11-.72-8.61-.69-17.21-1.5-25.81-2.28-6.62-.61-13.23-1.27-19.85-1.87-6.2-.56-12.41-1.08-18.62-1.62-4.64-.4-9.27-.85-13.91-1.2-3.23-.24-5.25-2.64-7.75-4.18-1.41-.87-2.7-1.94-4.07-2.88-.4-.28-1-.56-1.32,0s.11.85.57,1.17c1.71,1.18,3.35,2.46,5.09,3.6,1.24.81,1,1.41-.17,1.84-3,1.08-5.94,2.09-8.91,3.14-1.33.47-1.69-.21-1.48-1.34.31-1.64.06-3.45.57-4.93,1.66-4.82-2.36-7-4.31-10.11-.2-.33-.56-.69-1-.27s-.18.77.06,1.11a12.24,12.24,0,0,0,1.63,2.2c2.8,2.51,2.67,5.65,2.09,8.93a3.25,3.25,0,0,0-.21,1c.69,4-1.8,5.09-5,6.2-23.1,8-46.19,16-69.15,24.4-6.59,2.4-13.38,2.85-20.12,3.77-7.29,1-14.51,2.42-21.82,3.24-1,.11-2.42,0-2.38,1.87,0,.65-.93.8-1.58,1-2.69.77-5.36,1.58-8,2.37a1.49,1.49,0,0,1-1.63-.26c-.88-.9-1.23-.53-1.37.52a.89.89,0,0,1-.81.83c-2.3.21-4.42,1.5-6.53,1.71s-3.88,1.32-5.8,1.88c-2.31.68-4.73-.59-6.92.87a21.09,21.09,0,0,0-1.91.94,3.82,3.82,0,0,1-1.59.59c-.85.16-1-2.72-2.45-.52-.56.85-1.68,1.31-1.85,2.41-.82-.07-.85-.67-1.14-1s-.43-.79-1-.59-.46.6-.32,1c.49,1.6-.47,2.35-1.77,2.7-1.74.47-1.27-1.28-1.84-2-.43-.54-.28-1.53-1.39-1.66-.83,1.33.41,2.49.41,3.75,0,.9,0,1.28-.91,1.62s-1.18.08-1.51-.66c-.24-.55-.49-1.47-1.36-.94-.7.43,0,1,.17,1.53.32.71.41,1.2-.51,1.52-.7.24-1.35.76-2-.12-.35-.5-.51-1.58-1.27-1.22-1,.45-.17,1.29.07,1.93.32.85-.34,1-.84,1.23-1.89.86-3.78,1.71-5.69,2.51-.51.21-1.08.51-1.66.09-1-.71-1.91-1.33-1.35.77.13.5-.39.65-.76.82-1.66.76-3.33,1.5-5,2.3-1.13.55-1.86-.16-2.6-1-.64,2.84-2.37,3.49-5.18,3.63-1,0-2.19,1.3-3.63.84-.79,2.56-1.82,1.64-3,.28a.56.56,0,0,0-1,.49c.28,1.67-.89,1.65-1.93,1.92-4.87,1.26-9.72,2.61-14.61,3.8-1,.24-2.57,0-3.17.19-2.09.69-3.87,2.38-6.28,1-2.54,3.47-6.92,2.14-10.16,3.86-1,.52-1-1-1.46-1.61-.29-.42-.29-1.34-1.12-1-.52.21-.47.85-.24,1.31.93,1.87-.06,2.35-1.69,2.52a6.62,6.62,0,0,0-2.15.56c-1.8.86-3,.28-3.92-1.36-.3-.54-.63-1.4-1.46-.82s.09,1,.24,1.49,1.78,1.36.32,1.86c-1.06.36-2.63,1.77-3.68-.23-.28-.52-.44-1.21-1.2-.93s-.22.85-.14,1.27c.15.8-.11,1.41-.9,1.48-1.2.11-2.48,1.44-3.62-.19-.3-.44-.63-1.18-1.31-.9-.88.37-.23,1,0,1.42s.27.89-.26,1c-1.2.23-2.34,1.09-3.59.61-.9-.34-2-2.76-2,.58,0,1.15-4.7,1.32-5.61.25-.4-.47-.58-1.46-1.43-1-.68.4-.07,1,.16,1.51s.56,1-.16,1.21c-1.29.37-2.66,1.52-3.92.55s-1.63-1.45-1.79.58c-.06.7-1.16.85-1.88.93a82.86,82.86,0,0,0-14,3.33c-10.41,3.08-21.06,5.36-31.51,8.36-2,.57-4.07.84-6.08,1.56-2.56.92-4.78-.83-7-1.79-.73-.31-.62-1,.13-1.25q7.44-2.75,14.91-5.44c.52-.19.93.12,1.35.44.85.66,1,.63,1.25-.63.33-1.43,2.07-1.69,3.52-1.51.45,0,1,.65,1.29.06,1.09-2.09,2.5-2.37,4.38-1.06.23.16.78,0,.74-.38-.22-2,.62-2.11,2.1-1.29.62.34.92,0,1-.59.23-1.09,1.2-1.18,2-1.17s1.61.12,2.12-.78c.14-.24.66-.52.85-.44,2.74,1.24,4-1.63,6-2.19,1.87-.5,3.86-2.36,5.7.91-1.14-3.27,1.08-3.33,2.67-3.9,2.73-1,5.44-2,8.2-2.89.57-.18,2.07-1.14,1.45.94-.2.67.31.86.9.61.84-.37,2.4-.43,2-1.67s-.2-1.42.76-1.72c9.29-3,18.09-7.37,27.7-9.39,10.5-2.21,19.91-7.41,29.88-11.07,9-3.31,17.89-7.07,26.83-10.61.72-.28,1.43-.91,2.31-.24a.93.93,0,0,0,.89,0c2.58-3.3,6.67-3.8,10.18-4.8,3.68-1,6.66-3.33,10.29-4.38s7.26-2.82,10.88-4.25c1-.38,1.92-1.1,3-.26a.83.83,0,0,0,1.13-.09c2.75-2.86,3.2-3,6.92-2.7.22,0,.65-.09.66-.18.39-3.17,3.38-2.67,5.23-3.28a12,12,0,0,0,3.69-1.75c15-12,30.77-23,46.07-34.53,22.35-16.92,46.38-31.36,69.57-47,5.22-3.53,11.42-5.12,17.15-7.64,14-6.15,28-12.06,42.09-18a4,4,0,0,0,1.82-1.56Q567,298.3,583,275.39a4.74,4.74,0,0,1,2.7-2q7.42-2,14.84-4.11c1-.29,2-.78,2.87.43a2.8,2.8,0,0,1,.2,3.22c-1.4,3.1-2.69,6.25-4.09,9.35a7.43,7.43,0,0,0-.64,5.34C600.24,293.23,601,299,602,304.7a1.73,1.73,0,0,0,.05.5c1.14,6,1.13,5.84,7.29,5.2,7.77-.81,15.56-1.37,23.33-2.11,7.94-.76,15.86-1.62,23.8-2.43.88-.09,1.91.11,1.61-1.43,0-.26.79-.74,1.27-1q22.44-14,44.89-27.91A9.39,9.39,0,0,1,705.48,274.84ZM498.62,402.52a4.46,4.46,0,0,0-2.56-2.72,3.61,3.61,0,0,0,1.95,2.76c1.73,1.8.64,3.94.72,5.94,0,1-.58,2.09,1.07,3.08V404C499.79,403.24,499.71,402.48,498.62,402.52Zm-55.8,24.17c1.73-1.13,3.79-1.65,5.4-3,.51-.43,1.18-.82,1-1.58a1.65,1.65,0,0,0-1.75-1.15,23.16,23.16,0,0,0-13.69,4.33,1.49,1.49,0,0,0-.74,1.49c.17.82,1,.91,1.6.9,1.65,0,3.31-.11,5-.18,1.11,0,2-1,3.19-.81Zm64.56-19c.45-5.52-1.88-10-5.23-14a41.75,41.75,0,0,1,5.23,14Zm-16.92,4.73c2.1-6.5,1.71-8.08-2.52-10.21,3.81,2.67,2.55,6.57,2.52,10.17ZM496.12,400a4.19,4.19,0,0,0-2.43-3.06,4,4,0,0,0,2.43,3Zm-8.78.49c-.29.33-.46.48-.44.51s.25.41.43.48.43,0,.32-.34a4.14,4.14,0,0,0-.31-.69Z" transform="translate(-164.62 -266.63)"/><path class="cls-5" d="M202.7,507.14c-.14-.09-.36-.15-.4-.27-.24-.76-1.53-1.71-.58-2.21s1.22.91,1.54,1.69Z" transform="translate(-164.62 -266.63)"/><path class="cls-5" d="M203.83,509.26l-1.13-2.12.57-.79,1.12,2.12Z" transform="translate(-164.62 -266.63)"/><path class="cls-5" d="M355.83,459.76l-1.14-2c1.42-.58,1.35.58,1.71,1.19Z" transform="translate(-164.62 -266.63)"/><path class="cls-5" d="M367.64,454.14c-.13-.42.07-.61.46-.6s.62.48.8.82a.51.51,0,0,1-.32.78C368,455.19,367.91,454.53,367.64,454.14Z" transform="translate(-164.62 -266.63)"/><path class="cls-5" d="M219.36,500.93c.63.5,1.47,1.19.61,1.85s-.9-.49-1.14-1Z" transform="translate(-164.62 -266.63)"/><path class="cls-5" d="M316.46,475c.25.15.52.22.59.38.13.32,0,.59-.41.54a.69.69,0,0,1-.48-.36C316.11,475.39,316.33,475.14,316.46,475Z" transform="translate(-164.62 -266.63)"/><path class="cls-5" d="M218.83,501.76c-.31-.37-.76-.83-.36-1.25s.69.06.89.42Z" transform="translate(-164.62 -266.63)"/><path class="cls-6" d="M439.61,427.51c-1.65.07-3.31.17-5,.18-.64,0-1.42-.08-1.6-.9a1.49,1.49,0,0,1,.74-1.49A23.16,23.16,0,0,1,447.44,421a1.65,1.65,0,0,1,1.75,1.15c.18.75-.49,1.15-1,1.58-1.61,1.35-3.67,1.88-5.4,3-.48-.13-1.64.44-1.19-.69.55-1.4-.29-1.86-1.15-2.24a1.63,1.63,0,0,0-2.16.67c-.62,1.09.1,1.82.84,2.51A4.43,4.43,0,0,1,439.61,427.51Z" transform="translate(-164.62 -266.63)"/><path class="cls-7" d="M507.38,407.65c-.76-5.07-2.85-9.61-5.23-14C505.55,397.67,507.84,402.14,507.38,407.65Z" transform="translate(-164.62 -266.63)"/><path class="cls-8" d="M439.61,427.51a4.43,4.43,0,0,0-.45-.58c-.74-.69-1.47-1.42-.84-2.51a1.63,1.63,0,0,1,2.16-.67c.87.38,1.7.85,1.15,2.24-.44,1.13.72.56,1.19.69C441.64,426.49,440.75,427.47,439.61,427.51Z" transform="translate(-164.62 -266.63)"/><path class="cls-9" d="M490.46,412.38c0-3.61,1.28-7.5-2.52-10.21C492.18,404.3,492.55,405.88,490.46,412.38Z" transform="translate(-164.62 -266.63)"/><path class="cls-10" d="M498.62,402.52c1.09,0,1.16.72,1.17,1.51v7.56c-1.64-1-1-2.12-1.07-3.08-.08-2,1-4.14-.72-5.94Z" transform="translate(-164.62 -266.63)"/><path class="cls-7" d="M496.12,399.92a4,4,0,0,1-2.43-3.06A4.19,4.19,0,0,1,496.12,399.92Z" transform="translate(-164.62 -266.63)"/><path class="cls-7" d="M498.62,402.52H498a3.61,3.61,0,0,1-1.95-2.76A4.46,4.46,0,0,1,498.62,402.52Z" transform="translate(-164.62 -266.63)"/><path class="cls-9" d="M487.34,400.41c.12.25.23.44.31.65s-.08.44-.32.34-.31-.3-.43-.48C486.88,400.89,487,400.74,487.34,400.41Z" transform="translate(-164.62 -266.63)"/></svg>