<svg id="Ebene_1" data-name="Ebene 1" xmlns="http://www.w3.org/2000/svg" viewBox="0 0 748.97 339.71"><defs><style>.cls-1{fill:#585654;}.cls-2{fill:#101010;}.cls-3{fill:#2b2b2b;}.cls-4{fill:#dcddd8;}.cls-5{fill:#040404;}.cls-6{fill:#070707;}.cls-7{fill:#020202;}.cls-8{fill:#050505;}.cls-9{fill:#0a0909;}.cls-10{fill:#0a0a0a;}.cls-11{fill:#f7f7f7;}.cls-12{fill:#dee0da;}.cls-13{fill:#878787;}.cls-14{fill:#1a1a1a;}</style></defs><title>tigershark</title><path class="cls-1" d="M219,386.66c-4.48-5.55-9-11.07-13.43-16.66q-17.58-22.15-35.1-44.34-9.74-12.3-19.53-24.57c-.85-1.06-.64-1.8,0-2.85,2.13-3.66.88-6.16-3.35-6.57-2-.19-3.88-.92-5.93-.53-.92.17-1.64-.52-2.34-1.13-4.54-3.92-8.31-8.76-13.87-11.47-.33-.16-.41-.82-.61-1.25a3.81,3.81,0,0,0,.34-.32,7.49,7.49,0,0,0,4.22,1.08c9.56-.1,19.1.72,28.66.41a3.44,3.44,0,0,1,2,.76q15,9.19,30.1,18.3a2.31,2.31,0,0,0,.47.16c2,2.62,4.26,4.9,7.77,5.32l3.19,3.31a2.87,2.87,0,0,0,1.26,1.75c3.61,3.06,7.18,6.15,10.81,9.19,6.68,5.59,13.4,11.12,20.08,16.71s13.17,11.18,19.84,16.67c7.52,6.27,15.08,12.48,22.6,18.75q13.28,11.08,26.51,22.23a1.92,1.92,0,0,1,.31.54c-.69.22-1.43-.57-2,.36.47.19.91.41,1.37.56,6.3,2,12.58,4.08,18.91,6,1.54.47,2.73,1.84,4.59,1.47a258,258,0,0,1,25.91-3.67c.53,0,.8-.18.8-.65,0-2.41.31-4.91-.21-7.21a1.71,1.71,0,0,1,.45-1.94c2.09-2.26,4.19-4.51,6.27-6.77.33-.36.89-.92.8-1.19-1.11-3.09.79-5.82.82-9.12,5.76,2.66,11.28,5.14,16.73,7.74,2.17,1,4.58,1.72,6.37,3.36,5.46,5,10.83,10.1,16.22,15.18.14.13.14.41.2.58-.63.44-1.6-.27-2,.75.38.69,1.07.53,1.55.43,4.21-.8,8.46-.33,12.69-.55,9.87-.5,19.74-1,29.61-1.41,5-.2,10-.52,14.95-.64,4.34-.11,8.62-.32,12.95-1.79,10.24-3.48,20.7-6.31,31.1-9.29,2.44-.7,5.06-1.52,7.5-1.28,1.82.18,1.8-.25,2.06-1.56,1-5.26,2.51-10.45,3.16-15.75.5-4.09,3.43-7.76,1.91-12.21-.4-1.17-.86-2.36-1.17-3.6-2.43-9.77-5-19.52-7.45-29.27-.8-3.12-1.65-6.23-2.38-9.36-.6-2.53-.12-3.12,2.35-2.74,5.79.88,11.54,2.06,17.34,2.73a5.39,5.39,0,0,1,4.64,3.38c.94,1.84,2.11,3.57,3.23,5.31.24.37.31,1.29,1.21.67,2.23-1.51,4.92-1,7.34-1.65,1.82-.5,2.89.31,4,1.53,7,7.38,14,14.7,21,22.07,4.12,4.35,8.15,8.78,12.26,13.14.86.92,1,4,3.36,1.34.15-.17.78.1,1.19.14l11.07,1.31c4.92.59,9.82,1.41,14.76,1.72,2.8.17,5.3,1.75,8.25,1.14,6.05-1.25,12.13-2.4,18.24-3.32,12.39-1.87,24.59-4.77,37-6.35,6.06-.77,12.14-1.48,18.21-2.19,6.24-.73,12.48-1.4,18.72-2.14,6.4-.76,12.79-1.57,19.18-2.36,4.83-.6,9.66-1.24,14.5-1.8,3.45-.4,6.94-1.19,10.36-1,6.73.47,13.47.33,20.2.6,8.38.34,16.79.64,25.2.78,5.06.09,10.14.24,15.21.37,3,.07,7.88,5,7.77,7.83a2.23,2.23,0,0,1-.37.92c-3.5,6.19-6.37,12.72-10.19,18.74-5,8-10.91,15.16-18.61,20.8-1.27.93-3.57,1.35-3.63,3.66l-3-.4c-2.9.13-5.78-1.14-8.63-.49-5.33,1.23-10.79,1.77-16,3.79a69.11,69.11,0,0,1-12.12,3.54c-4.08.77-7.79,3.49-11.64,5.39a1.13,1.13,0,0,0-.55,1.49l-.08.2h-.22c-1.6-.09-2.66.46-2.7,2.24l-.32.26c-1.18-.15-2.18,0-2.16,1.53h0c-1.47.41-3,.71-3,2.75l-.07.2h-.22c-1.47-.09-2.56.33-2.69,2h0c-.42-.19-.83-.1-.88.34a.94.94,0,0,0,.95,1.07l-.05-.07c.15.85.22,1.77,1.49,1.57h0c0,1,.34,2.66,1.23,2.19,1.34-.71,3-1.73,3.16-3.7h0a1.48,1.48,0,0,0,2-1.06h-.06c.93-.1,1.81-.25,1.53-1.54v.07a1.48,1.48,0,0,0,2-1.08l-.07,0c.89-.1,1.75-.23,1.58-1.47h0c3.66-1.39,7.6-2.32,10.93-4.28,6.11-3.6,12.4-6.08,19.55-6.23,1.46,0,2.94-1,4.35.18,1.14-1.54,2.94-.78,4.35-1.28,1.6-.56,3.58.22,4.86-1.38a6.07,6.07,0,0,0,2.4-.49c1.54-.53,2.87-1.74,4.65-1.51a3.47,3.47,0,0,0,0,1.24c1.28,3.13,0,5.06-2.67,6.77a94.41,94.41,0,0,0-7.44,5.82l-29.81,23.64c-9.23,7.31-18.44,14.64-27.74,21.85-2.79,2.16-5.24,4.89-8.7,6.09-13.37,4.63-26.72,9.31-40.13,13.82-7.13,2.4-14,5.5-21.46,7-6,1.17-12,2-18.07,2.89-6.54.91-13.11,1.61-19.66,2.4-3.85.46-7.69,1.11-11.56,1.33-3.66.2-7,1.86-10.73,1.76a4.69,4.69,0,0,0-3.21,1.15c-4.69,4.31-10.46,7.07-15.71,10.52-5.48,3.6-11.76,6-17.71,8.83-8.91,4.23-17.6,9.2-27.65,10.76-5.36.83-10.64,1.61-16.4,1,1.42-2.23,2.54-4.14,4.73-5.29,7.48-4,14.9-8,22.37-12,2.19-1.17,4.88-1.77,6.58-3.42,2.53-2.45,4.39-5.59,6.54-8.43.71-.94.5-1.38-.64-1.75-1.7-.55-3.46-.31-5.16-.59-7.65-1.25-15.28-2.61-22.92-3.86-10.66-1.74-21.35-3.36-32-5.13-9.35-1.55-18.67-3.25-28-4.83-.5-.09-1.62-.52-1.55.52.1,1.43-1,1.86-1.7,2.53-5.38,5-10.8,9.87-16.22,14.79a6.41,6.41,0,0,1-2.13,1.67c-3.67,1.3-7.32,2.63-10.93,4.09-2.06.84-2.29-.18-2.29-1.81,0-1.21.55-2.27.2-3.63-.8-3.19-.81-6.59-1.76-9.72-1.73-5.7.13-12.62-5.66-17-.61-.46.15-1.64-1.27-2.06-10.85-3.21-21.77-6.28-32.43-10a21.1,21.1,0,0,0-17,.68,10.32,10.32,0,0,1-1.39.54c-6.47,2-12.56,5.13-19.34,6.15-1.91.29-3.75-.86-5.63-.06-1.44.61-3,.26-4.44.3s-1.28-.58-.81-1.52a30.57,30.57,0,0,1,5.73-8.34c.28-.28.92-.47.63-.86-1.41-1.93-1.49-4.85-4.26-5.77-3-1.31-6.37-1.89-7.94-5.51-.79-1.84-2.62-2.92-4.74-3.57-10.45-3.2-20.85-6.54-31.23-9.94a3.93,3.93,0,0,0-3.06.21c-5.21,2.3-9.57,6-14.31,9-5.87,3.76-11.82,7.46-17.34,11.7-6.25,4.8-13.77,5.87-20.89,8.13-8,2.52-16,4.74-24,7.13-.92.27-1.86,1.26-2.63,1.11-1.86-.38-2.8-2.28-4.3-3.32-.37-.25.11-.56.24-.83a97.63,97.63,0,0,1,4.11-9,98.72,98.72,0,0,1,5.7-8.09c2.71-.89,3.34-3.31,4.13-5.61h0c1-.07,1.29-.6,1-1.51v-.1c1.39,0,1.72-.52,1.18-1.78l.67-2a4.2,4.2,0,0,0,1.41-4c1.26-5.73,3.48-11.18,5.2-16.77a5.5,5.5,0,0,0-.3-4.43c-2.89-5.85-5.66-11.75-8.47-17.64.09-3.32-2.31-5.58-3.59-8.31C220.13,386.28,219.62,385.77,219,386.66Zm286.58,28.65c.86,7.3,1.1,15.44,4.74,22.89.65,1.34,1.72,2.61,3.52,2.2,1.6-.37,2.18-1.56,2.15-3.18a22.71,22.71,0,0,1,.82-7.62c1.69-5.33,2.32-11,4.17-16.32,3.06-8.84,5.8-17.77,8.11-26.85,1.18-4.66-.7-6.55-4.63-8.83a3.36,3.36,0,0,0-4.48.9c-1,1.1-2.14,2.06-3.06,3.21-2.68,3.39-6.11,6.17-7.76,10.41C506.31,399.38,506,407,505.55,415.31Zm45,11.13a29.21,29.21,0,0,0,2-9.52c.37-7.44,3.27-14.51,3.52-22,.21-6.28,1.56-12.49,1.37-18.81,0-1.56-.44-3.22,1.55-4a.74.74,0,0,0,.38-1v0a.7.7,0,0,0-.62-.26c-1.53.62-3.38-.52-4.82,1.39-1,1.27-3.87,1.22-2.08,4,.06.09-.18.45-.35.62-2.47,2.54-3.34,6-4.46,9.1-1.48,4.18-4.16,8.18-3.48,13.18.46,3.12,1.26,6.15,1.89,9.22,1,4.93,2.18,9.84,3,14.8a4,4,0,0,0,2.11,3.29ZM487,425.14a35.14,35.14,0,0,0,1.06,9.34c.5,2,2.08,2.42,3.57,2.45s2.32-1.26,2.53-2.86.71-2.89.86-4.36a156.84,156.84,0,0,1,5.15-26.93,14.56,14.56,0,0,0,.86-5.35c-.15-1.54-1.76-2.6-2.44-1.86-2.15,2.36-5.58,3.33-6.87,6.63A67.3,67.3,0,0,0,487,425.14Zm115.78-55.38c-.49.67-.93,1.23-1.32,1.83-3.35,5.07-4.88,10.81-5.94,16.67-.54,3-1.29,6-.69,9,1.18,6.15,3.11,12.18,2.78,18.56-.08,1.49.09,3,0,4.5a2.19,2.19,0,0,0,1.85,2.48h0c1.52.43,1.91-.75,2.27-1.7a13,13,0,0,0,.88-4.59c0-2.57-.42-5.14.08-7.72a32.87,32.87,0,0,0,.69-8.89c-.68-8.38,0-16.8-.78-25.17-.18-1.6,1-3.12.15-5ZM462.14,425c-.79,3.38,1.53,6.78,1.67,10.52,0,1.11,1.14,1.54,2.28,1.38a1.93,1.93,0,0,0,1.74-2.1,2,2,0,0,0,0-.22,5.33,5.33,0,0,1-.08-2.15c1-3.41,2-6.85,2.93-10.27,2.26-8,4.64-15.91,6.07-24.08.11-.65.49-1.38-.16-1.83s-1.24.23-1.78.54a11.11,11.11,0,0,0-1.32,1.13c-4.62,3.73-6.36,9.23-8.78,14.29A26.81,26.81,0,0,0,462.14,425Zm160.49-18.9c3.59-4.15,3.77-9.11,5.48-13.47,3.67-9.37,4.59-19.56,8.58-28.84.2-.46.54-.88,0-1.34a1,1,0,0,0-1.37,0c-.69.45-1.35.94-2,1.44-3.88,2.94-5.91,7.11-7.37,11.54A70.58,70.58,0,0,0,622.63,406.14Zm-47.95,14.23c.6-7.08,1.46-14.06,1.44-21.1,0-2.32.1-4.63.31-7a66.22,66.22,0,0,0,0-10.71c-.17-2.3-.76-4.49.39-6.73.59-1.16-.34-2.42-.31-3.66,0-.5-.4-.69-.87-.64s-.82.12-1,.59c-2,5.24-4.43,10.33-4.68,16.06-.36,8,.56,15.88,1.56,23.76.44,3.34,1,6.64,3.17,9.44Zm-132.13,1.71c.7,4.69,1.38,9.51,2.18,14.31a2,2,0,0,0,2,1.59c1.2.07,1.19-.86,1.43-1.65.49-1.63.21-3.3.33-5A61.15,61.15,0,0,1,450.75,418c1.12-3.72,2.12-7.47,3.08-11.23a29.15,29.15,0,0,0,.62-4.16,2,2,0,0,0-.91-1.69.52.52,0,0,0-.85.12c-2.39,4.45-6.81,7.55-8.16,12.74C443.83,416.5,442.74,419.14,442.55,422.08ZM735,386.45a6.56,6.56,0,1,0-6.65,6.59,6.65,6.65,0,0,0,6.66-6.58Z" transform="translate(-124.62 -190.08)"/><path class="cls-2" d="M788.55,396c.06-2.32,2.36-2.73,3.63-3.66,7.7-5.64,13.56-12.82,18.61-20.8,3.81-6,6.69-12.55,10.19-18.74a2.23,2.23,0,0,0,.37-.92c.11-2.78-4.8-7.76-7.77-7.83-5.07-.13-10.15-.28-15.21-.37-8.4-.14-16.81-.44-25.2-.78-6.73-.27-13.47-.13-20.2-.6-3.41-.24-6.91.55-10.36,1-4.84.56-9.66,1.2-14.5,1.8-6.39.79-12.78,1.6-19.18,2.36-6.24.74-12.48,1.41-18.72,2.14-6.07.71-12.14,1.42-18.21,2.19-12.43,1.57-24.64,4.48-37,6.35-6.11.92-12.19,2.08-18.24,3.32-2.95.61-5.45-1-8.25-1.14-4.94-.31-9.84-1.13-14.76-1.72l-11.07-1.31c-.41,0-1-.32-1.19-.14-2.38,2.66-2.5-.42-3.36-1.34C574,351.42,570,347,565.87,342.64c-7-7.37-14-14.69-21-22.07-1.15-1.22-2.22-2-4-1.53-2.42.66-5.11.14-7.34,1.65-.9.61-1-.31-1.21-.67a60.11,60.11,0,0,1-3.23-5.31,5.39,5.39,0,0,0-4.64-3.38c-5.81-.67-11.56-1.85-17.34-2.73-2.48-.38-2.95.21-2.35,2.74.74,3.13,1.59,6.24,2.38,9.36,2.49,9.75,5,19.5,7.45,29.27.31,1.23.77,2.43,1.17,3.6,1.52,4.45-1.42,8.12-1.91,12.21-.64,5.3-2.13,10.49-3.16,15.75-.26,1.31-.24,1.74-2.06,1.56-2.44-.24-5.06.58-7.5,1.28-10.4,3-20.86,5.82-31.1,9.29-4.32,1.47-8.61,1.68-12.95,1.79-5,.12-10,.43-14.95.64-9.87.41-19.74.91-29.61,1.41-4.23.21-8.48-.26-12.69.55-.49.09-1.17.26-1.55-.43.37-1,1.34-.31,2-.75-.06-.17-.06-.45-.2-.58-5.53-5.08-10.85-10.15-16.32-15.15-1.79-1.64-4.21-2.32-6.37-3.36-5.46-2.6-11-5.08-16.73-7.74,0,3.31-1.93,6-.82,9.12.1.27-.47.83-.8,1.19-2.08,2.27-4.18,4.52-6.27,6.77a1.71,1.71,0,0,0-.45,1.94c.52,2.3.21,4.79.21,7.21,0,.47-.27.6-.8.65a258,258,0,0,0-25.91,3.67c-1.86.36-3.06-1-4.59-1.47-6.32-1.93-12.61-4-18.91-6-.46-.15-.91-.37-1.37-.56.55-.93,1.28-.14,2-.36a1.92,1.92,0,0,0-.31-.54l-26.51-22.23c-7.58-6.29-15.11-12.53-22.58-18.8-6.62-5.53-13.19-11.12-19.81-16.65s-13.4-11.12-20.08-16.71c-3.63-3-7.21-6.13-10.81-9.19a2.87,2.87,0,0,1-1.26-1.75c3.77,2,6.77,5.06,10,7.76q22.65,18.8,45.18,37.74,18.94,15.85,37.86,31.72,5.36,4.5,10.66,9a5.21,5.21,0,0,0,2,1c5.52,1.75,11,3.57,16.55,5.28,3.16,1,6.23-.33,9.32-.67,5.44-.6,10.84-1.6,16.28-2.22,1.86-.21,2.36-1,1.89-2.55-.42-1.37.15-3-1.11-4.17-.61-.58.23-1,.57-1.4a48.63,48.63,0,0,1,4.2-4.61,8.45,8.45,0,0,0,3.27-6.89c-.09-2.33,1-4.5.8-6.85-.08-1,.77-1.24,1.69-.82,5.85,2.67,11.59,5.62,17.59,7.88,3.79,1.43,6.57,3.87,9.34,6.54,4.45,4.27,9,8.46,13.38,12.75a3.21,3.21,0,0,0,2.68.92c20-1,40.08-1.77,60.11-2.93,5.28-.3,10.21-2.7,15.3-4.13,9.16-2.58,18.24-5.43,27.43-7.92,2.1-.57,3.36-1,3.78-3.47,1.19-7,2.7-14,4.18-21a3.5,3.5,0,0,0-.59-3.21c-.95-1.13,0-2.3-.29-3.57-3.43-13-6.64-26-9.92-39a3.45,3.45,0,0,1-.22-.71c0-1.24-.42-2.72.11-3.68.69-1.24,2,.15,3,.28,6.9.92,13.73,2.33,20.67,3.07.84.09,2,0,2.09,2s2.13,4,3.37,6a1,1,0,0,0,.87.3c2.75-.71,5.78,0,8.36-1.56,1.28-.76,1.56.48,2.06,1q14.85,15.53,29.63,31.12a11.09,11.09,0,0,1,1.19,1.28c3,4.42,7.37,5.77,12.52,6.22,9.49.83,19,2,28.41,3.28,3.23.43,6.7-.9,10-1.48,9.31-1.61,18.72-2.81,27.9-5,14.8-3.51,30-4.07,44.93-6.23,15.77-2.27,31.69-3.54,47.46-5.77,6.26-.88,12.37-.15,18.54-.09,7.41.08,14.81.47,22.22.71,9.15.3,18.31.67,27.46.81a6.56,6.56,0,0,1,5.11,2.22,8.29,8.29,0,0,1,1.46,10.08,169.11,169.11,0,0,1-17.33,28.43c-2,2.64-5,4.26-7.42,6.58-.12.11-.27.19-.4.29-5.71,4.6-6,4.84-4.63,12,.27,1.43.75,2.66.38,4.14-.13.53-.29,1.22-.7.87-1.43-1.22-2.13.09-2.93.72q-36.52,28.77-73,57.65c-1.21,1-2.43.76-3.62,1.17-18.22,6.31-36.67,12-54.59,19.09-7.07,2.79-14.18,2.45-21.2,3.88-9.58,1.94-19.31,3.18-28.94,4.87-3.3.58-6.76.56-9.84,2.23-.64.35-1.69.4-1.9-.5-.26-1.14,1.44.15,1.48-1.32a10.62,10.62,0,0,0-6.65,1.22c-4,2.32-8.26,4.45-11.78,7.42-3,2.52-6.48,3.78-9.77,5.53-9.57,5.09-19.49,9.45-29.3,14-3.38,1.58-6.88,2.12-10.35,3-3,.81-6.09,1.43-8.94,2.91-1.43.74-3-.41-4.6-.57-2.15-.22-4.21-1.59-6.58-.16a5,5,0,0,1,.84-2.63c3.61-5.88,10-7.71,15.43-10.84,6-3.43,12.1-6.58,18.14-9.89,2.91-1.59,4.24-4.6,6.08-7.1,1-1.33-.63-1.43-1.37-1.56-5.31-.91-10.64-1.74-16-2.61l-38.06-6.26c-10-1.63-20-3.21-29.95-4.9a2.57,2.57,0,0,0-2.44.74c-5.53,5.06-11.47,9.73-16.48,15.26-3.78,4.18-9.06,4.17-13.36,6.64a3.08,3.08,0,0,1-.48.12c-4.44,1.61-4.6,1.61-4.71-3.24-.18-8.44-2.5-16.56-3.6-24.85-.12-.92-.9-1.32-1.4-2-3.7-4.75-9.27-5.74-14.53-7.36-8.14-2.51-16.3-5-24.42-7.53a11.42,11.42,0,0,0-7.77.13c-5.12,1.91-10.37,3.48-15.44,5.51a48.75,48.75,0,0,1-20.68,3.2c-2.61-.12-2.71-.43-1.79-2.77a30.49,30.49,0,0,1,4.92-7.68,3,3,0,0,0,.15-4,35.29,35.29,0,0,1-1.74-3.26c2.77.92,2.85,3.84,4.26,5.77.29.39-.35.59-.63.86a30.57,30.57,0,0,0-5.73,8.34c-.47.94-.57,1.56.81,1.52s3,.31,4.44-.3c1.88-.8,3.72.35,5.63.06,6.78-1,12.87-4.18,19.34-6.15a10.32,10.32,0,0,0,1.39-.54,21.1,21.1,0,0,1,17-.68c10.67,3.77,21.58,6.83,32.43,10,1.42.42.66,1.6,1.27,2.06,5.79,4.36,3.93,11.29,5.66,17,1,3.13,1,6.53,1.76,9.72.34,1.36-.2,2.43-.2,3.63,0,1.63.23,2.65,2.29,1.81,3.6-1.46,7.26-2.79,10.93-4.09a6.41,6.41,0,0,0,2.13-1.67c5.42-4.91,10.85-9.82,16.22-14.79.72-.67,1.8-1.1,1.7-2.53-.07-1,1-.6,1.55-.52,9.34,1.58,18.67,3.28,28,4.83,10.66,1.77,21.34,3.39,32,5.13,7.65,1.25,15.28,2.61,22.92,3.86,1.7.28,3.46,0,5.16.59,1.13.37,1.35.81.64,1.75-2.15,2.84-4,6-6.54,8.43-1.7,1.64-4.39,2.25-6.58,3.42-7.46,4-14.88,8.06-22.37,12-2.19,1.15-3.31,3.06-4.73,5.29,5.76.57,11-.21,16.4-1,10-1.55,18.74-6.53,27.65-10.76,5.95-2.83,12.23-5.23,17.71-8.83,5.26-3.45,11-6.2,15.71-10.52a4.69,4.69,0,0,1,3.21-1.15c3.7.1,7.08-1.55,10.73-1.76,3.87-.21,7.71-.86,11.56-1.33,6.56-.79,13.12-1.49,19.66-2.4,6-.84,12.09-1.72,18.07-2.89,7.41-1.45,14.33-4.55,21.46-7,13.41-4.51,26.76-9.19,40.13-13.82,3.46-1.2,5.91-3.92,8.7-6.09,9.31-7.21,18.51-14.55,27.74-21.85Q764,425.57,778.9,413.74a94.41,94.41,0,0,1,7.44-5.82c2.68-1.72,3.94-3.64,2.67-6.77a3.47,3.47,0,0,1,0-1.24l-.22-1-.24-2.29ZM597.38,495a27,27,0,0,0,8.52-1.31,23.11,23.11,0,0,0-8.54,1.32Zm12.19-1.64a4,4,0,0,0-3,0,5,5,0,0,0,3,0Z" transform="translate(-124.62 -190.08)"/><path class="cls-3" d="M219,386.66c.66-.9,1.16-.38,1.46.26,1.28,2.73,3.68,5,3.59,8.31-1.7-1.43-2.06-3.64-3.16-5.42C220.21,388.77,219.55,387.71,219,386.66Z" transform="translate(-124.62 -190.08)"/><path class="cls-3" d="M198.36,303c-3.52-.42-5.76-2.7-7.77-5.32,2.33.3,3.43,2.51,5.34,3.47A16.15,16.15,0,0,1,198.36,303Z" transform="translate(-124.62 -190.08)"/><path class="cls-3" d="M223.34,443.4c-.79,2.3-1.42,4.73-4.13,5.61C220.6,447.14,221.66,445.05,223.34,443.4Z" transform="translate(-124.62 -190.08)"/><path class="cls-4" d="M873.48,190.08c.15,3,.36,5.55-.87,8.52C872.55,195.5,872.21,193,873.48,190.08Z" transform="translate(-124.62 -190.08)"/><path class="cls-3" d="M227.55,434.07a4.2,4.2,0,0,1-1.41,4Z" transform="translate(-124.62 -190.08)"/><path class="cls-3" d="M225.55,440c.53,1.26.21,1.75-1.18,1.78Z" transform="translate(-124.62 -190.08)"/><path class="cls-3" d="M224.35,441.9c.29.91,0,1.45-1,1.51A1.91,1.91,0,0,1,224.35,441.9Z" transform="translate(-124.62 -190.08)"/><path class="cls-1" d="M124.78,277.29c-.15-.21-.26-.43,0-.6l.33.28A3.81,3.81,0,0,1,124.78,277.29Z" transform="translate(-124.62 -190.08)"/><path class="cls-5" d="M505.55,415.31c.44-8.34.75-15.93,3.57-23.19,1.65-4.25,5.07-7,7.76-10.41.91-1.15,2.06-2.12,3.06-3.21a3.36,3.36,0,0,1,4.48-.9c3.94,2.28,5.82,4.17,4.63,8.83-2.3,9.08-5,18-8.11,26.85-1.84,5.33-2.48,11-4.17,16.32a22.71,22.71,0,0,0-.82,7.62c0,1.62-.56,2.81-2.15,3.18-1.8.41-2.87-.86-3.52-2.2C506.66,430.76,506.42,422.62,505.55,415.31Z" transform="translate(-124.62 -190.08)"/><path class="cls-6" d="M550.55,426.45a4,4,0,0,1-2-3.31c-.85-5-2-9.87-3-14.8-.63-3.07-1.43-6.1-1.89-9.22-.73-5,2-9,3.51-13.26,1.11-3.13,2-6.55,4.46-9.1.17-.17.41-.53.35-.62-1.79-2.73,1.13-2.69,2.08-4,1.44-1.91,3.29-.77,4.82-1.39a.7.7,0,0,1,.62.26.74.74,0,0,1-.34,1h0c-2,.79-1.6,2.45-1.55,4,.19,6.32-1.16,12.52-1.37,18.81-.25,7.5-3.15,14.57-3.52,22A29.21,29.21,0,0,1,550.55,426.45Zm4.17-36L552.38,407a28.8,28.8,0,0,0,2-7.89c.24-2.71,1.11-5.36.38-8.74Z" transform="translate(-124.62 -190.08)"/><path class="cls-7" d="M487,425.14a67.3,67.3,0,0,1,4.72-22.93c1.29-3.3,4.72-4.27,6.87-6.63.68-.74,2.29.32,2.44,1.86a14.56,14.56,0,0,1-.86,5.35A156.84,156.84,0,0,0,495,429.72c-.15,1.47-.67,2.89-.86,4.36s-1,2.89-2.53,2.86-3.07-.48-3.57-2.45A35.14,35.14,0,0,1,487,425.14Z" transform="translate(-124.62 -190.08)"/><path class="cls-7" d="M602.8,369.74c.84,1.87-.32,3.43-.17,5,.83,8.37.1,16.79.78,25.17a32.87,32.87,0,0,1-.69,8.89c-.5,2.58-.09,5.15-.08,7.72a13,13,0,0,1-.88,4.59c-.35,1-.75,2.13-2.27,1.7a2.19,2.19,0,0,1-1.9-2.45v0c.1-1.49-.07-3,0-4.5.33-6.38-1.59-12.42-2.78-18.56-.6-3.1.15-6.09.69-9,1.06-5.86,2.59-11.61,5.94-16.67C601.87,371,602.31,370.42,602.8,369.74Z" transform="translate(-124.62 -190.08)"/><path class="cls-8" d="M462.14,425a26.81,26.81,0,0,1,2.55-12.79c2.42-5.06,4.16-10.57,8.78-14.29a11.11,11.11,0,0,1,1.32-1.13c.54-.31,1.1-1,1.78-.54s.28,1.18.16,1.83c-1.44,8.18-3.81,16.12-6.07,24.08-1,3.43-1.9,6.86-2.93,10.27a5.33,5.33,0,0,0,.08,2.15,1.93,1.93,0,0,1-1.49,2.29l-.22,0c-1.15.16-2.24-.27-2.28-1.38C463.67,431.8,461.35,428.4,462.14,425Z" transform="translate(-124.62 -190.08)"/><path class="cls-7" d="M622.63,406.14A70.58,70.58,0,0,1,626,375.46c1.46-4.43,3.49-8.61,7.37-11.54.66-.5,1.32-1,2-1.44a1,1,0,0,1,1.37,0c.49.46.15.88,0,1.34-4,9.27-4.9,19.46-8.58,28.84C626.41,397,626.22,402,622.63,406.14Z" transform="translate(-124.62 -190.08)"/><path class="cls-7" d="M574.69,420.38c-2.11-2.8-2.73-6.1-3.15-9.38-1-7.88-1.92-15.78-1.56-23.76.26-5.73,2.73-10.82,4.68-16.06.18-.48.58-.55,1-.59s.88.14.87.64c0,1.25.91,2.51.31,3.66-1.15,2.24-.56,4.43-.39,6.73a66.22,66.22,0,0,1,0,10.71c-.2,2.32-.31,4.63-.31,7C576.15,406.32,575.29,413.3,574.69,420.38Z" transform="translate(-124.62 -190.08)"/><path class="cls-9" d="M442.55,422.08c.18-3,1.27-5.59,2-8.3,1.35-5.19,5.76-8.29,8.16-12.74a.52.52,0,0,1,.85-.12,2,2,0,0,1,.91,1.69,29.15,29.15,0,0,1-.62,4.16c-1,3.76-2,7.52-3.08,11.23a61.15,61.15,0,0,0-2.26,13.38c-.12,1.65.16,3.32-.33,5-.24.79-.22,1.72-1.43,1.65a2,2,0,0,1-2-1.59C443.94,431.6,443.26,426.78,442.55,422.08Z" transform="translate(-124.62 -190.08)"/><path class="cls-10" d="M736.55,409.35a1.13,1.13,0,0,1,.55-1.49c3.86-1.9,7.57-4.62,11.64-5.39a69.11,69.11,0,0,0,12.12-3.54c5.2-2,10.66-2.56,16-3.79,2.85-.66,5.73.62,8.63.49v.76L784,397h-.55c-2.29-1.59-2.72-1.48-5.66,1.47-1-1,.83-1.4.48-2.22-3-1.3-4.12,1.33-5.78,2.82-.7-1,.25-1.36.77-1.88l-.11-.19.1.21c-5.61-1.36-6.77,3.24-8.92,6.61,3.88-.55,3.88-.55,6.19-2.83.89,1-.72,1.43-.56,2.28,2.66.71,3.88-1.72,5.78-2.65l-.62,1.76a4.61,4.61,0,0,0,5.34-1.87H781c0,.33-.53.64,0,1h0l-.35,0,.32.46h1c-1.28,1.6-3.25.82-4.86,1.38-1.41.49-3.21-.27-4.35,1.28-1.41-1.13-2.89-.21-4.35-.18-7.15.14-13.44,2.63-19.55,6.23-3.33,2-7.27,2.88-10.93,4.28a33.4,33.4,0,0,0,2.73-7.85A15.32,15.32,0,0,0,736.55,409.35Zm24-8.29c-.06-.34.2-.88-.54-.8-4,.47-6.9,3.3-7.69,7.66,3.54-1.59,3.53-1.6,6.36-4.72.23-.25.54-.71,1-.17.15.54-.81,1.42-.24,1.4,1.26,0,2.88.78,3.79-.43a64.18,64.18,0,0,0,3.54-5.82,3.51,3.51,0,0,0-1.73.21c-2,.28-2.77,2.25-4.49,2.67Zm-7.17,1.49c-5.66,1.51-7.35,3.45-7.54,8.37,4.55-.78,6.07-4.45,7.51-8.37Zm-7,2.08c-4.41,1.12-5.36,2.37-6.19,8.2,4-.95,5.58-3,6.2-8.2Z" transform="translate(-124.62 -190.08)"/><path class="cls-11" d="M735,386.46a6.56,6.56,0,1,1-6.34-6.91,6.56,6.56,0,0,1,6.34,6.91Zm-3,.84c0-2.2-1.93-4.29-4-4.14-1.33.1-2.74.47-2.85,2.15s2.81,5.19,4.28,5.16c2,0,2.64-1.33,2.52-3.18Z" transform="translate(-124.62 -190.08)"/><path class="cls-4" d="M733.25,412.08l.32-.26c1,.47.34,1.19.24,1.8-.27,1.79-.58,3.57-.87,5.36H733a1.57,1.57,0,0,0-2,1l0,.06h0c-.92.08-1.35.85-1.81,1.44-.9,1.16-1.69,1-2.58.07h0c-.18-.82-.42-1.59-1.49-1.57l.05.07c.49-.5-.21-.94-.07-1.41h0a6.33,6.33,0,0,0,2.69-2H728l.07-.2,1.48-.8v4.46c1.18-2.44,1.08-4.5,1.58-6.42h0C732.09,413.49,732.62,412.7,733.25,412.08Z" transform="translate(-124.62 -190.08)"/><path class="cls-12" d="M736.55,409.35a15.32,15.32,0,0,1,4.14-2.17A33.4,33.4,0,0,1,738,415h0c-.73.27-1.63.36-1.58,1.47l.07,0c-1-.33-1.51.38-2,1.08v-.07c0-2.77-.33-5.59,1.79-7.86h.22Z" transform="translate(-124.62 -190.08)"/><path class="cls-10" d="M736.27,409.58c-2.12,2.27-1.84,5.1-1.79,7.86.27,1.29-.6,1.45-1.53,1.54.29-1.79.6-3.57.87-5.36.09-.61.74-1.33-.24-1.8C733.61,410,734.68,409.48,736.27,409.58Z" transform="translate(-124.62 -190.08)"/><path class="cls-3" d="M782,402.05h-1c0-.06.11-.11.11-.17a1.87,1.87,0,0,0-.09-.35h0c1.1.44,1.58-.47,2.29-1s.93-1.69,2.12-1a3.81,3.81,0,0,0-.15.45.59.59,0,0,0,.87-.32h0l2.68-.58.22,1c-1.78-.23-3.11,1-4.65,1.51A6.07,6.07,0,0,1,782,402.05Z" transform="translate(-124.62 -190.08)"/><path class="cls-10" d="M731.1,413.6c-.5,1.91-.41,4-1.58,6.42V415.5l.36,0v-.23l-.33.24-1.48.8C728.06,414.3,729.63,414,731.1,413.6Z" transform="translate(-124.62 -190.08)"/><path class="cls-10" d="M726.55,421.51c.89,1,1.68,1.09,2.58-.07.46-.59.9-1.36,1.81-1.44-.16,2-1.82,3-3.16,3.7C726.93,424.14,726.55,422.56,726.55,421.51Z" transform="translate(-124.62 -190.08)"/><path class="cls-3" d="M785.55,396.39v-.76l3,.4.05.75a2.64,2.64,0,0,0-1.73,1.27C786.55,397.35,786.9,396.21,785.55,396.39Z" transform="translate(-124.62 -190.08)"/><path class="cls-10" d="M727.78,416.57a6.33,6.33,0,0,1-2.69,2C725.22,416.9,726.31,416.48,727.78,416.57Z" transform="translate(-124.62 -190.08)"/><path class="cls-10" d="M733.25,412.08c-.64.63-1.16,1.41-2.16,1.53C731.07,412.05,732.07,411.93,733.25,412.08Z" transform="translate(-124.62 -190.08)"/><path class="cls-10" d="M736.44,416.48c0-1.11.85-1.2,1.58-1.47C738.19,416.25,737.33,416.38,736.44,416.48Z" transform="translate(-124.62 -190.08)"/><path class="cls-10" d="M725.11,419.94c1.07,0,1.3.75,1.49,1.57C725.34,421.71,725.27,420.78,725.11,419.94Z" transform="translate(-124.62 -190.08)"/><path class="cls-10" d="M734.55,417.51c.48-.7.95-1.42,2-1.08a1.48,1.48,0,0,1-1.74,1.16Z" transform="translate(-124.62 -190.08)"/><path class="cls-10" d="M731,420a1.57,1.57,0,0,1,1.94-1.08l.06,0a1.48,1.48,0,0,1-1.76,1.13Z" transform="translate(-124.62 -190.08)"/><path class="cls-10" d="M725.1,418.59c-.14.48.56.92.07,1.41a1,1,0,0,1-.95-1.07C724.27,418.49,724.68,418.4,725.1,418.59Z" transform="translate(-124.62 -190.08)"/><path class="cls-13" d="M597.36,495a23.11,23.11,0,0,1,8.52-1.31A27,27,0,0,1,597.36,495Z" transform="translate(-124.62 -190.08)"/><path class="cls-12" d="M786.85,398.05a2.64,2.64,0,0,1,1.73-1.27l.24,2.29-2.68.58A1.52,1.52,0,0,1,786.85,398.05Z" transform="translate(-124.62 -190.08)"/><path class="cls-13" d="M609.55,493.33a5,5,0,0,1-3,0A4,4,0,0,1,609.55,493.33Z" transform="translate(-124.62 -190.08)"/><path class="cls-3" d="M554.76,390.4c.73,3.38-.14,6-.36,8.69a28.8,28.8,0,0,1-2,7.89Z" transform="translate(-124.62 -190.08)"/><path class="cls-12" d="M753.35,402.55c-1.44,3.92-3,7.58-7.54,8.37C746,406,747.69,404.06,753.35,402.55Z" transform="translate(-124.62 -190.08)"/><path class="cls-12" d="M746.39,404.63c-.62,5.21-2.16,7.25-6.19,8.2C741,407,742,405.75,746.39,404.63Z" transform="translate(-124.62 -190.08)"/><path class="cls-4" d="M773.28,397.22c-.51.52-1.47.86-.77,1.88l.06-.06c-1.54-.2-1.51,1.21-2.06,2v0c-2.31,2.28-2.31,2.28-6.19,2.83,2.15-3.37,3.31-8,8.92-6.61Z" transform="translate(-124.62 -190.08)"/><path class="cls-4" d="M775.77,400.63c-1.9.93-3.12,3.37-5.78,2.65-.15-.84,1.46-1.25.56-2.28v0c1.53.19,1.53-1.19,2.06-2l-.06.06c1.66-1.48,2.75-4.12,5.78-2.82.35.82-1.48,1.23-.48,2.22h0c-1.68-.35-1.85.82-2,2Z" transform="translate(-124.62 -190.08)"/><path class="cls-12" d="M759.61,403c-.42-.55-.73-.08-1,.17-2.83,3.12-2.83,3.13-6.36,4.72.79-4.35,3.65-7.19,7.69-7.66.74-.09.48.45.54.8h0c-.72.5-1.49,1-1,2.07Z" transform="translate(-124.62 -190.08)"/><path class="cls-12" d="M777.84,398.55h0c2.94-3,3.36-3.06,5.66-1.47a.46.46,0,0,0-.46.46.45.45,0,0,0,0,.06h0a2.29,2.29,0,0,0-1.53,2h0c-.42-.06-.53.19-.54.54h0c-.35,0-.49.2-.57.5a4.61,4.61,0,0,1-5.34,1.87l.62-1.76v-.09C777,400.42,777.2,399.25,777.84,398.55Z" transform="translate(-124.62 -190.08)"/><path class="cls-4" d="M760.55,401.06c1.76-.41,2.57-2.39,4.45-2.66a3.51,3.51,0,0,1,1.73-.21,64.18,64.18,0,0,1-3.54,5.82c-.91,1.21-2.53.4-3.79.43-.57,0,.39-.87.24-1.4l-.07,0c.7-.51,1.64-.9,1-2.07Z" transform="translate(-124.62 -190.08)"/><path class="cls-4" d="M786.85,398.05a1.52,1.52,0,0,0-.7,1.6h0l-.72-.13c-1.18-.65-1.49.59-2.12,1s-1.19,1.43-2.29,1c-.5-.34,0-.66,0-1,.05-.06.15-.12.14-.17A1.7,1.7,0,0,0,781,400h0c.64.28.81.1.54-.54h0c1.34-.06,1.63-.9,1.53-2h0c.66.46.8-.09,1-.51l1.49-.65C786.9,396.21,786.55,397.35,786.85,398.05Z" transform="translate(-124.62 -190.08)"/><path class="cls-3" d="M784,397c-.21.42-.36,1-1,.51a.46.46,0,0,1,.4-.52h.6Z" transform="translate(-124.62 -190.08)"/><path class="cls-3" d="M781.06,400a1.7,1.7,0,0,1,.12.36l-.14.17h-.55C780.55,400.22,780.71,400,781.06,400Z" transform="translate(-124.62 -190.08)"/><path class="cls-4" d="M781,401.51a1.87,1.87,0,0,1,.09.35s-.07.11-.11.17l-.32-.46Z" transform="translate(-124.62 -190.08)"/><path class="cls-4" d="M773.28,397.23l-.1-.21.11.19Z" transform="translate(-124.62 -190.08)"/><path class="cls-14" d="M732,387.29c.12,1.84-.52,3.13-2.55,3.18-1.47,0-4.4-3.46-4.28-5.16s1.53-2.06,2.85-2.15C730.06,383,732,385.14,732,387.29Z" transform="translate(-124.62 -190.08)"/><path class="cls-12" d="M785.42,399.5l.72.13a.59.59,0,0,1-.74.38l-.13-.06A3.81,3.81,0,0,1,785.42,399.5Z" transform="translate(-124.62 -190.08)"/><path class="cls-4" d="M729.55,415.55l.33-.24v.23l-.36,0Z" transform="translate(-124.62 -190.08)"/><path class="cls-10" d="M772.55,399c-.53.83-.54,2.2-2.06,2C771.07,400.25,771,398.84,772.55,399Z" transform="translate(-124.62 -190.08)"/><path class="cls-10" d="M777.84,398.55c-.64.7-.82,1.87-2,2C776,399.37,776.17,398.2,777.84,398.55Z" transform="translate(-124.62 -190.08)"/><path class="cls-10" d="M760.55,401c.63,1.16-.31,1.56-1,2.07C759.06,402,759.83,401.52,760.55,401Z" transform="translate(-124.62 -190.08)"/><path class="cls-3" d="M783,397.52c.1,1.14-.19,2-1.53,2A2.29,2.29,0,0,1,783,397.52Z" transform="translate(-124.62 -190.08)"/><path class="cls-3" d="M781.55,399.53c.27.63.1.82-.54.54C781,399.71,781.14,399.46,781.55,399.53Z" transform="translate(-124.62 -190.08)"/></svg>