<svg id="Ebene_1" data-name="Ebene 1" xmlns="http://www.w3.org/2000/svg" viewBox="0 0 1080.09 810.09"><defs><style>.cls-1{fill:#fefefe;}.cls-2{fill:#101111;}.cls-3{fill:#a3d9ee;}.cls-4{fill:#fca1a0;}.cls-5{fill:#3372a8;}.cls-6{fill:#3271a8;}.cls-7{fill:#3472a8;}.cls-8{fill:#3573a8;}.cls-9{fill:#e1e3dd;}.cls-10{fill:#57666d;}.cls-11{fill:#7f9ba6;}.cls-12{fill:#191919;}</style></defs><title>whale_shark</title><path class="cls-1" d="M1151.25,847.91q-268.75,0-537.5,0c-1.87,0-2.3-.42-2.3-2.3q.07-402.75,0-805.5c0-1.87.42-2.3,2.3-2.3q537.75.07,1075.5,0c1.87,0,2.3.42,2.3,2.3q-.07,402.75,0,805.5c0,1.87-.42,2.3-2.3,2.3Q1420.25,847.88,1151.25,847.91ZM1427.46,660c-1.62,1.21-3.33,1.28-4.78,2-.6.28-1.84.16-1.45,1.23s1.28.29,1.95.07l18.64-6q19.86-6.33,39.72-12.64c.71-.23,1.92-1.1,2.17-.16.58,2.21,1.43.83,2.16.35,1.1-.73,2.13-1.57,3.18-2.38q12.13-9.35,24.26-18.69c.49-.38,1.24-1.16,1.7-.53,1.76,2.41,1.74.12,2-.76a20.07,20.07,0,0,0,1-2.74,165.09,165.09,0,0,1,5.17-22.8c.23-.78.37-1.79-.51-2.15-2.22-.92-3.64-2.79-5.43-4.22-1.16-.93-1.19-1.55-.15-2.76,6.14-7.1,12.13-14.33,18.23-21.46,1.3-1.51,1.32-2.39-.56-3.42q-33.73-18.53-67.41-37.15-23-12.69-46-25.34l-67.17-37-45.38-25q-28.46-15.69-56.91-31.39c-14-7.75-28-15.66-42.14-23.15-2.94-1.56-4.84-4.27-8.37-5.27-24.26-6.9-48.41-14.21-72.6-21.36-18.33-5.41-36.68-10.73-55-16.19-6.37-1.9-12.52-3.68-17.66-8.84-8.18-8.23-17.42-15.4-26.19-23q-18.14-15.8-36.28-31.61c-1.11-1-2.19-1.71-1.94-3.42.1-.7-.8-1.59-1-.92-.31,1-3.33,1.49-.78,3.11.48.31.32.9.38,1.38.81,7.42.66,14.9,1.37,22.35.57,5.94,0,12-.07,18a6.78,6.78,0,0,1-.75,3.11c-2.48,4.88-5,9.76-7.33,14.7a2.82,2.82,0,0,1-3.07,1.82c-8.82-.24-17.65-.37-26.47-.53-3.5-.06-7-.07-10.5-.18s-6.9-.33-9.88-3.32c-4.85-4.87-10.39-9-15.63-13.53-.5-.43-1.38-1.09-1.29-1.41.75-2.56-1.27-1.44-2-1.43a16.24,16.24,0,0,0-3.09.81c-2,.44-1.94.4-1,2a2.44,2.44,0,0,1,.17,1c.53,5.53,1.08,11.06,1.59,16.6.2,2.23-2.86,5.53-4.83,5.36q-17.13-1.45-34.27-2.83a6.6,6.6,0,0,1-4-1.6c-6-5.19-12.34-10.12-18.22-15.49-4.57-4.16-9.87-7.42-13.09-13.23-11.57-20.92-23.71-41.53-35.41-62.38-2.75-4.9-5.57-9.33-10.93-11.77-2.64-1.2-5.44-2.68-5.76-6.24-.05-.58-.43-.93-1-.69s-.25.81-.31,1.27c-.32,2.27,1.27,3.9,1.87,5.85q4.27,14,8.65,28,14.34,45.94,28.71,91.88c8.63,27.64,17.29,55.27,25.79,82.95,1.57,5.1,4,10,4.16,15.49,0,.47.15.87.64.85s.6-.51.66-.93a43.35,43.35,0,0,0,.9-6.34c0-20,0-40,0-60a5.31,5.31,0,0,1,1.85-4.34q4.7-4.3,9.18-8.83c1-1,1.69-.87,2.78-.29,11.66,6.2,23.29,12.47,35.05,18.47,6,3.08,12,6,14.27,13.13a29.6,29.6,0,0,0,2.37,4.68c.81,1.53,1.66,3,2.49,4.57.21.38.5.7,1,.62a.57.57,0,0,0,.42-.78c-.76-1.61.58-1.58,1.43-1.85q5.56-1.76,11.15-3.46a2.51,2.51,0,0,1,2.31.22q18,11.12,36.1,22.07a1.83,1.83,0,0,1,.94,2.58c-1.12,3.55-2.1,7.15-3.18,10.71-.36,1.2-.16,2,1.21,2.09,4.4.42,8.69,1.54,13,2.19,6.8,1,13.7,1.44,20.57,2a5.57,5.57,0,0,1,3.12,1.32c9.39,7.39,18.83,14.72,28.15,22.2,2.25,1.81,4.83,3.3,6.86,5.82-7.32.81-14.32,1.56-21.32,2.37-8,.93-16,1.93-24,2.85-7.83.91-15.66,1.73-23.49,2.64-8,.93-16,1.93-24,2.86-7.83.91-15.66,1.73-23.49,2.64-8.07.93-16.13,1.92-24.2,2.87q-11.73,1.39-23.47,2.76c-7.91.92-15.86,1.6-23.73,2.79-8.34,1.27-16.85,1-25,4-7.89,2.93-16.17,4.78-24.28,7.1-.48.14-1.17.54-1.4.36-3-2.35-1.69,1-2.32,1.73-.84,1,.45,3.61-2.43,3.13-.46-.08-.66.7-.11,1.11a6.55,6.55,0,0,0,2.07,1.3c4,.94,7.49,3.06,11.32,4.4.6.21,1.69.47,1.54,1.06-.61,2.25,1,1.72,2.09,1.85a74.38,74.38,0,0,0,7.58.78c8.11.14,16.13,1.5,24.31,1.25,11.06-.35,22.14.08,33.22.26,21.57.36,43.13,0,64.69-.8,12.14-.44,24.3-.64,36.45-.93,17.31-.41,34.63-.78,51.94-1.22a16.09,16.09,0,0,1,6.51,1.25c6.77,2.7,13.63,5.18,20.39,7.89,5.83,2.33,11.87,4.27,17,8q13.72,9.92,27.37,19.94,14.56,10.67,29.06,21.43c.43.32,1.39.56,1,1.17-1.2,1.95.68,1.91,1.47,2.27,10.13,4.56,20.3,9,30.45,13.54q34.59,15.37,69.15,30.8c1.81.81,4.53.69,4.88,3.64,0,.22.68.46,1.07.53,4,.76,7.93,1.79,11.91,2.48,10.76,1.86,21.39,4.37,32.12,6.37,4.8.89,9.56,2.46,14.38,2.64,6.23.23,12.41.87,18.61,1.27,9,.58,18,1.57,27.05,2.3,9.44.77,18.89,1.41,28.33,2.16,11.75.93,23.51,1.85,35.25,2.93C1419,659.09,1423.1,659.08,1427.46,660Z" transform="translate(-611.45 -37.86)"/><path class="cls-2" d="M1427.46,660c-4.36-.92-8.49-.9-12.57-1.27-11.74-1.08-23.5-2-35.25-2.93-9.44-.75-18.89-1.4-28.33-2.16-9-.73-18-1.71-27.05-2.3-6.2-.4-12.38-1-18.61-1.27-4.82-.18-9.58-1.75-14.38-2.64-10.73-2-21.36-4.5-32.12-6.37-4-.69-7.92-1.72-11.91-2.48-.39-.07-1-.31-1.07-.53-.35-3-3.07-2.83-4.88-3.64q-34.54-15.48-69.15-30.8c-10.15-4.51-20.32-9-30.45-13.54-.8-.36-2.67-.32-1.47-2.27.38-.61-.58-.85-1-1.17q-14.52-10.72-29.06-21.43-13.65-10-27.37-19.94c-5.16-3.74-11.2-5.67-17-8-6.77-2.71-13.62-5.19-20.39-7.89a16.09,16.09,0,0,0-6.51-1.25c-17.31.44-34.63.81-51.94,1.22-12.15.29-24.3.49-36.45.93-21.56.78-43.13,1.15-64.69.8-11.07-.18-22.16-.61-33.22-.26-8.18.26-16.19-1.11-24.31-1.25a74.38,74.38,0,0,1-7.58-.78c-1.06-.13-2.7.41-2.09-1.85.16-.59-.93-.85-1.54-1.06-3.82-1.33-7.33-3.46-11.32-4.4a6.55,6.55,0,0,1-2.07-1.3c-.56-.41-.36-1.18.11-1.11,2.88.48,1.59-2.13,2.43-3.13.64-.75-.7-4.09,2.32-1.73.23.18.92-.23,1.4-.36,8.11-2.32,16.4-4.17,24.28-7.1,8.16-3,16.67-2.75,25-4,7.87-1.2,15.82-1.87,23.73-2.79s15.65-1.84,23.47-2.76c8.07-1,16.13-1.94,24.2-2.87,7.83-.9,15.66-1.73,23.49-2.64,8-.93,16-1.93,24-2.86,7.83-.91,15.66-1.73,23.49-2.64,8-.93,16-1.93,24-2.85,7-.81,14-1.56,21.32-2.37-2-2.52-4.6-4-6.86-5.82-9.32-7.48-18.76-14.81-28.15-22.2a5.57,5.57,0,0,0-3.12-1.32c-6.87-.57-13.76-1-20.57-2-4.35-.65-8.64-1.77-13-2.19-1.37-.13-1.57-.89-1.21-2.09,1.08-3.56,2.06-7.16,3.18-10.71a1.83,1.83,0,0,0-.94-2.58Q958,421.07,940,409.94a2.51,2.51,0,0,0-2.31-.22q-5.58,1.7-11.15,3.46c-.85.27-2.19.24-1.43,1.85a.57.57,0,0,1-.42.78c-.47.08-.76-.24-1-.62-.83-1.52-1.68-3-2.49-4.57a29.6,29.6,0,0,1-2.37-4.68c-2.27-7.14-8.22-10-14.27-13.13-11.77-6-23.39-12.27-35.05-18.47-1.1-.58-1.8-.71-2.78.29q-4.47,4.53-9.18,8.83a5.31,5.31,0,0,0-1.85,4.34c.06,20,0,40,0,60a43.35,43.35,0,0,1-.9,6.34c-.06.41-.15.91-.66.93s-.63-.38-.64-.85c-.18-5.48-2.6-10.39-4.16-15.49-8.5-27.68-17.16-55.31-25.79-82.95q-14.34-45.94-28.71-91.88-4.37-14-8.65-28c-.6-2-2.19-3.58-1.87-5.85.06-.45-.32-1,.31-1.27s1,.1,1,.69c.31,3.56,3.11,5,5.76,6.24,5.36,2.44,8.18,6.87,10.93,11.77,11.7,20.85,23.84,41.46,35.41,62.38,3.22,5.82,8.52,9.07,13.09,13.23,5.89,5.37,12.18,10.29,18.22,15.49a6.6,6.6,0,0,0,4,1.6q17.14,1.36,34.27,2.83c2,.17,5-3.14,4.83-5.36-.51-5.53-1.05-11.07-1.59-16.6a2.44,2.44,0,0,0-.17-1c-.94-1.58-.95-1.54,1-2a16.24,16.24,0,0,1,3.09-.81c.75,0,2.77-1.13,2,1.43-.09.32.79,1,1.29,1.41,5.24,4.48,10.78,8.66,15.63,13.53,3,3,6.28,3.21,9.88,3.32s7,.12,10.5.18c8.82.16,17.65.29,26.47.53a2.82,2.82,0,0,0,3.07-1.82c2.36-4.94,4.84-9.82,7.33-14.7a6.78,6.78,0,0,0,.75-3.11c.05-6,.64-12,.07-18-.72-7.45-.57-14.92-1.37-22.35-.05-.49.1-1.08-.38-1.38-2.55-1.62.47-2.16.78-3.11.22-.67,1.12.22,1,.92-.25,1.71.83,2.45,1.94,3.42q18.19,15.76,36.28,31.61c8.77,7.64,18,14.82,26.19,23,5.14,5.17,11.29,6.94,17.66,8.84,18.31,5.46,36.67,10.77,55,16.19,24.19,7.15,48.34,14.46,72.6,21.36,3.53,1,5.42,3.72,8.37,5.27,14.17,7.49,28.11,15.4,42.14,23.15q28.45,15.71,56.91,31.39l45.38,25,67.17,37q23,12.68,46,25.34,33.71,18.58,67.41,37.15c1.88,1,1.85,1.91.56,3.42-6.1,7.13-12.09,14.36-18.23,21.46-1,1.21-1,1.83.15,2.76,1.79,1.43,3.2,3.3,5.43,4.22.88.36.74,1.38.51,2.15a165.09,165.09,0,0,0-5.17,22.8,20.07,20.07,0,0,1-1,2.74c-.28.88-.27,3.17-2,.76-.46-.62-1.21.15-1.7.53q-12.14,9.33-24.26,18.69c-1.05.81-2.08,1.65-3.18,2.38-.72.48-1.57,1.86-2.16-.35-.25-.94-1.46-.07-2.17.16q-19.87,6.3-39.72,12.64l-18.64,6c-.67.21-1.59.9-1.95-.07s.85-1,1.45-1.23C1424.14,661.27,1425.85,661.2,1427.46,660ZM843.75,318.6c-.24-.14-.44-.52-.77-.23s0,.53.13.78c.08.92,1.46,1.5.7,2.66-.94-.3-1.08-1.22-1.47-1.91-14-24.43-28.12-48.76-41.75-73.38-3.13-5.65-7.85-8.55-13.46-11.95L853.89,448.8l.61-.12q0-1.06,0-2.12,0-22.25.06-44.49c0-4.75.23-9.52-.11-14.24a5.22,5.22,0,0,1,1.95-4.72c3.09-2.91,6-6,9.09-8.93.9-.86,1.43-1.54,0-2.82,2.5.27,3.89,1.64,5.51,2.49q20.7,10.85,41.36,21.79c2.06,1.09,4.09,1.83,5,4.7,1.18,3.71,3.65,7,5.37,10.54.8,1.64,1.6,1.8,3.25,1.22,4.26-1.49,8.6-2.76,12.92-4,.62-.18,2-.81,1.91.09-.14,1.32.74,1.29,1.27,1.62,3.28,2.07,6.62,4.05,9.93,6.08,8.38,5.13,16.74,10.29,25.16,15.36,1.42.85,1.88,1.51,1.26,3.23-1.23,3.39-2,6.94-3.15,10.37-.47,1.39,0,1.49,1.15,1.6,3.38.31,6.74.72,10.11,1.14,6.06.76,12.13,1.44,18.15,2.4,2.24.36,4.76-.37,6.7,1.14q17.46,13.62,34.8,27.39c1.91,1.52,4.11,2.8,5.83,5-2,.3-2.49-1.79-4.28-1.54-6.23.89-12.49,1.51-18.74,2.25-6.49.76-13,1.56-19.47,2.3s-12.83,1.42-19.24,2.16c-6.66.77-13.31,1.57-20,2.35-4.85.57-9.71,1.1-14.56,1.68-6.49.76-13,1.57-19.47,2.32s-12.83,1.4-19.25,2.15-13,1.6-19.46,2.35-12.83,1.39-19.25,2.14c-7.89.92-15.78,1.81-23.64,2.9-6.17.86-12.41.84-18.47,2.91-8.77,3-17.71,5.52-26.7,7.77-2.73.68-2.58,2.45-2.92,4.08s1.66,1.38,2.55,2A7.23,7.23,0,0,0,811,522c5,1.9,9.62,5,14.9,5.77a153.81,153.81,0,0,0,23,1.64c18,.06,36,.44,54,.46,24.74,0,49.46-.91,74.19-1.52,10.32-.25,20.66-.15,31-.69,8.49-.45,17-.06,25.47-.71,3.9-.3,7.9-.64,11.78.93,8.68,3.52,17.43,6.86,26.16,10.25.83.32,2.24,1,2.5.67,1.24-1.38,1.91-.19,2.68.36q12.86,9.34,25.69,18.71c12.78,9.33,25.59,18.61,38.29,28,3,2.2,5.54,4.87,9.05,6.42q43.82,19.33,87.57,38.81c7.59,3.37,15.17,6.84,23.31,8.66,9.46,2.12,19,4.12,28.5,5.88,5.17,1,10.26,2.4,15.57,2.74,4.22.27,8.43.7,12.65,1,7.53.57,15,1.26,22.57,1.88,4.8.39,9.6.72,14.4,1.12,7.36.61,14.71,1.27,22.07,1.88,4.88.4,9.77.72,14.65,1.12,7.36.61,14.71,1.26,22.07,1.88q8.91.75,17.83,1.45a8.58,8.58,0,0,0,3.42-.38q22.48-7.29,45-14.42a52.16,52.16,0,0,0,14.25-6.64c7.34-5.11,14.25-10.84,21.38-16.26a5.38,5.38,0,0,0,2-3.27c1.49-6.49,3-13,4.43-19.46.22-1,.55-2-.53-3-1.71-1.46-3.33-3-4.88-4.65-.89-.92-1.42-.73-2.13.16q-7.54,9.44-15.12,18.85-9,11.15-18,22.28c-.41.51-.62,1.2-1.69,1.12-3.3-.25-6.53.64-9.79,1-5.83.66-11.64,1.49-17.46,2.24s-11.49,1.44-17.23,2.19-11.63,1.54-17.44,2.31-11.61,1.76-17.46,2.22c-4.44.35-8.63,2-13.48-.41-6.4-3.23-13.57-5-20.48-7.1-7.47-2.31-14.65-5.54-22.41-7,.74-2,2.67-1,4-1.32q27.32-7,54.68-13.91c35-8.8,69.91-17.64,104.91-26.28,3.69-.91,7.13-2.92,11.11-2.73.74,0,1.06-.76,1.48-1.24,5.25-6.11,10.48-12.24,15.81-18.48-1-.58-1.89-1.14-2.81-1.64q-35.67-19.63-71.33-39.26t-71.05-39.25q-45-24.8-90-49.57-43.57-24-87.12-48c-3-1.65-6.45-2.47-8.91-5a7,7,0,0,0-3.17-2q-51.38-15.16-102.73-30.42c-10.31-3.05-20.54-6.43-31-8.87-3.6-.84-6-2.73-8.64-4.68a67,67,0,0,1-6-5.5c-5.3-4.92-10.87-9.55-16.34-14.29q-16.39-14.23-32.78-28.45c-3.79-3.28-7.6-6.54-11.38-9.79a1.49,1.49,0,0,0-.48,1.63c1.13,5.34.59,10.81,1.25,16.24,1,8.28.23,16.79-.32,25.19a1.53,1.53,0,0,1-.27.68,102,102,0,0,0-7.17,14c-1.25,2.8-2.89,3.55-5.81,3.32-12.63-1-25.32-.13-38-1-.71,0-1.91-.36-2.09.23-.56,1.91-1.27.57-1.76.16-5.45-4.63-10.86-9.3-16.29-14-2-1.68-3.94-3.33-5.88-5-.9-.79-1.89-.46-2.84-.34-.56.07-.67.56-.61,1.14.55,5.11.6,10.33,1.79,15.27a5.52,5.52,0,0,1-1.32,5.45,18,18,0,0,1-1.15,1.62c-1,1-1.22,4-3.68,1.51-.09-.09-.32,0-.49-.06-2.73-.18-5.47-.33-8.2-.56-5.12-.43-10.24-.94-15.36-1.35a72,72,0,0,0-10.19-.51c-1.54.1-2.66.07-3.79-.9Zm508.06,310.89c.37,1,1.35.88,2.08,1.13q17.5,5.92,35,11.78a8.33,8.33,0,0,0,4.51.59c4-.76,8-1.11,12-1.6,8.36-1,16.73-2,25.09-3.08s16.69-2.29,25-3.41c7.61-1,15.23-2,22.85-3a2.93,2.93,0,0,0,2.2-1.24q14.93-18.66,30-37.24a35.88,35.88,0,0,0,4.74-6.74c-3.56,1.87-6.58,3.52-9.64,5.06-18.09,9.14-36.22,18.22-54.27,27.44a23,23,0,0,1-10.39,2.67c-4.62.08-9.24.6-13.85,1q-11.74,1-23.49,1.9c-4.7.34-9.4.69-14.09,1.1-6.91.6-13.82,1.31-20.73,1.87-5.28.43-10.57.69-15.86,1C1352.47,628.82,1352,628.94,1351.81,629.49Z" transform="translate(-611.45 -37.86)"/><path class="cls-3" d="M843.75,318.6l25.73,22.07c1.13,1,2.25,1,3.79.9a72,72,0,0,1,10.19.51c5.12.41,10.24.92,15.36,1.35,2.73.23,5.47.37,8.2.56.17,0,.4,0,.49.06,2.47,2.53,2.69-.5,3.68-1.51a18,18,0,0,0,1.15-1.62,5.52,5.52,0,0,0,1.32-5.45c-1.19-4.95-1.24-10.17-1.79-15.27-.06-.58,0-1.07.61-1.14,1-.12,1.95-.44,2.84.34,1.94,1.7,3.92,3.35,5.88,5,5.43,4.65,10.84,9.33,16.29,14,.49.42,1.2,1.76,1.76-.16.17-.59,1.37-.28,2.09-.23,12.64.83,25.33,0,38,1,2.92.23,4.56-.51,5.81-3.32a102,102,0,0,1,7.17-14,1.53,1.53,0,0,0,.27-.68c.55-8.4,1.32-16.92.32-25.19-.66-5.43-.12-10.9-1.25-16.24a1.49,1.49,0,0,1,.48-1.63c3.78,3.25,7.59,6.5,11.38,9.79q16.4,14.22,32.78,28.45c5.46,4.74,11,9.37,16.34,14.29a67,67,0,0,0,6,5.5c2.67,1.94,5,3.84,8.64,4.68,10.45,2.44,20.69,5.81,31,8.87q51.36,15.22,102.73,30.42a7,7,0,0,1,3.17,2c2.46,2.51,5.94,3.32,8.91,5q43.49,24.14,87.12,48,45,24.78,90,49.57,35.54,19.6,71.05,39.25T1532.45,563c.92.51,1.81,1.06,2.81,1.64-5.33,6.24-10.55,12.37-15.81,18.48-.41.48-.74,1.28-1.48,1.24-4-.2-7.41,1.82-11.11,2.73-35,8.64-70,17.47-104.91,26.28q-27.36,6.89-54.68,13.91c-1.34.35-3.27-.7-4,1.32,7.75,1.49,14.94,4.73,22.41,7,6.91,2.14,14.09,3.87,20.48,7.1,4.86,2.45,9,.76,13.48.41,5.84-.46,11.64-1.45,17.46-2.22s11.63-1.56,17.44-2.31,11.48-1.45,17.23-2.19,11.63-1.58,17.46-2.24c3.26-.37,6.49-1.26,9.79-1,1.07.08,1.28-.61,1.69-1.12q9-11.12,18-22.28,7.57-9.41,15.12-18.85c.71-.89,1.24-1.08,2.13-.16,1.56,1.62,3.18,3.19,4.88,4.65,1.08.92.75,2,.53,3-1.44,6.5-2.94,13-4.43,19.46a5.38,5.38,0,0,1-2,3.27c-7.13,5.42-14,11.15-21.38,16.26a52.16,52.16,0,0,1-14.25,6.64q-22.55,7.09-45,14.42a8.58,8.58,0,0,1-3.42.38q-8.92-.7-17.83-1.45c-7.36-.62-14.71-1.27-22.07-1.88-4.88-.4-9.77-.72-14.65-1.12-7.36-.61-14.72-1.27-22.07-1.88-4.8-.4-9.6-.73-14.4-1.12-7.52-.62-15-1.31-22.57-1.88-4.22-.32-8.44-.75-12.65-1-5.31-.34-10.39-1.78-15.57-2.74-9.54-1.76-19-3.76-28.5-5.88-8.14-1.82-15.72-5.3-23.31-8.66q-43.78-19.41-87.57-38.81c-3.51-1.55-6.08-4.21-9.05-6.42-12.71-9.42-25.52-18.7-38.29-28q-12.83-9.37-25.69-18.71c-.76-.55-1.44-1.75-2.68-.36-.26.29-1.67-.35-2.5-.67-8.73-3.39-17.48-6.73-26.16-10.25-3.88-1.57-7.88-1.24-11.78-.93-8.49.65-17,.26-25.47.71-10.31.54-20.65.44-31,.69-24.73.61-49.45,1.55-74.19,1.52-18,0-36-.41-54-.46a153.81,153.81,0,0,1-23-1.64C820.61,527,816,523.93,811,522a7.23,7.23,0,0,1-1.81-.75c-.89-.67-2.92-.28-2.55-2s.19-3.4,2.92-4.08c9-2.25,17.93-4.78,26.7-7.77,6.06-2.06,12.31-2.05,18.47-2.91,7.86-1.09,15.76-2,23.64-2.9,6.41-.75,12.83-1.39,19.25-2.14s13-1.59,19.46-2.35,12.83-1.41,19.25-2.15,13-1.55,19.47-2.32c4.85-.57,9.71-1.11,14.56-1.68,6.66-.78,13.31-1.58,20-2.35,6.41-.74,12.83-1.42,19.24-2.16s13-1.54,19.47-2.3c6.25-.73,12.51-1.36,18.74-2.25,1.8-.26,2.33,1.84,4.28,1.54-1.72-2.16-3.92-3.43-5.83-5q-17.32-13.79-34.8-27.39c-1.93-1.51-4.46-.78-6.7-1.14-6-1-12.09-1.64-18.15-2.4-3.36-.42-6.73-.83-10.11-1.14-1.16-.11-1.62-.21-1.15-1.6,1.15-3.42,1.93-7,3.15-10.37.62-1.72.16-2.37-1.26-3.23-8.42-5.06-16.78-10.23-25.16-15.36-3.31-2-6.65-4-9.93-6.08-.53-.33-1.41-.3-1.27-1.62.1-.9-1.29-.28-1.91-.09-4.33,1.28-8.67,2.55-12.92,4-1.65.58-2.45.42-3.25-1.22-1.73-3.55-4.19-6.83-5.37-10.54-.91-2.87-2.94-3.62-5-4.7Q891.74,384.69,871,373.84c-1.62-.85-3-2.22-5.51-2.49,1.39,1.28.86,2,0,2.82-3.08,2.93-6,6-9.09,8.93a5.22,5.22,0,0,0-1.95,4.72c.35,4.72.12,9.49.11,14.24q0,22.25-.06,44.49,0,1.06,0,2.12l-.61.12L787.14,234.58c5.61,3.4,10.33,6.29,13.46,11.95,13.63,24.62,27.77,49,41.75,73.38.39.68.53,1.61,1.47,1.91.76-1.16-.62-1.74-.7-2.66Zm239.65,108.2-.5.5-.51.49-.48.52-.51.49c-.18.12-.46.21-.13.45a2.55,2.55,0,0,0,.29-.3l.5-.5.51-.49.49-.51.49-.51.49-.5.5-.5c.16-.11.44-.19.12-.43a2,2,0,0,0-.27.27l-.49.52Zm22.35,38.45.49-.46c.16-.21.59-.36.32-.7s-.48,0-.68.2l-.51.49-.51.49c-1.18-.17-1.74.48-2,1.52-.35.24-.52.52-.26.93l.66-.44,2-1.62Zm16.72-17.88-.5.5-.5.5c-.36.17-.68.38-.69.83,0,0,.13.13.19.12.49-.08.57-.45.59-.86l.5-.5.5-.5.23-.3Zm-12.42,13.09.51-.49.5-.5.49-.51.5-.5.5-.5.51-.49.5-.5.48-.52.49-.51.5-.5.49-.51.49-.51.51-.49.5-.5.51-.49.49-.51.5-.5.49-.52.49-.5c.36-.16.68-.37.68-.82,0,0-.13-.13-.19-.12-.49.09-.57.46-.56.87l-.51.48-.53.48-.51.49-.52.48-.47.53-.5.5-.47.53-.51.49-.51.49-.49.51-.51.49-.53.47-.5.51-.48.52-.51.49-.49.51-.52.48-.49.51-.49.52-.43.59a6,6,0,0,0-2.49,2.79c1.07-.73,3-.77,2.47-2.81Zm-23.51-37,.53-.47.5-.5.51-.49.52-.48.48-.52.5-.5.5-.5c.17-.11.46-.2.13-.44a2.68,2.68,0,0,0-.28.29l-.5.5-.5.5-.5.5-.48.51-.49.51-.49.51-.48.51-.5.49-.42.52.28.2.22-.64Zm8-8,.5-.51.48-.52.51-.5.5-.49.47-.53.52-.48c.15-.11.45-.16.14-.42l-.25.31-.45.55-.57.44-.48.51-.49.52-.52.48-.5.51c-.16.11-.45.19-.13.43A2.67,2.67,0,0,0,1094.56,415.48Zm4.53-5,.5-.51.5-.5.48-.52.52-.48.49-.51.51-.49c.18-.12.45-.21.13-.45a2.36,2.36,0,0,0-.29.29l-.49.51-.5.5-.49.51-.5.5-.5.5-.5.5-.2.34Zm-28.58,37.42c.44-.18.51-.57.52-1l.4-.56-.29-.19-.17.7c-.5.18-.48.6-.48,1l-.42.48.28.21Zm295.69,120c3.55.22,6.57-.87,8.2-4.09,1.45-2.87.83-5.87-1-8.45A15.7,15.7,0,0,0,1360,548.5c-3.26,0-6.21,1.25-7.78,4.43s-.55,5.81,1.29,8.37A15.48,15.48,0,0,0,1366.21,567.91Zm-50.14-71.51c-.56,5.59,4.94,10,10.12,10a9.11,9.11,0,0,0,9.28-9.31c0-5.62-4.43-9.79-10.33-9.74C1319.73,487.4,1316.06,491,1316.07,496.39Zm-32.81,3.54c5.28,0,8.6-3.28,8.71-8.38.12-5.31-4.29-9.3-9.73-9.54-4.6-.2-8.35,3.82-8.77,8.07C1273,494.93,1277.67,500.3,1283.25,499.93Zm-4.55,35c-4.8,0-8.22,3.4-8.17,8.08.06,5.44,4.45,8.72,9.24,8.81a8.2,8.2,0,0,0,8.21-8.26C1287.94,538.6,1283.94,534.88,1278.7,534.92Zm69.39-23c-6.82,0-9.75,4.14-7.25,8.82a12.11,12.11,0,0,0,11.23,6.56c5.52,0,8.2-5,5.26-9.53A12.19,12.19,0,0,0,1348.09,511.93ZM1303,528.33c5.26,0,8.48-3.47,8.49-9.11,0-4.36-3.11-7.38-7.58-7.36-4.75,0-8.38,3.91-8.34,8.93C1295.55,525.28,1298.58,528.34,1303,528.33Zm16.37,45.56a8.55,8.55,0,0,0,8.65-8.14,8.16,8.16,0,0,0-7.6-8.3c-4-.22-8.2,3.65-8.34,7.63C1311.85,570.27,1314.73,573.75,1319.33,573.89ZM1276.47,516a8.26,8.26,0,0,0-7.77-8.1c-4.79-.33-8.26,3-8.51,7.72-.22,4.09,3.85,8.24,8.11,8.14C1273.1,523.6,1275.94,520.47,1276.47,516Zm55.48,14a7,7,0,0,0-7.16,7,7.81,7.81,0,0,0,7.8,7.77,7.49,7.49,0,0,0,7.38-7.28A8,8,0,0,0,1331.94,529.93Zm-74-25.56c2.28.28,4.45-.15,5.32-2.35s-.07-4.14-1.68-5.89a15.19,15.19,0,0,0-10.76-5c-1.82-.09-3.91.33-4.93,2.3s-.27,3.82.94,5.33A14.31,14.31,0,0,0,1257.95,504.37Zm12.37,115.54c4.09,0,4.66-.9,3.25-3.69-1.7-3.36-9.65-7.15-13.28-6.28-1.38.33-2.1,1.19-1.14,2.52A17.52,17.52,0,0,0,1270.31,619.91ZM1065.77,457.19a2.52,2.52,0,0,0-.18.41s.1.11.16.16a2.3,2.3,0,0,0,.17-.39S1065.83,457.25,1065.77,457.19Zm-2.51,5.38c-.06,0-.18.1-.18.14a2.39,2.39,0,0,0,.13.41c.06,0,.18-.1.18-.14A2.31,2.31,0,0,0,1063.26,462.57Zm-.85,2.39-.16-.37c-.06.05-.17.12-.16.16a2.35,2.35,0,0,0,.16.39Zm12-24.87-.17-.38c-.06.05-.17.12-.16.16a2.42,2.42,0,0,0,.17.4Zm-2.16,4c-.06,0-.18.11-.18.14a2.4,2.4,0,0,0,.13.41c.06,0,.18-.11.18-.14A2.35,2.35,0,0,0,1072.26,444.06Zm-7,14.75s.12-.09.12-.14-.07-.1-.1-.16-.12.09-.13.13S1065.2,458.75,1065.24,458.81Zm-.37.85-.11-.16s-.12.09-.13.14.07.1.1.15Zm7.76-16.5.15.11,0-.19Zm8.75-.49-.11-.16s-.13.09-.13.14.07.11.1.16Zm-17.62,18.86s-.12.09-.13.14.07.1.1.16.12-.09.13-.14S1063.8,461.57,1063.76,461.52Zm9.48-19.2c0-.05.12-.1.13-.15s-.07-.11-.11-.16-.13.09-.13.14S1073.2,442.26,1073.24,442.32Zm8.63-.66-.11-.16s-.13.09-.13.13.06.1.1.16Zm-8-.51-.1-.14s-.12.08-.13.13.06.1.1.15Zm8.5-.49-.15-.11,0,.19Zm.51-1-.12-.16s-.13.09-.13.14.07.11.11.16Zm.5-1-.11-.16s-.13.09-.14.14.07.11.11.16Zm.49-1-.11-.15s-.13.09-.13.14.07.1.11.16Zm.5-1-.11-.15s-.12.08-.13.13.07.1.1.15Zm.5-1-.15-.11,0,.19Zm-20.61,24.83s-.12.09-.13.14.07.11.11.16.13-.09.13-.14S1064.3,460.56,1064.26,460.51Z" transform="translate(-611.45 -37.86)"/><path class="cls-4" d="M1351.81,629.49c.22-.55.66-.67,1.2-.7,5.29-.33,10.58-.59,15.86-1,6.92-.56,13.82-1.27,20.73-1.87,4.69-.41,9.39-.77,14.09-1.1q11.76-.84,23.49-1.9c4.61-.41,9.24-.93,13.85-1a23,23,0,0,0,10.39-2.67c18-9.22,36.18-18.3,54.27-27.44,3.06-1.55,6.08-3.19,9.64-5.06a35.88,35.88,0,0,1-4.74,6.74q-15,18.63-30,37.24a2.93,2.93,0,0,1-2.2,1.24c-7.62.93-15.24,1.94-22.85,3-8.35,1.12-16.68,2.33-25,3.41s-16.73,2.05-25.09,3.08c-4,.49-8.07.84-12,1.6a8.33,8.33,0,0,1-4.51-.59q-17.51-5.88-35-11.78C1353.16,630.37,1352.18,630.46,1351.81,629.49Z" transform="translate(-611.45 -37.86)"/><path class="cls-3" d="M843.12,319.15c-.14-.24-.46-.49-.13-.78s.53.09.77.23Z" transform="translate(-611.45 -37.86)"/><path class="cls-5" d="M1366.21,567.91a15.48,15.48,0,0,1-12.69-6.61c-1.85-2.56-2.8-5.32-1.29-8.37s4.52-4.43,7.78-4.43a15.7,15.7,0,0,1,13.39,6.87c1.84,2.58,2.46,5.58,1,8.45C1372.78,567,1369.76,568.13,1366.21,567.91Z" transform="translate(-611.45 -37.86)"/><path class="cls-6" d="M1316.07,496.39c0-5.35,3.66-9,9.07-9,5.91,0,10.32,4.12,10.33,9.74a9.11,9.11,0,0,1-9.28,9.31C1321,506.44,1315.5,502,1316.07,496.39Z" transform="translate(-611.45 -37.86)"/><path class="cls-5" d="M1283.25,499.93c-5.59.37-10.25-5-9.78-9.85.41-4.25,4.17-8.27,8.77-8.07,5.44.24,9.85,4.23,9.73,9.54C1291.85,496.65,1288.53,499.94,1283.25,499.93Z" transform="translate(-611.45 -37.86)"/><path class="cls-5" d="M1278.7,534.92c5.24,0,9.25,3.68,9.28,8.63a8.2,8.2,0,0,1-8.21,8.26c-4.79-.1-9.18-3.38-9.24-8.81C1270.48,538.32,1273.9,535,1278.7,534.92Z" transform="translate(-611.45 -37.86)"/><path class="cls-5" d="M1348.09,511.93a12.19,12.19,0,0,1,9.24,5.85c2.95,4.57.27,9.55-5.26,9.53a12.11,12.11,0,0,1-11.23-6.56C1338.34,516.07,1341.28,511.93,1348.09,511.93Z" transform="translate(-611.45 -37.86)"/><path class="cls-5" d="M1303,528.33c-4.38,0-7.4-3.06-7.43-7.53,0-5,3.59-8.91,8.34-8.93,4.47,0,7.58,3,7.58,7.36C1311.44,524.86,1308.21,528.33,1303,528.33Z" transform="translate(-611.45 -37.86)"/><path class="cls-5" d="M1319.33,573.89c-4.6-.14-7.48-3.62-7.29-8.82.14-4,4.38-7.85,8.34-7.63a8.16,8.16,0,0,1,7.6,8.3A8.55,8.55,0,0,1,1319.33,573.89Z" transform="translate(-611.45 -37.86)"/><path class="cls-7" d="M1276.47,516c-.53,4.5-3.37,7.63-8.17,7.75-4.27.1-8.33-4-8.11-8.14.25-4.69,3.72-8,8.51-7.72A8.26,8.26,0,0,1,1276.47,516Z" transform="translate(-611.45 -37.86)"/><path class="cls-7" d="M1331.94,529.93a8,8,0,0,1,8,7.53,7.49,7.49,0,0,1-7.38,7.28,7.81,7.81,0,0,1-7.8-7.77A7,7,0,0,1,1331.94,529.93Z" transform="translate(-611.45 -37.86)"/><path class="cls-8" d="M1257.95,504.37a14.31,14.31,0,0,1-11.11-5.61c-1.21-1.51-2-3.37-.94-5.33s3.12-2.39,4.93-2.3a15.19,15.19,0,0,1,10.76,5c1.6,1.74,2.53,3.74,1.68,5.89S1260.23,504.65,1257.95,504.37Z" transform="translate(-611.45 -37.86)"/><path class="cls-9" d="M1270.31,619.91a17.52,17.52,0,0,1-11.17-7.44c-1-1.34-.24-2.19,1.14-2.52,3.63-.87,11.58,2.91,13.28,6.28C1275,619,1274.4,619.91,1270.31,619.91Zm-.42-4.06c-.1-1.93-2.4-3.45-4.82-3.34-1.13.05-2,.35-1.89,1.67.13,1.62,2.8,3.68,4.75,3.56C1269,617.68,1270.08,617.25,1269.9,615.85Z" transform="translate(-611.45 -37.86)"/><path class="cls-10" d="M1109.47,460.91c.51,2-1.39,2.08-2.47,2.81a6,6,0,0,1,2.49-2.79Z" transform="translate(-611.45 -37.86)"/><path class="cls-10" d="M1105.29,465.67l-2,1.61-.41-.49c.26-1,.82-1.69,2-1.52Z" transform="translate(-611.45 -37.86)"/><path class="cls-11" d="M1119.45,450.87c0-.41.08-.78.57-.87.06,0,.19.08.19.12,0,.45-.32.66-.68.82Z" transform="translate(-611.45 -37.86)"/><path class="cls-11" d="M1121.56,448.47c0,.41-.11.78-.59.85-.06,0-.19-.08-.19-.12,0-.45.33-.66.69-.83Z" transform="translate(-611.45 -37.86)"/><path class="cls-11" d="M1071,446.88l.17-.7.29.19-.4.56Z" transform="translate(-611.45 -37.86)"/><path class="cls-11" d="M1071,446.94c0,.42-.07.8-.52,1l0,0c0-.42,0-.84.48-1Z" transform="translate(-611.45 -37.86)"/><path class="cls-11" d="M1070.51,447.92l-.17.66-.28-.21.42-.48Z" transform="translate(-611.45 -37.86)"/><path class="cls-11" d="M1065.77,457.19c.06.06.16.13.15.18a2.3,2.3,0,0,1-.17.39c-.06-.05-.17-.12-.16-.16A2.52,2.52,0,0,1,1065.77,457.19Z" transform="translate(-611.45 -37.86)"/><path class="cls-11" d="M1063.26,462.57a2.36,2.36,0,0,1,.13.41s-.11.09-.18.14a2.39,2.39,0,0,1-.13-.41S1063.2,462.61,1063.26,462.57Z" transform="translate(-611.45 -37.86)"/><path class="cls-11" d="M1086.06,424l-.23.63-.28-.2.42-.52Z" transform="translate(-611.45 -37.86)"/><path class="cls-11" d="M1062.41,465l-.16.17a2.35,2.35,0,0,1-.16-.39s.1-.1.16-.16Z" transform="translate(-611.45 -37.86)"/><path class="cls-10" d="M1103.28,467.28l-.66.44c-.27-.41-.09-.69.26-.93Z" transform="translate(-611.45 -37.86)"/><path class="cls-11" d="M1074.43,440.08l-.17.18a2.42,2.42,0,0,1-.17-.4s.11-.11.16-.16Z" transform="translate(-611.45 -37.86)"/><path class="cls-11" d="M1072.26,444.06a2.39,2.39,0,0,1,.13.41s-.12.09-.18.14a2.4,2.4,0,0,1-.13-.41S1072.2,444.11,1072.26,444.06Z" transform="translate(-611.45 -37.86)"/><path class="cls-11" d="M1101.93,407.34a2.48,2.48,0,0,1,.29-.29c.33.24.05.33-.13.45Z" transform="translate(-611.45 -37.86)"/><path class="cls-11" d="M1101.44,407.85l.49-.51.16.16-.51.49Z" transform="translate(-611.45 -37.86)"/><path class="cls-11" d="M1100.94,408.35l.5-.5.14.14-.49.51Z" transform="translate(-611.45 -37.86)"/><path class="cls-11" d="M1101.09,408.5l-.52.48-.12-.12.49-.51Z" transform="translate(-611.45 -37.86)"/><path class="cls-11" d="M1099.95,409.36l.5-.5.12.12-.48.52Z" transform="translate(-611.45 -37.86)"/><path class="cls-11" d="M1099.45,409.87l.5-.5.14.14-.5.5Z" transform="translate(-611.45 -37.86)"/><path class="cls-11" d="M1099,410.37l.5-.5.14.13-.5.51Z" transform="translate(-611.45 -37.86)"/><path class="cls-11" d="M1099.09,410.51l-.33.2.2-.34Z" transform="translate(-611.45 -37.86)"/><path class="cls-11" d="M1097.42,412.34l.25-.31c.31.26,0,.32-.14.42Z" transform="translate(-611.45 -37.86)"/><path class="cls-11" d="M1097.53,412.45l-.52.48,0,0,.45-.55Z" transform="translate(-611.45 -37.86)"/><path class="cls-11" d="M1097,412.93l-.47.53-.14-.14.57-.44Z" transform="translate(-611.45 -37.86)"/><path class="cls-11" d="M1096.05,414l-.51.5-.11-.11.49-.51Z" transform="translate(-611.45 -37.86)"/><path class="cls-11" d="M1095.54,414.46l-.48.52-.15-.15.52-.48Z" transform="translate(-611.45 -37.86)"/><path class="cls-11" d="M1095.06,415l-.5.51-.15-.15.5-.51Z" transform="translate(-611.45 -37.86)"/><path class="cls-11" d="M1094.56,415.48a2.67,2.67,0,0,1-.28.28c-.32-.24,0-.32.13-.43Z" transform="translate(-611.45 -37.86)"/><path class="cls-11" d="M1089.93,419.85a2.83,2.83,0,0,1,.28-.29c.33.24,0,.33-.13.44Z" transform="translate(-611.45 -37.86)"/><path class="cls-11" d="M1089.43,420.34l.5-.5.15.15-.5.5Z" transform="translate(-611.45 -37.86)"/><path class="cls-11" d="M1088.93,420.84l.5-.5.16.15-.5.5Z" transform="translate(-611.45 -37.86)"/><path class="cls-11" d="M1088.43,421.34l.5-.5.16.15-.48.52Z" transform="translate(-611.45 -37.86)"/><path class="cls-11" d="M1087.94,421.86l.49-.51.17.17-.52.48Z" transform="translate(-611.45 -37.86)"/><path class="cls-11" d="M1087.45,422.36l.49-.5.14.14-.51.49Z" transform="translate(-611.45 -37.86)"/><path class="cls-11" d="M1087.58,422.49l-.5.5-.11-.11.49-.51Z" transform="translate(-611.45 -37.86)"/><path class="cls-11" d="M1086.47,423.39l.48-.51.11.11-.53.47Z" transform="translate(-611.45 -37.86)"/><path class="cls-11" d="M1086.54,423.46l-.48.51-.09-.09.5-.49Z" transform="translate(-611.45 -37.86)"/><path class="cls-11" d="M1084.4,425.81a2.23,2.23,0,0,1,.28-.27c.31.23,0,.31-.12.43Z" transform="translate(-611.45 -37.86)"/><path class="cls-11" d="M1084.55,426l-.5.5-.14-.14.49-.52Z" transform="translate(-611.45 -37.86)"/><path class="cls-11" d="M1118.42,451.83l.53-.48.08.08-.49.52Z" transform="translate(-611.45 -37.86)"/><path class="cls-11" d="M1117.91,452.32l.51-.49.12.12-.5.5Z" transform="translate(-611.45 -37.86)"/><path class="cls-11" d="M1118,452.45l-.49.51-.16-.16.53-.47Z" transform="translate(-611.45 -37.86)"/><path class="cls-11" d="M1116.91,453.33l.48-.53.16.16-.51.49Z" transform="translate(-611.45 -37.86)"/><path class="cls-11" d="M1116.41,453.83l.5-.5.13.13-.5.5Z" transform="translate(-611.45 -37.86)"/><path class="cls-11" d="M1116.54,454l-.51.49-.1-.1.48-.52Z" transform="translate(-611.45 -37.86)"/><path class="cls-11" d="M1115.43,454.84l.51-.49.09.09-.49.51Z" transform="translate(-611.45 -37.86)"/><path class="cls-11" d="M1114.92,455.33l.51-.49.11.11-.49.51Z" transform="translate(-611.45 -37.86)"/><path class="cls-11" d="M1114.43,455.84l.49-.51.13.13-.5.5Z" transform="translate(-611.45 -37.86)"/><path class="cls-11" d="M1114.54,456l-.49.51-.13-.13.51-.49Z" transform="translate(-611.45 -37.86)"/><path class="cls-11" d="M1114,456.46l-.48.52-.18-.18.53-.47Z" transform="translate(-611.45 -37.86)"/><path class="cls-11" d="M1122.06,448l-.5.5-.09-.09.5-.5Z" transform="translate(-611.45 -37.86)"/><path class="cls-11" d="M1113.57,457l-.5.5-.17-.17.5-.51Z" transform="translate(-611.45 -37.86)"/><path class="cls-11" d="M1112.42,457.83l.48-.52.17.17-.51.49Z" transform="translate(-611.45 -37.86)"/><path class="cls-11" d="M1111.91,458.32l.51-.49.13.14-.5.5Z" transform="translate(-611.45 -37.86)"/><path class="cls-11" d="M1065.24,458.81c0-.06-.11-.12-.11-.16s.08-.09.13-.13.11.11.1.16S1065.29,458.76,1065.24,458.81Z" transform="translate(-611.45 -37.86)"/><path class="cls-11" d="M1112.06,458.47l-.5.5-.14-.14.49-.51Z" transform="translate(-611.45 -37.86)"/><path class="cls-11" d="M1110.9,459.31l.52-.48.13.14-.49.51Z" transform="translate(-611.45 -37.86)"/><path class="cls-11" d="M1064.88,459.66l-.14.13c0-.05-.11-.11-.1-.15s.08-.09.13-.14Z" transform="translate(-611.45 -37.86)"/><path class="cls-11" d="M1111.07,459.48l-.5.5-.15-.15.49-.51Z" transform="translate(-611.45 -37.86)"/><path class="cls-11" d="M1110.56,460l-.51.49-.13-.13.49-.51Z" transform="translate(-611.45 -37.86)"/><polygon class="cls-11" points="461.18 405.29 461.35 405.21 461.33 405.4 461.18 405.29"/><path class="cls-11" d="M1110.06,460.47l-.58.44,0,0,.43-.6Z" transform="translate(-611.45 -37.86)"/><path class="cls-11" d="M1081.38,442.66l-.14.13c0-.05-.11-.11-.1-.16s.09-.09.13-.14Z" transform="translate(-611.45 -37.86)"/><path class="cls-11" d="M1063.76,461.52c0,.05.11.11.1.16s-.08.09-.13.14-.11-.11-.1-.16S1063.71,461.57,1063.76,461.52Z" transform="translate(-611.45 -37.86)"/><path class="cls-11" d="M1122.56,447.47l-.5.5-.08-.08.5-.5Z" transform="translate(-611.45 -37.86)"/><path class="cls-10" d="M1105.89,464.3c.2-.19.39-.56.68-.2s-.16.48-.32.7Z" transform="translate(-611.45 -37.86)"/><path class="cls-11" d="M1122.47,447.38l.31-.21-.23.3Z" transform="translate(-611.45 -37.86)"/><path class="cls-10" d="M1106.24,464.8l-.49.46-.37-.47.51-.49Z" transform="translate(-611.45 -37.86)"/><path class="cls-11" d="M1073.24,442.32c0-.06-.12-.12-.11-.17s.09-.09.13-.14.11.11.11.16S1073.29,442.27,1073.24,442.32Z" transform="translate(-611.45 -37.86)"/><path class="cls-10" d="M1104.87,465.28l.51-.49.37.47-.46.41Z" transform="translate(-611.45 -37.86)"/><path class="cls-11" d="M1119.52,450.93l-.49.5-.08-.08.5-.49Z" transform="translate(-611.45 -37.86)"/><path class="cls-11" d="M1081.88,441.67l-.14.13c0-.05-.11-.11-.1-.16s.08-.09.13-.13Z" transform="translate(-611.45 -37.86)"/><path class="cls-11" d="M1073.87,441.16l-.13.14c0-.05-.1-.11-.1-.15s.08-.09.13-.13Z" transform="translate(-611.45 -37.86)"/><path class="cls-11" d="M1096.55,413.46l-.5.49-.13-.13.48-.51Z" transform="translate(-611.45 -37.86)"/><polygon class="cls-11" points="470.92 402.8 470.75 402.88 470.76 402.69 470.92 402.8"/><path class="cls-11" d="M1082.88,439.67l-.14.14c0-.05-.11-.11-.11-.16s.09-.09.13-.14Z" transform="translate(-611.45 -37.86)"/><path class="cls-11" d="M1083.38,438.66l-.14.15c0-.05-.11-.11-.11-.16s.09-.1.14-.14Z" transform="translate(-611.45 -37.86)"/><path class="cls-11" d="M1083.87,437.67l-.13.14c0-.05-.11-.11-.11-.16s.08-.09.13-.14Z" transform="translate(-611.45 -37.86)"/><path class="cls-11" d="M1084.38,436.67l-.14.13c0-.05-.11-.11-.1-.15s.08-.09.13-.13Z" transform="translate(-611.45 -37.86)"/><polygon class="cls-11" points="473.42 397.81 473.24 397.89 473.26 397.7 473.42 397.81"/><path class="cls-11" d="M1081.57,429a2.69,2.69,0,0,1-.29.29c-.33-.25,0-.34.13-.45Z" transform="translate(-611.45 -37.86)"/><path class="cls-11" d="M1082.07,428.47l-.5.5-.16-.16.5-.5Z" transform="translate(-611.45 -37.86)"/><path class="cls-11" d="M1081.92,428.32l.48-.52.18.18-.51.49Z" transform="translate(-611.45 -37.86)"/><path class="cls-11" d="M1082.39,427.8l.51-.49.16.16-.49.51Z" transform="translate(-611.45 -37.86)"/><path class="cls-11" d="M1082.91,427.31l.5-.5.16.16-.49.51Z" transform="translate(-611.45 -37.86)"/><path class="cls-11" d="M1083.4,426.81l.51-.48.14.14-.49.5Z" transform="translate(-611.45 -37.86)"/><path class="cls-11" d="M1064.26,460.51c0,.05.11.11.11.16s-.08.09-.13.14-.11-.11-.11-.16S1064.21,460.55,1064.26,460.51Z" transform="translate(-611.45 -37.86)"/><path class="cls-12" d="M1269.9,615.85c.19,1.4-.87,1.83-2,1.89-2,.11-4.62-1.95-4.75-3.56-.11-1.32.76-1.61,1.89-1.67C1267.5,612.39,1269.79,613.91,1269.9,615.85Z" transform="translate(-611.45 -37.86)"/></svg>