<svg id="Ebene_1" data-name="Ebene 1" xmlns="http://www.w3.org/2000/svg" viewBox="0 0 751.76 434.91"><defs><style>.cls-1{fill:#101111;}.cls-2{fill:#a3d9ee;}.cls-3{fill:#fca1a0;}.cls-4{fill:#3372a8;}.cls-5{fill:#3271a8;}.cls-6{fill:#3472a8;}.cls-7{fill:#3573a8;}.cls-8{fill:#e1e3dd;}.cls-9{fill:#57666d;}.cls-10{fill:#7f9ba6;}.cls-11{fill:#191919;}</style></defs><title>whale_shark</title><path class="cls-1" d="M816,622.14c-4.36-.92-8.49-.9-12.57-1.27-11.74-1.08-23.5-2-35.25-2.93-9.44-.75-18.89-1.4-28.33-2.16-9-.73-18-1.71-27.05-2.3-6.2-.4-12.38-1-18.61-1.27-4.82-.18-9.58-1.75-14.38-2.64-10.73-2-21.36-4.5-32.12-6.37-4-.69-7.92-1.72-11.91-2.48-.39-.07-1-.31-1.07-.53-.35-3-3.07-2.83-4.88-3.64q-34.54-15.48-69.15-30.8-15.23-6.77-30.45-13.54c-.8-.36-2.67-.32-1.47-2.27.38-.61-.58-.85-1-1.17l-29.06-21.43q-13.65-10-27.37-19.94c-5.16-3.74-11.2-5.67-17-8-6.77-2.71-13.62-5.19-20.39-7.89a16.09,16.09,0,0,0-6.51-1.25c-17.31.44-34.63.81-51.94,1.22-12.15.29-24.3.49-36.45.93-21.56.78-43.13,1.15-64.69.8-11.07-.18-22.16-.61-33.22-.26-8.18.26-16.19-1.11-24.31-1.25a74.38,74.38,0,0,1-7.58-.78c-1.06-.13-2.7.41-2.09-1.85.16-.59-.93-.85-1.54-1.06-3.82-1.33-7.33-3.46-11.32-4.4a6.55,6.55,0,0,1-2.07-1.3c-.56-.41-.36-1.18.11-1.11,2.88.48,1.59-2.13,2.43-3.13.64-.75-.7-4.09,2.32-1.73.23.18.92-.23,1.4-.36,8.11-2.32,16.4-4.17,24.28-7.1,8.16-3,16.67-2.75,25-4,7.87-1.2,15.82-1.87,23.73-2.79s15.65-1.84,23.47-2.76c8.07-1,16.13-1.94,24.2-2.87,7.83-.9,15.66-1.73,23.49-2.64,8-.93,16-1.93,24-2.86,7.83-.91,15.66-1.73,23.49-2.64,8-.93,16-1.93,24-2.85,7-.81,14-1.56,21.32-2.37-2-2.52-4.6-4-6.86-5.82-9.32-7.48-18.76-14.81-28.15-22.2a5.57,5.57,0,0,0-3.12-1.32c-6.87-.57-13.76-1-20.57-2-4.35-.65-8.64-1.77-13-2.19-1.37-.13-1.57-.89-1.21-2.09,1.08-3.56,2.06-7.16,3.18-10.71a1.83,1.83,0,0,0-.73-2.48l-.21-.1q-18.25-11-36.25-22.11a2.51,2.51,0,0,0-2.31-.22q-5.58,1.7-11.15,3.46c-.85.27-2.19.24-1.43,1.85a.57.57,0,0,1-.31.75l-.11,0c-.47.08-.76-.24-1-.62-.83-1.52-1.68-3-2.49-4.57a29.6,29.6,0,0,1-2.37-4.68c-2.27-7.14-8.22-10-14.27-13.13-11.77-6-23.39-12.27-35-18.47-1.1-.58-1.8-.71-2.78.29q-4.47,4.53-9.18,8.83a5.31,5.31,0,0,0-1.85,4.34c.06,20,0,40,0,60a43.36,43.36,0,0,1-.9,6.34c-.06.41-.15.91-.66.93s-.63-.38-.64-.85c-.18-5.48-2.6-10.39-4.16-15.49-8.5-27.68-17.16-55.31-25.79-83Q197.76,272,183.39,226q-4.37-14-8.65-28c-.6-2-2.19-3.58-1.87-5.85.06-.45-.32-1,.31-1.27s1,.1,1,.69c.31,3.56,3.11,5,5.76,6.24,5.36,2.44,8.18,6.87,10.93,11.77,11.7,20.85,23.84,41.46,35.41,62.38,3.22,5.82,8.52,9.07,13.09,13.23,5.89,5.37,12.18,10.29,18.22,15.49a6.6,6.6,0,0,0,4,1.6q17.14,1.36,34.27,2.83c2,.17,5-3.14,4.83-5.36q-.77-8.29-1.59-16.6a2.44,2.44,0,0,0-.17-1c-.94-1.58-1-1.54,1-2a16.24,16.24,0,0,1,3.09-.81c.75,0,2.77-1.13,2,1.43-.09.32.79,1,1.29,1.41,5.24,4.48,10.78,8.66,15.63,13.53,3,3,6.28,3.21,9.88,3.32s7,.12,10.5.18c8.82.16,17.65.29,26.47.53a2.82,2.82,0,0,0,3.07-1.82c2.36-4.94,4.84-9.82,7.33-14.7a6.78,6.78,0,0,0,.75-3.11c0-6,.64-12,.07-18-.72-7.45-.57-14.92-1.37-22.35,0-.49.1-1.08-.38-1.38-2.55-1.62.47-2.16.78-3.11.22-.67,1.12.22,1,.92-.25,1.71.83,2.45,1.94,3.42q18.19,15.76,36.28,31.61c8.77,7.64,18,14.82,26.19,23,5.14,5.17,11.29,6.94,17.66,8.84,18.31,5.46,36.67,10.77,55,16.19,24.19,7.15,48.34,14.46,72.6,21.36,3.53,1,5.42,3.72,8.37,5.27,14.17,7.49,28.11,15.4,42.14,23.15q28.45,15.71,56.91,31.39l45.38,25,67.17,37,46,25.34L923.09,525c1.88,1,1.85,1.91.56,3.42-6.1,7.13-12.09,14.36-18.23,21.46-1,1.21-1,1.83.15,2.76,1.79,1.43,3.2,3.3,5.43,4.22.88.36.74,1.38.51,2.15a165.08,165.08,0,0,0-5.17,22.8,20.08,20.08,0,0,1-1,2.74c-.28.88-.27,3.17-2,.76-.46-.62-1.21.15-1.7.53q-12.14,9.33-24.26,18.69c-1.05.81-2.08,1.65-3.18,2.38-.72.48-1.57,1.86-2.16-.35-.25-.94-1.46-.07-2.17.16Q850,613,830.15,619.31l-18.64,6c-.67.21-1.59.9-1.95-.07s.85-1,1.45-1.23C812.69,623.41,814.4,623.34,816,622.14ZM232.3,280.74c-.24-.14-.44-.52-.77-.23s0,.53.13.78c.08.92,1.46,1.5.7,2.66-.94-.3-1.08-1.22-1.47-1.91-14-24.43-28.12-48.76-41.75-73.38-3.13-5.65-7.85-8.55-13.46-11.95l66.76,214.23.61-.12V408.7q0-22.25.06-44.49c0-4.75.23-9.52-.11-14.24a5.22,5.22,0,0,1,2-4.72c3.09-2.91,6-6,9.09-8.93.9-.86,1.43-1.54,0-2.82,2.5.27,3.89,1.64,5.51,2.49q20.7,10.85,41.36,21.79c2.06,1.09,4.09,1.83,5,4.7,1.18,3.71,3.65,7,5.37,10.54.8,1.64,1.6,1.8,3.25,1.22,4.26-1.49,8.6-2.76,12.92-4,.62-.18,2-.81,1.91.09-.14,1.32.74,1.29,1.27,1.62,3.28,2.07,6.62,4,9.93,6.08,8.38,5.13,16.74,10.29,25.16,15.36,1.42.85,1.88,1.51,1.26,3.23-1.23,3.39-2,6.94-3.15,10.37-.47,1.39,0,1.49,1.15,1.6,3.38.31,6.74.72,10.11,1.14,6.06.76,12.13,1.44,18.15,2.4,2.24.36,4.76-.37,6.7,1.14q17.46,13.62,34.8,27.39c1.91,1.52,4.11,2.8,5.83,5-2,.3-2.49-1.79-4.28-1.54-6.23.89-12.49,1.51-18.74,2.25-6.49.76-13,1.56-19.47,2.3s-12.83,1.42-19.24,2.16c-6.66.77-13.31,1.57-20,2.35-4.85.57-9.71,1.1-14.56,1.68-6.49.76-13,1.57-19.47,2.32s-12.83,1.4-19.25,2.15-13,1.6-19.46,2.35-12.83,1.39-19.25,2.14c-7.89.92-15.78,1.81-23.64,2.9-6.17.86-12.41.84-18.47,2.91-8.77,3-17.71,5.52-26.7,7.77-2.73.68-2.58,2.45-2.92,4.08s1.66,1.38,2.55,2a7.23,7.23,0,0,0,1.88.66c5,1.9,9.62,5,14.9,5.77a153.81,153.81,0,0,0,23,1.64c18,.06,36,.44,54,.46,24.74,0,49.46-.91,74.19-1.52,10.32-.25,20.66-.15,31-.69,8.49-.45,17-.06,25.47-.71,3.9-.3,7.9-.64,11.78.93,8.68,3.52,17.43,6.86,26.16,10.25.83.32,2.24,1,2.5.67,1.24-1.38,1.91-.19,2.68.36q12.86,9.34,25.69,18.71c12.78,9.33,25.59,18.61,38.29,28,3,2.2,5.54,4.87,9.05,6.42q43.82,19.33,87.57,38.81c7.59,3.37,15.17,6.84,23.31,8.66,9.46,2.12,19,4.12,28.5,5.88,5.17,1,10.26,2.4,15.57,2.74,4.22.27,8.43.7,12.65,1,7.53.57,15,1.26,22.57,1.88,4.8.39,9.6.72,14.4,1.12,7.36.61,14.71,1.27,22.07,1.88,4.88.4,9.77.72,14.65,1.12,7.36.61,14.71,1.26,22.07,1.88q8.91.75,17.83,1.45a8.58,8.58,0,0,0,3.42-.38q22.48-7.29,45-14.42a52.16,52.16,0,0,0,14.25-6.64c7.34-5.11,14.25-10.84,21.38-16.26a5.38,5.38,0,0,0,2-3.27c1.49-6.49,3-13,4.43-19.46.22-1,.55-2-.53-3a61.15,61.15,0,0,1-4.88-4.65c-.89-.92-1.42-.73-2.13.16q-7.54,9.44-15.12,18.85l-18,22.28c-.41.51-.62,1.2-1.69,1.12-3.3-.25-6.53.64-9.79,1-5.83.66-11.64,1.49-17.46,2.24s-11.49,1.44-17.23,2.19-11.63,1.54-17.44,2.31-11.61,1.76-17.46,2.22c-4.44.35-8.63,2-13.48-.41-6.4-3.23-13.57-5-20.48-7.1-7.47-2.31-14.65-5.54-22.41-7,.74-2,2.67-1,4-1.32q27.32-7,54.68-13.91c35-8.8,69.91-17.64,104.91-26.28,3.69-.91,7.13-2.92,11.11-2.73.74,0,1.06-.76,1.48-1.24,5.25-6.11,10.48-12.24,15.81-18.48-1-.58-1.89-1.14-2.81-1.64l-71.33-39.26Q814,466.14,778.63,446.52l-90-49.57-87.12-48c-3-1.65-6.45-2.47-8.91-5a7,7,0,0,0-3.17-2q-51.38-15.16-102.73-30.42c-10.31-3-20.54-6.43-31-8.87-3.6-.84-6-2.73-8.64-4.68a67,67,0,0,1-6-5.5c-5.3-4.92-10.87-9.55-16.34-14.29l-32.78-28.45c-3.79-3.28-7.6-6.54-11.38-9.79a1.49,1.49,0,0,0-.48,1.63c1.13,5.34.59,10.81,1.25,16.24,1,8.28.23,16.79-.32,25.19a1.53,1.53,0,0,1-.27.68,102,102,0,0,0-7.17,14c-1.25,2.8-2.89,3.55-5.81,3.32-12.63-1-25.32-.13-38-1-.71,0-1.91-.36-2.09.23-.56,1.91-1.27.57-1.76.16-5.45-4.63-10.86-9.3-16.29-14-2-1.68-3.94-3.33-5.88-5-.9-.79-1.89-.46-2.84-.34-.56.07-.67.56-.61,1.14.55,5.11.6,10.33,1.79,15.27a5.52,5.52,0,0,1-1.32,5.45,18,18,0,0,1-1.15,1.62c-1,1-1.22,4-3.68,1.51-.09-.09-.32,0-.49-.06-2.73-.18-5.47-.33-8.2-.56-5.12-.43-10.24-.94-15.36-1.35a72,72,0,0,0-10.19-.51c-1.54.1-2.66.07-3.79-.9ZM740.36,591.63c.37,1,1.35.88,2.08,1.13q17.5,5.92,35,11.78a8.33,8.33,0,0,0,4.51.59c4-.76,8-1.11,12-1.6,8.36-1,16.73-2,25.09-3.08s16.69-2.29,25-3.41l22.85-3a2.93,2.93,0,0,0,2.2-1.24q14.93-18.66,30-37.24a35.88,35.88,0,0,0,4.74-6.74c-3.56,1.87-6.58,3.52-9.64,5.06C876.1,563,858,572.1,839.92,581.32A23,23,0,0,1,829.53,584c-4.62.08-9.24.6-13.85,1q-11.74,1-23.49,1.9c-4.7.34-9.4.69-14.09,1.1-6.91.6-13.82,1.31-20.73,1.87-5.28.43-10.57.69-15.86,1C741,591,740.55,591.08,740.36,591.63Z" transform="translate(-172.81 -190.83)"/><path class="cls-2" d="M232.3,280.74,258,302.81c1.13,1,2.25,1,3.79.9a72,72,0,0,1,10.19.51c5.12.41,10.24.92,15.36,1.35,2.73.23,5.47.37,8.2.56a1.17,1.17,0,0,1,.49.06c2.47,2.53,2.69-.5,3.68-1.51a18,18,0,0,0,1.15-1.62,5.52,5.52,0,0,0,1.32-5.45c-1.19-5-1.24-10.17-1.79-15.27-.06-.58,0-1.07.61-1.14,1-.12,2-.44,2.84.34,1.94,1.7,3.92,3.35,5.88,5,5.43,4.65,10.84,9.33,16.29,14,.49.42,1.2,1.76,1.76-.16.17-.59,1.37-.28,2.09-.23,12.64.83,25.33,0,38,1,2.92.23,4.56-.51,5.81-3.32a102,102,0,0,1,7.17-14,1.53,1.53,0,0,0,.27-.68c.55-8.4,1.32-16.92.32-25.19-.66-5.43-.12-10.9-1.25-16.24a1.49,1.49,0,0,1,.48-1.63c3.78,3.25,7.59,6.5,11.38,9.79l32.78,28.45c5.46,4.74,11,9.37,16.34,14.29a67,67,0,0,0,6,5.5c2.67,1.94,5,3.84,8.64,4.68,10.45,2.44,20.69,5.81,31,8.87l102.73,30.42a7,7,0,0,1,3.17,2c2.46,2.51,5.94,3.32,8.91,5q43.49,24.14,87.12,48l90,49.57q35.54,19.6,71.05,39.25T921,525.14c.92.51,1.81,1.06,2.81,1.64-5.33,6.24-10.55,12.37-15.81,18.48-.41.48-.74,1.28-1.48,1.24-4-.2-7.41,1.82-11.11,2.73q-52.5,13-104.91,26.28-27.36,6.89-54.68,13.91c-1.34.35-3.27-.7-4,1.32,7.75,1.49,14.94,4.73,22.41,7,6.91,2.14,14.09,3.87,20.48,7.1,4.86,2.45,9,.76,13.48.41,5.84-.46,11.64-1.45,17.46-2.22s11.63-1.56,17.44-2.31,11.48-1.45,17.23-2.19,11.63-1.58,17.46-2.24c3.26-.37,6.49-1.26,9.79-1,1.07.08,1.28-.61,1.69-1.12q9-11.12,18-22.28,7.57-9.41,15.12-18.85c.71-.89,1.24-1.08,2.13-.16,1.56,1.62,3.18,3.19,4.88,4.65,1.08.92.75,2,.53,3-1.44,6.5-2.94,13-4.43,19.46a5.38,5.38,0,0,1-2,3.27c-7.13,5.42-14,11.15-21.38,16.26a52.16,52.16,0,0,1-14.25,6.64q-22.55,7.09-45,14.42a8.58,8.58,0,0,1-3.42.38q-8.92-.7-17.83-1.45c-7.36-.62-14.71-1.27-22.07-1.88-4.88-.4-9.77-.72-14.65-1.12-7.36-.61-14.72-1.27-22.07-1.88-4.8-.4-9.6-.73-14.4-1.12-7.52-.62-15-1.31-22.57-1.88-4.22-.32-8.44-.75-12.65-1-5.31-.34-10.39-1.78-15.57-2.74-9.54-1.76-19-3.76-28.5-5.88-8.14-1.82-15.72-5.3-23.31-8.66l-87.57-38.81c-3.51-1.55-6.08-4.21-9.05-6.42-12.71-9.42-25.52-18.7-38.29-28q-12.83-9.37-25.69-18.71c-.76-.55-1.44-1.75-2.68-.36-.26.29-1.67-.35-2.5-.67-8.73-3.39-17.48-6.73-26.16-10.25-3.88-1.57-7.88-1.24-11.78-.93-8.49.65-17,.26-25.47.71-10.31.54-20.65.44-31,.69-24.73.61-49.45,1.55-74.19,1.52-18,0-36-.41-54-.46a153.81,153.81,0,0,1-23-1.64c-5.28-.88-9.89-4-14.89-5.88a7.23,7.23,0,0,1-1.81-.75c-.89-.67-2.92-.28-2.55-2s.19-3.4,2.92-4.08c9-2.25,17.93-4.78,26.7-7.77,6.06-2.06,12.31-2,18.47-2.91,7.86-1.09,15.76-2,23.64-2.9,6.41-.75,12.83-1.39,19.25-2.14s13-1.59,19.46-2.35,12.83-1.41,19.25-2.15,13-1.55,19.47-2.32c4.85-.57,9.71-1.11,14.56-1.68,6.66-.78,13.31-1.58,20-2.35,6.41-.74,12.83-1.42,19.24-2.16s13-1.54,19.47-2.3c6.25-.73,12.51-1.36,18.74-2.25,1.8-.26,2.33,1.84,4.28,1.54-1.72-2.16-3.92-3.43-5.83-5q-17.32-13.79-34.8-27.39c-1.93-1.51-4.46-.78-6.7-1.14-6-1-12.09-1.64-18.15-2.4-3.36-.42-6.73-.83-10.11-1.14-1.16-.11-1.62-.21-1.15-1.6,1.15-3.42,1.93-7,3.15-10.37.62-1.72.16-2.37-1.26-3.23-8.42-5.06-16.78-10.23-25.16-15.36-3.31-2-6.65-4-9.93-6.08-.53-.33-1.41-.3-1.27-1.62.1-.9-1.29-.28-1.91-.09-4.33,1.28-8.67,2.55-12.92,4-1.65.58-2.45.42-3.25-1.22-1.73-3.55-4.19-6.83-5.37-10.54-.91-2.87-2.94-3.62-5-4.7Q280.29,346.83,259.55,336c-1.62-.85-3-2.22-5.51-2.49,1.39,1.28.86,2,0,2.82-3.08,2.93-6,6-9.09,8.93a5.22,5.22,0,0,0-2,4.72c.35,4.72.12,9.49.11,14.24q0,22.25-.06,44.49v2.12l-.61.12L175.69,196.72c5.61,3.4,10.33,6.29,13.46,11.95,13.63,24.62,27.77,49,41.75,73.38.39.68.53,1.61,1.47,1.91.76-1.16-.62-1.74-.7-2.66ZM472,388.94l-.5.5-.51.49-.48.52-.51.49c-.18.12-.46.21-.13.45a2.55,2.55,0,0,0,.29-.3l.5-.5.51-.49.49-.51.49-.51.49-.5.5-.5c.16-.11.44-.19.12-.43a2,2,0,0,0-.27.27l-.49.52Zm22.35,38.45.49-.46c.16-.21.59-.36.32-.7s-.48,0-.68.2l-.51.49-.51.49c-1.18-.17-1.74.48-2,1.52-.35.24-.52.52-.26.93l.66-.44,2-1.62ZM511,409.51l-.5.5-.5.5c-.36.17-.68.38-.69.83,0,0,.13.13.19.12.49-.08.57-.45.59-.86l.5-.5.5-.5.23-.3ZM498.6,422.6l.51-.49.5-.5.49-.51.5-.5.5-.5.51-.49.5-.5.48-.52.49-.51.5-.5.49-.51.49-.51.51-.49.5-.5.51-.49.49-.51.5-.5.49-.52.49-.5c.36-.16.68-.37.68-.82,0,0-.13-.13-.19-.12-.49.09-.57.46-.56.87l-.51.48-.53.48-.51.49-.52.48-.47.53-.5.5-.47.53L504,417l-.51.49L503,418l-.51.49-.53.47-.5.51-.48.52-.51.49-.49.51-.52.48-.49.51-.49.52-.43.59a6,6,0,0,0-2.49,2.79c1.07-.73,3-.77,2.47-2.81Zm-23.51-37,.53-.47.5-.5.51-.49.52-.48.48-.52.5-.5.5-.5c.17-.11.46-.2.13-.44a2.68,2.68,0,0,0-.28.29l-.5.5-.5.5-.5.5-.48.51-.49.51-.49.51-.48.51-.5.49-.42.52.28.2.22-.64Zm8-8,.5-.51.48-.52.51-.5.5-.49.47-.53.52-.48c.15-.11.45-.16.14-.42l-.25.31-.45.55-.57.44-.48.51-.49.52-.52.48-.5.51c-.16.11-.45.19-.13.43a2.67,2.67,0,0,0,.29-.28Zm4.53-5,.5-.51.5-.5.48-.52.52-.48.49-.51.51-.49c.18-.12.45-.21.13-.45a2.37,2.37,0,0,0-.29.29l-.49.51-.5.5L489,371l-.5.5-.5.5-.5.5-.2.34ZM459,410c.44-.18.51-.57.52-1l.4-.56-.29-.19-.17.7c-.5.18-.48.6-.48,1l-.42.48.28.21ZM754.73,530c3.55.22,6.57-.87,8.2-4.09,1.45-2.87.83-5.87-1-8.45a15.7,15.7,0,0,0-13.38-6.84c-3.26,0-6.21,1.25-7.78,4.43s-.55,5.81,1.29,8.37a15.48,15.48,0,0,0,12.7,6.61Zm-50.14-71.51c-.56,5.59,4.94,10,10.12,10a9.11,9.11,0,0,0,9.28-8.94q0-.19,0-.37c0-5.62-4.43-9.79-10.33-9.74-5.38.08-9,3.68-9,9.07Zm-32.81,3.54c5.28,0,8.6-3.28,8.71-8.38.12-5.31-4.29-9.3-9.73-9.54-4.6-.2-8.35,3.82-8.77,8.07-.44,4.87,4.23,10.24,9.81,9.87Zm-4.55,35a7.79,7.79,0,0,0-8.17,8.08c.06,5.44,4.45,8.72,9.24,8.81a8.2,8.2,0,0,0,8.21-8.19v-.07c0-4.94-4-8.66-9.26-8.62Zm69.39-23c-6.82,0-9.75,4.14-7.25,8.82a12.11,12.11,0,0,0,11.23,6.56c5.52,0,8.2-5,5.26-9.53a12.19,12.19,0,0,0-9.22-5.83Zm-45.07,16.42c5.26,0,8.48-3.47,8.49-9.11,0-4.36-3.11-7.38-7.58-7.36-4.75,0-8.38,3.91-8.34,8.93A7.09,7.09,0,0,0,691.55,490.47ZM707.92,536a8.55,8.55,0,0,0,8.65-8.14,8.16,8.16,0,0,0-7.6-8.3c-4-.22-8.2,3.65-8.34,7.63-.23,5.19,2.65,8.67,7.25,8.81ZM665,478.14a8.26,8.26,0,0,0-7.77-8.1c-4.79-.33-8.26,3-8.51,7.72-.22,4.09,3.85,8.24,8.11,8.14C661.65,485.74,664.49,482.61,665,478.14Zm55.48,14a7,7,0,0,0-7.16,6.84q0,.08,0,.16a7.81,7.81,0,0,0,7.8,7.77,7.49,7.49,0,0,0,7.38-7.28,8,8,0,0,0-8-7.56Zm-74-25.56c2.28.28,4.45-.15,5.32-2.35s-.07-4.14-1.68-5.89a15.19,15.19,0,0,0-10.76-5c-1.82-.09-3.91.33-4.93,2.3s-.27,3.82.94,5.33a14.31,14.31,0,0,0,11.11,5.54Zm12.37,115.54c4.09,0,4.66-.9,3.25-3.69-1.7-3.36-9.65-7.15-13.28-6.28-1.38.33-2.1,1.19-1.14,2.52A17.52,17.52,0,0,0,658.86,582ZM454.32,419.33a2.52,2.52,0,0,0-.18.41,2.25,2.25,0,0,0,.16.16,2.3,2.3,0,0,0,.17-.39A2.23,2.23,0,0,0,454.32,419.33Zm-2.51,5.38c-.06,0-.18.1-.18.14a2.39,2.39,0,0,0,.13.41c.06,0,.18-.1.18-.14A2.31,2.31,0,0,0,451.81,424.71ZM451,427.1l-.16-.37c-.06,0-.17.12-.16.16a2.34,2.34,0,0,0,.16.39Zm12-24.87-.17-.38c-.06,0-.17.12-.16.16a2.42,2.42,0,0,0,.17.4Zm-2.16,4a.3.3,0,0,0-.18.14,2.4,2.4,0,0,0,.13.41.3.3,0,0,0,.18-.14,2.35,2.35,0,0,0-.12-.44Zm-7,14.75s.12-.09.12-.14-.07-.1-.1-.16-.12.09-.13.13.06.08.1.14Zm-.37.85-.11-.16s-.12.09-.13.14.07.1.1.15Zm7.76-16.5.15.11v-.19Zm8.75-.49-.11-.16s-.13.09-.13.14.07.11.1.16ZM452.32,423.7s-.12.09-.13.14.07.1.1.16.12-.09.13-.14-.07-.15-.11-.2Zm9.48-19.2s.12-.1.13-.15-.07-.11-.11-.16-.13.09-.13.14.06.07.1.13Zm8.63-.66-.11-.16s-.13.09-.13.13.06.1.1.16Zm-8-.51-.1-.14s-.12.08-.13.13.06.1.1.15Zm8.5-.49-.15-.11v.19Zm.51-1-.12-.16s-.13.09-.13.14.07.11.11.16Zm.5-1-.11-.16s-.13.09-.14.14.07.11.11.16Zm.49-1-.11-.15s-.13.09-.13.14.07.1.11.16Zm.5-1-.11-.15s-.12.08-.13.13.07.1.1.15Zm.5-1-.15-.11v.19Zm-20.61,24.83s-.12.09-.13.14.07.11.11.16.13-.09.13-.14-.08-.13-.12-.18Z" transform="translate(-172.81 -190.83)"/><path class="cls-3" d="M740.36,591.63a1.17,1.17,0,0,1,1.2-.7c5.29-.33,10.58-.59,15.86-1,6.92-.56,13.82-1.27,20.73-1.87q7-.61,14.09-1.1,11.76-.84,23.49-1.9c4.61-.41,9.24-.93,13.85-1A23,23,0,0,0,840,581.39c18-9.22,36.18-18.3,54.27-27.44,3.06-1.55,6.08-3.19,9.64-5.06a35.88,35.88,0,0,1-4.74,6.74l-30,37.24a2.93,2.93,0,0,1-2.2,1.24q-11.43,1.39-22.85,3c-8.35,1.12-16.68,2.33-25,3.41s-16.73,2-25.09,3.08c-4,.49-8.07.84-12,1.6a8.33,8.33,0,0,1-4.51-.59l-35-11.78C741.71,592.51,740.73,592.6,740.36,591.63Z" transform="translate(-172.81 -190.83)"/><path class="cls-2" d="M231.67,281.29c-.14-.24-.46-.49-.13-.78s.53.09.77.23Z" transform="translate(-172.81 -190.83)"/><path class="cls-4" d="M754.76,530a15.48,15.48,0,0,1-12.69-6.61c-1.85-2.56-2.8-5.32-1.29-8.37a8.26,8.26,0,0,1,7.78-4.43A15.7,15.7,0,0,1,762,517.51c1.84,2.58,2.46,5.58,1,8.45C761.33,529.14,758.31,530.27,754.76,530Z" transform="translate(-172.81 -190.83)"/><path class="cls-5" d="M704.62,458.53c0-5.35,3.66-9,9.07-9,5.91,0,10.32,4.12,10.33,9.74a9.11,9.11,0,0,1-8.91,9.31h-.37C709.55,468.58,704,464.14,704.62,458.53Z" transform="translate(-172.81 -190.83)"/><path class="cls-4" d="M671.8,462.07c-5.59.37-10.25-5-9.78-9.85.41-4.25,4.17-8.27,8.77-8.07,5.44.24,9.85,4.23,9.73,9.54C680.4,458.79,677.08,462.08,671.8,462.07Z" transform="translate(-172.81 -190.83)"/><path class="cls-4" d="M667.25,497.06c5.24,0,9.25,3.68,9.28,8.63a8.2,8.2,0,0,1-8.14,8.26h-.07c-4.79-.1-9.18-3.38-9.24-8.81C659,500.46,662.45,497.14,667.25,497.06Z" transform="translate(-172.81 -190.83)"/><path class="cls-4" d="M736.64,474.07a12.19,12.19,0,0,1,9.24,5.85c2.95,4.57.27,9.55-5.26,9.53a12.11,12.11,0,0,1-11.23-6.56C726.89,478.21,729.83,474.07,736.64,474.07Z" transform="translate(-172.81 -190.83)"/><path class="cls-4" d="M691.55,490.47c-4.38,0-7.4-3.06-7.43-7.53,0-5,3.59-8.91,8.34-8.93,4.47,0,7.58,3,7.58,7.36C700,487,696.76,490.47,691.55,490.47Z" transform="translate(-172.81 -190.83)"/><path class="cls-4" d="M707.88,536c-4.6-.14-7.48-3.62-7.29-8.82.14-4,4.38-7.85,8.34-7.63a8.16,8.16,0,0,1,7.6,8.3A8.55,8.55,0,0,1,707.88,536Z" transform="translate(-172.81 -190.83)"/><path class="cls-6" d="M665,478.14c-.53,4.5-3.37,7.63-8.17,7.75-4.27.1-8.33-4-8.11-8.14a7.8,7.8,0,0,1,8.51-7.72A8.26,8.26,0,0,1,665,478.14Z" transform="translate(-172.81 -190.83)"/><path class="cls-6" d="M720.49,492.07a8,8,0,0,1,8,7.53,7.49,7.49,0,0,1-7.38,7.28,7.81,7.81,0,0,1-7.8-7.77,7,7,0,0,1,7-7Z" transform="translate(-172.81 -190.83)"/><path class="cls-7" d="M646.5,466.51a14.31,14.31,0,0,1-11.11-5.61c-1.21-1.51-2-3.37-.94-5.33s3.12-2.39,4.93-2.3a15.19,15.19,0,0,1,10.76,5c1.6,1.74,2.53,3.74,1.68,5.89S648.78,466.79,646.5,466.51Z" transform="translate(-172.81 -190.83)"/><path class="cls-8" d="M658.86,582a17.52,17.52,0,0,1-11.17-7.44c-1-1.34-.24-2.19,1.14-2.52,3.63-.87,11.58,2.91,13.28,6.28C663.55,581.14,663,582,658.86,582Zm-.42-4.06c-.1-1.93-2.4-3.45-4.82-3.34-1.13,0-2,.35-1.89,1.67.13,1.62,2.8,3.68,4.75,3.56,1.07-.06,2.15-.49,2-1.89Z" transform="translate(-172.81 -190.83)"/><path class="cls-9" d="M498,423.05c.51,2-1.39,2.08-2.47,2.81a6,6,0,0,1,2.49-2.79Z" transform="translate(-172.81 -190.83)"/><path class="cls-9" d="M493.84,427.81l-2,1.61-.41-.49c.26-1,.82-1.69,2-1.52Z" transform="translate(-172.81 -190.83)"/><path class="cls-10" d="M508,413c0-.41.08-.78.57-.87.06,0,.19.08.19.12,0,.45-.32.66-.68.82Z" transform="translate(-172.81 -190.83)"/><path class="cls-10" d="M510.11,410.61c0,.41-.11.78-.59.85-.06,0-.19-.08-.19-.12,0-.45.33-.66.69-.83Z" transform="translate(-172.81 -190.83)"/><path class="cls-10" d="M459.55,409l.17-.7.29.19-.4.56Z" transform="translate(-172.81 -190.83)"/><path class="cls-10" d="M459.55,409.08a.94.94,0,0,1-.52,1h0c0-.42,0-.84.48-1Z" transform="translate(-172.81 -190.83)"/><path class="cls-10" d="M459.06,410.06l-.17.66-.28-.21L459,410Z" transform="translate(-172.81 -190.83)"/><path class="cls-10" d="M454.32,419.33c.06.06.16.13.15.18a2.3,2.3,0,0,1-.17.39c-.06,0-.17-.12-.16-.16A2.52,2.52,0,0,1,454.32,419.33Z" transform="translate(-172.81 -190.83)"/><path class="cls-10" d="M451.81,424.71a2.36,2.36,0,0,1,.13.41l-.18.14a2.39,2.39,0,0,1-.13-.41Z" transform="translate(-172.81 -190.83)"/><path class="cls-10" d="M474.61,386.14l-.23.63-.28-.2.42-.52Z" transform="translate(-172.81 -190.83)"/><path class="cls-10" d="M451,427.14l-.16.17a2.34,2.34,0,0,1-.16-.39l.16-.16Z" transform="translate(-172.81 -190.83)"/><path class="cls-9" d="M491.83,429.42l-.66.44c-.27-.41-.09-.69.26-.93Z" transform="translate(-172.81 -190.83)"/><path class="cls-10" d="M463,402.22l-.17.18a2.42,2.42,0,0,1-.17-.4l.16-.16Z" transform="translate(-172.81 -190.83)"/><path class="cls-10" d="M460.81,406.2a2.39,2.39,0,0,1,.13.41l-.18.14a2.4,2.4,0,0,1-.13-.41Z" transform="translate(-172.81 -190.83)"/><path class="cls-10" d="M490.48,369.48a2.48,2.48,0,0,1,.29-.29c.33.24.05.33-.13.45Z" transform="translate(-172.81 -190.83)"/><path class="cls-10" d="M490,370l.49-.51.16.16-.51.49Z" transform="translate(-172.81 -190.83)"/><path class="cls-10" d="M489.49,370.49l.5-.5.14.14-.49.51Z" transform="translate(-172.81 -190.83)"/><path class="cls-10" d="M489.64,370.64l-.52.48L489,371l.49-.51Z" transform="translate(-172.81 -190.83)"/><path class="cls-10" d="M488.5,371.5l.5-.5.12.12-.48.52Z" transform="translate(-172.81 -190.83)"/><path class="cls-10" d="M488,372l.5-.5.14.14-.5.5Z" transform="translate(-172.81 -190.83)"/><path class="cls-10" d="M487.55,372.51l.5-.5.14.13-.5.51Z" transform="translate(-172.81 -190.83)"/><path class="cls-10" d="M487.64,372.65l-.33.2.2-.34Z" transform="translate(-172.81 -190.83)"/><path class="cls-10" d="M486,374.48l.25-.31c.31.26,0,.32-.14.42Z" transform="translate(-172.81 -190.83)"/><path class="cls-10" d="M486.08,374.59l-.52.48h0l.45-.55Z" transform="translate(-172.81 -190.83)"/><path class="cls-10" d="M485.55,375.07l-.47.53-.14-.14.57-.44Z" transform="translate(-172.81 -190.83)"/><path class="cls-10" d="M484.6,376.14l-.51.5-.11-.11.49-.51Z" transform="translate(-172.81 -190.83)"/><path class="cls-10" d="M484.09,376.6l-.48.52-.15-.15.52-.48Z" transform="translate(-172.81 -190.83)"/><path class="cls-10" d="M483.61,377.14l-.5.51-.15-.15.5-.51Z" transform="translate(-172.81 -190.83)"/><path class="cls-10" d="M483.11,377.62a2.68,2.68,0,0,1-.28.28c-.32-.24,0-.32.13-.43Z" transform="translate(-172.81 -190.83)"/><path class="cls-10" d="M478.48,382a2.83,2.83,0,0,1,.28-.29c.33.24,0,.33-.13.44Z" transform="translate(-172.81 -190.83)"/><path class="cls-10" d="M478,382.48l.5-.5.15.15-.5.5Z" transform="translate(-172.81 -190.83)"/><path class="cls-10" d="M477.48,383l.5-.5.16.15-.5.5Z" transform="translate(-172.81 -190.83)"/><path class="cls-10" d="M477,383.48l.5-.5.16.15-.48.52Z" transform="translate(-172.81 -190.83)"/><path class="cls-10" d="M476.49,384l.49-.51.17.17-.52.48Z" transform="translate(-172.81 -190.83)"/><path class="cls-10" d="M476,384.5l.49-.5.14.14-.51.49Z" transform="translate(-172.81 -190.83)"/><path class="cls-10" d="M476.13,384.63l-.5.5-.11-.11.49-.51Z" transform="translate(-172.81 -190.83)"/><path class="cls-10" d="M475,385.53l.48-.51.11.11-.53.47Z" transform="translate(-172.81 -190.83)"/><path class="cls-10" d="M475.09,385.6l-.48.51-.09-.09.5-.49Z" transform="translate(-172.81 -190.83)"/><path class="cls-10" d="M473,388a2.23,2.23,0,0,1,.28-.27c.31.23,0,.31-.12.43Z" transform="translate(-172.81 -190.83)"/><path class="cls-10" d="M473.1,388.14l-.5.5-.14-.14L473,388Z" transform="translate(-172.81 -190.83)"/><path class="cls-10" d="M507,414l.53-.48.08.08-.49.52Z" transform="translate(-172.81 -190.83)"/><path class="cls-10" d="M506.46,414.46,507,414l.12.12-.5.5Z" transform="translate(-172.81 -190.83)"/><path class="cls-10" d="M506.55,414.59l-.49.51-.16-.16.53-.47Z" transform="translate(-172.81 -190.83)"/><path class="cls-10" d="M505.46,415.47l.48-.53.16.16-.51.49Z" transform="translate(-172.81 -190.83)"/><path class="cls-10" d="M505,416l.5-.5.13.13-.5.5Z" transform="translate(-172.81 -190.83)"/><path class="cls-10" d="M505.09,416.14l-.51.49-.1-.1L505,416Z" transform="translate(-172.81 -190.83)"/><path class="cls-10" d="M504,417l.51-.49.09.09-.49.51Z" transform="translate(-172.81 -190.83)"/><path class="cls-10" d="M503.47,417.47,504,417l.11.11-.49.51Z" transform="translate(-172.81 -190.83)"/><path class="cls-10" d="M503,418l.49-.51.13.13-.5.5Z" transform="translate(-172.81 -190.83)"/><path class="cls-10" d="M503.09,418.14l-.49.51-.13-.13L503,418Z" transform="translate(-172.81 -190.83)"/><path class="cls-10" d="M502.55,418.6l-.48.52-.18-.18.53-.47Z" transform="translate(-172.81 -190.83)"/><path class="cls-10" d="M510.61,410.14l-.5.5-.09-.09.5-.5Z" transform="translate(-172.81 -190.83)"/><path class="cls-10" d="M502.12,419.14l-.5.5-.17-.17.5-.51Z" transform="translate(-172.81 -190.83)"/><path class="cls-10" d="M501,420l.48-.52.17.17-.51.49Z" transform="translate(-172.81 -190.83)"/><path class="cls-10" d="M500.46,420.46,501,420l.13.14-.5.5Z" transform="translate(-172.81 -190.83)"/><path class="cls-10" d="M453.79,421c0-.06-.11-.12-.11-.16s.08-.09.13-.13.11.11.1.16S453.84,420.9,453.79,421Z" transform="translate(-172.81 -190.83)"/><path class="cls-10" d="M500.61,420.61l-.5.5L500,421l.49-.51Z" transform="translate(-172.81 -190.83)"/><path class="cls-10" d="M499.45,421.45,500,421l.13.14-.49.51Z" transform="translate(-172.81 -190.83)"/><path class="cls-10" d="M453.43,421.8l-.14.13s-.11-.11-.1-.15.08-.09.13-.14Z" transform="translate(-172.81 -190.83)"/><path class="cls-10" d="M499.62,421.62l-.5.5L499,422l.49-.51Z" transform="translate(-172.81 -190.83)"/><path class="cls-10" d="M499.11,422.14l-.51.49-.13-.13L499,422Z" transform="translate(-172.81 -190.83)"/><polygon class="cls-10" points="288.37 214.46 288.54 214.38 288.52 214.57 288.37 214.46"/><path class="cls-10" d="M498.61,422.61l-.58.44h0l.43-.6Z" transform="translate(-172.81 -190.83)"/><path class="cls-10" d="M469.93,404.8l-.14.13s-.11-.11-.1-.16.09-.09.13-.14Z" transform="translate(-172.81 -190.83)"/><path class="cls-10" d="M452.31,423.66s.11.11.1.16-.08.09-.13.14-.11-.11-.1-.16S452.26,423.71,452.31,423.66Z" transform="translate(-172.81 -190.83)"/><path class="cls-10" d="M511.11,409.61l-.5.5-.08-.08.5-.5Z" transform="translate(-172.81 -190.83)"/><path class="cls-9" d="M494.44,426.44c.2-.19.39-.56.68-.2s-.16.48-.32.7Z" transform="translate(-172.81 -190.83)"/><path class="cls-10" d="M511,409.52l.31-.21-.23.3Z" transform="translate(-172.81 -190.83)"/><path class="cls-9" d="M494.79,426.94l-.49.46-.37-.47.51-.49Z" transform="translate(-172.81 -190.83)"/><path class="cls-10" d="M461.79,404.46c0-.06-.12-.12-.11-.17s.09-.09.13-.14.11.11.11.16S461.84,404.41,461.79,404.46Z" transform="translate(-172.81 -190.83)"/><path class="cls-9" d="M493.42,427.42l.51-.49.37.47-.46.41Z" transform="translate(-172.81 -190.83)"/><path class="cls-10" d="M508.07,413.07l-.49.5-.08-.08.5-.49Z" transform="translate(-172.81 -190.83)"/><path class="cls-10" d="M470.43,403.81l-.14.13s-.11-.11-.1-.16.08-.09.13-.13Z" transform="translate(-172.81 -190.83)"/><path class="cls-10" d="M462.42,403.3l-.13.14s-.1-.11-.1-.15.08-.09.13-.13Z" transform="translate(-172.81 -190.83)"/><path class="cls-10" d="M485.1,375.6l-.5.49-.13-.13.48-.51Z" transform="translate(-172.81 -190.83)"/><polygon class="cls-10" points="298.11 211.97 297.94 212.05 297.95 211.86 298.11 211.97"/><path class="cls-10" d="M471.43,401.81l-.14.14s-.11-.11-.11-.16.09-.09.13-.14Z" transform="translate(-172.81 -190.83)"/><path class="cls-10" d="M471.93,400.8l-.14.15s-.11-.11-.11-.16.09-.1.14-.14Z" transform="translate(-172.81 -190.83)"/><path class="cls-10" d="M472.42,399.81l-.13.14s-.11-.11-.11-.16.08-.09.13-.14Z" transform="translate(-172.81 -190.83)"/><path class="cls-10" d="M472.93,398.81l-.14.13s-.11-.11-.1-.15.08-.09.13-.13Z" transform="translate(-172.81 -190.83)"/><polygon class="cls-10" points="300.61 206.98 300.43 207.06 300.45 206.87 300.61 206.98"/><path class="cls-10" d="M470.12,391.14a2.69,2.69,0,0,1-.29.29c-.33-.25,0-.34.13-.45Z" transform="translate(-172.81 -190.83)"/><path class="cls-10" d="M470.62,390.61l-.5.5L470,391l.5-.5Z" transform="translate(-172.81 -190.83)"/><path class="cls-10" d="M470.47,390.46l.48-.52.18.18-.51.49Z" transform="translate(-172.81 -190.83)"/><path class="cls-10" d="M470.94,389.94l.51-.49.16.16-.49.51Z" transform="translate(-172.81 -190.83)"/><path class="cls-10" d="M471.46,389.45l.5-.5.16.16-.49.51Z" transform="translate(-172.81 -190.83)"/><path class="cls-10" d="M472,389l.51-.48.14.14-.49.5Z" transform="translate(-172.81 -190.83)"/><path class="cls-10" d="M452.81,422.65s.11.11.11.16-.08.09-.13.14-.11-.11-.11-.16S452.76,422.69,452.81,422.65Z" transform="translate(-172.81 -190.83)"/><path class="cls-11" d="M658.45,578c.19,1.4-.87,1.83-2,1.89-2,.11-4.62-2-4.75-3.56-.11-1.32.76-1.61,1.89-1.67C656,574.53,658.34,576,658.45,578Z" transform="translate(-172.81 -190.83)"/></svg>