<svg id="Ebene_1" data-name="Ebene 1" xmlns="http://www.w3.org/2000/svg" xmlns:xlink="http://www.w3.org/1999/xlink" viewBox="0 0 294.49 275.08"><defs><style>.cls-1{fill:url(#Unbenannter_Verlauf_9);}.cls-2{fill:#6b7e85;}.cls-3{fill:#54545c;}.cls-4{fill:#424d53;}</style><linearGradient id="Unbenannter_Verlauf_9" x1="6.37" y1="293.59" x2="299.59" y2="293.59" gradientUnits="userSpaceOnUse"><stop offset="0" stop-color="#3c3b4b"/><stop offset="0.32" stop-color="#525a65"/><stop offset="0.61" stop-color="#637279"/><stop offset="0.72" stop-color="#455055"/><stop offset="0.91" stop-color="#141718"/><stop offset="1"/></linearGradient></defs><title>ancahar</title><path class="cls-1" d="M208.84,344.94,224,371.33c-74.34,44.73-113,17.38-113,17.38l85.28-163.15c24.78-7.72,24.14-18.66,27.67-24.46s8-54.38-27.67-43.44-28,54.06-28,54.06l-102,152.86C22,337.1,29.61,256.36,29.61,256.36H58.68c-25.65-40.48-20-88.93-18.24-93.5-86.08,121.43,18.12,267,18.12,267,197.26,14.8,236.52-108.45,241-115.53C286.08,338.83,208.84,344.94,208.84,344.94Zm-20.1-160.11c3.86-10.8,11.4-17.1,16-12.54l4.56,4.56s8,13.68-4,23.94S185.89,192.81,188.74,184.83Z" transform="translate(-6.37 -156.05)"/><path class="cls-2" d="M66.82,256.48s-38.53-57-24.45-98.53c0,1.06-29.25,62.91-25,98.13Z" transform="translate(-6.37 -156.05)"/><path class="cls-3" d="M230.79,381.55s64.78-48.74,70.07-68.46c.35,1.06-45,33.68-93.21,30.16C208,344.31,230.79,381.55,230.79,381.55Z" transform="translate(-6.37 -156.05)"/><path class="cls-4" d="M189.75,200s15,14.32,22.53-9.82c0,0,3.06-5.63-5.63-17.22.16,1,6.6,13.68.8,19.79.48.32-6,9.33-12.23,8.21S189.75,200,189.75,200Z" transform="translate(-6.37 -156.05)"/></svg>