<svg id="Ebene_1" data-name="Ebene 1" xmlns="http://www.w3.org/2000/svg" viewBox="0 0 47.49 124.89"><defs><style>.cls-1{fill:#fff;}.cls-2{fill:#8559c2;}.cls-3{fill:#bf94e4;}.cls-4{fill:#ceaeef;}.cls-5{fill:#dbcec8;}</style></defs><title>bottle</title><path class="cls-1" d="M24.07,9.59" transform="translate(0.02 0)"/><polyline class="cls-2" points="23.67 9.6 14.93 9.6 14.93 7.51 16.18 7.51 16.18 6.47 14.93 6.47"/><polyline class="cls-2" points="15.11 6.89 15.11 0 23.97 0 23.97 9.95"/><polyline class="cls-2" points="23.97 9.6 32.71 9.6 32.71 7.51 31.46 7.51 31.46 6.47 32.71 6.47"/><polyline class="cls-2" points="32.53 7.21 32.53 0 23.67 0 23.67 9.95"/><path class="cls-3" d="M0,119.07s1.63,5.6,5.52,5.75,18.19,0,18.19,0V8.82H15.84s5.08,2.54-13.27,12.44c0,0-2.48,1.4-2.54,3.53s0,10,0,10,5.91,5,5,8.71S0,53,0,53V66.62a14.8,14.8,0,0,0,2.68,3.56V96.92S.07,98.22,0,100.24,0,119.07,0,119.07Z" transform="translate(0.02 0)"/><path class="cls-4" d="M23.72,8.86H31.6S26.52,11.4,44.87,21.3c0,0,2.49,1.4,2.54,3.52s0,10,0,10-5.91,5-5,8.71,5.05,9.54,5.05,9.54V66.65a15,15,0,0,1-2.61,3.58V96.92s2.59,1.3,2.61,3.32,0,18.82,0,18.82-1.63,5.6-5.52,5.75-18.19,0-18.19,0Z" transform="translate(0.02 0)"/><rect class="cls-5" x="3.45" y="70.08" width="40.43" height="27.37"/></svg>