<svg id="Ebene_1" data-name="Ebene 1" xmlns="http://www.w3.org/2000/svg" viewBox="0 0 313.01 193.1"><defs><style>.cls-1{fill:#6d4d41;}.cls-2{fill:#76594d;}.cls-3{fill:#fdfdfd;}</style></defs><title>brown_rock</title><path class="cls-1" d="M1029.75,469.89c-.12-1,.76-1.08,1.3-1.47,1.48.15,2.2,1.37,3.18,2.23a3.54,3.54,0,0,0,3.22.9c1.14-.4.4-1.9.54-2.91a2.61,2.61,0,0,0-.71-1.81c-.24-.36-.4-.86,0-1.11.58-.36,1,.14,1.1.6.26.84.51,1.6,1.59,1.6-.87,2.46-.22,4.69,1,6.89,1.48,2.78,1,6,2,8.93a1,1,0,0,1-.28.86c-.43.26-.73-.1-1-.46s-.08-1.1-.89-.89c-1.26,7,.87,13.66,2.08,20.68,4.49-5.86.66-11.78.73-17.84,2.6,3.46,1.47,7.64,3.32,11.28,2.34-2.84,4.46-5.47,6.65-8.05,1.31-1.54,3-2.67,3-5.13,0-7.87-.31-15.74.42-23.6.11-1.18.75-3-1.09-3.39s-1.48,1.65-2.25,2.49c-.48.52-.39,2-1.58,1.29-.87-.52-.67-1.64-.22-2.49a5.46,5.46,0,0,1,1-1.12c1.43-1.48,1.71-3.1,1.47-5.21a45.23,45.23,0,0,1,.34-8.21,1.64,1.64,0,0,1,1.3-1.4c2.36-.47,3.83-2.24,5.42-3.75q8.23-7.83,16.31-15.81a2.82,2.82,0,0,1,3.35-.69c2.66.92,4.62,2.9,6.93,4.34a23,23,0,0,1,4.65,3.71c1.64,1.74,1.13,2.7-1.17,3.21a6.17,6.17,0,0,1-3.84-.6,3,3,0,0,0-3.77.94c-.66.74-1.23,1.57-1.86,2.33-1.07,1.28-2.13,1.61-3.58.33-3.08-2.71-6.07-2.09-7.72,1.71a32.36,32.36,0,0,1-5.67,9c-1.26,1.39-1.17,2.77.46,3.74,1.79,1.08,3,3.25,5.57,2.93.89-.11,1,.72,1.23,1.32a141.65,141.65,0,0,0,7.44,15c1.39,2.51,3.2,2.71,4.48.13s3.48-4,5.19-6c.76-.89,1.62-1.38,2.17.21.29.86.77.82,1.26.29,1-1.05,2.43-1.81,2.26-3.65-.15-1.58.24-2.14,2-1.22,2.71,1.43,3.56,1,4.53-2,1.29-3.91,3.13-7.81.63-11.94a1.89,1.89,0,0,1-.14-1c.07-2.6-1.38-3.9-3.73-4.55a5.37,5.37,0,0,1-4.24-5.36c0-1,.54-1.59,1.34-1.18,1.57.81,2.92.31,4.47,0a8.08,8.08,0,0,1,6.27.89c2.1,1.47,3.09.71,4-1.19a13.72,13.72,0,0,0,1-2.55c1-4.21,2.18-8.39,5-11.83a3.45,3.45,0,0,0,.26-4.35,25.63,25.63,0,0,1-2.64-7.47c-.39-1.82-.56-2.51-2.23-1a2,2,0,0,1-2.55.06c-.65-.58.36-1.11.6-1.67a4.18,4.18,0,0,0,0-4.26,1.18,1.18,0,0,0-1.49-.61c-.59.27-.42.8-.27,1.29s.64,1.4-.17,1.74-1.2-.51-1.54-1c-.65-1-1.34-1.53-2.42-.72-1.83,1.36-3.47,1.11-5-.42l.17-.26-.26.17a8.54,8.54,0,0,0-4,2.4c-3.6,3.43-8,5.71-12.38,7.69-3.26,1.47-6.14,2.73-7.17,6.49-.17.64-.81,2.24-2.07.67a11.22,11.22,0,0,1,8.09-8.54c6.07-1.92,10.49-6.57,15.52-10.2.58,0,1.22.22,1.56-.5l1-.34c.43.21,1.07.3,1.27.64,1.86,3.16,3.25,1,4.72-.37l1.71-.48c.78,0,1.6.35,2.25-.39,2.47-.77,4.93-1.57,7.51-.47.27.52.71.47,1.18.38a1.25,1.25,0,0,1,1.3.28q0,.88,0,1.77c-4.2-2.59-6.7-1.82-7.32,2.22-.06.41-.22.87.28,1a.69.69,0,0,0,.91-.62c.07-2.41,2.06-1.22,2.93-1.28,1.26-.08.48,1.41.71,2.18a9.39,9.39,0,0,1,.19,1.16c1,.11.91-1.63,2-1,.91.5.73,1.39.78,2.2.11,1.73-.3,3.5.3,5.19.28.77-.1,2.34,1.65,1.69,1.29-.48,1.62-1.17,1.18-2.68-.93-3.22-2.84-6.13-3.11-9.56,1.06.22.68,1.55,1.5,1.94l2.49,6.07c0,.45-.16,1,.34,1.26s.88-.07,1-.61l1.42-2.17a4.17,4.17,0,0,0,1.69-3l.28-.48c1.73-.94,1.43-3.47,3.68-4.57a21,21,0,0,1-5.38,10.74c-1.43,1.46-1.93,2.87-1.33,4.66.24.7-.13,1.9,1,2,.94.12,1.46-.75,1.94-1.39,3.37-4.61,6.68-9.27,10.06-13.88,3.11-4.25,5.43-5.11,9.22-3.34,3.44,1.61,6.86,3.29,10.19,5.11,2.15,1.17,4.42,2.22,5.52,4.79.63,1.47,4.72,2.41,6,1.73,5.58-2.94,13-1.51,16.79,3.38a8.67,8.67,0,0,1,2.07,5.74c-.12,3.59,2,6.1,4.81,7.81a27.55,27.55,0,0,1,6.18,5c.34.38.67.88.23,1.32s-.91-.06-1.23-.38a20.07,20.07,0,0,0-4.17-3.54c-.63-.36-1.26-.9-2.08-.53-1.19.53-2.24,5.24-1.49,6.37,1.09,1.65,2.94,3.41,2.57,5.22-.86,4.14.31,7,3.78,9.18.25.16.33.57.54.83,1.3,1.67,2.45,1.67,3.78,0,2.69-3.32,4.08-3.13,5.59.76,1,2.51.31,3.77-2.29,3.88a5.71,5.71,0,0,0-4.06,1.55,4,4,0,0,1-2.49,1c-3.11.35-4.28,2.76-2.67,5.32a3.93,3.93,0,0,1,.74,1.82c.06,2.88.36,5.59,2.94,7.5.33.24.25,1.09.28,1.66a3.66,3.66,0,0,0,.48,1.89c2.65,4.15,5.42,8.25,7.81,12.54,1.38,2.48,3.76,4.24,4.71,7,.37,1.07.58,2.18,2.16,1.06.91-.65,1.17.16,1.41,1,1.26,4.41,1.52,9,1.9,13.48.17,2-.38,4.13-.2,6.15a57.69,57.69,0,0,1-.47,15.37c-.48,2.71-2.59,4.19-5.38,4.21s-5.47-.32-7.59-2.41a1.6,1.6,0,0,0-2.05-.39c-2,1.32-1.8.28-1.39-1.21.12-.42-.22-.95-.28-1.43-.49-3.52-2.32-6.55-3.55-9.8-.69-1.82-1.35-5.08-2.69-4.76-2.28.54-1.71,3.74-2.22,5.86a2.39,2.39,0,0,0,.48,1.64c1,1.42,1.14,3.1,1.68,4.65.84,2.44,1.52,4.93,2.45,8-3.6-2.46-3.22-6.4-5.44-9.31-.38,1.74-.38,3.28-1.6,4.17-3.94,2.86-7.38,6.42-12.06,8.24-1.62.63-3.78.56-4.81,1.7-1.33,1.46-1.45.51-2-.3a12.33,12.33,0,0,0-4-3.64c-4-2.29-7.33-.62-7.78,3.9-.06.6.3,1.33-.69,1.89a8.73,8.73,0,0,1-.27-3.88c.09-1.87-.7-2.5-2.51-2.46a10.63,10.63,0,0,1-9.57-4.69c-1.52-2.16-4-2.45-5.59-.86a28,28,0,0,1-14.64,7.51,135.58,135.58,0,0,1-15.35,1.53c-1.35.1-2.25.28-3,1.62-1.07,2-4,2.87-6.13,2.25a31.1,31.1,0,0,0-15.64-.6c1.49.75,2.33,1.83,3.7,2.12q9.81,2.06,19.61,4.16c1,.21,2.25.06,2.57,1.48h-5.5c-6.07-1.35-12.18-2.56-18.21-4.11a43.11,43.11,0,0,1-8.25-3.23c-5.52-2.73-11.69-3.65-17.17-6.41.45-1.36,1.37-1.12,2.4-.76,2.26.79,4.54,1.54,6.82,2.29.71.24,1.69.56,2.07-.12s-.36-1.45-.95-2.06c-2.53-2.63-5.91-2.74-9.17-3-.87-.07-3.14-.27-1.66,2.08.24.39-.23.73-.6,1a11.6,11.6,0,0,0-8.82-1.22c-2.34.61-4.78-.14-7.18-.2-1,0-2.07-.17-2.73.8-1,1.51-2.28,1.32-3.67.69-2.42-1.08-5.07-1.58-7.37-3a1.93,1.93,0,0,0-2.36-1.07l-.63-.1a1.1,1.1,0,0,0-1.31-.45,22.28,22.28,0,0,1-5.2-1.93c-.2-.62-.66-.7-1.22-.6l-10.81-6.17-.52-.89.06-.06c1.58.05,3.41.08,4.53,1,4.52,3.75,9.87,5.73,15.25,7.68.78.28,1.48,1.21,2.82.25-1.88-1.09-1.28-3.83-3-4.59s-3-1.83-4.67-2.21c-2.82-.64-4.06-2.54-4.74-5.1-.3-1.14,0-1.86,1.12-1.23,1.34.75,2.91.51,4.22,1.4,1.07.73,1.92.32,1.91-1.15,0-1.26,0-2.52,0-3.9a1.45,1.45,0,0,1,1,1.34c.16,1.4.35,2.79.54,4.18.1.74.46,1.33,1.27,1.23s.68-.82.7-1.39a6.43,6.43,0,0,0,0-1.25c-.68-4-.53-8.08-1.42-12.06s-.38-8.1-1.5-12.05c-.29-1-.71-2-1.75-1.41-2.3,1.38-4.63.75-6.78.17s-3,.22-3.72,2a2.47,2.47,0,0,1-2.63,1.86c.08-.35.06-.67.2-.78,2.21-1.79,1.61-2.9-.49-4.53-2.64-2-5.31-4.34-5.47-8.24-.05-1.26-.75-2.35-2.27-1-.25.23-.58-.17-.76-.45,1.83-7.75,3.23-15.59,4.45-23.46a21.34,21.34,0,0,0-.21-7.44,6.55,6.55,0,0,1,0-2.47c.26-1.34,1.08-1.69,2.1-.68a13.81,13.81,0,0,1,2.74,3.84,10,10,0,0,0,5,5,4,4,0,0,1,2.37,3c1.26,4,2.73,8,4.12,12,.25,1,.75,1.19,1.52.45l2-1.57a.86.86,0,0,0,1-.69c.36-.28.64-.87,1.23-.35.39,1.09-.47,1.5-1.13,1.93a9.79,9.79,0,0,0-3.56,4.05c-3.12-3.2-3.53-7.58-5.87-11.37a5.31,5.31,0,0,0,1.11,4.91,5.34,5.34,0,0,1,1.45,4.11c-.25,2.13.17,4.26-.23,6.37-.17.91.31,1.87-1.47,1.77-1.37-.07-2.39,1.5-2.36,2.79,0,1.71,1.7.95,2.57.9a29.69,29.69,0,0,1,9.06.58c1.62.41,3.12,1,3.61,2.7,1.27,4.25,3.71,8.2,3.55,12.81-.15,4.22,1.88,8,2.16,12.13a1.34,1.34,0,0,0,.2.45c.19.38.41.78.91.64s.83-.59.65-.93c-1.76-3.38-.49-6.54.6-9.72a1.28,1.28,0,0,0,0-.5c-.53-6.23-2.39-12.14-4.25-18.05-1.5-4.8-4.36-9.17-4.94-14.23C1031.59,469.29,1031.15,469.27,1029.75,469.89Zm107.75-37.47c0-1.23,0-2.23,0-3.23,0-.62-.22-1.56.71-1.6s.79.91.77,1.52c-.11,2.61-.22,5.22-.43,7.83-.14,1.71-.12,3.44,1,4.74,2.56,2.92,3.92,6.51,5.83,9.8a3.52,3.52,0,0,1,0,4c-.87,1.31-1.82,2.63-2.53,4-1.25,2.35-1.16,5.23-2.32,7.71-.24.5.43,1,.86,1.42,2.14,2,5.3,2.64,6.9,5.36a1.75,1.75,0,0,0,1.34.48c3.15-.08,6.35,0,8.92-2.33a1.72,1.72,0,0,1,2.46-.25,14.41,14.41,0,0,1,2.88,2.69c2.51,3.7,5.09,7.38,7.85,10.9,4.83,6.14,11.31,10.8,15.91,17.11,2.83,3.88,7,6.74,8.64,11.53a29.82,29.82,0,0,1,1.2,3.78c.63,3.21,2.43,6,3.56,9a1.34,1.34,0,0,0,1.38.85c.41,0,.51-.41.51-.74,0-3.4,1.61-6.48,1.64-9.95,0-4.69,1-9.36,1.23-14.06.12-2.37.58-5.4-1.81-6.79a19.45,19.45,0,0,0-5.42-2.36,5.22,5.22,0,0,1-3.91-6.73,5.3,5.3,0,0,0-1.29-5.5c-1.57-1.72-3.48-3.44-3.74-5.76s-1.44-3.48-3.11-4.71a8.26,8.26,0,0,1-3.63-7.24c.05-3,1.89-5.08,3-7.52,1.32-2.89,2.87-5.63.91-8.83a3.78,3.78,0,0,1-.33-1.44c-.43-3.22-1.49-6.11-4.21-8.14a5.51,5.51,0,0,1-2.11-3.32c-.93-4.75-3.27-9-4.74-13.5-.82-2.53-2.47-3.68-4.7-3.57-3.83.18-5.25-2.07-6.33-5.1s-1.75-3.22-4.82-2.65a4.52,4.52,0,0,1-2,.08c-5.14-1.47-6.33-.41-9.31,4.93-1.57,2.8-1.87,2.89-4.63,1.08-4.71-3.09-7.3-1.75-9.09,3-.93,2.46-1.36,5.13-2.44,7.52-.91,2-.19,3.52.74,5.09a5.76,5.76,0,0,0,1.5,2c1.26.83,1.24,3.57,2.52,3.09C1138.36,436,1137.15,433.68,1137.5,432.42Zm11.95,70.21a10.34,10.34,0,0,0,.27,2.54c.25.72-.1,1.92,1,2.1s1.61-.79,2.1-1.53a20.29,20.29,0,0,0,2.66-5.85c.36-1.34.94-1.71,2.35-1,2.13,1.05,4.39,1.86,6.62,2.7,1.51.57,3.58.92,4.53,0,1.12-1.06-1-2.07-1.44-3.21a2.94,2.94,0,0,0-.46-.88c-2.1-2.32-2.13-5.48-3.36-8.14A47.5,47.5,0,0,1,1160,477.7c-.6-3.43-.56-3.43-3.85-2.4-1,.32-2.06.63-3.11.85-2.25.48-2.24,1.58-.91,3.08a8.09,8.09,0,0,1,1.45,8.93c-.43,1.12-1.26,2.27-.82,3.55a1.93,1.93,0,0,1-.49,2.24C1149.88,496.32,1149.7,499.4,1149.45,502.63Zm-137.52-35.16c-.15,2,1,2.68,2.35,3.35,1.73.88,2.38,2.06,2.06,4.24a7.29,7.29,0,0,0,.91,5.44c.6.84,1,.86,1.69.08,2.38-2.55,1.61-5.57,1.35-8.48-.08-.91-.77-1.3-1.86-1-1.46.45-1.72-.12-.86-1.34a1.94,1.94,0,0,0,.4-1.12c-.06-.91.49-2.39-.88-2.44-1,0-.39,1.35-.59,2.08-.06.22-.13.44-.34,1.17-2.78-5.44-1.88-11.94-6.8-16.83.55,5.79-.87,10.71-1.61,15.72-.13.86-.76,2,.41,2.34,1,.3,1.82-.55,2.51-1.31C1011.13,468.93,1010.73,468.06,1011.92,467.47Zm31,64.16c-.45-1.22-1.08-2.19-2.18-1.55-1.56.92-3,2-4.48,3.08a1,1,0,0,0-.09.87c1.37.76,3.51,1.9,4.29,1,1.48-1.65,3-1,4.52-1.11,2.58-.13,5.18,0,8,0-.51-1.52-1.62-2.25-2.19-2.17-3.25.43-2.93-2.14-3.21-3.84a12.46,12.46,0,0,1,.19-5.19,8.9,8.9,0,0,0,0-4.66c-1.73.82-1.17,3.07-3,3.83a8,8,0,0,1,1.61-4.48c.53-.83,1-1.63.28-2.48a3.09,3.09,0,0,0-2.7-1,2,2,0,0,0-1.76,1.84,11.51,11.51,0,0,0,.9,7.72C1044.66,526.26,1044.42,528.57,1043,531.63Zm131.41-39.5c-.93-.07-1,.53-.73,1,1.4,2.5,2.51,5.16,4.54,7.31,3.94,4.16,8.81,7.53,11.29,13,.29.63.75,1.25,1.52.88s.48-1.12.26-1.75a23.43,23.43,0,0,0-3.28-5.81c-3.74-5.07-8.72-9-12.76-13.77A7.77,7.77,0,0,0,1174.38,492.13ZM1188,513.66a7.16,7.16,0,0,0-.39-1.47c-2.47-3.76-6.28-6.28-9-9.8-.83-1.05-1.81-.35-2.05.93a3.53,3.53,0,0,0,.61,2.36C1179.44,509.89,1183.74,511.26,1188,513.66Zm-69.5-103.42c-.44-1.21.93-3.66-.93-3.93-1.63-.24-1.59,2.43-1.89,3.74-.34,1.49.14,4,1.85,4.08,1.91.13.55-2.09,1-3.19A2.71,2.71,0,0,0,1118.51,410.24Zm-100.61,50.57a1.9,1.9,0,0,0-1.23-1.2.49.49,0,0,0-.57.59c.09.63.2,1.34,1,1.5C1017.49,461.78,1017.75,461.4,1017.89,460.81Z" transform="translate(-992.87 -357.81)"/><path class="cls-2" d="M1111,550.91c-.32-1.42-1.59-1.27-2.57-1.48q-9.8-2.12-19.61-4.16c-1.37-.29-2.2-1.37-3.7-2.12a31.1,31.1,0,0,1,15.64.6c2.14.62,5.06-.29,6.13-2.25.73-1.35,1.64-1.52,3-1.62a135.58,135.58,0,0,0,15.35-1.53,28,28,0,0,0,14.64-7.51c1.61-1.59,4.07-1.3,5.59.86a10.63,10.63,0,0,0,9.57,4.69c1.82,0,2.6.59,2.51,2.46a8.73,8.73,0,0,0,.27,3.88c1-.56.63-1.3.69-1.89.44-4.52,3.77-6.18,7.78-3.9a12.33,12.33,0,0,1,4,3.64c.58.82.7,1.77,2,.3,1-1.13,3.18-1.07,4.81-1.7,4.69-1.82,8.13-5.38,12.06-8.24,1.23-.89,1.22-2.43,1.6-4.17,2.22,2.91,1.84,6.85,5.44,9.31-.94-3.09-1.61-5.58-2.45-8-.54-1.55-.7-3.24-1.68-4.65a2.39,2.39,0,0,1-.48-1.64c.51-2.11-.06-5.32,2.22-5.86,1.33-.31,2,2.94,2.69,4.76,1.23,3.25,3.06,6.28,3.55,9.8.07.49.4,1,.28,1.43-.41,1.49-.65,2.52,1.39,1.21a1.6,1.6,0,0,1,2.05.39c2.12,2.09,4.8,2.43,7.59,2.41s4.9-1.51,5.38-4.21a57.69,57.69,0,0,0,.47-15.37c-.18-2,.37-4.12.2-6.15-.38-4.52-.64-9.07-1.9-13.48-.24-.84-.5-1.65-1.41-1-1.57,1.13-1.78,0-2.16-1.06-1-2.73-3.33-4.49-4.71-7-2.4-4.3-5.16-8.39-7.81-12.54a3.66,3.66,0,0,1-.48-1.89c0-.57,0-1.42-.28-1.66-2.58-1.91-2.88-4.63-2.94-7.5a3.93,3.93,0,0,0-.74-1.82c-1.61-2.56-.44-5,2.67-5.32a4,4,0,0,0,2.49-1,5.71,5.71,0,0,1,4.06-1.55c2.6-.11,3.26-1.37,2.29-3.88-1.51-3.88-2.9-4.07-5.59-.76-1.33,1.64-2.48,1.63-3.78,0-.2-.26-.28-.67-.54-.83-3.47-2.17-4.64-5-3.78-9.18.37-1.8-1.48-3.57-2.57-5.22-.75-1.14.3-5.85,1.49-6.37.82-.36,1.45.17,2.08.53a20.07,20.07,0,0,1,4.17,3.54c.32.32.71.9,1.23.38s.11-.94-.23-1.32a27.55,27.55,0,0,0-6.18-5c-2.81-1.71-4.93-4.22-4.81-7.81a8.67,8.67,0,0,0-2.07-5.74c-3.81-4.89-11.21-6.32-16.79-3.38-1.28.67-5.37-.27-6-1.73-1.1-2.58-3.37-3.62-5.52-4.79-3.33-1.82-6.75-3.5-10.19-5.11-3.79-1.78-6.11-.91-9.22,3.34-3.38,4.61-6.69,9.27-10.06,13.88-.47.65-1,1.51-1.94,1.39-1.15-.15-.78-1.34-1-2-.6-1.79-.1-3.21,1.33-4.66a21,21,0,0,0,5.38-10.74c-2.25,1.1-1.95,3.63-3.68,4.57a10.12,10.12,0,0,1,1.6-3.6,72.77,72.77,0,0,0,5.22-13.17c.56-1.77,1.43-3.17,3.42-3.51-3.8,3.53-4.59,8.1-4.63,12.94a24.22,24.22,0,0,0,3.09-7.69,4.92,4.92,0,0,1,2.58-3.47,53.55,53.55,0,0,0,9.47-6.33,75,75,0,0,0,11.27-11.13c.79-.94,1.39-1.94-.65-2,.86-2.56,3.18-2.8,5.19-2.68a17.58,17.58,0,0,0,7.27-1.3c3.1-1.15,6.19-2.26,9.37-3.17a14.47,14.47,0,0,1,7.88.2c3.39.91,3.92,2.2,3.94,5.7,0,1.64,1.22,3.44,2.29,4.87a24.51,24.51,0,0,1,2.86,5.21,74.77,74.77,0,0,0,8.7,15.08,21.94,21.94,0,0,1,4,7.09c-3.06-4-5.7-8.3-8.4-12.56-1-1.62-2.08-3.22-3.12-4.82.4,3.29,2.34,5.8,3.61,8.61,3.64,8,9.6,14.23,15.18,20.77a69.34,69.34,0,0,0,8.27,8.32c.19,4.38,3.23,7.7,4.42,11.81,1.24-.69.89-1.85.82-2.83-.09-1.14-1.11-2-1-3.23l1.55-.22c2.38,1.23,2.27,3.19,1.49,5.29a19.66,19.66,0,0,1-1.8,4.1c-2.78,4.17-2.15,8.71-1.68,13.25-2.93-1.67-3.63-3.91-2.2-7.33.68-1.63,1.5-3.19,2.47-5.23-3.09,1.07-3.18,3.7-4.17,5.51-1.14,2.08-2.44,4.35-2,7,.07.43.13.84.61,1s.74-.11.7-.47c-.3-2.41,1-.88,1.62-.62,1.95.88,3.46,2.17,3.57,4.54,0,.74.31,1.43,1.22.88,2.43-1.48,3.76,0,5,1.77,1.06,1.59,1.84,3.59,4.39,3a14.33,14.33,0,0,1,4.89,6.65,1.33,1.33,0,0,0,1.52,1c.77-.07.93-.85.88-1.52a6.83,6.83,0,0,0-.42-1.41c2.31,1.48,2.72,3.75,2.4,6.2-.22,1.7-.71,3.36-1.08,5-.61-1.69.37-3.19.55-4.79,0-.43.05-.86-.48-1a.61.61,0,0,0-.8.69c.5,3.05-1.84,5.45-1.94,8.3a12,12,0,0,1-1.64,5.39c-2,3.7-2.44,7.86-3.42,11.85-.14.56-.49,1.5.72,1.89a18.81,18.81,0,0,0,1.21-5.05c0-.51.07-1,.72-1.11a.65.65,0,0,1,.71.56c.21.87.33,2.15,1.59,1.56.91-.43.32-1.62.3-2.5-.05-1.9-.89-3.83.17-5.7.28,3.3.31,6.63,1.21,9.86.24.88.33,2,1.42,2.12s1.48-.91,1.94-1.67a15.59,15.59,0,0,0,2.68-7.67c.09-3.15.39-3.31,3.59-2.4a36.71,36.71,0,0,0,11.78,1.67,14.51,14.51,0,0,0,4.39-.68,6.54,6.54,0,0,1,7.59,2.14c1.63,2,4,3.27,5.18,5.62-2.33-1.91-4.72-3.76-7-5.76a3.56,3.56,0,0,0-3.56-1c-5.7,1.28-11.37,1.84-17-.58-3-1.26-3.08-.94-3.89,2.15a9.94,9.94,0,0,0-.37,1.19c-.72,5.58-7.1,8.28-7.22,14.18,0,.15-.36.32-.57.44-1.68,1-1.34,2.24-.62,3.61.46.87,1.45,2.1,1.17,2.61-1.7,3.12-.45,7.16-3.19,9.9-.5.5-.79,1.26-.27,1.79.7.7,1.24-.22,1.64-.57a5,5,0,0,0,1.85-5c-.11-.5-.36-1.05.22-1.31.79-.35.94.34,1.14.9.44,1.25,1.34,2.31,1.46,3.69,0,.51.3,1.05.91,1s.53-.75.44-1.21a7.07,7.07,0,0,0-.52-1.66c-1.42-3-3.09-5.87-1.4-9.3.13-.27,0-.66,0-1a32.88,32.88,0,0,1,4.71-13c1.1-1.81,2.14-3.37,2.31-5.48.15-1.89,1.34-1.84,2.68-1.24a15.28,15.28,0,0,0,6.3,1.16,37.78,37.78,0,0,0,9.62-.95c1.63-.41,2.95-.13,3.14,2a6.61,6.61,0,0,0,3.49,5.16c.54.33,1.35,1,1.29,1.43-.47,2.95,2,4,3.57,5.37,2.74,2.36,4.91,5.39,8.42,6.88,2.35,1,3.41.88,4.54-1.42a1.58,1.58,0,0,1,2.07-.86c.89.23,1.12.76.92,1.68a6.57,6.57,0,0,0,.23,2.45c.45,2.67.4,5.47-1.3,7.6-3.91,4.91-7.57,10.08-13.22,13.35-2,1.14-3.73,1.65-5.86.88s-4.18-1.59-6.31-2.25c-3.85-1.19-4.82-1.09-6.52.51,4.76.15,8.78,2.16,12.93,3.75a3.23,3.23,0,0,0,3.09-.14c1.88-1.19,3.91-2.11,5.75-3.41,1.4-1,2.28-2.71,4.15-3-2.65,3.87-6.7,5.74-10.82,7.46a3.65,3.65,0,0,1-2.91-.23c-.75-.35-1.55-.61-2.28-1a17.62,17.62,0,0,0-14.65-1.31c-1.51.53-3.13,1.18-4.84.68,1.4-1.45,4-.26,5.53-2.67-2,.31-3.48.63-5,.78-3.94.39-7.78.44-10.65-3-.67-.82-1.34-1.88-2.43-2.07-5.43-1-7.47-1.61-10.77,3.38a5.92,5.92,0,0,1-.85.91c-6.21,6.05-13.55,10.15-22.11,11.4-3,.44-6.13,1.38-9.29.78.36-.54.48-.95-.24-1.41-2.42-1.54-4.68-.79-7,.3-.49-.83-1.16-1.54-1.65-.15-.36,1-1.6,1.83-1,3.15a.76.76,0,0,0,1,.39c1.43-.59,1.35-1.93,1.51-3.14,0-.08,0-.16,0-.24l1.8,1.06c.14,1.3,1,1.42,2.1,1.47,1.76.09,3.55-.3,5.28.26-2.24,1-4.56.39-6.84.3-1.57-.06-2.09.38-1.75,2a3.74,3.74,0,0,1-3.19,4.71,54.91,54.91,0,0,1-12.1,1.18c0-1.73-1.09-1.54-2.19-1.31-2.89.61-5.83.94-8.7,1.52-1.67.33-3.87-.75-5.1,1.33H1165c0-.82-.53-.72-1.16-.81-2-.29-4.23-.94-5-2.85s-1.72-2.41-3.33-3.27c-6.39-3.39-12.95-3-19.37-.94-6.05,1.93-11.94,4.21-18.4,4.45a4.28,4.28,0,0,0-4.28,3.42Zm77.77-191c0-.72-.61-.79-1.13-1-2.05-.91-4.11-.4-6.11.07a37.62,37.62,0,0,0-11.19,4.49c-1.74,1.07-3,3.55-5,.29-.38-.62-1.55-.52-2.3,0-.51.39-.4.75.08,1.19,2.58,2.39,4.91,5,8.27,6.49s7.4,1.37,10.22-.9c.6-.48,1.75-1,1.69,0-.13,2,1.67,2.78,2.1,4.42A15,15,0,0,0,1188,380a58.2,58.2,0,0,1,6.67,10.17,3.74,3.74,0,0,0,2.73,2.13c.15-2.08-1.54-3.18-2.07-4.77-.32-1-.49-1.76.61-2.31s1.74-.11,2.18.88c1,2.2,2,4.39,2.88,6.62.24.59.17,1.63,1,1.39s.41-1.2.21-1.88c-1.13-3.79-3.46-7.11-4.14-11.09-.17-1-1-1.87-1.26-2.92-.22-.76-.92-1.57-1.91-.93-1.69,1.08-2-.14-2.24-1.3a67.27,67.27,0,0,0-2-8c-.3-1-.33-2.15-1.46-2.38-1.43-.29-.77,1.6-1.89,2.09-.23-1.08-.4-2.1-.66-3.09-.14-.53,0-1.54-.59-1.49-1.22.1-2.3,1-3.69.57-.3-.09-.3.84-.35,1.32s-.26,1-.82,1.11c-.16,0-.45-.18-.56-.36a4,4,0,0,1,3.07-5.9C1185.37,359.85,1187.06,359.89,1188.77,359.89Zm23.2,94c-1.72-.42-3.18.46-4.14,2.07s.08,2.95.87,4.33c1.25,2.17,3.61,3.38,4.79,5.59,1.09,2,3,2.76,5.1,3,2.3.26,2.76-.27,2-2.43-.86-2.36-2-4.51-2.33-7.17C1217.8,455.71,1215.23,453.91,1212,453.91Zm28.06,5.16c-1.74.42-.56,3.22-2.86,2.25-.56-.24-1.13-.65-1.49.06s.22,1.3.78,1.64a28.2,28.2,0,0,0,3.43,1.9c3.72,1.66,3.9,2.34,1.28,5.49-.11.13-.26.21-.36.34-1.25,1.46-1.15,1.85.65,2.42.58.18.5.58.4,1a25.27,25.27,0,0,1-1.07,4.07c-1.76,4.07-2.36,8.45-3.53,12.67-.13.46-.44,1,.22,1.25s.88-.39,1-.89c.74-5.36,3.3-10.23,4.14-15.57.44-2.77.13-5.78,2.48-8.06a1.45,1.45,0,0,0-.66-2.57C1241.2,464.34,1239.3,462.77,1240,459.07Zm-27.53,20.52c-.1-5.11-2-10-4.72-14.73-.86-1.51-1.58-3.11-3.17-4.07-.78-.47-1.47-.46-1.88.38s-.37,1.53.7,1.7c1.52.24,2.18,1.39,2.87,2.53a33.85,33.85,0,0,1,3.66,8.34,18.05,18.05,0,0,1,1.07,6.59c-.07.72-.1,1.81.86,1.74s.45-1.2.61-1.85A5,5,0,0,0,1212.5,479.59Zm-19.27,57.61a12.46,12.46,0,0,1-3.35,6c-.59.56-1.42,1.31-.82,2.3.33.55,4.17.13,4.17-.4C1193.22,542.44,1195.77,539.79,1193.23,537.2Zm28.06-112.75c.92,1.68,2.18,2.47,2.45,4,.14.75,1.73.95,2.14.67,1.29-.87.44-2.38.6-3.62a1.13,1.13,0,0,0-.81-1.35c-.13,0-.39,0-.42.14C1224.34,426.53,1223,424.73,1221.29,424.46Zm26.18,71.22c-.11-1.62.14-3.18-1.05-4.43a.81.81,0,0,0-.57.3,3.73,3.73,0,0,0,1,4S1247,495.61,1247.47,495.68Zm-52.8-126.16c-.08.56-.15.86-.16,1.16a2.07,2.07,0,0,0,1.4,2.11c.22.09.82-.1.84-.22a2.52,2.52,0,0,0-1-2.14A13.58,13.58,0,0,0,1194.67,369.52Z" transform="translate(-992.87 -357.81)"/><path class="cls-3" d="M1159,550.91h-43l-.49-.31c.72-1,1.89-1.23,3-1.61a3.43,3.43,0,0,0,3-.27,7.79,7.79,0,0,0,4.07-.25.69.69,0,0,0,1-.14l1-.21a6.46,6.46,0,0,0,4.81-1.6l.69-.25c4-1.52,8.26-2.13,12.43-3.06l3.12.07a31.22,31.22,0,0,1,7.95,3.86l2.33,2.3C1158.84,549.94,1159.55,550.35,1159,550.91Z" transform="translate(-992.87 -357.81)"/><path class="cls-1" d="M1118.47,549c-1.07.38-2.24.58-3,1.61a.68.68,0,0,0,0,.31h-2a4.28,4.28,0,0,1,4.28-3.42c6.46-.24,12.35-2.52,18.4-4.45,6.43-2,13-2.45,19.37.94,1.61.86,2.64,1.43,3.33,3.27s2.94,2.56,5,2.85c.64.09,1.15,0,1.16.81h-3.5a3,3,0,0,0-2.69-1.46l-2.33-2.3c-1.65-2.56-5.45-4.41-7.95-3.86l-3.12-.07c-4.13-.53-7.94.72-11.73,2.12a1.07,1.07,0,0,0-.7.94l-.69.25a11.32,11.32,0,0,0-4.81,1.6l-1,.21c-.42-.56-.73-.41-1,.14a7.79,7.79,0,0,1-4.07.25A2.37,2.37,0,0,0,1118.47,549Z" transform="translate(-992.87 -357.81)"/><path class="cls-1" d="M1167.5,550.91c1.23-2.08,3.43-1,5.1-1.33,2.87-.57,5.82-.91,8.7-1.52,1.11-.23,2.24-.42,2.19,1.31-2.45.77-5.11.49-7.5,1.54Z" transform="translate(-992.87 -357.81)"/><path class="cls-2" d="M1158.81,549.45a3,3,0,0,1,2.69,1.46H1159C1159.55,550.35,1158.84,549.94,1158.81,549.45Z" transform="translate(-992.87 -357.81)"/><path class="cls-2" d="M1115.5,550.91a.68.68,0,0,1,0-.31l.49.31Z" transform="translate(-992.87 -357.81)"/><path class="cls-2" d="M1098.55,400.95c1.56,1.54,3.21,1.79,5,.42,1.08-.81,1.77-.23,2.42.72.34.5.81,1.32,1.54,1s.36-1.13.17-1.74-.32-1,.27-1.29a1.18,1.18,0,0,1,1.49.61,4.18,4.18,0,0,1,0,4.26c-.25.56-1.25,1.09-.6,1.67a2,2,0,0,0,2.55-.06c1.67-1.55,1.84-.85,2.23,1a25.63,25.63,0,0,0,2.64,7.47,3.45,3.45,0,0,1-.26,4.35c-2.82,3.44-4,7.61-5,11.83a13.72,13.72,0,0,1-1,2.55c-.87,1.9-1.86,2.67-4,1.19a8.08,8.08,0,0,0-6.27-.89c-1.55.32-2.9.82-4.47,0-.8-.42-1.37.17-1.34,1.18a5.37,5.37,0,0,0,4.24,5.36c2.35.65,3.8,1.95,3.73,4.55a1.89,1.89,0,0,0,.14,1c2.5,4.13.65,8-.63,11.94-1,2.94-1.82,3.4-4.53,2-1.74-.92-2.13-.36-2,1.22.17,1.84-1.27,2.6-2.26,3.65-.5.53-1,.57-1.26-.29-.55-1.59-1.4-1.1-2.17-.21-1.71,2-3.94,3.47-5.19,6s-3.09,2.37-4.48-.13a141.65,141.65,0,0,1-7.44-15c-.25-.6-.34-1.43-1.23-1.32-2.55.31-3.77-1.86-5.57-2.93-1.63-1-1.72-2.35-.46-3.74a32.36,32.36,0,0,0,5.67-9c1.65-3.8,4.64-4.42,7.72-1.71,1.45,1.28,2.5,1,3.58-.33.64-.76,1.21-1.58,1.86-2.33a3,3,0,0,1,3.77-.94,6.17,6.17,0,0,0,3.84.6c2.31-.51,2.81-1.47,1.17-3.21a23,23,0,0,0-4.65-3.71c-2.32-1.43-4.27-3.41-6.93-4.34a2.82,2.82,0,0,0-3.35.69q-8.09,8-16.31,15.81c-1.59,1.51-3.06,3.28-5.42,3.75a1.64,1.64,0,0,0-1.3,1.4,45.23,45.23,0,0,0-.34,8.21c.23,2.11,0,3.73-1.47,5.21a5.46,5.46,0,0,0-1,1.12c-.45.85-.65,2,.22,2.49,1.19.72,1.1-.77,1.58-1.29.77-.84.56-2.85,2.25-2.49s1.2,2.22,1.09,3.39c-.72,7.86-.44,15.73-.42,23.6,0,2.46-1.67,3.59-3,5.13-2.19,2.58-4.31,5.22-6.65,8.05-1.85-3.64-.72-7.82-3.32-11.28-.08,6.06,3.76,12-.73,17.84-1.21-7-3.35-13.65-2.08-20.68.81-.21.65.56.89.89s.56.72,1,.46a1,1,0,0,0,.28-.86c-.95-2.92-.51-6.16-2-8.93-1.17-2.2-1.83-4.42-1-6.89l0,0c2.16-1,4.93-5.75,4.5-7.79,0-.12-.43-.16-.65-.24,1.95-7.22,7.21-12.73,10.1-19.47.67,0,1.41.08,1.77-.6.85-1.63,2.52-2.31,3.8-3.44,3.82-3.38,7.62-6.81,10.2-11.32.43-.76,1.15-1.43-.37-1.68a20.86,20.86,0,0,1,3.46-5.23c1.26,1.57,1.9,0,2.07-.67,1-3.76,3.91-5,7.17-6.49,4.41-2,8.78-4.27,12.38-7.69a8.54,8.54,0,0,1,4-2.4Z" transform="translate(-992.87 -357.81)"/><path class="cls-2" d="M1003.38,482.2c.18.29.51.68.76.45,1.52-1.4,2.21-.3,2.27,1,.16,3.91,2.83,6.2,5.47,8.24,2.1,1.63,2.7,2.74.49,4.53-.14.12-.12.43-.2.78a2.47,2.47,0,0,0,2.63-1.86c.67-1.79,1.51-2.59,3.72-2s4.48,1.2,6.78-.17c1-.62,1.46.38,1.75,1.41,1.12,4,.62,8.1,1.5,12.05s.74,8.07,1.42,12.06a6.43,6.43,0,0,1,0,1.25c0,.57.09,1.3-.7,1.39s-1.17-.49-1.27-1.23c-.18-1.39-.38-2.79-.54-4.18a1.45,1.45,0,0,0-1-1.34c0,1.39,0,2.64,0,3.9,0,1.47-.84,1.88-1.91,1.15-1.3-.89-2.88-.64-4.22-1.4-1.13-.63-1.43.09-1.12,1.23.68,2.56,1.92,4.46,4.74,5.1,1.67.38,3.1,1.5,4.67,2.21s1.08,3.51,3,4.59c-1.34,1-2,0-2.82-.25-5.39-2-10.73-3.94-15.25-7.68-1.12-.93-2.95-1-4.53-1l-.24-.18.18.24.52.89a3.86,3.86,0,0,1-2.69-1.31,3.61,3.61,0,0,0,.66-.24c-.26-1.55-3.3-2.81-4.67-2a11.75,11.75,0,0,1-3.34-2.28c.18-1.48-.54-1.84-1.83-1.48-.58.15-.88-.2-1.11-.65.26-.11.75.09.64-.49a.27.27,0,0,0-.17-.17c-.58-.11-.39.38-.49.64a20.65,20.65,0,0,0-2.62-1.24c-1.24-.35-1.12-1.61-.75-2.7.71.32-.05,1.58,1.09,1.69a22.18,22.18,0,0,1,.65-5.34c2.22-7.17,6-13.71,8.33-20.85.3-.95,1-2.13-.74-2.54A2.27,2.27,0,0,1,1003.38,482.2Z" transform="translate(-992.87 -357.81)"/><path class="cls-1" d="M1296.52,524.41c-1.87.32-2.75,2-4.15,3-1.84,1.3-3.87,2.22-5.75,3.41a3.23,3.23,0,0,1-3.09.14c-4.15-1.58-8.16-3.6-12.93-3.75,1.71-1.61,2.67-1.7,6.52-.51,2.13.66,4.22,1.48,6.31,2.25s3.88.27,5.86-.88c5.65-3.27,9.31-8.44,13.22-13.35,1.7-2.13,1.75-4.94,1.3-7.6a6.57,6.57,0,0,1-.23-2.45c.2-.91,0-1.45-.92-1.68a1.58,1.58,0,0,0-2.07.86c-1.14,2.3-2.19,2.42-4.54,1.42-3.51-1.5-5.68-4.53-8.42-6.88-1.62-1.39-4-2.42-3.57-5.37.06-.4-.74-1.09-1.29-1.43a6.61,6.61,0,0,1-3.49-5.16c-.19-2.08-1.51-2.37-3.14-2a37.78,37.78,0,0,1-9.62.95,15.28,15.28,0,0,1-6.3-1.16c-1.34-.6-2.53-.65-2.68,1.24-.17,2.12-1.21,3.68-2.31,5.48a32.88,32.88,0,0,0-4.71,13c0,.33.1.72,0,1-1.69,3.44,0,6.34,1.4,9.3a7.07,7.07,0,0,1,.52,1.66c.09.46.25,1.1-.44,1.21s-.87-.44-.91-1c-.12-1.38-1-2.44-1.46-3.69-.2-.56-.35-1.25-1.14-.9-.58.25-.33.81-.22,1.31a5,5,0,0,1-1.85,5c-.4.35-.94,1.27-1.64.57-.53-.53-.24-1.29.27-1.79,2.74-2.74,1.48-6.78,3.19-9.9.28-.51-.72-1.74-1.17-2.61-.72-1.38-1.06-2.65.62-3.61.21-.12.57-.29.57-.44.12-5.89,6.5-8.6,7.22-14.18a9.94,9.94,0,0,1,.37-1.19c.81-3.09.94-3.4,3.89-2.15,5.67,2.42,11.34,1.86,17,.58a3.56,3.56,0,0,1,3.56,1c2.26,2,4.64,3.85,7,5.76l.15,0,0,.16c.9,2.5,4.25,2.89,4.89,5.66.06.25.72.54,1.07.5,1.94-.22,3.39,1,5,1.63l.54.43a1.42,1.42,0,0,0,1.52,1.05l1,.74c1,1,2.3,1.24,3.51,1.75l0,0c0,2.92-.13,5.84,0,8.75a9.77,9.77,0,0,1-3.23,7.77c-1.38,1.38-3.22,2.42-3.81,4.48Zm-8.2-28.92c-.08,0-.39,0-.5.2-.32.43,0,.76.3,1.06a10.06,10.06,0,0,0,4.51,3c.9.28,2,.3,1.63,1.9-.29,1.32,1.09,1.47,2,1.72,1.29.36,1.48-1,1.83-1.63.56-1-.73-1-1.25-1.37a16.51,16.51,0,0,0-3.37-2.09C1291.65,497.55,1290.43,495.88,1288.32,495.5Z" transform="translate(-992.87 -357.81)"/><path class="cls-1" d="M1205.43,539.49c3.16.6,6.27-.34,9.29-.78,8.56-1.25,15.9-5.35,22.11-11.4a5.92,5.92,0,0,0,.85-.91c3.3-5,5.34-4.35,10.77-3.38,1.09.2,1.76,1.25,2.43,2.07,2.87,3.49,6.71,3.43,10.65,3,1.53-.15,3-.47,5-.78-1.52,2.41-4.13,1.22-5.53,2.67l-1.11.17a4.3,4.3,0,0,0-3.33,0,1.9,1.9,0,0,1-1.57-.26c-.41-.71-1.06-.51-1.68-.45l-.81-.42a.86.86,0,0,0-1-.64l-.48-.31a.85.85,0,0,0-1-.7l-2-1.79c-3.93-4.48-7.26-1.74-10,2.88a12.64,12.64,0,0,1-3.18,2.9.79.79,0,0,0-.88.71,1.34,1.34,0,0,1-1.06.78.82.82,0,0,0-.94.65l-.54.35a4.26,4.26,0,0,0-3,1.71,2.11,2.11,0,0,1-1.49.81,4.73,4.73,0,0,0-3,1.54l-1,.46-5,1.51-.7.09c-.8-.06-1.65-.39-2.3.41a1.26,1.26,0,0,1-1.21.07c-1.77.06-3.61-.65-5.28.46l-1.11.2c-1.74-.56-3.52-.17-5.28-.26-1.06-.05-2-.17-2.1-1.47Z" transform="translate(-992.87 -357.81)"/><path class="cls-1" d="M1237.22,451.89c-1.23-1.81-2.57-3.24-5-1.77-.91.55-1.19-.13-1.22-.88-.12-2.37-1.63-3.66-3.57-4.54-.57-.26-1.92-1.79-1.62.62,0,.36-.33.56-.7.47s-.54-.53-.61-1c-.43-2.64.86-4.91,2-7,1-1.81,1.08-4.44,4.17-5.51-1,2-1.79,3.6-2.47,5.23-1.43,3.42-.72,5.67,2.2,7.33a15.44,15.44,0,0,1,4.13,2.68,28,28,0,0,0,6.42,3.83c2.86,2.4,5.75,4.77,7.53,8.18a6.83,6.83,0,0,1,.42,1.41c.05.67-.11,1.45-.88,1.52a1.33,1.33,0,0,1-1.52-1,14.33,14.33,0,0,0-4.89-6.65Z" transform="translate(-992.87 -357.81)"/><path class="cls-1" d="M1226.65,416.73a69.39,69.39,0,0,1-8.27-8.33c-5.58-6.55-11.53-12.76-15.18-20.77-1.27-2.8-3.21-5.31-3.61-8.61,1,1.61,2.09,3.21,3.12,4.82,2.7,4.25,5.34,8.54,8.4,12.56l.37.59a.81.81,0,0,0,.62.92l.4.53c1.28,2.71,3.84,4.29,5.72,6.47l.3.47c.57,1.93,2.1,3,3.66,4l.33.49a3.13,3.13,0,0,0,2.19,2.51l.79.71c.2,1.46,2.59,1.94,1.73,3.87Z" transform="translate(-992.87 -357.81)"/><path class="cls-1" d="M1159.62,365.42c2,.1,1.44,1.1.65,2A75,75,0,0,1,1149,378.59a53.55,53.55,0,0,1-9.47,6.33,4.92,4.92,0,0,0-2.58,3.47,24.22,24.22,0,0,1-3.09,7.69c0-4.84.82-9.41,4.63-12.94l.45-.25c.51,0,.92-.09,1.06-.65l.51-.32a2.21,2.21,0,0,0,2-1.17,6,6,0,0,1,2.37-1.39c.58.07,1-.09,1.12-.74l1-.71a.87.87,0,0,0,1-.77l1.85-1.71a22.52,22.52,0,0,0,5.16-5.09Z" transform="translate(-992.87 -357.81)"/><path class="cls-1" d="M1247.49,480.94c-1.06,1.87-.22,3.8-.17,5.7,0,.88.61,2.07-.3,2.5-1.26.59-1.38-.68-1.59-1.56a.65.65,0,0,0-.71-.56c-.65.07-.7.6-.72,1.11a18.81,18.81,0,0,1-1.21,5.05c-1.21-.39-.86-1.33-.72-1.89,1-4,1.43-8.15,3.42-11.85a12,12,0,0,0,1.64-5.39c.1-2.85,2.43-5.24,1.94-8.3a.61.61,0,0,1,.8-.69c.53.1.53.53.48,1-.18,1.6-1.16,3.1-.55,4.79l-.28,2.07,0,2-.07.07a1.39,1.39,0,0,0-.84,1.69l-.17.84a2.67,2.67,0,0,0-.65,2.39Z" transform="translate(-992.87 -357.81)"/><path class="cls-1" d="M1002.45,484.42c1.75.41,1,1.59.74,2.54-2.29,7.14-6.11,13.68-8.33,20.85a22.18,22.18,0,0,0-.65,5.34c-1.15-.11-.39-1.37-1.09-1.69a6.87,6.87,0,0,1,.43-3.57,1,1,0,0,0,.36-1.17,39.34,39.34,0,0,1,3.78-10.46,41.75,41.75,0,0,0,3.78-8.35,2.2,2.2,0,0,0,.69-2.45Z" transform="translate(-992.87 -357.81)"/><path class="cls-1" d="M1069.36,423.35c1.53.26.81.92.37,1.68-2.59,4.51-6.38,7.94-10.2,11.32-1.28,1.13-2.95,1.81-3.8,3.44-.36.69-1.1.63-1.77.6a6.72,6.72,0,0,1,2.77-4C1061.92,433,1065.42,427.95,1069.36,423.35Z" transform="translate(-992.87 -357.81)"/><path class="cls-2" d="M1060.78,536.54c.36-.22.84-.57.6-1-1.48-2.34.79-2.15,1.66-2.08,3.26.26,6.64.38,9.17,3,.59.61,1.4,1.27.95,2.06s-1.35.35-2.07.12c-2.28-.75-4.56-1.49-6.82-2.29-1-.36-1.95-.6-2.4.76A1.27,1.27,0,0,1,1060.78,536.54Z" transform="translate(-992.87 -357.81)"/><path class="cls-2" d="M1040,467.93c-1.08,0-1.33-.76-1.59-1.6-.14-.46-.53-1-1.1-.6-.4.25-.25.75,0,1.11a2.61,2.61,0,0,1,.71,1.81c-.15,1,.6,2.5-.54,2.91a3.54,3.54,0,0,1-3.22-.9c-1-.87-1.7-2.09-3.18-2.23.18-.63,1-1.19,1.17-1,.88,1.26,1.6,1.22,2.84.36s1.24-2,1.47-3.17c0-.13.2-.24.28-.34,1.59.38,2,2.09,3.21,2.78q0,.42,0,.85Z" transform="translate(-992.87 -357.81)"/><path class="cls-2" d="M1298,522.9c.6-2.06,2.44-3.1,3.81-4.48a9.77,9.77,0,0,0,3.23-7.77c-.16-2.91,0-5.83,0-8.75,1.32,2.29.27,4.8.68,7.18C1306.84,515.74,1302.51,519.38,1298,522.9Z" transform="translate(-992.87 -357.81)"/><path class="cls-2" d="M1298.44,497.92c-1.64-.64-3.09-1.85-5-1.63-.35,0-1-.25-1.07-.5-.64-2.77-4-3.15-4.89-5.66C1291.22,492.57,1295.31,494.57,1298.44,497.92Z" transform="translate(-992.87 -357.81)"/><path class="cls-2" d="M1241,451.41a28,28,0,0,1-6.42-3.83c.71-.6-.05-1.6.71-2.39Z" transform="translate(-992.87 -357.81)"/><path class="cls-2" d="M1238,528.5c2.71-4.62,6-7.36,10-2.88-.92.07-1.49-.62-2.2-1-1.81-1-3.31-.76-4.52,1A7.21,7.21,0,0,1,1238,528.5Z" transform="translate(-992.87 -357.81)"/><path class="cls-1" d="M1040,467.89q0-.42,0-.85l3.85-7.19c.23.08.63.12.65.24C1044.95,462.13,1042.18,466.88,1040,467.89Z" transform="translate(-992.87 -357.81)"/><path class="cls-2" d="M1121,402.37c-.83-.39-.45-1.72-1.5-1.94l0,0-.44-.44-.05-.07q0-.88,0-1.76a3.86,3.86,0,0,1,2.88,2.09C1122.56,401.29,1122.3,402,1121,402.37Z" transform="translate(-992.87 -357.81)"/><path class="cls-2" d="M1105,398.8c-1.47,1.41-2.86,3.53-4.72.37-.2-.34-.84-.43-1.27-.64Z" transform="translate(-992.87 -357.81)"/><path class="cls-2" d="M1218.22,404.92c-1.88-2.18-4.44-3.76-5.72-6.47C1214.61,400.43,1217.25,401.94,1218.22,404.92Z" transform="translate(-992.87 -357.81)"/><path class="cls-2" d="M1227.22,417c.87-1.93-1.53-2.41-1.73-3.87a9.2,9.2,0,0,1,4.27,4.78c-.69-.22-1.37-.4-1.39.7A1.77,1.77,0,0,1,1227.22,417Z" transform="translate(-992.87 -357.81)"/><path class="cls-2" d="M1155,370.34a22.52,22.52,0,0,1-5.16,5.09A10.64,10.64,0,0,1,1155,370.34Z" transform="translate(-992.87 -357.81)"/><path class="cls-1" d="M1002.79,519.82c1.37-.85,4.41.41,4.67,2a3.61,3.61,0,0,1-.66.24A13.54,13.54,0,0,1,1002.79,519.82Z" transform="translate(-992.87 -357.81)"/><path class="cls-2" d="M1222.18,409.43c-1.55-1-3.09-2.1-3.66-4C1219.89,406.61,1221.5,407.59,1222.18,409.43Z" transform="translate(-992.87 -357.81)"/><path class="cls-2" d="M1208.49,541c1.68-1.11,3.51-.4,5.28-.46C1212.07,541.31,1210.28,541,1208.49,541Z" transform="translate(-992.87 -357.81)"/><path class="cls-2" d="M1218,539.93l5-1.51C1221.62,539.91,1219.84,540,1218,539.93Z" transform="translate(-992.87 -357.81)"/><path class="cls-2" d="M1305,501.88c-1.21-.5-2.56-.73-3.51-1.75C1302.88,500.29,1304.37,500.22,1305,501.88Z" transform="translate(-992.87 -357.81)"/><path class="cls-1" d="M1228.36,418.62c0-1.1.7-.92,1.39-.7l.78,1.36-.24,2.23C1229.52,420.63,1228.52,419.9,1228.36,418.62Z" transform="translate(-992.87 -357.81)"/><path class="cls-2" d="M1256.58,530.19a4.3,4.3,0,0,1,3.33,0A3.24,3.24,0,0,1,1256.58,530.19Z" transform="translate(-992.87 -357.81)"/><path class="cls-2" d="M1224.7,412.43a3.13,3.13,0,0,1-2.19-2.51A5.23,5.23,0,0,1,1224.7,412.43Z" transform="translate(-992.87 -357.81)"/><path class="cls-2" d="M1224,538a4.73,4.73,0,0,1,3-1.54A3.94,3.94,0,0,1,1224,538Z" transform="translate(-992.87 -357.81)"/><path class="cls-2" d="M1228.49,535.62a4.26,4.26,0,0,1,3-1.71A4.35,4.35,0,0,1,1228.49,535.62Z" transform="translate(-992.87 -357.81)"/><path class="cls-2" d="M1128,403.9a4.17,4.17,0,0,1-1.69,3A4.82,4.82,0,0,1,1128,403.9Z" transform="translate(-992.87 -357.81)"/><path class="cls-2" d="M1002.16,485.47a2.2,2.2,0,0,1-.69,2.45A3.72,3.72,0,0,1,1002.16,485.47Z" transform="translate(-992.87 -357.81)"/><path class="cls-2" d="M1247.77,479.83a2.67,2.67,0,0,1,.65-2.39A2.92,2.92,0,0,1,1247.77,479.83Z" transform="translate(-992.87 -357.81)"/><path class="cls-2" d="M1028.65,532.58a1.93,1.93,0,0,1,2.36,1.07A4.45,4.45,0,0,1,1028.65,532.58Z" transform="translate(-992.87 -357.81)"/><path class="cls-2" d="M1142.51,380.74a2.21,2.21,0,0,1-2,1.17A2.07,2.07,0,0,1,1142.51,380.74Z" transform="translate(-992.87 -357.81)"/><path class="cls-2" d="M1230.29,421.51l.24-2.23a3.26,3.26,0,0,1,1.3,2l-1.55.22Z" transform="translate(-992.87 -357.81)"/><path class="cls-2" d="M1249.49,474.85l0-2C1250,473.55,1250.54,474.21,1249.49,474.85Z" transform="translate(-992.87 -357.81)"/><path class="cls-2" d="M1215,540.43c.65-.81,1.5-.47,2.3-.41A2,2,0,0,1,1215,540.43Z" transform="translate(-992.87 -357.81)"/><path class="cls-2" d="M1109,397.92c-.64.74-1.47.44-2.25.39C1107.4,397.62,1108.2,397.79,1109,397.92Z" transform="translate(-992.87 -357.81)"/><path class="cls-1" d="M997.62,516.07c1.3-.36,2,0,1.83,1.48A2.76,2.76,0,0,1,997.62,516.07Z" transform="translate(-992.87 -357.81)"/><path class="cls-2" d="M1300.5,499.4a1.42,1.42,0,0,1-1.52-1.05C1299.79,498.26,1300.17,498.79,1300.5,499.4Z" transform="translate(-992.87 -357.81)"/><path class="cls-2" d="M1098,398.87c-.34.73-1,.53-1.56.5C1096.77,398.61,1097.37,398.69,1098,398.87Z" transform="translate(-992.87 -357.81)"/><path class="cls-2" d="M1253.33,529.48c.62-.07,1.27-.26,1.68.45A1.27,1.27,0,0,1,1253.33,529.48Z" transform="translate(-992.87 -357.81)"/><path class="cls-1" d="M1230.28,421.52l1.55-.22.58,1-1.55.22Z" transform="translate(-992.87 -357.81)"/><path class="cls-2" d="M1025.49,472.48c-.77.73-1.28.57-1.52-.45Z" transform="translate(-992.87 -357.81)"/><path class="cls-2" d="M1124.87,409.09c-.14.54-.52.84-1,.61s-.33-.81-.34-1.26A1.72,1.72,0,0,0,1124.87,409.09Z" transform="translate(-992.87 -357.81)"/><path class="cls-2" d="M1248.58,476.6a1.39,1.39,0,0,1,.84-1.69C1249.18,475.5,1249.17,476.19,1248.58,476.6Z" transform="translate(-992.87 -357.81)"/><path class="cls-2" d="M1028.51,470.23a.86.86,0,0,1-1,.69A.83.83,0,0,1,1028.51,470.23Z" transform="translate(-992.87 -357.81)"/><path class="cls-2" d="M1234,532.12a.79.79,0,0,1,.88-.71C1234.76,531.88,1234.53,532.19,1234,532.12Z" transform="translate(-992.87 -357.81)"/><path class="cls-2" d="M1146,378.62c-.11.65-.54.81-1.12.74A1.18,1.18,0,0,1,1146,378.62Z" transform="translate(-992.87 -357.81)"/><path class="cls-2" d="M1117.68,397.83c-.46.09-.91.14-1.18-.38C1117,397.16,1117.27,397.79,1117.68,397.83Z" transform="translate(-992.87 -357.81)"/><path class="cls-2" d="M1212.1,397.92a.81.81,0,0,1-.62-.92C1211.91,397.16,1212.22,397.4,1212.1,397.92Z" transform="translate(-992.87 -357.81)"/><path class="cls-2" d="M1250,527.41a.85.85,0,0,1,1,.7A.87.87,0,0,1,1250,527.41Z" transform="translate(-992.87 -357.81)"/><path class="cls-2" d="M993.92,506.72a1,1,0,0,1-.36,1.17C993.23,507.36,993.52,507,993.92,506.72Z" transform="translate(-992.87 -357.81)"/><path class="cls-2" d="M1251.49,528.42a.86.86,0,0,1,1,.64A.85.85,0,0,1,1251.49,528.42Z" transform="translate(-992.87 -357.81)"/><path class="cls-2" d="M1140,382.24c-.14.56-.55.69-1.06.65C1139.17,382.44,1139.46,382.12,1140,382.24Z" transform="translate(-992.87 -357.81)"/><path class="cls-2" d="M1020.3,529.49c.55-.1,1,0,1.22.6A1.15,1.15,0,0,1,1020.3,529.49Z" transform="translate(-992.87 -357.81)"/><path class="cls-2" d="M1026.71,532a1.1,1.1,0,0,1,1.31.45A1.06,1.06,0,0,1,1026.71,532Z" transform="translate(-992.87 -357.81)"/><path class="cls-2" d="M1232,533.55a.82.82,0,0,1,.94-.65C1232.81,533.4,1232.54,533.68,1232,533.55Z" transform="translate(-992.87 -357.81)"/><path class="cls-2" d="M1148,377.14a.87.87,0,0,1-1,.77A1,1,0,0,1,1148,377.14Z" transform="translate(-992.87 -357.81)"/><path class="cls-2" d="M1137.5,432.42c-.35,1.26.86,3.57-.58,4.12-1.28.49-1.26-2.26-2.52-3.09a5.76,5.76,0,0,1-1.5-2c-.93-1.58-1.65-3.06-.74-5.09,1.08-2.39,1.51-5.06,2.44-7.52,1.79-4.74,4.38-6.08,9.09-3,2.76,1.81,3.07,1.72,4.63-1.08,3-5.34,4.17-6.41,9.31-4.93a4.52,4.52,0,0,0,2-.08c3.07-.58,3.78-.27,4.82,2.65s2.5,5.28,6.33,5.1c2.23-.11,3.88,1,4.7,3.57,1.47,4.53,3.81,8.76,4.74,13.5a5.51,5.51,0,0,0,2.11,3.32c2.72,2,3.78,4.92,4.21,8.14a3.78,3.78,0,0,0,.33,1.44c2,3.2.41,5.94-.91,8.83-1.11,2.44-2.94,4.53-3,7.52a8.26,8.26,0,0,0,3.63,7.24c1.67,1.23,2.85,2.4,3.11,4.71s2.17,4,3.74,5.76a5.3,5.3,0,0,1,1.29,5.5,5.22,5.22,0,0,0,3.91,6.73,19.45,19.45,0,0,1,5.42,2.36c2.4,1.39,1.93,4.42,1.81,6.79-.23,4.7-1.19,9.37-1.23,14.06,0,3.47-1.64,6.55-1.64,9.95,0,.33-.1.73-.51.74a1.34,1.34,0,0,1-1.38-.85c-1.13-3-2.92-5.81-3.56-9a29.82,29.82,0,0,0-1.2-3.78c-1.62-4.79-5.81-7.65-8.64-11.53-4.6-6.3-11.08-11-15.91-17.11-2.76-3.52-5.34-7.19-7.85-10.9a14.41,14.41,0,0,0-2.88-2.69,1.72,1.72,0,0,0-2.46.25c-2.57,2.28-5.77,2.24-8.92,2.33a1.75,1.75,0,0,1-1.34-.48c-1.6-2.72-4.76-3.37-6.9-5.36-.43-.4-1.1-.92-.86-1.42,1.16-2.48,1.07-5.36,2.32-7.71.71-1.33,1.67-2.66,2.53-4a3.52,3.52,0,0,0,0-4c-1.9-3.29-3.27-6.88-5.83-9.8-1.14-1.3-1.16-3-1-4.74.21-2.6.32-5.22.43-7.83,0-.61.2-1.56-.77-1.52s-.68,1-.71,1.6C1137.48,430.18,1137.5,431.18,1137.5,432.42Z" transform="translate(-992.87 -357.81)"/><path class="cls-2" d="M1149.45,502.63c.25-3.23.43-6.31,2.78-8.68a1.93,1.93,0,0,0,.49-2.24c-.43-1.28.39-2.42.82-3.55a8.09,8.09,0,0,0-1.45-8.93c-1.33-1.5-1.34-2.61.91-3.08,1.05-.22,2.09-.53,3.11-.85,3.29-1,3.25-1,3.85,2.4a47.5,47.5,0,0,0,3.71,11.67c1.22,2.66,1.26,5.82,3.36,8.14a2.94,2.94,0,0,1,.46.88c.46,1.14,2.56,2.15,1.44,3.21-1,.9-3,.55-4.53,0-2.23-.85-4.49-1.65-6.62-2.7-1.4-.69-2-.32-2.35,1a20.29,20.29,0,0,1-2.66,5.85c-.49.74-1.06,1.71-2.1,1.53s-.7-1.38-1-2.1A10.34,10.34,0,0,1,1149.45,502.63Z" transform="translate(-992.87 -357.81)"/><path class="cls-2" d="M1029.75,469.89c1.4-.62,1.84-.6,2.07,1.35.58,5.05,3.43,9.43,4.94,14.23,1.85,5.91,3.72,11.82,4.25,18.05a1.28,1.28,0,0,1,0,.5c-1.09,3.18-2.36,6.34-.6,9.72.18.35-.22.81-.65.93s-.72-.26-.91-.64a1.34,1.34,0,0,1-.2-.45c-.28-4.12-2.31-7.92-2.16-12.13.16-4.61-2.28-8.56-3.55-12.81-.5-1.65-2-2.29-3.61-2.7a29.69,29.69,0,0,0-9.06-.58c-.87,0-2.54.82-2.57-.9,0-1.3,1-2.87,2.36-2.79,1.78.1,1.3-.87,1.47-1.77.4-2.11,0-4.24.23-6.37a5.34,5.34,0,0,0-1.45-4.11,5.31,5.31,0,0,1-1.11-4.91c2.34,3.79,2.75,8.17,5.87,11.37a9.79,9.79,0,0,1,3.56-4.05c.66-.43,1.52-.84,1.13-1.93Z" transform="translate(-992.87 -357.81)"/><path class="cls-2" d="M1011.92,467.47c-1.19.59-.79,1.45-1.25,1.95-.7.76-1.54,1.61-2.51,1.31-1.17-.36-.54-1.48-.41-2.34.74-5,2.16-9.93,1.61-15.72,4.92,4.89,4,11.39,6.8,16.83.21-.73.28-.95.34-1.17.2-.73-.46-2.11.59-2.08,1.37,0,.82,1.53.88,2.44a1.94,1.94,0,0,1-.4,1.12c-.86,1.22-.6,1.79.86,1.34,1.09-.34,1.78.06,1.86,1,.26,2.91,1,5.93-1.35,8.48-.73.78-1.09.75-1.69-.08a7.29,7.29,0,0,1-.91-5.44c.32-2.17-.33-3.36-2.06-4.24C1013,470.16,1011.77,469.43,1011.92,467.47Z" transform="translate(-992.87 -357.81)"/><path class="cls-2" d="M1043,531.63c1.46-3.06,1.69-5.37.1-8.14a11.51,11.51,0,0,1-.9-7.72,2,2,0,0,1,1.76-1.84,3.09,3.09,0,0,1,2.7,1c.72.85.25,1.64-.28,2.48a8,8,0,0,0-1.61,4.48c1.83-.77,1.26-3,3-3.83a8.9,8.9,0,0,1,0,4.66,12.46,12.46,0,0,0-.19,5.19c.28,1.7,0,4.27,3.21,3.84.57-.08,1.68.65,2.19,2.17-2.78,0-5.37-.09-8,0-1.51.08-3-.54-4.52,1.11-.78.87-2.92-.26-4.29-1a1,1,0,0,1,.09-.87c1.46-1.07,2.92-2.16,4.48-3.08C1041.89,529.44,1042.52,530.41,1043,531.63Z" transform="translate(-992.87 -357.81)"/><path class="cls-2" d="M1174.38,492.13a7.77,7.77,0,0,1,.85.77c4,4.79,9,8.71,12.76,13.77a23.43,23.43,0,0,1,3.28,5.81c.23.62.53,1.37-.26,1.75s-1.23-.24-1.52-.88c-2.48-5.44-7.35-8.81-11.29-13-2-2.15-3.14-4.8-4.54-7.31C1173.42,492.66,1173.45,492.06,1174.38,492.13Z" transform="translate(-992.87 -357.81)"/><path class="cls-2" d="M1119.52,400.43c.27,3.43,2.18,6.33,3.11,9.56.44,1.52.1,2.2-1.18,2.68-1.75.66-1.37-.91-1.65-1.69-.61-1.69-.19-3.46-.3-5.19-.05-.82.13-1.7-.78-2.2-1.12-.61-1,1.13-2,1a9.39,9.39,0,0,0-.19-1.16c-.22-.78.56-2.26-.71-2.18-.87.06-2.86-1.13-2.93,1.28a.69.69,0,0,1-.91.62c-.5-.18-.34-.64-.28-1,.62-4,3.12-4.81,7.32-2.22l.05.06.44.44Z" transform="translate(-992.87 -357.81)"/><path class="cls-2" d="M1188,513.66c-4.27-2.39-8.57-3.76-10.87-8a3.53,3.53,0,0,1-.61-2.36c.24-1.28,1.23-2,2.05-.93,2.76,3.52,6.57,6,9,9.8A7.16,7.16,0,0,1,1188,513.66Z" transform="translate(-992.87 -357.81)"/><path class="cls-2" d="M1118.51,410.24a2.71,2.71,0,0,1,0,.7c-.41,1.1,1,3.33-1,3.19-1.71-.12-2.19-2.59-1.85-4.08.3-1.32.27-4,1.89-3.74C1119.44,406.58,1118.07,409,1118.51,410.24Z" transform="translate(-992.87 -357.81)"/><path class="cls-2" d="M1017.89,460.81c-.14.59-.4,1-.84.89-.76-.15-.87-.87-1-1.5a.49.49,0,0,1,.57-.59A1.9,1.9,0,0,1,1017.89,460.81Z" transform="translate(-992.87 -357.81)"/><path class="cls-2" d="M1098.46,400.86l.26-.17-.17.26Z" transform="translate(-992.87 -357.81)"/><path class="cls-1" d="M1188.77,359.89c-1.71,0-3.4,0-5.09,0a4,4,0,0,0-3.07,5.9c.11.18.4.39.56.36.56-.11.76-.58.82-1.11s.06-1.41.35-1.32c1.39.43,2.47-.47,3.69-.57.6,0,.45,1,.59,1.49.26,1,.44,2,.66,3.09,1.12-.5.46-2.38,1.89-2.09,1.13.23,1.17,1.41,1.46,2.38a67.27,67.27,0,0,1,2,8c.2,1.16.56,2.39,2.24,1.3,1-.64,1.69.16,1.91.93.3,1.06,1.09,1.94,1.26,2.92.68,4,3,7.3,4.14,11.09.2.68.74,1.6-.21,1.88s-.76-.8-1-1.39c-.91-2.22-1.91-4.42-2.88-6.62-.44-1-1.09-1.42-2.18-.88s-.94,1.34-.61,2.31c.53,1.59,2.22,2.69,2.07,4.77a3.74,3.74,0,0,1-2.73-2.13A58.2,58.2,0,0,0,1188,380a15,15,0,0,1-2.57-5.06c-.43-1.64-2.23-2.43-2.1-4.42.06-1-1.09-.45-1.69,0-2.82,2.27-6.9,2.38-10.22.9s-5.7-4.1-8.27-6.49c-.48-.44-.6-.81-.08-1.19.74-.56,1.92-.66,2.3,0,2,3.26,3.26.78,5-.29a37.62,37.62,0,0,1,11.19-4.49c2-.47,4.06-1,6.11-.07C1188.16,359.11,1188.79,359.17,1188.77,359.89Zm2.73,19c-.57-3.05-1.05-5.74-1.58-8.42a1.12,1.12,0,0,0-1.26-1,1.25,1.25,0,0,0-1.07.91c-1.12,2.77-.33,7.06,1.7,9,.4.4.78,1,1.45.75A1.25,1.25,0,0,0,1191.5,378.88Zm-13-11.89c.18-1.88-.55-3.43-2.54-3.51-2.44-.1-1.06,2.76-2.39,3.67.94,1,.28,3.36,2.63,3.26S1178.57,368.75,1178.49,367Zm-5.47-.78c-.17-.66.23-1.84-.75-1.52-1.39.46-3.26.68-3.69,2.46-.36,1.5,1,2.1,2.1,2.16C1172.87,369.42,1172.23,367.21,1173,366.22Zm12,4c1.4-1.32.93-2.63.47-4-.2-.58-.52-.81-1.09-.51s-1.08.56-.62,1.05C1184.67,367.71,1184.22,369,1185.05,370.2Z" transform="translate(-992.87 -357.81)"/><path class="cls-1" d="M1212,453.91c3.26,0,5.83,1.8,6.26,5.37.32,2.66,1.47,4.81,2.33,7.17.79,2.17.33,2.69-2,2.43-2.13-.24-4-1-5.1-3-1.18-2.21-3.54-3.41-4.79-5.59-.8-1.38-1.84-2.71-.87-4.33S1210.25,453.49,1212,453.91Z" transform="translate(-992.87 -357.81)"/><path class="cls-1" d="M1240,459.07c-.72,3.7,1.18,5.27,4.37,6a1.45,1.45,0,0,1,.66,2.57c-2.35,2.28-2,5.3-2.48,8.06-.84,5.35-3.4,10.21-4.14,15.57-.07.5-.35,1.07-1,.89s-.35-.78-.22-1.25c1.17-4.22,1.76-8.6,3.53-12.67a25.27,25.27,0,0,0,1.07-4.07c.1-.4.18-.79-.4-1-1.8-.57-1.9-1-.65-2.42.11-.13.26-.21.36-.34,2.62-3.15,2.44-3.83-1.28-5.49a28.2,28.2,0,0,1-3.43-1.9c-.56-.35-1.15-.91-.78-1.64s.93-.29,1.49-.06C1239.46,462.29,1238.29,459.49,1240,459.07Z" transform="translate(-992.87 -357.81)"/><path class="cls-1" d="M1212.5,479.59a5,5,0,0,1,0,.64c-.16.65.42,1.78-.61,1.85s-.93-1-.86-1.74a18.05,18.05,0,0,0-1.07-6.59,33.85,33.85,0,0,0-3.66-8.34c-.69-1.14-1.36-2.29-2.87-2.53-1.08-.17-1.06-1-.7-1.7s1.1-.85,1.88-.38c1.59,1,2.31,2.55,3.17,4.07C1210.45,469.56,1212.39,474.48,1212.5,479.59Z" transform="translate(-992.87 -357.81)"/><path class="cls-3" d="M1193.23,537.2c2.55,2.58,0,5.24,0,7.9,0,.53-3.84.95-4.17.4-.59-1,.23-1.74.82-2.3A12.46,12.46,0,0,0,1193.23,537.2Z" transform="translate(-992.87 -357.81)"/><path class="cls-3" d="M1230.28,421.52l.57,1c-.07,1.22,1,2.09,1,3.23.07,1,.42,2.14-.82,2.83-1.19-4.11-4.23-7.43-4.42-11.81l.56.28a1.77,1.77,0,0,0,1.15,1.61c.16,1.29,1.16,2,1.93,2.89Z" transform="translate(-992.87 -357.81)"/><path class="cls-3" d="M1205.43,539.49l-5.43-.05-1.8-1.06h0c2.28-1.09,4.54-1.84,7-.3C1205.91,538.54,1205.79,538.94,1205.43,539.49Z" transform="translate(-992.87 -357.81)"/><path class="cls-1" d="M1221.29,424.46c1.68.27,3,2.07,3.94-.17,0-.09.3-.17.42-.14a1.13,1.13,0,0,1,.81,1.35c-.16,1.23.69,2.75-.6,3.62-.41.27-2,.08-2.14-.67C1223.47,426.93,1222.21,426.14,1221.29,424.46Z" transform="translate(-992.87 -357.81)"/><path class="cls-1" d="M1198.23,538.38h0c0,.08,0,.16,0,.24-.16,1.21-.08,2.56-1.51,3.14a.76.76,0,0,1-1-.39c-.62-1.32.62-2.13,1-3.15C1197.07,536.84,1197.74,537.55,1198.23,538.38Z" transform="translate(-992.87 -357.81)"/><path class="cls-3" d="M1247.47,495.68c-.44-.07-.55,0-.59-.09a3.73,3.73,0,0,1-1-4,.81.81,0,0,1,.57-.3C1247.61,492.49,1247.37,494.05,1247.47,495.68Z" transform="translate(-992.87 -357.81)"/><path class="cls-3" d="M1237.22,451.89l4.39,3C1239.07,455.48,1238.28,453.48,1237.22,451.89Z" transform="translate(-992.87 -357.81)"/><path class="cls-1" d="M1194.67,369.52a13.58,13.58,0,0,1,1.08.91,2.52,2.52,0,0,1,1,2.14c0,.13-.62.32-.84.22a2.07,2.07,0,0,1-1.4-2.11C1194.52,370.38,1194.59,370.08,1194.67,369.52Z" transform="translate(-992.87 -357.81)"/><path class="cls-2" d="M1133,546.28a1.07,1.07,0,0,1,.7-.94c3.78-1.4,7.6-2.65,11.73-2.12C1141.26,544.16,1137,544.77,1133,546.28Z" transform="translate(-992.87 -357.81)"/><path class="cls-2" d="M1148.54,543.3c2.49-.55,6.3,1.3,7.95,3.86A31.25,31.25,0,0,0,1148.54,543.3Z" transform="translate(-992.87 -357.81)"/><path class="cls-2" d="M1127.49,548.13a11.32,11.32,0,0,1,4.81-1.6A6.46,6.46,0,0,1,1127.49,548.13Z" transform="translate(-992.87 -357.81)"/><path class="cls-2" d="M1118.47,549a2.37,2.37,0,0,1,3-.27A3.43,3.43,0,0,1,1118.47,549Z" transform="translate(-992.87 -357.81)"/><path class="cls-2" d="M1125.49,548.48c.25-.55.56-.71,1-.14A.69.69,0,0,1,1125.49,548.48Z" transform="translate(-992.87 -357.81)"/><path class="cls-1" d="M996.49,515.4c.1-.26-.09-.75.49-.64a.27.27,0,0,1,.17.17c.11.58-.38.38-.64.49Z" transform="translate(-992.87 -357.81)"/><path class="cls-1" d="M1009,522.44l-.18-.24.24.18Z" transform="translate(-992.87 -357.81)"/><path class="cls-2" d="M1288.32,495.5c2.11.38,3.33,2.06,5.13,2.75a16.51,16.51,0,0,1,3.37,2.09c.52.36,1.8.36,1.25,1.37-.36.65-.54,2-1.83,1.63-.89-.25-2.27-.4-2-1.72.35-1.6-.73-1.63-1.63-1.9a10.06,10.06,0,0,1-4.51-3c-.28-.3-.61-.63-.3-1.06C1287.93,495.54,1288.24,495.52,1288.32,495.5Z" transform="translate(-992.87 -357.81)"/><path class="cls-1" d="M1119.47,400.38l-.44-.44Z" transform="translate(-992.87 -357.81)"/><path class="cls-2" d="M1191.5,378.88a1.25,1.25,0,0,1-.76,1.31c-.67.25-1-.35-1.45-.75-2-2-2.82-6.27-1.7-9a1.25,1.25,0,0,1,1.07-.91,1.12,1.12,0,0,1,1.26,1C1190.45,373.14,1190.93,375.83,1191.5,378.88Z" transform="translate(-992.87 -357.81)"/><path class="cls-2" d="M1178.49,367c.08,1.75-.06,3.3-2.3,3.41s-1.69-2.22-2.63-3.26c1.33-.91-.05-3.77,2.39-3.67C1177.94,363.57,1178.67,365.12,1178.49,367Z" transform="translate(-992.87 -357.81)"/><path class="cls-2" d="M1173,366.22c-.79,1-.15,3.2-2.34,3.09-1.12-.05-2.46-.66-2.1-2.16.43-1.78,2.3-2,3.69-2.46C1173.25,364.37,1172.85,365.55,1173,366.22Z" transform="translate(-992.87 -357.81)"/><path class="cls-2" d="M1185.05,370.2c-.83-1.18-.38-2.49-1.25-3.42-.46-.49.19-.83.62-1.05s.89-.07,1.09.51C1186,367.56,1186.45,368.87,1185.05,370.2Z" transform="translate(-992.87 -357.81)"/></svg>