<svg id="Ebene_1" data-name="Ebene 1" xmlns="http://www.w3.org/2000/svg" viewBox="0 0 233.25 233.25"><defs><style>.cls-1{fill:#fccf00;}.cls-2{fill:none;stroke:#000;stroke-miterlimit:10;stroke-width:4px;}.cls-10,.cls-3,.cls-4,.cls-5,.cls-6,.cls-7,.cls-8,.cls-9{isolation:isolate;}.cls-4,.cls-5{font-size:28px;}.cls-10,.cls-4,.cls-5,.cls-6,.cls-7,.cls-8,.cls-9{font-family:MyriadPro-Bold, Myriad Pro;font-weight:700;}.cls-4{letter-spacing:-0.02em;}.cls-10,.cls-6,.cls-7,.cls-8,.cls-9{font-size:18px;}.cls-7{letter-spacing:-0.08em;}.cls-8{letter-spacing:-0.04em;}.cls-9{letter-spacing:-0.05em;}.cls-10{letter-spacing:-0.01em;}</style></defs><title>danger</title><rect class="cls-1" x="28.85" y="28.49" width="175.55" height="176.27" rx="18.74" ry="18.74" transform="translate(-48.3 116.62) rotate(-45)"/><path class="cls-2" d="M107.26,218.69l-92-92.22a13.67,13.67,0,0,1,0-19.3l91.51-91.7a13.6,13.6,0,0,1,19.23,0l0,0,92,92.17a13.67,13.67,0,0,1,0,19.3l-91.51,91.71a13.6,13.6,0,0,1-19.23.1Z" transform="translate(0 0)"/><g class="cls-3"><text class="cls-4" transform="translate(62.73 82.3)">D</text><text class="cls-5" transform="translate(81.77 82.3)">ANGER</text></g><path d="M72.35,115.57h8.19l1.64-5.3,4,4.14s25.74-3.66,29.88-7.81c0,0,6-5.59.58-18.22l-.39-.77s6.75-1.06,18.89,15.62c0,0,14.56.48,21.5,2.89a28.39,28.39,0,0,0,14.84,2.6c9-.67,7.81-.77,7.81-.77l.19,2.8s-3.57,9-9.35,11.08l-1.06.19-3.57,4.53-.87.39v-3.08l-2.22,1.83-.58-1.93h-1.45L159.9,125l-1.25.19-.19-1.64-1.06-.1v1.64h-1.25l.1-1.54s-6,1.54-2.12,4c.29.29,1.06,1,1.06,1l.77-.19.39-.77.48.67.58-.87.19.58,1.16-.29.29,1,1.64-.48.48-.29-.29,3.86s-.77,2.7-11.47,2.6-16.87-.58-16.87-.58-4.34,9.25-10.8,9.54-6.46-.77-6.46-.77,7.13-6.36,7.42-10c0,0-29.59-2.7-37.5-6.55-.19.67-3.37,3-3.37,3L81,125.55l-8.39-3s-9.25,11.37-12.24,8.77c0,0,4-7.52,4.24-13.49L55.8,92.67s8.87.48,16.39,22.27" transform="translate(0 0)"/><g class="cls-3"><text class="cls-6" transform="translate(53.82 162.08)">ENTER </text><text class="cls-7" transform="translate(109.64 162.08)">A</text><text class="cls-6" transform="translate(119.95 162.08)">T</text><text class="cls-8" transform="translate(129.81 162.08)"> </text><text class="cls-9" transform="translate(132.73 162.08)">Y</text><text class="cls-6" transform="translate(142.74 162.08)">OUR</text></g><g class="cls-3"><text class="cls-10" transform="translate(72.77 178.63)">O</text><text class="cls-6" transform="translate(85.55 178.63)">WN RISK</text></g></svg>