<svg id="Ebene_1" data-name="Ebene 1" xmlns="http://www.w3.org/2000/svg" viewBox="0 0 219.44 133.54"><defs><style>.cls-1{fill:#88959e;}.cls-2{fill:#4d5774;}.cls-3{fill:#226280;}.cls-4{fill:#fbd3c3;}.cls-5{fill:#0c0c0c;}.cls-6{fill:#376a82;}.cls-7{fill:#846358;}.cls-8{fill:#153747;}.cls-9{fill:#858889;}.cls-10{fill:#6b6c6f;}.cls-11{fill:#3e474b;}.cls-12{fill:#a4a09e;}.cls-13{fill:#c0c7c8;}.cls-14{fill:#fdfdfd;}.cls-15{fill:#37b0d6;}.cls-16{fill:#eec950;}</style></defs><title>diver</title><path class="cls-1" d="M132.77,77.65a37,37,0,0,1-6.19-4c-2.84-2.3-3.92-7.52-.06-9.12.78.53,1.15,0,1.46-.58h0c2.58-1.54,5.22-3,7.7-4.65,1.38-.93,3.35-1.23,3.86-3.22,3.23-2.23,6.86-3.71,10.34-5.49.31-.16.79,0,1.18,0,.08.42.22.87.71.86,3.23-.06,5.38,1.78,7.27,4.08a13.45,13.45,0,0,0,1.08,4.12c-.52,1.45-1.95,1.38-3.07,1.81-1.27.06-2.51.75-2.18,1.94.41,1.46,1.62-.16,2.48.06h1.4l.82,1c0,.44,0,.87.52,1.07h0c-.08.87.06,1.57,1.18,1.49l.31.94a1.12,1.12,0,0,0,.53,1.14c.73.94.81,2.32,2,3h0l.42,1c.59.29.63.83.61,1.39-.6,2.14.29,4.69-1.8,6.41-1,.39-1.44,1.33-2.14,2-2.12,2.08-4.17,4.25-7.14,5.14-1.31-.66-2.54-.91-3.44.63h0c-1.34.15-3.18-.86-3.58,1.52-1.47,1.2-3.69,1.36-4.6,3.32-3.34,2-6.15,1-8.7-1.53a11,11,0,0,0-1.16-.87h0c0-.87.22-1.84-1.1-1.94h0V87.47l.18-.08-.22-.14-.39-1.16c-.2-1.81-.94-3.63.1-5.42l5.07-4.49C134.48,76.14,133.81,77.31,132.77,77.65Z" transform="translate(-10.92 -26.19)"/><path class="cls-2" d="M189.06,135.58c.62,2.34-.32,4.07-2.11,5.48h-1.4c-.68-1.06-1.64-.64-2.54-.47a6.41,6.41,0,0,1-7-3v-1c1.31.15,1.58-.79,2-1.74,1.8-4,1.85-8.33,2.86-12.48a14.59,14.59,0,0,0,.71-5.85c-.66.59-.52,1.4-1.19,1.57a10.45,10.45,0,0,1,.76-4c1.76-1.1.49-2.74.73-4.1.3-.55.69-1.09.17-1.72l-.06-.69c1.37-3.42.56-7,1-10.55,0-1.29.75-2.48.52-3.82-.09-.49-.1-1-.75-1-.87,0-.65.75-.71,1.27l-1,.11c-2.27-.75-3.74.49-4.38,3.71a8.1,8.1,0,0,1-4.23,3.75c-1.55-1.27-.49-2.5.11-3.68s1.82-2.17,1.51-3.75c1,0,1-.8,1-1.5l.49-.5.51-.48c1.72-1,3.44-2.11,4.45-4,.89-1.24,2.75-1.14,3.51-2.56,1.88.5,2.93-.51,3.68-2a10.65,10.65,0,0,0,4.42-4.86c1,0,1.57-.8,2.35-1.12,1.21-.49,2.71-2.23,3.8.24a7.82,7.82,0,0,0,0,3.28c-1,.3-1.7,1.24-1.47,2,.68,2.21-.75,3.77-1.35,5.57-.69,2.09-1.67,4.11-1.42,6.41-.59.36-.52,1-.52,1.52a1.11,1.11,0,0,0-.51,1.07v.84l-.07.6c-.62.57-.36,1.32-.39,2V104l.52.63a13.75,13.75,0,0,1-1.21,7.38,4.71,4.71,0,0,0-.27,3.61,90.31,90.31,0,0,0-1.06,10C188.5,127.38,187.69,133,189.06,135.58Z" transform="translate(-10.92 -26.19)"/><path class="cls-3" d="M96.1,131.23l1.44-.16,2,.48a2.06,2.06,0,0,0,.5,0,1.76,1.76,0,0,0,1.59-1c.91-.56,2.43-.54,2.08-2.26h.15c5,.23,7.86-3.42,11.19-6.21,2.27-.85,3.19-3,4.46-4.75,3.27-4.64,6.6-9.23,9.91-13.83l.06.07A2.37,2.37,0,0,0,131,101.7c1.34-.29,2-1.43,2.82-2.33a6.65,6.65,0,0,1,5-2.37c2.41.53,1.82,2.91,2.69,4.39-1.28.9-1.65,2.32-2.12,3.69-2.27,1.54-5.48,1.91-6.43,5.12l-.45.39a1,1,0,0,0-1,.57h0c-3.36,1.61-6.39,3.55-7.46,7.45l-.72,1c-1.77.52-2.36,2-2.85,3.54h0l-.49.5h0a.88.88,0,0,0-.53,1h0c-1.76.25-2.44,2-3.72,2.86-.34.25.3.56.69.65.09,2.44,1.39,2.22,3,1.37l.51-.42h0a2.16,2.16,0,0,0,2-1.47h0a16.17,16.17,0,0,0,6.57-4.94,9.21,9.21,0,0,0,5-3h0c3.92-.84,7-3.25,10.26-5.4a5.43,5.43,0,0,1,2.78-1.18c2.13,3,2.13,3-1.39,4.17a11.63,11.63,0,0,1-4.81,1,1.41,1.41,0,0,0-1.76,1.31,2.36,2.36,0,0,1-2.47,2.24h0a1.47,1.47,0,0,0-1.5,1.38,55.7,55.7,0,0,1-8.1,5,1,1,0,0,0-1,.53h0C118.16,130.2,113,135.3,107.76,140c-1.81,1.63-3.43,3.56-5.29,5.21a12,12,0,0,1-5.35-.74c-2.83-1.19-5-3.68-8.22-4.19-.23,0-.4-.5-.6-.76a.41.41,0,0,0,0-.42l1.76-2.84c1.1-.25,1.09-1.32,1.52-2.07.73.73,1,2,2.39,1.94.68,0,1.35,0,1.48-.88C95.7,133.82,95.9,132.52,96.1,131.23Z" transform="translate(-10.92 -26.19)"/><path class="cls-4" d="M102,119.14a1.63,1.63,0,0,1-2-.2c0-1-.83-.75-1.41-.86h0a72.39,72.39,0,0,1-14.26-8.29c-4.28-3.31-8.1-7.2-12.11-10.85-.92-.83-1.74-1.79-3.09-1.91a9.89,9.89,0,0,0-6.41-1.18c1.85-3.55,3.39-7.29,6.36-10.14,2.1.54,3.5,2.88,6,2.35h0l.52.43.51.59h0c2.8,3.7,6.3,6.3,11,6.94,2.25-.07,4.05.94,5.86,2.17,2.13,1.44,3.33,3.83,5.55,5.14,1.26,2.75,2.79,5.38,3.55,8.33.13.52.35.92,1,.94.33,1.91-.32,3.76-.35,5.65l-.5.44Z" transform="translate(-10.92 -26.19)"/><path class="cls-1" d="M158.55,46.14A11.19,11.19,0,0,1,164,43.53a.71.71,0,0,0,1,.32l.11-.07c1.66-1.07,3.53-.79,5.31-.67,3.29.22,5.68,2.35,5.52,5.15-.1,1.78.26,3.71-.85,5.36-1,.64-2.43.57-3.73,2.26a26.52,26.52,0,0,0,6.14-2.12l6.23.19,2,1a97.49,97.49,0,0,1-3.27,12.52A7.53,7.53,0,0,0,179.53,69a5.34,5.34,0,0,0-5.12,2.84c-1.46.15-2.21,1.3-3.13,2.21-.66,1.14-1.63.59-2.52.47-1.11-.32-1-1.3-1.25-2.16-1-3.84-2.3-7.55-5.43-10.27a3.93,3.93,0,0,1,.46-2.57,1,1,0,0,0,1-.48l1.08-.23a.26.26,0,0,0-.13-.19.81.81,0,0,0-1,.38H163l-1.45-1c.7-.55.38-1.35.49-2,1.07-3.11-.09-5.78-3.22-7.45h-.09l-.21-.66Zm9,11.42-.66.19.12.19.54-.37.65-.2-.13-.19Zm2.76-1,.53-.27c-.1-.17-.19-.47-.3-.48a.77.77,0,0,0-.57.27c-.18.18,0,.34.34.42Z" transform="translate(-10.92 -26.19)"/><path class="cls-4" d="M90.12,136.14,88.36,139l-.89.39h-.76c-2.67-1.38-4.6-3.77-7.15-5.3-1-2-3.17-2.07-5-2.7-2-1.29-3.65-3.15-6.05-3.79h0c-2.1-2.19-4.16-4.43-7.52-4.51h0l-1.28-1.72c-.57-2.18,1-3.62,1.87-5.27,1.21-.32.82-1.29.84-2.08H67a1.36,1.36,0,0,0,1.52,1.49h0c.16.39.32.31.49,0l1,.54a2.28,2.28,0,0,0,1.93.9,21,21,0,0,1,11,5.14c1.67,1.53,2.64,3.71,4.62,5,2,0,2,1.71,2.46,3C90,132.05,91.67,134.08,90.12,136.14Z" transform="translate(-10.92 -26.19)"/><path class="cls-5" d="M142.44,93.44c.91-2,3.13-2.12,4.6-3.32l3.51-1c0,.94.61,1.35,1.43,1.56a3.1,3.1,0,0,1,.24.38v2.6l.08,1.39a.74.74,0,0,0,.27,1l.08,0a3.59,3.59,0,0,0,.8,2.53,4.56,4.56,0,0,0,1.6,3.13l.36.88a7.79,7.79,0,0,0,2.64,4.6,1.9,1.9,0,0,0,1,1.42,2.84,2.84,0,0,1-.77,4.22c-.36.27-.82.57-.72,1.16h0l-.41.55-.65.86-1.68.43c-3,.58-5.42.19-6.45-3.17-.09-.28-.42-.48-.64-.72l-.52-.54a2,2,0,0,0-1.46-1.52c-1-3-1.93-6-2.93-8.93C141.89,98.5,140.9,96,142.44,93.44Z" transform="translate(-10.92 -26.19)"/><path class="cls-3" d="M117.12,100.68l.22-.42c.13.45.16,1.08.79,1,1-.1.86-1,1-1.68l.66-.55a.43.43,0,0,0,.26-.25l.59-.27.46-.44h0l.45-.44.08-.07.45-.36c3.41-1.83,6.29-4.85,10.58-4.69l3.52,2.7c-.15.94-1,1.18-1.59,1.73-2.29,2.26-5.18,3.9-7,6.66h0a34.53,34.53,0,0,0-11.74,6.54c-2.2,1.92-4.39,3.11-7.29,2.92-.26-1.34.44-2.81-.53-4.06v-1c1.86-1.39,3.57-3.07,5.61-4.07A6.72,6.72,0,0,0,117.12,100.68Z" transform="translate(-10.92 -26.19)"/><path class="cls-6" d="M40.47,122.94a1.27,1.27,0,0,1,.89-1c.86,0,1.42-.29,1.5-1.21l.31-1c.71.23.78-.23.79-.75,1,0,1.58-.42,1.5-1.5,2.39-1.32,2.64-4,3.45-6.11,1.15-3.08,2.15-3.73,5.13-2.19a23.16,23.16,0,0,0,6,2.27c1.84,1.59-.94,1.24-.88,2.08a6.31,6.31,0,0,0-4.64,3c-2.61,1.14-5,2.57-6.52,5.08-1.85,1.56-4.42,2.46-4.92,5.29-2.79,1.58-5.57,3.19-8.39,4.72a7.39,7.39,0,0,1-4.23,1.26c1.62-1.85,4.2-2.4,5.81-4.29.49-.57.21-.6-.27-.66l3.45-3.5a.74.74,0,0,0,.09.21h.16l-.24-.26,1-1.51c.13.16-.14.62.37.5Z" transform="translate(-10.92 -26.19)"/><path class="cls-7" d="M221.15,35,220,34.18v-.61l.18-.36-.63-.07h0a3.08,3.08,0,0,0-3.78-.74c-1.12.5-.63,1.7-.67,2.64-2.16.75-4.42,1.14-6.61,1.83-3.11,1-6.38-.49-9.63-.38-1.11,0-.88-.94-.07-1.47s1.76-.88,1.76-1.88c.13-4,.65-4.67,4.58-4.53,2.39.09,4.74.56,6.78-1.19a1.51,1.51,0,0,1,1.66-.11L221,30.55l.55.51h0c-.25,1.62,1.51,2.46,1.52,4l-.08.06Z" transform="translate(-10.92 -26.19)"/><path class="cls-6" d="M108.55,113.07c2.9.19,5.09-1,7.29-2.92a34.53,34.53,0,0,1,11.73-6.55,23.75,23.75,0,0,1-8.07,8.82c-2.76.61-4.81,2.48-6.92,4.12s-4.59,2.25-6.94,3.22a3.45,3.45,0,0,1-3.69-.65l.19-.47.5-.44c0-1.89.69-3.74.35-5.65.79-.46.51-1.26.65-1.94a.24.24,0,0,1,.34,0l0,0c1.45,1.81.62,4.2,1.57,6.16a9.56,9.56,0,0,0-.52-7.25,2.92,2.92,0,0,1,2-1.89l1,.38v1c-1.85,1.15-.94,2.8-.65,4.24C107.48,113.7,108.2,113.51,108.55,113.07Z" transform="translate(-10.92 -26.19)"/><path class="cls-8" d="M18.1,106.27l1.27-.35c1.3.18,2.52.69,3.91.43A84,84,0,0,0,33,103.5c3.82.06,7.23-1.58,10.78-2.65.83-.25,1.86-.31,2.27-1.34h.5v1.54c-.3.15-.66.31,0,.5h0l.06,1v.54l-3,2a1.13,1.13,0,0,0-1,.49h0a38,38,0,0,0-7,2.36,77,77,0,0,1-20.45,4.69c.94-.6.08-2,1.05-2.54a1.91,1.91,0,0,0,2,.69,69.63,69.63,0,0,0,16.65-4.33c-5.34-.17-10.46,1.66-15.76,1.79C18.71,107.52,17.78,107.14,18.1,106.27Z" transform="translate(-10.92 -26.19)"/><path class="cls-9" d="M46.1,131.85c-4.56,4.09-9,8.28-13.7,12.24-2.35,2-4.52,4.15-6.68,6.33-1.08,1.09-2.08,2-3.18-.23C22,149,20.48,148.46,19.9,147c-.41-1-1.78-.66-2.67-.16a14.62,14.62,0,0,1-2.66,1.33c-1.2.38-2.3.56-3.05-.74a2.48,2.48,0,0,1,.45-3.39,32,32,0,0,1,9.67-5.94c-.08.77-.7,1.07-1.25,1.44-2.47,1.68-4.93,3.36-7.41,5-.67.45-1.18,1-.86,1.84a.75.75,0,0,0,1.21.39c1.55-1.27,3.54-1.11,5.27-1.75.6-.1,1.2.65,1.81,0,.1,1,0,2.2,1.63,1.84L23,147c-.34,1-.29,1.79,1.05,1.85a2,2,0,0,0,2.1-.92c1.57-2,3.76-3.42,5.67-5.1,4-3.54,7.88-7.23,11.81-10.86h0a1,1,0,0,0,1-.56l1-.49Z" transform="translate(-10.92 -26.19)"/><path class="cls-10" d="M221,30.53l-7.43-3.24a1.51,1.51,0,0,0-1.66.11c-2,1.76-4.39,1.28-6.78,1.19-3.93-.14-4.45.55-4.58,4.53,0,1-1,1.35-1.75,1.84s-1,1.51.07,1.47c3.25-.11,6.52,1.36,9.63.38,2.19-.69,4.45-1.09,6.61-1.83l-.05.09c-1,1.48-2.52,1.31-4,1.43a.89.89,0,0,0-1,.86c0,.57.5.78,1,.76h1.48l-.09.57a5.15,5.15,0,0,0-3,1.9l-1-.06c.17-1-.12-2-1.1-2.21-3.55-.71-7.13-1.39-10.76-.65A2,2,0,0,0,195,39.38c-.05,1,1,.6,1.52.83,1.58.67,3.27.2,4.88.53-1.65,1-3.66-.33-5.28.81-.92.55-.83,1.66-1.35,2.43-.46,0-.92.59-1.37,0,.43-1.46,2.1-2.85.22-4.45-.1-.09.05-.74.25-.86,1.81-1,2.06-3.42,4.13-4.42,1.47-.71,1.31-2.84,1-4.2s.25-1.64,1.2-1.83c2.36-.46,4.72-1.15,7.15-.63a3,3,0,0,0,2.34-.5,5.67,5.67,0,0,1,6.14,0,9.28,9.28,0,0,0,3.48,1.3,3.06,3.06,0,0,1,2.87,2.67l-.6.06h0Z" transform="translate(-10.92 -26.19)"/><path class="cls-5" d="M185.7,55l-2-1c-.16-.82-1.3-1-1.26-2a4.61,4.61,0,0,1,.92-2.45c.45-.89-.08-1-.78-.89-1.32-.22-1.26-1.18-1.16-2.16a11,11,0,0,1,5.69-2.89c.61-.1,1.42-.29,1.73.54.25.67-.34,1.09-.79,1.42-1.71,1.26-1.79,1.92.53,2.48,1,.24,1.89,1.31,2.65,2.16a1.14,1.14,0,0,1-.33,2,1.23,1.23,0,0,0-.8,1.39l-.68.91c-.87.65.14,1,.25,1.46l-.41,1L187,55.09Z" transform="translate(-10.92 -26.19)"/><path class="cls-6" d="M50,94.26c.59-.18.71-1.18,1.57-.89,1.19.37,1.82-.36,2.4-1.2,2.91-3.13,6.72-5.45,8.57-9.54h0c1.29.15,1.81-1,2.67-1.57s1.49-1.31,2.66-.66c1.37.76-.5,1.57.13,2.29a2.21,2.21,0,0,1-1.5.51c-.12-.3-.25-.59-.47,0h0l-.61.4c-.94.39-2.38.46-1.4,2.12-4,4.57-8,9.09-13.24,12.34-.66.41-1.39,1.39-2.14.74-1.49-1.29-1,.81-1.6.82a2.73,2.73,0,0,1,1.54-3.45C49.37,95.75,50.18,95.31,50,94.26Z" transform="translate(-10.92 -26.19)"/><path class="cls-5" d="M198.31,80a7.83,7.83,0,0,1,0-3.28c2.44-2.77-.75-2.72-1.86-3.72l.6-1a1.48,1.48,0,0,0,1.41-.81,11,11,0,0,0,1.67-7.06c.57-.61,1.17-1.08,2-.41l.94,2.88c-.58,1.11.6,1.83.61,2.81l-1.5,9.21c-.72,1-1,2.21-2,3C198.94,81.77,198.55,80.93,198.31,80Z" transform="translate(-10.92 -26.19)"/><path class="cls-3" d="M15,112.56a77,77,0,0,0,20.45-4.69,37.94,37.94,0,0,1,7-2.36c-4,3.91-9.28,5.15-14.22,7-4.37,1.67-9.21,1.58-13.72,2.91a6,6,0,0,1-3.63.07L11,115l3.5-2.06.48-.48Z" transform="translate(-10.92 -26.19)"/><path class="cls-9" d="M11,115.53a6,6,0,0,0,3.63-.07c4.51-1.33,9.35-1.25,13.72-2.91,4.93-1.88,10.26-3.12,14.22-7h0c.44,0,.85,0,1-.49l3-2a5.71,5.71,0,0,1,3.4-1.09l.2.21a58.44,58.44,0,0,1-14.79,9c-6.5,3-13.55,3.87-20.36,5.67C13,117.36,12,117,11,115.53Z" transform="translate(-10.92 -26.19)"/><path class="cls-2" d="M50,94.26c.13,1-.68,1.49-1.37,1.83a2.74,2.74,0,0,0-1.54,3.45H46c-.36-1.64-1.31-.8-2.07-.46a40.33,40.33,0,0,1-6.6,2.85c-1.48.38-3.17.37-4.37,1.59a84,84,0,0,1-9.73,2.85c-1.39.25-2.61-.25-3.91-.43a109.07,109.07,0,0,1,15.73-4.42c4.67-1.06,8.64-3.48,12.56-6A4.54,4.54,0,0,1,50,94.26Z" transform="translate(-10.92 -26.19)"/><path class="cls-8" d="M18.55,145.09c-1.73.64-3.73.47-5.27,1.75a.75.75,0,0,1-1.21-.39c-.31-.86.19-1.39.86-1.84,2.47-1.67,4.94-3.36,7.41-5,.55-.37,1.17-.67,1.25-1.44l.82-.67c1,.13,1.71-.59,2.52-1,1.47.07,2.76-.15,3.08-1.92h0l2-.06c.2,1.38-.93,1.81-1.77,2.4-3.09,2.18-6.22,4.3-9.28,6.54C18.64,143.69,16.94,144.14,18.55,145.09Z" transform="translate(-10.92 -26.19)"/><path class="cls-11" d="M102.55,145.06c1.86-1.65,3.47-3.58,5.29-5.21,5.27-4.72,10.4-9.82,17.77-11.27l-.14.78a26.38,26.38,0,0,1-4.64,2.41,24.35,24.35,0,0,0-5.41,3.46A85,85,0,0,0,105,145Z" transform="translate(-10.92 -26.19)"/><path class="cls-12" d="M69.1,97c1.35.12,2.17,1.08,3.09,1.91,4,3.65,7.83,7.55,12.11,10.85a72.39,72.39,0,0,0,14.26,8.29,7.69,7.69,0,0,1-5.24-1.29c-4-2.45-8.3-4.43-11.73-7.83s-7.2-6.63-10.85-9.88a15.77,15.77,0,0,0-2.28-1.43Z" transform="translate(-10.92 -26.19)"/><path class="cls-9" d="M218.13,35c2.48,1.58,2.42,4.4,3.13,6.77s.77,5.15,2.4,7.43c1,1.32-.76,2.55-.89,3.92h-.22c-.17-1.14-.42-2.27-.49-3.42-.09-1.47-.6-1.92-2.18-1.73s-3.46.3-5.2.48-3.51,1-4.78-.94a27.8,27.8,0,0,0,7.55-.4c1,0,2.06.39,3.49-1h-5.39v-1c1.22,0,2.45,0,3.66.12.67.07,1.3.06,1.17-.71-.2-1.23.52-2.88-1.35-3.47V39.57l.07-.88-1.29-3.35Z" transform="translate(-10.92 -26.19)"/><path class="cls-11" d="M180.44,118.05c.67-.17.53-1,1.19-1.57a14.59,14.59,0,0,1-.71,5.85c-1,4.14-1.07,8.51-2.86,12.48-.43,1-.7,1.89-2,1.74a84,84,0,0,1,3.18-13.48,3,3,0,0,0,.94-3.47Z" transform="translate(-10.92 -26.19)"/><path class="cls-11" d="M147.65,112c.22.24.55.44.64.72,1,3.36,3.49,3.75,6.45,3.17-.93,1.1-2.66,1.15-3.36,2.56l-.81-.41c.06-1.52-.65-1.45-1.64-.79-1-.45-1.63.17-2.46.55-3,1.42-6.67,1.77-8.78,4.88-1.07-.36-2,.31-3.06.34a1.47,1.47,0,0,1,1.5-1.38,2.36,2.36,0,0,0,2.48-2.23h0a1.41,1.41,0,0,1,1.76-1.31,11.63,11.63,0,0,0,4.81-1c3.52-1.18,3.52-1.17,1.39-4.17Z" transform="translate(-10.92 -26.19)"/><path class="cls-11" d="M119.55,112.41a23.75,23.75,0,0,0,8.07-8.82h0l1.87-.13c-3.31,4.61-6.65,9.2-9.91,13.84-1.27,1.8-2.18,3.91-4.46,4.75L115,121c1.87-2.31,3.76-4.6,5.61-6.93.35-.44.81-1,.49-1.56S120,112.53,119.55,112.41Z" transform="translate(-10.92 -26.19)"/><path class="cls-9" d="M202.15,78.63l1.5-9.21c2.36.3,4.19,1.93,6.45,2.55,4,1.09,7.25-.46,8.64-4.41l1.2-.06a7.36,7.36,0,0,1-9.6,5.63c-1.87-.62-4-2.22-5.46-1.73s-.43,3.43-1.22,5.16C203.3,77.35,203.26,78.37,202.15,78.63Z" transform="translate(-10.92 -26.19)"/><path class="cls-7" d="M157.55,114c-.1-.59.36-.89.72-1.16a2.84,2.84,0,0,0,.77-4.22c2.2.21,4.44.52,5-2.51l1.86-.56,1.2.64c.66,2.26,1,4.66,3,6.27l-.58.62c-2.47-.63-2.5-2.79-2.95-4.69-.11-.47,0-1.1-.55-1.31-.72-.29-1,.45-1.34.83C162.55,110.14,160.84,113,157.55,114Z" transform="translate(-10.92 -26.19)"/><path class="cls-10" d="M192.55,103.94v-.78a2.45,2.45,0,0,0,0-3.1c0-.69-.23-1.43.39-2,.47-.15.37-.37.07-.6v-.84l1-.06.54-.06c-.35,6.36-.72,12.72-1.6,19a1.17,1.17,0,0,0-1.41,0,4.71,4.71,0,0,1,.27-3.61,13.75,13.75,0,0,0,1.21-7.38Z" transform="translate(-10.92 -26.19)"/><path class="cls-9" d="M60.06,111.49a23.16,23.16,0,0,1-6-2.27c-3-1.54-4-.89-5.13,2.19-.8,2.14-1.06,4.79-3.44,6.11l-.58-.74A18.81,18.81,0,0,0,48,110.57a6.15,6.15,0,0,1,3-3.51c1.3-.74,2.34-1.18,3.45.58,1.21,1.94,3.87,1.74,5.64,3Z" transform="translate(-10.92 -26.19)"/><path class="cls-2" d="M102.55,145.06H105a8.08,8.08,0,0,1-7.53.55,69,69,0,0,1-10.83-5.56l.13-.68h1.66c.2.26.36.72.6.76,3.2.51,5.38,3,8.22,4.19A12,12,0,0,0,102.55,145.06Z" transform="translate(-10.92 -26.19)"/><path class="cls-12" d="M193.38,43.92c.45.6.92,0,1.37,0-.81,2.48,1.21,3.06,2.69,4-1.59.58-1.14,1.63-.13,2s1.06,1.36,1.79,1.8c-.63.63-1.29,1.25-1.9,1.91s-1.84,1.46-1.12,2.84c-.89.1-1.62-.81-2.56-.4v-.5c1.65-.8,2.39-2.5,3.4-3.82.74-1-.89-1.39-1.58-1.81C193.72,48.9,192.5,45.49,193.38,43.92Z" transform="translate(-10.92 -26.19)"/><path class="cls-11" d="M194.55,96.49l-.54.06v-1l.05-1.55c-.25-2.3.72-4.31,1.42-6.41.6-1.8,2-3.36,1.35-5.57-.24-.77.45-1.71,1.47-2,.29.9.64,1.73,1.83,1.57A40.31,40.31,0,0,0,195,94c-.47.27-.6.58-.12,1Z" transform="translate(-10.92 -26.19)"/><path class="cls-1" d="M68.07,82.66c-.63-.72,1.24-1.53-.13-2.3-1.17-.65-1.87.13-2.66.66s-1.38,1.73-2.67,1.57c.92-1.66,2.61-2.51,4-3.61s2.84-.5,3,1.51a10.31,10.31,0,0,0,1.11,4c.59,1.2,1.23,2.11,2.75,2.07.9,0,1.63.36,1.63,1.45-2.52.53-3.92-1.82-6-2.35C69.82,84.34,68.93,83.5,68.07,82.66Z" transform="translate(-10.92 -26.19)"/><path class="cls-9" d="M174.61,158.6c-3.15-.4-3.23-.5-2.07-3.25A3.41,3.41,0,0,0,173,153h1.34c.69.77,1-.1,1.1-.41.21-.61-.3-.55-.71-.47-.29-.15-.67-.41-.41-.68s.7,0,1.07.09c1.45.14,1.77-1.18,2.53-2s1.23-2,2.44-.62a2.17,2.17,0,0,0-1.74,2.06h0l-.51.51h0c-.5.17-.56.56-.51,1h0l-.51.51h0l-.51.51h0l-.51.51h0a.9.9,0,0,0-.51,1h0l-.5.62v1C176,157.56,174.75,157.94,174.61,158.6Z" transform="translate(-10.92 -26.19)"/><path class="cls-9" d="M175.07,53.6c1.11-1.65.74-3.58.85-5.36.16-2.8-2.23-4.94-5.52-5.15-1.78-.12-3.65-.4-5.31.67a.71.71,0,0,1-1-.14l-.07-.11c3.29-2.08,7.93-2,10.5,0,2.08,1.6,3.42,6.13,2,9.07C176.55,53.66,175.79,53.58,175.07,53.6Z" transform="translate(-10.92 -26.19)"/><path class="cls-9" d="M225,56.14a9.7,9.7,0,0,1,1.24,0c4.44.62,5.19,2.34,2.62,6-.68,1-1.69.93-2.71.73L222,62v-.87c1.47.15,2.94.39,4.42.43,1.67,0,2-1.25,2.14-2.53.2-1.55-1-1.48-2-1.51s-2.18.16-3.09-.62Z" transform="translate(-10.92 -26.19)"/><path class="cls-9" d="M59.78,121.36l1.28,1.72c-4.84.09-8,3.33-11.37,6.13-1.16-1.52-2.44.11-3.65-.15h0l-.49-.92c1.2-.25,2.6.41,3.62-.5A35.62,35.62,0,0,1,59.78,121.36Z" transform="translate(-10.92 -26.19)"/><path class="cls-10" d="M119.74,99.05l-.66.55L118,99.53c2.67-3.75,7-5.14,10.7-7.35a18.3,18.3,0,0,0,2.76-1.65l1.1.51h0l.07,1.45c-4.29-.17-7.17,2.86-10.58,4.69l-.45.36-.08.07-.45.44h0l-.46.44-.58.27h-.21Z" transform="translate(-10.92 -26.19)"/><path class="cls-9" d="M158.55,46.14v1.79c-1,.51-1.6,1.61-3,1.25a1.23,1.23,0,0,0-1.44,1v0c-.06.87.74.6,1.23.78a6.39,6.39,0,0,1,3.9,4.42l-.2.15c-1.89-2.31-4-4.15-7.27-4.08-.49,0-.63-.44-.71-.86C153,48.23,156.21,47.86,158.55,46.14Z" transform="translate(-10.92 -26.19)"/><path class="cls-9" d="M25,136.47c-.81.41-1.5,1.13-2.52,1a6.52,6.52,0,0,1,2.93-2.88c3.49-2.28,7.09-4.41,10.64-6.59.49,0,.77.08.28.66-1.61,1.89-4.19,2.44-5.81,4.29l-.91.63a1.4,1.4,0,0,0-1.53,1h0A5.89,5.89,0,0,0,25,136.47Z" transform="translate(-10.92 -26.19)"/><path class="cls-10" d="M189.06,135.58c-1.37-2.6-.56-8.2,1.45-10l.67-.07C190.76,128.92,190.55,132.38,189.06,135.58Z" transform="translate(-10.92 -26.19)"/><path class="cls-9" d="M98.49,103.28c-2.22-1.31-3.42-3.7-5.55-5.14-1.81-1.23-3.61-2.24-5.86-2.17L87,95a7.16,7.16,0,0,1,5.54,1.56,26.09,26.09,0,0,1,6.07,5.86Z" transform="translate(-10.92 -26.19)"/><path class="cls-9" d="M83,122.14A21,21,0,0,0,72,117a2.28,2.28,0,0,1-1.93-.9,17,17,0,0,1,13.51,5.44Z" transform="translate(-10.92 -26.19)"/><path class="cls-13" d="M174.61,158.6c.14-.66,1.41-1,.48-2,2.48-1.11,3.68-3.36,5-5.55l.56-.59.91.09c.48,1.56-1,2.3-1.46,3.46-.59,1.82-2.76,2.64-3,4.69C176.09,161.14,175.43,158.45,174.61,158.6Z" transform="translate(-10.92 -26.19)"/><path class="cls-11" d="M108,108l-1-.38c3-2.91,6-5.63,10.09-6.91a6.73,6.73,0,0,1-3.46,3.22C111.61,104.9,109.9,106.58,108,108Z" transform="translate(-10.92 -26.19)"/><path class="cls-9" d="M134.62,123c1,0,2-.7,3.06-.34-3.88,2.58-7.71,5.25-12.22,6.69l.14-.78h0a1,1,0,0,0,1-.53A55.71,55.71,0,0,0,134.62,123Z" transform="translate(-10.92 -26.19)"/><path class="cls-9" d="M139.55,56.14c-.51,2-2.48,2.29-3.86,3.22C133.2,61,130.56,62.47,128,64a6.24,6.24,0,0,1,4-4C134.55,58.83,137,57.4,139.55,56.14Z" transform="translate(-10.92 -26.19)"/><path class="cls-10" d="M115,121l.08,1.07c-3.33,2.79-6.18,6.45-11.19,6.21A65,65,0,0,0,115,121Z" transform="translate(-10.92 -26.19)"/><path class="cls-2" d="M14.55,113,11,115.08c0-.5-.16-1.22.33-1.36,2.54-.77,3.36-3.11,4.88-4.86.72-.83-.32-2.9,1.81-2.58-.32.92.61,1.25.88,1.89L16.06,110c-1,.59-.12,1.93-1.05,2.54h0Z" transform="translate(-10.92 -26.19)"/><path class="cls-9" d="M62.55,97c-5.09-.53-9,1.75-12.4,5.21L50,102l.55-1.64c3.59-2.67,7.22-5.19,12.07-4.38Z" transform="translate(-10.92 -26.19)"/><path class="cls-1" d="M62.55,82.62C60.7,86.71,56.89,89,54,92.16L53.45,92c.76-2.68,3.5-3.57,5.09-5.53C59.7,85.06,60.61,83.21,62.55,82.62Z" transform="translate(-10.92 -26.19)"/><path class="cls-12" d="M87,95l.05,1c-4.73-.64-8.22-3.24-11-6.94,1.63,1.11,3.32,2.15,4.88,3.34A12.59,12.59,0,0,0,87,95Z" transform="translate(-10.92 -26.19)"/><path class="cls-11" d="M221.55,31.05l.6-.06c1.27,2,3.67,3.68,1.88,6.55h-1.87l-1-2.49,1.86.07.25,1.08a.24.24,0,0,0,.18-.14.82.82,0,0,0-.36-1C223.07,33.51,221.31,32.66,221.55,31.05Z" transform="translate(-10.92 -26.19)"/><path class="cls-12" d="M175.34,151.59c-.37,0-.91-.25-1.07-.09s.13.52.41.68l-.39.88H173a7.75,7.75,0,0,1,0-5.5l1.11-.49c.07.46-.16,1.11.32,1.33C176,149.14,175.67,150.33,175.34,151.59Z" transform="translate(-10.92 -26.19)"/><path class="cls-12" d="M98.49,103.28l.14-.86c2,1.68,2.84,4,3.36,6.47.23,1,.52,1.7,1.65,1.73-.13.67.14,1.48-.65,1.94-.61,0-.82-.42-1-.94C101.28,108.66,99.75,106,98.49,103.28Z" transform="translate(-10.92 -26.19)"/><path class="cls-7" d="M222,61.14V62l-1.05,2.15-.82-.06c.24-1.45.49-2.89.71-4.34.1-.66.59-1.6-.81-1.45-.32-1.06.42-1.65,1-2.31.53.52.9,1.3,1.85,1.07A6.81,6.81,0,0,0,222,61.14Z" transform="translate(-10.92 -26.19)"/><path class="cls-10" d="M222.91,57c-1,.23-1.33-.56-1.85-1.07-.23-.86-1-1.31-1.51-2,1.16.19,1.93-.88,3-1h.22l1.29,2.44.49.52a.69.69,0,0,1,.48,0l-1.54.78Z" transform="translate(-10.92 -26.19)"/><path class="cls-12" d="M180,154.06c.47-1.16,1.94-1.9,1.46-3.46l.47-.81c1.73-.4,1.21-2.37,2.26-3.24H185c-1.14,2.59-1.55,5.55-3.84,7.54Z" transform="translate(-10.92 -26.19)"/><path class="cls-10" d="M62.55,97V96l.09-.11A9.89,9.89,0,0,1,69,97l-.63.61C66.6,96.58,64.44,98.14,62.55,97Z" transform="translate(-10.92 -26.19)"/><path class="cls-11" d="M191.18,125.49l-.67.07a90.19,90.19,0,0,1,1.06-10,1.17,1.17,0,0,1,1.41,0c-.15,1.78,0,3.64-1.28,5.15-.32.25-.24.56-.14.88l.06,1.47c-.63.42-.75.91-.2,1.49Z" transform="translate(-10.92 -26.19)"/><path class="cls-9" d="M176,137.54a6.41,6.41,0,0,0,7,3c-.57.66-1.36.33-2,.43-2,.31-3.79-.83-5.75-.41l-.4-.07a2.16,2.16,0,0,1,1-2.89Z" transform="translate(-10.92 -26.19)"/><path class="cls-12" d="M86.71,139.34l-.13.68c-3.19-.88-5.16-3.54-7.71-5.35l.68-.64C82.11,135.57,84,138,86.71,139.34Z" transform="translate(-10.92 -26.19)"/><path class="cls-1" d="M151.37,118.43c.7-1.41,2.43-1.46,3.36-2.56l1.68-.43C155.5,118.47,154,119.38,151.37,118.43Z" transform="translate(-10.92 -26.19)"/><path class="cls-12" d="M61,123.06c3.36.08,5.43,2.32,7.52,4.51A21.3,21.3,0,0,1,61,123.06Z" transform="translate(-10.92 -26.19)"/><path class="cls-11" d="M169.55,113.06l.58-.62a5.59,5.59,0,0,1,2.46.86c1,.52,2,1.52,3.35,1l.57.72c-1.83,1.4-3.28-.17-4.84-.68A11,11,0,0,1,169.55,113.06Z" transform="translate(-10.92 -26.19)"/><path class="cls-1" d="M174.81,140.54l.4.07c.25.62.89.7,1.38,1-1.57,1.47-1.66,3.63-2.52,5.43l-1.11.49C173,145,174.67,143,174.81,140.54Z" transform="translate(-10.92 -26.19)"/><path class="cls-12" d="M90.12,136.14c1.55-2-.11-4.06,0-6.09.95.58,1.27,1.66,2,2.43a2,2,0,0,0,2.41.54c.15.54.13,1-.5,1.23-.81.35-1.44-1.53-2.33-.18C91.21,134.79,91.21,135.86,90.12,136.14Z" transform="translate(-10.92 -26.19)"/><path class="cls-11" d="M220.16,64.06l.82.06c.29,1.32-.57,2.28-1,3.37l-1.21.06a3,3,0,0,0-2.21.4l-.16-1a2.16,2.16,0,0,1,1.11-2.06c.85.2.07,1.69,1.08,1.52.47-.08.83-.9,1.2-1.42A4.63,4.63,0,0,0,220.16,64.06Z" transform="translate(-10.92 -26.19)"/><path class="cls-10" d="M131.12,80.66c-1,1.79-.3,3.61-.1,5.42l-.81.83c-.5-2.11-1.91-4.22,0-6.35Z" transform="translate(-10.92 -26.19)"/><path class="cls-8" d="M105,109.48a9.56,9.56,0,0,1,.52,7.25c-1-2-.12-4.35-1.57-6.16A1.33,1.33,0,0,1,105,109.48Z" transform="translate(-10.92 -26.19)"/><path class="cls-11" d="M131.12,80.66l-.94-.1c.1-1.65,1.91-1.78,2.59-2.92,1-.34,1.71-1.48,3.42-1.47Z" transform="translate(-10.92 -26.19)"/><path class="cls-1" d="M60.06,111.49v-.87A7.56,7.56,0,0,1,62.59,112l-.06,2h0L59,114.4l.26-.83C59.12,112.74,61.9,113.08,60.06,111.49Z" transform="translate(-10.92 -26.19)"/><path class="cls-9" d="M185,146.53h-.76l1.25-4.82.06-.68h1.39A18.64,18.64,0,0,1,185,146.53Z" transform="translate(-10.92 -26.19)"/><path class="cls-10" d="M182.45,52c0,1,1.1,1.15,1.26,2l-6.23-.19L178,53C179.37,52,181.19,53.14,182.45,52Z" transform="translate(-10.92 -26.19)"/><path class="cls-1" d="M79.55,134l-.68.64A20.7,20.7,0,0,1,74.56,132v-.7C76.39,132,78.55,132,79.55,134Z" transform="translate(-10.92 -26.19)"/><path class="cls-9" d="M180,154.06h1.1c-.83,2-1.56,4.15-4.1,4.68C177.29,156.7,179.46,155.88,180,154.06Z" transform="translate(-10.92 -26.19)"/><path class="cls-12" d="M74.55,131.34v.7c-2.25-1.17-4.54-2.29-6-4.49C70.93,128.19,72.55,130,74.55,131.34Z" transform="translate(-10.92 -26.19)"/><path class="cls-12" d="M83,122.14l.58-.6c1.64,1.64,3.88,2.83,4,5.55C85.64,125.81,84.68,123.62,83,122.14Z" transform="translate(-10.92 -26.19)"/><path class="cls-10" d="M46,129.06c1.21.26,2.49-1.37,3.65.15l-3.6,2.64L45.5,131A2.18,2.18,0,0,0,46,129.06Z" transform="translate(-10.92 -26.19)"/><path class="cls-11" d="M178,53l-.56.74a26.45,26.45,0,0,1-6.14,2.13c1.3-1.69,2.69-1.62,3.73-2.26.72,0,1.52.06,1.48-1C177,52.71,177.44,53.22,178,53Z" transform="translate(-10.92 -26.19)"/><path class="cls-2" d="M94,134.23c.63-.22.65-.7.5-1.23-.09-1.17.44-1.77,1.63-1.76-.2,1.29-.4,2.59-.59,3.88-.13.93-.8.9-1.48.88Z" transform="translate(-10.92 -26.19)"/><path class="cls-13" d="M62.5,114l.06-2c1.49.7,3.49.25,4.52,2Z" transform="translate(-10.92 -26.19)"/><path class="cls-7" d="M176.55,115l-.57-.72c1.26-.81,2.47-1.77,4.09-1.76H180C179.55,114.32,178,114.59,176.55,115Z" transform="translate(-10.92 -26.19)"/><path class="cls-2" d="M181.43,46.46c-.1,1-.17,1.94,1.16,2.16-.58.85-1.51,1.47-2.21.59C179.44,48,180.34,47.14,181.43,46.46Z" transform="translate(-10.92 -26.19)"/><path class="cls-7" d="M181.94,110c-.24,1.37,1,3-.73,4.1,0-.82.17-1.81-1.23-1.54h0a1.23,1.23,0,0,1,.51-1.18Z" transform="translate(-10.92 -26.19)"/><path class="cls-10" d="M100.07,131.52a2.06,2.06,0,0,1-.5,0v-.92a11.17,11.17,0,0,1,4.17-2.34c.34,1.71-1.18,1.7-2.09,2.25A1.46,1.46,0,0,0,100.07,131.52Z" transform="translate(-10.92 -26.19)"/><path class="cls-1" d="M44.89,116.79l.58.74c.08,1.08-.5,1.5-1.5,1.5H43.4A2.32,2.32,0,0,1,44.89,116.79Z" transform="translate(-10.92 -26.19)"/><path class="cls-2" d="M180.18,119.6a3,3,0,0,1-.94,3.47C179.6,121.92,179.49,120.65,180.18,119.6Z" transform="translate(-10.92 -26.19)"/><path class="cls-9" d="M220,33.57v.57c-.65.19-1.8-.8-1.86.79l-.36.34-.72-.77c.34-1.34,1.38-1.46,2.5-1.47h0Z" transform="translate(-10.92 -26.19)"/><path class="cls-10" d="M222.16,37.52H224c-.13.86-.64,1.38-1.5,1.2C221.94,38.62,222,38,222.16,37.52Z" transform="translate(-10.92 -26.19)"/><path class="cls-11" d="M130.22,86.92l.81-.83.39,1.16v1.87C130.17,88.9,130.55,87.7,130.22,86.92Z" transform="translate(-10.92 -26.19)"/><path class="cls-6" d="M118,99.52l1.07.07c-.1.69,0,1.58-1,1.68-.62.07-.65-.57-.79-1l.1-.17.6-.58Z" transform="translate(-10.92 -26.19)"/><path class="cls-9" d="M99.55,130.64v.92l-2-.48C97.92,129.55,98.9,130.8,99.55,130.64Z" transform="translate(-10.92 -26.19)"/><path class="cls-1" d="M148.92,117.24c1-.66,1.7-.73,1.64.79C149.87,118.05,149.22,118,148.92,117.24Z" transform="translate(-10.92 -26.19)"/><path class="cls-2" d="M53.49,92l.53.17c-.58.85-1.21,1.58-2.4,1.2C51.79,92.29,52.71,92.24,53.49,92Z" transform="translate(-10.92 -26.19)"/><path class="cls-11" d="M132.55,91l-1.1-.51c.06-.48-.55-1,0-1.43C132.79,89.2,132.55,90.14,132.55,91Z" transform="translate(-10.92 -26.19)"/><path class="cls-13" d="M68.55,115.51A1.36,1.36,0,0,1,67,114a1.49,1.49,0,0,1,1.52,1.46Z" transform="translate(-10.92 -26.19)"/><path class="cls-10" d="M191.42,124.52c-.55-.58-.43-1.07.2-1.49A1.19,1.19,0,0,1,191.42,124.52Z" transform="translate(-10.92 -26.19)"/><path class="cls-11" d="M189.43,54.45l.68-.91,1,.93-.39.52Z" transform="translate(-10.92 -26.19)"/><path class="cls-12" d="M98.55,118.05c.58.11,1.37-.14,1.41.86C99.48,118.6,98.79,118.66,98.55,118.05Z" transform="translate(-10.92 -26.19)"/><path class="cls-10" d="M194.91,95c-.48-.39-.35-.7.12-1a.62.62,0,0,1-.12,1Z" transform="translate(-10.92 -26.19)"/><path class="cls-9" d="M128,63.93c-.32.63-.69,1.11-1.46.58A1.5,1.5,0,0,1,128,63.93Z" transform="translate(-10.92 -26.19)"/><path class="cls-9" d="M42.86,120.77c-.08.92-.63,1.26-1.5,1.21C41.71,121.38,42,120.7,42.86,120.77Z" transform="translate(-10.92 -26.19)"/><path class="cls-10" d="M191.55,121.56c-.09-.32-.18-.63.14-.88H192C192.26,121.21,191.71,121.28,191.55,121.56Z" transform="translate(-10.92 -26.19)"/><path class="cls-9" d="M43.4,119H44c0,.51-.08,1-.8.75Z" transform="translate(-10.92 -26.19)"/><path class="cls-11" d="M193.55,55.56v.57c-.5.49-.85,0-1.25-.18l.34-.48Z" transform="translate(-10.92 -26.19)"/><path class="cls-12" d="M76.07,89.05l-.51-.59a.91.91,0,0,1,0-.29C76,88.3,76,88.66,76.07,89.05Z" transform="translate(-10.92 -26.19)"/><path class="cls-11" d="M191.64,55c.38.06.82,0,1,.51l-.34.48-1-.59Z" transform="translate(-10.92 -26.19)"/><path class="cls-11" d="M157.07,114.58l.41-.55C157.62,114.42,157.42,114.55,157.07,114.58Z" transform="translate(-10.92 -26.19)"/><path class="cls-10" d="M118,99.51l-.6.58Z" transform="translate(-10.92 -26.19)"/><path class="cls-13" d="M69.06,115.52c-.16.31-.33.39-.49,0Z" transform="translate(-10.92 -26.19)"/><path class="cls-1" d="M75.55,88.14a.91.91,0,0,0,0,.29L75,88Z" transform="translate(-10.92 -26.19)"/><path class="cls-11" d="M191.12,54.47l.51.49-.35.4-.56-.36Z" transform="translate(-10.92 -26.19)"/><path class="cls-9" d="M224.55,56.05l-.49-.52Z" transform="translate(-10.92 -26.19)"/><path class="cls-11" d="M132.64,92.49,132.57,91a11,11,0,0,1,1.16.87c2.56,2.5,5.37,3.5,8.7,1.53-1.54,2.58-.55,5.06.3,7.55,1,3,2,6,2.93,8.93l-.3.3c-1.3-.89-1.29-2.57-2.24-3.67.15-1.94-1.47-3.35-1.55-5.22-.88-1.47-.28-3.85-2.69-4.38-.43-1.32-1.57-1.55-2.72-1.76Z" transform="translate(-10.92 -26.19)"/><path class="cls-2" d="M162.09,62.14c3.14,2.72,4.43,6.43,5.43,10.27.22.86.14,1.84,1.25,2.16l.24,1h-1.57a25,25,0,0,0-4.88-11.25c-.6-.73-1.11-1.65-2.46-1.06,1.92,2.74,3.75,5.41,4,8.78-1.19-.63-1.27-2-2-3L161.57,68l-.31-.94c-.28-.59-.49-1.23-1.18-1.49h0l-.52-1.07-.82-1a1.29,1.29,0,0,1-.18-.45,2.6,2.6,0,0,1,2.61-1Z" transform="translate(-10.92 -26.19)"/><path class="cls-13" d="M164.09,72c-.24-3.37-2.07-6-4-8.78,1.35-.59,1.86.33,2.46,1.06a25,25,0,0,1,4.88,11.25c-.36.91-.75,1.55-1.45.2a15.62,15.62,0,0,0-.89-1.36c0-.56,0-1.1-.61-1.39.12-.44.19-.87-.42-1Z" transform="translate(-10.92 -26.19)"/><path class="cls-11" d="M152,90.63c-.82-.2-1.42-.61-1.43-1.56a1.93,1.93,0,0,1,.06-.47h0L154,88c3-.89,5-3,7.14-5.14.7-.69,1.16-1.63,2.14-2l.41.35-.17.86h0l-.74.52a.52.52,0,0,0-.24.31c-1.28,1.44-2.94,2.51-4,4.18a10.32,10.32,0,0,1-5.37,2.54A1.56,1.56,0,0,0,152,90.63Z" transform="translate(-10.92 -26.19)"/><path class="cls-11" d="M165.09,74.42a15.62,15.62,0,0,1,.89,1.36c.7,1.34,1.09.71,1.45-.2H169c-.1,1.62-1.74,1.93-2.51,3-.33.25-.83.43-.47,1h0c-.49-.17-.61,0-.48.48h0c-1-.29-1.16.85-1.82,1.14l-.41-.35C165.38,79.14,164.49,76.55,165.09,74.42Z" transform="translate(-10.92 -26.19)"/><path class="cls-8" d="M161.17,62a2.6,2.6,0,0,0-2.61,1l-1,0-.5-1.52c1.12-.44,2.55-.36,3.07-1.81l.46-.24C161.85,60.06,160.63,61.24,161.17,62Z" transform="translate(-10.92 -26.19)"/><path class="cls-11" d="M157,61.49l.5,1.52-.21.48c-.86-.23-2.07,1.4-2.48-.06C154.55,62.24,155.78,61.55,157,61.49Z" transform="translate(-10.92 -26.19)"/><path class="cls-9" d="M160.55,59.43l-.46.24A13.45,13.45,0,0,1,159,55.55l.2-.15c.88.66.74,1.83,1.32,2.63Z" transform="translate(-10.92 -26.19)"/><path class="cls-12" d="M150.61,88.6a1.93,1.93,0,0,1-.06.47l-3.51,1C147.44,87.74,149.27,88.75,150.61,88.6Z" transform="translate(-10.92 -26.19)"/><path class="cls-12" d="M154,88l-3.44.63C151.48,87.07,152.71,87.32,154,88Z" transform="translate(-10.92 -26.19)"/><path class="cls-12" d="M160.08,65.52c.69.26.9.9,1.18,1.49C160.14,67.14,160,66.39,160.08,65.52Z" transform="translate(-10.92 -26.19)"/><path class="cls-12" d="M161.55,68l.53,1.14A1.12,1.12,0,0,1,161.55,68Z" transform="translate(-10.92 -26.19)"/><path class="cls-12" d="M159.55,64.46l.52,1.07C159.6,65.33,159.55,64.91,159.55,64.46Z" transform="translate(-10.92 -26.19)"/><path class="cls-12" d="M157.35,63.5l.21-.48,1,0a1.29,1.29,0,0,0,.18.45Z" transform="translate(-10.92 -26.19)"/><path class="cls-2" d="M164.06,72c.62.13.54.55.42,1Z" transform="translate(-10.92 -26.19)"/><path class="cls-10" d="M131.45,87.46v-.22l.22.14Z" transform="translate(-10.92 -26.19)"/><path class="cls-14" d="M172.44,101a8.1,8.1,0,0,0,4.23-3.76L181,93.52l1-.11.06,3.56a15.74,15.74,0,0,0-.84,10.4,26.48,26.48,0,0,0-5.09,3.08c-1,.69-1.86.71-2.56-.31C171.73,107.31,170.27,104.39,172.44,101Z" transform="translate(-10.92 -26.19)"/><path class="cls-11" d="M172.44,101c-2.17,3.4-.71,6.32,1.23,9.15.7,1,1.54,1,2.56.31a26.48,26.48,0,0,1,5.09-3.08l.73.16.06.68c-1.18.84-2.64,1.22-3.66,2.31-1.66.7-3.34,2.73-5.12.87-1.28-1.34-3-2.72-3.16-4.78-.48-4.86.07-9.5,3.62-13.29l.27.22c.3,1.58-.9,2.54-1.52,3.75S170.89,99.72,172.44,101Z" transform="translate(-10.92 -26.19)"/><path class="cls-11" d="M192.13,77.64a10.66,10.66,0,0,1-4.42,4.86,5.54,5.54,0,0,0-3.68,2c-.76,1.42-2.62,1.32-3.51,2.56l-.49-.56c3.63-3.48,8-6,11.87-9.18Z" transform="translate(-10.92 -26.19)"/><path class="cls-10" d="M182,107.54l-.73-.16a15.73,15.73,0,0,1,.84-10.4H183C182.61,100.5,183.42,104.14,182,107.54Z" transform="translate(-10.92 -26.19)"/><path class="cls-11" d="M196.42,73c1.11,1,4.29,1,1.86,3.72-1.09-2.47-2.59-.73-3.8-.24-.78.32-1.36,1.16-2.35,1.12l-.23-.27Z" transform="translate(-10.92 -26.19)"/><path class="cls-10" d="M185.55,141.05l-.06.68-1.39-.15-.53.16c-2.34.77-4.66.16-7-.13-.48-.3-1.12-.38-1.38-1,2-.42,3.8.72,5.75.41.69-.11,1.47.23,2-.43C183.92,140.41,184.87,140,185.55,141.05Z" transform="translate(-10.92 -26.19)"/><path class="cls-9" d="M181,93.53l-4.38,3.71C177.3,94,178.78,92.78,181,93.53Z" transform="translate(-10.92 -26.19)"/><path class="cls-7" d="M180,86.55l.49.56c-1,1.85-2.73,2.91-4.45,4l-.56-.09A13.88,13.88,0,0,1,180,86.55Z" transform="translate(-10.92 -26.19)"/><path class="cls-13" d="M178.45,110.54c1-1.09,2.48-1.48,3.66-2.31.52.63.13,1.17-.17,1.72l-1.4,1.39Z" transform="translate(-10.92 -26.19)"/><path class="cls-11" d="M183,97h-.88q0-1.78-.06-3.56c.07-.52-.16-1.26.71-1.27.65,0,.67.54.75,1C183.79,94.51,183,95.7,183,97Z" transform="translate(-10.92 -26.19)"/><path class="cls-12" d="M184,84.55a5.54,5.54,0,0,1,3.68-2C187,84,185.92,85.05,184,84.55Z" transform="translate(-10.92 -26.19)"/><path class="cls-9" d="M192.55,100.06a2.45,2.45,0,0,1,0,3.1Z" transform="translate(-10.92 -26.19)"/><path class="cls-11" d="M175.08,92.06c0,.7,0,1.45-1,1.5l-.27-.22a1.94,1.94,0,0,1,1.1-1.47Z" transform="translate(-10.92 -26.19)"/><path class="cls-9" d="M194,95.57v1l-1,.06a1.11,1.11,0,0,1,.51-1.07Z" transform="translate(-10.92 -26.19)"/><path class="cls-10" d="M194,95.57h-.46c0-.57-.08-1.16.52-1.52Z" transform="translate(-10.92 -26.19)"/><path class="cls-9" d="M193,97.45c.31.24.4.45-.07.6Z" transform="translate(-10.92 -26.19)"/><path class="cls-9" d="M192.55,103.94l.52.63Z" transform="translate(-10.92 -26.19)"/><path class="cls-11" d="M175.55,91.56l-.49.5-.19-.19.41-.53Z" transform="translate(-10.92 -26.19)"/><path class="cls-11" d="M175.55,91l.56.09-.51.49-.26-.21A.85.85,0,0,1,175.55,91Z" transform="translate(-10.92 -26.19)"/><path class="cls-15" d="M123.44,119.54l.72-1,4.39-4.33c1-1,2.65-1.48,3.07-3.13h0l1-.57.45-.39c2.49-1.68,5-3.3,8-3.79l1.57.39q.3,3.18.61,6.37c-1.11.81-2.11,2-3.35,2.37-2.51.83-4.36,2.53-6.37,4h0c-2-.12-3.21,1.61-4.94,2.12a13.92,13.92,0,0,0-6.59,5.85h0a1.7,1.7,0,0,0-2,1.36l0,.11h0l-.51.42c-1.6.85-2.9,1.07-3-1.37,1.18-1,2.68-1.77,3-3.51h0a.82.82,0,0,0,.53-1h0l.49-.5h0C122.35,122.56,123,121.14,123.44,119.54Z" transform="translate(-10.92 -26.19)"/><path class="cls-9" d="M136.16,95.14c1.15.21,2.29.44,2.72,1.76a6.64,6.64,0,0,0-5,2.37c-.8.91-1.49,2-2.82,2.33-.81.39-1.58.8-1.55,1.87l-.06-.07-1.87.13c1.81-2.76,4.69-4.4,7-6.66C135.14,96.37,136,96.14,136.16,95.14Z" transform="translate(-10.92 -26.19)"/><path class="cls-10" d="M133.55,119.52c2-1.52,3.86-3.22,6.37-4,1.24-.41,2.24-1.56,3.35-2.37l2.38-1.07,1.51-.59.52.54-1.09,1a5.42,5.42,0,0,0-2.78,1.18C140.55,116.27,137.44,118.68,133.55,119.52Z" transform="translate(-10.92 -26.19)"/><path class="cls-9" d="M131.61,111.14c-.41,1.64-2,2.11-3.07,3.13-1.47,1.43-2.93,2.88-4.39,4.33C125.22,114.68,128.25,112.73,131.61,111.14Z" transform="translate(-10.92 -26.19)"/><path class="cls-10" d="M122,127.5a13.92,13.92,0,0,1,6.59-5.85v.92A16.17,16.17,0,0,1,122,127.5Z" transform="translate(-10.92 -26.19)"/><path class="cls-9" d="M141.07,106.35c-3,.5-5.56,2.11-8,3.79,1-3.21,4.16-3.57,6.43-5.12C139.78,105.72,141.12,105.14,141.07,106.35Z" transform="translate(-10.92 -26.19)"/><path class="cls-13" d="M141.07,106.35c.05-1.16-1.29-.63-1.61-1.33.47-1.37.84-2.79,2.12-3.69.08,1.87,1.7,3.28,1.55,5.21l-.49.19Z" transform="translate(-10.92 -26.19)"/><path class="cls-2" d="M128.55,122.56v-.92c1.73-.52,2.94-2.25,4.94-2.12A9.21,9.21,0,0,1,128.55,122.56Z" transform="translate(-10.92 -26.19)"/><path class="cls-6" d="M119.55,124.56c-.35,1.74-1.85,2.49-3,3.51-.38-.09-1-.4-.69-.65C117.11,126.5,117.79,124.81,119.55,124.56Z" transform="translate(-10.92 -26.19)"/><path class="cls-6" d="M123.44,119.54c-.44,1.59-1.08,3-2.85,3.54C121.08,121.53,121.66,120.06,123.44,119.54Z" transform="translate(-10.92 -26.19)"/><path class="cls-8" d="M94,134.23,94,136c-1.39.08-1.66-1.22-2.39-2C92.55,132.7,93.16,134.58,94,134.23Z" transform="translate(-10.92 -26.19)"/><path class="cls-10" d="M120,129a1.7,1.7,0,0,1,1.89-1.49l.11,0A2.16,2.16,0,0,1,120,129Z" transform="translate(-10.92 -26.19)"/><path class="cls-11" d="M129.55,103.52c0-1.08.75-1.49,1.55-1.87A2.36,2.36,0,0,1,129.55,103.52Z" transform="translate(-10.92 -26.19)"/><path class="cls-9" d="M100.07,131.52a1.46,1.46,0,0,1,1.59-1A1.76,1.76,0,0,1,100.07,131.52Z" transform="translate(-10.92 -26.19)"/><path class="cls-12" d="M88.37,139.37h-.9l.89-.38A.41.41,0,0,1,88.37,139.37Z" transform="translate(-10.92 -26.19)"/><path class="cls-9" d="M132.55,110.53l-1,.57A1,1,0,0,1,132.55,110.53Z" transform="translate(-10.92 -26.19)"/><path class="cls-11" d="M126.55,128.05a1,1,0,0,1-1,.53A1,1,0,0,1,126.55,128.05Z" transform="translate(-10.92 -26.19)"/><path class="cls-6" d="M120.08,123.58a.82.82,0,0,1-.53,1A.88.88,0,0,1,120.08,123.58Z" transform="translate(-10.92 -26.19)"/><path class="cls-10" d="M119.55,129.44l.51-.42Z" transform="translate(-10.92 -26.19)"/><path class="cls-6" d="M120.55,123.08l-.49.5Z" transform="translate(-10.92 -26.19)"/><path class="cls-15" d="M62.69,95.84,62.6,96c-4.85-.81-8.48,1.72-12.07,4.39a3.06,3.06,0,0,1-3.44-.77h.05c.64,0,.11-2.11,1.6-.82.75.64,1.48-.33,2.14-.74,5.22-3.24,9.26-7.77,13.24-12.34l1.49-1.42c.3-.17.82-.16.6-.75a.27.27,0,0,0-.07-.36h0l.23.09h.24c.53-.07,1.1,0,1.5-.51.86.85,1.74,1.68,1,3C66.08,88.55,64.55,92.3,62.69,95.84Z" transform="translate(-10.92 -26.19)"/><path class="cls-12" d="M102.65,118.2l-.5.44Z" transform="translate(-10.92 -26.19)"/><path class="cls-11" d="M185.7,55l1.34.09c-.8,1.47-2,2.86-1,4.71a10.08,10.08,0,0,0-1,5.38c0,3.07,3,1.82,4.47,2.85l1,.67c-2.35,0-4.6-1-7-.62a1.15,1.15,0,0,1-1.14-.55A97.49,97.49,0,0,0,185.7,55Z" transform="translate(-10.92 -26.19)"/><path class="cls-13" d="M160.55,58c-.59-.8-.45-2-1.32-2.63a6.38,6.38,0,0,0-3.9-4.42c-.49-.18-1.29.09-1.23-.78a1.23,1.23,0,0,1,1.42-1h0c1.41.36,2.06-.74,3-1.25l.21.66c-.67.74-1,1.43-.09,2.31,2,2,2,4.66,2.65,7.13Z" transform="translate(-10.92 -26.19)"/><path class="cls-9" d="M161.32,58c-.62-2.48-.67-5.19-2.65-7.13-.9-.88-.57-1.57.09-2.31h.09c1,2.5,3,4.62,3.22,7.45-.11.69.21,1.49-.49,2A.76.76,0,0,0,161.32,58Z" transform="translate(-10.92 -26.19)"/><path class="cls-13" d="M166.55,78.52c.77-1,2.41-1.36,2.51-3l-.24-1c.89.12,1.86.67,2.52-.47v.24l.23.08.58.69-5.05,4Z" transform="translate(-10.92 -26.19)"/><path class="cls-13" d="M162.07,56c-.26-2.83-2.19-5-3.22-7.45C162,50.21,163.14,52.88,162.07,56Z" transform="translate(-10.92 -26.19)"/><path class="cls-12" d="M161.32,58a.76.76,0,0,1,.26,0L163,59l-.48.52a3.93,3.93,0,0,0-.46,2.57l-.91-.09c-.54-.79.67-2-.59-2.59V58Z" transform="translate(-10.92 -26.19)"/><path class="cls-10" d="M174.41,71.87A5.34,5.34,0,0,1,179.53,69h0l-2,1.5h0l-1,.5h0l-.46.41c-.27.82-.78,1-1.54.59Z" transform="translate(-10.92 -26.19)"/><path class="cls-10" d="M171.29,74.08c.92-.91,1.67-2.06,3.13-2.21l.13.18v1.48a1.53,1.53,0,0,0-1.48,1h-.39c-.31-.41-.66-.57-1.09-.16l-.23-.08Z" transform="translate(-10.92 -26.19)"/><path class="cls-10" d="M182.43,67.48a1.15,1.15,0,0,0,1.14.55,6,6,0,0,1-3,1.53,1,1,0,0,0-1.06-.5h0A7.53,7.53,0,0,1,182.43,67.48Z" transform="translate(-10.92 -26.19)"/><path class="cls-9" d="M170.31,56.5c-.32-.09-.52-.24-.34-.48a.77.77,0,0,1,.57-.27c.1,0,.2.31.3.48Z" transform="translate(-10.92 -26.19)"/><path class="cls-9" d="M163.55,59a.81.81,0,0,1,1-.38c.06,0,.09.12.13.19l-1.08.23Z" transform="translate(-10.92 -26.19)"/><path class="cls-9" d="M167.55,57.56l-.54.37-.12-.19.66-.19Z" transform="translate(-10.92 -26.19)"/><path class="cls-9" d="M167.55,57.54l.53-.37.13.19-.65.2Z" transform="translate(-10.92 -26.19)"/><path class="cls-9" d="M162.55,59.55,163,59h.5A1,1,0,0,1,162.55,59.55Z" transform="translate(-10.92 -26.19)"/><path class="cls-15" d="M59.78,121.36a35.62,35.62,0,0,0-10.62,6.27c-1,.91-2.42.25-3.62.5L44,127c.34-.5,1.15-.63,1.11-1.43h0l.55-.69a.49.49,0,0,1,.25-.3l.73-.54h0l.54-.52h0l.54-.53h0l.52-.53h0A39.22,39.22,0,0,1,55.67,117c1.29-.17,2.11-1.22,3.22-1.69s2.36-1.28,2.94.66C60.74,117.74,59.21,119.14,59.78,121.36Z" transform="translate(-10.92 -26.19)"/><path class="cls-13" d="M61.65,116.08c-.58-1.94-1.87-1.11-2.94-.66s-1.94,1.52-3.22,1.69v-.58l3.4-2.12,3.57-.41C62.47,114.79,62.86,115.76,61.65,116.08Z" transform="translate(-10.92 -26.19)"/><path class="cls-2" d="M180.62,69.57a6,6,0,0,0,3-1.53c2.38-.43,4.63.67,7,.62a2.1,2.1,0,0,1,2,1.46l.18,1.5-1.21,2.44-2.44,1.52a.87.87,0,0,0-1,1h0a.92.92,0,0,0-1,.51h0l-.51.5h0c-.42,0-.81.06-1,.51h0a.88.88,0,0,0-1,.49h0l-.49.49h0l-.51.5h0c-1.26,0-2.58-.15-3,1.51h0c-.64,0-1,.28-1,.94a6.8,6.8,0,0,0-3,4.16l-1.56,1.34-.48.07A1.42,1.42,0,0,0,173.54,89l-.59.41-.52.49A3.78,3.78,0,0,0,170,93c-1.14.23-1.42,1.25-1.9,2.08-.76.52-1.61,1.1-1.75,2-.5,3.09-2,5.92-2.26,9.06-.59,3-2.83,2.72-5,2.51a1.9,1.9,0,0,1-1-1.42c-.08-2-.58-3.75-2.64-4.6l-.36-.88a3.41,3.41,0,0,0-1.6-3.13,3.59,3.59,0,0,1-.8-2.53c.67-.61.21-.85-.35-1a12.23,12.23,0,0,0-.08-1.39c1.31-.85,1.29-1.71,0-2.6a3.1,3.1,0,0,0-.24-.38,1.55,1.55,0,0,1,1.24-1,10.32,10.32,0,0,0,5.37-2.54c.87.62,1.26-.29,1.84-.59a6.33,6.33,0,0,0,6.4-1.21c-1.71-.61-3.3.75-4.92.19.19-.86.88-1.6.65-2.57a.52.52,0,0,1,.24-.31c.37,0,.66-.11.74-.52h0a1.92,1.92,0,0,0,2-1.84q0-.08,0-.16h0c.33,0,.49-.15.48-.48h0a.87.87,0,0,0,1.05-.4l5.05-4,.51-.53h.39c1.15.83,2.6.31,3.83.86a.7.7,0,0,0,1.07-.62c0-.49-.41-.64-.85-.71-.87-.14-1.85.29-2.57-.54V72.18c.75.44,1.26.23,1.54-.58l.46-.41h0c.42,0,.82,0,1-.5h0A3.8,3.8,0,0,0,180.62,69.57Z" transform="translate(-10.92 -26.19)"/><path class="cls-10" d="M155.37,102.57c2.06.86,2.56,2.61,2.64,4.6A7.79,7.79,0,0,1,155.37,102.57Z" transform="translate(-10.92 -26.19)"/><path class="cls-11" d="M147.13,111.44l-1.51.59-.25-1.82.3-.3A2,2,0,0,1,147.13,111.44Z" transform="translate(-10.92 -26.19)"/><path class="cls-11" d="M152.22,91c1.25.88,1.27,1.75,0,2.6Q152.2,92.3,152.22,91Z" transform="translate(-10.92 -26.19)"/><path class="cls-10" d="M153.41,98.56a3.41,3.41,0,0,1,1.6,3.13A4.56,4.56,0,0,1,153.41,98.56Z" transform="translate(-10.92 -26.19)"/><path class="cls-11" d="M152.26,95c.56.2,1,.44.35,1a.74.74,0,0,1-.39-1Z" transform="translate(-10.92 -26.19)"/><path class="cls-8" d="M108.55,113.07c-.35.44-1.08.64-1.17.18-.3-1.45-1.2-3.09.65-4.24C109,110.25,108.3,111.72,108.55,113.07Z" transform="translate(-10.92 -26.19)"/><path class="cls-6" d="M121.61,97.54l.45-.36Z" transform="translate(-10.92 -26.19)"/><path class="cls-6" d="M120.55,98.53l.46-.44Z" transform="translate(-10.92 -26.19)"/><path class="cls-6" d="M119.74,99.05l.05-.22H120A.44.44,0,0,1,119.74,99.05Z" transform="translate(-10.92 -26.19)"/><path class="cls-6" d="M121.09,98.05l.45-.44Z" transform="translate(-10.92 -26.19)"/><path class="cls-8" d="M46,129.06a2.18,2.18,0,0,1-.53,2l-1,.49a1,1,0,0,0-1,.56h0c-1.87-.23-3.11.84-4.32,2a23.48,23.48,0,0,1-6.94,5.2c.81-2,3.12-2.56,3.88-4.54a54.49,54.49,0,0,0-9.82,7.87c-1.48,1.38-3.69,2.08-4.33,4.3-1.64.36-1.53-.83-1.62-1.84a3.59,3.59,0,0,0,2.44-1c4.88-3.64,8.85-8.39,14.23-11.45,1.88-1.07,4.21-1.37,5.86-3.1-1.52-1.07-2.44,0-3.46.6-3,1.67-5.6,4.29-9.43,4l-.46-.53.91-.63a7.39,7.39,0,0,0,4.23-1.26c2.82-1.53,5.59-3.14,8.39-4.72h.4c-.39,2.21,1.65,1.43,2.54,2.06Z" transform="translate(-10.92 -26.19)"/><path class="cls-9" d="M55.55,116.53v.58a39.23,39.23,0,0,0-7.47,5.44v-.87c1.53-2.52,3.91-4,6.52-5.08Z" transform="translate(-10.92 -26.19)"/><path class="cls-13" d="M48,121.67v.87h0l-.52.53h0l-.54.53h0l-.54.52h0l-.73.54a.49.49,0,0,0-.25.3l-.55.69h0a1.55,1.55,0,0,0-1.58,1.46h-.4C43.6,124.14,46.17,123.24,48,121.67Z" transform="translate(-10.92 -26.19)"/><path class="cls-11" d="M55.55,116.53l-1,.06a6.31,6.31,0,0,1,4.64-3l-.26.83Z" transform="translate(-10.92 -26.19)"/><path class="cls-9" d="M40.47,122.94l.36.52c-.51.12-.24-.34-.37-.5Z" transform="translate(-10.92 -26.19)"/><path class="cls-9" d="M39.49,124.47l.24.26h-.16a.74.74,0,0,1-.09-.21Z" transform="translate(-10.92 -26.19)"/><path class="cls-11" d="M219.55,33.08c-1.12,0-2.16.13-2.5,1.47l-2,.52.05-.09c0-.94-.46-2.14.67-2.64A3.08,3.08,0,0,1,219.55,33.08Z" transform="translate(-10.92 -26.19)"/><path class="cls-10" d="M220,33.57l-.45-.43.64.11Z" transform="translate(-10.92 -26.19)"/><path class="cls-11" d="M221,30.53l.55.51Z" transform="translate(-10.92 -26.19)"/><path class="cls-3" d="M16.09,110,19,108.16c5.3-.13,10.41-2,15.76-1.79a69.63,69.63,0,0,1-16.65,4.33A1.91,1.91,0,0,1,16.09,110Z" transform="translate(-10.92 -26.19)"/><path class="cls-3" d="M33,103.51c1.2-1.22,2.89-1.21,4.37-1.59A40.33,40.33,0,0,0,44,99.07c.76-.35,1.71-1.18,2.07.46-.41,1-1.44,1.09-2.27,1.34C40.25,101.93,36.84,103.57,33,103.51Z" transform="translate(-10.92 -26.19)"/><path class="cls-10" d="M47.09,99.57a3.06,3.06,0,0,0,3.44.77L50,102a5.7,5.7,0,0,0-3.4,1.09v-.54c.52-.35.46-.67-.06-1h0v-2Z" transform="translate(-10.92 -26.19)"/><path class="cls-3" d="M43.55,105c-.18.51-.6.52-1,.49A1.13,1.13,0,0,1,43.55,105Z" transform="translate(-10.92 -26.19)"/><path class="cls-9" d="M46.55,101.56c.51.29.57.62.06,1Z" transform="translate(-10.92 -26.19)"/><path class="cls-9" d="M46.55,101.08v.5C45.88,101.39,46.24,101.24,46.55,101.08Z" transform="translate(-10.92 -26.19)"/><path class="cls-3" d="M22,146.94c.64-2.22,2.86-2.92,4.33-4.3a54.49,54.49,0,0,1,9.82-7.87c-.76,2-3.07,2.57-3.88,4.54a23.48,23.48,0,0,0,6.94-5.2c1.21-1.21,2.45-2.28,4.32-2-3.93,3.63-7.8,7.31-11.81,10.86-1.9,1.69-4.09,3.07-5.67,5.1A2,2,0,0,1,24,149c0-1,.66-1.52,1.4-2.14a18.6,18.6,0,0,0,4.88-5.55c-3,1.34-4.25,4.7-7.34,5.84Z" transform="translate(-10.92 -26.19)"/><path class="cls-3" d="M30,134.14c3.83.3,6.43-2.32,9.43-4,1-.57,1.94-1.67,3.46-.6-1.65,1.74-4,2-5.86,3.1-5.39,3-9.35,7.81-14.23,11.45a3.59,3.59,0,0,1-2.44,1c-.61.64-1.21-.11-1.81,0-1.65-1,0-1.4.41-1.66,3.05-2.23,6.18-4.36,9.28-6.54.84-.59,2-1,1.77-2.4Q30,134.32,30,134.14Z" transform="translate(-10.92 -26.19)"/><path class="cls-8" d="M23,147.14c3.08-1.13,4.37-4.5,7.34-5.84a18.6,18.6,0,0,1-4.88,5.55C24.67,147.47,24,148,24,149,22.66,148.89,22.61,148.14,23,147.14Z" transform="translate(-10.92 -26.19)"/><path class="cls-3" d="M43.55,132.07a1,1,0,0,1,1-.56A1,1,0,0,1,43.55,132.07Z" transform="translate(-10.92 -26.19)"/><path class="cls-7" d="M197.45,47.92c-1.48-.93-3.5-1.51-2.69-4,.52-.78.43-1.88,1.35-2.43l6-.1c1.47.35,3.08-.28,4.47.64.38,2.16-1.92,1.07-2.5,2.07-.31.93-.92,1.8-.68,2.86.54,2.41-.67,3.57-2.86,4Z" transform="translate(-10.92 -26.19)"/><path class="cls-5" d="M206.61,42c-1.39-.92-3-.29-4.47-.64-.08-.42-.26-.74-.76-.71-1.61-.33-3.3.14-4.88-.53-.55-.23-1.57.12-1.52-.83a2,2,0,0,1,1.61-1.71c3.63-.73,7.21-.06,10.76.65,1,.2,1.27,1.2,1.1,2.21h.07c-.4,0-.51.22-.56.53C207.55,41.45,207.33,42.07,206.61,42Z" transform="translate(-10.92 -26.19)"/><path class="cls-4" d="M215,35.07l2-.52.72.77L219,38.67a12.12,12.12,0,0,0-6.48-.61h-1.48c-.55,0-1.05-.15-1-.76s.5-.82,1-.86C212.55,36.37,214.09,36.55,215,35.07Z" transform="translate(-10.92 -26.19)"/><path class="cls-2" d="M206.61,42c.72,0,1-.58,1.36-1l.56-.53h-.07l1,.06c.71.87,1.42.16,2.14,0v1l-1,1c-.59,0-1.21-.08-1.56.58-.9.36-.93,1.17-1,2h-.53c-1.07-.52-2.07-1.3-3.39-1C204.69,43.14,207,44.14,206.61,42Z" transform="translate(-10.92 -26.19)"/><path class="cls-15" d="M211.55,40.54c-.71.17-1.42.87-2.14,0a5.15,5.15,0,0,1,3-1.91c1.74,0,3.51-.07,5,1C215.67,40.67,213.44,39.34,211.55,40.54Z" transform="translate(-10.92 -26.19)"/><path class="cls-3" d="M217.55,39.63c-1.54-1.06-3.3-1-5-1l.09-.57a12.12,12.12,0,0,1,6.48.61l-.07.88Z" transform="translate(-10.92 -26.19)"/><path class="cls-11" d="M201.39,40.68c.5,0,.68.29.76.71l-6,.1C197.73,40.36,199.73,41.66,201.39,40.68Z" transform="translate(-10.92 -26.19)"/><path class="cls-16" d="M175,87.51l1.55-1.37A118.91,118.91,0,0,1,192.73,75a1,1,0,0,0,.3-1.64l1-1.26a1.25,1.25,0,0,0,.44-.12c.81.14,1.37-.08,1.46-1a4.87,4.87,0,0,0,.17-3.53,1.16,1.16,0,0,0,1.07-1.39c-.19-2.35-.41-4.67-2.49-6.26l-.93-.68-.47-.38-.55-.47-.62-.4-1.94-1.5-.54-.52c-.1-.48-1.12-.81-.25-1.46l1.3.54.55.37,1,.59c.4.18.75.67,1.25.18V56c.85,1.61,3,2,3.65,3.79.1.27.49.71.89.16h0c-.58.71-.29,1,.51,1h0c-.68.72,0,1.37.13,2,.29,1.47.64,3.19-.2,4.29-1.13,1.48-1.14,3.07-1.46,4.67l-.6,1-4.52,4.34c-3.83,3.23-8.24,5.7-11.87,9.18a13.88,13.88,0,0,0-4.52,4.43.84.84,0,0,0-.21.36l-.42.53a1.94,1.94,0,0,0-1.1,1.47c-3.55,3.79-4.09,8.42-3.62,13.29.2,2.06,1.88,3.44,3.16,4.78,1.77,1.86,3.46-.17,5.12-.87l2.08.8a1.23,1.23,0,0,0-.51,1.18c-1.62,0-2.82,1-4.09,1.76-1.36.54-2.32-.47-3.35-1a5.59,5.59,0,0,0-2.46-.86c-2-1.62-2.38-4-3-6.27l.15-.5a.46.46,0,0,0,.07-.65l-.07-.07q0-1.14.06-2.27a3.27,3.27,0,0,0,.25-2.08c.86-2.94,2.57-5.44,4.14-8,.37-.24.66-.52.4-1h0c.42.09.57-.08.49-.49h0c1.24-.11,1.59-.88,1.49-2h0c.42.08.58-.09.49-.5h0C175.16,88.39,175,87.92,175,87.51Z" transform="translate(-10.92 -26.19)"/><path class="cls-14" d="M186.07,59.75c-1-1.85.17-3.24,1-4.71l2.23,1.84h.06l.41.71a2.86,2.86,0,0,0-.85,1.81Z" transform="translate(-10.92 -26.19)"/><path class="cls-11" d="M189.68,55.91l.54.52-.89.42h-.06Z" transform="translate(-10.92 -26.19)"/><path class="cls-3" d="M65.61,84.22l-1.49,1.42c-1-1.66.46-1.72,1.4-2.12l.06.07Z" transform="translate(-10.92 -26.19)"/><path class="cls-3" d="M66.55,83.14h-.24l-.23-.09C66.32,82.57,66.45,82.87,66.55,83.14Z" transform="translate(-10.92 -26.19)"/><path class="cls-3" d="M66.14,83.14a.27.27,0,0,1,.07.36l-.62.12-.06-.07Z" transform="translate(-10.92 -26.19)"/><path class="cls-14" d="M217.49,64.85a2.16,2.16,0,0,0-1.11,2.06,4.74,4.74,0,0,1-6.11,2.24l-3.26-1c-1-1.28-2.08-2.5-4-1.51l-.94-2.88c1.23-3.33,4.2-5.06,6.69-7.23a1.85,1.85,0,0,1,2.32-.1.26.26,0,0,0,.21.17,2.41,2.41,0,0,0,2.2,1h0l.5.49h0a2.55,2.55,0,0,0,2,1h2c1,1.31-.16,2.64,0,4Z" transform="translate(-10.92 -26.19)"/><path class="cls-16" d="M203,66.61c1.89-1,2.94.23,4,1.51.41,1.9,1.88,2.36,3.5,2.41,2.38.08,4.87.26,6-2.57a3,3,0,0,1,2.21-.4c-1.39,4-4.65,5.51-8.64,4.41-2.27-.62-4.09-2.25-6.45-2.55C203.64,68.44,202.45,67.72,203,66.61Z" transform="translate(-10.92 -26.19)"/><path class="cls-9" d="M211.11,56.4a1.85,1.85,0,0,0-2.32.1c-2.49,2.16-5.46,3.89-6.69,7.23-.83-.67-1.43-.2-2,.41-.56-.44-.5-1.06-.48-1.67a2,2,0,0,0,1.81-.64c1.82-2.63,4.5-4.32,6.81-6.42C210,53.85,210.39,53.94,211.11,56.4Z" transform="translate(-10.92 -26.19)"/><path class="cls-11" d="M199.62,62.47c0,.61-.08,1.23.48,1.67a11,11,0,0,1-1.67,7.06A1.48,1.48,0,0,1,197,72c.32-1.6.34-3.19,1.46-4.67.84-1.1.49-2.82.2-4.29-.13-.66-.82-1.31-.13-2C199.38,61.14,199.15,62.07,199.62,62.47Z" transform="translate(-10.92 -26.19)"/><path class="cls-8" d="M14.55,113l.48-.48Z" transform="translate(-10.92 -26.19)"/><path class="cls-6" d="M25,136.47A5.89,5.89,0,0,1,28,134.55C27.72,136.31,26.43,136.53,25,136.47Z" transform="translate(-10.92 -26.19)"/><path class="cls-6" d="M30,134.14a3.78,3.78,0,0,0,0,.39l-2,.06a1.4,1.4,0,0,1,1.53-1Z" transform="translate(-10.92 -26.19)"/><path class="cls-4" d="M199.62,62.47c-.48-.4-.24-1.32-1.07-1.45h0c.08-.46.14-.92-.51-1h0c.25-1.69-1.2-2.43-2-3.55-.71-1.37.4-2,1.12-2.84s1.26-1.27,1.9-1.91a1.94,1.94,0,0,0,1.46-.72c2.19-.48,3.4-1.64,2.86-4-.24-1.06.37-1.92.68-2.86,1.32-.31,2.31.47,3.39,1,0,.43.06.83.55,1h0a.9.9,0,0,0,.79,1H209l.87.44c1.27,1.88,3.16,1.1,4.78.94s3.48-.27,5.2-.48,2.09.26,2.18,1.73c.07,1.15.32,2.28.49,3.42-1.08.07-1.85,1.14-3,1-.9-.67-1.94-.82-2.6.12-.85,1.21.53,1.51,1.18,1.92,1.72,1.1.59,2-.07,3h-2c-.18-1.33-1.18-1-2-1h0l-.5-.49h0c-.42-1-1.28-1.08-2.2-1a.26.26,0,0,1-.21-.17c-.73-2.46-1.16-2.56-2.88-1-2.31,2.1-5,3.79-6.81,6.42A2,2,0,0,1,199.62,62.47Z" transform="translate(-10.92 -26.19)"/><path class="cls-1" d="M210.55,42.56l1-1c.82-.14,1.73-.84,2.32.43a1.12,1.12,0,0,0,.81.29c2.12-3.16,1.61.28,2.17.88.36.38.39,1.3,1.15,1s.36-1,.07-1.49c-.62-1.09-.48-1.71.92-1.65,1.87.59,1.15,2.25,1.35,3.47.13.77-.5.77-1.17.71-1.21-.12-2.44-.09-3.66-.12-.6-.75-1.29-.46-2-.22C211.43,45.52,210.55,44.66,210.55,42.56Z" transform="translate(-10.92 -26.19)"/><path class="cls-15" d="M209.91,47.45,209,47a1.42,1.42,0,0,0-1-1h0V45c.06-.79.09-1.59,1-2,0,2,1.29,2.76,3.05,2.89,1.16.09,2.32,0,3.49,0h0c.39.84,1.54.16,1.94,1A27.8,27.8,0,0,1,209.91,47.45Z" transform="translate(-10.92 -26.19)"/><path class="cls-10" d="M219,41c-1.4-.06-1.54.57-.92,1.65.29.5.65,1.17-.07,1.49s-.79-.58-1.15-1c-.56-.6-.06-4-2.17-.88a1.12,1.12,0,0,1-.81-.29c-.59-1.27-1.5-.57-2.32-.43v-1c1.84-1.2,4.07.13,5.93-.91l1.46-.08Q219,40.28,219,41Z" transform="translate(-10.92 -26.19)"/><path class="cls-10" d="M215.55,46c-1.16,0-2.33.07-3.49,0-1.76-.13-3-.9-3.05-2.89.35-.66,1-.57,1.56-.58-.07,2.1.85,3,2.92,2.28.74-.24,1.42-.53,2,.22Z" transform="translate(-10.92 -26.19)"/><path class="cls-6" d="M217.46,47.05c-.39-.82-1.55-.14-1.94-1H221C219.55,47.44,218.44,47,217.46,47.05Z" transform="translate(-10.92 -26.19)"/><path class="cls-13" d="M164,106.09c.24-3.14,1.76-6,2.26-9.06.15-.9,1-1.48,1.75-2l.55.58a13.06,13.06,0,0,0-1.81,4.74l-.89,5.17Z" transform="translate(-10.92 -26.19)"/><path class="cls-11" d="M165.9,105.53l.89-5.17.25.19.25,2.12q0,1.14-.06,2.27v.72l-.15.5Z" transform="translate(-10.92 -26.19)"/><path class="cls-11" d="M200.55,51a1.94,1.94,0,0,1-1.46.72c-.73-.44-.77-1.43-1.79-1.8s-1.46-1.42.13-2Z" transform="translate(-10.92 -26.19)"/><path class="cls-11" d="M196.09,56.48c.78,1.12,2.23,1.86,2,3.55-.41.55-.8.11-.89-.16-.65-1.83-2.8-2.18-3.65-3.79C194.47,55.67,195.2,56.57,196.09,56.48Z" transform="translate(-10.92 -26.19)"/><path class="cls-4" d="M184.11,141.58l1.39.15-1.25,4.82c-1.05.87-.53,2.84-2.26,3.24l-1.42-.24-.24-.51c-1.22-1.4-1.77-.06-2.45.62s-1.08,2.08-2.53,1.95c.33-1.26.68-2.49-1-3.22-.49-.22-.26-.87-.32-1.33.86-1.8.95-4,2.52-5.43,2.32.29,4.64.9,7,.13Z" transform="translate(-10.92 -26.19)"/><path class="cls-11" d="M180,151.14c-1.27,2.19-2.47,4.44-5,5.55v-1l.5-.62h0c.44-.2.7-.49.51-1h0c.4.06.54-.14.51-.51h0c.38,0,.5-.17.51-.51h0c.33,0,.48-.2.51-.51h0a.74.74,0,0,0,.54-.89l0-.11h0c.37,0,.51-.17.51-.51h1.46Z" transform="translate(-10.92 -26.19)"/><path class="cls-12" d="M180,151.14h-1.49a2.17,2.17,0,0,1,1.74-2.06l.24.51v1Z" transform="translate(-10.92 -26.19)"/><path class="cls-4" d="M174.3,153.06l.39-.88c.41-.08.92-.14.71.47C175.29,153,175,153.82,174.3,153.06Z" transform="translate(-10.92 -26.19)"/><path class="cls-12" d="M178.08,151.57a.74.74,0,0,1-.4,1l-.11,0C177.55,152.14,177.55,151.73,178.08,151.57Z" transform="translate(-10.92 -26.19)"/><path class="cls-12" d="M176.08,154.06c.2.52-.07.81-.51,1A.9.9,0,0,1,176.08,154.06Z" transform="translate(-10.92 -26.19)"/><path class="cls-12" d="M178.55,151.07c0,.34-.14.53-.51.51Z" transform="translate(-10.92 -26.19)"/><path class="cls-12" d="M177.55,152.57a.47.47,0,0,1-.51.51Z" transform="translate(-10.92 -26.19)"/><path class="cls-12" d="M177.08,153.07c0,.33-.13.55-.51.51Z" transform="translate(-10.92 -26.19)"/><path class="cls-12" d="M176.55,153.57c0,.37-.11.57-.51.51Z" transform="translate(-10.92 -26.19)"/><path class="cls-12" d="M175.55,155.06l-.5.62Z" transform="translate(-10.92 -26.19)"/><path class="cls-16" d="M222.91,57l.58-.16c.92.78,2,.58,3.09.62s2.16,0,2,1.51c-.16,1.27-.47,2.58-2.14,2.53A44.07,44.07,0,0,1,222,61.1,6.8,6.8,0,0,1,222.91,57Z" transform="translate(-10.92 -26.19)"/><path class="cls-10" d="M46,129.06c-.89-.63-2.93.15-2.54-2.06h.45l1.6,1.14Z" transform="translate(-10.92 -26.19)"/><path class="cls-9" d="M180.6,150.51v-1l1.42.24-.47.81Z" transform="translate(-10.92 -26.19)"/><path class="cls-7" d="M223.08,35a.82.82,0,0,1,.36,1c0,.06-.12.09-.18.14L223,35.09Z" transform="translate(-10.92 -26.19)"/><path class="cls-9" d="M218,59.05c.66-1,1.79-1.9.07-3-.65-.42-2-.72-1.18-1.92.66-.94,1.69-.79,2.6-.12.51.65,1.28,1.1,1.51,2-.58.67-1.32,1.26-1,2.31-.93,1.46.07,3.74-2,4.74C217.89,61.69,219.1,60.36,218,59.05Z" transform="translate(-10.92 -26.19)"/><path class="cls-16" d="M218.08,63c2-1,1-3.27,2-4.74,1.4-.15.91.79.81,1.45-.21,1.45-.47,2.89-.71,4.34a4.61,4.61,0,0,1-.39.89c-.37.52-.73,1.34-1.2,1.42-1,.17-.23-1.32-1.08-1.52Z" transform="translate(-10.92 -26.19)"/><path class="cls-9" d="M216.55,68c-1.16,2.83-3.65,2.66-6,2.57-1.62-.06-3.09-.51-3.5-2.41l3.26,1a4.74,4.74,0,0,0,6.11-2.24Z" transform="translate(-10.92 -26.19)"/><path class="cls-1" d="M145.37,110.22l.25,1.82-2.38,1.07-.61-6.37.49-.19C144.08,107.65,144.07,109.33,145.37,110.22Z" transform="translate(-10.92 -26.19)"/><path class="cls-1" d="M162.55,82.87c.24,1-.45,1.71-.64,2.57l-1.49,1c-.58.3-1,1.2-1.84.59C159.62,85.38,161.28,84.3,162.55,82.87Z" transform="translate(-10.92 -26.19)"/><path class="cls-1" d="M165.55,80a1.92,1.92,0,0,1-1.84,2h-.16l.17-.86C164.37,80.89,164.5,79.74,165.55,80Z" transform="translate(-10.92 -26.19)"/><path class="cls-1" d="M163.55,82c-.08.41-.37.53-.74.52Z" transform="translate(-10.92 -26.19)"/><path class="cls-1" d="M167.09,79.14a.87.87,0,0,1-1.05.4c-.37-.58.13-.75.47-1Z" transform="translate(-10.92 -26.19)"/><path class="cls-1" d="M166,79.54c0,.33-.15.49-.48.48C165.41,79.57,165.55,79.37,166,79.54Z" transform="translate(-10.92 -26.19)"/><path class="cls-9" d="M184.11,141.58l-.53.16Z" transform="translate(-10.92 -26.19)"/><path class="cls-6" d="M65.55,83.59l.62-.12c.22.58-.3.58-.6.75Z" transform="translate(-10.92 -26.19)"/><path class="cls-5" d="M186.07,59.75l2.82-.39,4.83,2.09c.82,2-.23,4.55,2,6.08a1.77,1.77,0,0,0-.11.45c-.51,0-1,.09-1,.78l.49,1.46a3.81,3.81,0,0,1-2.55-.08,2.1,2.1,0,0,0-2-1.46c-.34-.22-.68-.44-1-.67-1.46-1-4.51.22-4.47-2.85C185.1,63.33,185,61.41,186.07,59.75Z" transform="translate(-10.92 -26.19)"/><path class="cls-1" d="M172.65,74.57l-.51.53-.58-.69C172,74,172.34,74.14,172.65,74.57Z" transform="translate(-10.92 -26.19)"/><path class="cls-1" d="M180.62,69.57a3.8,3.8,0,0,1-3.08,1l2-1.5A1,1,0,0,1,180.62,69.57Z" transform="translate(-10.92 -26.19)"/><path class="cls-1" d="M177.55,70.55c-.19.47-.59.5-1,.5Z" transform="translate(-10.92 -26.19)"/><path class="cls-1" d="M176.55,71.06l-.46.41Z" transform="translate(-10.92 -26.19)"/><path class="cls-11" d="M174.55,73.53c.72.83,1.71.41,2.57.54.44.07.87.22.85.71,0,.68-.59.83-1.07.62-1.23-.55-2.68,0-3.83-.86A1.53,1.53,0,0,1,174.55,73.53Z" transform="translate(-10.92 -26.19)"/><path class="cls-6" d="M44,127h-.48A1.55,1.55,0,0,1,45,125.5C45.1,126.32,44.28,126.46,44,127Z" transform="translate(-10.92 -26.19)"/><path class="cls-6" d="M45,125.56l.55-.69Z" transform="translate(-10.92 -26.19)"/><path class="cls-6" d="M47.55,123.07l.52-.53Z" transform="translate(-10.92 -26.19)"/><path class="cls-6" d="M47,123.57l.54-.53Z" transform="translate(-10.92 -26.19)"/><path class="cls-6" d="M46.55,124.06l.54-.52Z" transform="translate(-10.92 -26.19)"/><path class="cls-6" d="M45.83,124.57l.73-.54Z" transform="translate(-10.92 -26.19)"/><path class="cls-11" d="M193,73.42a1,1,0,0,1-.29,1.64,118.91,118.91,0,0,0-16.2,11.08,6.8,6.8,0,0,1,3-4.16,1.52,1.52,0,0,0,1-.94h0c.95-.6,2.25-.51,3-1.51h0l.51-.5h0l.49-.49h0a.88.88,0,0,0,1-.49h0a1.07,1.07,0,0,0,1-.51h0l.51-.5h0a1,1,0,0,0,1-.51h0a1,1,0,0,0,1-1L191.5,74C192.16,74.14,192.55,73.72,193,73.42Z" transform="translate(-10.92 -26.19)"/><path class="cls-11" d="M160.42,86.46l1.49-1c1.62.57,3.2-.79,4.92-.19A6.33,6.33,0,0,1,160.42,86.46Z" transform="translate(-10.92 -26.19)"/><path class="cls-12" d="M192.55,70.14a3.8,3.8,0,0,0,2.48.12l.16.77-.67,1a1.23,1.23,0,0,1-.44.12c-.23-.72-.81-.58-1.35-.54Z" transform="translate(-10.92 -26.19)"/><path class="cls-12" d="M170,93a3.78,3.78,0,0,1,2.4-3.09l.34.3-.11.9h0a.46.46,0,0,0-.49.43.48.48,0,0,0,0,.06h0l-.52.31-1.4,1.25Z" transform="translate(-10.92 -26.19)"/><path class="cls-13" d="M192.74,71.61c.54,0,1.11-.18,1.35.54l-1,1.26c-.46.31-.88.72-1.5.63Z" transform="translate(-10.92 -26.19)"/><path class="cls-12" d="M168.55,95.61,168,95c.48-.83.77-1.85,1.9-2.08l.19.18A7,7,0,0,1,168.55,95.61Z" transform="translate(-10.92 -26.19)"/><path class="cls-10" d="M183.55,79.56c-.75,1-2.05.9-3,1.51C181,79.41,182.31,79.55,183.55,79.56Z" transform="translate(-10.92 -26.19)"/><path class="cls-10" d="M189.09,75.56a1,1,0,0,1-1,1C188,75.87,188.42,75.57,189.09,75.56Z" transform="translate(-10.92 -26.19)"/><path class="cls-12" d="M173.46,89a1.42,1.42,0,0,1,1.06-1.37v1h0l-.49.5h-.48Z" transform="translate(-10.92 -26.19)"/><path class="cls-10" d="M180.55,81.07a1.52,1.52,0,0,1-1,.94A.86.86,0,0,1,180.55,81.07Z" transform="translate(-10.92 -26.19)"/><path class="cls-10" d="M185.55,78.07a.88.88,0,0,1-1,.49A.88.88,0,0,1,185.55,78.07Z" transform="translate(-10.92 -26.19)"/><path class="cls-7" d="M174.55,88.56v-1l.48-.07C175,87.92,175.16,88.39,174.55,88.56Z" transform="translate(-10.92 -26.19)"/><path class="cls-10" d="M186.55,77.56a1.07,1.07,0,0,1-1,.51A.93.93,0,0,1,186.55,77.56Z" transform="translate(-10.92 -26.19)"/><path class="cls-10" d="M188.07,76.56a1,1,0,0,1-1,.51A.92.92,0,0,1,188.07,76.56Z" transform="translate(-10.92 -26.19)"/><path class="cls-10" d="M187.06,77.06l-.51.5Z" transform="translate(-10.92 -26.19)"/><path class="cls-10" d="M184.06,79.07l-.51.5Z" transform="translate(-10.92 -26.19)"/><path class="cls-10" d="M184.55,78.57l-.49.49Z" transform="translate(-10.92 -26.19)"/><path class="cls-12" d="M172.35,89.86l.52-.49.25.25-.44.54Z" transform="translate(-10.92 -26.19)"/><path class="cls-12" d="M172.87,89.37l.59-.41.1.11-.44.55Z" transform="translate(-10.92 -26.19)"/><path class="cls-10" d="M208.55,40.51,208,41C208,40.73,208.13,40.46,208.55,40.51Z" transform="translate(-10.92 -26.19)"/><path class="cls-9" d="M208,45.14v1c-.49-.16-.54-.56-.55-1Z" transform="translate(-10.92 -26.19)"/><path class="cls-11" d="M195.67,67.54c-2.18-1.54-1.13-4.11-2-6.08.86-.09.85-.68.75-1.32l.27-.28c2.08,1.59,2.3,3.91,2.49,6.26a1.16,1.16,0,0,1-.9,1.37l-.17,0A1.73,1.73,0,0,1,195.67,67.54Z" transform="translate(-10.92 -26.19)"/><path class="cls-11" d="M168.55,95.61a7,7,0,0,0,1.54-2.49l1.4-1.25.13.7c-1.57,2.57-3.28,5.07-4.14,8H167l-.25-.19A13,13,0,0,1,168.55,95.61Z" transform="translate(-10.92 -26.19)"/><path class="cls-8" d="M195.67,67.54a1.73,1.73,0,0,0,.48,0,4.86,4.86,0,0,1-.17,3.53h-.79L195,70.3l-.49-1.46c.45-.12.88-.25,1-.78A1.77,1.77,0,0,1,195.67,67.54Z" transform="translate(-10.92 -26.19)"/><path class="cls-7" d="M173.12,89.62l.44-.55h.5c.1,1.11-.26,1.88-1.49,2l.11-.9Z" transform="translate(-10.92 -26.19)"/><path class="cls-5" d="M189.33,56.84l.89-.42,1.94,1.5L192,58l-2.29-.45Z" transform="translate(-10.92 -26.19)"/><path class="cls-7" d="M167,100.55h.49a3.27,3.27,0,0,1-.25,2.08Z" transform="translate(-10.92 -26.19)"/><path class="cls-11" d="M195.2,71H196c-.09.91-.65,1.14-1.46,1Z" transform="translate(-10.92 -26.19)"/><path class="cls-7" d="M171.67,92.58l-.13-.7.52-.31C172.33,92.06,172,92.34,171.67,92.58Z" transform="translate(-10.92 -26.19)"/><path class="cls-11" d="M198.07,60c.65.1.58.55.51,1C197.78,61,197.5,60.74,198.07,60Z" transform="translate(-10.92 -26.19)"/><path class="cls-11" d="M193.8,59.14l.93.68-.27.28-1-.52Z" transform="translate(-10.92 -26.19)"/><path class="cls-7" d="M174.07,89.06l.49-.5C174.65,89,174.49,89.14,174.07,89.06Z" transform="translate(-10.92 -26.19)"/><path class="cls-7" d="M167.24,105.66v-.72a.46.46,0,0,1,.07.65Z" transform="translate(-10.92 -26.19)"/><path class="cls-11" d="M192.16,57.93l.62.4-.3.29L192,58Z" transform="translate(-10.92 -26.19)"/><path class="cls-11" d="M192.78,58.33l.55.47a4.46,4.46,0,0,0-.36.33l-.49-.51Z" transform="translate(-10.92 -26.19)"/><path class="cls-11" d="M193.33,58.8l.47.38-.31.44-.52-.49A4.46,4.46,0,0,1,193.33,58.8Z" transform="translate(-10.92 -26.19)"/><path class="cls-7" d="M172.07,91.56a.46.46,0,0,1,.43-.49h.06C172.64,91.48,172.49,91.65,172.07,91.56Z" transform="translate(-10.92 -26.19)"/><path class="cls-10" d="M193,59.14l.52.49,1,.52c.1.64.11,1.23-.75,1.32l-4.83-2.09a2.86,2.86,0,0,1,.85-1.81l2.29.45.45.61Z" transform="translate(-10.92 -26.19)"/><path class="cls-13" d="M211.33,56.57c.92-.08,1.78,0,2.2,1A2.41,2.41,0,0,1,211.33,56.57Z" transform="translate(-10.92 -26.19)"/><path class="cls-13" d="M214,58.07c.84,0,1.84-.32,2,1A2.55,2.55,0,0,1,214,58.07Z" transform="translate(-10.92 -26.19)"/><path class="cls-13" d="M213.55,57.57l.5.49Z" transform="translate(-10.92 -26.19)"/><path class="cls-9" d="M208,46.05a1.42,1.42,0,0,1,1,1,.9.9,0,0,1-1-1Z" transform="translate(-10.92 -26.19)"/><path class="cls-11" d="M195.55,68c-.13.53-.56.66-1,.78C194.55,68.08,195,68,195.55,68Z" transform="translate(-10.92 -26.19)"/></svg>