<svg id="Ebene_1" data-name="Ebene 1" xmlns="http://www.w3.org/2000/svg" viewBox="0 0 257.1 162.6"><defs><style>.cls-1{fill:#fdfdfd;}.cls-2{fill:#88959e;}.cls-3{fill:#4d5774;}.cls-4{fill:#226280;}.cls-5{fill:#fbd3c3;}.cls-6{fill:#0c0c0c;}.cls-7{fill:#376a82;}.cls-8{fill:#846358;}.cls-9{fill:#153747;}.cls-10{fill:#858889;}.cls-11{fill:#6b6c6f;}.cls-12{fill:#3e474b;}.cls-13{fill:#a4a09e;}.cls-14{fill:#c0c7c8;}.cls-15{fill:#37b0d6;}.cls-16{fill:#eec950;}</style></defs><title>diver</title><path class="cls-1" d="M1150.75,524.41q-63.13,0-126.25,0c-1.71,0-2-.34-2-2q.09-79.25,0-158.5c0-1.71.34-2,2-2q126.5.08,253,0c1.71,0,2,.33,2,2q-.09,79.25,0,158.5c0,1.71-.33,2.05-2,2Q1214.13,524.37,1150.75,524.41Zm63.34-107.59-.51-.49-1-.93a1.23,1.23,0,0,1,.8-1.39c1.07-.53.89-1.36.33-2-.77-.85-1.65-1.91-2.65-2.16-2.31-.56-2.23-1.22-.53-2.48.44-.33,1-.75.79-1.42-.3-.83-1.11-.64-1.73-.54a11,11,0,0,0-5.69,2.89c-1.09.64-2,1.57-1.05,2.75.71.88,1.63.26,2.21-.59.7-.09,1.24,0,.78.89a4.61,4.61,0,0,0-.92,2.45c-1.27,1.21-3.08.08-4.41,1-.6.22-1-.29-1.49-.44,1.4-2.95.06-7.47-2-9.07-2.57-2-7.21-2.06-10.5,0A11.19,11.19,0,0,0,1181,408c-2.36,1.74-5.54,2.1-7.5,4.49-.4,0-.87-.16-1.18,0-3.47,1.77-7.11,3.26-10.34,5.49-2.51,1.29-5,2.73-7.54,3.83a6.24,6.24,0,0,0-4,4v0a1.5,1.5,0,0,0-1.46.58c-3.86,1.61-2.78,6.82.06,9.12a37,37,0,0,0,6.19,4c-.68,1.14-2.48,1.27-2.59,2.92-1.88,2.13-.46,4.24,0,6.35.33.79-.05,2,1.27,2.2l0,0c-.55.48.06,1,0,1.43a18.3,18.3,0,0,1-2.76,1.65c-3.73,2.21-8,3.59-10.7,7.35h0l-.6.58-.1.17-.22.42c-4.06,1.28-7.14,4-10.09,6.91a2.92,2.92,0,0,0-2,1.89,1.33,1.33,0,0,0-1,1.09.24.24,0,0,0-.36,0c-1.13,0-1.42-.68-1.65-1.73-.52-2.43-1.32-4.79-3.36-6.47a26.1,26.1,0,0,0-6.07-5.86,7.16,7.16,0,0,0-5.54-1.56,12.59,12.59,0,0,1-6.09-2.64c-1.57-1.19-3.25-2.23-4.88-3.34l0,0c0-.4-.1-.75-.54-.89l-.48-.14,0,0c0-1.09-.73-1.48-1.63-1.45-1.52,0-2.15-.87-2.75-2.07a10.31,10.31,0,0,1-1.11-4c-.12-2-1.41-2.73-3-1.51s-3.09,2-4,3.61l0,0c-2,.59-2.89,2.44-4,3.84-1.59,2-4.33,2.85-5.09,5.53-.78.25-1.7.3-1.86,1.38-.86-.29-1,.72-1.57.9a4.54,4.54,0,0,0-2.39,1.19c-3.92,2.57-7.89,5-12.56,6a109.09,109.09,0,0,0-15.73,4.42l-1.27.35c-2.14-.32-1.09,1.75-1.81,2.58-1.52,1.75-2.34,4.09-4.88,4.86-.49.15-.38.86-.33,1.36l-.13.45c1.06,1.42,2,1.83,4.07,1.29,6.81-1.8,13.86-2.72,20.36-5.67a58.43,58.43,0,0,0,14.79-9c3.41-3.47,7.31-5.75,12.4-5.21,1.86,1.14,4-.39,5.89.67a15.77,15.77,0,0,1,2.28,1.43c3.65,3.25,7.38,6.44,10.85,9.88s7.72,5.38,11.73,7.83a7.69,7.69,0,0,0,5.24,1.29l0,0c.27.61,1,.54,1.41.86a1.63,1.63,0,0,0,2,.2,3.45,3.45,0,0,0,3.69.65c2.35-1,4.83-1.59,6.94-3.22s4.16-3.52,6.92-4.12c.54.12,1.21-.58,1.59.07s-.14,1.12-.49,1.56c-1.85,2.32-3.74,4.62-5.61,6.93a64.86,64.86,0,0,1-11.1,7.29l-.15,0a11.16,11.16,0,0,0-4.17,2.34c-.67.16-1.65-1.09-2,.43l-1.44.16c-1.18,0-1.72.6-1.63,1.77a2,2,0,0,1-2.41-.54c-.7-.78-1-1.85-2-2.43-.49-1.27-.51-2.92-2.46-3-.16-2.71-2.4-3.91-4-5.55a17,17,0,0,0-13.51-5.44l-1-.54H1091a1.49,1.49,0,0,0-1.52-1.49h0c-1-1.74-3-1.29-4.52-2a7.55,7.55,0,0,0-2.53-1.42c-1.77-1.23-4.42-1-5.64-3-1.1-1.77-2.14-1.32-3.45-.58a6.15,6.15,0,0,0-3,3.51,18.81,18.81,0,0,1-3.08,6.21,2.32,2.32,0,0,0-1.49,2.23l-.23.76-.3,1c-.88-.07-1.15.61-1.5,1.21a1.27,1.27,0,0,0-.89,1v0l-1,1.51v0l-3.45,3.51c-3.55,2.19-7.15,4.31-10.64,6.59a6.52,6.52,0,0,0-2.93,2.88l-.82.67a32,32,0,0,0-9.67,5.94,2.48,2.48,0,0,0-.45,3.39c.76,1.3,1.85,1.11,3.05.74a14.62,14.62,0,0,0,2.66-1.33c.9-.5,2.26-.86,2.67.16.59,1.45,2.06,2,2.64,3.18,1.1,2.2,2.1,1.32,3.18.23,2.16-2.18,4.33-4.33,6.68-6.33,4.67-4,9.15-8.15,13.7-12.25l3.6-2.64c3.38-2.8,6.52-6,11.37-6.13h0a21.3,21.3,0,0,0,7.52,4.51l0,0c1.49,2.19,3.78,3.31,6,4.49a20.72,20.72,0,0,0,4.31,2.64c2.55,1.81,4.52,4.46,7.71,5.35a69,69,0,0,0,10.83,5.56,8.08,8.08,0,0,0,7.53-.55,85,85,0,0,1,10.47-9.81,24.35,24.35,0,0,1,5.41-3.46,26.38,26.38,0,0,0,4.64-2.41c4.51-1.44,8.34-4.11,12.22-6.69,2.11-3.11,5.73-3.46,8.78-4.88.83-.39,1.49-1,2.46-.55.3.78,1,.81,1.64.79l.81.41c2.59,1,4.12,0,5-3l.65-.86c.36,0,.56-.16.41-.55l0,0c3.32-.94,5-3.84,7.2-6.09.37-.38.62-1.12,1.34-.83.52.21.44.84.55,1.31.45,1.9.48,4.06,2.95,4.69a11,11,0,0,0,2.13,1.26c1.56.51,3,2.08,4.84.68,1.46-.41,3-.69,3.47-2.49,1.4-.27,1.2.72,1.23,1.54a10.45,10.45,0,0,0-.76,4l-.27,1.54c-.69,1.06-.58,2.33-.94,3.47a84,84,0,0,0-3.18,13.48l0,1a2.16,2.16,0,0,0-1.21,3c-.14,2.46-1.83,4.5-1.86,7a7.76,7.76,0,0,0,0,5.5,3.41,3.41,0,0,1-.43,2.32c-1.16,2.76-1.08,2.85,2.07,3.25.83-.15,1.48,2.52,2.45.15,2.54-.53,3.28-2.64,4.1-4.68,2.3-2,2.7-5,3.84-7.54a18.64,18.64,0,0,0,1.95-5.48c1.79-1.41,2.73-3.14,2.11-5.48,1.48-3.2,1.7-6.66,2.13-10.08l.24-1a1.19,1.19,0,0,0,.2-1.49l-.06-1.47c.16-.29.7-.35.49-.83,0-.06-.23,0-.35,0,1.25-1.51,1.12-3.37,1.28-5.15.89-6.32,1.25-12.68,1.6-19l.33-1.47a.62.62,0,0,0,.12-1,40.31,40.31,0,0,1,5.11-12.45c1-.77,1.29-2,2-3,1.1-.26,1.14-1.28,1.51-2.08.79-1.73-.1-4.71,1.22-5.16s3.6,1.11,5.46,1.73a7.36,7.36,0,0,0,9.6-5.63c.45-1.09,1.31-2.06,1-3.37l1.05-2.15c1.38.29,2.76.59,4.15.87,1,.2,2,.24,2.71-.73,2.57-3.67,1.82-5.39-2.62-6a9.7,9.7,0,0,0-1.24,0,.69.69,0,0,0-.48,0l-.49-.52-1.29-2.44c.14-1.36,1.84-2.59.89-3.92-1.64-2.28-1.66-4.94-2.4-7.43s-.65-5.18-3.13-6.77c.06-1.59,1.21-.6,1.86-.79l1.15.84,1,2.49c-.21.52-.22,1.1.37,1.22.85.18,1.37-.34,1.5-1.2,1.79-2.88-.6-4.55-1.88-6.55a3.06,3.06,0,0,0-2.87-2.67,9.28,9.28,0,0,1-3.48-1.3,5.67,5.67,0,0,0-6.14,0,3,3,0,0,1-2.34.5c-2.44-.52-4.79.17-7.15.63-.95.18-1.52.4-1.2,1.83s.47,3.49-1,4.2c-2.06,1-2.32,3.37-4.13,4.42-.2.11-.35.77-.25.86,1.87,1.6.2,3-.22,4.45-.89,1.57.33,5,2,6,.69.42,2.32.84,1.58,1.81-1,1.33-1.76,3-3.4,3.82l-.93-.09C1214.91,416.84,1214.47,416.88,1214.09,416.82Z" transform="translate(-1022.45 -361.86)"/><path class="cls-2" d="M1155.22,439.51a37,37,0,0,1-6.19-4c-2.84-2.3-3.92-7.52-.06-9.12.78.53,1.15,0,1.46-.58v0c2.58-1.54,5.22-3,7.7-4.65,1.38-.93,3.35-1.23,3.86-3.22,3.23-2.23,6.86-3.71,10.34-5.49.31-.16.79,0,1.18,0,.08.42.22.87.71.86,3.23-.06,5.38,1.78,7.27,4.08a13.45,13.45,0,0,0,1.08,4.12c-.52,1.45-1.95,1.38-3.07,1.81-1.27.06-2.51.75-2.18,1.94.41,1.46,1.62-.16,2.48.06h1.4l.82,1c0,.44,0,.87.52,1.07v0c-.08.87.06,1.57,1.18,1.49l.31.94a1.12,1.12,0,0,0,.53,1.14c.73.94.81,2.32,2,2.95l0,0,.42,1c.59.29.63.83.61,1.39-.6,2.14.29,4.69-1.8,6.41-1,.39-1.44,1.33-2.14,2-2.12,2.08-4.17,4.25-7.14,5.14-1.31-.66-2.54-.91-3.44.63h0c-1.34.15-3.18-.86-3.58,1.52-1.47,1.2-3.69,1.36-4.6,3.32-3.34,2-6.15,1-8.7-1.53a11,11,0,0,0-1.16-.87h0c0-.87.22-1.84-1.1-1.94l0,0,0-1.65.18-.08-.22-.14-.39-1.16c-.2-1.81-.94-3.63.1-5.42l5.07-4.49C1156.93,438,1156.26,439.17,1155.22,439.51Z" transform="translate(-1022.45 -361.86)"/><path class="cls-3" d="M1211.51,497.44c.62,2.34-.32,4.07-2.11,5.48H1208c-.68-1.06-1.64-.64-2.54-.47a6.41,6.41,0,0,1-7-3l0-1c1.31.15,1.58-.79,2-1.74,1.8-4,1.85-8.33,2.86-12.48a14.59,14.59,0,0,0,.71-5.85c-.66.59-.52,1.4-1.19,1.57a10.45,10.45,0,0,1,.76-4c1.76-1.1.49-2.74.73-4.1.3-.55.69-1.09.17-1.72l-.06-.69c1.37-3.42.56-7,1-10.55,0-1.29.75-2.48.52-3.82-.09-.49-.1-1-.75-1-.87,0-.65.75-.71,1.27l-1,.11c-2.27-.75-3.74.49-4.38,3.71a8.1,8.1,0,0,1-4.23,3.75c-1.55-1.27-.49-2.5.11-3.68s1.82-2.17,1.51-3.75c1,0,1-.8,1-1.5l.49-.5.51-.48c1.72-1.05,3.44-2.11,4.45-4,.89-1.24,2.75-1.14,3.51-2.56,1.88.5,2.93-.51,3.68-2.05a10.65,10.65,0,0,0,4.42-4.86c1,0,1.57-.8,2.35-1.12,1.21-.49,2.71-2.23,3.8.24a7.82,7.82,0,0,0,0,3.28c-1,.3-1.7,1.24-1.47,2,.68,2.21-.75,3.77-1.35,5.57-.69,2.09-1.67,4.11-1.42,6.41-.59.36-.52,1-.52,1.52a1.11,1.11,0,0,0-.51,1.07v.84l-.07.6c-.62.57-.36,1.32-.39,2l0,3.11v.77l.52.63a13.75,13.75,0,0,1-1.21,7.38,4.71,4.71,0,0,0-.27,3.61,90.31,90.31,0,0,0-1.06,10C1210.95,489.24,1210.14,494.84,1211.51,497.44Z" transform="translate(-1022.45 -361.86)"/><path class="cls-4" d="M1118.55,493.09l1.44-.16,2,.48a2.06,2.06,0,0,0,.5,0,1.76,1.76,0,0,0,1.59-1c.91-.56,2.43-.54,2.08-2.26l.15,0c5,.23,7.86-3.42,11.19-6.21,2.27-.85,3.19-2.95,4.46-4.75,3.27-4.64,6.6-9.23,9.91-13.83l.06.07a2.37,2.37,0,0,0,1.55-1.87c1.34-.29,2-1.43,2.82-2.33a6.65,6.65,0,0,1,5-2.37c2.41.53,1.82,2.91,2.69,4.39-1.28.9-1.65,2.32-2.12,3.69-2.27,1.54-5.48,1.91-6.43,5.12l-.45.39a1,1,0,0,0-1,.57v0c-3.36,1.61-6.39,3.55-7.46,7.45l-.72,1c-1.77.52-2.36,2-2.85,3.54h0l-.49.5h0a.88.88,0,0,0-.53,1h0c-1.76.25-2.44,1.95-3.72,2.86-.34.25.3.56.69.65.09,2.44,1.39,2.22,3,1.37l.51-.42,0,0a2.16,2.16,0,0,0,2-1.47h0a16.17,16.17,0,0,0,6.57-4.94,9.21,9.21,0,0,0,5-3h0c3.92-.84,7-3.25,10.26-5.4a5.43,5.43,0,0,1,2.78-1.18c2.13,3,2.13,3-1.39,4.17a11.63,11.63,0,0,1-4.81,1,1.41,1.41,0,0,0-1.76,1.31,2.36,2.36,0,0,1-2.48,2.24,1.47,1.47,0,0,0-1.5,1.38,55.7,55.7,0,0,1-8.1,5,1,1,0,0,0-1,.53h0c-7.38,1.45-12.51,6.55-17.78,11.27-1.81,1.63-3.43,3.56-5.29,5.21a12,12,0,0,1-5.35-.74c-2.83-1.19-5-3.68-8.22-4.19-.23,0-.4-.5-.6-.76a.41.41,0,0,0,0-.42l1.76-2.84c1.1-.25,1.09-1.32,1.52-2.07.73.73,1,2,2.39,1.94.68,0,1.35,0,1.48-.88C1118.15,495.68,1118.35,494.38,1118.55,493.09Z" transform="translate(-1022.45 -361.86)"/><path class="cls-5" d="M1124.41,481a1.63,1.63,0,0,1-2-.2c0-1-.83-.75-1.41-.86l0,0a72.39,72.39,0,0,1-14.26-8.29c-4.28-3.31-8.1-7.2-12.11-10.85-.92-.83-1.74-1.79-3.09-1.91a9.89,9.89,0,0,0-6.41-1.18c1.85-3.55,3.39-7.29,6.36-10.14,2.1.54,3.5,2.88,6,2.35l0,0,.52.43.51.59,0,0c2.8,3.7,6.3,6.3,11,6.94,2.25-.07,4.05.94,5.86,2.17,2.13,1.44,3.33,3.83,5.55,5.14,1.26,2.75,2.79,5.38,3.55,8.33.13.52.35.92,1,.94.33,1.91-.32,3.76-.35,5.65l-.5.44Z" transform="translate(-1022.45 -361.86)"/><path class="cls-2" d="M1181,408a11.19,11.19,0,0,1,5.46-2.61.71.71,0,0,0,1.06.25c1.66-1.07,3.53-.79,5.31-.67,3.29.22,5.68,2.35,5.52,5.15-.1,1.78.26,3.71-.85,5.36-1,.64-2.43.57-3.73,2.26a26.52,26.52,0,0,0,6.14-2.12l6.23.19,2,1a97.49,97.49,0,0,1-3.27,12.52,7.53,7.53,0,0,0-2.89,1.55,5.34,5.34,0,0,0-5.12,2.84c-1.46.15-2.21,1.3-3.13,2.21-.66,1.14-1.63.59-2.52.47-1.11-.32-1-1.3-1.25-2.16-1-3.84-2.3-7.55-5.43-10.27a3.93,3.93,0,0,1,.46-2.57,1,1,0,0,0,1-.48l1.08-.23c0-.06-.07-.17-.13-.19a.81.81,0,0,0-1,.38h-.5l-1.45-1c.7-.55.38-1.35.49-2,1.07-3.11-.09-5.78-3.22-7.45l-.09,0-.21-.66Zm9,11.42-.66.19.12.19.54-.37.65-.2-.13-.19Zm2.76-1,.53-.27c-.1-.17-.19-.47-.3-.48a.77.77,0,0,0-.57.27C1192.24,418.12,1192.43,418.28,1192.76,418.36Z" transform="translate(-1022.45 -361.86)"/><path class="cls-5" d="M1112.57,498l-1.76,2.84-.89.39h-.76c-2.67-1.38-4.6-3.77-7.15-5.3-1-2-3.17-2.07-5-2.7-2-1.29-3.65-3.15-6.05-3.79l0,0c-2.1-2.19-4.16-4.43-7.52-4.51h0l-1.28-1.72c-.57-2.18,1-3.62,1.87-5.27,1.21-.32.82-1.29.84-2.08h0l4.57,0h0a1.36,1.36,0,0,0,1.52,1.49h0c.16.39.32.31.49,0l1,.54a2.28,2.28,0,0,0,1.93.9,21,21,0,0,1,11,5.14c1.67,1.53,2.64,3.71,4.62,5,2,.05,2,1.71,2.46,3C1112.46,493.91,1114.12,495.94,1112.57,498Z" transform="translate(-1022.45 -361.86)"/><path class="cls-6" d="M1164.89,455.3c.91-2,3.13-2.12,4.6-3.32l3.51-1c0,.94.61,1.35,1.43,1.56a3.1,3.1,0,0,1,.24.38l0,2.6.08,1.39a.74.74,0,0,0,.35,1.05,3.59,3.59,0,0,0,.8,2.53,4.56,4.56,0,0,0,1.6,3.13l.36.88a7.79,7.79,0,0,0,2.64,4.6,1.9,1.9,0,0,0,1,1.42,2.84,2.84,0,0,1-.77,4.22c-.36.27-.82.57-.72,1.16l0,0-.41.55-.65.86-1.68.43c-3,.58-5.42.19-6.45-3.17-.09-.28-.42-.48-.64-.72l-.52-.54a2,2,0,0,0-1.46-1.52c-1-3-1.93-6-2.93-8.93C1164.34,460.36,1163.35,457.88,1164.89,455.3Z" transform="translate(-1022.45 -361.86)"/><path class="cls-4" d="M1139.57,462.54l.22-.42c.13.45.16,1.08.79,1,1-.1.86-1,1-1.68l.66-.55a.43.43,0,0,0,.26-.25l.59-.27.46-.44,0,0,.45-.44.08-.07.45-.36c3.41-1.83,6.29-4.85,10.58-4.69l3.52,2.7c-.15.94-1,1.18-1.59,1.73-2.29,2.26-5.18,3.9-7,6.66h0A34.53,34.53,0,0,0,1138.3,472c-2.2,1.92-4.39,3.11-7.29,2.92-.26-1.34.44-2.81-.53-4.06v-1c1.86-1.39,3.57-3.07,5.61-4.07A6.72,6.72,0,0,0,1139.57,462.54Z" transform="translate(-1022.45 -361.86)"/><path class="cls-7" d="M1062.92,484.8a1.27,1.27,0,0,1,.89-1c.86,0,1.42-.29,1.5-1.21l.31-1c.71.23.78-.23.79-.75,1,0,1.58-.42,1.5-1.5,2.39-1.32,2.64-4,3.45-6.11,1.15-3.08,2.15-3.73,5.13-2.19a23.16,23.16,0,0,0,6,2.27c1.84,1.59-.94,1.24-.88,2.08a6.31,6.31,0,0,0-4.64,3c-2.61,1.14-5,2.57-6.52,5.08-1.85,1.56-4.42,2.46-4.92,5.29-2.79,1.58-5.57,3.19-8.39,4.72a7.39,7.39,0,0,1-4.23,1.26c1.62-1.85,4.2-2.4,5.81-4.29.49-.57.21-.6-.27-.66l3.45-3.5a.74.74,0,0,0,.09.21s.11,0,.16,0l-.24-.26,1-1.51c.13.16-.14.62.37.5Z" transform="translate(-1022.45 -361.86)"/><path class="cls-8" d="M1243.6,396.88l-1.15-.84v-.61l.18-.36L1242,395v0a3.08,3.08,0,0,0-3.78-.74c-1.12.5-.63,1.7-.67,2.64-2.16.75-4.42,1.14-6.61,1.83-3.11,1-6.38-.49-9.63-.38-1.11,0-.88-.94-.07-1.47S1223,396,1223,395c.13-4,.65-4.67,4.58-4.53,2.39.09,4.74.56,6.78-1.19a1.51,1.51,0,0,1,1.66-.11l7.43,3.24.55.51h0c-.25,1.62,1.51,2.46,1.52,4l-.08.06Z" transform="translate(-1022.45 -361.86)"/><path class="cls-7" d="M1131,474.93c2.9.19,5.09-1,7.29-2.92a34.53,34.53,0,0,1,11.73-6.55,23.75,23.75,0,0,1-8.07,8.82c-2.76.61-4.81,2.48-6.92,4.12s-4.59,2.25-6.94,3.22a3.45,3.45,0,0,1-3.69-.65l.19-.47.5-.44c0-1.89.69-3.74.35-5.65.79-.46.51-1.26.65-1.94a.24.24,0,0,1,.36,0c1.45,1.81.62,4.2,1.57,6.16a9.56,9.56,0,0,0-.52-7.25,2.92,2.92,0,0,1,2-1.89l1,.38q0,.52,0,1c-1.85,1.15-.94,2.8-.65,4.24C1129.93,475.56,1130.65,475.37,1131,474.93Z" transform="translate(-1022.45 -361.86)"/><path class="cls-9" d="M1040.55,468.13l1.27-.35c1.3.18,2.52.69,3.91.43a84,84,0,0,0,9.73-2.85c3.82.06,7.23-1.58,10.78-2.65.83-.25,1.86-.31,2.27-1.34l.5,0v1.54c-.3.15-.66.31,0,.5v0l.06,1,0,.54-3,2a1.13,1.13,0,0,0-1,.49h0a38,38,0,0,0-7,2.36,77,77,0,0,1-20.45,4.69c.94-.6.08-1.95,1.05-2.54a1.91,1.91,0,0,0,2,.69,69.63,69.63,0,0,0,16.65-4.33c-5.34-.17-10.46,1.66-15.76,1.79C1041.16,469.38,1040.23,469,1040.55,468.13Z" transform="translate(-1022.45 -361.86)"/><path class="cls-10" d="M1068.55,493.71c-4.56,4.09-9,8.28-13.7,12.24-2.35,2-4.52,4.15-6.68,6.33-1.08,1.09-2.08,2-3.18-.23-.58-1.16-2.06-1.73-2.64-3.18-.41-1-1.78-.66-2.67-.16a14.62,14.62,0,0,1-2.66,1.33c-1.2.38-2.3.56-3.05-.74a2.48,2.48,0,0,1,.45-3.39,32,32,0,0,1,9.67-5.94c-.08.77-.7,1.07-1.25,1.44-2.47,1.68-4.93,3.36-7.41,5-.67.45-1.18,1-.86,1.84a.75.75,0,0,0,1.21.39c1.55-1.27,3.54-1.11,5.27-1.75.6-.1,1.2.65,1.81,0,.1,1,0,2.2,1.63,1.84l.92.16c-.34,1-.29,1.79,1.05,1.85a2,2,0,0,0,2.1-.92c1.57-2,3.76-3.42,5.67-5.1,4-3.54,7.88-7.23,11.81-10.86h0a1,1,0,0,0,1-.56l1-.49Z" transform="translate(-1022.45 -361.86)"/><path class="cls-11" d="M1243.44,392.39l-7.43-3.24a1.51,1.51,0,0,0-1.66.11c-2,1.76-4.39,1.28-6.78,1.19-3.93-.14-4.45.55-4.58,4.53,0,1-1,1.35-1.75,1.84s-1,1.51.07,1.47c3.25-.11,6.52,1.36,9.63.38,2.19-.69,4.45-1.09,6.61-1.83l-.05.09c-1,1.48-2.52,1.31-4,1.43-.53,0-1,.29-1,.86s.5.78,1,.76l1.48,0-.09.57a5.15,5.15,0,0,0-3,1.9l-1-.06c.17-1-.12-2-1.1-2.21-3.55-.71-7.13-1.39-10.76-.65a2,2,0,0,0-1.61,1.71c-.05.95,1,.6,1.52.83,1.58.67,3.27.2,4.88.53-1.65,1-3.66-.33-5.28.81-.92.55-.83,1.66-1.35,2.43-.46,0-.92.59-1.37,0,.43-1.46,2.1-2.85.22-4.45-.1-.09.05-.74.25-.86,1.81-1,2.06-3.42,4.13-4.42,1.47-.71,1.31-2.84,1-4.2s.25-1.64,1.2-1.83c2.36-.46,4.72-1.15,7.15-.63a3,3,0,0,0,2.34-.5,5.67,5.67,0,0,1,6.14,0,9.28,9.28,0,0,0,3.48,1.3,3.06,3.06,0,0,1,2.87,2.67l-.6.06h0Z" transform="translate(-1022.45 -361.86)"/><path class="cls-6" d="M1208.15,416.82l-2-1c-.16-.82-1.3-1-1.26-2a4.61,4.61,0,0,1,.92-2.45c.45-.89-.08-1-.78-.89-1.32-.22-1.26-1.18-1.16-2.16a11,11,0,0,1,5.69-2.89c.61-.1,1.42-.29,1.73.54.25.67-.34,1.09-.79,1.42-1.71,1.26-1.79,1.92.53,2.48,1,.24,1.89,1.31,2.65,2.16.57.62.74,1.46-.33,2a1.23,1.23,0,0,0-.8,1.39l-.68.91c-.87.65.14,1,.25,1.46l-.41,1-2.23-1.84Z" transform="translate(-1022.45 -361.86)"/><path class="cls-7" d="M1072.5,456.12c.59-.18.71-1.18,1.57-.89,1.19.37,1.82-.36,2.4-1.2,2.91-3.13,6.72-5.45,8.57-9.54l0,0c1.29.15,1.81-1,2.67-1.57s1.49-1.31,2.66-.66c1.37.76-.5,1.57.13,2.29-.4.46-1,.43-1.5.51-.12-.3-.25-.59-.47-.05h0l-.61.4c-.94.39-2.38.46-1.4,2.12-4,4.57-8,9.09-13.24,12.34-.66.41-1.39,1.39-2.14.74-1.49-1.29-1,.81-1.6.82a2.73,2.73,0,0,1,1.54-3.45C1071.82,457.61,1072.63,457.17,1072.5,456.12Z" transform="translate(-1022.45 -361.86)"/><path class="cls-6" d="M1220.76,441.9a7.83,7.83,0,0,1,0-3.28c2.44-2.77-.75-2.72-1.86-3.72l.6-1a1.48,1.48,0,0,0,1.41-.81,11,11,0,0,0,1.67-7.06c.57-.61,1.17-1.08,2-.41l.94,2.88c-.58,1.11.6,1.83.61,2.81l-1.5,9.21c-.72,1-1,2.21-2,3C1221.39,443.63,1221,442.79,1220.76,441.9Z" transform="translate(-1022.45 -361.86)"/><path class="cls-4" d="M1037.49,474.42a77,77,0,0,0,20.45-4.69,37.94,37.94,0,0,1,7-2.36c-4,3.91-9.28,5.15-14.22,7-4.37,1.67-9.21,1.58-13.72,2.91a6,6,0,0,1-3.63.07l.13-.45,3.5-2.06.48-.48Z" transform="translate(-1022.45 -361.86)"/><path class="cls-10" d="M1033.41,477.39a6,6,0,0,0,3.63-.07c4.51-1.33,9.35-1.25,13.72-2.91,4.93-1.88,10.26-3.12,14.22-7h0c.44,0,.85,0,1-.49l3-2a5.71,5.71,0,0,1,3.4-1.09l.2.21a58.44,58.44,0,0,1-14.79,9c-6.5,2.95-13.55,3.87-20.36,5.67C1035.42,479.22,1034.46,478.81,1033.41,477.39Z" transform="translate(-1022.45 -361.86)"/><path class="cls-3" d="M1072.5,456.12c.13,1-.68,1.49-1.37,1.83a2.74,2.74,0,0,0-1.54,3.45l-.05,0-.54,0-.5,0c-.36-1.64-1.31-.8-2.07-.46a40.33,40.33,0,0,1-6.6,2.85c-1.48.38-3.17.37-4.37,1.59a84,84,0,0,1-9.73,2.85c-1.39.25-2.61-.25-3.91-.43a109.07,109.07,0,0,1,15.73-4.42c4.67-1.06,8.64-3.48,12.56-6A4.54,4.54,0,0,1,1072.5,456.12Z" transform="translate(-1022.45 -361.86)"/><path class="cls-9" d="M1041,506.95c-1.73.64-3.73.47-5.27,1.75a.75.75,0,0,1-1.21-.39c-.31-.86.19-1.39.86-1.84,2.47-1.67,4.94-3.36,7.41-5,.55-.37,1.17-.67,1.25-1.44l.82-.67c1,.13,1.71-.59,2.52-1,1.47.07,2.76-.15,3.08-1.92h0l2-.06c.2,1.38-.93,1.81-1.77,2.4-3.09,2.18-6.22,4.3-9.28,6.54C1041.09,505.55,1039.39,506,1041,506.95Z" transform="translate(-1022.45 -361.86)"/><path class="cls-12" d="M1125,506.92c1.86-1.65,3.47-3.58,5.29-5.21,5.27-4.72,10.4-9.82,17.77-11.27l-.14.78a26.38,26.38,0,0,1-4.64,2.41,24.35,24.35,0,0,0-5.41,3.46,85,85,0,0,0-10.47,9.81Z" transform="translate(-1022.45 -361.86)"/><path class="cls-13" d="M1091.55,458.89c1.35.12,2.17,1.08,3.09,1.91,4,3.65,7.83,7.55,12.11,10.85a72.39,72.39,0,0,0,14.26,8.29,7.69,7.69,0,0,1-5.24-1.29c-4-2.45-8.3-4.43-11.73-7.83s-7.2-6.63-10.85-9.88a15.77,15.77,0,0,0-2.28-1.43Z" transform="translate(-1022.45 -361.86)"/><path class="cls-10" d="M1240.58,396.84c2.48,1.58,2.42,4.4,3.13,6.77s.77,5.15,2.4,7.43c1,1.32-.76,2.55-.89,3.92l-.22,0c-.17-1.14-.42-2.27-.49-3.42-.09-1.47-.6-1.92-2.18-1.73s-3.46.3-5.2.48-3.51.95-4.78-.94a27.8,27.8,0,0,0,7.55-.4c1,0,2.06.39,3.49-1H1238l0,0,0-1c1.22,0,2.45,0,3.66.12.67.07,1.3.06,1.17-.71-.2-1.23.52-2.88-1.35-3.47l0-1.46.07-.88-1.29-3.35Z" transform="translate(-1022.45 -361.86)"/><path class="cls-12" d="M1202.89,479.91c.67-.17.53-1,1.19-1.57a14.59,14.59,0,0,1-.71,5.85c-1,4.14-1.07,8.51-2.86,12.48-.43.95-.7,1.89-2,1.74a84,84,0,0,1,3.18-13.48,3,3,0,0,0,.94-3.47Z" transform="translate(-1022.45 -361.86)"/><path class="cls-12" d="M1170.1,473.84c.22.24.55.44.64.72,1,3.36,3.49,3.75,6.45,3.17-.93,1.1-2.66,1.15-3.36,2.56l-.81-.41c.06-1.52-.65-1.45-1.64-.79-1-.45-1.63.17-2.46.55-3,1.42-6.67,1.77-8.78,4.88-1.07-.36-2,.31-3.06.34a1.47,1.47,0,0,1,1.5-1.38,2.36,2.36,0,0,0,2.48-2.24,1.41,1.41,0,0,1,1.76-1.31,11.63,11.63,0,0,0,4.81-1c3.52-1.18,3.52-1.17,1.39-4.17Z" transform="translate(-1022.45 -361.86)"/><path class="cls-12" d="M1142,474.27a23.75,23.75,0,0,0,8.07-8.82h0l1.87-.13c-3.31,4.61-6.65,9.2-9.91,13.84-1.27,1.8-2.18,3.91-4.46,4.75l-.08-1.07c1.87-2.31,3.76-4.6,5.61-6.93.35-.44.81-1,.49-1.56S1142.5,474.39,1142,474.27Z" transform="translate(-1022.45 -361.86)"/><path class="cls-10" d="M1224.6,440.49l1.5-9.21c2.36.3,4.19,1.93,6.45,2.55,4,1.09,7.25-.46,8.64-4.41l1.2-.06a7.36,7.36,0,0,1-9.6,5.63c-1.87-.62-4-2.22-5.46-1.73s-.43,3.43-1.22,5.16C1225.75,439.21,1225.71,440.23,1224.6,440.49Z" transform="translate(-1022.45 -361.86)"/><path class="cls-8" d="M1180,475.84c-.1-.59.36-.89.72-1.16a2.84,2.84,0,0,0,.77-4.22c2.2.21,4.44.52,5-2.51l1.86-.56,1.2.64c.66,2.26,1,4.66,3,6.27l-.58.62c-2.47-.63-2.5-2.79-2.95-4.69-.11-.47,0-1.1-.55-1.31-.72-.29-1,.45-1.34.83C1185,472,1183.29,474.9,1180,475.84Z" transform="translate(-1022.45 -361.86)"/><path class="cls-11" d="M1215,465.8c0-.26,0-.52,0-.78a2.45,2.45,0,0,0,0-3.1c0-.69-.23-1.43.39-2,.47-.15.37-.37.07-.6v-.84l1-.06.54-.06c-.35,6.36-.72,12.72-1.6,19a1.17,1.17,0,0,0-1.41,0,4.71,4.71,0,0,1,.27-3.61,13.75,13.75,0,0,0,1.21-7.38Z" transform="translate(-1022.45 -361.86)"/><path class="cls-10" d="M1082.51,473.35a23.16,23.16,0,0,1-6-2.27c-3-1.54-4-.89-5.13,2.19-.8,2.14-1.06,4.79-3.44,6.11l-.58-.74a18.81,18.81,0,0,0,3.08-6.21,6.15,6.15,0,0,1,3-3.51c1.3-.74,2.34-1.18,3.45.58,1.21,1.94,3.87,1.74,5.64,3Z" transform="translate(-1022.45 -361.86)"/><path class="cls-3" d="M1125,506.92l2.41,0a8.08,8.08,0,0,1-7.53.55,69,69,0,0,1-10.83-5.56l.13-.68h.76l.9,0c.2.26.36.72.6.76,3.2.51,5.38,3,8.22,4.19A12,12,0,0,0,1125,506.92Z" transform="translate(-1022.45 -361.86)"/><path class="cls-13" d="M1215.83,405.78c.45.6.92,0,1.37,0-.81,2.48,1.21,3.06,2.69,4-1.59.58-1.14,1.63-.13,2s1.06,1.36,1.79,1.8c-.63.63-1.29,1.25-1.9,1.91s-1.84,1.46-1.12,2.84c-.89.1-1.62-.81-2.56-.4V418l0-.57c1.65-.8,2.39-2.5,3.4-3.82.74-1-.89-1.39-1.58-1.81C1216.17,410.76,1214.95,407.35,1215.83,405.78Z" transform="translate(-1022.45 -361.86)"/><path class="cls-12" d="M1217,458.35l-.54.06,0-1,.05-1.55c-.25-2.3.72-4.31,1.42-6.41.6-1.8,2-3.36,1.35-5.57-.24-.77.45-1.71,1.47-2,.29.9.64,1.73,1.83,1.57a40.31,40.31,0,0,0-5.11,12.45c-.47.27-.6.58-.12,1Z" transform="translate(-1022.45 -361.86)"/><path class="cls-2" d="M1090.52,444.52c-.63-.72,1.24-1.53-.13-2.3-1.17-.65-1.87.13-2.66.66s-1.38,1.73-2.67,1.57c.92-1.66,2.61-2.51,4-3.61s2.84-.5,3,1.51a10.31,10.31,0,0,0,1.11,4c.59,1.2,1.23,2.11,2.75,2.07.9,0,1.63.36,1.63,1.45-2.52.53-3.92-1.82-6-2.35C1092.27,446.2,1091.38,445.36,1090.52,444.52Z" transform="translate(-1022.45 -361.86)"/><path class="cls-10" d="M1197.06,520.46c-3.15-.4-3.23-.5-2.07-3.25a3.41,3.41,0,0,0,.43-2.32l1.34,0c.69.77,1-.1,1.1-.41.21-.61-.3-.55-.71-.47-.29-.15-.67-.41-.41-.68s.7,0,1.07.09c1.45.14,1.77-1.18,2.53-1.95s1.23-2,2.44-.62a2.17,2.17,0,0,0-1.74,2.06h0l-.51.51h0c-.5.17-.56.56-.51,1h0l-.51.51h0l-.51.51h0l-.51.51h0a.9.9,0,0,0-.51,1h0l-.5.62v1C1198.46,519.42,1197.2,519.8,1197.06,520.46Z" transform="translate(-1022.45 -361.86)"/><path class="cls-10" d="M1197.52,415.46c1.11-1.65.74-3.58.85-5.36.16-2.8-2.23-4.94-5.52-5.15-1.78-.12-3.65-.4-5.31.67a.71.71,0,0,1-1.06-.25c3.29-2.08,7.93-2,10.5,0,2.08,1.6,3.42,6.13,2,9.07C1199,415.52,1198.24,415.44,1197.52,415.46Z" transform="translate(-1022.45 -361.86)"/><path class="cls-10" d="M1247.48,418a9.69,9.69,0,0,1,1.24,0c4.44.62,5.19,2.34,2.62,6-.68,1-1.69.93-2.71.73-1.38-.28-2.76-.58-4.15-.87l0-.87c1.47.15,2.94.39,4.42.43,1.67.05,2-1.25,2.14-2.53.2-1.55-1-1.48-2-1.51s-2.18.16-3.09-.62Z" transform="translate(-1022.45 -361.86)"/><path class="cls-10" d="M1082.23,483.22l1.28,1.72c-4.84.09-8,3.33-11.37,6.13-1.16-1.52-2.44.11-3.65-.15h0L1068,490c1.2-.25,2.6.41,3.62-.5A35.62,35.62,0,0,1,1082.23,483.22Z" transform="translate(-1022.45 -361.86)"/><path class="cls-11" d="M1142.19,460.91l-.66.55-1.07-.07c2.67-3.75,7-5.14,10.7-7.35a18.3,18.3,0,0,0,2.76-1.65l1.1.51h0l.07,1.45c-4.29-.17-7.17,2.86-10.58,4.69l-.45.36-.08.07-.45.44,0,0-.46.44-.58.27-.21,0Z" transform="translate(-1022.45 -361.86)"/><path class="cls-10" d="M1181,408v1.79c-1,.51-1.6,1.61-3,1.25a1.23,1.23,0,0,0-1.44,1c-.06.87.74.6,1.23.78a6.39,6.39,0,0,1,3.9,4.42l-.2.15c-1.89-2.31-4-4.15-7.27-4.08-.49,0-.63-.44-.71-.86C1175.48,410.09,1178.66,409.72,1181,408Z" transform="translate(-1022.45 -361.86)"/><path class="cls-10" d="M1047.42,498.33c-.81.41-1.5,1.13-2.52,1a6.52,6.52,0,0,1,2.93-2.88c3.49-2.28,7.09-4.41,10.64-6.59.49.05.77.08.28.66-1.61,1.89-4.19,2.44-5.81,4.29l-.91.63a1.4,1.4,0,0,0-1.53,1h0A5.89,5.89,0,0,0,1047.42,498.33Z" transform="translate(-1022.45 -361.86)"/><path class="cls-11" d="M1211.51,497.44c-1.37-2.6-.56-8.2,1.45-10l.67-.07C1213.21,490.78,1213,494.24,1211.51,497.44Z" transform="translate(-1022.45 -361.86)"/><path class="cls-10" d="M1120.94,465.14c-2.22-1.31-3.42-3.7-5.55-5.14-1.81-1.23-3.61-2.24-5.86-2.17l-.05-1a7.16,7.16,0,0,1,5.54,1.56,26.09,26.09,0,0,1,6.07,5.86Z" transform="translate(-1022.45 -361.86)"/><path class="cls-10" d="M1105.45,484a21,21,0,0,0-11-5.14,2.28,2.28,0,0,1-1.93-.9,17,17,0,0,1,13.51,5.44Z" transform="translate(-1022.45 -361.86)"/><path class="cls-14" d="M1197.06,520.46c.14-.66,1.41-1,.48-2,2.48-1.11,3.68-3.36,5-5.55l.56-.59.91.09c.48,1.56-1,2.3-1.46,3.46-.59,1.82-2.76,2.64-3,4.69C1198.54,523,1197.88,520.31,1197.06,520.46Z" transform="translate(-1022.45 -361.86)"/><path class="cls-12" d="M1130.49,469.83l-1-.38c3-2.91,6-5.63,10.09-6.91a6.73,6.73,0,0,1-3.46,3.22C1134.06,466.76,1132.35,468.44,1130.49,469.83Z" transform="translate(-1022.45 -361.86)"/><path class="cls-10" d="M1157.07,484.87c1,0,2-.7,3.06-.34-3.88,2.58-7.71,5.25-12.22,6.69l.14-.78h0a1,1,0,0,0,1-.53A55.7,55.7,0,0,0,1157.07,484.87Z" transform="translate(-1022.45 -361.86)"/><path class="cls-10" d="M1162,418c-.51,2-2.48,2.29-3.86,3.22-2.49,1.67-5.13,3.11-7.7,4.65a6.24,6.24,0,0,1,4-4C1157,420.69,1159.48,419.26,1162,418Z" transform="translate(-1022.45 -361.86)"/><path class="cls-11" d="M1137.45,482.83l.08,1.07c-3.33,2.79-6.18,6.45-11.19,6.21A65,65,0,0,0,1137.45,482.83Z" transform="translate(-1022.45 -361.86)"/><path class="cls-3" d="M1037,474.88l-3.5,2.06c0-.5-.16-1.22.33-1.36,2.54-.77,3.36-3.11,4.88-4.86.72-.83-.32-2.9,1.81-2.58-.32.92.61,1.25.88,1.89l-2.89,1.86c-1,.59-.12,1.93-1.05,2.54l0,0Z" transform="translate(-1022.45 -361.86)"/><path class="cls-10" d="M1085,458.83c-5.09-.53-9,1.75-12.4,5.21l-.2-.21.55-1.64c3.59-2.67,7.22-5.19,12.07-4.38Z" transform="translate(-1022.45 -361.86)"/><path class="cls-2" d="M1085,444.48c-1.85,4.09-5.66,6.41-8.57,9.54l-.53-.17c.76-2.68,3.5-3.57,5.09-5.53C1082.15,446.92,1083.06,445.07,1085,444.48Z" transform="translate(-1022.45 -361.86)"/><path class="cls-13" d="M1109.48,456.87l.05,1c-4.73-.64-8.22-3.24-11-6.94,1.63,1.11,3.32,2.15,4.88,3.34A12.59,12.59,0,0,0,1109.48,456.87Z" transform="translate(-1022.45 -361.86)"/><path class="cls-12" d="M1244,392.91l.6-.06c1.27,2,3.67,3.68,1.88,6.55l-1.87,0-1-2.49,1.86.07.25,1.08c.06,0,.17-.08.18-.14a.82.82,0,0,0-.36-1C1245.52,395.37,1243.76,394.52,1244,392.91Z" transform="translate(-1022.45 -361.86)"/><path class="cls-13" d="M1197.79,513.45c-.37,0-.91-.25-1.07-.09s.13.52.41.68l-.39.88-1.34,0a7.75,7.75,0,0,1,0-5.5l1.11-.49c.07.46-.16,1.11.32,1.33C1198.47,511,1198.12,512.19,1197.79,513.45Z" transform="translate(-1022.45 -361.86)"/><path class="cls-13" d="M1120.94,465.14l.14-.86c2,1.68,2.84,4,3.36,6.47.23,1,.52,1.7,1.65,1.73-.13.67.14,1.48-.65,1.94-.61,0-.82-.42-1-.94C1123.73,470.52,1122.2,467.89,1120.94,465.14Z" transform="translate(-1022.45 -361.86)"/><path class="cls-8" d="M1244.44,423l0,.87-1.05,2.15-.82-.06c.24-1.45.49-2.89.71-4.34.1-.66.59-1.6-.81-1.45-.32-1.06.42-1.65,1-2.31.53.52.9,1.3,1.85,1.07A6.81,6.81,0,0,0,1244.44,423Z" transform="translate(-1022.45 -361.86)"/><path class="cls-11" d="M1245.36,418.89c-1,.23-1.33-.56-1.85-1.07-.23-.86-1-1.31-1.51-2,1.16.19,1.93-.88,3-.95l.22,0,1.29,2.44.49.52a.69.69,0,0,1,.48,0l-1.54.78Z" transform="translate(-1022.45 -361.86)"/><path class="cls-13" d="M1202.5,515.92c.47-1.16,1.94-1.9,1.46-3.46l.47-.81c1.73-.4,1.21-2.37,2.26-3.24h.76c-1.14,2.59-1.55,5.55-3.84,7.54Z" transform="translate(-1022.45 -361.86)"/><path class="cls-11" d="M1085,458.83q0-.51,0-1l.09-.11a9.89,9.89,0,0,1,6.41,1.18l-.63.61C1089.05,458.44,1086.89,460,1085,458.83Z" transform="translate(-1022.45 -361.86)"/><path class="cls-12" d="M1213.63,487.35l-.67.07a90.2,90.2,0,0,1,1.06-10,1.17,1.17,0,0,1,1.41,0c-.15,1.78,0,3.64-1.28,5.15-.32.25-.24.56-.14.88l.06,1.47c-.63.42-.75.91-.2,1.49Z" transform="translate(-1022.45 -361.86)"/><path class="cls-10" d="M1198.47,499.4a6.41,6.41,0,0,0,7,3c-.57.66-1.36.33-2,.43-2,.31-3.79-.83-5.75-.41l-.4-.07A2.16,2.16,0,0,1,1198.47,499.4Z" transform="translate(-1022.45 -361.86)"/><path class="cls-13" d="M1109.16,501.2l-.13.68c-3.19-.88-5.16-3.54-7.71-5.35l.68-.64C1104.56,497.43,1106.48,499.82,1109.16,501.2Z" transform="translate(-1022.45 -361.86)"/><path class="cls-2" d="M1173.82,480.29c.7-1.41,2.43-1.46,3.36-2.56l1.68-.43C1177.95,480.33,1176.42,481.24,1173.82,480.29Z" transform="translate(-1022.45 -361.86)"/><path class="cls-13" d="M1083.48,484.92c3.36.08,5.43,2.32,7.52,4.51A21.3,21.3,0,0,1,1083.48,484.92Z" transform="translate(-1022.45 -361.86)"/><path class="cls-12" d="M1192,474.92l.58-.62a5.59,5.59,0,0,1,2.46.86c1,.52,2,1.52,3.35,1l.57.72c-1.83,1.4-3.28-.17-4.84-.68A11,11,0,0,1,1192,474.92Z" transform="translate(-1022.45 -361.86)"/><path class="cls-2" d="M1197.26,502.4l.4.07c.25.62.89.7,1.38,1-1.57,1.47-1.66,3.63-2.52,5.43l-1.11.49C1195.43,506.9,1197.12,504.85,1197.26,502.4Z" transform="translate(-1022.45 -361.86)"/><path class="cls-13" d="M1112.57,498c1.55-2-.11-4.06,0-6.09.95.58,1.27,1.66,2,2.43a2,2,0,0,0,2.41.54c.15.54.13,1-.5,1.23-.81.35-1.44-1.53-2.33-.18C1113.66,496.65,1113.66,497.72,1112.57,498Z" transform="translate(-1022.45 -361.86)"/><path class="cls-12" d="M1242.61,425.92l.82.06c.29,1.32-.57,2.28-1,3.37l-1.21.06a3,3,0,0,0-2.21.4l-.16-1a2.16,2.16,0,0,1,1.11-2.06c.85.2.07,1.69,1.08,1.52.47-.08.83-.9,1.2-1.42A4.63,4.63,0,0,0,1242.61,425.92Z" transform="translate(-1022.45 -361.86)"/><path class="cls-11" d="M1153.57,442.52c-1,1.79-.3,3.61-.1,5.42l-.81.83c-.5-2.11-1.91-4.22,0-6.35Z" transform="translate(-1022.45 -361.86)"/><path class="cls-9" d="M1127.5,471.34a9.56,9.56,0,0,1,.52,7.25c-1-2-.12-4.35-1.57-6.16A1.33,1.33,0,0,1,1127.5,471.34Z" transform="translate(-1022.45 -361.86)"/><path class="cls-12" d="M1153.57,442.52l-.94-.1c.1-1.65,1.91-1.78,2.59-2.92,1-.34,1.71-1.48,3.42-1.47Z" transform="translate(-1022.45 -361.86)"/><path class="cls-2" d="M1082.51,473.35l0-.87a7.56,7.56,0,0,1,2.53,1.42l-.06,1.95h0l-3.57.41.26-.83C1081.57,474.6,1084.35,474.94,1082.51,473.35Z" transform="translate(-1022.45 -361.86)"/><path class="cls-10" d="M1207.45,508.39h-.76l1.25-4.82.06-.68h1.39A18.64,18.64,0,0,1,1207.45,508.39Z" transform="translate(-1022.45 -361.86)"/><path class="cls-11" d="M1204.9,413.82c0,1,1.1,1.15,1.26,2l-6.23-.19.56-.74C1201.82,413.9,1203.64,415,1204.9,413.82Z" transform="translate(-1022.45 -361.86)"/><path class="cls-2" d="M1102,495.9l-.68.64a20.7,20.7,0,0,1-4.31-2.64l0-.7C1098.84,493.83,1101,493.86,1102,495.9Z" transform="translate(-1022.45 -361.86)"/><path class="cls-10" d="M1202.5,515.92h1.1c-.83,2-1.56,4.15-4.1,4.68C1199.74,518.56,1201.91,517.74,1202.5,515.92Z" transform="translate(-1022.45 -361.86)"/><path class="cls-13" d="M1097,493.2l0,.7c-2.25-1.17-4.54-2.29-6-4.49C1093.38,490.05,1095,491.9,1097,493.2Z" transform="translate(-1022.45 -361.86)"/><path class="cls-13" d="M1105.45,484l.58-.6c1.64,1.64,3.88,2.83,4,5.55C1108.09,487.67,1107.13,485.48,1105.45,484Z" transform="translate(-1022.45 -361.86)"/><path class="cls-11" d="M1068.49,490.92c1.21.26,2.49-1.37,3.65.15l-3.6,2.64-.59-.83A2.18,2.18,0,0,0,1068.49,490.92Z" transform="translate(-1022.45 -361.86)"/><path class="cls-12" d="M1200.49,414.86l-.56.74a26.45,26.45,0,0,1-6.14,2.13c1.3-1.69,2.69-1.62,3.73-2.26.72,0,1.52.06,1.48-1C1199.5,414.57,1199.89,415.08,1200.49,414.86Z" transform="translate(-1022.45 -361.86)"/><path class="cls-3" d="M1116.42,496.09c.63-.22.65-.7.5-1.23-.09-1.17.44-1.77,1.63-1.76-.2,1.29-.4,2.59-.59,3.88-.13.93-.8.9-1.48.88Z" transform="translate(-1022.45 -361.86)"/><path class="cls-14" d="M1084.95,475.85l.06-1.95c1.49.7,3.49.25,4.52,2Z" transform="translate(-1022.45 -361.86)"/><path class="cls-8" d="M1199,476.86l-.57-.72c1.26-.81,2.47-1.77,4.09-1.76l-.05,0C1202,476.18,1200.42,476.45,1199,476.86Z" transform="translate(-1022.45 -361.86)"/><path class="cls-3" d="M1203.88,408.32c-.1,1-.17,1.94,1.16,2.16-.58.85-1.51,1.47-2.21.59C1201.89,409.89,1202.79,409,1203.88,408.32Z" transform="translate(-1022.45 -361.86)"/><path class="cls-8" d="M1204.39,471.81c-.24,1.37,1,3-.73,4.1,0-.82.17-1.81-1.23-1.54l0,0a1.23,1.23,0,0,1,.51-1.18Z" transform="translate(-1022.45 -361.86)"/><path class="cls-11" d="M1122.52,493.38a2.06,2.06,0,0,1-.5,0q0-.46,0-.92a11.17,11.17,0,0,1,4.17-2.34c.34,1.71-1.18,1.7-2.09,2.25A1.46,1.46,0,0,0,1122.52,493.38Z" transform="translate(-1022.45 -361.86)"/><path class="cls-2" d="M1067.34,478.65l.58.74c.08,1.08-.5,1.5-1.5,1.5h-.57A2.32,2.32,0,0,1,1067.34,478.65Z" transform="translate(-1022.45 -361.86)"/><path class="cls-3" d="M1202.63,481.46a3,3,0,0,1-.94,3.47C1202.05,483.78,1201.94,482.51,1202.63,481.46Z" transform="translate(-1022.45 -361.86)"/><path class="cls-10" d="M1242.45,395.43V396c-.65.19-1.8-.8-1.86.79l-.36.34-.72-.77c.34-1.34,1.38-1.46,2.5-1.47v0Z" transform="translate(-1022.45 -361.86)"/><path class="cls-11" d="M1244.61,399.38l1.87,0c-.13.86-.64,1.38-1.5,1.2C1244.39,400.48,1244.4,399.89,1244.61,399.38Z" transform="translate(-1022.45 -361.86)"/><path class="cls-12" d="M1152.67,448.78l.81-.83.39,1.16,0,.22,0,1.65C1152.62,450.76,1153,449.56,1152.67,448.78Z" transform="translate(-1022.45 -361.86)"/><path class="cls-7" d="M1140.46,461.38l1.07.07c-.1.69,0,1.58-1,1.68-.62.07-.65-.57-.79-1l.1-.17.6-.58Z" transform="translate(-1022.45 -361.86)"/><path class="cls-10" d="M1122,492.5q0,.46,0,.92l-2-.48C1120.37,491.41,1121.35,492.66,1122,492.5Z" transform="translate(-1022.45 -361.86)"/><path class="cls-2" d="M1171.37,479.1c1-.66,1.7-.73,1.64.79C1172.32,479.91,1171.67,479.88,1171.37,479.1Z" transform="translate(-1022.45 -361.86)"/><path class="cls-3" d="M1075.94,453.85l.53.17c-.58.85-1.21,1.58-2.4,1.2C1074.24,454.15,1075.16,454.1,1075.94,453.85Z" transform="translate(-1022.45 -361.86)"/><path class="cls-12" d="M1155,452.89l-1.1-.51c.06-.48-.55-1,0-1.43C1155.24,451.06,1155,452,1155,452.89Z" transform="translate(-1022.45 -361.86)"/><path class="cls-14" d="M1091,477.37a1.36,1.36,0,0,1-1.52-1.49A1.49,1.49,0,0,1,1091,477.37Z" transform="translate(-1022.45 -361.86)"/><path class="cls-11" d="M1213.87,486.38c-.55-.58-.43-1.07.2-1.49A1.19,1.19,0,0,1,1213.87,486.38Z" transform="translate(-1022.45 -361.86)"/><path class="cls-12" d="M1211.88,416.31l.68-.91,1,.93-.39.52Z" transform="translate(-1022.45 -361.86)"/><path class="cls-13" d="M1121,479.91c.58.11,1.37-.14,1.41.86C1121.93,480.46,1121.24,480.52,1121,479.91Z" transform="translate(-1022.45 -361.86)"/><path class="cls-11" d="M1217.36,456.88c-.48-.39-.35-.7.12-1A.62.62,0,0,1,1217.36,456.88Z" transform="translate(-1022.45 -361.86)"/><path class="cls-10" d="M1150.44,425.79c-.32.63-.69,1.11-1.46.58A1.5,1.5,0,0,1,1150.44,425.79Z" transform="translate(-1022.45 -361.86)"/><path class="cls-10" d="M1065.31,482.63c-.08.92-.63,1.26-1.5,1.21C1064.16,483.24,1064.43,482.56,1065.31,482.63Z" transform="translate(-1022.45 -361.86)"/><path class="cls-11" d="M1214,483.42c-.09-.32-.18-.63.14-.88.12,0,.32,0,.35,0C1214.71,483.07,1214.16,483.14,1214,483.42Z" transform="translate(-1022.45 -361.86)"/><path class="cls-10" d="M1065.85,480.87h.57c0,.51-.08,1-.8.75Z" transform="translate(-1022.45 -361.86)"/><path class="cls-12" d="M1216,417.42l0,.57c-.5.49-.85,0-1.25-.18l.34-.48Z" transform="translate(-1022.45 -361.86)"/><path class="cls-13" d="M1098.52,450.91l-.51-.59a.91.91,0,0,1,0-.29C1098.42,450.16,1098.5,450.52,1098.52,450.91Z" transform="translate(-1022.45 -361.86)"/><path class="cls-12" d="M1214.09,416.82c.38.06.82,0,1,.51l-.34.48-1-.59Z" transform="translate(-1022.45 -361.86)"/><path class="cls-12" d="M1179.52,476.44l.41-.55C1180.07,476.28,1179.87,476.41,1179.52,476.44Z" transform="translate(-1022.45 -361.86)"/><path class="cls-11" d="M1140.49,461.37l-.6.58Z" transform="translate(-1022.45 -361.86)"/><path class="cls-14" d="M1091.51,477.38c-.16.31-.33.39-.49,0Z" transform="translate(-1022.45 -361.86)"/><path class="cls-2" d="M1098,450a.91.91,0,0,0,0,.29l-.52-.43Z" transform="translate(-1022.45 -361.86)"/><path class="cls-12" d="M1213.57,416.33l.51.49-.35.4-.56-.36Z" transform="translate(-1022.45 -361.86)"/><path class="cls-10" d="M1247,417.91l-.49-.52Z" transform="translate(-1022.45 -361.86)"/><path class="cls-12" d="M1155.09,454.35l-.07-1.45a11,11,0,0,1,1.16.87c2.56,2.5,5.37,3.5,8.7,1.53-1.54,2.58-.55,5.06.3,7.55,1,3,2,6,2.93,8.93l-.3.3c-1.3-.89-1.29-2.57-2.24-3.67.15-1.94-1.47-3.35-1.55-5.22-.88-1.47-.28-3.85-2.69-4.38-.43-1.32-1.57-1.55-2.72-1.76Z" transform="translate(-1022.45 -361.86)"/><path class="cls-3" d="M1184.54,424c3.14,2.72,4.43,6.43,5.43,10.27.22.86.14,1.84,1.25,2.16l.24,1-1.57,0a25,25,0,0,0-4.88-11.25c-.6-.73-1.11-1.65-2.46-1.06,1.92,2.74,3.75,5.41,4,8.78-1.19-.63-1.27-2-2-2.95l-.53-1.14-.31-.94c-.28-.59-.49-1.23-1.18-1.49v0l-.52-1.07-.82-1a1.29,1.29,0,0,1-.18-.45,2.6,2.6,0,0,1,2.61-1Z" transform="translate(-1022.45 -361.86)"/><path class="cls-14" d="M1186.54,433.9c-.24-3.37-2.07-6-4-8.78,1.35-.59,1.86.33,2.46,1.06a25,25,0,0,1,4.88,11.25c-.36.91-.75,1.55-1.45.2a15.63,15.63,0,0,0-.89-1.36c0-.56,0-1.1-.61-1.39.12-.44.19-.87-.42-1Z" transform="translate(-1022.45 -361.86)"/><path class="cls-12" d="M1174.43,452.49c-.82-.2-1.42-.61-1.43-1.56q0-.23.06-.47h0l3.44-.63c3-.89,5-3.05,7.14-5.14.7-.69,1.16-1.63,2.14-2l.41.35-.17.86h0l-.74.52a.52.52,0,0,0-.24.31c-1.28,1.44-2.94,2.51-4,4.18a10.32,10.32,0,0,1-5.37,2.54A1.56,1.56,0,0,0,1174.43,452.49Z" transform="translate(-1022.45 -361.86)"/><path class="cls-12" d="M1187.54,436.28a15.63,15.63,0,0,1,.89,1.36c.7,1.34,1.09.71,1.45-.2l1.57,0c-.1,1.62-1.74,1.93-2.51,3-.33.25-.83.43-.47,1v0c-.49-.17-.61,0-.48.48h0c-1-.29-1.16.85-1.82,1.14l-.41-.35C1187.83,441,1186.94,438.41,1187.54,436.28Z" transform="translate(-1022.45 -361.86)"/><path class="cls-9" d="M1183.62,423.89a2.6,2.6,0,0,0-2.61,1l-1-.05-.5-1.52c1.12-.44,2.55-.36,3.07-1.81l.46-.24C1184.3,421.92,1183.08,423.1,1183.62,423.89Z" transform="translate(-1022.45 -361.86)"/><path class="cls-12" d="M1179.5,423.35l.5,1.52-.21.48c-.86-.23-2.07,1.4-2.48-.06C1177,424.1,1178.23,423.41,1179.5,423.35Z" transform="translate(-1022.45 -361.86)"/><path class="cls-10" d="M1183,421.29l-.46.24a13.45,13.45,0,0,1-1.08-4.12l.2-.15c.88.66.74,1.83,1.32,2.63Z" transform="translate(-1022.45 -361.86)"/><path class="cls-13" d="M1173.06,450.46q0,.23-.06.47l-3.51,1C1169.89,449.6,1171.72,450.61,1173.06,450.46Z" transform="translate(-1022.45 -361.86)"/><path class="cls-13" d="M1176.46,449.84l-3.44.63C1173.93,448.93,1175.16,449.18,1176.46,449.84Z" transform="translate(-1022.45 -361.86)"/><path class="cls-13" d="M1182.53,427.38c.69.26.9.9,1.18,1.49C1182.59,429,1182.45,428.25,1182.53,427.38Z" transform="translate(-1022.45 -361.86)"/><path class="cls-13" d="M1184,429.81l.53,1.14A1.12,1.12,0,0,1,1184,429.81Z" transform="translate(-1022.45 -361.86)"/><path class="cls-13" d="M1182,426.32l.52,1.07C1182.05,427.19,1182,426.77,1182,426.32Z" transform="translate(-1022.45 -361.86)"/><path class="cls-13" d="M1179.8,425.36l.21-.48,1,.05a1.29,1.29,0,0,0,.18.45Z" transform="translate(-1022.45 -361.86)"/><path class="cls-3" d="M1186.51,433.89c.62.13.54.55.42,1Z" transform="translate(-1022.45 -361.86)"/><path class="cls-11" d="M1153.9,449.32l0-.22.22.14Z" transform="translate(-1022.45 -361.86)"/><path class="cls-1" d="M1194.89,462.85a8.1,8.1,0,0,0,4.23-3.76l4.38-3.71,1-.11.06,3.56a15.74,15.74,0,0,0-.84,10.4,26.48,26.48,0,0,0-5.09,3.08c-1,.69-1.86.71-2.56-.31C1194.18,469.17,1192.72,466.25,1194.89,462.85Z" transform="translate(-1022.45 -361.86)"/><path class="cls-12" d="M1194.89,462.85c-2.17,3.4-.71,6.32,1.23,9.15.7,1,1.54,1,2.56.31a26.48,26.48,0,0,1,5.09-3.08l.73.16.06.68c-1.18.84-2.64,1.22-3.66,2.31-1.66.7-3.34,2.73-5.12.87-1.28-1.34-3-2.72-3.16-4.78-.48-4.86.07-9.5,3.62-13.29l.27.22c.3,1.58-.9,2.54-1.52,3.75S1193.34,461.58,1194.89,462.85Z" transform="translate(-1022.45 -361.86)"/><path class="cls-12" d="M1214.58,439.5a10.66,10.66,0,0,1-4.42,4.86,5.54,5.54,0,0,0-3.68,2.05c-.76,1.42-2.62,1.32-3.51,2.56l-.49-.56c3.63-3.48,8-6,11.87-9.18Z" transform="translate(-1022.45 -361.86)"/><path class="cls-11" d="M1204.5,469.4l-.73-.16a15.73,15.73,0,0,1,.84-10.4l.88,0C1205.06,462.36,1205.87,466,1204.5,469.4Z" transform="translate(-1022.45 -361.86)"/><path class="cls-12" d="M1218.87,434.9c1.11,1,4.29,1,1.86,3.72-1.09-2.47-2.59-.73-3.8-.24-.78.32-1.36,1.16-2.35,1.12l-.23-.27Z" transform="translate(-1022.45 -361.86)"/><path class="cls-11" d="M1208,502.91l-.06.68-1.39-.15-.53.16c-2.34.77-4.66.16-7-.13-.48-.3-1.12-.38-1.38-1,2-.42,3.8.72,5.75.41.69-.11,1.47.23,2-.43C1206.37,502.27,1207.32,501.85,1208,502.91Z" transform="translate(-1022.45 -361.86)"/><path class="cls-10" d="M1203.49,455.39l-4.38,3.71C1199.75,455.88,1201.23,454.64,1203.49,455.39Z" transform="translate(-1022.45 -361.86)"/><path class="cls-8" d="M1202.48,448.41l.49.56c-1,1.85-2.73,2.91-4.45,4l-.56-.09A13.88,13.88,0,0,1,1202.48,448.41Z" transform="translate(-1022.45 -361.86)"/><path class="cls-14" d="M1200.9,472.4c1-1.09,2.48-1.48,3.66-2.31.52.63.13,1.17-.17,1.72l-1.4,1.39Z" transform="translate(-1022.45 -361.86)"/><path class="cls-12" d="M1205.48,458.86l-.88,0q0-1.78-.06-3.56c.07-.52-.16-1.26.71-1.27.65,0,.67.54.75,1C1206.24,456.37,1205.49,457.56,1205.48,458.86Z" transform="translate(-1022.45 -361.86)"/><path class="cls-13" d="M1206.48,446.41a5.54,5.54,0,0,1,3.68-2.05C1209.41,445.9,1208.37,446.91,1206.48,446.41Z" transform="translate(-1022.45 -361.86)"/><path class="cls-10" d="M1215,461.92a2.45,2.45,0,0,1,0,3.1Z" transform="translate(-1022.45 -361.86)"/><path class="cls-12" d="M1197.53,453.92c0,.7,0,1.45-1,1.5l-.27-.22a1.94,1.94,0,0,1,1.1-1.47Z" transform="translate(-1022.45 -361.86)"/><path class="cls-10" d="M1216.47,457.43l0,1-1,.06a1.11,1.11,0,0,1,.51-1.07Z" transform="translate(-1022.45 -361.86)"/><path class="cls-11" d="M1216.47,457.43l-.46,0c0-.57-.08-1.16.52-1.52Z" transform="translate(-1022.45 -361.86)"/><path class="cls-10" d="M1215.48,459.31c.31.24.4.45-.07.6Z" transform="translate(-1022.45 -361.86)"/><path class="cls-10" d="M1215,465.8l.52.63Z" transform="translate(-1022.45 -361.86)"/><path class="cls-12" d="M1198,453.42l-.49.5-.19-.19.41-.53Z" transform="translate(-1022.45 -361.86)"/><path class="cls-12" d="M1198,452.84l.56.09-.51.49-.26-.21A.85.85,0,0,1,1198,452.84Z" transform="translate(-1022.45 -361.86)"/><path class="cls-15" d="M1145.89,481.4l.72-1c1.46-1.44,2.92-2.89,4.39-4.33,1-1,2.65-1.48,3.07-3.13v0l1-.57.45-.39c2.49-1.68,5-3.3,8-3.79l1.57.39q.3,3.18.61,6.37c-1.11.81-2.11,2-3.35,2.37-2.51.83-4.36,2.53-6.37,4h0c-2-.12-3.21,1.61-4.94,2.12a13.92,13.92,0,0,0-6.59,5.85h0a1.7,1.7,0,0,0-2,1.47l0,0-.51.42c-1.6.85-2.9,1.07-3-1.37,1.18-1,2.68-1.77,3-3.51h0a.82.82,0,0,0,.53-1h0l.49-.5h0C1144.8,484.42,1145.44,483,1145.89,481.4Z" transform="translate(-1022.45 -361.86)"/><path class="cls-10" d="M1158.61,457c1.15.21,2.29.44,2.72,1.76a6.64,6.64,0,0,0-5,2.37c-.8.91-1.49,2-2.82,2.33-.81.39-1.58.8-1.55,1.87l-.06-.07-1.87.13c1.81-2.76,4.69-4.4,7-6.66C1157.59,458.23,1158.47,458,1158.61,457Z" transform="translate(-1022.45 -361.86)"/><path class="cls-11" d="M1156,481.38c2-1.52,3.86-3.22,6.37-4,1.24-.41,2.24-1.56,3.35-2.37l2.38-1.07,1.51-.59.52.54-1.09,1a5.42,5.42,0,0,0-2.78,1.18C1163,478.13,1159.89,480.54,1156,481.38Z" transform="translate(-1022.45 -361.86)"/><path class="cls-10" d="M1154.06,473c-.41,1.64-2,2.11-3.07,3.13-1.47,1.43-2.93,2.88-4.39,4.33C1147.67,476.54,1150.7,474.59,1154.06,473Z" transform="translate(-1022.45 -361.86)"/><path class="cls-11" d="M1144.45,489.36a13.92,13.92,0,0,1,6.59-5.85q0,.46,0,.92A16.17,16.17,0,0,1,1144.45,489.36Z" transform="translate(-1022.45 -361.86)"/><path class="cls-10" d="M1163.52,468.21c-3,.5-5.56,2.11-8,3.79,1-3.21,4.16-3.57,6.43-5.12C1162.23,467.58,1163.57,467,1163.52,468.21Z" transform="translate(-1022.45 -361.86)"/><path class="cls-14" d="M1163.52,468.21c.05-1.16-1.29-.63-1.61-1.33.47-1.37.84-2.79,2.12-3.69.08,1.87,1.7,3.28,1.55,5.21l-.49.19Z" transform="translate(-1022.45 -361.86)"/><path class="cls-3" d="M1151,484.42q0-.46,0-.92c1.73-.52,2.94-2.25,4.94-2.12A9.21,9.21,0,0,1,1151,484.42Z" transform="translate(-1022.45 -361.86)"/><path class="cls-7" d="M1142,486.42c-.35,1.74-1.85,2.49-3,3.51-.38-.09-1-.4-.69-.65C1139.56,488.36,1140.24,486.67,1142,486.42Z" transform="translate(-1022.45 -361.86)"/><path class="cls-7" d="M1145.89,481.4c-.44,1.59-1.08,3-2.85,3.54C1143.53,483.39,1144.11,481.92,1145.89,481.4Z" transform="translate(-1022.45 -361.86)"/><path class="cls-9" d="M1116.42,496.09l.06,1.76c-1.39.08-1.66-1.22-2.39-1.95C1115,494.56,1115.61,496.44,1116.42,496.09Z" transform="translate(-1022.45 -361.86)"/><path class="cls-11" d="M1142.43,490.84a1.7,1.7,0,0,1,2-1.47A2.16,2.16,0,0,1,1142.43,490.84Z" transform="translate(-1022.45 -361.86)"/><path class="cls-12" d="M1152,465.38c0-1.08.75-1.49,1.55-1.87A2.36,2.36,0,0,1,1152,465.38Z" transform="translate(-1022.45 -361.86)"/><path class="cls-10" d="M1122.52,493.38a1.46,1.46,0,0,1,1.59-1A1.76,1.76,0,0,1,1122.52,493.38Z" transform="translate(-1022.45 -361.86)"/><path class="cls-13" d="M1110.82,501.23l-.9,0,.89-.38A.41.41,0,0,1,1110.82,501.23Z" transform="translate(-1022.45 -361.86)"/><path class="cls-10" d="M1155,472.39l-1,.57A1.05,1.05,0,0,1,1155,472.39Z" transform="translate(-1022.45 -361.86)"/><path class="cls-12" d="M1149,489.91a1,1,0,0,1-1,.53A1,1,0,0,1,1149,489.91Z" transform="translate(-1022.45 -361.86)"/><path class="cls-7" d="M1142.53,485.44a.82.82,0,0,1-.53,1A.88.88,0,0,1,1142.53,485.44Z" transform="translate(-1022.45 -361.86)"/><path class="cls-11" d="M1142,491.3l.51-.42Z" transform="translate(-1022.45 -361.86)"/><path class="cls-7" d="M1143,484.94l-.49.5Z" transform="translate(-1022.45 -361.86)"/><path class="cls-15" d="M1085.14,457.7l-.09.11c-4.85-.81-8.48,1.72-12.07,4.39a3.06,3.06,0,0,1-3.44-.77l.05,0c.64,0,.11-2.11,1.6-.82.75.64,1.48-.33,2.14-.74,5.22-3.24,9.26-7.77,13.24-12.34l1.49-1.42c.3-.17.82-.16.6-.75a.27.27,0,0,0-.07-.36h0l.23.09.24,0c.53-.07,1.1,0,1.5-.51.86.85,1.74,1.68,1,3C1088.53,450.41,1087,454.16,1085.14,457.7Z" transform="translate(-1022.45 -361.86)"/><path class="cls-13" d="M1125.1,480.06l-.5.44Z" transform="translate(-1022.45 -361.86)"/><path class="cls-12" d="M1208.15,416.82l1.34.09c-.8,1.47-2,2.86-1,4.71-1,1.66-1,3.58-1,5.38,0,3.07,3,1.82,4.47,2.85.33.23.67.45,1,.67-2.35,0-4.6-1.05-7-.62a1.15,1.15,0,0,1-1.14-.55A97.49,97.49,0,0,0,1208.15,416.82Z" transform="translate(-1022.45 -361.86)"/><path class="cls-14" d="M1183,419.9c-.59-.8-.45-2-1.32-2.63a6.38,6.38,0,0,0-3.9-4.42c-.49-.18-1.29.09-1.23-.78a1.23,1.23,0,0,1,1.44-1c1.41.36,2.06-.74,3-1.25l.21.66c-.67.74-1,1.43-.09,2.31,2,1.95,2,4.66,2.65,7.13Z" transform="translate(-1022.45 -361.86)"/><path class="cls-10" d="M1183.77,419.88c-.62-2.48-.67-5.19-2.65-7.13-.9-.88-.57-1.57.09-2.31l.09,0c1,2.5,3,4.62,3.22,7.45-.11.69.21,1.49-.49,2A.76.76,0,0,0,1183.77,419.88Z" transform="translate(-1022.45 -361.86)"/><path class="cls-14" d="M1189,440.38c.77-1.05,2.41-1.36,2.51-3l-.24-1c.89.12,1.86.67,2.52-.47l0,.24.23.08.58.69-5.05,4Z" transform="translate(-1022.45 -361.86)"/><path class="cls-14" d="M1184.52,417.85c-.26-2.83-2.19-4.95-3.22-7.45C1184.44,412.07,1185.59,414.74,1184.52,417.85Z" transform="translate(-1022.45 -361.86)"/><path class="cls-13" d="M1183.77,419.88a.76.76,0,0,1,.26,0l1.45,1-.48.52a3.93,3.93,0,0,0-.46,2.57l-.91-.09c-.54-.79.67-2-.59-2.59l0-1.39Z" transform="translate(-1022.45 -361.86)"/><path class="cls-11" d="M1196.86,433.73a5.34,5.34,0,0,1,5.12-2.84l0,0-2,1.5,0,0-1,.5h0l-.46.41c-.27.82-.78,1-1.54.59Z" transform="translate(-1022.45 -361.86)"/><path class="cls-11" d="M1193.74,435.94c.92-.91,1.67-2.06,3.13-2.21l.13.18,0,1.48a1.53,1.53,0,0,0-1.48,1l-.39,0c-.31-.41-.66-.57-1.09-.16l-.23-.08Z" transform="translate(-1022.45 -361.86)"/><path class="cls-11" d="M1204.88,429.34a1.15,1.15,0,0,0,1.14.55,6,6,0,0,1-3,1.53,1,1,0,0,0-1.06-.5l0,0A7.53,7.53,0,0,1,1204.88,429.34Z" transform="translate(-1022.45 -361.86)"/><path class="cls-10" d="M1192.76,418.36c-.32-.09-.52-.24-.34-.48a.77.77,0,0,1,.57-.27c.1,0,.2.31.3.48Z" transform="translate(-1022.45 -361.86)"/><path class="cls-10" d="M1186,420.89a.81.81,0,0,1,1-.38c.06,0,.09.12.13.19l-1.08.23Z" transform="translate(-1022.45 -361.86)"/><path class="cls-10" d="M1190,419.42l-.54.37-.12-.19.66-.19Z" transform="translate(-1022.45 -361.86)"/><path class="cls-10" d="M1190,419.4l.53-.37.13.19-.65.2Z" transform="translate(-1022.45 -361.86)"/><path class="cls-10" d="M1185,421.41l.48-.52h.5l0,0A1,1,0,0,1,1185,421.41Z" transform="translate(-1022.45 -361.86)"/><path class="cls-15" d="M1082.23,483.22a35.62,35.62,0,0,0-10.62,6.27c-1,.91-2.42.25-3.62.5l-1.58-1.16c.34-.5,1.15-.63,1.11-1.43l0,0,.55-.69a.49.49,0,0,1,.25-.3l.73-.54,0,0,.54-.52,0,0,.54-.53,0,0,.52-.53h0a39.22,39.22,0,0,1,7.47-5.44c1.29-.17,2.11-1.22,3.22-1.69s2.36-1.28,2.94.66C1083.19,479.6,1081.66,481,1082.23,483.22Z" transform="translate(-1022.45 -361.86)"/><path class="cls-14" d="M1084.1,477.94c-.58-1.94-1.87-1.11-2.94-.66s-1.94,1.52-3.22,1.69l0-.58,3.4-2.12,3.57-.41C1084.92,476.65,1085.31,477.62,1084.1,477.94Z" transform="translate(-1022.45 -361.86)"/><path class="cls-3" d="M1203.07,431.43a6,6,0,0,0,3-1.53c2.38-.43,4.63.67,7,.62a2.1,2.1,0,0,1,2,1.46l.18,1.5-1.21,2.44-2.44,1.52c-.67,0-1,.31-1,1h0a.92.92,0,0,0-1,.51h0l-.51.5h0c-.42,0-.81.06-1,.51h0a.88.88,0,0,0-1,.49h0l-.49.49h0l-.51.5h0c-1.26,0-2.58-.15-3,1.51h0c-.64,0-1,.28-1,.94a6.8,6.8,0,0,0-3,4.16l-1.56,1.34a4,4,0,0,0-.48.07,1.42,1.42,0,0,0-1.06,1.37l-.59.41-.52.49a3.78,3.78,0,0,0-2.39,3.09c-1.14.23-1.42,1.25-1.9,2.08-.76.52-1.61,1.1-1.75,2-.5,3.09-2,5.92-2.26,9.06-.59,3-2.83,2.72-5,2.51a1.9,1.9,0,0,1-1-1.42c-.08-2-.58-3.75-2.64-4.6l-.36-.88a3.41,3.41,0,0,0-1.6-3.13,3.59,3.59,0,0,1-.8-2.53c.67-.61.21-.85-.35-1.05q0-.69-.08-1.39c1.31-.85,1.29-1.71,0-2.6a3.1,3.1,0,0,0-.24-.38,1.55,1.55,0,0,1,1.24-1,10.32,10.32,0,0,0,5.37-2.54c.87.62,1.26-.29,1.84-.59a6.33,6.33,0,0,0,6.4-1.21c-1.71-.61-3.3.75-4.92.19.19-.86.88-1.6.65-2.57a.52.52,0,0,1,.24-.31c.37,0,.66-.11.74-.52h0a1.92,1.92,0,0,0,2-2h0c.33,0,.49-.15.48-.48v0a.87.87,0,0,0,1.05-.4l5.05-4,.51-.53.39,0c1.15.83,2.6.31,3.83.86.48.21,1,.06,1.07-.62,0-.49-.41-.64-.85-.71-.87-.14-1.85.29-2.57-.54l0-1.48c.75.44,1.26.23,1.54-.58l.46-.41h0c.42,0,.82,0,1-.5l0,0A3.8,3.8,0,0,0,1203.07,431.43Z" transform="translate(-1022.45 -361.86)"/><path class="cls-11" d="M1177.82,464.43c2.06.86,2.56,2.61,2.64,4.6A7.79,7.79,0,0,1,1177.82,464.43Z" transform="translate(-1022.45 -361.86)"/><path class="cls-12" d="M1169.58,473.3l-1.51.59-.25-1.82.3-.3A2,2,0,0,1,1169.58,473.3Z" transform="translate(-1022.45 -361.86)"/><path class="cls-12" d="M1174.67,452.86c1.25.88,1.27,1.75,0,2.6Q1174.65,454.16,1174.67,452.86Z" transform="translate(-1022.45 -361.86)"/><path class="cls-11" d="M1175.86,460.42a3.41,3.41,0,0,1,1.6,3.13A4.56,4.56,0,0,1,1175.86,460.42Z" transform="translate(-1022.45 -361.86)"/><path class="cls-12" d="M1174.71,456.84c.56.2,1,.44.35,1.05A.74.74,0,0,1,1174.71,456.84Z" transform="translate(-1022.45 -361.86)"/><path class="cls-9" d="M1131,474.93c-.35.44-1.08.64-1.17.18-.3-1.45-1.2-3.09.65-4.24C1131.45,472.11,1130.75,473.58,1131,474.93Z" transform="translate(-1022.45 -361.86)"/><path class="cls-7" d="M1144.06,459.4l.45-.36Z" transform="translate(-1022.45 -361.86)"/><path class="cls-7" d="M1143,460.39l.46-.44Z" transform="translate(-1022.45 -361.86)"/><path class="cls-7" d="M1142.19,460.91l.05-.22.21,0A.44.44,0,0,1,1142.19,460.91Z" transform="translate(-1022.45 -361.86)"/><path class="cls-7" d="M1143.54,459.91l.45-.44Z" transform="translate(-1022.45 -361.86)"/><path class="cls-9" d="M1068.49,490.92a2.18,2.18,0,0,1-.53,2l-1,.49a1,1,0,0,0-1,.56h0c-1.87-.23-3.11.84-4.32,2a23.48,23.48,0,0,1-6.94,5.2c.81-2,3.12-2.56,3.88-4.54a54.49,54.49,0,0,0-9.82,7.87c-1.48,1.38-3.69,2.08-4.33,4.3-1.64.36-1.53-.83-1.62-1.84a3.59,3.59,0,0,0,2.44-1c4.88-3.64,8.85-8.39,14.23-11.45,1.88-1.07,4.21-1.37,5.86-3.1-1.52-1.07-2.44,0-3.46.6-3,1.67-5.6,4.29-9.43,4l-.46-.53.91-.63a7.39,7.39,0,0,0,4.23-1.26c2.82-1.53,5.59-3.14,8.39-4.72l.4,0c-.39,2.21,1.65,1.43,2.54,2.06Z" transform="translate(-1022.45 -361.86)"/><path class="cls-10" d="M1078,478.39l0,.58a39.23,39.23,0,0,0-7.47,5.44v-.87c1.53-2.52,3.91-3.95,6.52-5.08Z" transform="translate(-1022.45 -361.86)"/><path class="cls-14" d="M1070.47,483.53v.87h0l-.52.53,0,0-.54.53,0,0-.54.52,0,0-.73.54a.49.49,0,0,0-.25.3l-.55.69,0,0a1.55,1.55,0,0,0-1.58,1.46h0l-.4,0C1066.05,486,1068.62,485.1,1070.47,483.53Z" transform="translate(-1022.45 -361.86)"/><path class="cls-12" d="M1078,478.39l-1,.06a6.31,6.31,0,0,1,4.64-3l-.26.83Z" transform="translate(-1022.45 -361.86)"/><path class="cls-10" d="M1062.92,484.8l.36.52c-.51.12-.24-.34-.37-.5Z" transform="translate(-1022.45 -361.86)"/><path class="cls-10" d="M1061.94,486.33l.24.26c-.06,0-.13,0-.16,0a.74.74,0,0,1-.09-.21Z" transform="translate(-1022.45 -361.86)"/><path class="cls-12" d="M1242,394.94c-1.12,0-2.16.13-2.5,1.47l-2,.52.05-.09c0-.94-.46-2.14.67-2.64A3.08,3.08,0,0,1,1242,394.94Z" transform="translate(-1022.45 -361.86)"/><path class="cls-11" d="M1242.45,395.43,1242,395l.64.11Z" transform="translate(-1022.45 -361.86)"/><path class="cls-12" d="M1243.44,392.39l.55.51Z" transform="translate(-1022.45 -361.86)"/><path class="cls-4" d="M1038.54,471.88l2.89-1.86c5.3-.13,10.41-2,15.76-1.79a69.63,69.63,0,0,1-16.65,4.33A1.91,1.91,0,0,1,1038.54,471.88Z" transform="translate(-1022.45 -361.86)"/><path class="cls-4" d="M1055.47,465.37c1.2-1.22,2.89-1.21,4.37-1.59a40.33,40.33,0,0,0,6.6-2.85c.76-.35,1.71-1.18,2.07.46-.41,1-1.44,1.09-2.27,1.34C1062.7,463.79,1059.29,465.43,1055.47,465.37Z" transform="translate(-1022.45 -361.86)"/><path class="cls-11" d="M1069.54,461.43a3.06,3.06,0,0,0,3.44.77l-.55,1.64a5.7,5.7,0,0,0-3.4,1.09l0-.54c.52-.35.46-.67-.06-1v0l0-.5V461.4Z" transform="translate(-1022.45 -361.86)"/><path class="cls-4" d="M1066,466.89c-.18.51-.6.52-1,.49A1.13,1.13,0,0,1,1066,466.89Z" transform="translate(-1022.45 -361.86)"/><path class="cls-10" d="M1069,463.42c.51.29.57.62.06,1Z" transform="translate(-1022.45 -361.86)"/><path class="cls-10" d="M1069,462.94l0,.5C1068.33,463.25,1068.69,463.1,1069,462.94Z" transform="translate(-1022.45 -361.86)"/><path class="cls-4" d="M1044.48,508.8c.64-2.22,2.86-2.92,4.33-4.3a54.49,54.49,0,0,1,9.82-7.87c-.76,2-3.07,2.57-3.88,4.54a23.48,23.48,0,0,0,6.94-5.2c1.21-1.21,2.45-2.28,4.32-2-3.93,3.63-7.8,7.31-11.81,10.86-1.9,1.69-4.09,3.07-5.67,5.1a2,2,0,0,1-2.1.92c0-1,.66-1.52,1.4-2.14a18.6,18.6,0,0,0,4.88-5.55c-3,1.34-4.25,4.7-7.34,5.84Z" transform="translate(-1022.45 -361.86)"/><path class="cls-4" d="M1052.49,496c3.83.3,6.43-2.32,9.43-4,1-.57,1.94-1.67,3.46-.6-1.65,1.74-4,2-5.86,3.1-5.39,3.05-9.35,7.81-14.23,11.45a3.59,3.59,0,0,1-2.44,1c-.61.64-1.21-.11-1.81,0-1.65-1,0-1.4.41-1.66,3.05-2.23,6.18-4.36,9.28-6.54.84-.59,2-1,1.77-2.4A3.81,3.81,0,0,1,1052.49,496Z" transform="translate(-1022.45 -361.86)"/><path class="cls-9" d="M1045.4,509c3.08-1.13,4.37-4.5,7.34-5.84a18.6,18.6,0,0,1-4.88,5.55c-.74.62-1.41,1.11-1.4,2.14C1045.11,510.75,1045.06,510,1045.4,509Z" transform="translate(-1022.45 -361.86)"/><path class="cls-4" d="M1066,493.93a1,1,0,0,1,1-.56A1,1,0,0,1,1066,493.93Z" transform="translate(-1022.45 -361.86)"/><path class="cls-8" d="M1219.9,409.78c-1.48-.93-3.5-1.51-2.69-4,.52-.78.43-1.88,1.35-2.43l6-.1c1.47.35,3.08-.28,4.47.64.38,2.16-1.92,1.07-2.5,2.07-.31.93-.92,1.8-.68,2.86.54,2.41-.67,3.57-2.86,4Z" transform="translate(-1022.45 -361.86)"/><path class="cls-6" d="M1229.06,403.89c-1.39-.92-3-.29-4.47-.64-.08-.42-.26-.74-.76-.71-1.61-.33-3.3.14-4.88-.53-.55-.23-1.57.12-1.52-.83a2,2,0,0,1,1.61-1.71c3.63-.73,7.21-.06,10.76.65,1,.2,1.27,1.2,1.1,2.21l.07,0c-.4,0-.51.22-.56.53C1230,403.31,1229.78,403.93,1229.06,403.89Z" transform="translate(-1022.45 -361.86)"/><path class="cls-5" d="M1237.5,396.93l2-.52.72.77,1.28,3.35a12.12,12.12,0,0,0-6.48-.61l-1.48,0c-.55,0-1.05-.15-1-.76s.5-.82,1-.86C1235,398.23,1236.54,398.41,1237.5,396.93Z" transform="translate(-1022.45 -361.86)"/><path class="cls-3" d="M1229.06,403.89c.72,0,1-.58,1.36-1l.56-.53-.07,0,1,.06c.71.87,1.42.16,2.14,0q0,.52,0,1l-1,1c-.59,0-1.21-.08-1.56.58-.9.36-.93,1.17-1,2h-.53c-1.07-.52-2.07-1.3-3.39-1C1227.14,405,1229.44,406,1229.06,403.89Z" transform="translate(-1022.45 -361.86)"/><path class="cls-15" d="M1234,402.4c-.71.17-1.42.87-2.14,0a5.15,5.15,0,0,1,3-1.91c1.74,0,3.51-.07,5,1C1238.12,402.53,1235.89,401.2,1234,402.4Z" transform="translate(-1022.45 -361.86)"/><path class="cls-4" d="M1240,401.49c-1.54-1.06-3.3-1-5-1l.09-.57a12.12,12.12,0,0,1,6.48.61l-.07.88Z" transform="translate(-1022.45 -361.86)"/><path class="cls-12" d="M1223.84,402.54c.5,0,.68.29.76.71l-6,.1C1220.18,402.22,1222.18,403.52,1223.84,402.54Z" transform="translate(-1022.45 -361.86)"/><path class="cls-16" d="M1197.45,449.37,1199,448a118.91,118.91,0,0,1,16.18-11.11,1,1,0,0,0,.3-1.64l1-1.26a1.25,1.25,0,0,0,.44-.12c.81.14,1.37-.08,1.46-1a4.87,4.87,0,0,0,.17-3.53,1.16,1.16,0,0,0,1.07-1.39c-.19-2.35-.41-4.67-2.49-6.26l-.93-.68-.47-.38-.55-.47-.62-.4-1.94-1.5-.54-.52c-.1-.48-1.12-.81-.25-1.46l1.3.54.55.37,1,.59c.4.18.75.67,1.25.18v-.06c.85,1.61,3,2,3.65,3.79.1.27.49.71.89.16h0c-.58.71-.29,1,.51,1l0,0c-.68.72,0,1.37.13,2,.29,1.47.64,3.19-.2,4.29-1.13,1.48-1.14,3.07-1.46,4.67l-.6,1-4.52,4.34c-3.83,3.23-8.24,5.7-11.87,9.18a13.88,13.88,0,0,0-4.52,4.43.84.84,0,0,0-.21.36l-.42.53a1.94,1.94,0,0,0-1.1,1.47c-3.55,3.79-4.09,8.42-3.62,13.29.2,2.06,1.88,3.44,3.16,4.78,1.77,1.86,3.46-.17,5.12-.87l2.08.8a1.23,1.23,0,0,0-.51,1.18c-1.62,0-2.82.95-4.09,1.76-1.36.54-2.32-.47-3.35-1a5.59,5.59,0,0,0-2.46-.86c-2-1.62-2.38-4-3-6.27l.15-.5a.46.46,0,0,0,0-.72q0-1.14.06-2.27a3.27,3.27,0,0,0,.25-2.08c.86-2.94,2.57-5.44,4.14-8,.37-.24.66-.52.4-1h0c.42.09.57-.08.49-.49h0c1.24-.11,1.59-.88,1.49-2h0c.42.08.58-.09.49-.5h0C1197.61,450.25,1197.46,449.78,1197.45,449.37Z" transform="translate(-1022.45 -361.86)"/><path class="cls-1" d="M1208.52,421.61c-1-1.85.17-3.24,1-4.71l2.23,1.84.06,0,.41.71a2.86,2.86,0,0,0-.85,1.81Z" transform="translate(-1022.45 -361.86)"/><path class="cls-12" d="M1212.13,417.77l.54.52-.89.42-.06,0Z" transform="translate(-1022.45 -361.86)"/><path class="cls-4" d="M1088.06,446.08l-1.49,1.42c-1-1.66.46-1.72,1.4-2.12l.06.07Z" transform="translate(-1022.45 -361.86)"/><path class="cls-4" d="M1089,445l-.24,0-.23-.09C1088.77,444.43,1088.9,444.73,1089,445Z" transform="translate(-1022.45 -361.86)"/><path class="cls-4" d="M1088.59,445a.27.27,0,0,1,.07.36l-.62.12-.06-.07Z" transform="translate(-1022.45 -361.86)"/><path class="cls-1" d="M1239.94,426.71a2.16,2.16,0,0,0-1.11,2.06,4.74,4.74,0,0,1-6.11,2.24l-3.26-1c-1-1.28-2.08-2.5-4-1.51l-.94-2.88c1.23-3.33,4.2-5.06,6.69-7.23a1.85,1.85,0,0,1,2.32-.1.26.26,0,0,0,.21.17,2.41,2.41,0,0,0,2.2,1h0l.5.49h0a2.55,2.55,0,0,0,2,1l2,0c1,1.31-.16,2.64,0,4Z" transform="translate(-1022.45 -361.86)"/><path class="cls-16" d="M1225.49,428.47c1.89-1,2.94.23,4,1.51.41,1.9,1.88,2.36,3.5,2.41,2.38.08,4.87.26,6-2.57a3,3,0,0,1,2.21-.4c-1.39,4-4.65,5.51-8.64,4.41-2.27-.62-4.09-2.25-6.45-2.55C1226.09,430.3,1224.9,429.58,1225.49,428.47Z" transform="translate(-1022.45 -361.86)"/><path class="cls-10" d="M1233.56,418.26a1.85,1.85,0,0,0-2.32.1c-2.49,2.16-5.46,3.89-6.69,7.23-.83-.67-1.43-.2-2,.41-.56-.44-.5-1.06-.48-1.67a2,2,0,0,0,1.81-.64c1.82-2.63,4.5-4.32,6.81-6.42C1232.41,415.71,1232.84,415.8,1233.56,418.26Z" transform="translate(-1022.45 -361.86)"/><path class="cls-12" d="M1222.07,424.33c0,.61-.08,1.23.48,1.67a11,11,0,0,1-1.67,7.06,1.48,1.48,0,0,1-1.41.81c.32-1.6.34-3.19,1.46-4.67.84-1.1.49-2.82.2-4.29-.13-.66-.82-1.31-.13-2C1221.83,423,1221.6,423.93,1222.07,424.33Z" transform="translate(-1022.45 -361.86)"/><path class="cls-9" d="M1037,474.88l.48-.48Z" transform="translate(-1022.45 -361.86)"/><path class="cls-7" d="M1047.42,498.33a5.89,5.89,0,0,1,3.08-1.92C1050.17,498.17,1048.88,498.39,1047.42,498.33Z" transform="translate(-1022.45 -361.86)"/><path class="cls-7" d="M1052.49,496a3.81,3.81,0,0,0,0,.39l-2,.06a1.4,1.4,0,0,1,1.53-1Z" transform="translate(-1022.45 -361.86)"/><path class="cls-5" d="M1222.07,424.33c-.48-.4-.24-1.32-1.07-1.45l0,0c.08-.46.14-.92-.51-1h0c.25-1.69-1.2-2.43-2-3.55-.71-1.37.4-2,1.12-2.84s1.26-1.27,1.9-1.91a1.94,1.94,0,0,0,1.46-.72c2.19-.48,3.4-1.64,2.86-4-.24-1.06.37-1.92.68-2.86,1.32-.31,2.31.47,3.39,1,0,.43.06.83.55,1l0,0a.9.9,0,0,0,1,1l.87.44c1.27,1.88,3.16,1.1,4.78.94s3.48-.27,5.2-.48,2.09.26,2.18,1.73c.07,1.15.32,2.28.49,3.42-1.08.07-1.85,1.14-3,.95-.9-.67-1.94-.82-2.6.12-.85,1.21.53,1.51,1.18,1.92,1.72,1.1.59,2-.07,3l-2,0c-.18-1.33-1.18-1-2-1h0l-.5-.49h0c-.42-1-1.28-1.08-2.2-1a.26.26,0,0,1-.21-.17c-.73-2.46-1.16-2.56-2.88-1-2.31,2.1-5,3.79-6.81,6.42A2,2,0,0,1,1222.07,424.33Z" transform="translate(-1022.45 -361.86)"/><path class="cls-2" d="M1233,404.42l1-1c.82-.14,1.73-.84,2.32.43a1.12,1.12,0,0,0,.81.29c2.12-3.16,1.61.28,2.17.88.36.38.39,1.3,1.15,1s.36-1,.07-1.49c-.62-1.09-.48-1.71.92-1.65,1.87.59,1.15,2.25,1.35,3.47.13.77-.5.77-1.17.71-1.21-.12-2.44-.09-3.66-.12-.6-.75-1.29-.46-2-.22C1233.88,407.38,1233,406.52,1233,404.42Z" transform="translate(-1022.45 -361.86)"/><path class="cls-15" d="M1232.36,409.31l-.87-.44a1.42,1.42,0,0,0-1-1l0,0,0-1c.06-.79.09-1.59,1-2,0,2,1.29,2.76,3.05,2.89,1.16.09,2.32,0,3.49,0l0,0c.39.84,1.54.16,1.94,1A27.8,27.8,0,0,1,1232.36,409.31Z" transform="translate(-1022.45 -361.86)"/><path class="cls-11" d="M1241.45,402.86c-1.4-.06-1.54.57-.92,1.65.29.5.65,1.17-.07,1.49s-.79-.58-1.15-1c-.56-.6-.06-4-2.17-.88a1.12,1.12,0,0,1-.81-.29c-.59-1.27-1.5-.57-2.32-.43q0-.52,0-1c1.84-1.2,4.07.13,5.93-.91l1.46-.08Q1241.45,402.14,1241.45,402.86Z" transform="translate(-1022.45 -361.86)"/><path class="cls-11" d="M1238,407.9c-1.16,0-2.33.07-3.49,0-1.76-.13-3-.9-3.05-2.89.35-.66,1-.57,1.56-.58-.07,2.1.85,3,2.92,2.28.74-.24,1.42-.53,2,.22Z" transform="translate(-1022.45 -361.86)"/><path class="cls-7" d="M1239.91,408.91c-.39-.82-1.55-.14-1.94-1h5.43C1242,409.3,1240.89,408.86,1239.91,408.91Z" transform="translate(-1022.45 -361.86)"/><path class="cls-14" d="M1186.49,467.95c.24-3.14,1.76-6,2.26-9.06.15-.9,1-1.48,1.75-2l.55.58a13.06,13.06,0,0,0-1.81,4.74l-.89,5.17Z" transform="translate(-1022.45 -361.86)"/><path class="cls-12" d="M1188.35,467.39l.89-5.17.25.19.25,2.12q0,1.14-.06,2.27,0,.36,0,.72l-.15.5Z" transform="translate(-1022.45 -361.86)"/><path class="cls-12" d="M1223,412.86a1.94,1.94,0,0,1-1.46.72c-.73-.44-.77-1.43-1.79-1.8s-1.46-1.42.13-2Z" transform="translate(-1022.45 -361.86)"/><path class="cls-12" d="M1218.54,418.34c.78,1.12,2.23,1.86,2,3.55-.41.55-.8.11-.89-.16-.65-1.83-2.8-2.18-3.65-3.79C1216.92,417.53,1217.65,418.43,1218.54,418.34Z" transform="translate(-1022.45 -361.86)"/><path class="cls-5" d="M1206.56,503.44l1.39.15-1.25,4.82c-1.05.87-.53,2.84-2.26,3.24l-1.42-.24-.24-.51c-1.22-1.4-1.77-.06-2.45.62s-1.08,2.08-2.53,1.95c.33-1.26.68-2.49-1-3.22-.49-.22-.26-.87-.32-1.33.86-1.8.95-4,2.52-5.43,2.32.29,4.64.9,7,.13Z" transform="translate(-1022.45 -361.86)"/><path class="cls-12" d="M1202.49,513c-1.27,2.19-2.47,4.44-5,5.55q0-.48,0-1l.5-.62h0c.44-.2.7-.49.51-1h0c.4.06.54-.14.51-.51h0c.38,0,.5-.17.51-.51h0c.33,0,.48-.2.51-.51h0a.74.74,0,0,0,.51-1h0c.37,0,.51-.17.51-.51h1.46Z" transform="translate(-1022.45 -361.86)"/><path class="cls-13" d="M1202.49,513H1201a2.17,2.17,0,0,1,1.74-2.06l.24.51,0,1Z" transform="translate(-1022.45 -361.86)"/><path class="cls-5" d="M1196.75,514.92l.39-.88c.41-.08.92-.14.71.47C1197.74,514.82,1197.44,515.68,1196.75,514.92Z" transform="translate(-1022.45 -361.86)"/><path class="cls-13" d="M1200.53,513.43a.74.74,0,0,1-.51,1C1200,514,1200,513.59,1200.53,513.43Z" transform="translate(-1022.45 -361.86)"/><path class="cls-13" d="M1198.53,515.92c.2.52-.07.81-.51,1A.9.9,0,0,1,1198.53,515.92Z" transform="translate(-1022.45 -361.86)"/><path class="cls-13" d="M1201,512.93c0,.34-.14.53-.51.51Z" transform="translate(-1022.45 -361.86)"/><path class="cls-13" d="M1200,514.43c0,.31-.18.5-.51.51Z" transform="translate(-1022.45 -361.86)"/><path class="cls-13" d="M1199.53,514.93c0,.33-.13.55-.51.51Z" transform="translate(-1022.45 -361.86)"/><path class="cls-13" d="M1199,515.43c0,.37-.11.57-.51.51Z" transform="translate(-1022.45 -361.86)"/><path class="cls-13" d="M1198,516.92l-.5.62Z" transform="translate(-1022.45 -361.86)"/><path class="cls-16" d="M1245.36,418.89l.58-.16c.92.78,2,.58,3.09.62s2.16,0,2,1.51c-.16,1.27-.47,2.58-2.14,2.53-1.48,0-2.94-.28-4.42-.43A6.8,6.8,0,0,1,1245.36,418.89Z" transform="translate(-1022.45 -361.86)"/><path class="cls-11" d="M1068.49,490.92c-.89-.63-2.93.15-2.54-2.06h.21l.24,0L1068,490Z" transform="translate(-1022.45 -361.86)"/><path class="cls-10" d="M1203.05,512.37l0-1,1.42.24-.47.81Z" transform="translate(-1022.45 -361.86)"/><path class="cls-8" d="M1245.53,396.89a.82.82,0,0,1,.36,1c0,.06-.12.09-.18.14l-.25-1.08Z" transform="translate(-1022.45 -361.86)"/><path class="cls-10" d="M1240.5,420.91c.66-1,1.79-1.9.07-3-.65-.42-2-.72-1.18-1.92.66-.94,1.69-.79,2.6-.12.51.65,1.28,1.1,1.51,2-.58.67-1.32,1.26-1,2.31-.93,1.46.07,3.74-2,4.74C1240.34,423.55,1241.55,422.22,1240.5,420.91Z" transform="translate(-1022.45 -361.86)"/><path class="cls-16" d="M1240.53,424.87c2-1,1-3.27,2-4.74,1.4-.15.91.79.81,1.45-.21,1.45-.47,2.89-.71,4.34a4.61,4.61,0,0,1-.39.89c-.37.52-.73,1.34-1.2,1.42-1,.17-.23-1.32-1.08-1.52Z" transform="translate(-1022.45 -361.86)"/><path class="cls-10" d="M1239,429.82c-1.16,2.83-3.65,2.66-6,2.57-1.62-.06-3.09-.51-3.5-2.41l3.26,1a4.74,4.74,0,0,0,6.11-2.24Z" transform="translate(-1022.45 -361.86)"/><path class="cls-2" d="M1167.82,472.08l.25,1.82-2.38,1.07-.61-6.37.49-.19C1166.53,469.51,1166.52,471.19,1167.82,472.08Z" transform="translate(-1022.45 -361.86)"/><path class="cls-2" d="M1185,444.73c.24,1-.45,1.71-.64,2.57l-1.49,1c-.58.3-1,1.2-1.84.59C1182.07,447.24,1183.73,446.16,1185,444.73Z" transform="translate(-1022.45 -361.86)"/><path class="cls-2" d="M1188,441.9a1.92,1.92,0,0,1-2,2l.17-.86C1186.82,442.75,1186.95,441.6,1188,441.9Z" transform="translate(-1022.45 -361.86)"/><path class="cls-2" d="M1186,443.89c-.08.41-.37.53-.74.52Z" transform="translate(-1022.45 -361.86)"/><path class="cls-2" d="M1189.54,441a.87.87,0,0,1-1.05.4c-.37-.58.13-.75.47-1Z" transform="translate(-1022.45 -361.86)"/><path class="cls-2" d="M1188.47,441.4c0,.33-.15.49-.48.48C1187.86,441.43,1188,441.23,1188.47,441.4Z" transform="translate(-1022.45 -361.86)"/><path class="cls-10" d="M1206.56,503.44l-.53.16Z" transform="translate(-1022.45 -361.86)"/><path class="cls-7" d="M1088,445.45l.62-.12c.22.58-.3.58-.6.75Z" transform="translate(-1022.45 -361.86)"/><path class="cls-6" d="M1208.52,421.61l2.82-.39,4.83,2.09c.82,2-.23,4.55,2,6.08a1.77,1.77,0,0,0-.11.45c-.51,0-1,.09-1,.78l.49,1.46A3.81,3.81,0,0,1,1215,432a2.1,2.1,0,0,0-2-1.46c-.34-.22-.68-.44-1-.67-1.46-1-4.51.22-4.47-2.85C1207.55,425.19,1207.49,423.27,1208.52,421.61Z" transform="translate(-1022.45 -361.86)"/><path class="cls-2" d="M1195.1,436.43l-.51.53-.58-.69C1194.44,435.86,1194.79,436,1195.1,436.43Z" transform="translate(-1022.45 -361.86)"/><path class="cls-2" d="M1203.07,431.43a3.8,3.8,0,0,1-3.08,1l2-1.5A1,1,0,0,1,1203.07,431.43Z" transform="translate(-1022.45 -361.86)"/><path class="cls-2" d="M1200,432.41c-.19.47-.59.5-1,.5Z" transform="translate(-1022.45 -361.86)"/><path class="cls-2" d="M1199,432.92l-.46.41Z" transform="translate(-1022.45 -361.86)"/><path class="cls-12" d="M1197,435.39c.72.83,1.71.41,2.57.54.44.07.87.22.85.71,0,.68-.59.83-1.07.62-1.23-.55-2.68,0-3.83-.86A1.53,1.53,0,0,1,1197,435.39Z" transform="translate(-1022.45 -361.86)"/><path class="cls-7" d="M1066.4,488.82l-.24,0h-.24a1.55,1.55,0,0,1,1.58-1.46C1067.55,488.18,1066.73,488.32,1066.4,488.82Z" transform="translate(-1022.45 -361.86)"/><path class="cls-7" d="M1067.48,487.42l.55-.69Z" transform="translate(-1022.45 -361.86)"/><path class="cls-7" d="M1070,484.93l.52-.53Z" transform="translate(-1022.45 -361.86)"/><path class="cls-7" d="M1069.49,485.43l.54-.53Z" transform="translate(-1022.45 -361.86)"/><path class="cls-7" d="M1069,485.92l.54-.52Z" transform="translate(-1022.45 -361.86)"/><path class="cls-7" d="M1068.28,486.43l.73-.54Z" transform="translate(-1022.45 -361.86)"/><path class="cls-12" d="M1215.49,435.28a1,1,0,0,1-.29,1.64A118.91,118.91,0,0,0,1199,448a6.8,6.8,0,0,1,3-4.16,1.52,1.52,0,0,0,1-.94h0c.95-.6,2.25-.51,3-1.51h0l.51-.5h0l.49-.49h0a.88.88,0,0,0,1-.49h0a1.07,1.07,0,0,0,1-.51h0l.51-.5h0a1,1,0,0,0,1-.51h0a1,1,0,0,0,1-1l2.44-1.52C1214.61,436,1215,435.58,1215.49,435.28Z" transform="translate(-1022.45 -361.86)"/><path class="cls-12" d="M1182.87,448.32l1.49-1c1.62.57,3.2-.79,4.92-.19A6.33,6.33,0,0,1,1182.87,448.32Z" transform="translate(-1022.45 -361.86)"/><path class="cls-13" d="M1215,432a3.8,3.8,0,0,0,2.48.12l.16.77-.67,1a1.23,1.23,0,0,1-.44.12c-.23-.72-.81-.58-1.35-.54Z" transform="translate(-1022.45 -361.86)"/><path class="cls-13" d="M1192.4,454.81a3.78,3.78,0,0,1,2.4-3.09l.34.3-.11.9h0a.46.46,0,0,0-.49.49h0l-.52.31-1.4,1.25Z" transform="translate(-1022.45 -361.86)"/><path class="cls-14" d="M1215.19,433.47c.54,0,1.11-.18,1.35.54l-1,1.26c-.46.31-.88.72-1.5.63Z" transform="translate(-1022.45 -361.86)"/><path class="cls-13" d="M1191,457.47l-.55-.58c.48-.83.77-1.85,1.9-2.08l.19.18A7,7,0,0,1,1191,457.47Z" transform="translate(-1022.45 -361.86)"/><path class="cls-11" d="M1206,441.42c-.75,1-2.05.9-3,1.51C1203.44,441.27,1204.76,441.41,1206,441.42Z" transform="translate(-1022.45 -361.86)"/><path class="cls-11" d="M1211.54,437.42a1,1,0,0,1-1,1C1210.5,437.73,1210.87,437.43,1211.54,437.42Z" transform="translate(-1022.45 -361.86)"/><path class="cls-13" d="M1195.91,450.81a1.42,1.42,0,0,1,1.06-1.37l0,1h0l-.49.5H1196Z" transform="translate(-1022.45 -361.86)"/><path class="cls-11" d="M1203,442.93a1.52,1.52,0,0,1-1,.94C1202,443.21,1202.38,442.92,1203,442.93Z" transform="translate(-1022.45 -361.86)"/><path class="cls-11" d="M1208,439.93a.88.88,0,0,1-1,.49A.88.88,0,0,1,1208,439.93Z" transform="translate(-1022.45 -361.86)"/><path class="cls-8" d="M1197,450.42l0-1a4,4,0,0,1,.48-.07C1197.46,449.78,1197.61,450.25,1197,450.42Z" transform="translate(-1022.45 -361.86)"/><path class="cls-11" d="M1209,439.42a1.07,1.07,0,0,1-1,.51C1208.21,439.47,1208.6,439.41,1209,439.42Z" transform="translate(-1022.45 -361.86)"/><path class="cls-11" d="M1210.52,438.42a1,1,0,0,1-1,.51A.92.92,0,0,1,1210.52,438.42Z" transform="translate(-1022.45 -361.86)"/><path class="cls-11" d="M1209.51,438.92l-.51.5Z" transform="translate(-1022.45 -361.86)"/><path class="cls-11" d="M1206.51,440.93l-.51.5Z" transform="translate(-1022.45 -361.86)"/><path class="cls-11" d="M1207,440.43l-.49.49Z" transform="translate(-1022.45 -361.86)"/><path class="cls-13" d="M1194.8,451.72l.52-.49.25.25-.44.54Z" transform="translate(-1022.45 -361.86)"/><path class="cls-13" d="M1195.32,451.23l.59-.41.1.11-.44.55Z" transform="translate(-1022.45 -361.86)"/><path class="cls-11" d="M1231,402.37l-.56.53C1230.48,402.59,1230.58,402.32,1231,402.37Z" transform="translate(-1022.45 -361.86)"/><path class="cls-10" d="M1230.48,407l0,1c-.49-.16-.54-.56-.55-1Z" transform="translate(-1022.45 -361.86)"/><path class="cls-12" d="M1218.12,429.4c-2.18-1.54-1.13-4.11-2-6.08.86-.09.85-.68.75-1.32l.27-.28c2.08,1.59,2.3,3.91,2.49,6.26a1.16,1.16,0,0,1-1.07,1.39A1.73,1.73,0,0,1,1218.12,429.4Z" transform="translate(-1022.45 -361.86)"/><path class="cls-12" d="M1191,457.47a7,7,0,0,0,1.54-2.49l1.4-1.25.13.7c-1.57,2.57-3.28,5.07-4.14,8l-.49,0-.25-.19A13,13,0,0,1,1191,457.47Z" transform="translate(-1022.45 -361.86)"/><path class="cls-9" d="M1218.12,429.4a1.73,1.73,0,0,0,.48,0,4.86,4.86,0,0,1-.17,3.53l-.79,0-.16-.77-.49-1.46c.45-.12.88-.25,1-.78A1.77,1.77,0,0,1,1218.12,429.4Z" transform="translate(-1022.45 -361.86)"/><path class="cls-8" d="M1195.57,451.48l.44-.55h.5c.1,1.11-.26,1.88-1.49,2l.11-.9Z" transform="translate(-1022.45 -361.86)"/><path class="cls-6" d="M1211.78,418.7l.89-.42,1.94,1.5-.13.08-2.29-.45Z" transform="translate(-1022.45 -361.86)"/><path class="cls-8" d="M1189.5,462.41l.49,0a3.27,3.27,0,0,1-.25,2.08Z" transform="translate(-1022.45 -361.86)"/><path class="cls-12" d="M1217.65,432.86l.79,0c-.09.91-.65,1.14-1.46,1Z" transform="translate(-1022.45 -361.86)"/><path class="cls-8" d="M1194.12,454.44l-.13-.7.52-.31C1194.78,453.92,1194.49,454.2,1194.12,454.44Z" transform="translate(-1022.45 -361.86)"/><path class="cls-12" d="M1220.52,421.89c.65.1.58.55.51,1C1220.23,422.88,1219.95,422.6,1220.52,421.89Z" transform="translate(-1022.45 -361.86)"/><path class="cls-12" d="M1216.25,421l.93.68-.27.28-1-.52Z" transform="translate(-1022.45 -361.86)"/><path class="cls-8" d="M1196.52,450.92l.49-.5C1197.1,450.83,1196.94,451,1196.52,450.92Z" transform="translate(-1022.45 -361.86)"/><path class="cls-8" d="M1189.69,467.52q0-.36,0-.72A.46.46,0,0,1,1189.69,467.52Z" transform="translate(-1022.45 -361.86)"/><path class="cls-12" d="M1214.61,419.79l.62.4-.3.29-.45-.61Z" transform="translate(-1022.45 -361.86)"/><path class="cls-12" d="M1215.23,420.19l.55.47a4.47,4.47,0,0,0-.36.33l-.49-.51Z" transform="translate(-1022.45 -361.86)"/><path class="cls-12" d="M1215.78,420.66l.47.38-.31.44-.52-.49A4.47,4.47,0,0,1,1215.78,420.66Z" transform="translate(-1022.45 -361.86)"/><path class="cls-8" d="M1194.52,453.42a.46.46,0,0,1,.49-.49C1195.09,453.34,1194.94,453.51,1194.52,453.42Z" transform="translate(-1022.45 -361.86)"/><path class="cls-11" d="M1215.42,421l.52.49,1,.52c.1.64.11,1.23-.75,1.32l-4.83-2.09a2.86,2.86,0,0,1,.85-1.81l2.29.45.45.61Z" transform="translate(-1022.45 -361.86)"/><path class="cls-14" d="M1233.78,418.43c.92-.08,1.78,0,2.2,1A2.41,2.41,0,0,1,1233.78,418.43Z" transform="translate(-1022.45 -361.86)"/><path class="cls-14" d="M1236.49,419.93c.84,0,1.84-.32,2,1A2.55,2.55,0,0,1,1236.49,419.93Z" transform="translate(-1022.45 -361.86)"/><path class="cls-14" d="M1236,419.43l.5.49Z" transform="translate(-1022.45 -361.86)"/><path class="cls-10" d="M1230.48,407.91a1.42,1.42,0,0,1,1,1A.9.9,0,0,1,1230.48,407.91Z" transform="translate(-1022.45 -361.86)"/><path class="cls-12" d="M1218,429.85c-.13.53-.56.66-1,.78C1217,429.94,1217.49,429.88,1218,429.85Z" transform="translate(-1022.45 -361.86)"/></svg>