<svg id="Ebene_1" data-name="Ebene 1" xmlns="http://www.w3.org/2000/svg" viewBox="0 0 559.43 222.33"><defs><style>.cls-1{fill:#757a7c;}.cls-2{fill:#ebeae2;}</style></defs><title>dolphin</title><path class="cls-1" d="M1465.58,377.94c2.71,3.18.77,4.85-1.2,7.19-1.33,1.58-1,4.55-1.39,6.91-.24,1.6.11,3.91-1.23,4.49s-2.62-1.34-3.88-2.27c-9.23-6.76-18.25-13.86-27.86-20-3.2-2.05-3.89-4.61-4.95-7.42-2.64-7-5-14.1-7.81-21-1.35-3.27-3-6.36-3.36-9.95-.1-1-.79-1.32-1.68-1.53-13.21-3.16-26.42-6.27-39.6-9.55-7.48-1.86-15.11-3.09-22.5-5.14-3.67-1-6.69-.33-9.91.28q-11.09,2.12-22.08,4.76c-6.48,1.56-12.37,4.77-18.51,7.27-12.76,5.2-25.45,10.59-38.16,15.91-8.66,3.62-17.33,7.19-26,10.9-2.16.93-4.42.66-6.6,1-9.85,1.37-19.75,2.36-29.62,3.64-10,1.31-20,2.8-30,4.33,2.51.47,4.91,1.56,7.6.94a4.05,4.05,0,0,1,2.73.8q3.86,2,7.77,4a4.68,4.68,0,0,0,1.65.46c.78.07,1.84-.39,2,.85.11,1.07-1,1.23-1.7,1.55-3.48,1.55-7,3.11-10.49,4.54-2.09.85-4.87.12-7.33-.08-4.79-.39-9.57-1-14.36-1.35-5.13-.42-10.26-.75-15.4-1.07-.6,0-1.5-.38-1.78.39s.67,1,1.12,1.38c4.54,4.33,10.26,6.25,16.09,8,8.25,2.53,16.45,5.21,24.66,7.86,5.89,1.9,5.86,1.93,6.61,8,.14,1.09-.41,1.28-1.26,1.34-4.89.33-9.77.78-14.66,1-4.4.16-8.78.44-13.16.94a2.68,2.68,0,0,1-1.46-.17c-6.22-3.22-13-5-19.51-7.4-17.62-6.41-35.28-12.69-52.95-19a40.69,40.69,0,0,0-9.65-2.31c-2.54-.25-4.19-2.07-5.94-3.41-3.46-2.64-6.95-3-11.09-2.29a64,64,0,0,1-9.67.76c-5.3.09-10.6.67-15.89,1.1-4.79.39-9.58.88-14.36,1.32-8.67.8-17.34,1.62-26,2.41-6.11.55-12.33.56-18.31,1.74-4.43.87-7.1-2.74-10.93-2.86-.2,0-.36-.68-.58-1-2.26-3.46-2-7.88-4.28-11.35-.16-.24-.21-.82-.06-.95,2.1-1.83,2.4-5.1,5.58-6.16,12-4,23.86-8.15,35.81-12.19a4.11,4.11,0,0,0,2.63-2.4,88.82,88.82,0,0,1,4.94-10.3c3.28-5.27,6.62-10.49,9.57-16a5.87,5.87,0,0,0,.92-3c0-2.47,2.16-3.71,3.85-4.81a170.46,170.46,0,0,0,18.48-13.4c3.4-2.91,7.23-3.44,11-4.53,18.52-5.43,37.12-10.56,55.7-15.8l63.65-17.93c4.7-1.33,9.39-2.71,14.11-4,2.21-.6,3.25-2.6,4.53-4.05,8.69-9.82,17.12-19.85,25.66-29.8,6.33-7.37,12.82-14.59,18.92-22.14,1.46-1.81,3.16-3.34,4.54-5.11,1.23-1.59,2.89-.92,4.23-1.8,4-2.6,8.08-5.3,13.13-5.49,1.67-.06,2.87-.38,2.29,2.45a134.74,134.74,0,0,0-2.39,22.2c-.06,1.81,1.28,3.68,2,5.51,1.31,3.32,2.68,6.62,4,9.95a12.61,12.61,0,0,0,3.1,4.71c4,3.87,8,7.77,11.87,11.82a8.08,8.08,0,0,0,5.26,2.36c8.46,1.09,16.91,2.25,25.36,3.36q12.07,1.59,24.15,3.14a8.85,8.85,0,0,1,4.69,1.69c1.47,1.13,3.73,1.24,5.63,1.84,12.83,4,25.66,8,38.75,11,4.21,1,6.43,4.15,9.39,6.47,8.35,6.55,16.47,13.4,24.65,20.16,4.48,3.7,8.59,8,13.45,11.05,5.7,3.62,10.52,8.24,15.76,12.35,8,6.29,15.81,12.89,23.7,19.36,6.67,5.47,13.13,11.23,20.08,16.31,4.95,3.62,7.79,8.72,11.34,13.35,2.57,3.35,4.37,7.45,7.38,10.28,4.64,4.36,5,10.27,7,15.59,1.71,4.55,2.35,9.47,4.57,13.86.24.47.15.88-.25,1a1.77,1.77,0,0,1-1.84-.36q-5.16-3.88-10.36-7.73-5-3.69-10.06-7.32a7.63,7.63,0,0,0-4.61-1.56c-4.5,0-9,0-13.5,0-2.61-3.5-6.28-5.91-9.26-9A2.35,2.35,0,0,0,1465.58,377.94Zm-414.09-44c2.4-.63,4-2.35,5.31-4.27s.64-3.62-1.75-4.24c-4.46-1.16-12.7,2.4-14.94,6.47-1.27,2.31-.43,4.08,2.31,4.37a12.87,12.87,0,0,0,9.1-2.37Zm295.61-17.87c-1.25-1.94-2.46-3.91-3.76-5.82-.34-.5-.63-1.1-1.45-1.24-4.9-.78-9.75-1.93-14.68-2.38-5.85-.54-11.56-1.93-17.4-2.51s-11.59-1.42-17.39-2.14c-4.9-.61-9.8-1.29-14.72-1.78-3.34-.33-6.62-1-10.1-.33-4.31.86-8.43,2.41-12.75,3.14-12.55,2.13-24.77,5.73-37.17,8.53-9.36,2.12-18.71,4.18-28.12,6.1-3.87.79-8,.78-11.52,3.19-1,.72-3,1.22-4,.71-1.68-.88-3-.29-4.22.25-6.15,2.68-13,3-19,6.52-3.07,1.82-7,2.13-10.55,3.19-4.82,1.46-9.81,2.69-14.14,5.18-2.53,1.46-4.93,2.74-7.74,2.54-3.52-.25-7,.2-10.46.3a106.55,106.55,0,0,0-12.63,1c-.49.07-.92,0-1.17.66-.61,1.52.69,6.17,2.12,7.2,8.68,6.2,17.4,12.34,26,18.6,2.83,2.05,5.23,3.77,9.35,3.22,5-.67,10.12-1.17,15.18-1.75,5.73-.66,11.46-1.43,17.18-2.17l20.64-2.7c4.42-.58,8.83-1.57,13.27-1.68,4.13-.11,8.09-1.18,12.22-1.32a122,122,0,0,0,14.73-1.83c3.49-.55,7.16-.25,10.45-1.62q33.14-13.74,66.2-27.65c4.48-1.88,8.8-4.36,13.44-5.59,8.47-2.25,17.11-3.9,25.74-5.51C1343,318,1344.75,316.52,1347.1,316.06ZM1063,370.4c-4.59-2.88-8.74-5.32-12.7-8a7.82,7.82,0,0,0-6.14-1.24c-6,1.12-12,2.53-18,3.6-7.24,1.28-14.29,3.48-21.71,3.83-11.46.55-22.92,1.33-34.37,2.09a50.25,50.25,0,0,0-5.62,1c-1.36.25-1.34,1.14-.64,1.89,2.18,2.32,4.67,4.49,7.94,4.63a85.76,85.76,0,0,0,10.93-.58c6.69-.56,13.38-1.25,20.07-1.84,6.45-.57,12.9-1,19.35-1.62,8.76-.77,17.51-1.59,26.26-2.4Zm75.74,7.68-.16.17.17.16.16-.24Z" transform="translate(-958.51 -184.94)"/><path class="cls-2" d="M1347.1,316.06c-2.35.46-4.12,1.89-6.35,2.31-8.62,1.61-17.26,3.26-25.74,5.51-4.65,1.23-9,3.71-13.44,5.59q-33.09,13.86-66.2,27.65c-3.29,1.36-7,1.06-10.45,1.62a122,122,0,0,1-14.73,1.83c-4.12.14-8.08,1.22-12.22,1.32-4.43.11-8.84,1.1-13.27,1.68l-20.64,2.7c-5.73.74-11.45,1.52-17.18,2.17-5.06.58-10.16,1.08-15.18,1.75-4.13.55-6.52-1.17-9.35-3.22-8.63-6.26-17.36-12.4-26-18.6-1.43-1-2.73-5.67-2.12-7.2.25-.62.69-.58,1.17-.66a106.55,106.55,0,0,1,12.63-1c3.48-.11,6.94-.56,10.46-.3,2.81.2,5.2-1.08,7.74-2.54,4.33-2.5,9.32-3.73,14.14-5.18,3.53-1.07,7.48-1.38,10.55-3.19,6-3.52,12.84-3.84,19-6.52,1.25-.54,2.55-1.14,4.22-.25,1,.51,2.92,0,4-.71,3.51-2.41,7.65-2.4,11.52-3.19,9.4-1.91,18.76-4,28.12-6.1,12.4-2.8,24.62-6.4,37.17-8.53,4.32-.73,8.44-2.28,12.75-3.14,3.48-.7,6.76,0,10.1.33,4.92.49,9.81,1.17,14.72,1.78,5.8.72,11.58,1.57,17.39,2.14s11.54,2,17.4,2.51c4.92.45,9.78,1.6,14.68,2.38.82.13,1.1.73,1.45,1.24C1344.64,312.15,1345.86,314.12,1347.1,316.06Z" transform="translate(-958.51 -184.94)"/><path class="cls-2" d="M1063,370.4l-14.65,1.36c-8.75.8-17.51,1.62-26.26,2.4-6.45.57-12.9,1-19.35,1.62-6.69.59-13.37,1.28-20.07,1.84a85.76,85.76,0,0,1-10.93.58c-3.27-.14-5.76-2.31-7.94-4.63-.7-.75-.72-1.64.64-1.89a50.25,50.25,0,0,1,5.62-1c11.45-.76,22.91-1.54,34.37-2.09,7.42-.36,14.48-2.55,21.71-3.83,6-1.07,12-2.48,18-3.6a7.82,7.82,0,0,1,6.14,1.24C1054.22,365.08,1058.37,367.52,1063,370.4Z" transform="translate(-958.51 -184.94)"/><path class="cls-2" d="M1051.52,333.9a12.87,12.87,0,0,1-9.1,2.37c-2.75-.29-3.58-2.06-2.31-4.37,2.24-4.07,10.48-7.64,14.94-6.47,2.4.63,3.14,2.23,1.75,4.24s-2.91,3.63-5.31,4.27c.09-.72.2-1.45.26-2.17.18-2.08-.88-3.49-2.6-3.42-1.95.09-2.47,1.5-2.53,3.06-.08,2,1.2,3,3.22,2.73Z" transform="translate(-958.51 -184.94)"/><path class="cls-1" d="M1051.52,333.9l-1.68.23c-2,.25-3.31-.75-3.22-2.73.07-1.56.59-3,2.53-3.06,1.71-.08,2.78,1.34,2.6,3.42-.06.73-.17,1.45-.26,2.17Z" transform="translate(-958.51 -184.94)"/></svg>