<svg id="Ebene_1" data-name="Ebene 1" xmlns="http://www.w3.org/2000/svg" viewBox="0 0 558.84 221.82"><defs><style>.cls-1{fill:#757a7c;}.cls-2{fill:#616567;}.cls-3{fill:#0f0f0f;}.cls-4{fill:#616566;}.cls-5{fill:#3e4040;}.cls-6{fill:#373839;}.cls-7{fill:#171717;}.cls-8{fill:#ebeae2;}.cls-9{fill:#303132;}.cls-10{fill:#65696b;}.cls-11{fill:#e6e5de;}.cls-12{fill:#fefefe;}.cls-13{fill:#2a2c2c;}.cls-14{fill:#e8e7df;}.cls-15{fill:#777c7d;}.cls-16{fill:#75787a;}</style></defs><title>dolphin</title><path class="cls-1" d="M600.24,188.37c0-.42.2-.64.64-.61,1-.85,2.09-1.59,2-3.11.16-.58.54-.57,1-.39a13.09,13.09,0,0,0,2.87-3.38l.13-.12a11.88,11.88,0,0,0,2.87-3.39c0-.42.2-.64.63-.61,1-.86,2-1.64,2-3.11a1.76,1.76,0,0,1,.88-1.78c0,.46-.31,1.52.71.8a9.56,9.56,0,0,0,1.77-2.3c-.1-.27-.16-.53.13-.73,2-.22,2.28-2.15,3.38-3.26l.13-.08c1-1.08,2.44-1.91,2.51-3.66a2.2,2.2,0,0,1-.1-.36s.11-.07.16-.11l.49,0a1.11,1.11,0,0,0,1.08-.48c2.32-3.64,5.85-5.59,9.68-7.28a100.47,100.47,0,0,0,9-4.81,3.05,3.05,0,0,1,2.83-.4c1.06.54.64,1.91.4,2.68a23.57,23.57,0,0,0-1,6.55c-.11,3.05-.79,6.09-.78,9.14s-1.25,6.34.55,9.64c2.28,4.17,4.22,8.56,6.11,13,1.52,3.54,4.91,5.72,7.89,8.09.08.06.39-.16.59-.25a29.34,29.34,0,0,1,6.5,7.41c-.69,1-1,1.67.76,1.81,1.29.1,2.34.77,3.9.71,3.82-.15,7.69.79,11.53,1.3,7,.94,14.07,1.8,21.08,2.88,5.94.91,12,1.08,17.76,3.14,2,.72,3.83,1.82,5.89,2.38,5.16,1.38,10.33,2.76,15.46,4.26,10.84,3.16,21.66,6.39,32.49,9.59l-.09-.08a1.88,1.88,0,0,0,2.28,1.54.26.26,0,0,1,.25.25c.07,1.62,1.56,1.86,2.52,2.61l.12.13a9,9,0,0,0,2.88,2.37l.12.13a5.65,5.65,0,0,0,2.38,1.86l.12.14a8.14,8.14,0,0,0,2.88,2.37l.11.13a15.24,15.24,0,0,0,3.45,2.86l0-.18c.3,1,1.23,1.21,2,1.68l.11.14a8.45,8.45,0,0,0,2.88,2.37l.12.13a4.5,4.5,0,0,0,2.91,2l-.07-.06c.26,1.43,1.61,1.7,2.55,2.4l.11.14a8.83,8.83,0,0,0,2.88,2.37l.12.13a5.45,5.45,0,0,0,2.39,1.85l.11.15a8,8,0,0,0,2.88,2.37l.12.13a8.84,8.84,0,0,0,2.89,2.36l.11.14a9.2,9.2,0,0,0,2.88,2.37l.12.13a5.45,5.45,0,0,0,3.89,2.35l.11.15a9.33,9.33,0,0,0,2.88,2.37l.12.13a6.19,6.19,0,0,0,2.39,1.86l.11.14a8.79,8.79,0,0,0,2.88,2.37l.12.13a5.63,5.63,0,0,0,2.39,1.86l.12.14a8.3,8.3,0,0,0,2.88,2.37l.12.13a4.65,4.65,0,0,0,2.91,2l-.07-.07c.26,1.43,1.69,1.62,2.55,2.41l.12.13a6,6,0,0,0,2.38,1.86l.12.14a8.85,8.85,0,0,0,2.88,2.37l.12.13,1.2,1.56-27.65-7c3.26,5.54,6.87,10.17,9.5,15.38l-.43.38c-2.28-.34-4.56-.75-6.85-1-4-.43-7.93-1.49-12-1.6-1.33-.92-2.83-.52-4.28-.57h0c-1.21-1.34-2.9-.64-4.35-1-19.17-4.72-38.36-9.38-57.53-14.08a4.21,4.21,0,0,1-2.51-1.49c1-.66,2.4-.22,3.12-1.55a5.85,5.85,0,0,0-1.63.13c-3.16,1.34-5.17.11-6.42-2.82a9.08,9.08,0,0,0-8.93-6,16.58,16.58,0,0,0-8.86-1.6,23.42,23.42,0,0,1-7.4-.75c-10.18-2.94-20.76-3.09-31.11-4.8-5.39-.89-10.92-.5-16.31-1.59A14.24,14.24,0,0,0,652,262.86c-4.42.29-8.65,1.63-12.93,2.57-12,2.61-23.87,5.73-35.84,8.45-10.11,2.3-20.19,4.72-30.55,5.81-6.38.68-12.39,3.1-18.52,4.92-10.44,3.1-20.84,6.3-31,10.14-3.41,1.28-6.69,3.35-10.6,3-.47,0-.74.4-.83.8-.4,2-1.92,2-3.47,2-5.49,0-11,0-16.48,0-2,0-4,0-5.72,1.1-4.29.49-5.29,2.12-3.38,5.53.52.39,1.07.77.5,1.52-.43.31-1.45-.17-1.29.82a.73.73,0,0,0,1.28.32l.08-.19c-1,1.25.41,1.33.91,1.69,4.21,3.09,8.46,6.12,12.7,9.16L525,340.74a.33.33,0,0,0,.29.28,15,15,0,0,0,3.36,2.22l.1.15a1.94,1.94,0,0,0,1.89,1l-.06-.06c.21,1.16,1.1,1.42,2.07,1.57l-.08-.07c.62,1.89,2,2.69,3.88,3.22,3.73,1.06,7.4,2.31,11.09,3.49,8.33,2.67,16.64,5.39,25,8,2.47.77,3.25,2.36,2.93,4.7s-2.41,1-3.56,1.68c-.32.18-.82,0-1.23.05-4.72.31-9.45.83-14.17.86-3.44,0-6.87,1-10.35-.3-18.93-6.88-37.91-13.63-56.86-20.45-5.18-1.86-10.23-4.3-15.43-5.82-6.24-1.82-12.3-3.45-17.71-7.28-4.87-3.45-10.25-6.19-15.07-9.7-2.31-1.68-4.48-2.75-7.21-2.22-6.9,1.35-13.76,2.85-20.65,4.24-8.2,1.65-16.38,3.35-24.8,3.69-8.72.35-17.43,1-26.15,1.58a41.71,41.71,0,0,0-7.4.73c-3.54.88-3.39,1.06-4.42-2.51-.4-1.4,0-1.56,1.18-1.54,8.75.12,17.5.09,26.23.38a26.35,26.35,0,0,0,10.92-1.7c4.83-1.92,9.53-4.29,14.69-5.28,7.55-1.45,15.13-2.77,22.69-4.15.58-.11,1.36-.25,1.22-.94-.21-1-1-.42-1.61-.31-3.09.57-6.18,1.1-9.26,1.72-8.24,1.64-16.66,2.47-24.39,6.21a35.39,35.39,0,0,1-17.62,3.33c-7.73-.4-15.49-.44-23.23-.51-2.2,0-2-.81-1-2.14l.13-.12c1.43-.84,1.85-2.66,3.63-3.27,12.07-4.08,24.1-8.27,36.15-12.43.3.85-.92,1.51.09,2.44.79-1.59,1.55-3.09,2.29-4.6,2.29-4.67,4.25-9.5,7.49-13.66,1-1.24,2.36-2.46,1.86-4.39l-.06.07a6.65,6.65,0,0,0,2.56-4.57l-.06.07a4.54,4.54,0,0,0,2.06-3.58l0,.07c.54,0,.59-.34.55-.75l-.06.09c2.19-3.26,4.11-6.72,7.05-9.42l-.06.06a2,2,0,0,0,1.89-1l.11-.15c.63-.34,1.54-.36,1.56-1.39l-.07.06c1-.12,1.84-.43,2.07-1.56l-.07.06a5.25,5.25,0,0,0,3.57-2.57l-.07.07c1-.12,1.85-.43,2.07-1.57l-.07.06c1-.09,1.88-.38,2.07-1.56l-.06.05c.85.14,1.46-.08,1.57-1.05l-.07.07c1-.14,1.87-.39,2.07-1.56l-.07.07c1.8-.14,2.66-1.88,4.41-2.36,25-6.94,49.95-14,74.91-21l66.07-18.61c2-.57,4.11-1.14,3.17-4.06l-.07.08c1.58-.43,2-1.93,2.91-3.05a1.28,1.28,0,0,1,.49-2c1.12.9,1.55.55,2.16-1.75.16-.56.54-.56,1-.38a13.92,13.92,0,0,0,2.87-3.38l.13-.08a8.06,8.06,0,0,0,2.36-2.93.12.12,0,0,1,.17-.12l.83-.83.13-.11a11.73,11.73,0,0,0,2.37-2.93q-.41-1.61,1.15-1.05l1.85-2.45c0-.42.2-.64.63-.61A8.8,8.8,0,0,0,600.24,188.37Zm-159.87,108c3-.57,4.7-2.66,5.89-5.16.68-1.43-.1-2.58-1.59-3.12a8.52,8.52,0,0,0-4.87-.11c-4,.88-7.58,2.49-10.22,5.72-1.81,2.21-1.44,4.33,1,4.88a11,11,0,0,0,9.87-2.24Z" transform="translate(-347.87 -147.74)"/><path class="cls-2" d="M853.15,295.73l.1.13c.8.95,1.51,2.05,3,1.6.5,0,.55.28.32.67,0,1.41,1.21,1.56,2,2.11l.1.13a7.4,7.4,0,0,0,2.89,2.37l.11.13a4.84,4.84,0,0,0,2.39,1.87l.11.13a7.14,7.14,0,0,0,2.89,2.37l.11.13a5.33,5.33,0,0,0,2.39,1.87l.11.13c.63.77,1.14,1.74,2.4,1.52l0,0c-.12.42.13.61.46.76l.08.17a5.25,5.25,0,0,0,2.43,1.88l.1.13c.78.94,1.48,2,2.91,2l-.07-.06a19.15,19.15,0,0,0,4.59,5.09l-.06-.07c-.13.85.09,1.46,1.06,1.57l-.06-.08c0,1.07.38,1.88,1.56,2.07l-.05-.07c-.16.87.08,1.47,1.06,1.57l-.07-.08c.12.88.06,1.93,1.49,1.56v0c-.39,1.06-.06,1.74,1.07,2l-.06-.08c-.1.83.1,1.46,1.06,1.57l-.07-.08c0,1.06.38,1.89,1.56,2.07l-.06-.07c-.13.85.09,1.46,1.06,1.57l-.07-.08a4.79,4.79,0,0,0,2.57,3.58l-.06-.07c-.1.83.1,1.46,1.06,1.57l-.07-.08c-.09,2,2,2.62,2.52,4.36,1.75,6.24,3.69,12.42,5.56,18.62l-.4.42a1.63,1.63,0,0,1-.42-.26l-29.65-35.26c-8.5-10.1-17.06-20.16-25.47-30.34-1.56-1.89-3.55-3.43-5.07-5.74,3,.18,5.41,1.76,8.12,1.81.74-.19,1,.43,1.36.83C850.43,295.49,852.82,295.08,853.15,295.73Z" transform="translate(-347.87 -147.74)"/><path class="cls-3" d="M850.79,293c-2.71,0-5.07-1.63-8.12-1.81,1.52,2.31,3.51,3.85,5.07,5.74,8.41,10.18,17,20.23,25.47,30.34l29.65,35.26a1.58,1.58,0,0,0,.42.26l.53.2-.13-.62c-1.87-6.2-3.82-12.39-5.56-18.62-.49-1.74-2.61-2.38-2.52-4.36,1.87-.11,2.74.75,3.18,2.61.79,3.32,1.87,6.58,2.83,9.86a.93.93,0,0,0,.47,1.21c1.64,4.36,2.29,9.05,4.42,13.25.15.3.35.63,0,.87-.55.43-1.1.14-1.55-.2-2.35-1.8-4.67-3.63-7-5.45a1.49,1.49,0,0,0-1.45-1c-.28-.2-.5-.41-.15-.73,1.06-.62,1.57,1.16,2.6.65.08-.64-.37-.94-.68-1.31l-11.06-13.17q-19.06-22.74-38.13-45.48c-1.12-1.33-2.1-3.19-3.54-3.74a6.21,6.21,0,0,1-3.83-4.51c-.56-2.53-2-1.76-3.35-2q17.47,23.76,35.21,47.14c3.71,4.9,7.14,10,11.63,14.29-.05.06-.14.19-.16.18-4.73-2.56-9.87-1.32-14.84-1.55-2.27-.11-4.92.9-6-2.38-.21-.63-1-1.08-1.48-1.61a8.71,8.71,0,0,1,4.25,2.48,1.21,1.21,0,0,0,1.61.16c.68-.61-.14-1-.43-1.41q-4.9-6.91-9.83-13.8c-10.73-15-21.51-29.92-32.14-45-1.34-1.9-2.63-3.15-5.18-3,3.47,6.18,7.57,11.75,11,17.72,5.57,9.62,11.44,19.08,17.15,28.62,1.44,2.4,3,4.56,5.63,5.86,1.28.65,1.39,1.08,1.1,2.11-.59-.26-.95-1.34-1.73-.78-.57.41.09,1,.33,1.42.53,1,.5,2.14,1.27,3.13s0,1.51-1.14,1.36c-.29-4.12-3.18-6.93-5.15-10.2q-9.84-16.3-19.6-32.64c-.43-.72-.8-1.61-1.72-1.64-3.21-.1-6.29-1.4-9.6-1.07.06,1.43.94,2.37,1.62,3.36,2.8,4.11,5.51,8.3,8.52,12.26,7.46,9.82,13.09,20.94,21.71,30,1.56,1.63,1.85,1.43,3,.28a.9.9,0,0,1,1.13-.22c-2.71,3.32-2.4,7.45-3.05,11.33-.53,3.18-.56,3.18-3,1.15a.92.92,0,0,0-1-.72l0,0a1,1,0,0,0,0-.49c.81-.11,1-.6.87-1.33l.14-.68c.87.29.72,1.74,1.85,1.7a15.34,15.34,0,0,0,.51-2.22c.16-2,.82-4-.52-5.8-6.26-8.27-11.94-17-17.83-25.49-5.22-7.57-10.77-14.92-15.54-22.81-.67-1.11-4.49-2.09-5.88-1.56-.1,0,0,.46-.06.71l-.95,0L809,297.46a1.51,1.51,0,0,1,0-.4c4,.11,8,1.16,12,1.6,2.29.25,4.57.66,6.85,1l.57.15-.14-.52c-2.64-5.22-6.24-9.85-9.5-15.38l27.65,7-1.2-1.56a.67.67,0,0,1,1.18-.27C847.79,290.49,849.75,291.21,850.79,293Zm29.42,56a5,5,0,0,0-1.42-2.82q-19-25.3-38-50.56c-2.78-3.71-5.31-7.67-10.67-7.9-.8,0-1.87-.7-2.35-.1-.7.88.38,1.62.88,2.31,13.27,18.59,26.59,37.13,39.77,55.78,1.76,2.49,3.51,3.87,6.64,3.34A32.52,32.52,0,0,1,880.21,349Z" transform="translate(-347.87 -147.74)"/><path class="cls-3" d="M350.25,324.88c-.93,1.32-1.17,2.11,1,2.14,7.75.07,15.5.11,23.23.51a35.39,35.39,0,0,0,17.62-3.33c7.72-3.75,16.15-4.57,24.39-6.21,3.08-.61,6.18-1.14,9.26-1.72.6-.11,1.4-.7,1.61.31.14.69-.64.83-1.22.94-7.56,1.38-15.14,2.7-22.69,4.15-5.16,1-9.85,3.36-14.69,5.28a26.35,26.35,0,0,1-10.92,1.7c-8.74-.29-17.49-.26-26.23-.38-1.17,0-1.59.15-1.18,1.54,1,3.57.88,3.39,4.42,2.51a41.71,41.71,0,0,1,7.4-.73c8.71-.56,17.43-1.22,26.15-1.58,8.42-.34,16.6-2,24.8-3.69,6.89-1.39,13.75-2.89,20.65-4.24,2.73-.53,4.9.54,7.21,2.22,4.83,3.5,10.2,6.25,15.07,9.7,5.4,3.83,11.47,5.46,17.71,7.28,5.19,1.52,10.25,4,15.43,5.82,19,6.82,37.93,13.58,56.86,20.45,3.48,1.26,6.91.32,10.35.3,4.73,0,9.45-.56,14.17-.86.42,0,.91.13,1.23-.05,1.16-.64,3.25.62,3.56-1.68s-.46-3.93-2.93-4.7c-8.35-2.6-16.66-5.32-25-8-3.69-1.18-7.37-2.43-11.09-3.49-1.84-.52-3.26-1.33-3.88-3.22.2-.33.53-.46.82-.24,5.46,4.13,12.24,4.89,18.43,7.12,6.54,2.36,13.21,4.34,19.84,6.45a12.94,12.94,0,0,0,2.4.55c1.51.18,2.94.61,2.3,2.84a4.74,4.74,0,0,0,.36,2.92c.87,2,0,2.17-1.75,2.27-8.79.5-17.57,1.17-26.36,1.76a4,4,0,0,1-1.7-.09c-18.1-7.51-36.78-13.44-55.17-20.17-8.15-3-16.12-6.7-24.76-8.05-4.58-.72-7.56-3.89-11.32-5.84a5.82,5.82,0,0,0-3.48-.76c-9.09.8-18.2,1.35-27.3,2.1-8.61.71-17.2,1.57-25.8,2.34-6.28.56-12.58,1-18.86,1.66s-12.59.75-18.81,1.9a2.91,2.91,0,0,1-3.46-2.1,14.33,14.33,0,0,0,3.35.56q10.92-.76,21.83-1.71c6.86-.59,13.71-1.27,20.56-1.88,4.46-.4,8.93-.74,13.39-1.14,6.69-.6,13.37-1.25,20.06-1.86,4.84-.44,9.68-.87,15.27-1.36-4.8-3-9-5.5-13-8.25a8.38,8.38,0,0,0-6.61-1.25c-5.28,1-10.49,2.31-15.78,3.2-7.88,1.33-15.55,3.81-23.61,4.19-9,.43-18,.88-26.9,1.65-4.2.36-8.49,0-12.59,1.35-2.25.75-2.31,1-.75,2.9,1.35,1.61,3.51,2.07,4.85,3.64-2.16.62-5.77-1.27-6.64-3.26-1.33-3.08-1.52-6.51-3.18-9.51C347.29,326.15,348.37,324.83,350.25,324.88Z" transform="translate(-347.87 -147.74)"/><path class="cls-3" d="M525,340.74l-28.2-20.16c-4.24-3-8.49-6.07-12.7-9.16-.49-.36-1.91-.45-.91-1.69,1.19-.17,1.45,1.05,2.17,1.55,9.18,6.43,18.26,13,27.37,19.53,2.2,1.58,4.3,3.5,7.35,2.05a1.82,1.82,0,0,1,.74,0c5.06.05,10-1.06,15-1.58,5.81-.61,11.6-1.5,17.4-2.27l20.88-2.77c4.34-.57,8.67-1.5,13-1.62,4.19-.12,8.23-1.18,12.41-1.36a122.16,122.16,0,0,0,14.22-1.79c3.71-.6,7.56-.32,11.13-1.81q32.34-13.51,64.68-27c4.82-2,9.46-4.63,14.45-6,7.63-2.13,15.45-3.61,23.26-5a57.66,57.66,0,0,0,9-2.84c-.27-.46-.54-1-.83-1.45-2.07-3.47-4.23-6.82-9-6.68l.07-.92a9.09,9.09,0,0,1,8.93,6c1.24,2.93,3.26,4.16,6.42,2.82a5.85,5.85,0,0,1,1.63-.13c-.72,1.33-2.11.89-3.12,1.55a4.21,4.21,0,0,0,2.51,1.49c19.17,4.71,38.36,9.36,57.53,14.08,1.45.36,3.14-.34,4.35,1l-.94.51-.33.49-.56,0c-3.54-1.72-7.45-2.09-11.2-3-14.12-3.51-28.27-6.91-42.43-10.3-2.66-.64-5.39-.93-8.07-1.5-1.32-.28-2.79-.09-3.84-1.38-.46-.57-1.32-.4-2.11-.23-9.95,2.12-20.07,3.63-29.82,6.45-7.92,2.29-15.39,6.13-23,9.32C663,305,643.63,313.21,624.1,321.1c-3.19,1.29-7,1.12-10.51,1.58-10.11,1.33-20.25,2.39-30.34,3.93-8.46,1.29-17,2.22-25.46,3.31a6.31,6.31,0,0,0-3.27.49c1.52,0,2.51.89,3.73.42,2.76-.09,5.39,1.46,8.25.61.53-.16,1.33.52,2,.83,3.46,1.61,6.43,4.42,10.59,4.35a1,1,0,0,1,.69.59c.18.75-.47,1-1,1.19-2.59,1.11-5.4,1.89-7.74,3.38-3.55,2.27-7.26,1.53-11,1.27q-11.41-.8-22.8-1.91c-3.29-.32-6.63-.18-9.88-1C526.4,339.4,525.37,338.58,525,340.74Zm-6.61-6.38c1.46,1.47,2.67,3.26,4.54,3.52,4.78.66,9.42,2.06,14.31,2.15,4.7.09,9.38.82,14.08,1,5.78.16,11.49,2.71,17.41-.12a66.9,66.9,0,0,1,7.47-2.93l-7.92-4a2.13,2.13,0,0,0-.89-.33c-6.13.09-12.14-1.17-18.22-1.55-.45,0-1-.22-.88-.64.57-1.66-.72-.82-1.09-.77-3.24.42-6.47,1-9.72,1.4C531.11,332.83,524.74,333.58,518.37,334.35Z" transform="translate(-347.87 -147.74)"/><path class="cls-4" d="M856,340c.29-1,.18-1.46-1.1-2.11-2.58-1.31-4.19-3.46-5.63-5.86-5.71-9.55-11.58-19-17.15-28.62-3.46-6-7.56-11.54-11-17.72,2.56-.12,3.84,1.13,5.18,3,10.63,15,21.41,30,32.14,45q4.93,6.89,9.83,13.8c.29.41,1.1.8.43,1.41a1.21,1.21,0,0,1-1.61-.16,8.71,8.71,0,0,0-4.25-2.48c0-.15.07-.29.1-.43a.68.68,0,0,0-.27-.88c-1.3-1.18-2.23-2.88-4.25-3.07-1.28.26-1.65-.93-2.41-1.5A.78.78,0,0,1,856,340Z" transform="translate(-347.87 -147.74)"/><path class="cls-4" d="M885.26,351.61c-4.49-4.26-7.92-9.4-11.63-14.29q-17.73-23.43-35.21-47.14c1.32.27,2.79-.5,3.35,2a6.21,6.21,0,0,0,3.83,4.51c1.45.55,2.43,2.41,3.54,3.74q19.07,22.73,38.13,45.48l11.06,13.17c.31.37.76.67.68,1.31-1,.51-1.55-1.27-2.6-.65v-.08c-.21-1.16-1-1.5-2.08-1.57l.08.07c-.12-1-.73-1.18-1.57-1.06l.07.06a1.85,1.85,0,0,0-2.07-1.56l.07.06c0-1-.86-1.13-1.57-1.37l-.1-.15c-.46-.65-.95-1.26-1.89-1l.05.05a1.81,1.81,0,0,0-2.07-1.56Z" transform="translate(-347.87 -147.74)"/><path class="cls-5" d="M838,350c-6.18-4.46-12.38-8.89-18.54-13.39-1.4-1-3.63-1.09-4.09-3.22-1.08-5-3.28-9.53-5-14.28a132.78,132.78,0,0,0-5.17-13.44l1.14-.2c1,.09,1.29.89,1.54,1.7,1.06,3.43,2.07,6.87,3.23,10.27.39,1.14,1.58,2.11,1.69,3.24.45,4.31,3.53,7.71,3.91,12a1.09,1.09,0,0,0,.6.75c3,1.07,4.67,3.75,7.12,5.46,3.17,2.22,6.39,4.37,9.58,6.55a1.44,1.44,0,0,0,1,1c.2.43.58.48,1,.49.26.5.79,1.28,1.18.76.77-1.06-.2-1.52-1.1-1.81l-.53-.58-.37-.37a6.76,6.76,0,0,0-1.31-3.67c-.88-1.42-2.67-2.39-3.08-3.77-1.19-4-5.1-6.21-6-10.26-.11-.48-.72-.91-1.19-1.23a2.18,2.18,0,0,1-1.05-1.59,8.81,8.81,0,0,0-2.85-4.84c-2.1-2.09-3.44-4.84-4.76-7.2-2.18-3.9-5.26-7.23-7-11.36,0-.57-.86-1.11-.07-1.72a2.78,2.78,0,0,1,1.19,1.26q10.77,16.83,21.55,33.64c3,4.73,6,9.51,9,14.26Zm.36-1.42,0-.21-.28.05c0,.06,0,.14.08.18S838.29,348.63,838.35,348.62Z" transform="translate(-347.87 -147.74)"/><path class="cls-3" d="M578.92,212.84c.94,2.92-1.14,3.48-3.17,4.06l-66.07,18.61c-25,7-49.92,14.1-74.91,21-1.74.48-2.61,2.22-4.41,2.36a2.17,2.17,0,0,1,1.79-2.63c3.55-1,7.1-1.94,10.65-2.9a.94.94,0,0,0,1.23-.46l18.27-5a1,1,0,0,0,1.23-.46l5.77-1.54a.94.94,0,0,0,1.23-.46l2.28-.54a.94.94,0,0,0,1.22-.46l51.77-14.54a1,1,0,0,0,1.23-.46l35.79-10a.93.93,0,0,0,1.21-.47c2.3-.66,4.59-1.35,6.89-2s4.87-1,6.15-3.63A1.21,1.21,0,0,1,578.92,212.84Z" transform="translate(-347.87 -147.74)"/><path class="cls-3" d="M774.16,231.42c-10.83-3.2-21.65-6.43-32.49-9.59-5.13-1.49-10.3-2.88-15.46-4.26-2.06-.55-3.89-1.66-5.89-2.38-5.77-2.06-11.82-2.23-17.76-3.14-7-1.08-14.05-1.93-21.08-2.88-3.85-.52-7.71-1.45-11.53-1.3-1.56.06-2.61-.61-3.9-.71-1.73-.13-1.44-.81-.76-1.81.18-.13.47-.41.53-.37,3.2,2.37,7.1,1.68,10.67,2.44a1,1,0,0,0,1.32.37l13.68,1.62a.94.94,0,0,0,1.34.33l21.92,2.75a25.05,25.05,0,0,1,4.17.59c6.7,2,13.36,4.19,20,6.3a.91.91,0,0,0,1.3.45L744,220.9a1,1,0,0,0,1.27.45l20.24,5.57a.94.94,0,0,0,1.23.45c2.37.71,5.14.29,7,2.46C774.13,230.31,774.81,230.67,774.16,231.42Z" transform="translate(-347.87 -147.74)"/><path class="cls-3" d="M658.78,197.94c-.2.09-.51.32-.59.25-3-2.36-6.37-4.54-7.89-8.09-1.89-4.4-3.83-8.78-6.11-13-1.8-3.29-.54-6.45-.55-9.64s.67-6.09.78-9.14a23.57,23.57,0,0,1,1-6.55c.25-.76.66-2.14-.4-2.68a3.05,3.05,0,0,0-2.83.4,100.47,100.47,0,0,1-9,4.81c-3.83,1.69-7.36,3.64-9.68,7.28a1.08,1.08,0,0,1-1.07.48l.57-1.56c1.34-1.61,2.1-3.5,4-4.93,2.15-1.65,4.76-2,6.89-3.55a19.38,19.38,0,0,1,10.67-4.25c1.45-.06,2.86-.66,2.32,2.23A138.08,138.08,0,0,0,644.57,171c-.47.25-.65.56-.19,1,.62,2.93,2.13,5.52,3.14,8.3,1.16,3.19,2.48,6.32,3.69,9.48.57,1.48,1.93,2.24,2.92,3.33C655.64,194.75,657.23,196.33,658.78,197.94Z" transform="translate(-347.87 -147.74)"/><path class="cls-3" d="M401.9,288.86c.5,1.93-.89,3.15-1.86,4.39-3.24,4.16-5.21,9-7.49,13.66-.74,1.51-1.5,3-2.29,4.6-1-.93.2-1.6-.09-2.44-12.05,4.16-24.09,8.34-36.15,12.43-1.78.6-2.2,2.43-3.63,3.27a3.24,3.24,0,0,1,2.36-4.09L383,310.32a4.45,4.45,0,0,1,.94-.3c6.95-.71,9.36-5.85,11.23-11.5,1.27-3.84,4.13-6.65,6.37-9.86A2.9,2.9,0,0,1,401.9,288.86Z" transform="translate(-347.87 -147.74)"/><path class="cls-6" d="M838,350l1.57-1.56a4.71,4.71,0,0,1,.79.91c1.48,3,4.24,4.43,7.17,5.61h0q0,.74,0,1.48a1,1,0,0,1,0,.49A87.9,87.9,0,0,1,838,350Z" transform="translate(-347.87 -147.74)"/><path class="cls-3" d="M413.93,270.84c-2.94,2.69-4.86,6.16-7.05,9.42a8,8,0,0,1,4.36-8.47C412.06,271.42,412.64,269.94,413.93,270.84Z" transform="translate(-347.87 -147.74)"/><path class="cls-7" d="M806.35,305.5l-1.14.2c-1.51-2.16-1.52-4.77-2.13-7.2l.43-1,.33-.49c.35,2.28,2.45,4.09,1.71,6.68-.15.53.32.89.9.94Z" transform="translate(-347.87 -147.74)"/><path class="cls-3" d="M882.67,320.92a19.15,19.15,0,0,1-4.59-5.09A5.65,5.65,0,0,1,882.67,320.92Z" transform="translate(-347.87 -147.74)"/><path class="cls-3" d="M820.13,268.73a5.45,5.45,0,0,1-3.89-2.35C819,265.71,820.12,266.38,820.13,268.73Z" transform="translate(-347.87 -147.74)"/><path class="cls-3" d="M404.4,284.36a6.65,6.65,0,0,1-2.56,4.57A4.57,4.57,0,0,1,404.4,284.36Z" transform="translate(-347.87 -147.74)"/><path class="cls-3" d="M858.38,341.86c2,.19,2.95,1.89,4.25,3.07l.12.91a.56.56,0,0,1-.76-.27,1.47,1.47,0,0,0-1.39-1.09C859.86,343.6,858.5,343.26,858.38,341.86Z" transform="translate(-347.87 -147.74)"/><path class="cls-3" d="M619.25,166.38c-1.1,1.11-1.42,3-3.38,3.26C616.34,167.87,617.11,166.41,619.25,166.38Z" transform="translate(-347.87 -147.74)"/><path class="cls-3" d="M621.89,162.64c-.06,1.75-1.47,2.58-2.51,3.66-.62,0-.82-.25-.45-.81a.6.6,0,0,0,.46-.68C620.17,164,620.54,162.77,621.89,162.64Z" transform="translate(-347.87 -147.74)"/><path class="cls-3" d="M406.4,280.86a4.54,4.54,0,0,1-2.06,3.58C404.19,282.75,404.59,281.4,406.4,280.86Z" transform="translate(-347.87 -147.74)"/><path class="cls-3" d="M528.64,343.23a14.94,14.94,0,0,1-3.36-2.22l1.8.07C527.65,341.76,529.39,341.59,528.64,343.23Z" transform="translate(-347.87 -147.74)"/><path class="cls-3" d="M588.25,202.38a13.92,13.92,0,0,1-2.87,3.38A2.88,2.88,0,0,1,588.25,202.38Z" transform="translate(-347.87 -147.74)"/><path class="cls-3" d="M422.93,264.34a5.25,5.25,0,0,1-3.57,2.57A3.18,3.18,0,0,1,422.93,264.34Z" transform="translate(-347.87 -147.74)"/><path class="cls-3" d="M606.75,180.88a13.09,13.09,0,0,1-2.87,3.38A2.89,2.89,0,0,1,606.75,180.88Z" transform="translate(-347.87 -147.74)"/><path class="cls-3" d="M609.75,177.37a11.88,11.88,0,0,1-2.87,3.39A2.89,2.89,0,0,1,609.75,177.37Z" transform="translate(-347.87 -147.74)"/><path class="cls-6" d="M527.07,341.09l-1.8-.07a.33.33,0,0,1-.29-.28c.38-2.15,1.42-1.33,2.45-.54Z" transform="translate(-347.87 -147.74)"/><path class="cls-3" d="M581.75,209.87c-.86,1.12-1.32,2.62-2.91,3.05C579,211,580.12,209.83,581.75,209.87Z" transform="translate(-347.87 -147.74)"/><path class="cls-3" d="M894.67,337.92a4.79,4.79,0,0,1-2.57-3.58c.4-.39.64-.1.88.21a1.49,1.49,0,0,0,1,1.46C894.39,336.58,895.43,336.93,894.67,337.92Z" transform="translate(-347.87 -147.74)"/><path class="cls-3" d="M791.19,245.74a15.33,15.33,0,0,1-3.45-2.86c1.89-1.1,2.19,1,3.27,1.59l.19,1.32Z" transform="translate(-347.87 -147.74)"/><path class="cls-3" d="M590.74,199.37a8.06,8.06,0,0,1-2.36,2.93c-.63,0-.82-.25-.46-.81a.61.61,0,0,0,.46-.68C589.12,200.24,589.2,198.6,590.74,199.37Z" transform="translate(-347.87 -147.74)"/><path class="cls-3" d="M594.25,195.37a11.73,11.73,0,0,1-2.37,2.93c-.61.08-.86-.15-.67-.77a.93.93,0,0,0,.81-1C592.74,196.12,592.82,194.5,594.25,195.37Z" transform="translate(-347.87 -147.74)"/><path class="cls-3" d="M828.62,275.75a8.79,8.79,0,0,1-2.88-2.37A2.18,2.18,0,0,1,828.62,275.75Z" transform="translate(-347.87 -147.74)"/><path class="cls-3" d="M834.12,280.25a8.3,8.3,0,0,1-2.88-2.37A2.18,2.18,0,0,1,834.12,280.25Z" transform="translate(-347.87 -147.74)"/><path class="cls-3" d="M615.74,170.37a9.56,9.56,0,0,1-1.77,2.3c-1,.71-.67-.34-.71-.8C614.08,171.35,614.15,169.6,615.74,170.37Z" transform="translate(-347.87 -147.74)"/><path class="cls-3" d="M837.15,282.41a4.65,4.65,0,0,1-2.91-2C835.81,280,836.66,280.57,837.15,282.41Z" transform="translate(-347.87 -147.74)"/><path class="cls-3" d="M612.38,173.65c0,1.47-1.05,2.26-2,3.11C609.6,174.79,611.11,174.3,612.38,173.65Z" transform="translate(-347.87 -147.74)"/><path class="cls-3" d="M602.88,184.65c.09,1.52-1,2.26-2,3.11C600.12,185.81,601.63,185.31,602.88,184.65Z" transform="translate(-347.87 -147.74)"/><path class="cls-3" d="M600.24,188.37a8.8,8.8,0,0,1-2.36,2.89C597.48,189.54,598.42,188.4,600.24,188.37Z" transform="translate(-347.87 -147.74)"/><path class="cls-3" d="M813.13,263.74a8.84,8.84,0,0,1-2.89-2.36A2.18,2.18,0,0,1,813.13,263.74Z" transform="translate(-347.87 -147.74)"/><path class="cls-3" d="M845.12,289.25a8.85,8.85,0,0,1-2.88-2.37A2.18,2.18,0,0,1,845.12,289.25Z" transform="translate(-347.87 -147.74)"/><path class="cls-3" d="M839.62,284.75c-.86-.79-2.29-1-2.55-2.41C838.85,282.36,839.73,283.19,839.62,284.75Z" transform="translate(-347.87 -147.74)"/><path class="cls-3" d="M861.65,302.73a7.4,7.4,0,0,1-2.89-2.37A2.23,2.23,0,0,1,861.65,302.73Z" transform="translate(-347.87 -147.74)"/><path class="cls-3" d="M867.15,307.23a7.14,7.14,0,0,1-2.89-2.37A2.24,2.24,0,0,1,867.15,307.23Z" transform="translate(-347.87 -147.74)"/><path class="cls-3" d="M878.16,315.89c-1.42,0-2.12-1.09-2.91-2C877.1,313.28,877.81,314.33,878.16,315.89Z" transform="translate(-347.87 -147.74)"/><path class="cls-3" d="M779.12,235.75c-1-.75-2.45-1-2.52-2.61C778.15,233.32,779.28,233.92,779.12,235.75Z" transform="translate(-347.87 -147.74)"/><path class="cls-3" d="M782.12,238.25a9,9,0,0,1-2.88-2.37A2.17,2.17,0,0,1,782.12,238.25Z" transform="translate(-347.87 -147.74)"/><path class="cls-3" d="M787.62,242.75a8.14,8.14,0,0,1-2.88-2.37A2.19,2.19,0,0,1,787.62,242.75Z" transform="translate(-347.87 -147.74)"/><path class="cls-3" d="M796.12,249.75a8.45,8.45,0,0,1-2.88-2.37A2.19,2.19,0,0,1,796.12,249.75Z" transform="translate(-347.87 -147.74)"/><path class="cls-3" d="M799.14,251.91a4.5,4.5,0,0,1-2.91-2C797.87,249.51,798.53,250,799.14,251.91Z" transform="translate(-347.87 -147.74)"/><path class="cls-3" d="M801.63,254.24c-.94-.7-2.29-1-2.55-2.4C800.86,251.65,801.65,252.51,801.63,254.24Z" transform="translate(-347.87 -147.74)"/><path class="cls-3" d="M804.62,256.75a8.83,8.83,0,0,1-2.88-2.37A2.18,2.18,0,0,1,804.62,256.75Z" transform="translate(-347.87 -147.74)"/><path class="cls-3" d="M810.12,261.25a8,8,0,0,1-2.88-2.37A2.19,2.19,0,0,1,810.12,261.25Z" transform="translate(-347.87 -147.74)"/><path class="cls-3" d="M816.12,266.25a9.2,9.2,0,0,1-2.88-2.37A2.18,2.18,0,0,1,816.12,266.25Z" transform="translate(-347.87 -147.74)"/><path class="cls-3" d="M823.12,271.25a9.33,9.33,0,0,1-2.88-2.37C822,268.54,823.18,269.48,823.12,271.25Z" transform="translate(-347.87 -147.74)"/><path class="cls-3" d="M584.39,206.14c-.61,2.3-1,2.64-2.16,1.75C582.91,207.25,583.21,206.15,584.39,206.14Z" transform="translate(-347.87 -147.74)"/><path class="cls-3" d="M597.25,191.87l-1.85,2.45a.71.71,0,0,1-1.2-.26,1,1,0,0,0,.81-1C595.73,192.61,595.84,191,597.25,191.87Z" transform="translate(-347.87 -147.74)"/><path class="cls-6" d="M558.26,330.84c-1.22.47-2.21-.41-3.73-.42a6.31,6.31,0,0,1,3.27-.49C557.49,330.46,558.06,330.56,558.26,330.84Z" transform="translate(-347.87 -147.74)"/><path class="cls-3" d="M875.15,313.73a5.25,5.25,0,0,1-2.43-1.88C874.1,311.23,875.06,312,875.15,313.73Z" transform="translate(-347.87 -147.74)"/><path class="cls-3" d="M856.29,297.45c-1.53.46-2.24-.65-3-1.6C855,294.95,855.43,296.62,856.29,297.45Z" transform="translate(-347.87 -147.74)"/><path class="cls-3" d="M807.13,258.73a5.45,5.45,0,0,1-2.39-1.85C806.47,256.5,807,256.94,807.13,258.73Z" transform="translate(-347.87 -147.74)"/><path class="cls-3" d="M825.63,273.24a6.19,6.19,0,0,1-2.39-1.86C825,271,825.57,271.45,825.63,273.24Z" transform="translate(-347.87 -147.74)"/><path class="cls-3" d="M894.34,358.11c1,.07,1.86.41,2.08,1.57C895.06,360,894.36,359.52,894.34,358.11Z" transform="translate(-347.87 -147.74)"/><path class="cls-3" d="M890.84,355.61a1.85,1.85,0,0,1,2.07,1.56C891.6,357.48,890.92,356.95,890.84,355.61Z" transform="translate(-347.87 -147.74)"/><path class="cls-3" d="M869.64,309.23a5.33,5.33,0,0,1-2.39-1.87C869,307,869.53,307.44,869.64,309.23Z" transform="translate(-347.87 -147.74)"/><path class="cls-3" d="M885.34,351.61a1.81,1.81,0,0,1,2.07,1.56C886.09,353.49,885.42,352.94,885.34,351.61Z" transform="translate(-347.87 -147.74)"/><path class="cls-3" d="M872.15,310.88c-1.26.22-1.76-.75-2.4-1.52C871.31,308.66,871.93,309.46,872.15,310.88Z" transform="translate(-347.87 -147.74)"/><path class="cls-3" d="M784.63,240.24a5.65,5.65,0,0,1-2.38-1.86C784,238,784.54,238.43,784.63,240.24Z" transform="translate(-347.87 -147.74)"/><path class="cls-3" d="M419.43,266.84c-.23,1.13-1.08,1.44-2.07,1.56C417.36,267,418,266.44,419.43,266.84Z" transform="translate(-347.87 -147.74)"/><path class="cls-3" d="M424.93,262.84c-.22,1.14-1.08,1.44-2.07,1.57C422.84,263,423.54,262.45,424.93,262.84Z" transform="translate(-347.87 -147.74)"/><path class="cls-3" d="M426.92,261.34c-.19,1.18-1.05,1.47-2.07,1.56C424.86,261.48,425.58,261,426.92,261.34Z" transform="translate(-347.87 -147.74)"/><path class="cls-3" d="M532.65,345.91c-1-.14-1.86-.4-2.07-1.57Q532.65,343.74,532.65,345.91Z" transform="translate(-347.87 -147.74)"/><path class="cls-3" d="M430.42,258.84c-.2,1.17-1.09,1.42-2.07,1.56C428.34,259,429.09,258.51,430.42,258.84Z" transform="translate(-347.87 -147.74)"/><path class="cls-3" d="M885.17,324.42c-1.18-.19-1.54-1-1.56-2.07C885,322.41,885.47,323.1,885.17,324.42Z" transform="translate(-347.87 -147.74)"/><path class="cls-3" d="M858.65,300.23c-.84-.55-2.09-.7-2-2.11C858,298.13,858.93,298.59,858.65,300.23Z" transform="translate(-347.87 -147.74)"/><path class="cls-3" d="M842.13,286.74a6,6,0,0,1-2.38-1.86C841.48,284.5,842.07,285,842.13,286.74Z" transform="translate(-347.87 -147.74)"/><path class="cls-6" d="M856,340a.78.78,0,0,0,0,.37c-.54-.33-1-.33-1.37.27-.24-.46-.9-1-.33-1.42C855,338.65,855.4,339.73,856,340Z" transform="translate(-347.87 -147.74)"/><path class="cls-3" d="M776.35,232.88a1.88,1.88,0,0,1-2.28-1.54C775.58,230.73,775.95,231.84,776.35,232.88Z" transform="translate(-347.87 -147.74)"/><path class="cls-3" d="M891.17,332.92c-1.19-.19-1.53-1-1.56-2.07C891,330.89,891.47,331.61,891.17,332.92Z" transform="translate(-347.87 -147.74)"/><path class="cls-3" d="M831.13,277.74a5.63,5.63,0,0,1-2.39-1.86C830.48,275.5,831.06,275.95,831.13,277.74Z" transform="translate(-347.87 -147.74)"/><path class="cls-3" d="M864.14,304.72a4.84,4.84,0,0,1-2.39-1.87C863.48,302.52,864,302.94,864.14,304.72Z" transform="translate(-347.87 -147.74)"/><path class="cls-3" d="M887.59,327.4c-1.42.37-1.37-.68-1.49-1.56C887.36,325.64,887.61,326.39,887.59,327.4Z" transform="translate(-347.87 -147.74)"/><path class="cls-3" d="M793.13,247.24c-.73-.47-1.66-.71-2-1.68l0,.08,1.24-.12C792.73,246.07,794.18,246.15,793.13,247.24Z" transform="translate(-347.87 -147.74)"/><path class="cls-3" d="M853.15,295.73c-.33-.65-2.72-.25-1-1.95C852.56,294.4,854.07,294.44,853.15,295.73Z" transform="translate(-347.87 -147.74)"/><path class="cls-3" d="M888.67,329.42c-1.13-.25-1.46-.93-1.07-2C888.44,327.84,889.25,328.26,888.67,329.42Z" transform="translate(-347.87 -147.74)"/><path class="cls-3" d="M892.85,357.12c.84-.12,1.46.1,1.57,1.06C893.27,358.75,892.84,358.26,892.85,357.12Z" transform="translate(-347.87 -147.74)"/><path class="cls-6" d="M896.55,360.49a1.49,1.49,0,0,1,1.45,1A1.67,1.67,0,0,1,896.55,360.49Z" transform="translate(-347.87 -147.74)"/><path class="cls-3" d="M415.76,269.88a2,2,0,0,1-1.89,1C414,269.57,414.38,268.83,415.76,269.88Z" transform="translate(-347.87 -147.74)"/><path class="cls-3" d="M428.43,260.34c-.11,1-.72,1.19-1.57,1.05C426.93,260.38,427.21,259.66,428.43,260.34Z" transform="translate(-347.87 -147.74)"/><path class="cls-3" d="M417.43,268.34c0,1-.93,1-1.56,1.39C415.66,268.36,416,268,417.43,268.34Z" transform="translate(-347.87 -147.74)"/><path class="cls-3" d="M883.67,322.42c-1-.11-1.19-.72-1.06-1.57C883.76,320.84,884.23,321.28,883.67,322.42Z" transform="translate(-347.87 -147.74)"/><path class="cls-6" d="M623,160.57l-.57,1.56-.5,0C621.89,161.35,622.41,160.94,623,160.57Z" transform="translate(-347.87 -147.74)"/><path class="cls-3" d="M889.67,330.92c-1-.11-1.16-.74-1.06-1.57C889.75,329.35,890.26,329.77,889.67,330.92Z" transform="translate(-347.87 -147.74)"/><path class="cls-3" d="M892.17,334.42c-1-.11-1.18-.73-1.06-1.57C892.27,332.83,892.7,333.3,892.17,334.42Z" transform="translate(-347.87 -147.74)"/><path class="cls-6" d="M792.43,245.52l-1.24.12v.16l-.19-1.32A1.71,1.71,0,0,1,792.43,245.52Z" transform="translate(-347.87 -147.74)"/><path class="cls-6" d="M894,336a1.49,1.49,0,0,1-1-1.46A1.67,1.67,0,0,1,894,336Z" transform="translate(-347.87 -147.74)"/><path class="cls-3" d="M895.67,339.42c-1-.12-1.15-.75-1.06-1.57C895.74,337.85,896.28,338.25,895.67,339.42Z" transform="translate(-347.87 -147.74)"/><path class="cls-3" d="M530.63,344.4a1.94,1.94,0,0,1-1.89-1C530.11,342.34,530.54,343.06,530.63,344.4Z" transform="translate(-347.87 -147.74)"/><path class="cls-3" d="M886.17,325.92c-1-.1-1.22-.7-1.06-1.57C886.26,324.34,886.72,324.79,886.17,325.92Z" transform="translate(-347.87 -147.74)"/><path class="cls-6" d="M860.6,344.48a1.47,1.47,0,0,1,1.39,1.09A1.73,1.73,0,0,1,860.6,344.48Z" transform="translate(-347.87 -147.74)"/><path class="cls-3" d="M887.36,353.12c.94-.24,1.43.37,1.89,1C888,354.88,887.49,354.4,887.36,353.12Z" transform="translate(-347.87 -147.74)"/><path class="cls-3" d="M889.35,354.29c.71.25,1.53.36,1.57,1.37C889.57,356.15,889.1,355.63,889.35,354.29Z" transform="translate(-347.87 -147.74)"/><path class="cls-6" d="M644.38,172c-.45-.43-.28-.74.19-1C644.86,171.38,644.64,171.68,644.38,172Z" transform="translate(-347.87 -147.74)"/><path class="cls-6" d="M444,252.92a.94.94,0,0,1-1.23.46C443.14,253.07,443.44,252.63,444,252.92Z" transform="translate(-347.87 -147.74)"/><path class="cls-6" d="M527,229.42a1,1,0,0,1-1.23.46C526.14,229.56,526.45,229.13,527,229.42Z" transform="translate(-347.87 -147.74)"/><path class="cls-6" d="M766.71,227.37a.94.94,0,0,1-1.23-.45C766.05,226.63,766.36,227.07,766.71,227.37Z" transform="translate(-347.87 -147.74)"/><path class="cls-6" d="M745.24,221.35a1,1,0,0,1-1.27-.45C744.54,220.65,744.89,221,745.24,221.35Z" transform="translate(-347.87 -147.74)"/><path class="cls-6" d="M740.24,219.85a.91.91,0,0,1-1.3-.45C739.51,219.18,739.87,219.52,740.24,219.85Z" transform="translate(-347.87 -147.74)"/><path class="cls-6" d="M474,244.42a.94.94,0,0,1-1.22.46C473.16,244.6,473.44,244.12,474,244.42Z" transform="translate(-347.87 -147.74)"/><path class="cls-6" d="M564,218.92a.93.93,0,0,1-1.21.47C563.16,219.11,563.44,218.62,564,218.92Z" transform="translate(-347.87 -147.74)"/><path class="cls-6" d="M677.79,207.8a1,1,0,0,1-1.32-.37C677,207.16,677.41,207.49,677.79,207.8Z" transform="translate(-347.87 -147.74)"/><path class="cls-6" d="M902.08,353a.93.93,0,0,1-.47-1.21C901.89,352.17,902.38,352.44,902.08,353Z" transform="translate(-347.87 -147.74)"/><path class="cls-6" d="M470.52,245.42a.94.94,0,0,1-1.23.46C469.64,245.56,469.95,245.13,470.52,245.42Z" transform="translate(-347.87 -147.74)"/><path class="cls-6" d="M592,196.57a.93.93,0,0,1-.81,1C591.2,197,591.58,196.75,592,196.57Z" transform="translate(-347.87 -147.74)"/><path class="cls-6" d="M847.55,357a.92.92,0,0,1,1,.72C848,357.82,847.78,357.36,847.55,357Z" transform="translate(-347.87 -147.74)"/><path class="cls-6" d="M463.52,247.42a1,1,0,0,1-1.23.46C462.63,247.55,462.95,247.13,463.52,247.42Z" transform="translate(-347.87 -147.74)"/><path class="cls-6" d="M595,193.07a1,1,0,0,1-.81,1C594.19,193.49,594.59,193.27,595,193.07Z" transform="translate(-347.87 -147.74)"/><path class="cls-6" d="M692.82,209.75a.94.94,0,0,1-1.34-.33C692,209.15,692.4,209.51,692.82,209.75Z" transform="translate(-347.87 -147.74)"/><path class="cls-6" d="M803.5,297.47l-.43,1-.12-1Z" transform="translate(-347.87 -147.74)"/><path class="cls-6" d="M619.38,164.81a.6.6,0,0,1-.46.68Z" transform="translate(-347.87 -147.74)"/><path class="cls-3" d="M406.94,280.17c0,.41,0,.76-.55.75C406.15,280.36,406.34,280.12,406.94,280.17Z" transform="translate(-347.87 -147.74)"/><path class="cls-6" d="M862.74,345.84l-.12-.91a.68.68,0,0,1,.28.88Z" transform="translate(-347.87 -147.74)"/><path class="cls-6" d="M588.38,200.8a.61.61,0,0,1-.46.68Z" transform="translate(-347.87 -147.74)"/><path class="cls-6" d="M872.63,311.68c-.33-.14-.58-.33-.46-.76C872.82,310.87,873,311.11,872.63,311.68Z" transform="translate(-347.87 -147.74)"/><path class="cls-3" d="M591.75,198.41l-.83.83c-.12-.32-.41-.61,0-1S591.48,198.42,591.75,198.41Z" transform="translate(-347.87 -147.74)"/><path class="cls-8" d="M726.46,270.6c4.76-.14,6.92,3.21,9,6.68.29.49.57,1,.83,1.45a57.66,57.66,0,0,1-9,2.84c-7.8,1.43-15.63,2.9-23.26,5-5,1.4-9.63,4-14.45,6q-32.33,13.52-64.68,27c-3.57,1.49-7.42,1.21-11.13,1.81a122.16,122.16,0,0,1-14.22,1.79c-4.18.17-8.21,1.24-12.41,1.36-4.35.12-8.68,1-13,1.62L553.2,329c-5.8.77-11.58,1.65-17.4,2.27-5,.53-9.94,1.63-15,1.58a1.82,1.82,0,0,0-.74,0c-3.05,1.45-5.15-.47-7.35-2.05-9.1-6.54-18.19-13.1-27.37-19.53-.72-.5-1-1.72-2.17-1.55l-.08.18q.88-.56,0-1.14c.57-.75,0-1.13-.5-1.52.64-.28.39-.84.33-1.27-.28-2,.2-3.32,2.56-3.15,3.46-.29,6.94-.47,10.39-.88,7-.84,14.07.42,21.06-3.46,8.59-4.77,18.68-6.34,28-9.85,6.88-2.6,14-5.14,21.53-5.28,1.5,0,2-1.36,3.43-1.6,8.69-1.48,17.41-3,25.94-5.13,9.6-2.44,19.33-4.31,28.89-6.93,9-2.47,18.31-3.76,27.3-6.35,3.61-1,7.25-1.74,11-1.22,2.29.32,4.54.79,6.86.92a69.18,69.18,0,0,1,9.3.9c4.73.91,9.52,1.25,14.27,1.95,4.3.63,8.69.75,12.92,1.64C713,269,719.79,269.44,726.46,270.6Z" transform="translate(-347.87 -147.74)"/><path class="cls-9" d="M652,263.36c-9,2.59-18.28,3.88-27.3,6.35-9.56,2.62-19.29,4.49-28.89,6.93-8.53,2.17-17.25,3.64-25.94,5.13-1.44.25-1.93,1.58-3.43,1.6-7.55.13-14.64,2.68-21.53,5.28-9.28,3.5-19.37,5.07-28,9.85-7,3.89-14,2.63-21.06,3.46-3.45.41-6.93.59-10.39.88l.49-1.12c1.77-1.08,3.76-1.08,5.72-1.1,5.49,0,11,0,16.48,0,1.55,0,3.07,0,3.47-2,.08-.41.36-.84.83-.8,3.91.35,7.19-1.73,10.6-3,10.21-3.84,20.6-7,31-10.14,6.13-1.82,12.14-4.24,18.52-4.92,10.36-1.1,20.44-3.51,30.55-5.81,12-2.72,23.85-5.84,35.84-8.45,4.28-.93,8.51-2.28,12.93-2.56C652,263,652,263.2,652,263.36Z" transform="translate(-347.87 -147.74)"/><path class="cls-10" d="M806.44,304.6c-.58,0-1-.4-.9-.94.74-2.58-1.36-4.4-1.71-6.68l.93-.51h0c1.24,1.13,2.76,1.07,4.28,1l1.06,1.49c9.51,14.13,19.05,28.23,28.5,42.4,3,4.52,6.29,8.87,8.92,13.64-2.93-1.18-5.69-2.57-7.17-5.61a4.71,4.71,0,0,0-.79-.91c-3-4.76-5.93-9.53-9-14.27Q819.85,317.37,809,300.57a2.78,2.78,0,0,0-1.19-1.26c-.79.61.06,1.15.07,1.72C806.45,301.81,806.84,303.37,806.44,304.6Z" transform="translate(-347.87 -147.74)"/><path class="cls-11" d="M440.41,296.37a11,11,0,0,1-9.87,2.24c-2.39-.56-2.76-2.67-1-4.88,2.64-3.23,6.22-4.84,10.22-5.72a8.52,8.52,0,0,1,4.87.11c1.48.54,2.27,1.69,1.59,3.12-1.2,2.51-2.93,4.59-5.89,5.16-.53-.74.22-1.34.24-2,0-1.33-.19-2.54-1.48-3.14a2.08,2.08,0,0,0-2.66.67,3.32,3.32,0,0,0-.32,3.52c.56,1.32,1.75,1.29,3,1.09C439.53,296.43,439.92,295.82,440.41,296.37Z" transform="translate(-347.87 -147.74)"/><path class="cls-6" d="M652,263.36c0-.16,0-.33,0-.5a14.24,14.24,0,0,1,10.88-1.93c5.39,1.1,10.92.7,16.31,1.59,10.35,1.71,20.93,1.86,31.11,4.8a23.42,23.42,0,0,0,7.4.75,16.58,16.58,0,0,1,8.86,1.6l-.07.92c-6.67-1.16-13.44-1.64-20.08-3-4.24-.89-8.63-1-12.92-1.64-4.75-.7-9.54-1-14.27-1.95a69.18,69.18,0,0,0-9.3-.9c-2.32-.12-4.58-.6-6.86-.92C659.25,261.62,655.61,262.41,652,263.36Z" transform="translate(-347.87 -147.74)"/><path class="cls-3" d="M486,301.71l-.49,1.12c-2.36-.18-2.84,1.15-2.56,3.15.06.43.31,1-.33,1.27C480.7,303.84,481.69,302.21,486,301.71Z" transform="translate(-347.87 -147.74)"/><path class="cls-6" d="M809,297.46c-1.52.09-3,.16-4.28-1,1.44,0,2.95-.35,4.28.57A1.51,1.51,0,0,0,809,297.46Z" transform="translate(-347.87 -147.74)"/><path class="cls-3" d="M483.11,308.77q.87.58,0,1.14a.73.73,0,0,1-1.28-.32C481.65,308.6,482.68,309.08,483.11,308.77Z" transform="translate(-347.87 -147.74)"/><polygon class="cls-12" points="443.32 98.05 443.31 97.89 443.3 97.81 443.32 98 443.32 98.05"/><path class="cls-2" d="M880.21,349a32.52,32.52,0,0,0-5.17,0c-3.13.53-4.88-.85-6.64-3.34-13.17-18.65-26.5-37.19-39.77-55.78-.5-.7-1.58-1.44-.88-2.31.47-.6,1.54.07,2.35.1,5.35.23,7.88,4.19,10.67,7.9q19,25.29,38,50.56A5,5,0,0,1,880.21,349Z" transform="translate(-347.87 -147.74)"/><path class="cls-2" d="M854.63,345.21a.9.9,0,0,0-1.13.22c-1.16,1.15-1.45,1.35-3-.28-8.62-9-14.25-20.15-21.71-30-3-4-5.72-8.14-8.52-12.26-.68-1-1.56-1.93-1.62-3.36,3.32-.32,6.4,1,9.6,1.07.91,0,1.29.92,1.72,1.64q9.79,16.33,19.6,32.64c2,3.27,4.86,6.08,5.15,10.2Z" transform="translate(-347.87 -147.74)"/><path class="cls-4" d="M811,299c0-.25,0-.67.06-.71,1.38-.53,5.21.45,5.88,1.56,4.76,7.88,10.31,15.24,15.54,22.81,5.89,8.53,11.57,17.21,17.83,25.49,1.34,1.77.68,3.84.52,5.8a15.34,15.34,0,0,1-.51,2.22c-1.13,0-1-1.41-1.85-1.7a7.06,7.06,0,0,0-1.58-2.79q-11.56-17.14-23.19-34.24C819.53,311.27,815.59,304.93,811,299Z" transform="translate(-347.87 -147.74)"/><path class="cls-13" d="M811,299c4.55,5.92,8.49,12.26,12.69,18.43q11.65,17.08,23.19,34.24a7.06,7.06,0,0,1,1.58,2.79l-.14.68-.87-.15h0c-2.63-4.77-5.91-9.12-8.92-13.64-9.44-14.17-19-28.27-28.5-42.4Z" transform="translate(-347.87 -147.74)"/><path class="cls-10" d="M847.5,355l.87.15c.15.73-.06,1.23-.87,1.33Q847.5,355.73,847.5,355Z" transform="translate(-347.87 -147.74)"/><path class="cls-1" d="M828.29,299.28l.14.52-.57-.15Z" transform="translate(-347.87 -147.74)"/><path class="cls-2" d="M903.69,362.32l.13.62-.53-.2Z" transform="translate(-347.87 -147.74)"/><path class="cls-14" d="M358,340.55c-1.34-1.58-3.5-2-4.85-3.64-1.55-1.85-1.5-2.15.75-2.9,4.1-1.37,8.4-1,12.59-1.35,8.95-.77,17.93-1.22,26.9-1.65,8.06-.38,15.73-2.86,23.61-4.19,5.29-.89,10.51-2.21,15.78-3.2a8.38,8.38,0,0,1,6.61,1.25c4,2.75,8.21,5.23,13,8.25-5.58.5-10.43.92-15.27,1.36-6.69.61-13.37,1.26-20.06,1.86-4.46.4-8.93.74-13.39,1.14-6.86.61-13.7,1.29-20.56,1.88q-10.91.93-21.83,1.71a14.33,14.33,0,0,1-3.35-.56Z" transform="translate(-347.87 -147.74)"/><path class="cls-15" d="M518.37,334.35c6.37-.78,12.74-1.53,19.1-2.34,3.25-.42,6.47-1,9.72-1.4.38,0,1.67-.89,1.09.77-.14.42.43.61.88.64,6.08.38,12.09,1.64,18.22,1.55a2.13,2.13,0,0,1,.89.33l7.92,4a66.9,66.9,0,0,0-7.47,2.93c-5.92,2.83-11.63.28-17.41.12-4.7-.13-9.38-.86-14.08-1-4.89-.1-9.53-1.49-14.31-2.15C521,337.62,519.83,335.83,518.37,334.35Z" transform="translate(-347.87 -147.74)"/><path class="cls-16" d="M806.44,304.6c.39-1.23,0-2.79,1.49-3.57,1.74,4.13,4.82,7.46,7,11.36,1.32,2.37,2.66,5.11,4.76,7.2a8.81,8.81,0,0,1,2.85,4.84,2.18,2.18,0,0,0,1.05,1.59c.47.32,1.08.75,1.19,1.23.91,4,4.82,6.3,6,10.26.41,1.38,2.2,2.35,3.08,3.77a6.75,6.75,0,0,1,1.31,3.68l-1.16.53c-3.2-2.18-6.41-4.34-9.58-6.55-2.45-1.72-4.16-4.39-7.12-5.46a1.09,1.09,0,0,1-.6-.75c-.37-4.3-3.46-7.7-3.91-12-.12-1.12-1.3-2.09-1.69-3.24-1.16-3.39-2.17-6.84-3.23-10.27-.25-.81-.5-1.61-1.54-1.7Z" transform="translate(-347.87 -147.74)"/><path class="cls-10" d="M836.08,345.9c.9.3,1.87.76,1.1,1.81-.38.53-.92-.25-1.18-.75Z" transform="translate(-347.87 -147.74)"/><path class="cls-10" d="M834,345.48l1.16-.53.37.37-.53,1.15A1.44,1.44,0,0,1,834,345.48Z" transform="translate(-347.87 -147.74)"/><path class="cls-16" d="M835,346.47l.53-1.15.53.58L836,347C835.6,347,835.22,346.9,835,346.47Z" transform="translate(-347.87 -147.74)"/><path class="cls-10" d="M838.35,348.62c-.06,0-.14.05-.16,0s-.06-.12-.08-.18l.28-.05Z" transform="translate(-347.87 -147.74)"/><path class="cls-7" d="M440.41,296.37c-.49-.55-.88.06-1.3.13-1.21.2-2.39.24-3-1.09a3.32,3.32,0,0,1,.32-3.52,2.08,2.08,0,0,1,2.66-.67c1.29.6,1.51,1.81,1.48,3.14,0,.7-.77,1.3-.24,2Z" transform="translate(-347.87 -147.74)"/></svg>