<svg id="Ebene_1" data-name="Ebene 1" xmlns="http://www.w3.org/2000/svg" viewBox="0 0 1080.09 810.09"><defs><style>.cls-1{fill:#fefefe;}.cls-2{fill:#01b9ca;}.cls-3{fill:#456462;}.cls-4{fill:#4a6563;}.cls-5{fill:#4e6964;}.cls-6{fill:#4b6460;}.cls-7{fill:#494947;}.cls-8{fill:#1f2322;}.cls-9{fill:#efede1;}.cls-10{fill:#3ed0b8;}.cls-11{fill:#307373;}.cls-12{fill:#28696f;}.cls-13{fill:#507d7f;}.cls-14{fill:#3ecfb8;}.cls-15{fill:#020202;}</style></defs><title>fish aqua</title><path class="cls-1" d="M1151.25,847.91q-268.75,0-537.5,0c-1.87,0-2.3-.42-2.3-2.3q.07-402.75,0-805.5c0-1.87.42-2.3,2.3-2.3q537.75.07,1075.5,0c1.87,0,2.3.42,2.3,2.3q-.07,402.75,0,805.5c0,1.87-.42,2.3-2.3,2.3Q1420.25,847.88,1151.25,847.91ZM1141,669.8c-1.42,1.15-2.68,2.53-4.45,3.21-3.29,1.19-3.3,1.19-4.18-2.34q-1.9-7.62-3.78-15.25l-9.44-38.27c-.19-.78-.1-1.7-1.29-1.82-4.58-.48-9.2-.78-13.73-1.55-3.57-.61-7.18-.89-10.76-1.26-3-.3-5.86-1-8.83-1.11-1.13-.06-2.17,0-2.08,1.55a5.9,5.9,0,0,0,.77,2.6q7.84,20.55,15.72,41.09c.92,2.42.69,2.88-1.85,2.71-6.21-.4-12.37.74-18.56.59l-9,0-2.4.1c-3.56.5-7.17.06-10.71.47-2.58.3-5.2,1.38-6.44-2.41a10.8,10.8,0,0,0,.56,3.5c3.6,10.19,7.27,20.35,10.8,30.56.4,1.15,1.83,2.38.37,3.83-.26.26.28.43.46.64,1.34,1.58,2.36-.2,3.53-.3,6.63-.6,13.25-1.3,19.86-2,6.81-.75,13.63-1.49,20.43-2.31,8.08-1,16.19-1.69,24.27-2.69a8,8,0,0,1,4.3.56c15,6.27,30.07,12.59,45.18,18.71,13.31,5.39,26.29,11.63,40,16L1203.91,737c8.64.21,16.92,1.48,25.26,2,4.52.3,9,.93,13.57,1,.51,0,1.87.68,1.5-.67-.3-1.09.3-1.55.7-2.19,2-3.27,4.19-6.42,6-9.8a11,11,0,0,1,3.51-4q36.24-26,72.44-52c1.38-1,2.74-2,4.49-3.29l-13.67-2.79a59,59,0,0,1,9.76-5.59c2.12-1,2.9-1.89,1-3.76a.49.49,0,0,0-.48-.64c-.39,0-.52.26-.58.58l-.19.12,0,0c-10-1.63-20.07-3.24-30.1-4.9-2.41-.4-5-.24-7.07-1.94-.35-.36-.67-.73-1-1.06q-24.63-21.9-49.25-43.8c-1.71-1.52-4.49-2.69-1.71-6-1.6.33-1.87,1.29-2.34,2-3.42,5-6.85,10-10.19,15.1a2.64,2.64,0,0,1-3.27,1.33c-5.75-1.29-11.54-2.4-17.32-3.58l-5.45-1.78c-1.53-1.28-2,.4-2.68,1.06q-18.89,19.26-37.7,38.6C1153,657.19,1147,663.51,1141,669.8Z" transform="translate(-611.45 -37.86)"/><path class="cls-2" d="M1327.27,655.95l0,0c1.43,1,1.43,1.88-.06,2.77a17,17,0,0,1-2,1.09c-2.43,1-4.57,2.69-7.24,3.27a2.13,2.13,0,0,0-1.81,2.12c.1,1.07,1.3.83,2,1.08,1,.36,2.13.35,3.16.65,2.31.68,4.89.46,7.18,1.9-.67.58-1.14,1-1.68,1.43q-37.6,27-75.19,54a5.14,5.14,0,0,1-3.68,1.12c-9.26-.85-18.52-1.61-27.77-2.53a23.88,23.88,0,0,1-7.07-1.32q-39-16.27-78-32.44c-4.39-1.82-4.54-1.82-3.53-6.34.77-3.43,0-7.84,5-9.05l.56.15c.24.63.49.37.73,0l3.65-2.5a3.28,3.28,0,0,0,3-1.47h0a3.69,3.69,0,0,0,3.52-1.51h0a17.08,17.08,0,0,0,8-3.51h0a13.27,13.27,0,0,0,7-3h0a3.76,3.76,0,0,0,3.52-1.51h0a5.7,5.7,0,0,0,4.52-2h0a3.66,3.66,0,0,0,3.52-1.51h0a36.34,36.34,0,0,0,11.52-5h0a3.66,3.66,0,0,0,3.52-1.51h0c2.39-.12,4.34-1.36,6.35-2.44.9-.42,1.61-1.29,2.75-1.12.92-.29,1.95-.41,2.42-1.45h0a3.65,3.65,0,0,0,3.52-1.51h0c3.84-.58,7.05-2.81,10.63-4.08a5.12,5.12,0,0,1,2.8-.67c13.24,2.17,26.5,4.22,39.75,6.35,10.79,1.73,21.57,3.52,32.35,5.28,1.47,1.31,3.28.52,4.92.79q15.08,2.47,30.18,4.84C1325.89,656.57,1326.78,657.09,1327.27,655.95ZM1297,669.37l0,0,.51-.52,0,0a.75.75,0,0,0,.53-1h0c.57-.14.59-.55.51-1v0c1.53-2.47,1.18-4.79-1-6.51l0,0c0-.35-.15-.53-.51-.52h0c.07-.75-.28-1.07-1-1h0c0-.35-.19-.51-.53-.49h0c-.14-.55-.54-.61-1-.53h0c-.15-.56-.57-.58-1-.5h0a5.26,5.26,0,0,0-6.5,0h0c-.46-.08-.88-.07-1,.49h0c-.47-.08-.87,0-1,.54h0c-.35,0-.55.11-.51.5h0c-.47,0-.63.25-.57.68a.56.56,0,0,1-.26.25.56.56,0,0,0-.67.58l0,0c-.55.14-.61.54-.53,1v0a4.64,4.64,0,0,0,.5,6.52l0,0a1.65,1.65,0,0,0,1.55,2h0a.75.75,0,0,0,1,.55l0,0c.15.55.54.61,1,.52h0a6.83,6.83,0,0,0,9-.51l0,0a.76.76,0,0,0,1-.55l0,0Zm-42.55,10.89.44-.53c-3.31-2.28-6.63-4.56-9.93-6.86-.51-.35-1.37-.59-1.15-1.4s1-.49,1.52-.62q11.09-2.73,22.18-5.46a4.74,4.74,0,0,0,2.85-1.44L1240.89,671Z" transform="translate(-611.45 -37.86)"/><path class="cls-3" d="M1136.53,673.72c-4.93,1.21-4.18,5.62-5,9.05-1,4.53-.86,4.52,3.53,6.34q39,16.19,78,32.44a23.88,23.88,0,0,0,7.07,1.32c9.25.91,18.51,1.68,27.77,2.53a5.14,5.14,0,0,0,3.68-1.12q37.57-27,75.19-54c.53-.38,1-.85,1.68-1.43-2.29-1.45-4.87-1.22-7.18-1.9-1-.3-2.16-.29-3.16-.65-.7-.25-1.91,0-2-1.08a2.13,2.13,0,0,1,1.81-2.12c2.67-.58,4.81-2.23,7.24-3.27a17,17,0,0,0,2-1.09c1.48-.88,1.49-1.81.06-2.77l.19-.12,1.06.06c1.86,1.87,1.09,2.8-1,3.76a59,59,0,0,0-9.76,5.59l13.67,2.79c-1.75,1.29-3.11,2.3-4.49,3.29q-36.21,26-72.44,52a11,11,0,0,0-3.51,4c-1.79,3.37-4,6.53-6,9.8-.39.64-1,1.11-.7,2.19.37,1.35-1,.68-1.5.67-4.54-.05-9-.69-13.57-1-8.34-.54-16.63-1.81-25.26-2l15.77-12.38c-13.69-4.4-26.67-10.64-40-16-15.11-6.12-30.13-12.43-45.18-18.71a8,8,0,0,0-4.3-.56c-8.08,1-16.19,1.71-24.27,2.69-6.8.83-13.62,1.56-20.43,2.31-6.61.73-13.23,1.43-19.86,2-1.16.1-2.19,1.88-3.53.3-.18-.22-.72-.38-.46-.64,1.46-1.45,0-2.68-.37-3.83-3.53-10.21-7.2-20.37-10.8-30.56a10.8,10.8,0,0,1-.56-3.5c1.25,3.79,3.86,2.71,6.44,2.41,3.55-.41,7.16,0,10.71-.47a3.64,3.64,0,0,0,2.4-.1l9,0v.5a15.06,15.06,0,0,1-1.95.31c-7.41.24-14.81.52-22.22.62-2.22,0-2.73.5-1.94,2.69q5.27,14.66,10.27,29.42c.59,1.74,1.51,2.11,3.13,1.93,6.68-.74,13.38-1.42,20.06-2.14q13.13-1.42,26.25-2.88c5.36-.59,10.73-1.19,16.08-1.85.54-.07,1.42.31,1.59-.73,1-5.79,3.54-11.44,1.62-17.5-.35-1.11-.63-2.24-.91-3.37q-6-24.53-12.05-49.07a2.35,2.35,0,0,0-2.39-2c-9.82-1.06-19.63-2.28-29.45-3.35-1.21-.13-2.62-.82-3.74.41l-.44,0c-.09-1.57.95-1.61,2.08-1.55,3,.16,5.87.81,8.83,1.11,3.58.37,7.18.65,10.76,1.26,4.53.77,9.15,1.08,13.73,1.55,1.19.12,1.1,1,1.29,1.82l9.44,38.27q1.88,7.63,3.78,15.25c.88,3.54.89,3.53,4.18,2.34Zm69.82,62.46c7,.61,13.45,1.19,19.88,1.7,4.88.39,9.77.69,14.65,1a2.32,2.32,0,0,0,2.54-1.06c2.26-3.77,4.62-7.47,7.06-11.4-3.08-.81-6-.73-8.85-1-4.94-.54-9.9-1-14.85-1.37-1.79-.15-3.82-.86-5.33.28C1216.48,728,1211.66,732,1206.35,736.18Z" transform="translate(-611.45 -37.86)"/><path class="cls-4" d="M1205,613c5.78,1.18,11.57,2.29,17.32,3.58a2.64,2.64,0,0,0,3.27-1.33c3.33-5.07,6.76-10.08,10.19-15.1.47-.69.74-1.65,2.34-2-2.77,3.33,0,4.5,1.71,6q24.62,21.91,49.25,43.8c.37.33.69.71,1,1.06l-.13,1.31L1289,650c.54-1.16-.63-1.36-1.13-1.81q-10.77-9.65-21.6-19.22-14.64-13-29.27-26c-1.1-1-1.55-.94-2.37.31-2.91,4.45-6,8.78-8.92,13.22a2.16,2.16,0,0,1-2.78,1.15c-5.57-1.28-11.2-2.31-16.8-3.44l-.52,0,.19.36c-.48.38-.94.45-1.36-.09C1205.14,614.18,1204.93,613.57,1205,613Z" transform="translate(-611.45 -37.86)"/><path class="cls-5" d="M1141,669.8c6.06-6.29,12.09-12.61,18.18-18.87q18.81-19.34,37.7-38.6c.66-.67,1.16-2.35,2.68-1.06l-.11.7c-.77-.15-1.23.33-1.71.81-6.24,6.35-12.51,12.67-18.74,19-12.62,12.91-25,26-37.89,38.69Z" transform="translate(-611.45 -37.86)"/><path class="cls-6" d="M1078.51,660.45v-.5c6.2.15,12.35-1,18.56-.59,2.54.16,2.77-.3,1.85-2.71q-7.85-20.55-15.72-41.09a5.9,5.9,0,0,1-.77-2.59l.44,0a6.14,6.14,0,0,1,.64,1q6,15.67,12,31.34,2.78,7.26,5.58,14.53C1093.41,660.13,1086,660.59,1078.51,660.45Z" transform="translate(-611.45 -37.86)"/><path class="cls-3" d="M1290,650.41l.13-1.31c2.07,1.7,4.65,1.54,7.07,1.94,10,1.66,20.07,3.27,30.1,4.9-.48,1.14-1.38.62-2.14.5Q1310,654,1295,651.6c-1.64-.27-3.46.52-4.92-.79Q1290,650.61,1290,650.41Z" transform="translate(-611.45 -37.86)"/><path class="cls-7" d="M1141,669.8l.12.7.36.54a1.51,1.51,0,0,0,0,.34l-3.65,2.5h-.73l-.56-.15,0-.72C1138.28,672.33,1139.54,671,1141,669.8Z" transform="translate(-611.45 -37.86)"/><path class="cls-8" d="M1199.42,612l.11-.7L1205,613c0,.52.16,1.13-.5,1.44C1202.77,613.66,1200.79,613.42,1199.42,612Z" transform="translate(-611.45 -37.86)"/><path class="cls-9" d="M1069.51,659.91a3.64,3.64,0,0,1-2.4.1Z" transform="translate(-611.45 -37.86)"/><path class="cls-4" d="M1328.49,655.91l-1.06-.06c.06-.33.19-.62.58-.58A.49.49,0,0,1,1328.49,655.91Z" transform="translate(-611.45 -37.86)"/><path class="cls-10" d="M1199.42,612c1.37,1.46,3.36,1.71,5.05,2.53.42.53.88.46,1.36.09l.33-.33c5.6,1.13,11.23,2.16,16.8,3.44a2.16,2.16,0,0,0,2.78-1.15c2.92-4.44,6-8.77,8.92-13.22.82-1.26,1.28-1.29,2.37-.31q14.59,13,29.27,26,10.82,9.59,21.6,19.22c.5.45,1.67.64,1.13,1.81-10.72-1.72-21.43-3.41-32.14-5.17-11.69-1.92-23.37-3.9-35.06-5.83-2-.34-4.51-1.38-6.05-.62-3.75,1.86-7.74,3.29-11.3,5.56h0a5.6,5.6,0,0,0-3.52,1.51h0c-1,.13-2.15.08-2.42,1.45-1.14-.18-1.86.69-2.75,1.12-2.46-.08-4.39,1.22-6.35,2.44h0a5.62,5.62,0,0,0-3.52,1.51h0a61.64,61.64,0,0,0-11.52,5h0a5.6,5.6,0,0,0-3.52,1.51h0a8.81,8.81,0,0,0-4.52,2h0a5.33,5.33,0,0,0-3.52,1.51h0a21.73,21.73,0,0,0-7,3h0a26.71,26.71,0,0,0-8,3.51h0a5.46,5.46,0,0,0-3.52,1.51h0a5.94,5.94,0,0,0-3.07,1.13l-.36-.54c12.86-12.67,25.27-25.78,37.89-38.69,6.22-6.37,12.49-12.69,18.74-19C1198.18,612.28,1198.65,611.81,1199.42,612Z" transform="translate(-611.45 -37.86)"/><path class="cls-9" d="M1283.68,659.85a.56.56,0,0,0,.26-.25l.57-.68h0c.32,0,.51-.16.51-.5h0a.81.81,0,0,0,1-.54h0c.42,0,.87,0,1-.49h6.46c.16.55.6.5,1,.5h0c.16.51.55.58,1,.53h0c0,.34.22.47.53.49h0a1.55,1.55,0,0,0,1,1h0a.51.51,0,0,0,.51.52l0,0a10.78,10.78,0,0,1,1,6.51v0c-.54.15-.55.57-.51,1h0c-.48.17-.75.46-.53,1l0,0c-.47-.12-.6.09-.51.52l0,0c-.44-.09-.62.06-.52.52l0,0c-.54-.19-.82.09-1,.55l0,0a12.62,12.62,0,0,1-9,.51h0c-.17-.5-.58-.53-1-.52l0,0c-.18-.46-.45-.76-1-.55h0c-.05-1-.87-1.45-1.55-2l0,0a8.79,8.79,0,0,1-.5-6.52v0a.81.81,0,0,0,.53-1l0,0Zm9.26,5.15,0,0a4.62,4.62,0,0,0-4-1.9h-1.39c-1.7-.11-2.59.48-2,2.34a2.68,2.68,0,0,0,1.53,2,3.08,3.08,0,0,0,2.49,1.36l.94.12a1.07,1.07,0,0,0,1.48,0c.53-.05,1.14.09,1.45-.54C1294.88,667,1294.27,665.93,1292.94,665Z" transform="translate(-611.45 -37.86)"/><path class="cls-11" d="M1204.49,643.92c3.55-2.27,7.54-3.69,11.3-5.56,1.54-.76,4,.28,6.05.62,11.69,1.93,23.37,3.91,35.06,5.83,10.71,1.76,21.43,3.45,32.14,5.17l.93.43q0,.2.06.4c-10.78-1.76-21.56-3.55-32.35-5.29-13.25-2.13-26.51-4.18-39.75-6.35a5.12,5.12,0,0,0-2.8.67C1211.55,641.11,1208.33,643.34,1204.49,643.92Z" transform="translate(-611.45 -37.86)"/><path class="cls-12" d="M1254.43,680.26,1240.89,671l29.43-7.09a4.74,4.74,0,0,1-2.85,1.44q-11.08,2.75-22.18,5.46c-.55.13-1.34,0-1.52.62s.65,1,1.15,1.4c3.3,2.3,6.62,4.58,9.93,6.86Z" transform="translate(-611.45 -37.86)"/><path class="cls-11" d="M1174.49,656.92a61.64,61.64,0,0,1,11.52-5A36.34,36.34,0,0,1,1174.49,656.92Z" transform="translate(-611.45 -37.86)"/><path class="cls-13" d="M1286.49,670.91a12.62,12.62,0,0,0,9-.51A6.83,6.83,0,0,1,1286.49,670.91Z" transform="translate(-611.45 -37.86)"/><path class="cls-11" d="M1148,668.42a26.71,26.71,0,0,1,8-3.51A17.08,17.08,0,0,1,1148,668.42Z" transform="translate(-611.45 -37.86)"/><path class="cls-11" d="M1156,664.92a21.73,21.73,0,0,1,7-3A13.27,13.27,0,0,1,1156,664.92Z" transform="translate(-611.45 -37.86)"/><path class="cls-13" d="M1298.48,666.91a10.78,10.78,0,0,0-1-6.51C1299.66,662.12,1300,664.43,1298.48,666.91Z" transform="translate(-611.45 -37.86)"/><path class="cls-11" d="M1189.49,650.42c2-1.22,3.89-2.53,6.35-2.44C1193.83,649.06,1191.88,650.3,1189.49,650.42Z" transform="translate(-611.45 -37.86)"/><path class="cls-13" d="M1293.5,657.43H1287A5.26,5.26,0,0,1,1293.5,657.43Z" transform="translate(-611.45 -37.86)"/><path class="cls-13" d="M1282.5,661.4a8.79,8.79,0,0,0,.5,6.52A4.64,4.64,0,0,1,1282.5,661.4Z" transform="translate(-611.45 -37.86)"/><path class="cls-11" d="M1166.49,660.42a8.81,8.81,0,0,1,4.52-2A5.7,5.7,0,0,1,1166.49,660.42Z" transform="translate(-611.45 -37.86)"/><path class="cls-11" d="M1201,645.42a5.6,5.6,0,0,1,3.52-1.51A3.65,3.65,0,0,1,1201,645.42Z" transform="translate(-611.45 -37.86)"/><path class="cls-11" d="M1186,651.92a5.62,5.62,0,0,1,3.52-1.51A3.66,3.66,0,0,1,1186,651.92Z" transform="translate(-611.45 -37.86)"/><path class="cls-11" d="M1171,658.42a5.6,5.6,0,0,1,3.52-1.51A3.66,3.66,0,0,1,1171,658.42Z" transform="translate(-611.45 -37.86)"/><path class="cls-11" d="M1163,661.92a5.33,5.33,0,0,1,3.52-1.51A3.76,3.76,0,0,1,1163,661.92Z" transform="translate(-611.45 -37.86)"/><path class="cls-11" d="M1144.49,669.92a5.46,5.46,0,0,1,3.52-1.51A3.69,3.69,0,0,1,1144.49,669.92Z" transform="translate(-611.45 -37.86)"/><path class="cls-11" d="M1141.44,671a5.94,5.94,0,0,1,3.07-1.13,3.28,3.28,0,0,1-3,1.47A1.5,1.5,0,0,1,1141.44,671Z" transform="translate(-611.45 -37.86)"/><path class="cls-11" d="M1198.6,646.86c.27-1.38,1.4-1.32,2.42-1.45C1200.55,646.45,1199.52,646.57,1198.6,646.86Z" transform="translate(-611.45 -37.86)"/><path class="cls-13" d="M1283,667.9c.68.53,1.5,1,1.55,2A1.65,1.65,0,0,1,1283,667.9Z" transform="translate(-611.45 -37.86)"/><path class="cls-13" d="M1297,659.91a1.55,1.55,0,0,1-1-1C1296.73,658.84,1297.09,659.16,1297,659.91Z" transform="translate(-611.45 -37.86)"/><path class="cls-13" d="M1286,657.9a.81.81,0,0,1-1,.54C1285.14,657.87,1285.54,657.82,1286,657.9Z" transform="translate(-611.45 -37.86)"/><path class="cls-13" d="M1295.5,658.43c-.46,0-.85,0-1-.53C1295,657.82,1295.36,657.88,1295.5,658.43Z" transform="translate(-611.45 -37.86)"/><path class="cls-13" d="M1294.51,657.92c-.43,0-.87.06-1-.5C1293.94,657.34,1294.36,657.35,1294.51,657.92Z" transform="translate(-611.45 -37.86)"/><path class="cls-13" d="M1287,657.42c-.16.54-.61.49-1,.49C1286.14,657.35,1286.56,657.34,1287,657.42Z" transform="translate(-611.45 -37.86)"/><path class="cls-13" d="M1298,667.91c0-.44,0-.86.51-1C1298.57,667.35,1298.55,667.77,1298,667.91Z" transform="translate(-611.45 -37.86)"/><path class="cls-13" d="M1297.45,668.89c-.21-.54.05-.83.53-1A.75.75,0,0,1,1297.45,668.89Z" transform="translate(-611.45 -37.86)"/><path class="cls-13" d="M1284.52,669.87c.55-.21.81.09,1,.55A.75.75,0,0,1,1284.52,669.87Z" transform="translate(-611.45 -37.86)"/><path class="cls-13" d="M1295.49,670.42c.18-.47.46-.74,1-.55A.76.76,0,0,1,1295.49,670.42Z" transform="translate(-611.45 -37.86)"/><path class="cls-13" d="M1285.49,670.4c.43,0,.85,0,1,.52C1286,671,1285.64,670.95,1285.49,670.4Z" transform="translate(-611.45 -37.86)"/><path class="cls-3" d="M1137.09,673.87h.73C1137.58,674.24,1137.33,674.5,1137.09,673.87Z" transform="translate(-611.45 -37.86)"/><path class="cls-13" d="M1283,660.41a.81.81,0,0,1-.53,1C1282.41,660.95,1282.47,660.55,1283,660.41Z" transform="translate(-611.45 -37.86)"/><path class="cls-13" d="M1284.51,658.92l-.57.68C1283.89,659.17,1284,658.91,1284.51,658.92Z" transform="translate(-611.45 -37.86)"/><path class="cls-13" d="M1296,658.91c-.31,0-.52-.15-.53-.49C1295.82,658.4,1296,658.55,1296,658.91Z" transform="translate(-611.45 -37.86)"/><path class="cls-13" d="M1285,658.42c0,.34-.19.49-.51.5C1284.47,658.54,1284.67,658.41,1285,658.42Z" transform="translate(-611.45 -37.86)"/><path class="cls-13" d="M1283.68,659.85l-.67.58A.56.56,0,0,1,1283.68,659.85Z" transform="translate(-611.45 -37.86)"/><path class="cls-13" d="M1297,669.39c-.09-.43,0-.64.51-.52Z" transform="translate(-611.45 -37.86)"/><path class="cls-13" d="M1296.46,669.89c-.1-.45.08-.61.52-.52Z" transform="translate(-611.45 -37.86)"/><path class="cls-13" d="M1297.51,660.42a.51.51,0,0,1-.51-.52C1297.36,659.89,1297.52,660.07,1297.51,660.42Z" transform="translate(-611.45 -37.86)"/><path class="cls-10" d="M1078.51,660.45c7.46.14,14.9-.31,22.57-.62q-2.79-7.28-5.58-14.53-6-15.67-12-31.34a6.14,6.14,0,0,0-.64-1c1.12-1.23,2.53-.54,3.74-.41,9.82,1.07,19.63,2.29,29.45,3.35a2.35,2.35,0,0,1,2.39,2q6,24.54,12.05,49.07c.28,1.13.56,2.26.91,3.37,1.92,6.07-.65,11.71-1.62,17.5-.17,1-1.06.66-1.59.73-5.36.66-10.72,1.26-16.08,1.85q-13.12,1.45-26.25,2.88c-6.69.72-13.38,1.4-20.06,2.14-1.62.18-2.54-.19-3.13-1.93q-5-14.75-10.27-29.42c-.79-2.19-.27-2.67,1.94-2.69,7.41-.09,14.81-.38,22.22-.62A15.06,15.06,0,0,0,1078.51,660.45Z" transform="translate(-611.45 -37.86)"/><path class="cls-14" d="M1206.35,736.18c5.31-4.19,10.12-8.13,15.1-11.86,1.51-1.13,3.54-.42,5.33-.28,5,.41,9.91.83,14.85,1.37,2.86.31,5.77.23,8.85,1-2.45,3.93-4.8,7.64-7.06,11.4a2.32,2.32,0,0,1-2.54,1.06c-4.88-.35-9.77-.65-14.65-1C1219.8,737.37,1213.38,736.78,1206.35,736.18Z" transform="translate(-611.45 -37.86)"/><path class="cls-10" d="M1205.83,614.57l-.19-.36.52,0Z" transform="translate(-611.45 -37.86)"/><path class="cls-15" d="M1287.08,667.36a2.68,2.68,0,0,1-1.53-2c.25-1.14,1.39-1.52,2-2.34h1.39a7.92,7.92,0,0,0,4,1.9l0,0c.14,1.11.85,2.13.51,3.31-.32.63-.92.49-1.45.54a.92.92,0,0,0-1.48,0l-.94-.12C1289.08,667.64,1288.09,667.49,1287.08,667.36Z" transform="translate(-611.45 -37.86)"/><path class="cls-7" d="M1292.9,665a7.92,7.92,0,0,1-4-1.9A4.62,4.62,0,0,1,1292.9,665Z" transform="translate(-611.45 -37.86)"/><path class="cls-7" d="M1293.45,668.31c.34-1.18-.37-2.2-.51-3.31C1294.27,665.93,1294.88,667,1293.45,668.31Z" transform="translate(-611.45 -37.86)"/><path class="cls-7" d="M1287.56,663.07c-.62.82-1.76,1.2-2,2.34C1285,663.55,1285.85,663,1287.56,663.07Z" transform="translate(-611.45 -37.86)"/><path class="cls-7" d="M1287.08,667.36c1,.12,2,.28,2.49,1.36A3.08,3.08,0,0,1,1287.08,667.36Z" transform="translate(-611.45 -37.86)"/><path class="cls-7" d="M1290.51,668.84a.92.92,0,0,1,1.48,0A1.07,1.07,0,0,1,1290.51,668.84Z" transform="translate(-611.45 -37.86)"/></svg>