<svg id="Ebene_1" data-name="Ebene 1" xmlns="http://www.w3.org/2000/svg" viewBox="0 0 281.24 141.8"><defs><style>.cls-1{fill:#64a46a;}.cls-2{fill:#aed34e;}.cls-3{fill:#fefefe;}</style></defs><title>fish_green</title><path class="cls-1" d="M1050.26,657.73c.8,3.68,3.36,2.69,5.55,2.66,9.24-.11,18.47-.6,27.72-.67,4.61,0,9.26-.47,13.9-.66,2-.08,2.16-.58,1.49-2.3-4.13-10.62-8.17-21.28-12.25-31.92-1.37-3.57-2.77-7.14-4.11-10.72-.8-2.12,0-3,2.12-2.78,8.57,1,17.15,2,25.72,3,2.71.33,6-.34,8,1.32s1.63,4.9,2.27,7.47c4,16.15,8,32.3,11.92,48.48.5,2.09,1.14,2.48,3.14,1.66a18.43,18.43,0,0,0,6.1-4.64q27.13-27.83,54.23-55.69c1.74-1.8,3-2.2,5.48-1.22,5.5,2.15,11.46,2.74,17.22,4,5.57,1.26,5.59,1.18,8.81-3.58,2.75-4.07,5.5-8.14,8.28-12.19.44-.64.65-1.56,1.65-1.67.12.16.32.35.3.38-1.58,2.12-.42,3.35,1.23,4.8q25.38,22.42,50.64,45a7.81,7.81,0,0,0,4.17,2q15.92,2.49,31.8,5.19c1.21.21,2.83-1.35,3.69.87.49,1.27.63,2-.82,2.66-2.87,1.33-5.64,2.85-8.45,4.31-.73.38-1.43.8-2.86,1.6l11,2.19c.41.08.83.11,1.23.21s1.29,0,1.41.72c.1.61-.55.74-.95,1l-9.14,6.55q-33.68,24.2-67.39,48.35c-1.27.91-1.68,2.16-2.39,3.33-1.92,3.12-3.87,6.22-5.82,9.32-.22.35-.64.71-.63,1.06.11,3.08-2,2.18-3.65,2.06q-16.57-1.26-33.13-2.62a9.79,9.79,0,0,0-3.6.37l-.32-.71,16.13-12.7c-11.82-2.65-22.25-8.35-33.18-12.74-17.52-7-34.92-14.39-52.35-21.65a7.66,7.66,0,0,0-4.06-.54c-12.82,1.48-25.65,2.81-38.47,4.2q-12.78,1.39-25.56,2.82c-.77.09-1.62-.13-2.18.84s-1-.09-1.46-.35-1.58-.14-1-.92c1-1.29.08-2.23-.26-3.21-3.63-10.36-7.33-20.7-11-31-.37-1.06-.58-2.18-.86-3.27ZM1142,670.44c2.08-.33,3.88-1.43,5.77-2.24,12.27-5.26,24.56-10.5,36.76-15.93,9.69-4.32,19.65-8,29.06-13a6.51,6.51,0,0,1,4.69-.91c3.06.76,6.07,1.78,9.3,1.5.23,0,.48.15.72.16,3.14.18,6,1.51,9.07,2.09a65.22,65.22,0,0,0,6.69.49c5.78.51,11.33,2.27,17.13,2.83,6.64.64,13.19,2.1,19.79,3.19,2.67.44,5.36.82,8,1.22-5.11-5.2-10.32-9.95-15.58-14.63q-12.93-11.51-25.91-23c-3.35-3-6.67-6-10-9-1-.93-1.87-1.56-3,.26-2.76,4.42-5.86,8.64-8.74,13a2.17,2.17,0,0,1-2.81,1.14c-4.33-1.07-8.78-1.65-13.07-2.82-3.11-.85-6.68.35-9.38-1.93-1.76-1.49-2.68-.6-3.88.65q-13.31,13.87-26.7,27.67c-8.88,9.13-17.83,18.19-26.75,27.29-.51.52-1.19,1-1.24,1.81l-.63.23c0,.06.13.18.14.17C1141.66,670.66,1141.84,670.55,1142,670.44Zm64.37,65.73,13.74,1.18c5.68.48,11.37.83,17,1.48,4.66.54,5.61.21,8-3.81,1.22-2.07,2.58-4.06,3.79-6.13.43-.74,1.57-1.41,1.05-2.31s-1.63-.56-2.54-.64c-4.85-.44-9.68-1.16-14.54-1.34-5.31-.2-10.87-2.39-15.56,2.75C1214.33,730.66,1210.34,733.06,1206.39,736.17Zm84-64.64c4.47.06,8.1-3.05,8.15-7s-3.84-7.44-8.4-7.42c-4.21,0-8,3.25-8.11,6.91C1282,668,1285.88,671.47,1290.43,671.53Z" transform="translate(-1049.61 -598.32)"/><path class="cls-2" d="M1142,670.36c0-.85.72-1.28,1.24-1.8,8.91-9.1,17.86-18.16,26.75-27.29s17.82-18.42,26.7-27.67c1.2-1.25,2.12-2.14,3.88-.65,2.7,2.28,6.27,1.08,9.38,1.93,4.29,1.18,8.74,1.76,13.07,2.82a2.17,2.17,0,0,0,2.81-1.14c2.88-4.36,6-8.57,8.74-13,1.14-1.82,2-1.19,3-.26,3.36,3,6.67,6,10,9q12.95,11.49,25.91,23c5.26,4.69,10.48,9.43,15.58,14.63-2.68-.41-5.36-.78-8-1.22-6.6-1.08-13.15-2.55-19.79-3.19-5.8-.56-11.35-2.32-17.13-2.83a65.22,65.22,0,0,1-6.69-.49c-3.05-.58-5.93-1.91-9.07-2.09-.24,0-.49-.18-.72-.16-3.23.28-6.24-.74-9.3-1.5a6.51,6.51,0,0,0-4.69.91c-9.41,4.93-19.37,8.63-29.06,13-12.2,5.44-24.49,10.67-36.76,15.93-1.89.81-3.69,1.91-5.77,2.24Z" transform="translate(-1049.61 -598.32)"/><path class="cls-2" d="M1206.39,736.17c3.94-3.11,7.94-5.51,10.95-8.81,4.69-5.15,10.25-2.95,15.56-2.75,4.86.18,9.69.9,14.54,1.34.91.08,2.08-.16,2.54.64s-.62,1.57-1.05,2.31c-1.22,2.07-2.57,4.06-3.79,6.13-2.37,4-3.32,4.34-8,3.81-5.66-.65-11.35-1-17-1.48Z" transform="translate(-1049.61 -598.32)"/><path class="cls-3" d="M1290.43,671.53c-4.55-.07-8.47-3.58-8.36-7.5.1-3.66,3.9-6.9,8.11-6.91,4.57,0,8.45,3.41,8.4,7.42S1294.9,671.6,1290.43,671.53Zm-1.54-8.74c-1.62,0-3-.19-3.57,1.3s.4,2.48,1.37,3.38a6.78,6.78,0,0,0,4.76,1.77c1,0,2.22-.13,2.69-1.37a2.63,2.63,0,0,0-1-3.08A7,7,0,0,0,1288.9,662.79Z" transform="translate(-1049.61 -598.32)"/><path class="cls-2" d="M1142,670.44c-.18.11-.36.22-.55.32,0,0-.09-.11-.14-.17l.63-.23Z" transform="translate(-1049.61 -598.32)"/><path class="cls-1" d="M1288.9,662.79a7,7,0,0,1,4.28,2,2.63,2.63,0,0,1,1,3.08c-.47,1.24-1.67,1.37-2.69,1.37a6.78,6.78,0,0,1-4.76-1.77c-1-.91-2-1.82-1.37-3.38S1287.28,662.82,1288.9,662.79Z" transform="translate(-1049.61 -598.32)"/></svg>