<svg id="Ebene_1" data-name="Ebene 1" xmlns="http://www.w3.org/2000/svg" viewBox="0 0 280.65 142.06"><defs><style>.cls-1{fill:#fec676;}.cls-2{fill:#4b6662;}.cls-3{fill:#4b6b65;}.cls-4{fill:#506a65;}.cls-5{fill:#202726;}.cls-6{fill:#494947;}.cls-7{fill:#bbb;}.cls-8{fill:#fe8727;}.cls-9{fill:#fdc676;}.cls-10{fill:#4b7a6c;}.cls-11{fill:#3f6861;}.cls-12{fill:#637d76;}.cls-13{fill:#efede0;}.cls-14{fill:#020202;}</style></defs><title>fish_orange</title><path class="cls-1" d="M1082.48,612.81l.15-.67,0,0,.59-.51a4.18,4.18,0,0,0,2.54.8c2,.11,4,.33,5.94.57,8.05,1,16.1,2,24.17,2.84,1.52.16,2.21.63,2.56,2q6.76,27.76,13.6,55.49a5,5,0,0,1,.11,2.39c-.67,3.14-1.25,6.32-1.66,9.51-.32,2.5-1.51,3.51-4,3.63-3.89.18-7.76.67-11.64,1.08q-10.74,1.15-21.47,2.37c-5.43.61-10.85,1.28-16.28,1.87-4,.43-7.92.76-11.88,1.15-1.23.12-1.86-.23-2.32-1.57-3.49-10.16-7.1-20.27-10.68-30.39-.38-1.09-.74-2,1.14-2,10.46-.26,20.92-.76,31.38-.92,5.43-.08,10.81-1,16.42-.42-5.19-13.59-10.16-26.8-15.3-39.94C1084.87,617.64,1084.51,614.83,1082.48,612.81Z" transform="translate(-1049.76 -598.08)"/><path class="cls-2" d="M1082.48,612.81c2,2,2.39,4.83,3.36,7.31,5.13,13.14,10.11,26.35,15.3,39.94-5.61-.56-11,.34-16.42.42-10.46.16-20.92.66-31.38.92-1.88,0-1.53,1-1.14,2,3.57,10.13,7.19,20.24,10.68,30.39.46,1.34,1.09,1.69,2.32,1.57,4-.39,7.92-.72,11.88-1.15,5.43-.59,10.85-1.25,16.28-1.87q10.73-1.21,21.47-2.37c3.87-.42,7.75-.9,11.64-1.08,2.53-.12,3.72-1.13,4-3.63.41-3.19,1-6.36,1.66-9.51a5,5,0,0,0-.11-2.39q-6.83-27.74-13.6-55.49c-.35-1.42-1-1.89-2.56-2-8.07-.84-16.11-1.89-24.17-2.84-2-.23-4-.46-5.94-.57a4.18,4.18,0,0,1-2.54-.8c1.7-.87,3.37.13,5,.27,8.58.77,17.14,1.92,25.71,2.83,1.31.14,2.49.77,3.88.61,1.16-.14,1.06,1,1.26,1.8l10.41,42.12q1.41,5.69,2.82,11.37c.87,3.5.88,3.49,4.2,2.32l1.09.71a1.18,1.18,0,0,0-.33,0,.93.93,0,0,0-.33.26c-2.65.37-4.4,1.47-4.54,4.53a25.07,25.07,0,0,1-1.16,6.05c-.65,2.13,0,3.06,2,3.9,22,9.06,43.91,18.31,65.93,27.29,7.82,3.19,15.28,7.33,24.2,7.52,8.43.18,16.83,1.37,25.24,2.17a4.51,4.51,0,0,0,3.16-1.19q29.17-21,58.33-41.94c5.37-3.85,10.56-8,16.22-11.43l.82.07q-14.76,10.7-29.52,21.39-21.59,15.55-43.23,31a11,11,0,0,0-3.52,3.95c-1.78,3.38-4,6.53-6,9.8-.39.64-1,1.11-.7,2.19.38,1.37-1,.71-1.48.68-5-.32-10-.75-15.07-1.11-7.8-.55-15.57-1.7-23.8-1.87l15.73-12.38c-14.67-4.85-28.66-11.51-43-17.29s-28.59-11.83-42.85-17.83a7.07,7.07,0,0,0-3.87-.12c-6.29.71-12.58,1.37-18.88,2.05-15,1.63-30,3.3-45,4.8-1.25.12-2.33,2.11-3.77.44-.17-.2-.79-.09-.68-.53,1-4-1.77-7.1-2.7-10.63s-2.4-7.08-3.64-10.61c-1.71-4.86-3.44-9.71-5.14-14.57a2.78,2.78,0,0,1-.34-1.89c.18,0,.45-.13.45-.12,1,2.77,2.83,2.71,5.44,2.28,3.67-.6,7.47-.34,11.22-.45a3.3,3.3,0,0,0,2.6-.15c3.49,0,7-.1,10.48-.07,5.87.05,11.71-1,17.6-.54,2.63.19,1.73-1.51,1.24-2.8-4.88-12.8-9.81-25.58-14.65-38.39C1083.56,616.42,1082.39,614.81,1082.48,612.81Zm123.85,123.38,13.95,1.19c5.78.48,11.57.87,17.34,1.46,3.25.33,5.89.12,7.4-3.46,1-2.41,2.74-4.52,4.12-6.78,1.51-2.47,1.44-2.46-1.4-2.69-7-.58-14-1.29-21-1.88-1.71-.14-3.75-.79-5.11.21C1216.54,728,1211.68,732,1206.33,736.19Z" transform="translate(-1049.76 -598.08)"/><path class="cls-3" d="M1205,613c5.77,1.18,11.56,2.29,17.31,3.58a2.63,2.63,0,0,0,3.28-1.32c3.33-5.07,6.76-10.08,10.18-15.09a3.85,3.85,0,0,1,2.47-2.12c-2.88,3.44-.14,4.61,1.58,6.14q24.52,21.82,49,43.65a12.15,12.15,0,0,0,6.64,3c9.52,1.48,19,3.08,28.54,4.63v.88c-6.9-1.14-13.8-2.29-20.71-3.41-7.74-1.25-15.49-2.45-23.24-3.71q-13.17-2.13-26.33-4.31c-7.8-1.28-15.56-2.87-23.41-3.74-5.71-.64-11.42-3.64-17.29-.71l-.62-.1c1.83-2,4.07-2.28,6.63-1.84q14.51,2.49,29,4.84,15,2.46,30,4.86c3.68.59,7.36,1.13,11,1.69-3.58-3.82-7.32-7.21-11.1-10.56q-12.76-11.35-25.54-22.68c-5-4.47-10.11-8.9-15.07-13.45-1.43-1.31-2-1.1-3.06.49-2.81,4.39-5.89,8.62-8.74,13-.73,1.12-1.31,1.18-2.6,1-6.21-1-12.16-3.48-18.58-3.2C1205.15,614.19,1204.94,613.57,1205,613Z" transform="translate(-1049.76 -598.08)"/><path class="cls-4" d="M1141,669.79c6.06-6.29,12.09-12.61,18.18-18.87q18.81-19.34,37.7-38.6c.66-.67,1.15-2.36,2.69-1.07l-.1.72c-1-.26-1.51.4-2.1,1q-11.54,11.89-23.1,23.77l-32.52,33.38-.64.37Z" transform="translate(-1049.76 -598.08)"/><path class="cls-4" d="M1328.51,655.9c1.78,1.83,1.16,2.82-1,3.76-2.81,1.21-5.47,2.76-8.19,4.18-.49.25-1.23.43-1.12,1.11s.91.63,1.43.74c3.27.7,6.55,1.36,9.83,2,.38.07.93-.15,1,.43a1.42,1.42,0,0,1-.53,1c-.85.64-1.78,1.19-2.68,1.77l-.27-.57c.24-.75,1.63-.67,1.4-1.52s-1.29-.75-2.1-.89c-2.67-.46-5.35-.92-8-1.57-.74-.18-2,0-2.14-1.19a2.13,2.13,0,0,1,1.85-2.08c3-.74,5.48-2.68,8.31-3.81a3.35,3.35,0,0,0,2.21-2.45l0-.85Z" transform="translate(-1049.76 -598.08)"/><path class="cls-5" d="M1199.43,612l.1-.71L1205,613c0,.54.18,1.15-.52,1.45C1202.75,613.68,1200.79,613.42,1199.43,612Z" transform="translate(-1049.76 -598.08)"/><path class="cls-6" d="M1141,669.79l.1.69a1,1,0,0,0,0,.35l-.09,1-3.35,1.84-1.09-.71C1138.29,672.32,1139.55,670.94,1141,669.79Z" transform="translate(-1049.76 -598.08)"/><path class="cls-4" d="M1324,656.36v-.88l3.43.36.13.11.45.92Z" transform="translate(-1049.76 -598.08)"/><path class="cls-7" d="M1069.55,660a3.3,3.3,0,0,1-2.6.15A4,4,0,0,1,1069.55,660Z" transform="translate(-1049.76 -598.08)"/><path class="cls-4" d="M1327.42,655.83c.42-.87.79-.91,1.09.07l-.07.07-.89,0Z" transform="translate(-1049.76 -598.08)"/><path class="cls-2" d="M1082.68,612.17l0,0-.18-.05Z" transform="translate(-1049.76 -598.08)"/><path class="cls-4" d="M1327.2,670.91l-.82-.07.54-.51.27.57Z" transform="translate(-1049.76 -598.08)"/><path class="cls-8" d="M1326.92,670.33l-.54.51c-5.66,3.45-10.85,7.57-16.22,11.43q-29.19,20.93-58.33,41.94a4.51,4.51,0,0,1-3.16,1.19c-8.41-.8-16.82-2-25.24-2.17-8.91-.19-16.38-4.33-24.2-7.52-22-9-43.94-18.23-65.93-27.29-2-.83-2.68-1.77-2-3.9a25.07,25.07,0,0,0,1.16-6.05c.14-3.06,1.9-4.16,4.54-4.53a3,3,0,0,0,.31.29c.2-.17.32-.36,0-.55a1.18,1.18,0,0,1,.33,0l3.36-1.84c1.15-.7,2.78-.55,3.54-2l0,0a37.93,37.93,0,0,0,11.54-5l0,0a14.13,14.13,0,0,0,7-3l0,0c1.35-.11,2.67-.3,3.54-1.52l0,0c1.69-.27,3.37-.57,4.54-2l0,0a3.8,3.8,0,0,0,3.54-1.52l0,0a15.35,15.35,0,0,0,7-3l0,0c1.69-.29,3.37-.57,4.54-2l0,0a14.79,14.79,0,0,0,7-3l0,0a3.33,3.33,0,0,0,2.68-.95l2.88-1.41a2.21,2.21,0,0,0,2.48-1.16l0,0a3.77,3.77,0,0,0,3.54-1.52l0,0a4.13,4.13,0,0,0,3.54-1.52l0,0a10.39,10.39,0,0,0,5-1.95c5.88-2.93,11.58.07,17.29.71,7.84.88,15.61,2.46,23.41,3.74q13.16,2.16,26.33,4.31c7.74,1.25,15.49,2.46,23.24,3.71,6.91,1.12,13.81,2.27,20.71,3.41l4,.51.24,0,.24-.06a3.35,3.35,0,0,1-2.21,2.45c-2.83,1.13-5.28,3.07-8.31,3.81a2.13,2.13,0,0,0-1.85,2.08c.09,1.23,1.4,1,2.14,1.19,2.63.65,5.31,1.11,8,1.57.8.14,1.86,0,2.1.89S1327.16,669.58,1326.92,670.33Zm-43-.86.5.5a1.75,1.75,0,0,0,1.51,1,8.27,8.27,0,0,0,9.11,0,1.79,1.79,0,0,0,1.5-1l.5-.5.5-.5c2-2.14,2.45-4.49,1-7.11-.05-.39,0-.84-.5-1a1.69,1.69,0,0,0-1-1.53,2.38,2.38,0,0,0-1.4-1.13c-3.33-2.28-6.74-2.53-10.23-.35a2.9,2.9,0,0,0-2,1.5l-.61.89-.38.62a5.53,5.53,0,0,0,0,6.6c.06.39.07.8.52,1l.49.51Zm-14.16-4.69-.16-.62-28.68,7,5.44,3.53.29-.39-3.73-2.88Zm-21.92,11,6.53,4.42.34-.52C1252.54,678.21,1250.51,676.5,1247.86,675.76Z" transform="translate(-1049.76 -598.08)"/><path class="cls-9" d="M1206.33,736.19c5.35-4.23,10.21-8.23,15.27-12,1.36-1,3.4-.35,5.11-.21,7,.59,14,1.3,21,1.88,2.84.23,2.91.22,1.4,2.69-1.38,2.26-3.1,4.37-4.12,6.78-1.52,3.58-4.15,3.79-7.4,3.46-5.77-.59-11.56-1-17.34-1.46Z" transform="translate(-1049.76 -598.08)"/><path class="cls-9" d="M1198.55,646.56l-2.88,1.41c-1.16-.43-1.91.28-2.68.95l0,0a23.48,23.48,0,0,0-7,3l0,0a9.44,9.44,0,0,0-4.54,2l0,0a22,22,0,0,0-7,3l0,0a5.87,5.87,0,0,0-3.54,1.52l0,0a9.41,9.41,0,0,0-4.54,2l0,0a5.48,5.48,0,0,0-3.54,1.52l0,0a23.66,23.66,0,0,0-7,3l0,0a62.1,62.1,0,0,0-11.54,5l0,0-2.44.61-.38-.39,32.52-33.38q11.56-11.87,23.1-23.77c.59-.61,1.12-1.26,2.1-1,1.37,1.45,3.33,1.71,5,2.51,6.42-.28,12.37,2.21,18.58,3.2,1.29.2,1.87.14,2.6-1,2.86-4.37,5.93-8.59,8.74-13,1-1.59,1.63-1.8,3.06-.49,5,4.54,10,9,15.07,13.45Q1265.28,628,1278,639.36c3.77,3.36,7.52,6.74,11.1,10.56-3.68-.56-7.37-1.1-11-1.69q-15-2.41-30-4.86-14.52-2.38-29-4.84c-2.55-.44-4.8-.16-6.63,1.84a11.3,11.3,0,0,0-4.42,2l0,0a5.8,5.8,0,0,0-3.54,1.52l0,0a5.9,5.9,0,0,0-3.54,1.52l0,0A2.91,2.91,0,0,0,1198.55,646.56Z" transform="translate(-1049.76 -598.08)"/><path class="cls-10" d="M1208,642.42a11.3,11.3,0,0,1,4.42-2l.62.1A10.39,10.39,0,0,1,1208,642.42Z" transform="translate(-1049.76 -598.08)"/><path class="cls-9" d="M1141.07,670.84a1,1,0,0,1,0-.35l.64-.37.38.39C1141.84,670.91,1141.45,670.88,1141.07,670.84Z" transform="translate(-1049.76 -598.08)"/><path class="cls-3" d="M1328.47,656.83l-.24.06-.24,0-.45-.92.89,0Z" transform="translate(-1049.76 -598.08)"/><path class="cls-10" d="M1141.07,670.84c.39,0,.77.07,1-.33l2.44-.61c-.77,1.4-2.39,1.26-3.54,2Z" transform="translate(-1049.76 -598.08)"/><path class="cls-11" d="M1269.79,664.78,1243,671.37l3.73,2.88-.29.39-5.44-3.53,28.68-7Z" transform="translate(-1049.76 -598.08)"/><path class="cls-10" d="M1144.48,669.93a62.1,62.1,0,0,1,11.54-5A37.93,37.93,0,0,1,1144.48,669.93Z" transform="translate(-1049.76 -598.08)"/><path class="cls-12" d="M1285.45,657.85c3.49-2.18,6.89-1.93,10.23.35l-.27.32c-3.16-1.53-6.36-1.91-9.62-.28Z" transform="translate(-1049.76 -598.08)"/><path class="cls-12" d="M1295.06,671a8.27,8.27,0,0,1-9.11,0l.32-.39a9.9,9.9,0,0,0,8.46,0Z" transform="translate(-1049.76 -598.08)"/><path class="cls-3" d="M1247.86,675.76c2.65.74,4.67,2.45,6.87,3.9l-.34.52Z" transform="translate(-1049.76 -598.08)"/><path class="cls-10" d="M1156,664.93a23.66,23.66,0,0,1,7-3A14.13,14.13,0,0,1,1156,664.93Z" transform="translate(-1049.76 -598.08)"/><path class="cls-10" d="M1186,651.92a23.48,23.48,0,0,1,7-3A14.79,14.79,0,0,1,1186,651.92Z" transform="translate(-1049.76 -598.08)"/><path class="cls-12" d="M1298.56,661.86c1.45,2.62,1,5-1,7.11l-.39-.34c1.6-2,1.61-4.22,1.11-6.55Z" transform="translate(-1049.76 -598.08)"/><path class="cls-10" d="M1174.48,656.93a22,22,0,0,1,7-3A15.35,15.35,0,0,1,1174.48,656.93Z" transform="translate(-1049.76 -598.08)"/><path class="cls-12" d="M1282.44,667.47a5.53,5.53,0,0,1,0-6.6l.39.33a6.35,6.35,0,0,0-.06,6Z" transform="translate(-1049.76 -598.08)"/><path class="cls-10" d="M1166.48,660.42a9.41,9.41,0,0,1,4.54-2C1169.85,659.85,1168.18,660.16,1166.48,660.42Z" transform="translate(-1049.76 -598.08)"/><path class="cls-10" d="M1181.48,653.92a9.44,9.44,0,0,1,4.54-2C1184.85,653.35,1183.17,653.64,1181.48,653.92Z" transform="translate(-1049.76 -598.08)"/><path class="cls-10" d="M1201,645.43a5.9,5.9,0,0,1,3.54-1.52A3.77,3.77,0,0,1,1201,645.43Z" transform="translate(-1049.76 -598.08)"/><path class="cls-10" d="M1171,658.43a5.87,5.87,0,0,1,3.54-1.52A3.8,3.8,0,0,1,1171,658.43Z" transform="translate(-1049.76 -598.08)"/><path class="cls-10" d="M1204.48,643.93a5.8,5.8,0,0,1,3.54-1.52A4.13,4.13,0,0,1,1204.48,643.93Z" transform="translate(-1049.76 -598.08)"/><path class="cls-10" d="M1163,661.92a5.48,5.48,0,0,1,3.54-1.52C1165.65,661.63,1164.33,661.81,1163,661.92Z" transform="translate(-1049.76 -598.08)"/><path class="cls-10" d="M1198.55,646.56a2.91,2.91,0,0,1,2.48-1.16A2.21,2.21,0,0,1,1198.55,646.56Z" transform="translate(-1049.76 -598.08)"/><path class="cls-10" d="M1193,648.92c.77-.67,1.52-1.37,2.68-.95A3.33,3.33,0,0,1,1193,648.92Z" transform="translate(-1049.76 -598.08)"/><path class="cls-12" d="M1283.44,659.35a2.9,2.9,0,0,1,2-1.5l.33.39-1.94,1.51Z" transform="translate(-1049.76 -598.08)"/><path class="cls-12" d="M1297.07,659.33a1.69,1.69,0,0,1,1,1.53l-.26.22-1.12-1.34Z" transform="translate(-1049.76 -598.08)"/><path class="cls-12" d="M1295.67,658.2a2.38,2.38,0,0,1,1.4,1.13l-.39.41-1.28-1.21Z" transform="translate(-1049.76 -598.08)"/><path class="cls-12" d="M1285.95,671a1.75,1.75,0,0,1-1.51-1l.33-.38,1.5,1Z" transform="translate(-1049.76 -598.08)"/><path class="cls-12" d="M1296.56,670a1.8,1.8,0,0,1-1.51,1l-.33-.39,1.5-1Z" transform="translate(-1049.76 -598.08)"/><path class="cls-12" d="M1298.05,660.86c.51.16.45.61.5,1l-.27.22-.49-1Z" transform="translate(-1049.76 -598.08)"/><path class="cls-12" d="M1283,668.46c-.45-.19-.45-.6-.51-1l.34-.28.57.92Z" transform="translate(-1049.76 -598.08)"/><path class="cls-12" d="M1282.83,660.25l.61-.89.41.4-.72.77Z" transform="translate(-1049.76 -598.08)"/><path class="cls-12" d="M1297.06,669.47l-.5.5-.33-.37.49-.47Z" transform="translate(-1049.76 -598.08)"/><path class="cls-12" d="M1282.45,660.86l.38-.62.29.28-.28.67Z" transform="translate(-1049.76 -598.08)"/><path class="cls-12" d="M1283.94,669.47l-.5-.5.32-.32.49.5Z" transform="translate(-1049.76 -598.08)"/><path class="cls-2" d="M1137.29,673.69c.3.19.18.39,0,.55a3,3,0,0,1-.31-.29A.93.93,0,0,1,1137.29,673.69Z" transform="translate(-1049.76 -598.08)"/><path class="cls-12" d="M1283.44,669l-.49-.51.4-.35.41.54Z" transform="translate(-1049.76 -598.08)"/><path class="cls-12" d="M1284.44,670l-.5-.5.31-.32.51.44Z" transform="translate(-1049.76 -598.08)"/><path class="cls-12" d="M1297.56,669l-.5.5-.34-.33.45-.51Z" transform="translate(-1049.76 -598.08)"/><path class="cls-13" d="M1297.18,668.63l-.45.51-.49.47-1.5,1a9.9,9.9,0,0,1-8.46,0l-1.5-1-.51-.44-.49-.5-.41-.54-.57-.92a6.36,6.36,0,0,1,.06-6l.28-.67.72-.77,1.94-1.51c3.26-1.63,6.46-1.24,9.62.28l1.28,1.21,1.12,1.34.49,1C1298.79,664.41,1298.78,666.66,1297.18,668.63Zm-4.24-3.63,0,0a4.63,4.63,0,0,0-4-1.9h-1.39c-1.7-.11-2.59.48-2,2.34a2.68,2.68,0,0,0,1.54,2,3.08,3.08,0,0,0,2.49,1.36l.94.12a1.07,1.07,0,0,0,1.48,0c1,0,1.85-.24,2-1.45A1.72,1.72,0,0,0,1292.94,665Z" transform="translate(-1049.76 -598.08)"/><path class="cls-14" d="M1287.08,667.36a2.68,2.68,0,0,1-1.54-2c.25-1.14,1.39-1.52,2-2.34h1.39a7.93,7.93,0,0,0,4,1.9l0,0a4.13,4.13,0,0,0,1,2.4c-.12,1.21-1,1.44-2,1.45a.92.92,0,0,0-1.48,0l-.94-.12C1289.08,667.64,1288.09,667.49,1287.08,667.36Z" transform="translate(-1049.76 -598.08)"/><path class="cls-6" d="M1292.9,665a7.93,7.93,0,0,1-4-1.9A4.63,4.63,0,0,1,1292.9,665Z" transform="translate(-1049.76 -598.08)"/><path class="cls-6" d="M1287.56,663.07c-.62.82-1.76,1.2-2,2.34C1285,663.55,1285.85,663,1287.56,663.07Z" transform="translate(-1049.76 -598.08)"/><path class="cls-6" d="M1287.08,667.36c1,.12,2,.28,2.49,1.36A3.08,3.08,0,0,1,1287.08,667.36Z" transform="translate(-1049.76 -598.08)"/><path class="cls-6" d="M1294,667.41a4.13,4.13,0,0,1-1-2.4A1.72,1.72,0,0,1,1294,667.41Z" transform="translate(-1049.76 -598.08)"/><path class="cls-6" d="M1290.51,668.84a.92.92,0,0,1,1.48,0A1.07,1.07,0,0,1,1290.51,668.84Z" transform="translate(-1049.76 -598.08)"/></svg>