<svg id="Ebene_1" data-name="Ebene 1" xmlns="http://www.w3.org/2000/svg" viewBox="0 0 280.98 141.69"><defs><style>.cls-1{fill:#fe8727;}.cls-2{fill:#fec676;}.cls-3{fill:#fefefe;}</style></defs><title>fish_orange</title><path class="cls-1" d="M1204.19,737.67a2,2,0,0,1,1.09-1.91q6.53-5,13-10.1c.53-.41,1.54-.74,1.18-1.65-.28-.69-1.17-.49-1.8-.5-4.5-.1-8.18-2.63-12.12-4.24q-35.79-14.67-71.45-29.65a7.73,7.73,0,0,0-4.11-.3q-23.84,2.63-47.69,5.17c-5.13.55-10.27,1.06-15.4,1.7-1,.12-2.11-.21-2.88,1-.66,1-.92-.46-1.49-.54-.38-.05-1.3-.12-.74-.79,1-1.16.11-2.06-.22-3-3.67-10.44-7.41-20.85-11-31.29a6.29,6.29,0,0,1-.48-4.22c1,4,3.47,3.15,5.66,3.08,13.82-.45,27.64-.94,41.46-1.33,2.06-.06,2.57-.45,1.75-2.54-5.42-14-10.73-28-16.08-41.94-1-2.74-.48-3.5,2.49-3.17,10.34,1.17,20.68,2.4,31,3.52,1.78.19,2.47.9,2.9,2.66,4.35,18,8.86,35.87,13.18,53.83.59,2.45,1.44,2.7,3.5,1.68a15.75,15.75,0,0,0,4.48-3.08q28-28.74,56-57.47c1.5-1.55,2.57-1.79,4.65-1,5.68,2.2,11.79,2.84,17.71,4.18,5.58,1.27,5.59,1.18,8.82-3.59,2.75-4.07,5.49-8.14,8.28-12.19.43-.63.63-1.58,2.08-1.69-2.6,3.16.13,4.36,1.86,5.9q24.64,21.92,49.27,43.86a10.64,10.64,0,0,0,5.76,2.64c10.2,1.59,20.4,3.21,30.56,5,1.22.21,2.77-1.35,3.76.75.6,1.27.81,1.93-.68,2.63-2.94,1.37-5.8,2.91-8.67,4.43-.69.36-1.58.52-2.06,1.74l13.15,2.64c-.4,1.4-1.61,1.61-2.43,2.2q-37.38,26.94-74.83,53.79a9.7,9.7,0,0,0-2.67,3.41c-1.84,3.17-3.84,6.23-5.78,9.34-.18.28-.5.55-.52.84-.26,3.54-2.77,2.41-4.73,2.26q-16.44-1.28-32.87-2.64A6.53,6.53,0,0,0,1204.19,737.67Zm92.76-68.27.47-.49c2.24-2.31,2.49-3.92,1.07-7L1298,661a1.47,1.47,0,0,0-1-1.48,1.69,1.69,0,0,0-1.44-1.09c-3-2.46-6.6-2.62-10.08-.42a2.51,2.51,0,0,0-2,1.53c-.46.15-.46.56-.52.93l-.39.48a5.34,5.34,0,0,0-.07,6.54c.06.4.14.79.58,1l.47.49.49.5.45.43a1.54,1.54,0,0,0,1.46,1.05,7.84,7.84,0,0,0,9.07,0,1.57,1.57,0,0,0,1.47-1Zm-154.85,1.11c3.17-1.31,6.39-2.43,9.54-3.85,15.92-7.22,32-14,48.07-21,4.63-2,9.45-3.64,13.77-6.32,1.86-1.16,3.79-1.07,5.9-.7,9.54,1.68,19.1,3.21,28.66,4.76q15,2.43,29.92,4.81c3.72.59,7.44,1.16,11.31,1.76-.26-1.3-1.13-1.75-1.78-2.32Q1270.23,632.34,1253,617c-5.1-4.53-10.22-9-15.27-13.62-1.46-1.33-2.31-1.44-3.49.43-2.7,4.29-5.69,8.4-8.47,12.64a2.16,2.16,0,0,1-2.8,1.12,134.83,134.83,0,0,0-15.6-3.16c-2.92-.34-5.63-.63-8.06-2.36-.73-.52-1.21.09-1.68.58q-11.47,11.84-22.95,23.66-15.71,16.09-31.47,32.12a3.79,3.79,0,0,0-1.31,1.78c-.2.14-.71.14-.47.5S1141.91,670.77,1142.09,670.52Zm-41-10.55c-3.68-.08-7,.11-10.3.26-12.3.52-24.61.86-36.92,1.12-2.12,0-2.29.55-1.64,2.37q5.34,14.92,10.46,29.91c.56,1.65,1.47,2,3,1.81,8.42-.91,16.84-1.77,25.25-2.67,8.58-.93,17.15-1.9,25.73-2.83,3.63-.39,7.28-.68,10.9-1.11,1-.12,2-.26,2.44-1.8.76-2.48,1-5,1.47-7.52.39-1.91,1.24-3.81.74-5.85q-6.87-27.81-13.71-55.63c-.38-1.56-1.2-2-2.79-2.19-5.12-.48-10.22-1.2-15.33-1.78s-10.39-1.12-15.59-1.7c-1.51-.17-2,.17-1.3,1.76,1.44,3.45,2.69,7,4,10.47Zm105.26,76.24c4.45.39,8.38.77,12.31,1.07,7.44.58,14.88,1.09,22.31,1.67a2.54,2.54,0,0,0,2.65-1.38c1.92-3.2,3.85-6.4,5.9-9.52,1-1.5.53-2-1-2.17l-23-2a7,7,0,0,0-5.9,1.78c-2.16,2-4.72,3.65-7.07,5.5C1210.58,732.7,1208.66,734.33,1206.37,736.21Z" transform="translate(-1049.9 -598.37)"/><path class="cls-2" d="M1101.11,660l-13.58-35.38c-1.34-3.49-2.59-7-4-10.47-.66-1.59-.21-1.93,1.3-1.76,5.19.58,10.39,1.1,15.59,1.7s10.21,1.3,15.33,1.78c1.58.15,2.4.63,2.79,2.19q6.82,27.83,13.71,55.63c.5,2-.34,3.94-.74,5.85-.51,2.49-.71,5-1.47,7.52-.47,1.53-1.4,1.67-2.44,1.8-3.63.43-7.27.72-10.9,1.11-8.58.93-17.15,1.91-25.73,2.83-8.41.91-16.83,1.77-25.25,2.67-1.5.16-2.41-.16-3-1.81q-5.11-15-10.46-29.91c-.65-1.83-.48-2.33,1.64-2.37,12.31-.26,24.62-.6,36.92-1.12C1094.12,660.08,1097.43,659.89,1101.11,660Z" transform="translate(-1049.9 -598.37)"/><path class="cls-2" d="M1141.86,670.24a3.81,3.81,0,0,1,1.31-1.78q15.73-16.06,31.47-32.12,11.51-11.79,22.95-23.66c.47-.49.95-1.1,1.68-.58,2.43,1.73,5.14,2,8.06,2.36a134.83,134.83,0,0,1,15.6,3.16,2.16,2.16,0,0,0,2.8-1.12c2.78-4.25,5.77-8.35,8.47-12.64,1.18-1.87,2-1.75,3.49-.43,5,4.58,10.16,9.09,15.27,13.62q17.26,15.32,34.52,30.63c.65.58,1.52,1,1.78,2.32-3.86-.6-7.59-1.17-11.31-1.76q-15-2.39-29.92-4.81c-9.56-1.55-19.12-3.08-28.66-4.76-2.12-.37-4-.46-5.9.7-4.33,2.68-9.14,4.31-13.77,6.32-16,7-32.15,13.76-48.07,21-3.15,1.43-6.37,2.54-9.54,3.85Z" transform="translate(-1049.9 -598.37)"/><path class="cls-2" d="M1206.37,736.21c2.29-1.88,4.22-3.51,6.2-5.06,2.35-1.85,4.91-3.46,7.07-5.5a7,7,0,0,1,5.9-1.78l23,2c1.56.14,2,.67,1,2.17-2.05,3.12-4,6.32-5.9,9.52A2.54,2.54,0,0,1,1241,739c-7.44-.58-14.88-1.1-22.31-1.67C1214.75,737,1210.82,736.6,1206.37,736.21Z" transform="translate(-1049.9 -598.37)"/><path class="cls-2" d="M1285.48,658c3.48-2.19,7.09-2,10.08.42l-.19.21a11.7,11.7,0,0,0-9.68-.39A1.36,1.36,0,0,0,1285.48,658Z" transform="translate(-1049.9 -598.37)"/><path class="cls-2" d="M1295,670.88a7.84,7.84,0,0,1-9.07,0,1.39,1.39,0,0,0,.21-.25,12.86,12.86,0,0,0,8.65,0A1.43,1.43,0,0,0,1295,670.88Z" transform="translate(-1049.9 -598.37)"/><path class="cls-2" d="M1298.48,661.87c1.42,3.13,1.17,4.74-1.07,7a.78.78,0,0,0-.19-.21,8.57,8.57,0,0,0,1-6.63A1.41,1.41,0,0,0,1298.48,661.87Z" transform="translate(-1049.9 -598.37)"/><path class="cls-2" d="M1282.52,667.44a5.34,5.34,0,0,1,.07-6.54.74.74,0,0,0,.2.21,8.4,8.4,0,0,0-.06,6.14A1.21,1.21,0,0,0,1282.52,667.44Z" transform="translate(-1049.9 -598.37)"/><path class="cls-2" d="M1283.51,659.49a2.5,2.5,0,0,1,2-1.54,1.39,1.39,0,0,1,.22.24l-1.88,1.53A1.53,1.53,0,0,0,1283.51,659.49Z" transform="translate(-1049.9 -598.37)"/><path class="cls-2" d="M1295.56,658.38a1.69,1.69,0,0,1,1.44,1.09,1.78,1.78,0,0,0-.29.24l-1.34-1.11Z" transform="translate(-1049.9 -598.37)"/><path class="cls-2" d="M1297,659.47a1.47,1.47,0,0,1,1,1.48l-.22.13-1-1.38A1.79,1.79,0,0,1,1297,659.47Z" transform="translate(-1049.9 -598.37)"/><path class="cls-2" d="M1286,670.88a1.54,1.54,0,0,1-1.46-1.05.76.76,0,0,0,.21-.18l1.46,1A1.38,1.38,0,0,1,1286,670.88Z" transform="translate(-1049.9 -598.37)"/><path class="cls-2" d="M1296.5,669.84a1.57,1.57,0,0,1-1.47,1,1.47,1.47,0,0,1-.21-.24l1.46-1A.87.87,0,0,0,1296.5,669.84Z" transform="translate(-1049.9 -598.37)"/><path class="cls-2" d="M1283,660.42c.07-.37.07-.78.52-.93a1.56,1.56,0,0,1,.3.24l-.64.82Z" transform="translate(-1049.9 -598.37)"/><path class="cls-2" d="M1298,661l.51.92a1.46,1.46,0,0,1-.24.2l-.49-1Z" transform="translate(-1049.9 -598.37)"/><path class="cls-2" d="M1283.1,668.4c-.45-.17-.52-.56-.58-1a1.24,1.24,0,0,1,.22-.19l.57.92A.81.81,0,0,0,1283.1,668.4Z" transform="translate(-1049.9 -598.37)"/><path class="cls-2" d="M1142.09,670.52c-.19.25-.52.51-.7.23s.26-.36.47-.51Z" transform="translate(-1049.9 -598.37)"/><path class="cls-2" d="M1282.6,660.9l.39-.48.18.13-.37.56A.74.74,0,0,1,1282.6,660.9Z" transform="translate(-1049.9 -598.37)"/><path class="cls-2" d="M1283.57,668.89l-.47-.49a.82.82,0,0,1,.2-.23l.41.52Z" transform="translate(-1049.9 -598.37)"/><path class="cls-2" d="M1284.06,669.39l-.49-.5.14-.19.49.49Z" transform="translate(-1049.9 -598.37)"/><path class="cls-2" d="M1297.42,668.91l-.47.49a1,1,0,0,0-.16-.2l.44-.5A.79.79,0,0,1,1297.42,668.91Z" transform="translate(-1049.9 -598.37)"/><path class="cls-2" d="M1284.5,669.82l-.44-.43.14-.19.51.44A.77.77,0,0,1,1284.5,669.82Z" transform="translate(-1049.9 -598.37)"/><path class="cls-2" d="M1296.95,669.4l-.44.43a.88.88,0,0,1-.22-.19l.5-.45A1,1,0,0,1,1296.95,669.4Z" transform="translate(-1049.9 -598.37)"/><path class="cls-3" d="M1296.79,669.2l-.5.45-1.46,1a12.87,12.87,0,0,1-8.65,0l-1.46-1-.51-.44-.49-.49-.41-.53-.56-.92a8.4,8.4,0,0,1,.06-6.15l.37-.56.65-.82,1.88-1.53a11.71,11.71,0,0,1,9.68.4l1.34,1.11,1,1.38.49,1a8.57,8.57,0,0,1-1,6.63Zm-8.43-6.35c-1.17,0-2.4-.1-3,1.27s.3,2.37,1.24,3.21a6.47,6.47,0,0,0,5.47,1.75c2.16-.33,2.88-2.09,1.46-3.76A6.82,6.82,0,0,0,1288.35,662.85Z" transform="translate(-1049.9 -598.37)"/><path class="cls-1" d="M1288.35,662.85a6.82,6.82,0,0,1,5.21,2.46c1.42,1.67.7,3.43-1.46,3.76a6.47,6.47,0,0,1-5.47-1.75c-.94-.84-1.83-1.77-1.24-3.21S1287.18,662.86,1288.35,662.85Z" transform="translate(-1049.9 -598.37)"/></svg>