<svg id="Ebene_1" data-name="Ebene 1" xmlns="http://www.w3.org/2000/svg" viewBox="0 0 280.94 141.98"><defs><style>.cls-1{fill:#3ed0b8;}.cls-2{fill:#01b9ca;}.cls-3{fill:#fefefe;}</style></defs><title>fish_aqua</title><path class="cls-1" d="M1204.91,613c5.71,1.15,11.43,2.22,17.11,3.5a3,3,0,0,0,3.68-1.52c3.28-5,6.68-10,10.07-14.91.47-.69.74-1.66,2.42-1.85-2.77,3.19-.12,4.39,1.56,5.89q25,22.27,50,44.52a7.05,7.05,0,0,0,3.73,1.82c10.62,1.67,21.23,3.36,31.82,5.2,1.29.22,3-1.37,4,.9.58,1.34.59,2-.8,2.64a80.39,80.39,0,0,0-10.65,6.06c3.35.67,6.71,1.32,10.05,2,1,.21,2.55-.23,2.81,1,.22,1-1.32,1.3-2.09,1.85q-37.52,27-75.1,53.92c-1.32.94-1.84,2.25-2.6,3.5-1.94,3.2-4,6.36-5.93,9.55-.34.55-1,1.05-.83,1.74.62,2-1,1.25-1.64,1.21-5.07-.33-10.14-.75-15.2-1.15-6.65-.52-13.29-1-19.93-1.61-1.1-.1-2.11.28-3.58-.26l15.68-12.42c-16-5.31-31.18-12.54-46.78-18.81-13-5.22-25.85-10.68-38.74-16.09a7.31,7.31,0,0,0-3.87-.28c-20.13,2.21-40.26,4.34-60.38,6.61-1.92.22-4.11-.42-5.75,1.43-.69.78-1-.79-1.84-.75-.41,0-.86-.37-.45-.83,1-1.1.12-2.06-.21-3-3.68-10.44-7.41-20.86-11.07-31.31a5.19,5.19,0,0,1-.43-3.59c1.3,3.59,4.08,2.52,6.47,2.44,13.57-.43,27.15-1,40.72-1.31,2.27-.06,2.36-.69,1.64-2.57-5.41-14-10.74-28-16.1-42-1.07-2.8-.57-3.46,2.46-3.12,10.43,1.18,20.85,2.42,31.29,3.54,1.83.2,2.47,1,2.89,2.71,4.34,17.88,8.77,35.74,13.18,53.61.73,3,.69,2.86,3.58,1.76,2.29-.87,3.86-2.55,5.49-4.22q27.58-28.27,55.18-56.53c.72-.74,1.36-2.5,2.93-1,.45,1.47,3.83,3.44,4.95,2.82C1204.89,614,1204.83,613.39,1204.91,613Zm43.53,112.37a3.45,3.45,0,0,0,2.74-.8q16.3-11.83,32.67-23.55,21.62-15.5,43.25-31c.43-.31,1.24-.51,1.13-1.18s-1-.82-1.59-.95c-2.67-.52-5.36-1-8-1.53-.93-.19-2.4-.15-2.41-1.23,0-1.3,1.26-1.8,2.53-2.3,2.85-1.13,5.56-2.61,8.33-4,.55-.27,1-.67.86-1.36s-.7-.58-1.18-.68-1.11-.35-1.68-.44l-35.5-5.54q-8.08-1.27-16.15-2.59l-23.71-3.9c-8.88-1.46-17.75-3-26.65-4.35-2.31-.34-4.72-1.57-7-.6-7,2.93-13.92,6.09-20.89,9.11-6.55,2.84-13.13,5.6-19.68,8.43-11.14,4.81-22.26,9.67-33.42,14.44-2.34,1-4.18,3-6.94,3.21-1.77.13-2.3,1.72-2.59,3.23-.5,2.59-.89,5.21-1.4,7.8-.26,1.32.2,1.89,1.45,2.4q17.51,7.16,35,14.46c10.34,4.3,20.61,8.8,31,12.88,6.75,2.64,13.07,6.53,20.49,7.36,1.5.17,3,.06,4.47.21Z" transform="translate(-1049.82 -598.22)"/><path class="cls-2" d="M1204.91,613c-.07.39,0,1-.24,1.13-1.12.62-4.5-1.35-4.95-2.82Z" transform="translate(-1049.82 -598.22)"/><path class="cls-2" d="M1248.44,725.37,1223.52,723c-1.49-.14-3,0-4.47-.21-7.42-.84-13.74-4.72-20.49-7.36-10.43-4.08-20.7-8.58-31-12.88q-17.47-7.26-35-14.46c-1.25-.51-1.71-1.08-1.45-2.4.51-2.59.9-5.21,1.4-7.8.29-1.52.82-3.1,2.59-3.23,2.77-.21,4.6-2.21,6.94-3.21,11.16-4.77,22.27-9.63,33.42-14.44,6.55-2.83,13.14-5.59,19.68-8.43,7-3,13.88-6.18,20.89-9.11,2.31-1,4.71.26,7,.6,8.9,1.33,17.77,2.88,26.65,4.35l23.71,3.9q8.07,1.32,16.15,2.59l35.5,5.54c.57.09,1.12.32,1.68.44s1.06.05,1.18.68-.31,1.09-.86,1.36c-2.76,1.35-5.48,2.83-8.33,4-1.26.5-2.54,1-2.53,2.3,0,1.08,1.49,1,2.41,1.23,2.67.54,5.35,1,8,1.53.63.12,1.45.19,1.59.95s-.69.87-1.13,1.18q-21.61,15.51-43.25,31-16.37,11.74-32.67,23.55A3.45,3.45,0,0,1,1248.44,725.37Zm48.34-56,.15-.15c.32.08.43,0,.32-.35a.15.15,0,0,1,.16-.17c.58,0,.56-.36.53-.76l0-.07a.73.73,0,0,0,.45-.92l0-.08c1.58-2.35,1.21-4.82-1-6.39l-.06-.06L1297,660l-.07-.08c0-.67-.26-1-.93-.93l-.07-.06-.45-.42-.06,0a.73.73,0,0,0-.92-.47l-.07,0a.73.73,0,0,0-.94-.44l-.07,0a5.12,5.12,0,0,0-6.39,0l-.07,0c-.41-.07-.77,0-.94.44l-.08,0a.71.71,0,0,0-.9.48l-.07.06-.44.42-.06.07c-.26,0-.42.16-.37.45l-.63.6c-.3,0-.41.13-.43.39l0,.06a.72.72,0,0,0-.48.91l0,.08a4.56,4.56,0,0,0,.5,6.41l.05.07c0,1,.07,2,1.51,1.72a.15.15,0,0,1,.17.17c0,.57.35.58.76.54l.07,0a.71.71,0,0,0,.92.46l.08,0a6.6,6.6,0,0,0,8.91-.5l.06-.05c.41,0,.78,0,.76-.54l.15-.15C1296.75,669.77,1296.87,669.66,1296.78,669.34Z" transform="translate(-1049.82 -598.22)"/><path class="cls-3" d="M1283.49,660l.63-.6c.29,0,.44-.14.37-.45l.06-.07c.31,0,.48-.08.44-.42l.07-.06c.44.11.77,0,.9-.48l.08,0c.41.06.81.1.94-.44l.07,0h6.39l.07,0c.12.55.53.5.94.44l.07,0c.12.51.48.57.92.47l.06,0c0,.33.17.43.45.42l.07.06a1.17,1.17,0,0,0,.93.93l.07.08c0,.3.12.46.43.43l.06.06a12.2,12.2,0,0,1,1,6.39l0,.08c-.54.12-.54.5-.45.92l0,.07a.56.56,0,0,0-.53.76.15.15,0,0,0-.16.17c-.31-.08-.4.05-.32.35l-.15.15c-.3-.08-.42,0-.34.33l-.15.15a.58.58,0,0,0-.77.54l-.06.05a13.57,13.57,0,0,1-8.91.5l-.08,0c-.13-.51-.5-.53-.92-.46l-.07,0c-.07-.43-.31-.64-.76-.54a.15.15,0,0,0-.17-.17,2.57,2.57,0,0,0-1.51-1.72l-.05-.07a9.72,9.72,0,0,1-.5-6.41l0-.08c.49-.13.58-.47.48-.91l0-.06C1283.38,660.48,1283.48,660.3,1283.49,660Zm9.56,4.93-.11-.1a4.77,4.77,0,0,0-4-1.87h-1.41c-1.83-.06-2.69.66-2.08,2.57.1,1,.84,1.48,1.55,2a3.31,3.31,0,0,0,2.52,1.28l.85.11a1.21,1.21,0,0,0,1.74,0c1,0,1.77-.22,1.91-1.38A1.82,1.82,0,0,0,1293.05,665Z" transform="translate(-1049.82 -598.22)"/><path class="cls-1" d="M1286.55,670.92a13.57,13.57,0,0,0,8.91-.5A6.6,6.6,0,0,1,1286.55,670.92Z" transform="translate(-1049.82 -598.22)"/><path class="cls-1" d="M1298.49,666.85a12.2,12.2,0,0,0-1-6.39C1299.7,662,1300.07,664.5,1298.49,666.85Z" transform="translate(-1049.82 -598.22)"/><path class="cls-1" d="M1293.44,657.42h-6.39A5.12,5.12,0,0,1,1293.44,657.42Z" transform="translate(-1049.82 -598.22)"/><path class="cls-1" d="M1282.49,661.46a9.72,9.72,0,0,0,.5,6.41A4.56,4.56,0,0,1,1282.49,661.46Z" transform="translate(-1049.82 -598.22)"/><path class="cls-1" d="M1283,667.93a2.57,2.57,0,0,1,1.51,1.72C1283.11,669.91,1283,669,1283,667.93Z" transform="translate(-1049.82 -598.22)"/><path class="cls-1" d="M1297,659.88a1.17,1.17,0,0,1-.93-.93C1296.7,658.9,1297,659.21,1297,659.88Z" transform="translate(-1049.82 -598.22)"/><path class="cls-1" d="M1287,657.46c-.13.54-.53.5-.94.44C1286.22,657.45,1286.57,657.39,1287,657.46Z" transform="translate(-1049.82 -598.22)"/><path class="cls-1" d="M1294.45,657.91c-.41.06-.82.11-.94-.44A.73.73,0,0,1,1294.45,657.91Z" transform="translate(-1049.82 -598.22)"/><path class="cls-1" d="M1286,657.95c-.13.48-.46.58-.9.48A.71.71,0,0,1,1286,657.95Z" transform="translate(-1049.82 -598.22)"/><path class="cls-1" d="M1295.44,658.42c-.44.1-.79,0-.92-.47A.73.73,0,0,1,1295.44,658.42Z" transform="translate(-1049.82 -598.22)"/><path class="cls-1" d="M1283,660.47c.11.44,0,.78-.48.91A.72.72,0,0,1,1283,660.47Z" transform="translate(-1049.82 -598.22)"/><path class="cls-1" d="M1298,667.85c-.09-.43-.08-.81.45-.92A.73.73,0,0,1,1298,667.85Z" transform="translate(-1049.82 -598.22)"/><path class="cls-1" d="M1297.41,668.68a.56.56,0,0,1,.53-.76C1298,668.32,1298,668.71,1297.41,668.68Z" transform="translate(-1049.82 -598.22)"/><path class="cls-1" d="M1284.72,669.83c.45-.09.69.11.76.54C1285.07,670.4,1284.7,670.39,1284.72,669.83Z" transform="translate(-1049.82 -598.22)"/><path class="cls-1" d="M1295.52,670.37a.58.58,0,0,1,.77-.54C1296.3,670.39,1295.93,670.4,1295.52,670.37Z" transform="translate(-1049.82 -598.22)"/><path class="cls-1" d="M1285.55,670.41c.42-.07.79,0,.92.46A.71.71,0,0,1,1285.55,670.41Z" transform="translate(-1049.82 -598.22)"/><path class="cls-1" d="M1285,658.48c0,.34-.13.45-.44.42Z" transform="translate(-1049.82 -598.22)"/><path class="cls-1" d="M1296,658.89c-.29,0-.48-.09-.45-.42Z" transform="translate(-1049.82 -598.22)"/><path class="cls-1" d="M1284.49,659c.07.31-.08.44-.37.45C1284.07,659.13,1284.23,659,1284.49,659Z" transform="translate(-1049.82 -598.22)"/><path class="cls-1" d="M1283.49,660c0,.27-.11.46-.43.39C1283.08,660.15,1283.19,660,1283.49,660Z" transform="translate(-1049.82 -598.22)"/><path class="cls-1" d="M1296.93,669.19c-.08-.29,0-.43.32-.35C1297.36,669.16,1297.25,669.27,1296.93,669.19Z" transform="translate(-1049.82 -598.22)"/><path class="cls-1" d="M1296.44,669.68c-.08-.31,0-.42.34-.33C1296.87,669.66,1296.75,669.77,1296.44,669.68Z" transform="translate(-1049.82 -598.22)"/><path class="cls-1" d="M1297.45,660.39c-.31,0-.45-.13-.43-.43Z" transform="translate(-1049.82 -598.22)"/><path class="cls-2" d="M1287.55,663H1289a5.27,5.27,0,0,0,4,1.87l.1.1a3.32,3.32,0,0,0,1,2.6c-.14,1.15-.92,1.42-1.91,1.38a1.06,1.06,0,0,0-1.74,0l-.85-.11a2,2,0,0,0-2.52-1.28c-.71-.52-1.45-1-1.55-2C1285.83,664.41,1287,663.93,1287.55,663Z" transform="translate(-1049.82 -598.22)"/><path class="cls-1" d="M1292.95,664.85a5.27,5.27,0,0,1-4-1.87A4.77,4.77,0,0,1,1292.95,664.85Z" transform="translate(-1049.82 -598.22)"/><path class="cls-1" d="M1287.55,663c-.57,1-1.72,1.44-2.08,2.57C1284.86,663.63,1285.72,662.91,1287.55,663Z" transform="translate(-1049.82 -598.22)"/><path class="cls-1" d="M1294,667.56a3.32,3.32,0,0,1-1-2.6A1.82,1.82,0,0,1,1294,667.56Z" transform="translate(-1049.82 -598.22)"/><path class="cls-1" d="M1287,667.54a2,2,0,0,1,2.52,1.28A3.31,3.31,0,0,1,1287,667.54Z" transform="translate(-1049.82 -598.22)"/><path class="cls-1" d="M1290.39,668.93a1.06,1.06,0,0,1,1.74,0A1.21,1.21,0,0,1,1290.39,668.93Z" transform="translate(-1049.82 -598.22)"/></svg>