<svg id="Ebene_1" data-name="Ebene 1" xmlns="http://www.w3.org/2000/svg" viewBox="0 0 281.46 142.02"><defs><style>.cls-1{fill:#01b9ca;}.cls-2{fill:#456462;}.cls-3{fill:#4a6563;}.cls-4{fill:#4e6964;}.cls-5{fill:#4b6460;}.cls-6{fill:#494947;}.cls-7{fill:#1f2322;}.cls-8{fill:#efede1;}.cls-9{fill:#3ed0b8;}.cls-10{fill:#307373;}.cls-11{fill:#28696f;}.cls-12{fill:#507d7f;}.cls-13{fill:#3ecfb8;}.cls-14{fill:#020202;}</style></defs><title>fish aqua</title><path class="cls-1" d="M715.82,618.09h0c1.43,1,1.43,1.88-.06,2.77a17,17,0,0,1-2,1.09c-2.43,1-4.57,2.69-7.24,3.27a2.13,2.13,0,0,0-1.81,2.12c.1,1.07,1.3.83,2,1.08,1,.36,2.13.35,3.16.65,2.31.68,4.89.46,7.18,1.9-.67.58-1.14,1-1.68,1.43l-75.19,54a5.14,5.14,0,0,1-3.68,1.12c-9.26-.85-18.52-1.61-27.77-2.53a23.88,23.88,0,0,1-7.07-1.32q-39-16.27-78-32.44c-4.39-1.82-4.54-1.82-3.53-6.34.77-3.43,0-7.84,5-9l.56.15c.24.63.49.37.73,0l3.65-2.5a3.28,3.28,0,0,0,3-1.47h0a3.69,3.69,0,0,0,3.52-1.51h0a17.08,17.08,0,0,0,8-3.51h0a13.27,13.27,0,0,0,7-3h0a3.76,3.76,0,0,0,3.52-1.51h0a5.7,5.7,0,0,0,4.52-2h0a3.66,3.66,0,0,0,3.52-1.51h0a36.34,36.34,0,0,0,11.52-5h0a3.66,3.66,0,0,0,3.52-1.51h0c2.39-.12,4.34-1.36,6.35-2.44.9-.42,1.61-1.29,2.75-1.12.92-.29,1.95-.41,2.42-1.45h0a3.65,3.65,0,0,0,3.52-1.51h0c3.84-.58,7.05-2.81,10.63-4.08a5.12,5.12,0,0,1,2.8-.67c13.24,2.17,26.5,4.22,39.75,6.35,10.79,1.73,21.57,3.52,32.35,5.28,1.47,1.31,3.28.52,4.92.79q15.08,2.47,30.18,4.84C714.44,618.71,715.33,619.23,715.82,618.09Zm-30.27,13.42h0l.51-.52h0a.75.75,0,0,0,.56-.9l0-.1h0c.57-.14.59-.55.51-1h0c1.53-2.47,1.18-4.79-1-6.51h0c0-.35-.15-.53-.51-.52h0c.07-.75-.28-1.07-1-1h0a.44.44,0,0,0-.53-.49h0c-.14-.55-.54-.61-1-.53h0c-.15-.56-.57-.58-1-.5h0a5.26,5.26,0,0,0-6.5,0h0c-.46-.08-.88-.07-1,.49h0c-.47-.08-.87,0-1,.54h0c-.35,0-.55.11-.51.5h0c-.47,0-.63.25-.57.68a.56.56,0,0,1-.26.25.56.56,0,0,0-.67.58h0c-.55.14-.61.54-.53,1h0a4.64,4.64,0,0,0,.5,6.52h0a1.65,1.65,0,0,0,1.26,2l.29,0h0a.75.75,0,0,0,.89.58l.11,0h0c.15.55.54.61,1,.52h0a6.83,6.83,0,0,0,9-.51h0a.76.76,0,0,0,1-.46l0-.09h0ZM643,642.4l.44-.53c-3.31-2.28-6.63-4.56-9.93-6.86-.51-.35-1.37-.59-1.15-1.4s1-.49,1.52-.62l22.18-5.46a4.74,4.74,0,0,0,2.85-1.44l-29.47,7.05Z" transform="translate(-438.47 -560.29)"/><path class="cls-2" d="M525.08,635.86c-4.93,1.21-4.18,5.62-5,9-1,4.53-.86,4.52,3.53,6.34q39,16.19,78,32.44a23.88,23.88,0,0,0,7.07,1.32c9.25.91,18.51,1.68,27.77,2.53a5.14,5.14,0,0,0,3.68-1.12q37.57-27,75.19-54c.53-.38,1-.85,1.68-1.43-2.29-1.45-4.87-1.22-7.18-1.9-1-.3-2.16-.29-3.16-.65-.7-.25-1.91,0-2-1.08a2.13,2.13,0,0,1,1.81-2.12c2.67-.58,4.81-2.23,7.24-3.27a17,17,0,0,0,2-1.09c1.48-.88,1.49-1.81.06-2.77L716,618,717,618c1.86,1.87,1.09,2.8-1,3.76a59,59,0,0,0-9.76,5.59l13.67,2.79c-1.75,1.29-3.11,2.3-4.49,3.29l-72.44,52a11,11,0,0,0-3.51,4c-1.79,3.37-4,6.53-6,9.8-.39.64-1,1.11-.7,2.19.37,1.35-1,.68-1.5.67-4.54,0-9-.69-13.57-1-8.34-.54-16.63-1.81-25.26-2l15.77-12.38c-13.69-4.4-26.67-10.64-40-16-15.11-6.12-30.13-12.43-45.18-18.71a8,8,0,0,0-4.3-.56c-8.08,1-16.19,1.71-24.27,2.69-6.8.83-13.62,1.56-20.43,2.31-6.61.73-13.23,1.43-19.86,2-1.16.1-2.19,1.88-3.53.3-.18-.22-.72-.38-.46-.64,1.46-1.45,0-2.68-.37-3.83-3.53-10.21-7.2-20.37-10.8-30.56a10.8,10.8,0,0,1-.56-3.5c1.25,3.79,3.86,2.71,6.44,2.41,3.55-.41,7.16,0,10.71-.47a3.64,3.64,0,0,0,2.4-.1h9v.5a15.06,15.06,0,0,1-1.95.31c-7.41.24-14.81.52-22.22.62-2.22,0-2.73.5-1.94,2.69q5.27,14.66,10.27,29.42c.59,1.74,1.51,2.11,3.13,1.93,6.68-.74,13.38-1.42,20.06-2.14q13.13-1.42,26.25-2.88c5.36-.59,10.73-1.19,16.08-1.85.54-.07,1.42.31,1.59-.73,1-5.79,3.54-11.44,1.62-17.5-.35-1.11-.63-2.24-.91-3.37Q513,604.57,507,580a2.35,2.35,0,0,0-2.39-2c-9.82-1.06-19.63-2.28-29.45-3.35-1.21-.13-2.62-.82-3.74.41h-.44c-.09-1.57.95-1.61,2.08-1.55,3,.16,5.87.81,8.83,1.11,3.58.37,7.18.65,10.76,1.26,4.53.77,9.15,1.08,13.73,1.55,1.19.12,1.1,1,1.29,1.82l9.44,38.27q1.88,7.63,3.78,15.25c.88,3.54.89,3.53,4.18,2.34Zm69.82,62.46c7,.61,13.45,1.19,19.88,1.7,4.88.39,9.77.69,14.65,1A2.32,2.32,0,0,0,632,700c2.26-3.77,4.62-7.47,7.06-11.4-3.08-.81-6-.73-8.85-1-4.94-.54-9.9-1-14.85-1.37-1.79-.15-3.82-.86-5.33.28C605,690.14,600.21,694.14,594.9,698.32Z" transform="translate(-438.47 -560.29)"/><path class="cls-3" d="M593.55,575.14c5.78,1.18,11.57,2.29,17.32,3.58a2.64,2.64,0,0,0,3.27-1.33c3.33-5.07,6.76-10.08,10.19-15.1.47-.69.74-1.65,2.34-2-2.77,3.33,0,4.5,1.71,6l49.25,43.8a12.36,12.36,0,0,1,1,1.06l-.13,1.31-.95-.32c.54-1.16-.63-1.36-1.13-1.81q-10.77-9.65-21.6-19.22l-29.27-26c-1.1-1-1.55-.94-2.37.31-2.91,4.45-6,8.78-8.92,13.22a2.16,2.16,0,0,1-2.78,1.15c-5.57-1.28-11.2-2.31-16.8-3.44h-.52l.19.36c-.48.38-.94.45-1.36-.09C593.69,576.32,593.48,575.71,593.55,575.14Z" transform="translate(-438.47 -560.29)"/><path class="cls-4" d="M529.55,631.94c6.06-6.29,12.09-12.61,18.18-18.87q18.81-19.34,37.7-38.6c.66-.67,1.16-2.35,2.68-1.06l-.11.7c-.77-.15-1.23.33-1.71.81-6.24,6.35-12.51,12.67-18.74,19-12.62,12.91-25,26-37.89,38.69Z" transform="translate(-438.47 -560.29)"/><path class="cls-5" d="M467.06,622.59v-.5c6.2.15,12.35-1,18.56-.59,2.54.16,2.77-.3,1.85-2.71q-7.85-20.55-15.72-41.09a5.9,5.9,0,0,1-.77-2.59h.44a6.14,6.14,0,0,1,.64,1l12,31.34q2.78,7.26,5.58,14.53C482,622.27,474.55,622.73,467.06,622.59Z" transform="translate(-438.47 -560.29)"/><path class="cls-2" d="M678.55,612.55l.13-1.31c2.07,1.7,4.65,1.54,7.07,1.94,10,1.66,20.07,3.27,30.1,4.9-.48,1.14-1.38.62-2.14.5l-30.16-4.84c-1.64-.27-3.46.52-4.92-.79A1.07,1.07,0,0,1,678.55,612.55Z" transform="translate(-438.47 -560.29)"/><path class="cls-6" d="M529.55,631.94l.12.7.36.54a1.51,1.51,0,0,0,0,.34l-3.65,2.5h-.73l-.56-.15v-.72C526.83,634.47,528.09,633.14,529.55,631.94Z" transform="translate(-438.47 -560.29)"/><path class="cls-7" d="M588,574.14l.11-.7,5.47,1.7c0,.52.16,1.13-.5,1.44C591.32,575.8,589.34,575.56,588,574.14Z" transform="translate(-438.47 -560.29)"/><path class="cls-8" d="M458.06,622a3.64,3.64,0,0,1-2.4.1Z" transform="translate(-438.47 -560.29)"/><path class="cls-3" d="M717,618,716,618c.06-.33.19-.62.58-.58a.49.49,0,0,1,.48.64Z" transform="translate(-438.47 -560.29)"/><path class="cls-9" d="M588,574.14c1.37,1.46,3.36,1.71,5.05,2.53.42.53.88.46,1.36.09l.33-.33c5.6,1.13,11.23,2.16,16.8,3.44a2.16,2.16,0,0,0,2.78-1.15c2.92-4.44,6-8.77,8.92-13.22.82-1.26,1.28-1.29,2.37-.31q14.59,13,29.27,26,10.82,9.59,21.6,19.22c.5.45,1.67.64,1.13,1.81-10.72-1.72-21.43-3.41-32.14-5.17-11.69-1.92-23.37-3.9-35.06-5.83-2-.34-4.51-1.38-6.05-.62-3.75,1.86-7.74,3.29-11.3,5.56h0a5.6,5.6,0,0,0-3.52,1.51h0c-1,.13-2.15.08-2.42,1.45-1.14-.18-1.86.69-2.75,1.12-2.46-.08-4.39,1.22-6.35,2.44h0a5.62,5.62,0,0,0-3.52,1.51h0a61.64,61.64,0,0,0-11.52,5h0a5.6,5.6,0,0,0-3.52,1.51h0a8.81,8.81,0,0,0-4.52,2h0a5.33,5.33,0,0,0-3.52,1.51h0a21.73,21.73,0,0,0-7,3h0a26.71,26.71,0,0,0-8,3.51h0a5.46,5.46,0,0,0-3.52,1.51h0a5.94,5.94,0,0,0-3.07,1.13l-.36-.54c12.86-12.67,25.27-25.78,37.89-38.69,6.22-6.37,12.49-12.69,18.74-19C586.73,574.42,587.2,574,588,574.14Z" transform="translate(-438.47 -560.29)"/><path class="cls-8" d="M672.23,622a.56.56,0,0,0,.26-.25l.57-.68h0a.45.45,0,0,0,.51-.5h0a.81.81,0,0,0,1-.54h0c.42,0,.87,0,1-.49H682c.16.55.6.5,1,.5h0c.16.51.55.58,1,.53h0c0,.34.22.47.53.49h0a1.55,1.55,0,0,0,1,1h0a.51.51,0,0,0,.5.52h0a10.78,10.78,0,0,1,1,6.51h0c-.54.15-.55.57-.51,1h0c-.48.17-.75.46-.53,1h0c-.47-.12-.6.09-.51.52h0c-.44-.09-.62.06-.52.52h0c-.54-.19-.82.09-1,.55h0a12.62,12.62,0,0,1-9,.51h0c-.17-.5-.58-.53-1-.52h0c-.18-.46-.45-.76-1-.55h0c-.05-1-.87-1.45-1.55-2h0a8.79,8.79,0,0,1-.5-6.52h0a.81.81,0,0,0,.53-1h0Zm9.26,5.15h0a4.62,4.62,0,0,0-4-1.9H676.1c-1.7-.11-2.59.48-2,2.34a2.68,2.68,0,0,0,1.53,2,3.08,3.08,0,0,0,2.49,1.36l.94.12a1.07,1.07,0,0,0,1.48,0c.53,0,1.14.09,1.45-.54,1.44-1.38.83-2.45-.5-3.38Z" transform="translate(-438.47 -560.29)"/><path class="cls-10" d="M593,606.06c3.55-2.27,7.54-3.69,11.3-5.56,1.54-.76,4,.28,6.05.62C622.08,603,633.76,605,645.45,607c10.71,1.76,21.43,3.45,32.14,5.17l.93.43a1.38,1.38,0,0,0,.06.4c-10.78-1.76-21.56-3.55-32.35-5.29-13.25-2.13-26.51-4.18-39.75-6.35a5.12,5.12,0,0,0-2.8.67C600.1,603.25,596.88,605.48,593,606.06Z" transform="translate(-438.47 -560.29)"/><path class="cls-11" d="M643,642.4l-13.54-9.26L658.87,626a4.74,4.74,0,0,1-2.85,1.44q-11.08,2.75-22.18,5.46c-.55.13-1.34,0-1.52.62s.65,1,1.15,1.4c3.3,2.3,6.62,4.58,9.93,6.86Z" transform="translate(-438.47 -560.29)"/><path class="cls-10" d="M563,619.06a61.64,61.64,0,0,1,11.52-5A36.34,36.34,0,0,1,563,619.06Z" transform="translate(-438.47 -560.29)"/><path class="cls-12" d="M675,633a12.62,12.62,0,0,0,9-.51A6.83,6.83,0,0,1,675,633Z" transform="translate(-438.47 -560.29)"/><path class="cls-10" d="M536.55,630.56a26.71,26.71,0,0,1,8-3.51A17.08,17.08,0,0,1,536.55,630.56Z" transform="translate(-438.47 -560.29)"/><path class="cls-10" d="M544.55,627.06a21.73,21.73,0,0,1,7-3A13.27,13.27,0,0,1,544.55,627.06Z" transform="translate(-438.47 -560.29)"/><path class="cls-12" d="M687,629a10.78,10.78,0,0,0-1-6.51C688.21,624.26,688.55,626.57,687,629Z" transform="translate(-438.47 -560.29)"/><path class="cls-10" d="M578,612.56c2-1.22,3.89-2.53,6.35-2.44C582.38,611.2,580.43,612.44,578,612.56Z" transform="translate(-438.47 -560.29)"/><path class="cls-12" d="M682,619.57h-6.5A5.26,5.26,0,0,1,682,619.57Z" transform="translate(-438.47 -560.29)"/><path class="cls-12" d="M671,623.54a8.79,8.79,0,0,0,.5,6.52A4.64,4.64,0,0,1,671,623.54Z" transform="translate(-438.47 -560.29)"/><path class="cls-10" d="M555,622.56a8.81,8.81,0,0,1,4.52-2A5.7,5.7,0,0,1,555,622.56Z" transform="translate(-438.47 -560.29)"/><path class="cls-10" d="M589.55,607.56a5.6,5.6,0,0,1,3.52-1.51A3.65,3.65,0,0,1,589.55,607.56Z" transform="translate(-438.47 -560.29)"/><path class="cls-10" d="M574.55,614.06a5.62,5.62,0,0,1,3.52-1.51A3.66,3.66,0,0,1,574.55,614.06Z" transform="translate(-438.47 -560.29)"/><path class="cls-10" d="M559.55,620.56a5.6,5.6,0,0,1,3.52-1.51A3.66,3.66,0,0,1,559.55,620.56Z" transform="translate(-438.47 -560.29)"/><path class="cls-10" d="M551.55,624.06a5.33,5.33,0,0,1,3.52-1.51A3.76,3.76,0,0,1,551.55,624.06Z" transform="translate(-438.47 -560.29)"/><path class="cls-10" d="M533,632.06a5.46,5.46,0,0,1,3.52-1.51A3.69,3.69,0,0,1,533,632.06Z" transform="translate(-438.47 -560.29)"/><path class="cls-10" d="M530,633.14a5.94,5.94,0,0,1,3.07-1.13,3.28,3.28,0,0,1-3,1.47A1.5,1.5,0,0,1,530,633.14Z" transform="translate(-438.47 -560.29)"/><path class="cls-10" d="M587.15,609c.27-1.38,1.4-1.32,2.42-1.45C589.1,608.59,588.07,608.71,587.15,609Z" transform="translate(-438.47 -560.29)"/><path class="cls-12" d="M671.55,630c.68.53,1.5,1,1.55,2a1.65,1.65,0,0,1-1.55-2Z" transform="translate(-438.47 -560.29)"/><path class="cls-12" d="M685.55,622a1.55,1.55,0,0,1-1-1C685.28,621,685.64,621.3,685.55,622Z" transform="translate(-438.47 -560.29)"/><path class="cls-12" d="M674.55,620a.81.81,0,0,1-1,.54C673.69,620,674.09,620,674.55,620Z" transform="translate(-438.47 -560.29)"/><path class="cls-12" d="M684,620.57c-.46,0-.85,0-1-.53C683.55,620,683.91,620,684,620.57Z" transform="translate(-438.47 -560.29)"/><path class="cls-12" d="M683.06,620.06c-.43,0-.87.06-1-.5C682.49,619.48,682.91,619.49,683.06,620.06Z" transform="translate(-438.47 -560.29)"/><path class="cls-12" d="M675.55,619.56c-.16.54-.61.49-1,.49C674.69,619.49,675.11,619.48,675.55,619.56Z" transform="translate(-438.47 -560.29)"/><path class="cls-12" d="M686.55,630c0-.44,0-.86.51-1C687.12,629.49,687.1,629.91,686.55,630Z" transform="translate(-438.47 -560.29)"/><path class="cls-12" d="M686,631c-.21-.54.05-.83.53-1a.75.75,0,0,1-.43,1Z" transform="translate(-438.47 -560.29)"/><path class="cls-12" d="M673.07,632c.55-.21.81.09,1,.55a.75.75,0,0,1-1-.55Z" transform="translate(-438.47 -560.29)"/><path class="cls-12" d="M684,632.56c.18-.47.46-.74,1-.55a.76.76,0,0,1-.91.58Z" transform="translate(-438.47 -560.29)"/><path class="cls-12" d="M674,632.54c.43,0,.85,0,1,.52C674.55,633.14,674.19,633.09,674,632.54Z" transform="translate(-438.47 -560.29)"/><path class="cls-2" d="M525.64,636h.73C526.13,636.38,525.88,636.64,525.64,636Z" transform="translate(-438.47 -560.29)"/><path class="cls-12" d="M671.55,622.55a.81.81,0,0,1-.53,1C671,623.09,671,622.69,671.55,622.55Z" transform="translate(-438.47 -560.29)"/><path class="cls-12" d="M673.06,621.06l-.57.68C672.44,621.31,672.55,621,673.06,621.06Z" transform="translate(-438.47 -560.29)"/><path class="cls-12" d="M684.55,621a.47.47,0,0,1-.53-.49C684.37,620.54,684.55,620.69,684.55,621Z" transform="translate(-438.47 -560.29)"/><path class="cls-12" d="M673.55,620.56c0,.34-.19.49-.51.5C673,620.68,673.22,620.55,673.55,620.56Z" transform="translate(-438.47 -560.29)"/><path class="cls-12" d="M672.23,622l-.67.58a.56.56,0,0,1,.53-.59Z" transform="translate(-438.47 -560.29)"/><path class="cls-12" d="M685.55,631.53c-.09-.43,0-.64.51-.52Z" transform="translate(-438.47 -560.29)"/><path class="cls-12" d="M685,632c-.1-.45.08-.61.52-.52Z" transform="translate(-438.47 -560.29)"/><path class="cls-12" d="M686.06,622.56a.51.51,0,0,1-.51-.51h0C685.91,622,686.07,622.21,686.06,622.56Z" transform="translate(-438.47 -560.29)"/><path class="cls-9" d="M467.06,622.59c7.46.14,14.9-.31,22.57-.62q-2.79-7.28-5.58-14.53L472,576.1a6.14,6.14,0,0,0-.64-1c1.12-1.23,2.53-.54,3.74-.41C485,575.76,494.78,577,504.6,578a2.35,2.35,0,0,1,2.39,2q6,24.54,12.05,49.07c.28,1.13.56,2.26.91,3.37,1.92,6.07-.65,11.71-1.62,17.5-.17,1-1.06.66-1.59.73-5.36.66-10.72,1.26-16.08,1.85l-26.25,2.88c-6.69.72-13.38,1.4-20.06,2.14-1.62.18-2.54-.19-3.13-1.93q-5-14.75-10.27-29.42c-.79-2.19-.27-2.67,1.94-2.69,7.41-.09,14.81-.38,22.22-.62A15.06,15.06,0,0,0,467.06,622.59Z" transform="translate(-438.47 -560.29)"/><path class="cls-13" d="M594.9,698.32c5.31-4.19,10.12-8.13,15.1-11.86,1.51-1.13,3.54-.42,5.33-.28,5,.41,9.91.83,14.85,1.37,2.86.31,5.77.23,8.85,1-2.45,3.93-4.8,7.64-7.06,11.4a2.32,2.32,0,0,1-2.54,1.06c-4.88-.35-9.77-.65-14.65-1C608.35,699.51,601.93,698.92,594.9,698.32Z" transform="translate(-438.47 -560.29)"/><path class="cls-9" d="M594.38,576.71l-.19-.36h.52Z" transform="translate(-438.47 -560.29)"/><path class="cls-14" d="M675.63,629.5a2.68,2.68,0,0,1-1.53-2c.25-1.14,1.39-1.52,2-2.34h1.39a7.92,7.92,0,0,0,4,1.9h0c.14,1.11.85,2.13.51,3.31-.32.63-.92.49-1.45.54a.92.92,0,0,0-1.48,0l-.94-.12C677.63,629.78,676.64,629.63,675.63,629.5Z" transform="translate(-438.47 -560.29)"/><path class="cls-6" d="M681.45,627.14a7.92,7.92,0,0,1-4-1.9A4.62,4.62,0,0,1,681.45,627.14Z" transform="translate(-438.47 -560.29)"/><path class="cls-6" d="M682,630.45c.34-1.18-.37-2.2-.51-3.31C682.82,628.07,683.43,629.14,682,630.45Z" transform="translate(-438.47 -560.29)"/><path class="cls-6" d="M676.11,625.21c-.62.82-1.76,1.2-2,2.34C673.55,625.69,674.4,625.14,676.11,625.21Z" transform="translate(-438.47 -560.29)"/><path class="cls-6" d="M675.63,629.5c1,.12,2,.28,2.49,1.36A3.08,3.08,0,0,1,675.63,629.5Z" transform="translate(-438.47 -560.29)"/><path class="cls-6" d="M679.06,631a.92.92,0,0,1,1.48,0A1.07,1.07,0,0,1,679.06,631Z" transform="translate(-438.47 -560.29)"/></svg>