<svg id="Ebene_1" data-name="Ebene 1" xmlns="http://www.w3.org/2000/svg" viewBox="0 0 280.51 141.84"><defs><style>.cls-1{fill:#65a56b;}.cls-2{fill:#456261;}.cls-3{fill:#4b6662;}.cls-4{fill:#4a5e5b;}.cls-5{fill:#4b635f;}.cls-6{fill:#4e6964;}.cls-7{fill:#1f2322;}.cls-8{fill:#bbb;}.cls-9{fill:#64a46a;}.cls-10{fill:#aed34e;}.cls-11{fill:#3a736d;}.cls-12{fill:#efede0;}.cls-13{fill:#020202;}.cls-14{fill:#494947;}</style></defs><title>fish green</title><path class="cls-1" d="M471,574.58l.49-.6c2.09,1,4.4.73,6.59,1,9,1.16,18.07,2.1,27.11,3.06a1.85,1.85,0,0,1,1.8,1.69c.6,2.57,1.18,5.15,1.82,7.72q5.81,23.5,11.65,47a11,11,0,0,1-.4,6.52c.91,2,.16,3.61-1,5.18-.09,1.88,0,3.82-2,4.89l-3.54.1a1.51,1.51,0,0,0-1.46.43c-1.33,0-2.67,0-4,.16-7,.75-14,1.55-21,2.32-5.51.61-11,1.23-16.54,1.82s-10.88,1.09-16.31,1.71c-1.74.2-2.5-.5-3-2.09q-5.19-15.08-10.57-30.1c-.56-1.56-.22-1.8,1.27-1.85,9.72-.29,19.44-.65,29.16-1l5.46-.08,6-.42c1.74,0,3.49-.06,5.23,0,1.55.09,1.79-.26,1.2-1.79-4.23-10.88-8.3-21.81-12.54-32.69C474.73,583.23,473.43,578.67,471,574.58Z" transform="translate(-438.36 -560.39)"/><path class="cls-2" d="M517,651c2-1.07,2-3,2-4.89,1.28.16.44,1.07.42,1.52a2.43,2.43,0,0,0,1.68,2.68Q537.6,657.13,554,664c12.57,5.22,25.1,10.52,37.73,15.61,6.1,2.46,11.92,5.74,18.91,5.67,2.14,0,4.65-.45,6.77.81l-.44.36c-3.39-.68-6.59-.92-9.47,1.76-2.54,2.36-5.46,4.31-8.13,6.54-1.38,1.15-3.24,1.82-4.13,3.74,3.52.23,6.83.43,10.14.68q12.12.93,24.24,1.93a2.48,2.48,0,0,0,2.57-1.48c1.89-3.12,3.76-6.25,5.81-9.26,1.12-1.65.54-2.13-1.09-2.26-2.64-.21-5.28-.4-7.92-.6v-.36a26.19,26.19,0,0,1,6.2.35,6.37,6.37,0,0,0,5.39-1.23c8.37-6.14,16.81-12.18,25.24-18.23l50-35.86c.46-.33,1.16-.52,1-1.25s-.78-.73-1.38-.83c-2.93-.5-5.88-1-8.78-1.63-.62-.14-1.77.14-1.86-1.17s.81-1.68,1.62-1.9c3.65-1,6.64-3.36,10.07-4.82l.54.55-11.63,6.17c4.07.82,7.5,1.53,10.93,2.19.87.17,2.22,0,2.45.74.33,1.08-1,1.53-1.77,2.07q-36.81,26.47-73.64,52.91a12,12,0,0,0-4.07,4.44c-1.68,3.33-3.88,6.4-5.85,9.58-.31.49-.95,1.14-.82,1.48.8,2.07-.72,1.49-1.59,1.42-4.94-.34-9.87-.77-14.81-1.12-7.8-.55-15.56-1.7-23.8-1.87l16-12.6c-10.78-2.68-20.45-7.81-30.55-11.83s-20.14-8.31-30.2-12.48c-8.14-3.38-16.3-6.71-24.41-10.16a7.41,7.41,0,0,0-4.78-.63C518.11,651,517.55,651.07,517,651Z" transform="translate(-438.36 -560.39)"/><path class="cls-3" d="M717.07,621.08l-.54-.55c.07-.74,1.16-1.85-.91-1.63-1.34.14-2.74-.43-4.12-.65-7.72-1.24-15.48-2.3-23.16-3.78-3.59-.69-7.42-.12-10.79-2v-.41c.64-.61-.06-.87-.35-1.13q-5.34-4.86-10.73-9.67l-30.53-27.1q-5-4.46-10-9c-1.06-1-1.83-1.31-2.82.32-2,3.24-4.24,6.31-6.36,9.47-3.49,5.19-3.45,5-9.67,3.81-4.65-.88-9.15-2.94-14.06-2.23.68-.3.47-.91.51-1.44,5.78,1.18,11.58,2.29,17.33,3.58a2.64,2.64,0,0,0,3.27-1.35c3.24-4.94,6.58-9.82,9.91-14.7.54-.79.87-1.8,1.86-2.23l.37.32c-1.85,2.29-.25,3.54,1.35,5q25.25,22.37,50.43,44.81a8.21,8.21,0,0,0,4.38,2.12c10.59,1.66,21.16,3.41,31.73,5.17,1.3.22,2.95-1,3.8,1.41C718.47,620.71,717.91,620.75,717.07,621.08Z" transform="translate(-438.36 -560.39)"/><path class="cls-4" d="M517,651c.52,0,1.07-.09,1.48.37l-24.2,2.68c-13,1.41-26,2.79-39,4.26-.9.1-2.06-.37-2.81,1-.58,1-.93-.74-1.68-.61-.33.06-1-.23-.52-.69,1.18-1.1.15-2-.16-2.92-3.68-10.5-7.44-21-11.11-31.48a6.32,6.32,0,0,1-.68-3.08,4,4,0,0,1,.48-.1c1,2.83,2.85,2.67,5.44,2.26,3.67-.58,7.47-.34,11.21-.45a2.29,2.29,0,0,0,2.12-.13H471v.43c-9.72.34-19.44.71-29.16,1-1.5,0-1.83.29-1.27,1.85q5.4,15,10.57,30.1c.55,1.6,1.3,2.3,3,2.09,5.43-.63,10.87-1.13,16.31-1.71s11-1.21,16.54-1.82c7-.78,14-1.57,21-2.32,1.32-.14,2.66-.11,4-.16.52,0,1.09.1,1.46-.43Z" transform="translate(-438.36 -560.39)"/><path class="cls-5" d="M520.07,641a11,11,0,0,0,.4-6.52q-5.87-23.49-11.65-47c-.63-2.57-1.22-5.14-1.82-7.72a1.85,1.85,0,0,0-1.8-1.69c-9-1-18.09-1.9-27.11-3.06-2.19-.28-4.5,0-6.59-1,.3-.82,1-.5,1.5-.41,5.32,1,10.72,1.2,16.08,1.85,5.7.69,11.4,1.41,17.12,2,1.36.15,1.26,1.07,1.46,1.92l11.95,48.4c.5,2,1.14,4,1.46,6.06s1.16,2.75,3.08,1.64a4.2,4.2,0,0,1,.94-.28l1,.81c-2.63.36-5,1-5.1,4.35C521,640.84,520.55,641,520.07,641Z" transform="translate(-438.36 -560.39)"/><path class="cls-6" d="M528,633.47l19.58-20.26q18.89-19.41,37.84-38.75c.66-.67,1.15-2.35,2.68-1.06l-.11.7c-1.34-.3-1.93.77-2.65,1.51q-13.71,14.13-27.39,28.28-13.13,13.48-26.33,26.89a18.89,18.89,0,0,0-1.25,1.53c-.18.17-.68.21-.44.55s.54,0,.74-.21l1.42-.27a4.84,4.84,0,0,1-3.35,1.74Z" transform="translate(-438.36 -560.39)"/><path class="cls-5" d="M471,574.58c2.4,4.1,3.71,8.65,5.41,13,4.24,10.87,8.31,21.81,12.54,32.69.59,1.53.35,1.87-1.2,1.79-1.74-.1-3.49,0-5.23,0v-.48H484c4.47,0,4.48,0,2.85-4.31l-15.45-40.39C471.17,576.14,470.46,575.45,471,574.58Z" transform="translate(-438.36 -560.39)"/><path class="cls-4" d="M482.55,621.57V622l-6,.42c-.74-.72-1.68-.29-2.52-.43C476.8,621.08,479.68,621.52,482.55,621.57Z" transform="translate(-438.36 -560.39)"/><path class="cls-7" d="M588,574.14l.11-.7,5.47,1.7c0,.53.17,1.14-.51,1.44C591.33,575.78,589.33,575.57,588,574.14Z" transform="translate(-438.36 -560.39)"/><path class="cls-7" d="M528,633.47l.75.66L526.08,636l-1-.81Z" transform="translate(-438.36 -560.39)"/><path class="cls-5" d="M474,622c.84.14,1.78-.28,2.52.43l-5.46.08v-.43Z" transform="translate(-438.36 -560.39)"/><path class="cls-8" d="M457.62,622.14a2.29,2.29,0,0,1-2.12.13A2.66,2.66,0,0,1,457.62,622.14Z" transform="translate(-438.36 -560.39)"/><path class="cls-9" d="M526.07,636l2.64-1.86a4.84,4.84,0,0,0,3.35-1.74c.8-.43,1.56-.92,2.39-1.28q25.34-11,50.7-21.9c4.55-2,8.94-4.33,13.74-5.68a3,3,0,0,0,2.65-1h0a2.06,2.06,0,0,0,1.66-.34c2.41-1.69,4.86-.83,7.32-.16l2.65.13a45.84,45.84,0,0,0,9.38,1.39,26.86,26.86,0,0,0,8.58,1.07c.43.91,1.28.82,2.1,1,3.78.66,7.62.91,11.33,2l2.62.12c5.59,1.35,11.32,1.91,17,2.88,4.45.76,8.94,1.33,13.41,2,3.37,1.84,7.2,1.27,10.79,2,7.68,1.48,15.43,2.54,23.16,3.78,1.38.22,2.78.79,4.12.65,2.07-.22,1,.9.91,1.63-3.42,1.46-6.42,3.81-10.07,4.82-.82.23-1.7.68-1.62,1.9s1.24,1,1.86,1.17c2.9.65,5.84,1.13,8.78,1.63.6.1,1.23.18,1.38.83s-.52.92-1,1.25l-50,35.86c-8.43,6-16.87,12.09-25.24,18.23a6.37,6.37,0,0,1-5.39,1.23,26.22,26.22,0,0,0-6.2-.35,52.65,52.65,0,0,0-11.55-1c-2.12-1.26-4.63-.83-6.77-.81-7,.07-12.81-3.21-18.91-5.67-12.62-5.08-25.16-10.39-37.73-15.61l-32.89-13.63a2.43,2.43,0,0,1-1.68-2.68c0-.46.86-1.36-.42-1.52,1.15-1.57,1.9-3.22,1-5.18.44,0,.89-.13.9-.64C521,637,523.45,636.35,526.07,636Zm153-2.23c4.4,0,8.1-3.17,8.16-7.07s-3.88-7.45-8.42-7.48c-4.29,0-8.21,3.36-8.21,7.09-.05,3.95,3.95,7.43,8.45,7.46Z" transform="translate(-438.36 -560.39)"/><path class="cls-2" d="M513.55,651.14c-.38.52-.94.41-1.46.43A1.51,1.51,0,0,1,513.55,651.14Z" transform="translate(-438.36 -560.39)"/><path class="cls-10" d="M629.06,687.47l7.92.6c1.63.13,2.21.61,1.09,2.26-2,3-3.92,6.14-5.81,9.26a2.48,2.48,0,0,1-2.57,1.48q-12.11-1-24.24-1.93c-3.3-.25-6.61-.45-10.14-.68.89-1.91,2.75-2.59,4.13-3.74,2.67-2.23,5.59-4.17,8.13-6.54,2.88-2.68,6.08-2.43,9.47-1.76Z" transform="translate(-438.36 -560.39)"/><path class="cls-11" d="M629.06,687.47l-12-1,.44-.36a52.67,52.67,0,0,1,11.55,1Q629,687.28,629.06,687.47Z" transform="translate(-438.36 -560.39)"/><path class="cls-10" d="M598.89,603.53c-4.8,1.35-9.19,3.73-13.74,5.68q-25.39,10.87-50.7,21.9c-.83.36-1.6.85-2.39,1.28l-1.42.27-.3-.35c.41-.51.79-1.06,1.25-1.53l26.33-26.89c9.15-9.4,18.25-18.86,27.39-28.28.72-.74,1.31-1.82,2.65-1.51,1.36,1.47,3.36,1.68,5,2.52,4.91-.71,9.4,1.35,14.06,2.23,6.22,1.17,6.17,1.38,9.67-3.81,2.12-3.16,4.39-6.22,6.36-9.47,1-1.62,1.76-1.27,2.82-.32q5,4.48,10,9l30.53,27.1q5.4,4.8,10.73,9.67c.29.26,1,.52.35,1.13-5.91-1-11.8-2.07-17.73-2.85-4.22-.56-8.33-2-12.66-1.6l-2.62-.12c0-.74-.43-.9-1.1-1-4.11-.61-8.22-1.27-12.33-1.91a26.85,26.85,0,0,1-8.58-1.07,22.9,22.9,0,0,0-9.38-1.39l-2.65-.13c-1-1.13-5-2-6.51-1.24-.87.45-2.41.13-2.48,1.75h0A3.42,3.42,0,0,0,598.89,603.53Z" transform="translate(-438.36 -560.39)"/><path class="cls-11" d="M647.16,607.66c4.33-.37,8.45,1,12.66,1.6,5.93.78,11.82,1.89,17.73,2.85v.41c-4.47-.65-9-1.22-13.41-2C658.49,609.57,652.76,609,647.16,607.66Z" transform="translate(-438.36 -560.39)"/><path class="cls-10" d="M530.64,632.66c-.2.26-.55.47-.74.21s.26-.38.44-.55Z" transform="translate(-438.36 -560.39)"/><path class="cls-12" d="M679,633.76c-4.52,0-8.47-3.52-8.47-7.46,0-3.73,3.92-7.12,8.21-7.09,4.54,0,8.48,3.53,8.42,7.48S683.45,633.8,679,633.76Zm2.44-6.62h0a4.63,4.63,0,0,0-4-1.9H676.1c-1.7-.11-2.59.48-2,2.34a2.68,2.68,0,0,0,1.54,2,3.08,3.08,0,0,0,2.49,1.36l.94.12a1.07,1.07,0,0,0,1.48,0c1,0,1.85-.24,2-1.45a1.72,1.72,0,0,0-1.06-2.47Z" transform="translate(-438.36 -560.39)"/><path class="cls-11" d="M631.12,604.62c4.11.64,8.22,1.31,12.33,1.91.67.1,1.1.27,1.1,1-3.71-1-7.55-1.29-11.33-2C632.39,605.45,631.55,605.53,631.12,604.62Z" transform="translate(-438.36 -560.39)"/><path class="cls-2" d="M601.55,602.53c.07-1.62,1.61-1.3,2.48-1.75,1.51-.78,5.54.12,6.51,1.24-2.45-.67-4.9-1.53-7.32.16A2.06,2.06,0,0,1,601.55,602.53Z" transform="translate(-438.36 -560.39)"/><path class="cls-11" d="M613.16,602.14a22.9,22.9,0,0,1,9.38,1.39A45.84,45.84,0,0,1,613.16,602.14Z" transform="translate(-438.36 -560.39)"/><path class="cls-2" d="M598.89,603.53a3.42,3.42,0,0,1,2.65-1A3,3,0,0,1,598.89,603.53Z" transform="translate(-438.36 -560.39)"/><path class="cls-13" d="M682.55,629.55c-.12,1.21-1,1.44-2,1.45a.92.92,0,0,0-1.48,0l-.94-.12c-.49-1.08-1.48-1.23-2.49-1.36a2.68,2.68,0,0,1-1.54-2c.25-1.14,1.39-1.52,2-2.34h1.39a7.93,7.93,0,0,0,4,1.9h0A4.13,4.13,0,0,0,682.55,629.55Z" transform="translate(-438.36 -560.39)"/><path class="cls-14" d="M681.45,627.14a7.93,7.93,0,0,1-4-1.9A4.63,4.63,0,0,1,681.45,627.14Z" transform="translate(-438.36 -560.39)"/><path class="cls-14" d="M676.11,625.21c-.62.82-1.76,1.2-2,2.34C673.55,625.69,674.4,625.14,676.11,625.21Z" transform="translate(-438.36 -560.39)"/><path class="cls-14" d="M682.55,629.55a4.13,4.13,0,0,1-1-2.4,1.72,1.72,0,0,1,1,2.4Z" transform="translate(-438.36 -560.39)"/><path class="cls-14" d="M675.63,629.5c1,.12,2,.28,2.49,1.36A3.08,3.08,0,0,1,675.63,629.5Z" transform="translate(-438.36 -560.39)"/><path class="cls-14" d="M679.06,631a.92.92,0,0,1,1.48,0A1.07,1.07,0,0,1,679.06,631Z" transform="translate(-438.36 -560.39)"/></svg>