<svg id="Ebene_1" data-name="Ebene 1" xmlns="http://www.w3.org/2000/svg" viewBox="0 0 184.6 166.59"><defs><style>.cls-1{fill:#fefdfd;}.cls-2{fill:#f9aa6c;}.cls-3{fill:#fb621f;}.cls-4{fill:#f76a2f;}.cls-5{fill:#f8803c;}.cls-6{fill:#90827e;}.cls-7{fill:#6d5044;}.cls-8{fill:#fd9545;}.cls-9{fill:#e1cdd0;}.cls-10{fill:#bd6953;}.cls-11{fill:#7a3c17;}.cls-12{fill:#fc894c;}.cls-13{fill:#fe792c;}.cls-14{fill:#fb4914;}.cls-15{fill:#6f1da4;}.cls-16{fill:#fe5841;}</style></defs><title>plantation orange</title><path class="cls-1" d="M1059.5,359.91q91.12,0,182.25,0c1.87,0,2.3.42,2.3,2.3q-.09,81.12,0,162.25c0,1.71-.34,2-2,2q-90.25-.09-180.5,0c-1.71,0-2-.34-2-2Q1059.54,442.16,1059.5,359.91Zm135.95,113-.36.5-2.05,2c-1.94-.49-2.45-2.22-2.4-3.71.11-3.73-.2-7.48.44-11.19.88-5.08,1.78-10.15,2.57-15.25.53-3.44,1.06-6.92-.09-10.36l.3-8c.85-3.24,1.8-6.46,2.53-9.73a6.26,6.26,0,0,0-.5-4.77c-2-3.36-4.24-6.52-7.56-8.74a8.26,8.26,0,0,1-1.78-2c-1.06-1.35-1.38-3.5-3.56-3.73a11.51,11.51,0,0,0-5.85.59c-2.86,1.22-3.64,3.38-2.17,6.33l.12.08.33.23,1.48,1.29s-.12.06-.12.1a.16.16,0,0,0,.08.13s.1,0,.15-.06l.5.81a.42.42,0,0,0,.37.57v0c.69,2.19,1.84,4,4.15,4.78a5.43,5.43,0,0,1,2.34,3.52c-.54.61-.49,1.93-1.86,1.57-2.73-2.25-4-2.11-4.89.51-1.14,1.78.15,3.07.9,4.47-.75,1.35.15,2.7,0,4-1.65.89-1.3,2.53-1.49,4-.93,0-1.35,1.4-2.47,1a39.55,39.55,0,0,0,.44-10.48c.76-.76.12-.87-.47-1v0a3.3,3.3,0,0,0,.07-2.48c-.5-2.37-2.35-3-4-4-1.66-2.63-3.9-3.61-6.9-2.41l-.18-1c.88-1.26.38-2.41-.85-2.62-2-.35-1.93-1.42-1.54-2.85l.56-.61c2.05.5,3.34-1.41,4.41-2.26,1.56-1.22.74-3.55-1.31-4.73-1.29-2.08-3.36-1.54-5.21-1.43s-2.35,1.71-2.73,3.14c-.66,2.51-1.41,4.93-3.36,6.79l-.47.32h-.22l-.09.2-2.21,1h-1.24c-1.1,0-2.42.14-2.63-1.23s.48-1.87,2-2.2a4.8,4.8,0,0,0,3.44-2.62c1.14-2,1.57-4.22,2.33-6.31,1.25-3.45-1.59-7.53-5-8.1-2.14-.48-4.31-1.34-6.29.46a1.63,1.63,0,0,0-1.81,1.05c-.48,2-2,2.91-3.47,4a3.55,3.55,0,0,0-1.49,2,.23.23,0,0,0-.21.28l-.14,0,0,.13-2.42,3c-1.08.89-1.43,2.41-2.7,3.21l-1-1.72c-.53-1.1-.36-2.47-1.36-3.38a1.94,1.94,0,0,0-1.55-2.22c-1.89-.66-5.45.44-6.53,2.14-.83,1.32-1.23,2.72.13,4l.93.61.18.61a.16.16,0,0,0,0,.26c-1.4.5-1.27,2.09-2.12,3a1.55,1.55,0,0,1-1.15-.3c-3.71-2.35-7.5-2.2-11.33-.28a28,28,0,0,0-4.67,2c-1.12.68-1.64,1.48-1.2,2.77a.72.72,0,0,0-.1.44c-1.42,0-1.45.88-1.53,2-.33,4.18,1.23,7.94,2.41,11.8.94,3.08,1.57,6.32,4.47,8.34a15.38,15.38,0,0,0,11.15,5.67l3,.31.16.11h.2l0,0a2.05,2.05,0,0,0,2,1c3.16.35,5.33,2.76,8.1,3.91l4.52,4.54a11.57,11.57,0,0,1,2.54,3.78c.34,2,1.95,3.5,2,5.58.26,3.68.48,7.36.8,11,.06.75.07,1.73,1.18,1.91a1.44,1.44,0,0,0,0,.41c-.94.68-.61,1.69-.44,2.5.78,3.78,1.93,7.49,1.88,11.41,0,.3.13.8.33.88,2,.78,2.5,3,4.2,4.06v.78c1.17,2.53,3.61,3.77,5.61,5.42,3.53,2.93,6,6.31,6,11.13,0,1-.34,2.22.91,2.86,0,2.2,1,3.13,3.23,3.09a15.34,15.34,0,0,1,3.92.59c.73.18,1.57.27,1.92,1.31a5.6,5.6,0,0,0,5.92,4.08c2.82-.26,2.83-2.58,3.26-4.57l.23-.85.92,0,.18,3.91a16.25,16.25,0,0,0,1.42-3.76,37.47,37.47,0,0,1,3.33-9.53c1.19-2.26,3-4.14,3.81-6.6a11.65,11.65,0,0,1,2.3-5.62c.79-1.13,2.11-1.86,2.56-3.26,1.7-2,3.8-3.7,4.88-6.2.57-1.06,2-1.45,2.17-2.83,1.79-.47,2.13-2.38,3.37-3.39,2.59-.21,3.37-2.43,4.61-4.14a3.1,3.1,0,0,0,1.6-1.84c2.15-5,4.34-9.91,4.82-15.4a52.23,52.23,0,0,1,1.28-8.87c2.2-8.29.76-16.39-1.26-24.46l0-1a.82.82,0,0,0,0-1.09v-1.39a.85.85,0,0,0,0-1.07,19.87,19.87,0,0,0-1-5.52c-.19-1.83.47-3.75-.53-5.51l-.07-.85c.19-1,.41-2.08.55-3.12.31-2.3-.9-3.48-3-3.94h0a11.75,11.75,0,0,0-4.93-4.57c-1.42-1.26-2.16-3.39-4.49-3.49-1.9-1-3.13-3.22-5.64-3.16-.1,0-.25-.2-.3-.34s0-.35.1-.11-.15.38-.24.56l-1-1.35c-1-2.22-2.76-2.8-5-2.49l-1.21-2.61a1.9,1.9,0,0,0-2.13-1.66,6,6,0,0,0-5.63,3.3,20.78,20.78,0,0,0-2.33,9.3c-.15.45-.14.85.39,1.06a.54.54,0,0,0,0,.47c.31,2.66,1.63,3.39,5.18,2.85l1.07-.14c.83,1.55,1.82,1.73,3,.32,4.66.18,8.93,1.09,12.12,5a35.25,35.25,0,0,1,4.65,7l.46,1.61a.23.23,0,0,0,0,.37c.46,1.87-.08,3.74,0,5.61l0,3.35c-1.14.57-.54,1.61-.59,2.42-.13,2.05.58,4.44-.25,6.11-2.42,4.88-1.9,9.31.74,13.77a31.86,31.86,0,0,1,0,7.15c-.39,2.52-1.09,5-1,7.59-2.2,3.91-2.75,8.44-4.81,12.41-1,1.91-2.7,3.36-3.31,5.48Z" transform="translate(-1059.45 -359.86)"/><path class="cls-2" d="M1184.38,416.33a5.43,5.43,0,0,0-2.34-3.52c-1.15-1.71-2-3.62-3.62-5,.2-.55.36-1.25,1-1.32,2.18-.24,3.68-1.84,5.56-2.68a16.42,16.42,0,0,1,9.55,9.06,32.59,32.59,0,0,1-1.92,8.53l-.13-.49v-4.5c.17-1.45-.82-1.81-1.94-2q0-.23,0-.47c.44-.33.4-.65,0-1-2-1.6-4-2.89-6.71-1,0,1.74,2.51,2.51,2.26,4.55,2.08,3.08,1.78,6.26.41,9.48-.33-2.22.72-4.71-1.28-6.62A5.75,5.75,0,0,0,1184.38,416.33Zm.75-6.11c.06-.14.2-.31.16-.41s-.26-.13-.39-.19c-.06.14-.2.31-.16.41S1185,410.17,1185.13,410.23Z" transform="translate(-1059.45 -359.86)"/><path class="cls-3" d="M1179,511.94l-.23.85a1.7,1.7,0,0,0-1.84,1.55c-1,.21-2.37,1.05-2.34-.77,0-2.59-1-3.27-3.36-2.68a6.61,6.61,0,0,1-1.71,0c-.33-2.92,1.33-5.37,2-8,.2-.78-.07-3,1.55-2.49,1.13.33-.29,1.87-.1,2.9,0,.24,0,.5,0,.74.1.59-.34,1.54.57,1.65s1-.83,1-1.44c.26-3,2.26-5.25,3.12-8a8.49,8.49,0,0,1,2.78-4.27c-.2,3.16-.07,6.39-1.68,9.29-1.37,2.47-1.79,5.28-2.89,7.84-.25.58-.44,1,.27,1.46s1.14,0,1.58-.56a8,8,0,0,0,1.19-3,34.82,34.82,0,0,1,2.48-7c.36-.69.53-1.67,1.68-1.49l-.16,1.9a.86.86,0,0,0-.89,1.15l-.12,1.35c-.67.12-1.24.28-.44,1,0,1.23-1.9,2.13-.59,3.57l-1,3.3C1179.36,511,1178.94,511.26,1179,511.94Z" transform="translate(-1059.45 -359.86)"/><path class="cls-4" d="M1204,454.41c-.09-2.58.61-5.07,1-7.59a31.86,31.86,0,0,0,0-7.15c-.89-4.63-1.71-9.26.54-13.77.76.68.67,2.52,1.94,2.18.89-.24,1.39-1.6,1.69-2.77s-.28-2.71,1.09-3.58c-1.37-1.54,0-2.91.28-4.35,1.32.31,2,.7,1.19,2.35s-.39,3.2,1.75,3.7q0,.48,0,1a8.06,8.06,0,0,1-6.33,4.84c2,1.51,4.13,2.07,4.74,4.22.07.24.71.31,1.08.46l.52,1c-1,1.42,1.39,3.19-.46,4.52l-.53,1.49H1210c0-2.53.51-5.2-2.1-7-.31-.21-.28-.91-.45-1.37-.36-1-1-2.07-2-1.84s-1,1.58-.92,2.56a3.07,3.07,0,0,0,.63,1.83c1.42,1.3,1.37,2.9,1.34,4.58,0,2.07,0,4.15,0,6.22-.62,1-.36,2.08-.53,3.13-.35,2.18-.34,4.49-1.83,6.35Z" transform="translate(-1059.45 -359.86)"/><path class="cls-2" d="M1183,500.4l.16-1.9.5-.44a1.12,1.12,0,0,0,.95-1.05c.53-.05,1.09,0,1.43-.56a1.57,1.57,0,0,0,1-1.54c1.31-3.76,4.17-6.71,5.54-10.44,1.7-.57.67-2,1-3,2-1.79,3.11-4.25,4.5-6.49l1.46-1.54,2.62.1-1.52,4.52c-.17,1.37-1.6,1.76-2.17,2.82-2.38,1.48-4.39,3.24-4.88,6.2-.45,1.41-1.77,2.13-2.56,3.26a11.66,11.66,0,0,0-2.3,5.62,5.77,5.77,0,0,0-2.75,2.75c-1.69,2.93-3.32,5.89-5,8.83-1.32-1.44.61-2.34.59-3.57a1,1,0,0,0,.44-1l.12-1.35A1,1,0,0,0,1183,500.4Z" transform="translate(-1059.45 -359.86)"/><path class="cls-5" d="M1142,469.25a1.43,1.43,0,0,1,0-.41,6.09,6.09,0,0,0,.09-2.63,15.75,15.75,0,0,1-.53-5.83,1.66,1.66,0,0,0-.13-2.47l-.45-.9-.36-3.12,3.35.54c.13.77-.31,1.81,1,2a40.29,40.29,0,0,0,2.09,13l.46,4c-1.21-.37-2.43-1.51-3.59.08C1143.14,472.14,1143.43,470.31,1142,469.25Z" transform="translate(-1059.45 -359.86)"/><path class="cls-6" d="M1215,419.91c2,8.07,3.46,16.17,1.26,24.46a52.23,52.23,0,0,0-1.28,8.87c-.48,5.49-2.67,10.44-4.82,15.4a3.1,3.1,0,0,1-1.6,1.84l-.58-.55a14.58,14.58,0,0,0,2.68-6l.36-.88.52-1.05a25.44,25.44,0,0,0,2.39-11.05l1.6-9.52a34.11,34.11,0,0,0-.46-15.09c.22-2.19-1.35-4.1-1-6.31Z" transform="translate(-1059.45 -359.86)"/><path class="cls-2" d="M1176.94,514.34a1.7,1.7,0,0,1,1.84-1.55c-.44,2-.45,4.3-3.26,4.57a5.6,5.6,0,0,1-5.92-4.08c-.35-1-1.18-1.13-1.92-1.31a15.34,15.34,0,0,0-3.92-.59c-2.22,0-3.27-.9-3.23-3.09A49.27,49.27,0,0,0,1160,500l.44-.09,2.05,1.54a1.08,1.08,0,0,0,1,.55c1.36,2,1,4.27,1,6.48,0,.89-.15,1.73,1.22,2a12.91,12.91,0,0,1,7.86,4.63C1175.05,516.91,1176.06,516.67,1176.94,514.34Z" transform="translate(-1059.45 -359.86)"/><path class="cls-6" d="M1193.56,434.86c1.15,3.44.62,6.92.09,10.36-.79,5.09-1.69,10.17-2.57,15.25-.64,3.71-.33,7.46-.44,11.19,0,1.48.46,3.21,2.4,3.71l-1.53,2.5-1.63-1,0-2.1c-1.12-3.42.07-6.93-.39-10.37q0-.78,0-1.56c.26-1.8.59-3.6.76-5.41.33-3.55,1.91-6.89,1.66-10.53l.09-3,1-7.07C1193.75,436.34,1193.36,435.53,1193.56,434.86Z" transform="translate(-1059.45 -359.86)"/><path class="cls-4" d="M1144,454.43l-3.35-.54c-1.24-.92-.62-3.19-2.61-3.57a11.58,11.58,0,0,0-2.54-3.78c-.47-2.61-1.76-4.55-4.44-5.32a10.64,10.64,0,0,0-4.58-3.3c-.53-.67-1.27-.48-2-.48l-1.47-.5-2.14.14,0,0-.08-.39-.28.3-3-.31q0-.4,0-.8c1-.15,2.14.45,3-.53,3.12-1,5.94.84,7.89,2.29,4,3,9.23,5,10.62,10.71.1.41.65.7,1,1.05a3.87,3.87,0,0,0,3,2c0,.76.71,1,1,1.5q0,.75,0,1.5Z" transform="translate(-1059.45 -359.86)"/><path class="cls-7" d="M1194.53,412.87a16.42,16.42,0,0,0-9.55-9.06c-.12-.48,1.69-1,0-1.45.11-.76.11-1.46-1-1.44h0a1.28,1.28,0,0,0-.48-1.25,2.15,2.15,0,0,0-3-.32c-4.33.24-4.87.74-4.91,4.54a1.16,1.16,0,0,0-.64,1c-1.48-3-.7-5.11,2.17-6.33a11.51,11.51,0,0,1,5.85-.59c2.18.23,2.51,2.38,3.56,3.73a8.26,8.26,0,0,0,1.78,2c3.31,2.22,5.56,5.38,7.56,8.74Z" transform="translate(-1059.45 -359.86)"/><path class="cls-2" d="M1178.51,426.94c.17-1.35-.72-2.7,0-4a8.92,8.92,0,0,1,3.3-.5c0,1.49,1.87,1.35,2.23,2.53l-.67,3.21-1.22,4.79a9.6,9.6,0,0,0-1.17-.32c-1.87-.28-1.28-2.44-2.49-3.22Z" transform="translate(-1059.45 -359.86)"/><path class="cls-7" d="M1204.53,406.45a35.24,35.24,0,0,0-4.65-7c-3.19-3.94-7.46-4.85-12.12-5-1-.19-1.93-.72-3-.32l-1.07.14c-.79-.3-1.79-.21-2.18-1.22,1.37-.36,3,.4,4.13-1,1.2-.15.86-1.36,1.36-2l.49-.08a1.08,1.08,0,0,1,.48,1c-1.06,2.35-.24,3.44,2.51,3.18.84-.08,1.8.11,2.53-.58,3.12.25,4.9,2.63,7,4.45a.86.86,0,0,0,.91.48l0,0,.52.51,0,0c1.21,2.5,3.44,4.45,3.95,7.33Z" transform="translate(-1059.45 -359.86)"/><path class="cls-8" d="M1121.56,401.34a.16.16,0,0,1,0-.26c1.62.06,3.27.52,4.85-.26.08,2.24,1.95,2.77,3.48,3.63l.14,0-.08,2.92c-1.79.12-2.59-1.56-4-2.19-1-.45-1.67-1.29-2.86.19-.49.6-1.27,1.95-2.57,2C1120.33,405.3,1121.49,403.41,1121.56,401.34Z" transform="translate(-1059.45 -359.86)"/><path class="cls-6" d="M1142,469.25c1.42,1.05,1.13,2.89,1.92,4.23l.12.95.42.61a23,23,0,0,0,3.59,12.15l-.08.91c-1.7-1-2.23-3.28-4.2-4.06-.2-.08-.34-.58-.33-.88,0-3.92-1.1-7.63-1.88-11.41C1141.4,470.94,1141.06,469.94,1142,469.25Z" transform="translate(-1059.45 -359.86)"/><path class="cls-7" d="M1121.56,401.34c-.06,2.07-1.23,4-1,6.08a6.24,6.24,0,0,0-.49,3.52c-.18,1.5.14,3-.46,4.49l-.5,1.78-.62,3.18a1.64,1.64,0,0,1-1.43-2.14c.53-2.36,0-4.75.34-7.09a2.66,2.66,0,0,0-.45-1.78c2.85-.88,3-1.14,1.91-2.86l-.59-1.06c.66-.1,1.24-.29,1.14-1.15C1120.29,403.43,1120.15,401.84,1121.56,401.34Z" transform="translate(-1059.45 -359.86)"/><path class="cls-7" d="M1106.34,431c-2.9-2-3.53-5.27-4.47-8.34-1.18-3.86-2.74-7.62-2.41-11.8.09-1.09.11-2,1.53-2-.11,1.22,1.63,1.26,1.56,2.45l-.06.69c-1.5-.83-2,0-1.91,1.3a11.67,11.67,0,0,0,1.36,5.23,8.81,8.81,0,0,0,1.15,4.31c.57,1.8.64,3.8,2.22,5.17l.71.74a1.09,1.09,0,0,0,1,.62v0l.54.49h0l.61.54a1.35,1.35,0,0,1-.06.46Z" transform="translate(-1059.45 -359.86)"/><path class="cls-9" d="M1170.54,413.89c1.69,1,3.53,1.64,4,4a3.3,3.3,0,0,1-.07,2.48c-1,1.92-.26,4-.47,6-.16,1.43.32,3-1,4.14l-.42-6.49c.44-1.32.74-2.58-1.07-3.13v0l-.08-1.41c.71-2.17-1.55-3.53-1.52-5.52Z" transform="translate(-1059.45 -359.86)"/><path class="cls-7" d="M1205.52,425.91c-2.25,4.51-1.43,9.14-.54,13.77-2.65-4.46-3.17-8.89-.74-13.77.83-1.66.12-4.06.25-6.11,0-.81-.55-1.85.59-2.42.76,1.95.31,4,.65,6Q1205.61,424.65,1205.52,425.91Z" transform="translate(-1059.45 -359.86)"/><path class="cls-6" d="M1180.95,507.49c1.65-2.95,3.29-5.91,5-8.83a5.77,5.77,0,0,1,2.75-2.75c-.8,2.46-2.62,4.34-3.8,6.6a37.47,37.47,0,0,0-3.33,9.53,16.25,16.25,0,0,1-1.42,3.76l-.18-3.91q0-.55,0-1.11Z" transform="translate(-1059.45 -359.86)"/><path class="cls-7" d="M1149.28,387c3.43.57,6.27,4.65,5,8.1-.76,2.09-1.19,4.35-2.33,6.31l-1-1.47-.52-.52,0-1,.41-.67c1.36,0,1.56-1.15,1.77-2,.69-2.74-.9-4.87-2.16-7.06l-1-.67Z" transform="translate(-1059.45 -359.86)"/><path class="cls-6" d="M1194.53,412.87l1.35-.47a6.26,6.26,0,0,1,.5,4.77c-.73,3.27-1.67,6.49-2.53,9.73a4.87,4.87,0,0,1-.18-3.77c.36-1.26-.41-1.15-1.12-1.26a1.14,1.14,0,0,1,.06-.46A32.62,32.62,0,0,0,1194.53,412.87Z" transform="translate(-1059.45 -359.86)"/><path class="cls-4" d="M1164.73,397.39c2,1.18,2.86,3.51,1.31,4.73-1.07.84-2.35,2.76-4.41,2.26l-2-3,1.46-.45c.61.36,1.35,1,1.82,0a1.36,1.36,0,0,0-1-2.05l.35-1C1163.09,397.8,1164,398.16,1164.73,397.39Z" transform="translate(-1059.45 -359.86)"/><path class="cls-7" d="M1178.54,391.38a.54.54,0,0,1,0-.47c.95-.75.17-.86-.39-1.06a20.78,20.78,0,0,1,2.33-9.3,6,6,0,0,1,5.63-3.3,1.9,1.9,0,0,1,2.13,1.66c-.49,0-1,.07-1.21.6-1.46-1.08-2.84-1.35-4.05.36-1.89.47-2.47,1.78-2.31,3.58q-.07.24-.16.47l-.22.1.18.34,0,2c-.88,1.19-.26,2.62-.63,3.89C1179.44,390.66,1179.37,391.44,1178.54,391.38Z" transform="translate(-1059.45 -359.86)"/><path class="cls-6" d="M1160,500a49.28,49.28,0,0,1,.51,8.33c-1.25-.64-.91-1.88-.91-2.86,0-4.82-2.51-8.2-6-11.13-2-1.66-4.45-2.89-5.61-5.42l1.54.06,0,0a1.49,1.49,0,0,0,1.52,1.52l0,0,.53.53,0,0,.55.54,0,0A47.1,47.1,0,0,1,1160,500Z" transform="translate(-1059.45 -359.86)"/><path class="cls-10" d="M1151,399.91l1,1.47a4.8,4.8,0,0,1-3.44,2.62c-1.48.33-2.15,1-2,2.2s1.53,1.26,2.63,1.23h1.24c.19,1.93-1.93,1-2.48,2-1,.19-1.92-.81-2.87,0-.24-.51-.67-1-.47-1.6.31,0,.66,0,.67-.48l-.63,0c-.55-.2-.62-.68-.66-1.17a1.35,1.35,0,0,1,0-.44c1.46-.2,1.35-1.37,1.47-2.39a1.82,1.82,0,0,0,2-1A4.27,4.27,0,0,0,1151,399.91Z" transform="translate(-1059.45 -359.86)"/><path class="cls-6" d="M1204,454.41l.13,1-.28,2c-.64,1.67-1.66,3.26-1,5.18v.61c-1.34.93-1.33,2.69-2.36,3.81l-.51,1.36-.57.56,0,0-.5.53v0c-1.24.76-1.6,2.4-3,3l-.1-.1c.61-2.12,2.33-3.57,3.32-5.47C1201.26,462.86,1201.81,458.32,1204,454.41Z" transform="translate(-1059.45 -359.86)"/><path class="cls-7" d="M1161.07,405c-.38,1.43-.46,2.5,1.54,2.85,1.23.21,1.73,1.36.85,2.62a2,2,0,0,0-.45,0,1.88,1.88,0,0,0-2.45-1.41,2.71,2.71,0,0,0-3.57,1.8l-.48.23c-1.58-.58-2.16,1.28-3.45,1.42l.15-1.23c.5-1.7,2.62-1.8,3.29-3.33.68,0,1.06-.24,1-1l0,0c1.06-.37,2.33-.5,2.32-2.07l.1,0Z" transform="translate(-1059.45 -359.86)"/><path class="cls-9" d="M1184.06,424.92c-.36-1.18-2.22-1-2.23-2.54,1.36-.64,1.44-1.73,1.05-3l-.36-1.49c1.37.36,1.31-1,1.86-1.57a5.73,5.73,0,0,1,.82,3q.16,4.83.32,9.65c-.27.74-.14,1.72-1.18,2A17.8,17.8,0,0,0,1184.06,424.92Z" transform="translate(-1059.45 -359.86)"/><path class="cls-7" d="M1164.73,397.39c-.7.76-1.64.41-2.48.52-2-1.38-2.88,0-3.74,1.5-.42-.14-.86-.51-1.24,0s0,.89.19,1.3c-.78,1.92-1.38,3.95-3.18,5.24l-.85-.11c1.94-1.86,2.7-4.28,3.36-6.79.38-1.43.91-3,2.73-3.14S1163.44,395.31,1164.73,397.39Z" transform="translate(-1059.45 -359.86)"/><path class="cls-10" d="M1192.55,421.86c.71.11,1.48,0,1.12,1.26a4.87,4.87,0,0,0,.18,3.77l-.3,8c-.2.67.19,1.48-.49,2a14.1,14.1,0,0,1-1.08-5.47c.11-.9.27-1.8.32-2.71.09-1.94.71-3.91-.31-5.8v-.52Z" transform="translate(-1059.45 -359.86)"/><path class="cls-6" d="M1119.44,404.32c.09.86-.48,1-1.14,1.15a11.84,11.84,0,0,0-3.76-.61,2,2,0,0,1-.1-.35c0-.62.77-.47,1-.94a24.93,24.93,0,0,0-2.56-.41c-1.07-.07-2.25-.2-2.7,1.2l-2.42.71-.17-.09-.6-1.24c3.83-1.92,7.61-2.07,11.33.28A1.55,1.55,0,0,0,1119.44,404.32Z" transform="translate(-1059.45 -359.86)"/><path class="cls-11" d="M1175,404.86a1.16,1.16,0,0,1,.64-1c1.73,1,3.43,2.28,5.41.49l2.22-1.5.74-.5h0l1,0c1.73.43-.08,1,0,1.45-1.88.84-3.38,2.44-5.56,2.68-.64.07-.8.77-1,1.32l-.53.23v0c.1-.33-.07-.49-.37-.56l-.5-.81,0-.14-.14,0-1.48-1.29a.3.3,0,0,0-.33-.23Z" transform="translate(-1059.45 -359.86)"/><path class="cls-10" d="M1121.4,400.47l-.93-.61c0-1.45-.23-3,1.3-3.94,1.27,2.26,2.94,2.76,4.5,1.33l.35,1.56C1125.43,401.09,1123.2,400.11,1121.4,400.47Z" transform="translate(-1059.45 -359.86)"/><path class="cls-7" d="M1136.22,394.39a3.54,3.54,0,0,1,1.49-1.95c1.48-1.05,3-2,3.47-4a1.63,1.63,0,0,1,1.81-1.05l.07,1.17a6.77,6.77,0,0,0-.56,2.79c-.94,0-.69.54-.52,1.07-2-.88-2,1.8-3.43,1.93C1137.77,392.33,1137,394.85,1136.22,394.39Z" transform="translate(-1059.45 -359.86)"/><path class="cls-7" d="M1121.77,395.92c-1.53,1-1.29,2.49-1.3,3.94-1.36-1.29-1-2.69-.13-4,1.08-1.7,4.64-2.8,6.53-2.14a1.94,1.94,0,0,1,1.55,2.22l-.53.11.07,0c-.08-.34-.21-.47-.46-.11l-.46-.08a3.63,3.63,0,0,0-2.72-.85A2.84,2.84,0,0,0,1121.77,395.92Z" transform="translate(-1059.45 -359.86)"/><path class="cls-6" d="M1106.34,431l1.71-.14h0c0,.45-.12,1,.63.5,2.85,1.72,5.19,4.43,8.87,4.52q0,.4,0,.8A15.39,15.39,0,0,1,1106.34,431Z" transform="translate(-1059.45 -359.86)"/><path class="cls-2" d="M1213.41,403.53l.07.85q-.05,2.24-.11,4.48a3.56,3.56,0,0,1-.86-3,4.7,4.7,0,0,0-1.45-4l-.07-1.46a.93.93,0,0,0-.49-1v0a.93.93,0,0,0-1-1l-.49-.54c.37-1.41-1.77-1.63-1.43-3,1.2.37,2,1.64,3.34,1.64h0A14.4,14.4,0,0,0,1213.41,403.53Z" transform="translate(-1059.45 -359.86)"/><path class="cls-10" d="M1178.51,426.94q0,1.22,0,2.44a27.82,27.82,0,0,0-1.47,11q0,1.05,0,2.11l-.59,0c-.76-1.43-.4-3-.49-4.49-.32-2.44.91-4.66,1-7C1177.2,429.47,1176.85,427.83,1178.51,426.94Z" transform="translate(-1059.45 -359.86)"/><path class="cls-6" d="M1141.56,460.39a15.75,15.75,0,0,0,.53,5.83,6.09,6.09,0,0,1-.09,2.63c-1.11-.19-1.12-1.17-1.18-1.91-.32-3.67-.54-7.35-.8-11l1,1.11.45.9Z" transform="translate(-1059.45 -359.86)"/><path class="cls-11" d="M1187,379.51c.24-.53.72-.57,1.21-.6l1.21,2.61.2,1.69,0,1.69-.1,1-1.15,4.92-.4.12a1.08,1.08,0,0,0-.48-1l.19-1,.27-.65c.16-.95.39-1.89.46-2.84,0-.71.45-1.74-.91-1.77l-.46-.18a2,2,0,0,0,.35-2.57Z" transform="translate(-1059.45 -359.86)"/><path class="cls-6" d="M1173,430.48c1.31-1.15.83-2.71,1-4.14.22-2-.53-4,.47-6v0c0,.42,0,.83.47,1a39.55,39.55,0,0,1-.44,10.48l-.39,2.69-.82-.64C1173.8,432.73,1172.82,431.66,1173,430.48Z" transform="translate(-1059.45 -359.86)"/><path class="cls-10" d="M1182.88,419.4c.39,1.26.31,2.35-1.05,3a8.93,8.93,0,0,0-3.3.5c-.75-1.4-2-2.69-.9-4.47.76.27,1.07-1.14,1.92-.51-1,1.43-1,2.75.79,3.4,1.56.58,2-.56,2-1.88Z" transform="translate(-1059.45 -359.86)"/><path class="cls-12" d="M1170.54,413.89H1170l-1-.06c-1.66-1.17-3.83-.44-5.53-1.48l.18-.89C1166.64,410.28,1168.88,411.26,1170.54,413.89Z" transform="translate(-1059.45 -359.86)"/><path class="cls-7" d="M1215,419.91l-.91.07-.49-2.14-.12-8.11.53.15a19.87,19.87,0,0,1,1,5.52l0,1.07v1.39l0,1.09Z" transform="translate(-1059.45 -359.86)"/><path class="cls-11" d="M1127.89,396l.53-.11c1,.91.83,2.28,1.36,3.38l-.87.81c-1.08-.67-1.74.15-2.48.69-1.58.78-3.23.32-4.85.26l-.18-.61c1.8-.36,4,.62,5.22-1.66C1128.55,398.57,1127.8,397.12,1127.89,396Z" transform="translate(-1059.45 -359.86)"/><path class="cls-4" d="M1205.71,423.39c-.34-2,.11-4.07-.65-6q0-1.67,0-3.35l1.36-.32c.11,1.64.57,3.36.22,4.89S1207.45,422.1,1205.71,423.39Z" transform="translate(-1059.45 -359.86)"/><path class="cls-7" d="M1123,436.94l1.47.5c.56.53,1.29.38,2,.48a10.64,10.64,0,0,1,4.58,3.3l-.08.77c-2.77-1.16-4.94-3.56-8.1-3.91Z" transform="translate(-1059.45 -359.86)"/><path class="cls-9" d="M1213.41,403.53a14.4,14.4,0,0,1-2.46-7.07c2.11.47,3.32,1.65,3,3.94C1213.82,401.45,1213.59,402.48,1213.41,403.53Z" transform="translate(-1059.45 -359.86)"/><path class="cls-7" d="M1128.91,400.12l.87-.81,1,1.72c1.27-.8,1.62-2.32,2.7-3.21l.1,2.18,0-.06-.49.54h0c-.55.23-.53.71-.51,1.19a.21.21,0,0,1,0,.25c-1.24,0-2.45-.05-1.77,1.84.18.51-.4.61-.78.75l-.14,0C1130.06,402.89,1129.38,401.53,1128.91,400.12Z" transform="translate(-1059.45 -359.86)"/><path class="cls-11" d="M1163.64,411.48l-.18.89c-1.15,1-2,2.41-3.49,3-.6.07-1,.28-.8,1a4.8,4.8,0,0,1-3.14-2c2.16,0,4.59.56,5.45-2.41l1.52-1.53a2,2,0,0,1,.45,0Z" transform="translate(-1059.45 -359.86)"/><path class="cls-11" d="M1143.05,388.6l-.07-1.17c2-1.79,4.15-.94,6.29-.46l.3,1c-1.85.17-3.75-.43-5.55.39Z" transform="translate(-1059.45 -359.86)"/><path class="cls-12" d="M1102.56,411.37c.06-1.19-1.67-1.24-1.56-2.45a.73.73,0,0,1,.1-.44l.84-.56,3.91-1.15.11.74-.8.43c-2,.53-.51,2.67-1.66,3.59Z" transform="translate(-1059.45 -359.86)"/><path class="cls-9" d="M1174.17,434.58l.39-2.69c1.12.43,1.53-.93,2.47-1-.13,2.38-1.36,4.59-1,7-1.1-.2-.76-1.59-1.64-2Z" transform="translate(-1059.45 -359.86)"/><path class="cls-7" d="M1195.45,385.37c.09-.19.29-.42.24-.57s-.22-.17-.1.11.2.34.3.34c2.51-.06,3.74,2.15,5.64,3.16l-.13.57h-1a28.4,28.4,0,0,1-4.92-3.08Z" transform="translate(-1059.45 -359.86)"/><path class="cls-7" d="M1179.55,417.91c-.85-.63-1.17.78-1.92.51.87-2.63,2.16-2.76,4.9-.51l.36,1.49-.5,0C1181.3,419.18,1180.84,417.78,1179.55,417.91Z" transform="translate(-1059.45 -359.86)"/><path class="cls-11" d="M1133.6,400l-.1-2.18,2.42-3,.1-.15a.23.23,0,0,1,.21-.28c.78.46,1.55-2.06,2.32,0C1136.33,395.76,1135.3,398.18,1133.6,400Z" transform="translate(-1059.45 -359.86)"/><path class="cls-11" d="M1206.41,413.71,1205,414c-.12-1.87.43-3.74,0-5.61a.32.32,0,0,0,0-.37l-.46-1.61.86-.15C1206.56,408.66,1206.46,411.19,1206.41,413.71Z" transform="translate(-1059.45 -359.86)"/><path class="cls-11" d="M1131,442l.08-.77c2.68.77,4,2.7,4.44,5.31Z" transform="translate(-1059.45 -359.86)"/><path class="cls-10" d="M1208,469.92l.58.55c-1.24,1.72-2,3.93-4.61,4.14l0-.67C1205.51,472.78,1206.27,470.88,1208,469.92Z" transform="translate(-1059.45 -359.86)"/><path class="cls-6" d="M1178.54,391.38c.83.06.9-.73,1.29-1.15.79.8.52,2.24,1.71,2.79.39,1,1.39.92,2.18,1.22C1180.17,394.78,1178.85,394,1178.54,391.38Z" transform="translate(-1059.45 -359.86)"/><path class="cls-6" d="M1193.53,487c.49-3,2.5-4.72,4.88-6.2C1197.34,483.33,1195.23,485,1193.53,487Z" transform="translate(-1059.45 -359.86)"/><path class="cls-7" d="M1101.93,407.91l-.84.56c-.45-1.29.07-2.09,1.2-2.77a28,28,0,0,1,4.67-2l.6,1.24C1105.48,405.56,1103.09,405.56,1101.93,407.91Z" transform="translate(-1059.45 -359.86)"/><path class="cls-11" d="M1157.46,400.76c-.21-.41-.52-.82-.19-1.3s.82-.19,1.24,0c0,.85.6,1.37,1.07,2l2,3-.56.61-1.13-.12C1160.12,402.9,1158.17,402.2,1157.46,400.76Z" transform="translate(-1059.45 -359.86)"/><path class="cls-11" d="M1153.43,405.89l.85.11c-.57,2.58-3,2.63-4.81,3.49l-1.51-.07c.54-1,2.67-.08,2.48-2l2.21-1a.32.32,0,0,0,.31-.21Z" transform="translate(-1059.45 -359.86)"/><path class="cls-7" d="M1189.63,383.22l-.2-1.69c2.23-.3,4,.27,5,2.49l-2.09-.37h-.09C1191.52,382.56,1190.58,382.86,1189.63,383.22Z" transform="translate(-1059.45 -359.86)"/><path class="cls-9" d="M1204,473.94l0,.67c-1.24,1-1.59,2.92-3.37,3.39l1.52-4.52.87-.16Z" transform="translate(-1059.45 -359.86)"/><path class="cls-10" d="M1191.51,477.87l1.53-2.5,2.05-2h.36c-.18,2.38-2.29,3.44-3.5,5.12Z" transform="translate(-1059.45 -359.86)"/><path class="cls-6" d="M1177.9,408l.53-.23c1.6,1.38,2.47,3.29,3.62,5C1179.74,412,1178.59,410.22,1177.9,408Z" transform="translate(-1059.45 -359.86)"/><path class="cls-9" d="M1211,396.46c-1.38,0-2.14-1.26-3.34-1.64h0c.14-1.36-1.86-1.4-1.72-2.77l.16-.16A11.75,11.75,0,0,1,1211,396.46Z" transform="translate(-1059.45 -359.86)"/><path class="cls-7" d="M1141,457l-1-1.11c0-2.08-1.65-3.6-2-5.58,2,.38,1.37,2.65,2.61,3.57Z" transform="translate(-1059.45 -359.86)"/><path class="cls-9" d="M1201.4,389l.13-.57c2.32.1,3.07,2.23,4.49,3.49l-.16.16C1204,391.6,1203,389.89,1201.4,389Z" transform="translate(-1059.45 -359.86)"/><path class="cls-2" d="M1192.32,383.64l2.09.37,1,1.35.06.52C1193.82,386,1193.12,384.77,1192.32,383.64Z" transform="translate(-1059.45 -359.86)"/><path class="cls-6" d="M1184.79,394.09c1-.4,2,.13,3,.32C1186.61,395.82,1185.63,395.64,1184.79,394.09Z" transform="translate(-1059.45 -359.86)"/><path class="cls-9" d="M1214,409.88l-.53-.15-.11-.88.11-4.48C1214.48,406.13,1213.82,408.05,1214,409.88Z" transform="translate(-1059.45 -359.86)"/><path class="cls-9" d="M1149.51,488.93l-1.54-.06v-.78l.08-.91A2.07,2.07,0,0,1,1149.51,488.93Z" transform="translate(-1059.45 -359.86)"/><path class="cls-6" d="M1123,436.94l-.17,1.15a2.05,2.05,0,0,1-2-1Z" transform="translate(-1059.45 -359.86)"/><path class="cls-6" d="M1178.13,389.86c.56.19,1.34.31.39,1.06C1178,390.71,1178,390.31,1178.13,389.86Z" transform="translate(-1059.45 -359.86)"/><path class="cls-9" d="M1175,421.41c-.51-.17-.49-.58-.47-1C1175.11,420.53,1175.75,420.64,1175,421.41Z" transform="translate(-1059.45 -359.86)"/><path class="cls-8" d="M1179.93,510.8q0,.55,0,1.11l-.92,0C1178.94,511.26,1179.36,511,1179.93,510.8Z" transform="translate(-1059.45 -359.86)"/><path class="cls-6" d="M1215.06,416.47l0-1.07A.85.85,0,0,1,1215.06,416.47Z" transform="translate(-1059.45 -359.86)"/><path class="cls-6" d="M1215,418.95l0-1.09A.82.82,0,0,1,1215,418.95Z" transform="translate(-1059.45 -359.86)"/><path class="cls-7" d="M1175.09,404.93a.3.3,0,0,1,.33.23Z" transform="translate(-1059.45 -359.86)"/><path class="cls-7" d="M1153,406.21a.32.32,0,0,1-.31.21l.09-.2Z" transform="translate(-1059.45 -359.86)"/><path class="cls-6" d="M1176.9,406.45l.14,0,0,.14c-.05,0-.11.07-.15.06a.16.16,0,0,1-.08-.13S1176.86,406.49,1176.9,406.45Z" transform="translate(-1059.45 -359.86)"/><path class="cls-6" d="M1177.52,407.44c.29.08.47.23.37.56A.42.42,0,0,1,1177.52,407.44Z" transform="translate(-1059.45 -359.86)"/><polygon class="cls-7" points="76.56 34.81 76.46 34.96 76.42 34.83 76.56 34.81"/><path class="cls-7" d="M1205,408.06a.32.32,0,0,1,0,.37A.23.23,0,0,1,1205,408.06Z" transform="translate(-1059.45 -359.86)"/><path class="cls-6" d="M1195.45,472.86l.44-.56.1.1q0,.22,0,.44l-.42.09Z" transform="translate(-1059.45 -359.86)"/><path class="cls-6" d="M1195.44,473.38h-.36l.36-.51.08.07a2.94,2.94,0,0,0-.06.42Z" transform="translate(-1059.45 -359.86)"/><path class="cls-6" d="M1120.48,437l.28-.3.08.39h-.2Z" transform="translate(-1059.45 -359.86)"/><path class="cls-4" d="M1190.53,413.9q0,.23,0,.47a2.79,2.79,0,0,0,.45,2c-.32,1.17.85,2.33,0,3.5-.77.12-1.61-1-2.27-.07a1.64,1.64,0,0,0,.42,2.22c.44.41.08.82,0,1.3-.34,1.36-1.18,2.58-1.09,4v1.47a3.23,3.23,0,0,0-.51,2H1186l0-2,.5-3c1.37-3.23,1.66-6.41-.41-9.48C1188.06,416.48,1188.69,414.13,1190.53,413.9Z" transform="translate(-1059.45 -359.86)"/><path class="cls-12" d="M1190.53,413.9c-1.84.22-2.47,2.58-4.46,2.53.25-2-2.25-2.81-2.26-4.55,2.67-1.84,4.72-.55,6.71,1C1190.92,413.25,1191,413.57,1190.53,413.9Z" transform="translate(-1059.45 -359.86)"/><path class="cls-6" d="M1186.48,425.91l-.5,3a2.84,2.84,0,0,0-.46.05q-.16-4.83-.32-9.65C1187.21,421.2,1186.16,423.69,1186.48,425.91Z" transform="translate(-1059.45 -359.86)"/><path class="cls-5" d="M1191,419.91c.85-1.17-.32-2.33,0-3.5h1.49q0,2.25,0,4.5l-1.48-.51Q1191,420.16,1191,419.91Z" transform="translate(-1059.45 -359.86)"/><path class="cls-12" d="M1192.49,416.41H1191a2.79,2.79,0,0,1-.45-2C1191.67,414.6,1192.66,415,1192.49,416.41Z" transform="translate(-1059.45 -359.86)"/><path class="cls-4" d="M1191,420.4l1.48.51.13.49a1.15,1.15,0,0,0-.06.46l-.57.55C1189.95,422.58,1191,421.25,1191,420.4Z" transform="translate(-1059.45 -359.86)"/><path class="cls-12" d="M1185.13,410.23c-.14-.06-.35-.09-.39-.19s.1-.27.16-.41c.14.06.35.09.39.19S1185.19,410.09,1185.13,410.23Z" transform="translate(-1059.45 -359.86)"/><path class="cls-13" d="M1163.46,502a1.08,1.08,0,0,1-1-.55c1.21-2.54-.82-2.87-2.4-3.52l-.27-.79c.48-2.12-1.4-3.67-1.35-5.68q0-.74,0-1.49l1,.48a3.41,3.41,0,0,1,1.55,2.51c-.35.09-.94,0-.76.6s.78.34,1.23.37h0c.48,2.67,3.41,3.66,4.16,6.24a18.2,18.2,0,0,0,.33-3.29c.08-.88-.55-2.1,1-2.45.11,1.26.93,1.57,2,1.54.48.65,1.35.22,1.82.56,2.54,1.82,2.87-.1,3.59-1.87,1.6-4,2.19-8.25,3.7-12.24.24-.62.09-1.75,1.09-1.7.78,0,.65,1,.88,1.6.41,1,.48,2.36,1.93,2.64l.06.54-.56,4a1,1,0,0,0-.49,1l-.52,1.49a8.49,8.49,0,0,0-2.78,4.27c-.86,2.74-2.86,5-3.12,8-.05.62-.21,1.54-1,1.44s-.47-1.06-.57-1.65c0-.24,0-.5,0-.74-.19-1,1.22-2.57.1-2.9-1.61-.47-1.35,1.71-1.55,2.49-.69,2.67-2.35,5.13-2,8-.75-.49-1.47-1-2.26-1.44-1.55-.8-2.15-1.86-1.34-3.57C1167.11,503.34,1165.6,502.43,1163.46,502Z" transform="translate(-1059.45 -359.86)"/><path class="cls-14" d="M1181.51,489.41l.56-4,2.92-.54a12.18,12.18,0,0,1-1,5.48.92.92,0,0,0-1,1l0,2.5c-1.35,1.27,1.21,1.85.54,3l.14,1.15-.5.44c-1.15-.18-1.32.79-1.68,1.49a34.82,34.82,0,0,0-2.48,7,8,8,0,0,1-1.19,3c-.44.58-.76,1-1.58.56s-.52-.88-.27-1.46c1.1-2.56,1.52-5.37,2.89-7.84,1.61-2.9,1.48-6.12,1.68-9.29l.52-1.49C1181.64,490.31,1182.27,490.19,1181.51,489.41Z" transform="translate(-1059.45 -359.86)"/><path class="cls-8" d="M1163.46,502c2.14.47,3.65,1.38,2.46,3.91-.81,1.71-.21,2.76,1.34,3.57.79.41,1.51,1,2.26,1.44a6.63,6.63,0,0,0,1.71,0c2.34-.59,3.4.09,3.36,2.68,0,1.83,1.39,1,2.34.77-.88,2.33-1.88,2.56-3.36.72a12.91,12.91,0,0,0-7.86-4.63c-1.37-.27-1.21-1.11-1.22-2C1164.45,506.23,1164.82,504,1163.46,502Z" transform="translate(-1059.45 -359.86)"/><path class="cls-13" d="M1183,500.4a1,1,0,0,1-.89,1.14A.86.86,0,0,1,1183,500.4Z" transform="translate(-1059.45 -359.86)"/><path class="cls-13" d="M1182,502.9a1,1,0,0,1-.44,1C1180.74,503.18,1181.31,503,1182,502.9Z" transform="translate(-1059.45 -359.86)"/><path class="cls-3" d="M1206.41,413.71c0-2.52.15-5.06-1-7.41-.5-2.88-2.74-4.83-3.95-7.33.52-.21,1.49.22,1.33-.93-.06-.4-.27-.84.28-1s.79.38,1.14.7a10.93,10.93,0,0,1,3.19,5.13,1.81,1.81,0,0,0,2.12,1.55,7.61,7.61,0,0,0-.35,2.16c.39,3,.9,5.88,1.36,8.83v1l0,1c-.33,1.43-1.65,2.8-.28,4.35-1.38.87-.79,2.38-1.09,3.58s-.79,2.53-1.69,2.77c-1.28.34-1.18-1.5-1.94-2.18q.1-1.26.2-2.51c1.74-1.29.56-3.2.92-4.79S1206.51,415.35,1206.41,413.71Z" transform="translate(-1059.45 -359.86)"/><path class="cls-12" d="M1215.52,441.39l-1.6,9.52c-1.89,1-1,3-1.44,4.5-.77.15-1.28.38-.34,1.07l-.17.92c-1.54-.09-2.66.9-3.93,1.5.25-2.83,1.28-5.58,1-8.47,2.06-.69-.11-1.35,0-2q0-.49,0-1c.88-.84,0-1.14-.48-1.55l1-2.46c.69-.32,1.88,1.31,2-.16.1-1,1-1.42,1-2.33l.53-1.5,1.87,0C1215.07,440.07,1214.81,440.88,1215.52,441.39Z" transform="translate(-1059.45 -359.86)"/><path class="cls-13" d="M1209,447.43v1c-.37-.1-.9-.4-1.1-.26-.56.42,0,.8.24,1.16l.87,1.13c.31,2.9-.73,5.64-1,8.47-.17,2.29-2.93,3.19-3,5.54q0,.23-.06.45c-1.89.86-2.11-.3-2.09-1.74,0-.2,0-.41,0-.62.55-1.68,2-3.21,1-5.18l.28-2c1.5-1.86,1.49-4.17,1.83-6.35.17-1-.09-2.16.53-3.13a3.4,3.4,0,0,0,2,.51A1.07,1.07,0,0,0,1209,447.43Zm-1.2,3.62c-.06-.14-.08-.36-.18-.4s-.27.09-.42.14c.06.14.08.36.18.4S1207.67,451.1,1207.82,451Z" transform="translate(-1059.45 -359.86)"/><path class="cls-5" d="M1210.52,417.39l0-1c.36-.08.86-.08.74-.61,0-.18-.47-.28-.73-.41-.47-2.94-1-5.88-1.36-8.83a7.61,7.61,0,0,1,.35-2.16c1.32-.35.62-1.94,1.55-2.53a4.7,4.7,0,0,1,1.45,4,3.56,3.56,0,0,0,.86,3l.11.87q.06,4.05.12,8.1c-1.29,1.84-.42,3.73-.14,5.6-2.14-.5-2.62-2-1.75-3.7S1211.84,417.7,1210.52,417.39Z" transform="translate(-1059.45 -359.86)"/><path class="cls-3" d="M1208.49,446.42a3.4,3.4,0,0,1-2-.51c0-2.07,0-4.15,0-6.22,0-1.68.08-3.28-1.34-4.58a3.07,3.07,0,0,1-.63-1.83c-.1-1-.17-2.31.92-2.56s1.63.88,2,1.84c.17.46.14,1.15.45,1.37,2.61,1.78,2.1,4.45,2.1,7-.81.71-.38,1.65-.49,2.5l-1,2.46Z" transform="translate(-1059.45 -359.86)"/><path class="cls-5" d="M1213,433.92c-.37-.15-1-.22-1.08-.46-.61-2.15-2.7-2.71-4.74-4.22a8.06,8.06,0,0,0,6.33-4.84c.85.83.39,1.82.37,2.78,0,2-.36,4,.88,5.76,0,.17,0,.33,0,.5C1214.11,433.43,1213.44,433.29,1213,433.92Z" transform="translate(-1059.45 -359.86)"/><path class="cls-12" d="M1214.74,432.95c-1.24-1.77-.92-3.8-.88-5.76,0-1,.48-1.94-.37-2.78l0-1c-.28-1.87-1.14-3.76.14-5.6l.49,2.14c-.38,2.21,1.19,4.13,1,6.31S1215.31,430.75,1214.74,432.95Z" transform="translate(-1059.45 -359.86)"/><path class="cls-5" d="M1209.52,443.41c.11-.84-.33-1.79.49-2.5h2.5c.07.91-.88,1.31-1,2.33C1211.39,444.73,1210.21,443.09,1209.52,443.41Z" transform="translate(-1059.45 -359.86)"/><path class="cls-5" d="M1214.91,439.39l-1.87,0c1.86-1.33-.52-3.1.46-4.52l1.38.52A7,7,0,0,1,1214.91,439.39Z" transform="translate(-1059.45 -359.86)"/><path class="cls-12" d="M1214.88,435.43l-1.38-.52-.52-1c.46-.63,1.13-.49,1.76-.48A2.76,2.76,0,0,1,1214.88,435.43Z" transform="translate(-1059.45 -359.86)"/><path class="cls-5" d="M1192.54,484.46c-1.36,3.74-4.22,6.68-5.54,10.44-1,.07-1,.79-1,1.54-.34.54-.9.51-1.43.56l-.1-.6,0-2c.58-.37.47-1,.5-1.51,1.82-.3,1.8-1.73,1.69-3-.08-.92-.43-1.84.24-2.6,1.69-1.92,2.23-4.56,4-6.39h0C1192.6,481.59,1192.55,483,1192.54,484.46Z" transform="translate(-1059.45 -359.86)"/><path class="cls-12" d="M1195.94,472.84q0-.22,0-.44c1.38-.63,1.74-2.26,3-3a6.88,6.88,0,0,1-1.32,3.8c-.37.56-1.2,1.47.36,1.74-1.39,2.24-2.46,4.7-4.5,6.49-.66-.37-1.51-.54-1.53-1.54l0-1.38c1.21-1.68,3.32-2.74,3.5-5.12l0,0Z" transform="translate(-1059.45 -359.86)"/><path class="cls-8" d="M1202.9,463.16c0,1.44.19,2.6,2.09,1.74-.57,1.39-1.28,2.7-.1,4.24.45.59.08,1.57-.58,2.22s-1.29,1.05-1.34,2l-.87.16-2.62-.1c.19-1.49,1.56-2.07,2.38-3.07,1.62-2,1.28-2.88-1.32-3.34C1201.57,465.85,1201.56,464.09,1202.9,463.16Z" transform="translate(-1059.45 -359.86)"/><path class="cls-13" d="M1200.54,467c2.6.47,2.94,1.37,1.32,3.34-.82,1-2.19,1.59-2.38,3.07l-1.46,1.54c-1.56-.27-.73-1.18-.36-1.74a6.88,6.88,0,0,0,1.32-3.8v0l.5-.53,0,0,.57-.56Z" transform="translate(-1059.45 -359.86)"/><path class="cls-8" d="M1192,479.88c0,1,.87,1.17,1.53,1.54-.31,1,.72,2.47-1,3,0-1.42.06-2.87-1.56-3.58A1,1,0,0,1,1192,479.88Z" transform="translate(-1059.45 -359.86)"/><path class="cls-8" d="M1186,496.44c0-.74-.05-1.47,1-1.54A1.57,1.57,0,0,1,1186,496.44Z" transform="translate(-1059.45 -359.86)"/><path class="cls-13" d="M1184.49,496.4l.1.6a1.12,1.12,0,0,1-.94,1.05l-.14-1.14Z" transform="translate(-1059.45 -359.86)"/><path class="cls-14" d="M1161,492.92a3.41,3.41,0,0,0-1.55-2.51c-1.31-2.4-2.61-4.8-3.95-7.19s-3.13-4.16-4.12-6.64a37.93,37.93,0,0,0-4.37-7.19,40.26,40.26,0,0,1-2.09-13q0-.75,0-1.5a1.74,1.74,0,0,0-1-2c-.32-.52-1.07-.73-1-1.5a8.6,8.6,0,0,0-.25-1.94c-.34-.93-.82-2-2-2-1.37,0,.27,1.55-.74,1.9-.34-.35-.89-.64-1-1.05-1.39-5.67-6.63-7.75-10.62-10.71-1.95-1.45-4.76-3.3-7.89-2.29l-1.46,0-.48-.45c-.89-1.14-2.45-.74-3.49-1.52l-.59-1.43c1.24-2.88,3-3.63,6.8-2.81,0-1.27-.6-1.77-1.78-1.71,0-.69.32-1,1-1,.34.56.92.49,1.44.55a5,5,0,0,0,2.55,2.54c2.51,1.45,4.38,1,5.54-1.08,2.11.22,3.27,2.18,5.16,2.83,4,1.37,6.13,4.85,8.61,7.81,3.52,4.22,3.85,9.75,5.25,14.82a2.59,2.59,0,0,0-.28,2.1c.62,2.35,2.32,4.85,2.27,6.75-.1,3.32,1.06,6,1.83,9a6.39,6.39,0,0,0,3.67,4.17c.59,1.79.33,3.88,1.89,5.32l3.08,3.67c.37,1.81,1.48,3.3,2.24,4.94,1.15,2.51.62,3.53-2.2,4h0Z" transform="translate(-1059.45 -359.86)"/><path class="cls-12" d="M1158.49,491.42c0,2,1.83,3.57,1.36,5.68a15.76,15.76,0,0,0-7.87-5.7l0,0-.55-.54,0,0-.53-.53,0,0a1.46,1.46,0,0,0-1.52-1.52l0,0a2.07,2.07,0,0,0-1.45-1.74,23,23,0,0,1-3.59-12.15l-.42-.61-.12-.95c1.16-1.59,2.38-.45,3.59-.08l0,.52c-.48.11-1.37-.22-1.26.57s1,.86,1.72.91h0c-.26.54-1.29.72-.84,1.56s1.17.36,1.78.46c.52,1.68,1.36,3.43,2.73,4.25a8.29,8.29,0,0,1,3.3,4.24c-1.24.44-2.46-1-3.81-.16.42,1.27,3.41.46,2.13,2.82C1155.56,488.57,1156.21,491.48,1158.49,491.42Z" transform="translate(-1059.45 -359.86)"/><path class="cls-3" d="M1155,485.91a8.29,8.29,0,0,0-3.3-4.24c-1.36-.82-2.21-2.57-2.73-4.25a1.73,1.73,0,0,0-.94-2h0c0-.53.08-1.11-.46-1.48l0-.52-.46-4a37.89,37.89,0,0,1,4.37,7.19c1,2.49,2.84,4.38,4.12,6.64s2.63,4.79,3.95,7.19l-1-.48C1156.36,489.43,1156.33,487.1,1155,485.91Z" transform="translate(-1059.45 -359.86)"/><path class="cls-4" d="M1145,454.92q0,.75,0,1.5c-1.3-.18-.87-1.22-1-2l0,0Z" transform="translate(-1059.45 -359.86)"/><path class="cls-4" d="M1141.56,460.39l-.13-2.47A1.66,1.66,0,0,1,1141.56,460.39Z" transform="translate(-1059.45 -359.86)"/><path class="cls-2" d="M1203,473.33c.05-.93.77-1.42,1.34-2s1-1.63.58-2.22c-1.18-1.54-.47-2.84.1-4.24q0-.23.05-.45c1.88-.08,3.79.1,5.62-.55a14.58,14.58,0,0,1-2.68,6c-1.72,1-2.48,2.86-4,4Z" transform="translate(-1059.45 -359.86)"/><path class="cls-8" d="M1210.66,463.9c-1.83.65-3.74.47-5.62.55.07-2.35,2.83-3.24,3-5.54,1.27-.6,2.39-1.6,3.93-1.5l-.52,4c-.65.41-1.28.82-.43,1.62Z" transform="translate(-1059.45 -359.86)"/><path class="cls-9" d="M1214.88,435.43a2.76,2.76,0,0,0-.14-2c0-.17,0-.33,0-.5.57-2.19,0-4.44.32-6.65a34.1,34.1,0,0,1,.46,15.09c-.71-.51-.45-1.32-.61-2A7,7,0,0,0,1214.88,435.43Z" transform="translate(-1059.45 -359.86)"/><path class="cls-9" d="M1211.45,461.4l.52-4,.17-.92.34-1.07c.46-1.51-.45-3.45,1.44-4.5a25.44,25.44,0,0,1-2.39,11.05Z" transform="translate(-1059.45 -359.86)"/><path class="cls-2" d="M1211.45,461.4l.09.56L1211,463C1210.17,462.22,1210.79,461.81,1211.45,461.4Z" transform="translate(-1059.45 -359.86)"/><path class="cls-9" d="M1152,491.39a15.76,15.76,0,0,1,7.87,5.7l.27.79.34,2-.44.09A47.1,47.1,0,0,0,1152,491.39Z" transform="translate(-1059.45 -359.86)"/><path class="cls-12" d="M1160.46,499.86l-.34-2c1.57.65,3.6,1,2.4,3.52Z" transform="translate(-1059.45 -359.86)"/><path class="cls-14" d="M1186,430.92h1.49c.74,0,1.62,0,1.79-.89s-.6-1-1.28-1.14v-1.47c1.16,0,1-2,2.48-1.51a16.81,16.81,0,0,1,.11,7.28c-.16.78-1,1.82,0,2.71-.77,2.92,1.17,5.34,1.48,8.06l-.09,3h-.39c-1.14.15-1.39.61-.53,1.48-.57,1.44-1.39,2.82-1.09,4.48-2.93.3-3.12,2.31-2.88,4.6v.84c.3,1.37-1,3.09.91,4.09l.16,2.06-.12-.06c-1.46.33-1.2,1.11-.51,2l.15,2.06-.19,3.94c-1.21,1.54-3,2.87-1.66,5.25a2.25,2.25,0,0,1,0,1.91c-.15.41-.49.74-.92.58a.9.9,0,0,1-.29-.82c.71-2-1-2.24-2.14-2.92-.07-5.88,1.25-11.62,1.6-17.46.57-.18,1.43.29,1.68-.55.17-.54-.4-.8-.85-1v-1.48c.87-.72.27-.88-.38-1v-1.48c.64-.2,1.75,1.11,1.91-.45.1-1,1.62-2.34-.44-3.06.78-2.56-.82-5-.5-7.5h0c.25-.13.68-.23.72-.41.12-.52-.37-.54-.73-.63-.16-1,.36-2.1-.47-3q0-.71.05-1.43l.4,0c.73-.91,3.19-1.53.49-3l-.87-.1c-.06-.52-.15-1.06.38-1.43s.48-.92.5-1.46Z" transform="translate(-1059.45 -359.86)"/><path class="cls-2" d="M1187.46,472.41q.1-2,.19-3.94c1.16-.47,1-1.21.45-2.06l-.09-2,.12.05,1.4,0c.46,3.45-.73,7,.39,10.37-.13.7-1.69,1.36,0,2.1l1.63,1,.43.63q0,.69,0,1.38a1,1,0,0,0-1,1h0c-1.6.19-1.74-1.82-3.06-2l0-1.45-.09-3.09C1187.8,473.66,1188.12,472.93,1187.46,472.41Z" transform="translate(-1059.45 -359.86)"/><path class="cls-12" d="M1192,444c-.31-2.72-2.26-5.14-1.48-8.06,1.56-1.15.34-3.18,1.42-4.48a14.1,14.1,0,0,0,1.08,5.47Z" transform="translate(-1059.45 -359.86)"/><path class="cls-2" d="M1191.56,446.94h.39c.25,3.64-1.33,7-1.66,10.53-.17,1.81-.5,3.61-.76,5.41-1.15-1.74-.22-3.7-.59-5.52l1-4.47c-.3-1.65.52-3,1.09-4.48C1191.63,448.08,1191.5,447.48,1191.56,446.94Z" transform="translate(-1059.45 -359.86)"/><path class="cls-8" d="M1189,457.36c.37,1.82-.57,3.78.59,5.52q0,.78,0,1.56l-1.4,0-.16-2.06c-.29-1.37.94-3.07-.91-4.09q0-.42,0-.84Z" transform="translate(-1059.45 -359.86)"/><path class="cls-9" d="M1189.88,476.92c-1.65-.73-.09-1.4,0-2.1Z" transform="translate(-1059.45 -359.86)"/><path class="cls-12" d="M1119,435.32l1.46,0c-.85,1-2,.38-3,.53-3.68-.08-6-2.8-8.87-4.52l-.15-.54,1,0a1.55,1.55,0,0,0,1.51,1.11c1,1.43,2.53,1.5,4.07,1.45,1,.78,2.6.38,3.49,1.52Z" transform="translate(-1059.45 -359.86)"/><path class="cls-3" d="M1140,449.42c1-.35-.62-1.85.74-1.9,1.16,0,1.64,1,2,2a8.6,8.6,0,0,1,.25,1.94A3.87,3.87,0,0,1,1140,449.42Z" transform="translate(-1059.45 -359.86)"/><path class="cls-3" d="M1145,454.92l-1-.51q0-.75,0-1.5A1.74,1.74,0,0,1,1145,454.92Z" transform="translate(-1059.45 -359.86)"/><path class="cls-6" d="M1126.46,437.93c-.67-.1-1.4,0-2-.48C1125.19,437.45,1125.93,437.26,1126.46,437.93Z" transform="translate(-1059.45 -359.86)"/><path class="cls-15" d="M1183.24,402.89l-2.22,1.5a8.79,8.79,0,0,0-1.39-.48c-1.36-.23-2.61-.82-2.06-2.35.47-1.31,1.72-.67,2.7-.31.13,0,.31,0,.62-.08l-.38-1.82a2.15,2.15,0,0,1,3,.32c-.9.83-.08,1,.48,1.25h0v1.47h0C1183.56,402.3,1183.38,402.57,1183.24,402.89Z" transform="translate(-1059.45 -359.86)"/><path class="cls-3" d="M1180.52,399.36l.38,1.82c-.31,0-.49.13-.62.08-1-.37-2.23-1-2.7.31-.55,1.53.7,2.12,2.06,2.35a8.79,8.79,0,0,1,1.39.48c-2,1.79-3.68.49-5.41-.49C1175.65,400.1,1176.19,399.6,1180.52,399.36Z" transform="translate(-1059.45 -359.86)"/><path class="cls-10" d="M1184,402.38v-1.47c1.07,0,1.07.68,1,1.44Z" transform="translate(-1059.45 -359.86)"/><path class="cls-10" d="M1184,400.92c-.56-.26-1.38-.42-.48-1.25A1.28,1.28,0,0,1,1184,400.92Z" transform="translate(-1059.45 -359.86)"/><path class="cls-12" d="M1177,440.37a27.81,27.81,0,0,1,1.47-11c1.21.77.62,2.94,2.49,3.22a9.51,9.51,0,0,1,1.17.32,1.68,1.68,0,0,0,.37,1.64l-.11.77c-1.73.82-.71,2.36-.92,3.57v0A5.24,5.24,0,0,1,1177,440.37Z" transform="translate(-1059.45 -359.86)"/><path class="cls-9" d="M1182.53,434.56a1.69,1.69,0,0,1-.37-1.64l1.23-4.79.16,2.84-.07.87Z" transform="translate(-1059.45 -359.86)"/><path class="cls-6" d="M1183.54,431l-.16-2.84.67-3.21a17.81,17.81,0,0,1,.29,6Z" transform="translate(-1059.45 -359.86)"/><path class="cls-13" d="M1211.06,401.88c-.93.59-.23,2.18-1.55,2.53a1.81,1.81,0,0,1-2.12-1.55,10.93,10.93,0,0,0-3.19-5.13c-.36-.31-.53-.89-1.14-.7s-.33.61-.28,1c.16,1.14-.82.71-1.33.93l0,0-.52-.51,0,0a.74.74,0,0,0-.91-.48c-2.13-1.82-3.9-4.2-7-4.45,0-1.09-.7-1.51-1.67-1.75s-2-.64-3-1l1.15-4.92c.4.06,1,0,1.19.21,3.12,3.7,7.78,5.22,11.42,8.18.77.63,1.55,1,2.34,0a1.24,1.24,0,0,1,1,.59c-.38.27-.59.79-.18,1,1.31.53,2.2,1.82,3.69,2l.49.54c0,.68.31,1,1,1v0a1.05,1.05,0,0,0,.49,1Z" transform="translate(-1059.45 -359.86)"/><path class="cls-8" d="M1188.4,390.82c1,.33,2,.72,3,1s1.64.66,1.67,1.75c-.72.7-1.69.5-2.53.58-2.75.26-3.57-.82-2.51-3.18Z" transform="translate(-1059.45 -359.86)"/><path class="cls-5" d="M1181.54,393c-1.19-.55-.92-2-1.71-2.79.37-1.27-.26-2.71.62-3.9.4,1.18-.81,2.84,1.07,3.58.14.85.84.86,1.48,1,0,.77.38,1.09,1.13,1l1.54.06C1184.57,393.41,1182.91,392.65,1181.54,393Z" transform="translate(-1059.45 -359.86)"/><path class="cls-4" d="M1185.67,392l-1.54-.06c-.16-.59.21-1,.42-1.51.86-.43,1.13-1.82,2.44-1.51l0,1.1C1186.53,390.62,1186.87,391.83,1185.67,392Z" transform="translate(-1059.45 -359.86)"/><path class="cls-5" d="M1187,390l0-1.1.42-.56.15.12a1.25,1.25,0,0,0,.16.43l-.19,1Z" transform="translate(-1059.45 -359.86)"/><path class="cls-3" d="M1200.06,398a.74.74,0,0,1,.91.48A.86.86,0,0,1,1200.06,398Z" transform="translate(-1059.45 -359.86)"/><path class="cls-3" d="M1201,398.44l.52.51Z" transform="translate(-1059.45 -359.86)"/><path class="cls-12" d="M1120.09,410.94a6.24,6.24,0,0,1,.49-3.52c1.3-.07,2.08-1.41,2.57-2,1.19-1.48,1.89-.64,2.86-.19,1.37.64,2.18,2.31,4,2.19a3.45,3.45,0,0,1-.35,2,3.8,3.8,0,0,1-2.12-.53c-1.09-.54-2.18-1.08-3.27-1.61-.45-.22-1.27-.32-1.09.29.64,2.13-1.45,1.54-2.11,2.34l0,1Z" transform="translate(-1059.45 -359.86)"/><path class="cls-11" d="M1129.62,409.43a3.45,3.45,0,0,0,.35-2l.08-2.92c.38-.14,1-.24.78-.75-.68-1.89.53-1.85,1.77-1.84a72.84,72.84,0,0,0-2.18,10.48l-1,0Z" transform="translate(-1059.45 -359.86)"/><path class="cls-2" d="M1128.91,400.12c.47,1.41,1.15,2.77,1,4.32-1.53-.86-3.4-1.38-3.48-3.63C1127.17,400.27,1127.83,399.46,1128.91,400.12Z" transform="translate(-1059.45 -359.86)"/><path class="cls-5" d="M1144.05,474.43l.42.61Z" transform="translate(-1059.45 -359.86)"/><path class="cls-11" d="M1158.41,481.25c-1.56-1.44-1.3-3.53-1.89-5.32a8,8,0,0,0-.77-3.6c-1.16-3.32-2.22-6.65-3.6-9.91-1.17-2.75-2-5.69-3.12-8.51-1.4-5.07-1.72-10.61-5.25-14.82-2.48-3-4.65-6.44-8.61-7.81-1.89-.65-3-2.61-5.16-2.83l-6-3.09-5-4-.49-1,.62-3.18.93,2.17a3,3,0,0,0,1.2,2.34c1.67,1.3,3.49,2.41,5.24,3.6,6.75,2.92,13.06,6.48,18,12.13h0c2,3.91,4.1,7.75,4.63,12.21a10.89,10.89,0,0,0,.82,2.31l.19.95a1,1,0,0,0,.4,1c.42,1.38.5,2.88,1.42,4.09l3.41,8.94c.69,3.54,2.28,6.85,2.71,10.46C1158.05,478.71,1158.7,479.93,1158.41,481.25Z" transform="translate(-1059.45 -359.86)"/><path class="cls-8" d="M1118.51,420.4l.49,1v2.07c0,1.38,1.29,1.69,2,2.48l-.51.53c-.67,0-1,.29-1,1-1.25.41-2.56-.08-3.86.44-1,.4-1.77-.17-1.59-1.44a4,4,0,0,0,1.82-4.4c-.73,1.53-1.11,2.83-2.4,3.44l-2-.55c.22-1.85,1.92-2.45,3.05-3.48a3.42,3.42,0,0,0,1.24-3.25,2.81,2.81,0,0,0-2.65-2.23c-1.37-.2-2.76-.36-4.13-.54v-1c.7-.21,1.42-.37,2.09-.64,2.12-.86,4.23-1.76,6.34-2.64-.39,2.35.19,4.73-.34,7.09A1.64,1.64,0,0,0,1118.51,420.4Z" transform="translate(-1059.45 -359.86)"/><path class="cls-16" d="M1126.5,425.32c-1.76-1.19-3.57-2.3-5.24-3.6a3,3,0,0,1-1.2-2.34c2,.19-.78-1.85,1-2.09.86-.11.8-.57-1.42-1.87.6-1.45.28-3,.46-4.49h.92a9.21,9.21,0,0,0,5.49,3h0c1,1-.73,2.73,1,3.49a1.07,1.07,0,0,1-.52,1c-.77.39-2-1.09-2.3.22s1.3,1.11,2.14,1.44a11.38,11.38,0,0,0,1.19.33c.5.47,1.47.24,1.76,1.11-1.89.59-2.13.72-1.86,1.2.57,1,.41,1-.64.94S1126.67,424.71,1126.5,425.32Z" transform="translate(-1059.45 -359.86)"/><path class="cls-11" d="M1117.43,411.17c-2.11.88-4.22,1.78-6.34,2.64-.67.27-1.39.43-2.09.64l-2.42-.31-1.07-.25-1.89-.7-1.12-1.13.06-.69.92.15c2.45,3,10,1.71,12.05-1.53l1.38-.67.07.06A2.66,2.66,0,0,1,1117.43,411.17Z" transform="translate(-1059.45 -359.86)"/><path class="cls-9" d="M1114.53,404.86a11.85,11.85,0,0,1,3.76.61l.59,1.06-1.93,1.94C1115.94,407.4,1115.88,405.7,1114.53,404.86Z" transform="translate(-1059.45 -359.86)"/><path class="cls-5" d="M1119.63,415.43c2.21,1.3,2.27,1.76,1.42,1.87-1.77.23,1,2.28-1,2.09l-.93-2.17Z" transform="translate(-1059.45 -359.86)"/><path class="cls-11" d="M1117,408.47l1.93-1.94c1.12,1.72.94,2-1.91,2.86l-.07-.06Z" transform="translate(-1059.45 -359.86)"/><path class="cls-13" d="M1105.51,413.89l1.07.25c0,1.94,1.51,1,2.43,1.27,1.38.18,2.76.33,4.13.54a2.81,2.81,0,0,1,2.65,2.23,3.42,3.42,0,0,1-1.24,3.25c-1.14,1-2.84,1.63-3.05,3.48H1111l-1-2c2.79-1.37.73-2.52-.74-4a14,14,0,0,1,1.71.28c.47.16.95,1,1.4.18.36-.68-.45-.9-.89-1.25a3.45,3.45,0,0,0-4.19,0c-1.08.77-.91,2.47-.73,3.85-1.36.86-.93,2.26-1.05,3.5-1.5-.18-.77-2.44-2.37-2.53a8.81,8.81,0,0,1-1.15-4.31c.09-.6-.06-1.27.58-1.68A4,4,0,0,0,1105.51,413.89Z" transform="translate(-1059.45 -359.86)"/><path class="cls-14" d="M1110,422.91l1,2c-1.07.65-1.2,1.29,0,1.93s.84,2,.82,2.91c0,1.14-1.15.2-1.76.33-.22,0-.36.46-.54.7l-1,0a1.21,1.21,0,0,0-.49,0h0a1.32,1.32,0,0,0,.06-.46c.32-.77-.33-.44-.61-.54h0l-.54-.49v-1c.51-1.51-.17-2.42-1.51-3h0c.12-1.24-.31-2.64,1.05-3.5A4.09,4.09,0,0,1,1110,422.91Z" transform="translate(-1059.45 -359.86)"/><path class="cls-8" d="M1102.53,416.92c-.64.4-.49,1.08-.58,1.68a11.66,11.66,0,0,1-1.36-5.23c-.12-1.3.41-2.13,1.91-1.3l1.12,1.13C1103.82,414.6,1102.78,415.64,1102.53,416.92Z" transform="translate(-1059.45 -359.86)"/><path class="cls-12" d="M1103.1,422.9c1.6.08.88,2.35,2.37,2.53h0l0,2.47-.22.19C1103.74,426.71,1103.67,424.7,1103.1,422.9Z" transform="translate(-1059.45 -359.86)"/><path class="cls-5" d="M1107,428.41v1a1.09,1.09,0,0,1-1-.62,3.39,3.39,0,0,1,0-.44Z" transform="translate(-1059.45 -359.86)"/><path class="cls-12" d="M1106,428.37a3.39,3.39,0,0,0,0,.44l-.71-.74.22-.18Z" transform="translate(-1059.45 -359.86)"/><path class="cls-5" d="M1107.5,429.89c.27.1.93-.24.61.54Z" transform="translate(-1059.45 -359.86)"/><path class="cls-5" d="M1107,429.41l.54.49Z" transform="translate(-1059.45 -359.86)"/><path class="cls-8" d="M1160,415.4c1.5-.62,2.34-2,3.49-3,1.7,1,3.87.3,5.53,1.48-1.26,2.79.67,4.16,2.49,5.58l.08,1.41c-1.95,0-4.13-.33-3.67,2.87.1.71-.78.65-1.34.68-1.53-2.32-2.1-5.37-5-6.6C1161.42,416.72,1159.5,416.82,1160,415.4Z" transform="translate(-1059.45 -359.86)"/><path class="cls-13" d="M1166.55,424.39c.56,0,1.45,0,1.34-.68-.46-3.21,1.72-2.85,3.67-2.87v0c.2,1.1-.87,2.63,1.07,3.13l.42,6.49c-.22,1.18.76,2.26.3,3.46-1.35-1.27-2.32-3.24-4.73-2.55C1167.92,429.06,1166.86,426.84,1166.55,424.39Z" transform="translate(-1059.45 -359.86)"/><path class="cls-2" d="M1171.48,419.42c-1.82-1.42-3.74-2.79-2.49-5.58l1,.06C1169.93,415.89,1172.19,417.25,1171.48,419.42Z" transform="translate(-1059.45 -359.86)"/><path class="cls-8" d="M1172.62,424c-1.94-.5-.88-2-1.07-3.13C1173.36,421.4,1173.06,422.67,1172.62,424Z" transform="translate(-1059.45 -359.86)"/><path class="cls-14" d="M1144,388.38c1.8-.82,3.7-.22,5.55-.39l1,.67-.11,2.38a4.28,4.28,0,0,1-2.25.93c-1.37,0-1.41.49-1.08,1.9.73,3,2.18,1.66,3.65,1,1.31.81,1.36.94.38,1.38s-1,.89-.2,1.51l-.41.67c-3.61.52-5.78-1.22-7-4.44C1144.41,392.16,1143.13,390.17,1144,388.38Z" transform="translate(-1059.45 -359.86)"/><path class="cls-11" d="M1143.49,393.95c1.25,3.22,3.42,5,7,4.44l0,1-1.52.16a6.34,6.34,0,0,1-3.49-1.07l-1.73-1.5a9.94,9.94,0,0,1-1.77-4.52c-.17-.52-.42-1.08.52-1.07A6.6,6.6,0,0,0,1143.49,393.95Z" transform="translate(-1059.45 -359.86)"/><path class="cls-4" d="M1150.93,397.71c-.8-.62-.89-1,.2-1.51s.93-.57-.37-1.38l.31-1.42c.9-1.11.08-1.78-.63-2.48V391l.11-2.38c1.26,2.2,2.85,4.32,2.16,7.06C1152.48,396.56,1152.29,397.74,1150.93,397.71Z" transform="translate(-1059.45 -359.86)"/><path class="cls-5" d="M1149,399.54l1.52-.16.52.52a4.27,4.27,0,0,1-3.46,2.54l0,0A3.08,3.08,0,0,1,1149,399.54Z" transform="translate(-1059.45 -359.86)"/><path class="cls-15" d="M1159.58,401.37c-.47-.59-1.07-1.12-1.07-2,.86-1.47,1.74-2.88,3.74-1.5l-.35,1a2.27,2.27,0,0,0-.86,2Z" transform="translate(-1059.45 -359.86)"/><path class="cls-10" d="M1161,400.92a2.27,2.27,0,0,1,.86-2,1.36,1.36,0,0,1,1,2.05C1162.4,401.91,1161.65,401.29,1161,400.92Z" transform="translate(-1059.45 -359.86)"/><path class="cls-12" d="M1187,379.51l.41,1.36c-1.19.63-2.38-1.41-3.58,0H1183l0-1C1184.16,378.17,1185.54,378.43,1187,379.51Z" transform="translate(-1059.45 -359.86)"/><path class="cls-4" d="M1181.53,389.91c-1.88-.74-.67-2.4-1.07-3.58q0-1,0-2a1.17,1.17,0,0,0,0-.45,5,5,0,0,0,.16-.47l.84-.56.09,4.65Z" transform="translate(-1059.45 -359.86)"/><path class="cls-10" d="M1181.47,382.89l-.84.56c-.16-1.8.42-3.11,2.31-3.58l0,1C1182.09,381.25,1181.92,382.17,1181.47,382.89Z" transform="translate(-1059.45 -359.86)"/><path class="cls-10" d="M1180.48,383.92a1.17,1.17,0,0,1,0,.45l-.18-.34Z" transform="translate(-1059.45 -359.86)"/><path class="cls-9" d="M1149.48,488.9a1.46,1.46,0,0,1,1.52,1.52A1.49,1.49,0,0,1,1149.48,488.9Z" transform="translate(-1059.45 -359.86)"/><path class="cls-9" d="M1151,490.4l.53.53Z" transform="translate(-1059.45 -359.86)"/><path class="cls-9" d="M1151.47,490.89l.55.54Z" transform="translate(-1059.45 -359.86)"/><path class="cls-11" d="M1144.63,407.83c-.2.64.23,1.09.47,1.6-1-.11-1.48.28-1.57,1.38-.2,2.38.85,3.73,3.51,5.09a43.24,43.24,0,0,1,10.44,7l2.61,3.94a12.52,12.52,0,0,0,1.39,3.63.9.9,0,0,0,.12.41l.37.65,1,3.33c.06,1-.17,2.09.41,3,0,5.49.24,11-.27,16.47-.32,3.49-.71,7.09.3,10.6a3.72,3.72,0,0,0-.36,2.92l-.61,1.53c-.87-.71-.45-1.7-.5-2.56-.51-9,1-17.88.34-26.83-.21-2.79-.28-5.64-1.78-8.16-1.61-5-3.57-9.8-9-11.95l-.54-.44a.25.25,0,0,0-.24-.09,3.35,3.35,0,0,0-2.22-1.5h0a1,1,0,0,0-1-.52l0,0c-.19-.45-.6-.49-1-.52l-1-.42c-3-2-4-4.61-2.19-7.92.45-.83-.59-1-.47-1.64l1.18-.67c0,.49.1,1,.65,1.17A.52.52,0,0,0,1144.63,407.83Z" transform="translate(-1059.45 -359.86)"/><path class="cls-8" d="M1157.47,422.93a43.23,43.23,0,0,0-10.44-7c-2.66-1.35-3.71-2.71-3.51-5.09.09-1.09.55-1.49,1.57-1.38,1-.82,1.91.18,2.87,0l1.51.07c.13,2.05,2,3.58,1.69,5.82-.09.65.86.54,1.43.53.82,1.57,2.63,1.64,3.87,2.58-.72.67-.09.9.38,1.17s1.16.54,1.15,1.33C1157.79,421.58,1159.21,422.66,1157.47,422.93Z" transform="translate(-1059.45 -359.86)"/><path class="cls-3" d="M1144,406.23l-1.18.67c-1.09.27-1.09,1.27-1.44,2.07s-.28,2-1.39,2.44a1.38,1.38,0,0,1-.46-1.58c.71-2.74,1.57-5.45,2.21-8.21.4-1.76,1.11-1.68,2.24-.7.17.33.34.35.51,0h0c1,0,1,.8,1,1.52l-.52,1a5,5,0,0,0-1,2.41A1.35,1.35,0,0,0,1144,406.23Z" transform="translate(-1059.45 -359.86)"/><path class="cls-14" d="M1144,405.79a5,5,0,0,1,1-2.41l.25,0h.25C1145.37,404.42,1145.48,405.59,1144,405.79Z" transform="translate(-1059.45 -359.86)"/><path class="cls-5" d="M1145.5,403.4h-.25l-.25,0,.52-1,2,0,0,0A1.82,1.82,0,0,1,1145.5,403.4Z" transform="translate(-1059.45 -359.86)"/><path class="cls-14" d="M1144.63,407.83a.52.52,0,0,1,0-.43l.63,0C1145.3,407.82,1144.95,407.8,1144.63,407.83Z" transform="translate(-1059.45 -359.86)"/><path class="cls-8" d="M1203.86,457.37c1,2-.41,3.49-1,5.18C1202.2,460.63,1203.23,459,1203.86,457.37Z" transform="translate(-1059.45 -359.86)"/><path class="cls-12" d="M1200,468.33l-.57.56Z" transform="translate(-1059.45 -359.86)"/><path class="cls-12" d="M1199.48,468.87l-.5.53Z" transform="translate(-1059.45 -359.86)"/><path class="cls-2" d="M1152.6,415.84c-.56,0-1.52.13-1.43-.53.31-2.25-1.56-3.77-1.69-5.82,1.82-.86,4.23-.91,4.81-3.49,1.81-1.29,2.4-3.32,3.18-5.24.71,1.44,2.65,2.14,2.48,4.12l-.1,0c-1.26.15-2.23.62-2.32,2.07l0,0c-.69-.05-1,.3-1,1-.67,1.53-2.79,1.63-3.29,3.33-1.57.25-1.2,1.44-1.19,2.45.41,0,.49.25.5.58-.22.21-.52.42,0,.62h0Z" transform="translate(-1059.45 -359.86)"/><path class="cls-9" d="M1152.51,414.26c0-.33-.09-.59-.5-.58l1-1.22c1.29-.14,1.87-2,3.45-1.42-.44.54-.67,1.06.11,1.52l-.57,1.8a4.8,4.8,0,0,0,3.13,2l-.44,2.12-.43-.54-5.79-3.1h0Z" transform="translate(-1059.45 -359.86)"/><path class="cls-15" d="M1156.61,412.55c-.77-.45-.54-1-.11-1.52l.48-.23c1.25.34,2.27-.7,3.48-.57a2.5,2.5,0,0,1,.43,1.69A4.37,4.37,0,0,1,1156.61,412.55Z" transform="translate(-1059.45 -359.86)"/><path class="cls-2" d="M1160.9,411.92a2.5,2.5,0,0,0-.43-1.69l.09-1.23a1.88,1.88,0,0,1,2.45,1.41l-1.52,1.53Z" transform="translate(-1059.45 -359.86)"/><path class="cls-10" d="M1160.55,409l-.09,1.23c-1.21-.13-2.24.91-3.48.57A2.71,2.71,0,0,1,1160.55,409Z" transform="translate(-1059.45 -359.86)"/><path class="cls-10" d="M1157.52,406.91c.09-1.46,1.06-1.93,2.32-2.07C1159.86,406.41,1158.59,406.54,1157.52,406.91Z" transform="translate(-1059.45 -359.86)"/><path class="cls-10" d="M1153.05,412.45l-1,1.22c0-1-.39-2.21,1.19-2.45Q1153.13,411.84,1153.05,412.45Z" transform="translate(-1059.45 -359.86)"/><path class="cls-10" d="M1156.49,407.9c0-.66.32-1,1-1C1157.55,407.66,1157.18,407.94,1156.49,407.9Z" transform="translate(-1059.45 -359.86)"/><path class="cls-10" d="M1183.54,431l.8,0c1-.28.92-1.25,1.18-2a2.88,2.88,0,0,1,.46-.05q0,1,0,2h0c-.59.34-.52.91-.5,1.46-.53.37-.44.9-.38,1.43l-.19.62c-.47-.47-.12-1.38-.92-1.67l-.54-.94Z" transform="translate(-1059.45 -359.86)"/><path class="cls-3" d="M1190.49,425.91c-1.44-.51-1.33,1.54-2.48,1.51-.09-1.47.75-2.69,1.09-4,.12-.48.48-.9,0-1.3a1.64,1.64,0,0,1-.42-2.22c.66-.94,1.5.19,2.27.07q0,.25,0,.49c-.05.85-1.06,2.18,1,2v.52C1191.46,423.9,1190.53,424.68,1190.49,425.91Z" transform="translate(-1059.45 -359.86)"/><path class="cls-4" d="M1190.49,425.91c0-1.23,1-2,1.51-3,1,1.88.4,3.86.31,5.8,0,.91-.21,1.81-.32,2.71-1.08,1.3.14,3.33-1.42,4.48-1-.89-.13-1.93,0-2.71A16.81,16.81,0,0,0,1190.49,425.91Z" transform="translate(-1059.45 -359.86)"/><path class="cls-12" d="M1117,408.47l0,.86-1.38.67c-1-.83.8-2.54-1-3.11-.12-1-.87-1-1.63-1a.52.52,0,0,1-.36,0,3.82,3.82,0,0,0-4,0H1107l.72-.88,2.42-.71,4.28.16a2,2,0,0,0,.1.35C1115.88,405.7,1115.94,407.4,1117,408.47Z" transform="translate(-1059.45 -359.86)"/><path class="cls-9" d="M1107.73,405.07l-.72.88-1.17.81-3.91,1.15c1.16-2.35,3.55-2.35,5.63-2.94Z" transform="translate(-1059.45 -359.86)"/><path class="cls-9" d="M1114.43,404.51l-4.28-.16c.46-1.39,1.63-1.26,2.71-1.2a24.93,24.93,0,0,1,2.56.41C1115.2,404,1114.45,403.89,1114.43,404.51Z" transform="translate(-1059.45 -359.86)"/><path class="cls-10" d="M1183.24,402.89c.14-.33.32-.59.74-.5Z" transform="translate(-1059.45 -359.86)"/><path class="cls-15" d="M1121.77,395.92a2.84,2.84,0,0,1,2.55-1c.3,1.07,1.16,1.37,2.12,1.52l-.17.79C1124.7,398.68,1123,398.19,1121.77,395.92Z" transform="translate(-1059.45 -359.86)"/><path class="cls-5" d="M1126.27,397.26l.17-.79.6-.67.46.08.21.13h.25l-.07,0c-.09,1.08.66,2.54-1.27,2.77Z" transform="translate(-1059.45 -359.86)"/><path class="cls-12" d="M1142,392.45a10,10,0,0,0,1.77,4.52c-1.53.29-2.58-1.14-4.07-1.32,0,1.12,1.34,1.46,1,2.92-2.63-2.42-2.69-1.08-2,1.06-.84.38-1.26-1-2.07-.33.93,2.59.91,2.57-1.23,4.76-1,1.06-1.44,2.26-.49,3.62-1.77,1-.73,2.24-.1,3.28-.61.6-1.74-.24-1.62.36.33,1.6-1.83,3-.25,4.59H1131c-1-1-.26-2.38-.63-3.53a72.87,72.87,0,0,1,2.18-10.47.21.21,0,0,0,0-.25,1.15,1.15,0,0,0,.51-1.18h0c.37,0,.46-.24.49-.54l0,.06c1.7-1.82,2.73-4.24,4.95-5.61C1140,394.26,1140,391.57,1142,392.45Zm-6.48,9-.2-.12.21.11.21.12Z" transform="translate(-1059.45 -359.86)"/><path class="cls-3" d="M1143.49,393.95a6.6,6.6,0,0,1-1-2.56,6.77,6.77,0,0,1,.56-2.79l1-.21C1143.13,390.17,1144.41,392.16,1143.49,393.95Z" transform="translate(-1059.45 -359.86)"/><path class="cls-10" d="M1127,395.8l-.6.67c-1-.15-1.82-.44-2.12-1.52A3.63,3.63,0,0,1,1127,395.8Z" transform="translate(-1059.45 -359.86)"/><path class="cls-11" d="M1128,396h-.25l-.21-.13C1127.74,395.53,1127.88,395.65,1128,396Z" transform="translate(-1059.45 -359.86)"/><path class="cls-7" d="M1108,430.88a1.21,1.21,0,0,1,.49,0l.15.54C1107.9,431.9,1108,431.33,1108,430.88Z" transform="translate(-1059.45 -359.86)"/><path class="cls-8" d="M1209,397.85c-1.49-.16-2.38-1.45-3.69-2-.42-.17-.21-.69.18-1l2-.09h0C1207.27,396.22,1209.41,396.44,1209,397.85Z" transform="translate(-1059.45 -359.86)"/><path class="cls-8" d="M1210.5,399.4c-.66,0-1-.34-1-1A.93.93,0,0,1,1210.5,399.4Z" transform="translate(-1059.45 -359.86)"/><path class="cls-5" d="M1211,400.41a1.05,1.05,0,0,1-.49-1A.93.93,0,0,1,1211,400.41Z" transform="translate(-1059.45 -359.86)"/><path class="cls-3" d="M1168.61,431.39c2.41-.69,3.38,1.28,4.73,2.55l.82.64.18,1.38c-.82,2.38-.26,4.7.46,7,.28.88,0,2.71,1.53,2.26s.07-1.8.14-2.75l.59,0,.47,1.42a.88.88,0,0,0,.45,1l0,1,.45.53q.07.21.12.42-.05,4.77-.11,9.54c-1.76,1.5-1,3.69-1.5,5.52-1.32-1-2.18-3.38-4.47-1.5l-.53-5c.73-.87.92-1.62-.46-2,.12-1,.67-1.94.45-3a4.88,4.88,0,0,1,2.09-1.17c1.27-.41,1-1.5.63-2.49-.31-.82-.68-2.33-1.59-1.62-1.23,1-1.77-.27-2.62-.19l-.94-.5Z" transform="translate(-1059.45 -359.86)"/><path class="cls-2" d="M1178,445.91l0-1c.78-.75.18-.89-.45-1l-.47-1.42q0-1.05,0-2.11a5.24,5.24,0,0,0,4.47-1.46c-.34,3.49-1.08,6.93-1.09,10.45l-.41.58c-1.1-.75.59-2.76-1.41-3.1q-.05-.21-.12-.42Z" transform="translate(-1059.45 -359.86)"/><path class="cls-12" d="M1176.47,442.44c-.06.95,1.36,2.32-.14,2.75s-1.25-1.37-1.53-2.26c-.72-2.27-1.28-4.58-.46-7,.87.39.53,1.78,1.64,2C1176.08,439.45,1175.71,441,1176.47,442.44Z" transform="translate(-1059.45 -359.86)"/><path class="cls-8" d="M1204.5,394.32c-.79,1-1.57.6-2.34,0-3.63-3-8.3-4.49-11.42-8.18-.2-.24-.78-.15-1.19-.21l.1-1a2.28,2.28,0,0,0,2.58-1.24h.09c.8,1.12,1.5,2.38,3.19,2.24a28.39,28.39,0,0,0,4.92,3.08C1200.4,391.81,1203.45,392.3,1204.5,394.32Z" transform="translate(-1059.45 -359.86)"/><path class="cls-14" d="M1181.47,382.89c.44-.72.62-1.63,1.51-2h.85c-.11,1.11.69,2.3-.35,3.35a.75.75,0,0,0,.15,1.09c.54.36,1,.14,1.56-.18.76-.44.71-1.74,1.87-1.7l.46.18c.25,1.58-.68,3.12-.12,4.71l-.42.56c-1.31-.3-1.58,1.08-2.44,1.51l-.61-.5c-.36-1.36.54-2.46,1-3.91l-3.4,1.55Z" transform="translate(-1059.45 -359.86)"/><path class="cls-15" d="M1187.07,383.44c-1.16,0-1.11,1.26-1.87,1.7-.54.31-1,.54-1.56.18a.75.75,0,0,1-.15-1.09c1-1.06.24-2.24.35-3.35,1.19-1.41,2.39.63,3.58,0A2,2,0,0,1,1187.07,383.44Z" transform="translate(-1059.45 -359.86)"/><path class="cls-2" d="M1192.23,383.66a2.28,2.28,0,0,1-2.58,1.24q0-.84,0-1.69C1190.58,382.86,1191.52,382.56,1192.23,383.66Z" transform="translate(-1059.45 -359.86)"/><path class="cls-5" d="M1187.41,388.33c-.56-1.59.37-3.13.12-4.71,1.37,0,1,1.06.91,1.77-.06,1-.3,1.9-.46,2.85a1.23,1.23,0,0,1-.43.21Z" transform="translate(-1059.45 -359.86)"/><path class="cls-7" d="M1187.56,388.46a1.23,1.23,0,0,0,.43-.21l-.27.65A1.27,1.27,0,0,1,1187.56,388.46Z" transform="translate(-1059.45 -359.86)"/><path class="cls-15" d="M1179.55,417.91c1.28-.13,1.75,1.27,2.83,1.51,0,1.33-.48,2.46-2,1.88C1178.6,420.67,1178.54,419.34,1179.55,417.91Z" transform="translate(-1059.45 -359.86)"/><path class="cls-11" d="M1133.09,400.47a1.15,1.15,0,0,1-.51,1.18C1132.55,401.17,1132.53,400.7,1133.09,400.47Z" transform="translate(-1059.45 -359.86)"/><path class="cls-11" d="M1133.56,399.94c0,.3-.12.54-.49.54Z" transform="translate(-1059.45 -359.86)"/><path class="cls-5" d="M1158.72,418.51l.44-2.12c-.2-.71.21-.93.8-1-.47,1.42,1.45,1.32,1.53,2.4-.33,2,2.06,2.49,2.38,4.14-.3.84-.63,1.66-.88,2.51-.43,1.48-1.23,2.47-2.92,2.42l-2.61-3.94c1.73-.26.31-1.35.53-2C1160.35,420.75,1159.5,419.62,1158.72,418.51Z" transform="translate(-1059.45 -359.86)"/><path class="cls-10" d="M1160.9,411.92l.59,0c-.86,3-3.3,2.38-5.45,2.41l.57-1.8A4.37,4.37,0,0,0,1160.9,411.92Z" transform="translate(-1059.45 -359.86)"/><path class="cls-3" d="M1114.53,406.88c1.8.56,0,2.28,1,3.11-2.05,3.24-9.6,4.55-12.05,1.53,1.15-.92-.32-3.06,1.66-3.59,0,4,3.66,2,5.38,3.2.68.48,1.25.18,1.76-.35a.88.88,0,0,1,.18-.17c1.46-.84,1.23-2.33,1.38-3.66Z" transform="translate(-1059.45 -359.86)"/><path class="cls-15" d="M1113.84,406.95c-.15,1.34.09,2.82-1.38,3.66a.88.88,0,0,0-.18.17c-.5.53-1.08.83-1.76.35-1.72-1.2-5.34.81-5.38-3.2l.81-.44c1.56.51,2.63,3.1,5,1.26-.93-.75-2.5-.44-2.27-2.06l3.88-.79a.52.52,0,0,0,.36,0Z" transform="translate(-1059.45 -359.86)"/><path class="cls-14" d="M1108.65,406.69c-.22,1.62,1.34,1.31,2.27,2.06-2.34,1.84-3.42-.74-5-1.26l-.11-.74,1.17-.82h1.48Z" transform="translate(-1059.45 -359.86)"/><path class="cls-2" d="M1204.5,394.32c-1-2-4.1-2.51-4.07-5.35h1c1.56.91,2.58,2.62,4.46,3.07-.14,1.37,1.85,1.41,1.72,2.77l-2,.09A1.24,1.24,0,0,0,1204.5,394.32Z" transform="translate(-1059.45 -359.86)"/><path class="cls-10" d="M1195.94,472.84l-.48.52a2.9,2.9,0,0,1,.06-.43Z" transform="translate(-1059.45 -359.86)"/><path class="cls-3" d="M1188,428.89c.68.1,1.43.28,1.28,1.14s-1,.86-1.79.89A3.23,3.23,0,0,1,1188,428.89Z" transform="translate(-1059.45 -359.86)"/><path class="cls-5" d="M1184.08,458.95c-.35,5.84-1.67,11.59-1.6,17.46a1.61,1.61,0,0,0-.25,2.23c2.14,2.24,1.31,4.24-.22,6.28-1.45-.28-1.52-1.62-1.93-2.64-.24-.6-.1-1.56-.88-1.6-1,0-.85,1.08-1.09,1.7-1.51,4-2.1,8.26-3.7,12.24-.72,1.78-1.05,3.69-3.59,1.87-.48-.34-1.34.09-1.82-.56.83-1.22.08-2.83,1-4,.73-1.31-.05-3.26,1.83-4.39.3,2.55,0,4.95,1.18,7.39.77-1.26,1.27-2.36.88-3.59-.61-1.92.06-3.65.62-5.41,1-.25.86-1.1,1-1.82.65-2.56.81-5.32,3.06-7.25,1.49-1.28,1.55-3.43,2.76-5a2.24,2.24,0,0,0,.2-2.13c-1-2.15-.62-4.34-.24-6.54.17-1,.5-2-.3-2.82l0-.54c1.26-.19.84-1.19.93-1.94q.49-3.76,1-7.52a22.48,22.48,0,0,0,1.68-8.47l.86.47c-.32,2.53,1.27,4.94.5,7.5-.84.55-.58,1.85-1.91,2.26-1.11.35,0,.89.44,1.25q0,.74,0,1.48a1,1,0,0,0,.38,1q0,.74,0,1.48A1.41,1.41,0,0,0,1184.08,458.95Z" transform="translate(-1059.45 -359.86)"/><path class="cls-3" d="M1161.53,493.89c2.82-.51,3.36-1.53,2.2-4-.76-1.64-1.86-3.13-2.24-4.94,2.11-.29,2.4,2.42,4.24,2.57-1.14,1.75.35,1.37,1.19,1.43a1.7,1.7,0,0,1,1.56,1l-.51.49c-.22.12-.92-.23-.52.51l.54,1,0,.49a.89.89,0,0,0-1,1l0,1c-1.5.35-.88,1.57-1,2.45a18.2,18.2,0,0,1-.33,3.29C1164.94,497.56,1162,496.56,1161.53,493.89Z" transform="translate(-1059.45 -359.86)"/><path class="cls-3" d="M1182,484.91c1.53-2,2.36-4,.22-6.28a1.61,1.61,0,0,1,.25-2.23c1.1.69,2.86.87,2.14,2.92a.9.9,0,0,0,.29.82c.44.16.77-.17.92-.58a2.25,2.25,0,0,0,0-1.91c-1.35-2.37.46-3.71,1.66-5.25.66.52.34,1.25.41,1.9-1.2,1.07-1.48,2.11.09,3.09q0,.72,0,1.45c-1.27.42-1.35,1.48-1.38,2.56-1.1.91-.61,2.52-1.54,3.5l-2.92.54Z" transform="translate(-1059.45 -359.86)"/><path class="cls-5" d="M1155,485.91c1.34,1.19,1.37,3.52,3.5,4q0,.74,0,1.49c-2.28.06-2.93-2.85-5.18-2.84,1.28-2.36-1.71-1.55-2.13-2.82C1152.54,484.91,1153.75,486.35,1155,485.91Z" transform="translate(-1059.45 -359.86)"/><path class="cls-12" d="M1168,492.4l0-.49h2c-.92,1.2-.17,2.81-1,4-1.09,0-1.92-.27-2-1.54q0-.5,0-1C1167.49,493.24,1168.45,493.52,1168,492.4Z" transform="translate(-1059.45 -359.86)"/><path class="cls-3" d="M1161,492.92l.47,1c-.45,0-1.06.19-1.23-.37S1160.7,493,1161,492.92Z" transform="translate(-1059.45 -359.86)"/><path class="cls-3" d="M1181.51,489.41c.75.78.13.9-.49,1A1,1,0,0,1,1181.51,489.41Z" transform="translate(-1059.45 -359.86)"/><path class="cls-13" d="M1185,484.91c.93-1,.44-2.59,1.54-3.5.7.62.4,1.32.21,2.05a68.36,68.36,0,0,0-1.74,9.44c0,.55.08,1.14-.5,1.51l-1.54-.5,0-2.5a.89.89,0,0,0,1-1A12.18,12.18,0,0,0,1185,484.91Z" transform="translate(-1059.45 -359.86)"/><path class="cls-3" d="M1183,493.91l1.54.5q0,1,0,2l-1,.51C1184.18,495.76,1181.62,495.19,1183,493.91Z" transform="translate(-1059.45 -359.86)"/><path class="cls-3" d="M1184,490.39a.89.89,0,0,1-1,1A.92.92,0,0,1,1184,490.39Z" transform="translate(-1059.45 -359.86)"/><path class="cls-4" d="M1210.52,415.39c.25.14.69.23.73.41.11.53-.38.54-.74.61Z" transform="translate(-1059.45 -359.86)"/><path class="cls-4" d="M1209,450.44l-.87-1.13c-.28-.36-.8-.74-.24-1.16.19-.14.72.16,1.1.26C1208.9,449.08,1211.08,449.75,1209,450.44Z" transform="translate(-1059.45 -359.86)"/><path class="cls-4" d="M1208.49,446.42l0-.55c.52.41,1.35.72.48,1.55A1.07,1.07,0,0,1,1208.49,446.42Z" transform="translate(-1059.45 -359.86)"/><path class="cls-8" d="M1212.48,455.41l-.34,1.07C1211.2,455.79,1211.71,455.56,1212.48,455.41Z" transform="translate(-1059.45 -359.86)"/><path class="cls-4" d="M1207.81,451c-.14.06-.32.19-.42.14s-.12-.26-.18-.4c.14-.05.32-.19.42-.14S1207.76,450.91,1207.81,451Z" transform="translate(-1059.45 -359.86)"/><path class="cls-8" d="M1185,492.91a68.36,68.36,0,0,1,1.74-9.44c.19-.73.49-1.43-.21-2.05,0-1.08.11-2.14,1.38-2.56,1.33.22,1.46,2.23,3.06,2-1.82,1.83-2.35,4.47-4,6.39-.68.76-.33,1.69-.24,2.6C1186.81,491.18,1186.83,492.61,1185,492.91Z" transform="translate(-1059.45 -359.86)"/><path class="cls-13" d="M1168.49,489.91a1.7,1.7,0,0,0-1.56-1c-.85-.06-2.33.32-1.19-1.43-1.84-.15-2.13-2.86-4.24-2.57l-3.08-3.67c.29-1.32-.36-2.54-.39-3.83,2.15,0,3.68-.69,3.5-3.24a1.32,1.32,0,0,1,.52-1.29c1,1.77-.15,3.72.48,5.51-1.46.41-1.46,1.71-1.41,2.78s.42,2.2,1.68,2.06.6-1.32.71-2.07a8.29,8.29,0,0,0,0-1.24,1.1,1.1,0,0,1,.41-.15c1.42,2.65,2.87,5.29,4.22,8C1168.45,488.39,1169.42,489,1168.49,489.91Z" transform="translate(-1059.45 -359.86)"/><path class="cls-3" d="M1149,453.91c1.08,2.83,2,5.77,3.12,8.51,1.38,3.26,2.45,6.59,3.6,9.91a8,8,0,0,1,.77,3.6,6.39,6.39,0,0,1-3.67-4.17c-.77-3-1.92-5.68-1.83-9,.05-1.91-1.65-4.4-2.27-6.75A2.59,2.59,0,0,1,1149,453.91Z" transform="translate(-1059.45 -359.86)"/><path class="cls-3" d="M1109.49,430.8c.18-.24.32-.66.54-.7.61-.13,1.74.81,1.76-.33,0-.9.42-2.25-.82-2.91s-1.08-1.28,0-1.93h.55l2,.55a1.05,1.05,0,0,0,.59,1c-.18,1.27.58,1.84,1.59,1.44,1.3-.52,2.61,0,3.86-.44,1.18-.05,1.82.44,1.78,1.71-3.78-.82-5.55-.08-6.8,2.81-1.17.53-2.31-1.92-3.48,0A1.55,1.55,0,0,1,1109.49,430.8Z" transform="translate(-1059.45 -359.86)"/><path class="cls-4" d="M1124.06,425.34l6,3.09c-1.16,2.11-3,2.54-5.54,1.08a5,5,0,0,1-2.54-2.54l.09-.1c1.44-.33,2.23,1.57,3.87,1.21-.59-1.08-1.93-1.39-1.92-2.65Z" transform="translate(-1059.45 -359.86)"/><path class="cls-5" d="M1111,431.9c1.18-1.89,2.32.55,3.48,0l.59,1.43C1113.53,433.4,1112,433.33,1111,431.9Z" transform="translate(-1059.45 -359.86)"/><path class="cls-4" d="M1120.49,426.43l.51-.53a1,1,0,0,1,1,1l-.09.1C1121.41,426.92,1120.83,427,1120.49,426.43Z" transform="translate(-1059.45 -359.86)"/><path class="cls-4" d="M1119,435.32l-.48-.45Z" transform="translate(-1059.45 -359.86)"/><path class="cls-5" d="M1148,475.4a1.73,1.73,0,0,1,.94,2c-.61-.1-1.4.26-1.78-.46S1147.76,475.94,1148,475.4Z" transform="translate(-1059.45 -359.86)"/><path class="cls-5" d="M1147.56,473.91c.54.37.44.95.46,1.48-.72-.05-1.61-.2-1.72-.91S1147.08,474,1147.56,473.91Z" transform="translate(-1059.45 -359.86)"/><path class="cls-10" d="M1184.64,441.94a22.49,22.49,0,0,1-1.68,8.47c-1.55-.07-1.67,1-1.59,2.1s.48,2.08-.38,3c-1.28-1.68-.9-3.65-1-5.54l.41-.59.64,0c1.31.2,1.22-.9,1.52-1.64,1.55-3.86,1-8.13,2.33-12l.21,1.23-.06,1.43A5.27,5.27,0,0,0,1184.64,441.94Z" transform="translate(-1059.45 -359.86)"/><path class="cls-3" d="M1189,457.36l-1.89.12c-.23-2.28,0-4.3,2.89-4.59Z" transform="translate(-1059.45 -359.86)"/><path class="cls-3" d="M1184.53,453.42c-.42-.36-1.55-.9-.44-1.25,1.33-.41,1.07-1.71,1.91-2.26,2.07.72.54,2.06.44,3.06C1186.28,454.53,1185.17,453.21,1184.53,453.42Z" transform="translate(-1059.45 -359.86)"/><path class="cls-3" d="M1187.07,458.33c1.85,1,.62,2.73.91,4.09C1186,461.42,1187.36,459.69,1187.07,458.33Z" transform="translate(-1059.45 -359.86)"/><path class="cls-4" d="M1184.64,441.94a5.27,5.27,0,0,1,.41-3.55c.83.89.31,2,.47,3q0,.52,0,1h0Z" transform="translate(-1059.45 -359.86)"/><path class="cls-3" d="M1186,433.92c2.7,1.46.24,2.09-.49,3Z" transform="translate(-1059.45 -359.86)"/><path class="cls-3" d="M1184.08,458.95a1.41,1.41,0,0,1,.84-1.55c.45.2,1,.46.85,1C1185.51,459.24,1184.65,458.77,1184.08,458.95Z" transform="translate(-1059.45 -359.86)"/><path class="cls-4" d="M1186,433.92l-.49,3-.4,0-.21-1.23q0-.65,0-1.3l.19-.62Z" transform="translate(-1059.45 -359.86)"/><path class="cls-8" d="M1188.1,466.41c.58.85.7,1.6-.45,2.06q-.07-1-.15-2.06Z" transform="translate(-1059.45 -359.86)"/><path class="cls-3" d="M1188.1,466.41h-.6c-.69-.88-.95-1.66.51-2Z" transform="translate(-1059.45 -359.86)"/><path class="cls-3" d="M1191.56,446.94c-.06.53.07,1.13-.53,1.48C1190.17,447.56,1190.42,447.09,1191.56,446.94Z" transform="translate(-1059.45 -359.86)"/><path class="cls-3" d="M1185.53,442.42q0-.52,0-1c.36.09.85.1.73.63C1186.21,442.2,1185.78,442.29,1185.53,442.42Z" transform="translate(-1059.45 -359.86)"/><path class="cls-3" d="M1184.92,455.92a1,1,0,0,1-.38-1C1185.19,455,1185.79,455.2,1184.92,455.92Z" transform="translate(-1059.45 -359.86)"/><path class="cls-4" d="M1185.51,432.39c0-.55-.09-1.12.5-1.46C1186,431.47,1186.08,432,1185.51,432.39Z" transform="translate(-1059.45 -359.86)"/><path class="cls-8" d="M1188,477.4c-1.57-1-1.29-2-.09-3.09Q1187.91,475.86,1188,477.4Z" transform="translate(-1059.45 -359.86)"/><path class="cls-6" d="M1181,449.42l-.64,0c0-3.52.75-7,1.09-10.45v0c.92-1,.5-2.41.92-3.57l.11-.77.93-2.72.54.94C1182.95,438.31,1181.7,443.81,1181,449.42Z" transform="translate(-1059.45 -359.86)"/><path class="cls-2" d="M1182.43,435.33c-.42,1.16,0,2.54-.92,3.57C1181.72,437.68,1180.69,436.15,1182.43,435.33Z" transform="translate(-1059.45 -359.86)"/><path class="cls-15" d="M1181.56,387.54,1185,386c-.49,1.45-1.39,2.55-1,3.91l-.93,1c-.64-.1-1.33-.11-1.48-1Z" transform="translate(-1059.45 -359.86)"/><path class="cls-10" d="M1183,390.88l.93-1,.61.5c-.2.48-.58.92-.42,1.51C1183.39,392,1183,391.64,1183,390.88Z" transform="translate(-1059.45 -359.86)"/><path class="cls-5" d="M1127.5,417.41c-1.73-.76,0-2.53-1-3.49.72,0,1.91.14.65-1.05-.76-.72-1.9-1-2.31-2.19,1-.51,2.46-.17,2.66-1.76a3.8,3.8,0,0,0,2.12.53q-.08,1.45-.17,2.91c-1,1.54-.28,3.07,0,4.59C1129,417.64,1128.19,417.34,1127.5,417.41Z" transform="translate(-1059.45 -359.86)"/><path class="cls-16" d="M1127.5,408.9c-.19,1.59-1.7,1.25-2.66,1.76.41,1.16,1.55,1.47,2.31,2.19,1.25,1.19.06,1-.65,1.05h0l-5.47-4c.65-.8,2.75-.21,2.11-2.34-.18-.61.63-.5,1.09-.29C1125.32,407.82,1126.41,408.37,1127.5,408.9Z" transform="translate(-1059.45 -359.86)"/><path class="cls-5" d="M1121,409.92l5.47,4a9.21,9.21,0,0,1-5.49-3Z" transform="translate(-1059.45 -359.86)"/><path class="cls-7" d="M1129.5,416.93c-.33-1.53-1-3.05,0-4.59l1,0c.37,1.15-.41,2.5.63,3.53v.58Z" transform="translate(-1059.45 -359.86)"/><path class="cls-14" d="M1160.53,431.86c1.5,2.52,1.57,5.38,1.78,8.16.67,9-.85,17.88-.34,26.83,0,.86-.38,1.85.5,2.56a2.73,2.73,0,0,1,0,.47,1,1,0,0,0-.91.71c-.19.63.26,1.78-.93,1.66s-1.62-1.05-1.61-2.18a7.15,7.15,0,0,1,.33-3,.72.72,0,0,0-.33-1.05,2.1,2.1,0,0,0-.91,0c-.31,2.26-1.83.75-2.79.91L1151.9,458c1.69.26,1.39-1.49,2.16-2.15l2.29,9.8.53-.09-1-8.17c2.75.64,3,.34,2.68-2.64-.24-2.05-.25-4.14-.62-6.16-.32-1.79-.08-3.88-2.17-5-.41-.22-1.15-1-.18-1.58,2-1.08,2.17-2.79,1.92-4.72,1.11-.82-.18-1.57-.06-2.36l0-1.52-.5-2.51C1158.26,430.9,1159.06,432.63,1160.53,431.86Z" transform="translate(-1059.45 -359.86)"/><path class="cls-5" d="M1154.06,455.87c-.77.66-.47,2.41-2.16,2.15-.92-1.21-1-2.71-1.42-4.09a1.06,1.06,0,0,0-.4-1l-.18-.95a1,1,0,0,0,.47-1.27c-.71-2.61-1.23-5.28-2.19-7.8-.78-2.05-1.42-4.38-3.73-5.46h0a2.3,2.3,0,0,0-.87-2.2c-1.87-1.77-3.65-3.65-5.62-5.3a5,5,0,0,1-1.6-2.64c-.16-.6,1.06-.82,1.78-1,.58.77,1.69.53,2.31,1.32,2.48,3.18,5.65,5.83,7.62,9.41C1151.31,442.94,1152.53,449.46,1154.06,455.87Z" transform="translate(-1059.45 -359.86)"/><path class="cls-4" d="M1138.15,426.34c-.73.15-1.94.37-1.78,1a5,5,0,0,0,1.6,2.64c2,1.65,3.75,3.53,5.62,5.3a2.3,2.3,0,0,1,.87,2.2c-4.9-5.65-11.21-9.21-18-12.13.17-.61-.43-1.74.77-1.67s1.21.08.64-.94c-.27-.48,0-.62,1.86-1.2-.29-.86-1.25-.63-1.76-1.11,0-.86-.72-1.31-1-2a1.07,1.07,0,0,0,.52-1c.69-.06,1.46.23,2-.47l1.53-.45,0,.9c.63,3.38,2.18,6.09,5.42,7.64A10.57,10.57,0,0,1,1138.15,426.34Z" transform="translate(-1059.45 -359.86)"/><path class="cls-3" d="M1155.31,467c1-.16,2.49,1.35,2.79-.91a2.1,2.1,0,0,1,.91,0,.72.72,0,0,1,.33,1.05,7.15,7.15,0,0,0-.33,3c0,1.13.46,2.06,1.61,2.18s.75-1,.93-1.66a1,1,0,0,1,.92-.71l.07,1.65-.5,1.35a1.32,1.32,0,0,0-.52,1.29c.18,2.55-1.35,3.22-3.5,3.24C1157.58,473.81,1156,470.5,1155.31,467Z" transform="translate(-1059.45 -359.86)"/><path class="cls-4" d="M1144.45,437.45c2.31,1.08,2.94,3.4,3.73,5.46,1,2.51,1.48,5.19,2.19,7.8a1,1,0,0,1-.47,1.27,10.85,10.85,0,0,1-.82-2.31C1148.54,445.2,1146.41,441.36,1144.45,437.45Z" transform="translate(-1059.45 -359.86)"/><path class="cls-4" d="M1119,423.42v-2.07l5,4-.09.1C1122,425.6,1120.88,423.53,1119,423.42Z" transform="translate(-1059.45 -359.86)"/><path class="cls-4" d="M1150.08,452.92a1.06,1.06,0,0,1,.4,1A1,1,0,0,1,1150.08,452.92Z" transform="translate(-1059.45 -359.86)"/><path class="cls-16" d="M1119,423.42c1.88.11,3,2.18,5,2,0,1.26,1.33,1.57,1.92,2.65-1.64.37-2.43-1.54-3.87-1.21a1,1,0,0,0-1-1C1120.29,425.11,1119,424.8,1119,423.42Z" transform="translate(-1059.45 -359.86)"/><path class="cls-5" d="M1114,426.41a1.05,1.05,0,0,1-.59-1c1.3-.61,1.68-1.91,2.4-3.44A4,4,0,0,1,1114,426.41Z" transform="translate(-1059.45 -359.86)"/><path class="cls-5" d="M1109,415.41c-.91-.23-2.41.67-2.43-1.27l2.42.31Q1109,414.93,1109,415.41Z" transform="translate(-1059.45 -359.86)"/><path class="cls-14" d="M1127,418.42c.31.68,1.07,1.12,1,2a11.39,11.39,0,0,1-1.19-.33c-.84-.33-2.46,0-2.14-1.44S1126.21,418.81,1127,418.42Z" transform="translate(-1059.45 -359.86)"/><path class="cls-5" d="M1102.53,416.92c.25-1.27,1.29-2.32,1.08-3.72l1.89.69A4,4,0,0,1,1102.53,416.92Z" transform="translate(-1059.45 -359.86)"/><path class="cls-3" d="M1110,422.91a4.09,4.09,0,0,0-3.45-1c-.17-1.38-.35-3.08.73-3.85a3.45,3.45,0,0,1,4.19,0c.44.35,1.25.56.89,1.25-.45.86-.92,0-1.4-.18a14,14,0,0,0-1.71-.28C1110.71,420.39,1112.77,421.54,1110,422.91Z" transform="translate(-1059.45 -359.86)"/><path class="cls-3" d="M1106,428.37l-.5-.48q0-1.23,0-2.47c1.33.58,2,1.49,1.51,3Z" transform="translate(-1059.45 -359.86)"/><path class="cls-11" d="M1162,472.9l.5-1.35c1.16,1,1.72.74,2.56-.61,1.67-2.65,3-5.27,2.42-8.52l.56-5.44v0a3.18,3.18,0,0,0,.44-1.1c-.08-5.31.44-10.65-.45-15.94v-1l-.11-1.5,0-.51a34,34,0,0,0-4-15c-.32-1.65-2.71-2.11-2.38-4.14,2.95,1.23,3.52,4.28,5,6.6.31,2.44,1.37,4.66,2.06,7l.93,13c.39,6-.45,12-.61,18-.14,3-.5,5.89-2.44,8.35a12.62,12.62,0,0,0-2.57,9.05,1.12,1.12,0,0,0-.41.15c-.89-.15-1-.84-1-1.54C1161.89,476.61,1163,474.67,1162,472.9Z" transform="translate(-1059.45 -359.86)"/><path class="cls-15" d="M1151.07,393.41l-.31,1.42c-1.47.68-2.93,2-3.66-1-.34-1.4-.3-1.87,1.08-1.9a4.28,4.28,0,0,0,2.25-.93v-.11C1150.69,391.74,1150,392.79,1151.07,393.41Z" transform="translate(-1059.45 -359.86)"/><path class="cls-16" d="M1133,415.91c-1.58-1.58.58-3,.25-4.59-.12-.6,1,.24,1.62-.36-.64-1-1.67-2.27.1-3.28-.95-1.36-.55-2.56.49-3.62,2.14-2.18,2.16-2.17,1.23-4.76.82-.67,1.24.71,2.07.33-.72-2.14-.66-3.48,2-1.06.32-1.46-1-1.79-1-2.92,1.49.18,2.54,1.62,4.07,1.32l1.73,1.5a1,1,0,0,1-.5,1l-.45.45,0,1H1144c-1.13-1-1.84-1.05-2.24.7-.63,2.76-1.49,5.47-2.21,8.21a1.38,1.38,0,0,0,.46,1.58q0,.51,0,1c-1.89,1.33-.7,2.15.49,3,.7,1.66.8,3.56,2,5a7.11,7.11,0,0,1,.32,2.62c-.46,1.67.4,1.86,1.63,1.89a8.09,8.09,0,0,1,.57,3l-2-.5c-1-1.52-1.7-3.31-3-4.48a3.75,3.75,0,0,1-1.53-3.51c.5-.07,1-.18.89-.85,0-.16-.36-.42-.45-.38-.59.23-.37.79-.43,1.24Z" transform="translate(-1059.45 -359.86)"/><path class="cls-4" d="M1145,399.45a1,1,0,0,0,.5-1,6.34,6.34,0,0,0,3.49,1.07,3.08,3.08,0,0,0-1.46,2.86l-2,0c0-.72,0-1.47-1-1.52l0-1Z" transform="translate(-1059.45 -359.86)"/><path class="cls-14" d="M1151.07,393.41c-1-.62-.38-1.67-.63-2.48C1151.15,391.62,1152,392.3,1151.07,393.41Z" transform="translate(-1059.45 -359.86)"/><path class="cls-3" d="M1160.53,431.86c-1.47.77-2.26-1-3.52-1l-1-1a3.91,3.91,0,0,0-2.66-3.3c-.61-.24-1.21-.2-1.51.42s.28.78.76.89c1.55.36.19,1.34.42,2-.58,1.35-2.34,1.85-2.52,3.49-1.55,0-1.93-2-3.47-2v-2c.77-.29,1.52.68,2.11,0,1.41-.8-3.13-2.54.65-2.92,0-.23-.12-.46-.14-.69A8.9,8.9,0,0,0,1147,420a4.81,4.81,0,0,1-1.51-3.54l1,.42a1,1,0,0,0,1,.52l0,0a.93.93,0,0,0,1,.52h0c.09,1.47,1.1,1.56,2.22,1.5a.25.25,0,0,1,.24.09l.54.45C1157,422.07,1158.91,426.83,1160.53,431.86Z" transform="translate(-1059.45 -359.86)"/><path class="cls-3" d="M1168,438.91q0,.49,0,1c-1.91.52-.91,2.06-1,3.13-.27,3.12,1,6.35-.09,9.33-.72,2.07-.34,3.31,1.11,4.58v0c-.76.16-2.24-.74-1.76,1.23a.4.4,0,0,1-.58.48c-2.8-1.68-1.33,1-1.75,1.7-.78.73-.37,1.68-.47,2.53l-.07,2.07c-1-3.5-.62-7.11-.3-10.6.5-5.5.31-11,.27-16.46Zm-3.53,17.88c.68-.07.91-.23.8-.49a1.25,1.25,0,0,0-.6-.66c-.37-.12-.59.17-.49.55A2.57,2.57,0,0,0,1164.52,456.79Z" transform="translate(-1059.45 -359.86)"/><path class="cls-14" d="M1145.5,416.45A4.81,4.81,0,0,0,1147,420a8.9,8.9,0,0,1,2.63,5.84c0,.23.09.46.14.69-3.78.38.76,2.12-.65,2.92-.59.65-1.35-.31-2.11,0l-2-1.51a8.11,8.11,0,0,0-.57-3c1-1.68.32-3.31-1.95-4.51-1.22-1.45-1.32-3.35-2-5-.16-1,.4-2.1-.49-3q0-.51,0-1c1.12-.44,1-1.59,1.39-2.44s.36-1.8,1.44-2.07c-.12.62.92.81.47,1.64C1141.51,411.84,1142.47,414.45,1145.5,416.45Z" transform="translate(-1059.45 -359.86)"/><path class="cls-4" d="M1168,438.91l-4.64-1c-.58-1-.34-2-.41-3a1,1,0,0,0,.5-1c.81-.18,1.89,1.28,2.43-.32.34-1-.23-1.71-1.22-2a5.27,5.27,0,0,0-.72-.14c-.17-1-.33-1.94-.5-2.91-.09-.52.19-1.34-.65-1.34a1.36,1.36,0,0,0-1.19,1.13,15.61,15.61,0,0,0-.19,2.21,12.52,12.52,0,0,1-1.39-3.63c1.69.06,2.48-.94,2.92-2.42.25-.85.58-1.68.88-2.51a34,34,0,0,1,4,15c-.92-.38-1.85-.74-2.75-1.14-.62-.28-1.22-.31-1.39.43s.53.64,1,.72l3.17.51Z" transform="translate(-1059.45 -359.86)"/><path class="cls-5" d="M1163.51,462.91c.1-.86-.31-1.81.47-2.53,1.24.57,1.81,2.31,3.53,2,.62,3.25-.75,5.87-2.42,8.52-.84,1.34-1.4,1.66-2.56.61l-.07-1.65a2.76,2.76,0,0,0,0-.47l.61-1.52c1.95.19,2.81-1,2.83-2.64C1165.93,463.92,1165.4,462.57,1163.51,462.91Z" transform="translate(-1059.45 -359.86)"/><path class="cls-5" d="M1161.47,430.5a15.61,15.61,0,0,1,.19-2.21,1.36,1.36,0,0,1,1.19-1.13c.85,0,.57.82.65,1.34.16,1,.33,1.94.5,2.91a4.14,4.14,0,0,1-.5,2.5,1,1,0,0,1-.5,1l-1-3.33-.37-.65A.9.9,0,0,1,1161.47,430.5Z" transform="translate(-1059.45 -359.86)"/><path class="cls-12" d="M1163.51,462.91c1.89-.34,2.42,1,2.4,2.34,0,1.63-.89,2.84-2.83,2.64a3.72,3.72,0,0,1,.36-2.92Z" transform="translate(-1059.45 -359.86)"/><path class="cls-5" d="M1150.73,419.38c-1.12.07-2.13,0-2.22-1.5A3.35,3.35,0,0,1,1150.73,419.38Z" transform="translate(-1059.45 -359.86)"/><path class="cls-5" d="M1148.52,417.9a.93.93,0,0,1-1-.52A1,1,0,0,1,1148.52,417.9Z" transform="translate(-1059.45 -359.86)"/><path class="cls-5" d="M1147.53,417.39a1,1,0,0,1-1-.52C1146.93,416.9,1147.34,416.94,1147.53,417.39Z" transform="translate(-1059.45 -359.86)"/><path class="cls-5" d="M1151.52,419.92l-.54-.45Z" transform="translate(-1059.45 -359.86)"/><path class="cls-4" d="M1161.59,430.9l.37.65Z" transform="translate(-1059.45 -359.86)"/><path class="cls-7" d="M1152.51,414.88l5.78,3.1-1.83.44c-1.24-.93-3.05-1-3.87-2.58Z" transform="translate(-1059.45 -359.86)"/><path class="cls-2" d="M1156.47,418.42l1.83-.44.43.54c.78,1.1,1.62,2.23-.73,2.4,0-.78-.62-1-1.15-1.33S1155.75,419.08,1156.47,418.42Z" transform="translate(-1059.45 -359.86)"/><path class="cls-4" d="M1144,400.91h.51C1144.33,401.26,1144.16,401.25,1144,400.91Z" transform="translate(-1059.45 -359.86)"/><path class="cls-8" d="M1152.51,414.26v.62C1152,414.67,1152.3,414.47,1152.51,414.26Z" transform="translate(-1059.45 -359.86)"/><path class="cls-9" d="M1181,449.42c.65-5.61,1.9-11.11,3-16.64.8.28.45,1.2.92,1.67l0,1.3c-1.31,3.91-.78,8.17-2.33,12C1182.27,448.52,1182.36,449.61,1181,449.42Z" transform="translate(-1059.45 -359.86)"/><path class="cls-4" d="M1108.65,406.69l-.16-.75a3.82,3.82,0,0,1,4,0Z" transform="translate(-1059.45 -359.86)"/><path class="cls-4" d="M1113.84,406.95l-.94-1c.75,0,1.51-.08,1.63,1Z" transform="translate(-1059.45 -359.86)"/><path class="cls-5" d="M1138.5,419.41a3.75,3.75,0,0,0,1.53,3.51c1.29,1.17,2,3,3,4.48l-1.11.05c-1-.7-2-1.45-3-2.1-2.84-1.78-6-3.27-6.61-7.1a1.08,1.08,0,0,0-1.29-.88l0-.9v-.58H1133l5.53,3.5Z" transform="translate(-1059.45 -359.86)"/><path class="cls-16" d="M1135.5,401.41l.21.11-.21-.12Z" transform="translate(-1059.45 -359.86)"/><path class="cls-16" d="M1135.5,401.41l-.21-.11.2.12Z" transform="translate(-1059.45 -359.86)"/><path class="cls-14" d="M1172.51,460.42c2.29-1.87,3.15.5,4.47,1.5q0,.75,0,1.51a1.18,1.18,0,0,0-.19.12,2.92,2.92,0,0,0,.19.34c.82,1.6-.05,3.07-.55,4.45a16.47,16.47,0,0,0-1.46,5.57c-.56,1.36-2,2.4-1.54,4.13a.42.42,0,0,0,0,.25l-.49.62v0c-.87-.39-2,1.84-2.31.25a15,15,0,0,1,0-6c.63-2.86,1.43-5.77.83-8.77l0-1.52C1172.3,462.27,1171.85,461.11,1172.51,460.42Z" transform="translate(-1059.45 -359.86)"/><path class="cls-4" d="M1175,473.9a16.47,16.47,0,0,1,1.46-5.57c.5-1.38,1.36-2.85.55-4.45q0-.23,0-.46,0-.75,0-1.51c.54-1.83-.27-4,1.5-5.52-.1,2.88.38,5.79-.4,8.65a16,16,0,0,0-.17,9,33.12,33.12,0,0,0,1.63-5c.65-2.87.34-5.9,1.48-8.68.8.87.47,1.86.3,2.82-.38,2.2-.76,4.39.24,6.54a2.24,2.24,0,0,1-.2,2.13c-1.21,1.52-1.27,3.67-2.76,5-2.24,1.93-2.4,4.68-3.06,7.25-.18.72-.06,1.57-1,1.82a9.91,9.91,0,0,1,.5-3.51c-.25-1.61,1.64-2.88.71-4.74-1.84,1.11-2.24,2.95-2.73,4.73l-.48.5c-1.11-1.49.61-2.64.49-4v0l.49-.62a.43.43,0,0,1,0-.26C1175.68,476.82,1176.32,475.12,1175,473.9Z" transform="translate(-1059.45 -359.86)"/><path class="cls-12" d="M1181,460.41c-1.14,2.78-.82,5.81-1.48,8.68a33.12,33.12,0,0,1-1.63,5,16,16,0,0,1,.17-9c.78-2.86.3-5.77.4-8.65q.05-4.77.11-9.54c2,.33.32,2.35,1.41,3.1.1,1.89-.28,3.87,1,5.54a4.46,4.46,0,0,0,.07,4.37Z" transform="translate(-1059.45 -359.86)"/><path class="cls-5" d="M1172.51,460.42c-.66.7-.21,1.85-1,2.49a4.36,4.36,0,0,0-2.55-.5c.16-6,1-12,.61-18l.94.5c-.14,1.81,1.19,3.39.84,5.24a3.71,3.71,0,0,0,.65.24c.22,1.05-.33,2-.45,3,0,.69-.25,1.46.46,2Z" transform="translate(-1059.45 -359.86)"/><path class="cls-4" d="M1172,450.42a3.71,3.71,0,0,1-.65-.24c.35-1.85-1-3.43-.84-5.24.85-.08,1.39,1.15,2.62.2.91-.71,1.28.8,1.59,1.62.37,1,.64,2.08-.63,2.49A4.88,4.88,0,0,0,1172,450.42Z" transform="translate(-1059.45 -359.86)"/><path class="cls-4" d="M1172,455.41c-.71-.54-.41-1.31-.46-2C1172.9,453.79,1172.7,454.54,1172,455.41Z" transform="translate(-1059.45 -359.86)"/><path class="cls-12" d="M1177.54,443.9c.63.12,1.23.26.45,1A.88.88,0,0,1,1177.54,443.9Z" transform="translate(-1059.45 -359.86)"/><path class="cls-12" d="M1178,445.91l.45.53Z" transform="translate(-1059.45 -359.86)"/><path class="cls-8" d="M1168.93,462.4a4.36,4.36,0,0,1,2.55.5q0,.76,0,1.52c-.74,3.91-3.23,7.45-2.48,11.7a3.17,3.17,0,0,1-.08,1.73c-.9,2,.17,3.54,1.32,5a9.26,9.26,0,0,1,1.61,2.43l.67-2.35.48-.5h2a9.91,9.91,0,0,0-.5,3.51c-.56,1.76-1.22,3.49-.62,5.41.39,1.23-.11,2.33-.88,3.59-1.19-2.45-.88-4.85-1.18-7.39-1.88,1.14-1.1,3.08-1.83,4.39h-1.48a1.06,1.06,0,0,0-.5-1l0-.51.51-.49c.92-.87,0-1.52-.36-2.13-1.35-2.69-2.8-5.32-4.22-8a12.62,12.62,0,0,1,2.57-9.05C1168.43,468.29,1168.79,465.38,1168.93,462.4Z" transform="translate(-1059.45 -359.86)"/><path class="cls-4" d="M1181.06,459.87a4.46,4.46,0,0,1-.07-4.37c.86-.91.45-2,.38-3s0-2.17,1.59-2.1q-.49,3.76-1,7.52C1181.9,458.68,1182.32,459.68,1181.06,459.87Z" transform="translate(-1059.45 -359.86)"/><path class="cls-5" d="M1168,492.4c.49,1.12-.47.84-1,1A.89.89,0,0,1,1168,492.4Z" transform="translate(-1059.45 -359.86)"/><path class="cls-5" d="M1168,490.91a1.06,1.06,0,0,1,.5,1H1168l-.54-1Z" transform="translate(-1059.45 -359.86)"/><path class="cls-13" d="M1168,490.91h-.54c-.4-.75.3-.39.52-.51Z" transform="translate(-1059.45 -359.86)"/><path class="cls-5" d="M1162.51,478.41c0,.7.1,1.39,1,1.54a8.28,8.28,0,0,1,0,1.24c-.12.74.44,1.94-.71,2.07s-1.63-1.13-1.68-2.06S1161.05,478.83,1162.51,478.41Z" transform="translate(-1059.45 -359.86)"/><path class="cls-16" d="M1157.51,437.3c.25,1.93,0,3.64-1.92,4.72-1,.54-.23,1.36.18,1.58,2.09,1.11,1.85,3.21,2.17,5,.37,2,.38,4.11.62,6.16.34,3,.07,3.27-2.68,2.64-.95-3.82-2.6-7.45-3-11.42.21-1.78,2-3.75-.07-5.28s-.89-1.6.72-1.79a6.39,6.39,0,0,0-2.07-2c.06-1,.79-1,1.53-1,.06.37.05.78.6.76a.23.23,0,0,0,.16-.15c0-.54-.4-.54-.76-.6l0-1C1155.16,434.41,1156.3,435.93,1157.51,437.3Zm-1.71.74c-.05-.14-.08-.34-.17-.39s-.26.08-.4.13c.05.14.08.34.17.39S1155.67,438.1,1155.8,438Z" transform="translate(-1059.45 -359.86)"/><path class="cls-11" d="M1152.89,446c.39,4,2,7.6,3,11.42l1,8.17-.53.09-2.29-9.8c-1.53-6.41-2.75-12.93-6-18.8-2-3.59-5.14-6.23-7.62-9.41-.62-.79-1.73-.55-2.31-1.32a10.51,10.51,0,0,0-1.74-1.32c-3.24-1.55-4.78-4.26-5.42-7.64a1.08,1.08,0,0,1,1.29.88c.65,3.82,3.76,5.32,6.61,7.1,1,.65,2,1.39,3,2.1,1.39,1.8,2.55,3.81,4.54,5.08a.86.86,0,0,0,.2.36.78.78,0,0,0,.81.6l0,0a1.16,1.16,0,0,0,.52,1.07A63.32,63.32,0,0,1,1152.89,446Z" transform="translate(-1059.45 -359.86)"/><path class="cls-4" d="M1157.51,437.3c-1.22-1.37-2.36-2.89-4.56-2.38-.66-.32-1.1-1.07-2-1l-.52-.51c.19-1.64,1.95-2.13,2.52-3.49h3l1,1,.5,2.51c-1.2.33-2.17-2.18-2.71-1-.63,1.42,1.47,1.9,2.66,2.47C1157.33,435.73,1158.62,436.49,1157.51,437.3Z" transform="translate(-1059.45 -359.86)"/><path class="cls-16" d="M1157.45,434.94c-1.2-.57-3.29-1.05-2.66-2.47.54-1.23,1.51,1.28,2.71,1Z" transform="translate(-1059.45 -359.86)"/><path class="cls-4" d="M1168.07,456.93c-1.44-1.27-1.83-2.51-1.11-4.58,1-3-.17-6.21.09-9.33.09-1.07-.91-2.61,1-3.13.9,5.29.37,10.62.45,15.94A3.18,3.18,0,0,1,1168.07,456.93Z" transform="translate(-1059.45 -359.86)"/><path class="cls-4" d="M1167.52,462.41c-1.73.28-2.29-1.46-3.53-2,.42-.73-1-3.38,1.75-1.7a.4.4,0,0,0,.58-.48c-.49-2,1-1.07,1.76-1.23Z" transform="translate(-1059.45 -359.86)"/><path class="cls-3" d="M1167.94,437.41l-3.17-.51c-.46-.07-1.16,0-1-.72s.77-.71,1.39-.43c.91.41,1.83.76,2.75,1.14Z" transform="translate(-1059.45 -359.86)"/><path class="cls-4" d="M1146.44,432.53c-2-1.27-3.15-3.27-4.54-5.08l1.11-.05,2,.5,2,1.51q0,1,0,2C1146.55,431.65,1146.5,432.09,1146.44,432.53Z" transform="translate(-1059.45 -359.86)"/><path class="cls-3" d="M1142.51,420.41c2.26,1.19,3,2.83,1.95,4.51-1.23,0-2.09-.22-1.63-1.89A7.11,7.11,0,0,0,1142.51,420.41Z" transform="translate(-1059.45 -359.86)"/><path class="cls-3" d="M1140,412.42c.9.87.34,2,.49,3C1139.31,414.57,1138.11,413.75,1140,412.42Z" transform="translate(-1059.45 -359.86)"/><path class="cls-5" d="M1138.5,419.41c.07-.44-.16-1,.43-1.24.09,0,.43.22.45.38.11.67-.39.78-.89.85Z" transform="translate(-1059.45 -359.86)"/><path class="cls-3" d="M1145,399.45l-.45.45Z" transform="translate(-1059.45 -359.86)"/><path class="cls-13" d="M1146.44,432.53c.06-.44.11-.88.56-1.13,1.54,0,1.92,2,3.47,2l.52.51c-1.79,1.31-.45,2.13.48,3a6.39,6.39,0,0,1,2.07,2c-1.62.19-2.67.36-.72,1.79s.28,3.5.07,5.28a63.42,63.42,0,0,0-5-11.46c0-.46,0-.89-.52-1.07l0,0c-.1-.43-.42-.56-.81-.6A.86.86,0,0,1,1146.44,432.53Z" transform="translate(-1059.45 -359.86)"/><path class="cls-13" d="M1156,429.91h-3c-.23-.64,1.14-1.62-.42-2-.48-.11-1.11-.18-.76-.89s.89-.66,1.51-.42A3.91,3.91,0,0,1,1156,429.91Z" transform="translate(-1059.45 -359.86)"/><path class="cls-4" d="M1164.52,456.79a2.57,2.57,0,0,1-.29-.61c-.1-.38.12-.67.49-.55a1.25,1.25,0,0,1,.6.66C1165.43,456.56,1165.2,456.71,1164.52,456.79Z" transform="translate(-1059.45 -359.86)"/><path class="cls-3" d="M1163.5,433.91a4.14,4.14,0,0,0,.5-2.5,5.27,5.27,0,0,1,.72.14c1,.33,1.56,1,1.22,2C1165.39,435.19,1164.31,433.73,1163.5,433.91Z" transform="translate(-1059.45 -359.86)"/><path class="cls-5" d="M1172.49,482.9l-.67,2.35a9.26,9.26,0,0,0-1.61-2.43c-1.15-1.43-2.22-2.93-1.32-5a3.17,3.17,0,0,0,.08-1.73c-.75-4.24,1.74-7.78,2.48-11.7.61,3-.2,5.91-.83,8.77a15,15,0,0,0,0,6c.29,1.58,1.44-.64,2.31-.25C1173.1,480.26,1171.39,481.41,1172.49,482.9Z" transform="translate(-1059.45 -359.86)"/><path class="cls-12" d="M1175,473.9c1.32,1.21.69,2.92-1.54,4.12C1173,476.31,1174.44,475.26,1175,473.9Z" transform="translate(-1059.45 -359.86)"/><path class="cls-5" d="M1173.47,478.29l-.49.62Z" transform="translate(-1059.45 -359.86)"/><path class="cls-3" d="M1177,463.43q0,.23,0,.46a3,3,0,0,1-.19-.34A1.18,1.18,0,0,1,1177,463.43Z" transform="translate(-1059.45 -359.86)"/><path class="cls-12" d="M1175,482.41h-2c.5-1.78.89-3.62,2.73-4.73C1176.64,479.53,1174.75,480.8,1175,482.41Z" transform="translate(-1059.45 -359.86)"/><path class="cls-5" d="M1151.48,436.91c-.93-.88-2.27-1.7-.48-3,.85,0,1.3.7,2,1l0,1h0C1152.27,435.9,1151.54,435.89,1151.48,436.91Z" transform="translate(-1059.45 -359.86)"/><path class="cls-5" d="M1153,435.91c.36.06.79.05.76.6a.23.23,0,0,1-.16.15c-.54,0-.54-.39-.6-.76Z" transform="translate(-1059.45 -359.86)"/><path class="cls-5" d="M1155.8,438c-.14.05-.31.18-.4.13s-.12-.25-.17-.39c.14-.05.31-.18.4-.13S1155.75,437.91,1155.8,438Z" transform="translate(-1059.45 -359.86)"/><path class="cls-4" d="M1147.42,433.46c.53.18.56.6.52,1.07A1.15,1.15,0,0,1,1147.42,433.46Z" transform="translate(-1059.45 -359.86)"/><path class="cls-4" d="M1146.64,432.89c.39,0,.71.16.81.6A.78.78,0,0,1,1146.64,432.89Z" transform="translate(-1059.45 -359.86)"/></svg>