<svg id="Ebene_1" data-name="Ebene 1" xmlns="http://www.w3.org/2000/svg" viewBox="0 0 1080.09 810.09"><defs><style>.cls-1{fill:#fefefe;}.cls-2{fill:#5b9ec1;}.cls-3{fill:#555656;}.cls-4{fill:#5b5e60;}.cls-5{fill:#454849;}.cls-6{fill:#525253;}.cls-7{fill:#686868;}.cls-8{fill:#5a5a5a;}.cls-9{fill:#3e4142;}.cls-10{fill:#6e6e6e;}.cls-11{fill:#d5d5d5;}.cls-12{fill:#0a0f11;}.cls-13{fill:#61f910;}.cls-14{fill:#68f91d;}.cls-15{fill:#5df809;}.cls-16{fill:#ececec;}</style></defs><title>plankton blue</title><path class="cls-1" d="M1151.5,847.91q-268.87,0-537.75,0c-1.87,0-2.3-.42-2.3-2.3q.07-402.75,0-805.5c0-1.87.42-2.3,2.3-2.3q537.75.07,1075.5,0c1.87,0,2.3.42,2.3,2.3q-.07,402.75,0,805.5c0,1.87-.42,2.3-2.3,2.3Q1420.38,847.88,1151.5,847.91ZM870,573.42c0-.35-.24-.47-.53-.53l0,0a1.12,1.12,0,0,0-1-.54l0,0a.78.78,0,0,0-1-.53l0,0c0-.38-.24-.46-.53-.51h0l-1-.54.06,0a1,1,0,0,0-1.05-.54l0,0c-.19-.49-.6-.55-1-.54l0,0a.93.93,0,0,0-1-.54l0,0c-.19-.49-.6-.55-1-.54l0,0c-.2-.47-.62-.52-1.05-.54l.06,0a1.15,1.15,0,0,0-1.07-.53l-.1-.08-.1.07a1.11,1.11,0,0,0-1.28-.51l0,0c-.23-.6-.77-.54-1.26-.57l0,.06a3.21,3.21,0,0,0-2.37-1l-.15,0c-.36-.57-.94-.55-1.5-.55l0,.06c-.27-.59-.79-.55-1.31-.53l.05,0c-.38-.58-1-.56-1.55-.54l.05,0c-.38-.57-1-.54-1.55-.54l.05,0a1.72,1.72,0,0,0-1.55-.51.26.26,0,0,0-.4,0,2,2,0,0,0-1.68-.52l-.17,0a29.82,29.82,0,0,0-8.22-2l-.55,0a6.1,6.1,0,0,0-1.13-.43c-9.14-1.6-18.3-2.78-27.62-2.17-3.79.25-7.63-.12-11.38.74l.32,0c-1.6,1-3.24-.09-4.87.08-5,.55-10.06,1.21-15,2.26-15.8,3.33-31,8.39-44.77,16.92A82.22,82.22,0,0,0,712.44,595c-9.2,10.78-12.6,26.3-5,38.84A37.15,37.15,0,0,0,718.91,646a3.33,3.33,0,0,0,2.09,1.5l0,0a1.84,1.84,0,0,0,1.55,1l0,0a2,2,0,0,0,1.55,1l-.05,0a4.92,4.92,0,0,0,2.56,1.54l-.06,0a1.14,1.14,0,0,0,1.06.55l-.05,0c.23.77,1.88.74,1.29,1.79-.49.87-1.54.2-2.27,0-2.16-.61-4.27-1.4-6.42-2-1.32-.39-2.52-1.28-4.17-1.28.71,1.32,1.87,1.43,2.82,1.87,8.07,3.82,17.27,3.32,25.49,6.62.7.88-.05,1.2-.64,1.42a39.26,39.26,0,0,1-4.72,1.54c-5.9,1.35-11.76,2.84-17.56,4.6-.53.16-1.43,0-1.33,1,.17.1.33.28.43.25,8.4-2.81,17.39-3.55,25.53-7.29a5.48,5.48,0,0,1,2.66-.38c.8,1.11-.24,1.66-.76,2.3-4.16,5.08-8.95,9.58-13.37,14.42a31.93,31.93,0,0,0-8.55,11.91c2.66-4.08,6-7.58,9.18-11.25.3-.28.62-.55.91-.84a184.94,184.94,0,0,0,13.72-14.77,1.81,1.81,0,0,1,2.13-.81c1.17.37.83,1.33.7,2.08a16.27,16.27,0,0,1-2.46,5.93c-1.74,2.72-3.44,5.47-5.16,8.2-3.31,4.2-5.71,9.05-9.32,13.06,4.48-3.2,7.07-7.89,9.93-12.37s6.63-8.54,7.88-13.85c.5-2.15,1.16-2.73,3.11-2.17.66.08,1.31.61,2,.07l0,0c0,.83.64.44,1,.47l1.2.15a3.63,3.63,0,0,0,2.31.37l1.2.13a4.83,4.83,0,0,0,2.8.37l1.66.15a11.1,11.1,0,0,0,4.34.37,3.47,3.47,0,0,0,2.2,0,1.32,1.32,0,0,1,.69,1.39c-.63,1.2-1.57,2.27-1.68,3.71v.17h.17l-.46.09c-3.13,4.52-5.49,9.58-10.18,13.64a3.64,3.64,0,0,0,3.21-1.62,55.87,55.87,0,0,0,4.88-6.61c.28-.41.61-.88,1.19-.57.42.22.39.7.33,1.1-.08.57-.24,1.14-.32,1.71-.49,3.36-1.39,6.7-.83,10.13.38,2.32,1.08,3.16,3.59,3.94-3.66-3.29-2.71-6.9-2.19-10.39.48-3.28,1.21-6.52,1.83-9.77l.09-1.43.2-.56c.94-.93.87-2.3,1.45-3.38.25-.47.29-1.26,1.12-1.06s.56.92.72,1.45a1.77,1.77,0,0,0,.1,1.49,42.8,42.8,0,0,1-.52,12c-1.14,4.61-2,9.27-2.68,13.95l1,.2,2.55-14.17a35.43,35.43,0,0,0,.53-12.48l.24-2.57c.73.12,1.07.73,1.5,1.22l.28.84c2.09,6.45,2.48,13.23,3.51,20.36.52-.63.71-.76.7-.88-.55-6.87-.89-13.77-3.57-20.26a.15.15,0,0,0-.13-.21l0-.94.19,0,.14-.14H785a109.82,109.82,0,0,0,18.16-1.07c2.38-.28,2.38.62,1.71,2.26a97.64,97.64,0,0,1-5.77,11.6c-.32.56-1.16,1.08-.45,2a3.32,3.32,0,0,0,1.4-1.65c1.07-1.88,2.07-3.8,3.13-5.68.22-.4.41-1,1.06-.81s.37.8.31,1.28c0,.32-.16.67.64,1,.83-2.38,1.79-4.71,2.45-7.13.77-2.86,2.38-4.42,5.42-4.32.72,0,1.6-.72,2.1,0s-.18,1.42-.5,2.07a160.77,160.77,0,0,1-9.8,17.94c-.35.53-1.25,1-.62,1.91,1.14-.42,1.59-1.46,2.15-2.33a123.4,123.4,0,0,0,9.75-18.24,3.93,3.93,0,0,1,3.14-2.66c4.11-.9,8.28-1.59,12.21-3.16,2.08-1,3.74-.43,5.22,1.22a14.75,14.75,0,0,1,3.75,7.41c.49,2.93.76,5.89,1.13,8.83v5.56l0,.93c.05.13.11.38.16.38.26,0,.48-.08.35-.43l.21-.87a17.31,17.31,0,0,0,0-6c-.26-6.18-.53-12.36-5.4-17.08-.51-.5-.59-1,.19-1.33,3.16-1.43,5.11-.62,6.32,2.64a15.58,15.58,0,0,1,.81,6.13c-.05,1.28-.2,2.55-.32,4,.36-.18.53-.21.61-.31a1.54,1.54,0,0,0,.34-.65c.5-3.74.71-7.44-1.07-11-.4-.79-1.7-1.67.17-2.52,1.62-.73,2,.19,2.54,1.33,1.3,3,1.31,6.14,1.5,9.28a5.22,5.22,0,0,0,0,2.49l-.9,9-4.7,22.53.92.19c1.85-7.35,3.44-14.76,4.62-22.26l.86-6a1.62,1.62,0,0,0,.09-1.46l0-2v-2.5l0-2a.86.86,0,0,0,0-1,15.11,15.11,0,0,0-1.44-6.71c-.86-1.64-.22-2.18,1.16-2.94,2.71-1.49,5.88-2.25,8-4.77l1.82-1.23c1.25-.66,2,.06,2.73.94a14.14,14.14,0,0,1,2.82,6.55c.69,4,.4,7.93.21,11.91,0,.63-.6,1.47.6,1.92.76-1.67.36-3.54.8-5.18,1.12,0,.3,1.59,1.67,1.35a13.14,13.14,0,0,0,.16-3.85l0-2.5c.06-.55.35-1.16-.35-1.54.37-4.09-1.24-7.59-3.23-11-.32-.55-1.12-1-.41-1.94,1.74-2.22,3.47-2.12,4.74.35.3.59.54,1.21.8,1.82,2.55,6,1.86,12.16.61,18.32l-7.37,23.59.86.27c2.5-7.78,5.64-15.35,7.34-23.39,1.94-7.37,2.3-14.68-1.59-21.55-1.06-1.86-1.07-2.74.74-3.85,1.54-.94,2.81-3,4.31-3.14s2.41,2.6,4,3.35c4.83,2.24,5.35,6.36,5.24,10.9a32.33,32.33,0,0,0,.24,4c0,.48-.26,1.22,1,1.43-.25-4-.42-7.81-.77-11.64a20.38,20.38,0,0,0-4.14-11.07c-1.73-2.17-.11-3.22,1.06-4.26,1.62-1.44,2,.66,2.72,1.37a12.45,12.45,0,0,1,2.63,5c.18.55,0,1.37,1.21,1.57a12.65,12.65,0,0,0-3.76-8.21c-1.17-1.16-1.39-2.07-.37-3.31,1-1.68,2.05-1.95,3.74-.71,2.56,1.86,5.38,3.37,7,6.34.18-2.44-1.54-3.62-3-5-1.63-1.48-4-2.06-5.19-4.05.63-.53,2.18-.38,1.21-2.06-.44-.78.39-1.12,1.17-.74,2.6,1.28,5.34,2.37,7.11,4.88.24.34.44,1.31.88.82,1.61-1.74,1.54.38,1.82.84a24.78,24.78,0,0,1,1.74,3.85c2.19,5.63,2.09,11.58,2.45,17.47.1,1.62-.07,3.29.78,5.21a4.82,4.82,0,0,0,.41-1.23c-.23-4.74-.29-9.5-.78-14.21a31,31,0,0,0-9.64-19.76c-1.2-1.15-2.42-2.32-4.2-2.52v-.8A1.43,1.43,0,0,0,889,611a.61.61,0,0,0,.11-.47,6.84,6.84,0,0,1,1.67-.35,37.33,37.33,0,0,1,13.76,2.8c.75.33,1.53.91,2.58.5-2.25-1.82-7.71-3.62-11.61-4.15-2-.27-4.12.19-6-.83l.07-.86c3.13-1,6.33-.32,9.49-.31a.76.76,0,0,0,1,.06l4,.44c1.77.38,3.36,1.46,5.29,1.3a8.47,8.47,0,0,0-5.31-2.15l-.84-.12a6.27,6.27,0,0,0-6.65-2.85l-2.76-.07h0L892,604l-2,.21a30.78,30.78,0,0,0-6.32-18.75c-2.33-3.06-5.3-5.56-8.1-8.2a.57.57,0,0,0-.66-.43l0,.06-.55-.55.05,0c-.23-.39-.51-.7-1-.54l0,0c.06-.42-.19-.53-.54-.53l0,0a1.54,1.54,0,0,0-1.53-1l0,0c0-.38-.24-.49-.55-.54l.06,0a1,1,0,0,0-1-.54Z" transform="translate(-611.45 -37.86)"/><path class="cls-2" d="M888.53,612.37q0,.4,0,.8c-2.5,1.83-3.16,4.44-3.12,7.35-2-.11-1.18,2.27-2.43,2.84-.88.6-1.54-.59-2.33-.42-.39.83.87,1.2.35,1.9-1.81,2.4-3.1,5.32-6.08,6.58a3.75,3.75,0,0,0-2.39,2.26c-.6.31-1.66.08-1.51,1.28h0a.47.47,0,0,0-.51.51h0a1.23,1.23,0,0,0-1.52,1l0,0c-.72,0-1.07.28-1,1v0l-.52.51h0c-.63-.07-1,.12-1,.84-2.52-.41-2.42,2.54-4.11,3.2a12.48,12.48,0,0,0-4.4,2.53c-.9.7-1.73,1.54-3,1.52-1.9,1.87-4.6,2.11-6.83,3.36-3.07,1.71-6.29,3.29-9.91,3.61-1.15.19-.43-1.59-1.57-1.47-.41.92-1.53,1.54-1.15,2.8L828,657l-4.1.9a2.37,2.37,0,0,0-2.29-.65,3.51,3.51,0,0,1-3.28.22l-.47-.58c0-.55.94-.93.26-1.74l-.51,1.74c-.49,2.22-1.67,3.31-4.13,3.64-8.68,1.15-17.3,2.69-26.11,2.47a3.31,3.31,0,0,0-2.4.41,7.37,7.37,0,0,1-4.75-1c-1.86-1.34,0-3.68-1.3-5.88-.79,2.46-.42,5-2.47,6.41h-6c-1-1-2.32-.36-3.48-.49l-1.51,0c-.69-.89-1.64-.41-2.49-.48l-1,0c-.71-.84-1.65-.42-2.51-.46h-1.05l0,0c-.48-.9-1.29-.49-2-.51-1.53-.78-4-.21-3.94-3.55-1,2.42-2.72,1.7-4,2.15-.94-2.27-2.94-.64-4.35-1.19l-16.73-7,.05,0c-.18-.52-.69-.39-1.06-.55l.06,0a3,3,0,0,0-2.55-1.53l.05,0a1.44,1.44,0,0,0-1.55-1l0,0a1.43,1.43,0,0,0-1.55-1l0,0c-.47-.82-.94-1.63-2.09-1.5a37.15,37.15,0,0,1-11.44-12.14c-7.63-12.54-4.23-28.07,5-38.84A82.22,82.22,0,0,1,732,578.23c13.81-8.54,29-13.59,44.77-16.92,5-1,10-1.71,15-2.26,1.63-.18,3.27.87,4.85-.07a4.24,4.24,0,0,1,1.17-.28c7.71.45,15.42.14,23.13.06a52,52,0,0,1,5.77.65c3.27.35,6.5,1,9.75,1.47l.55,0c2.64,1.1,5.47,1.38,8.22,2l.17,0c.38.74,1.1.4,1.67.52a.26.26,0,0,1,.4,0c.34.69,1.06.26,1.55.51l-.05,0c.32.75,1,.35,1.55.54l-.05,0c.32.76,1,.36,1.55.54l-.05,0c.26.62.83.47,1.31.53l0-.06a1.83,1.83,0,0,0,1.5.55l.15,0a2.94,2.94,0,0,0,2.37,1l0-.06,1.26.57,0,0c.24.64.81.45,1.28.51l.1-.07.1.08,1.07.53-.06,0c.18.51.67.42,1.05.54l0,0c.16.54.66.44,1,.54l0,0c.16.54.66.43,1,.54l0,0c.17.53.66.43,1,.54l0,0c.16.55.67.41,1.05.54l-.06,0c.18.48.68.38,1,.54h0l.53.51,0,0c.14.57.64.46,1,.53l0,0c.18.5.67.39,1,.54l0,0,.53.53,0,0c.15.56.67.41,1,.54l-.06,0,.55.54,0,0a1.34,1.34,0,0,0,1.53,1l0,0,.54.53,0,0c.13.59.65.43,1,.54l-.05,0,.55.55,0-.06a.58.58,0,0,0,.66.43c2.79,2.64,5.77,5.14,8.1,8.2a30.78,30.78,0,0,1,6.32,18.75c-1.5.9-2.22,1.93-.54,3.34l-.07.86c-.53.6-1.49,1.12-.4,2a.61.61,0,0,1-.11.47C888.35,611.28,888.65,611.89,888.53,612.37ZM742,621.46a3.66,3.66,0,0,0,.32.3c.2-.17.33-.38,0-.58-.18,0-.45-.2-.52-.13C741.55,621.25,741.79,621.36,742,621.46Zm20.57-3.52c1,0,2.11.12,2.32-1.22.16-1-1.13-2.15-1.21-2.1-1.62.92-1.55-.75-2.15-1.81-.39,2,.37,3.4.79,4.82l-1,1c.17.1.33.27.5.29C762.45,618.95,762.49,618.44,762.53,617.94Zm69.59-19.52c-.83,0-1.66,0-2.48,0-.64.05-1.15.39-1,1.12s.82.58,1.37.38c.29,1.16-1.1.8-1.33,1.47a1.91,1.91,0,0,0-.17.93c.11.49.45.19.75.14,2.08-.32,2.18.64,1.21,2.05-.5.73-.22,1.13.4,1.27a4.92,4.92,0,0,0,2.87-.15c2.55-.81,4.61,1.24,6.52,3,.92-1.86-.54-3.47-.66-5.2,0-.26-1.57-1.64-2.64-.29-.3.38-.65.92-1.14.32a1,1,0,0,1,.19-1.71,10,10,0,0,0,1.74-.93c.88-.86,1.88-2.22,1.33-3.16s-2.53-2-3.56-.91S833.25,597.93,832.12,598.42Zm-75.69,7c.69-.3,1.23-.65.42-1.38-.57-.53-1.37-.78-1.47-1.8a.91.91,0,0,0-1.36-.64c-.65.33-.58.95-.44,1.51.38,1.5,2,1.41,2.91,2.31-1.4,1.42-1.37,3.74-.08,4.2,1.57.56,1.74,1.35,2.2,2.5.31.79,1.35,1.47,1.77.21.49-1.46,1.4-1.41,2.5-1.39.84,0,1.54-.24,1.58-1.18s-.85-.87-1.54-1c-1.2-.29-2.3-.89-2.38-2.29-.09-1.56,1.41-1.62,2.35-2.16,1.32-.76,1.64.66,2.31,1.22.32.27.27.95.54,1.33.65.93,1.65.73,2.49.44.57-.19,1.27-.71,1.16-1.44-.13-.88-.71-1.05-1.7-1-1.21.08-2.48-2.2-1.75-2.82.42-.35,1.56-.16,1.14-1.09s-1.59-.74-2.25-.46c-3.17,1.35-3.36-1.09-4.09-3-.19-.49.22-.74.19-1.14s-.08-.75-.46-.74a2.2,2.2,0,0,0-1.11.4c-.25.17-.47.57-.05.79,1,.52,1,1.19.1,1.64a1.23,1.23,0,0,1-1.93-.81c-.17-.68-.56-.73-1.45-.48,1.74.4-.91,3.92,2.56,2.84,0,.14.14.3.11.42-.3,1.14.56,1.8,1,2.64.87,1.5-.53,2-1.31,2.69S756.91,606.74,756.43,605.4ZM740.75,607c.44,2.67,3.58.38,4.11,2.31.19-.11.55-.27.53-.32-.65-2.29,1.55-3.41,2.09-5.2.77-2.56.69-2.17-1.61-2.55s-2.17,0-1.58,1.9c.35,1.12-.64,2.33-1.59,3.17-.26.23-1,.31-1.08-.13-.27-1-.74-1.94.39-3.09,1.47-1.49.1-4.83-2.1-5.29.91,1.5-.46,3,.16,4.29,1,2.09.13,2.38-1.6,2.36-.42,0-.84,0-.94.57s.24,1.24.62,1.2c1.29-.11,1.39.25.91,1.33-.27.6-.15,1.51.65,1.63s.77-.66.81-1.27A4.76,4.76,0,0,1,740.75,607Zm123.58,7.93a2.59,2.59,0,0,0,2.56-2.63,3.16,3.16,0,0,0-3.15-3.15c-1.93-.17-2.51,1.47-2.58,2.93C861.09,613.94,862.49,614.69,864.34,614.91Zm-119,6c1.25,0,4.14,2.56,4,4s.49,1.23,1.08.7a3.12,3.12,0,0,0,1.05-3.14c-.45-1.56-2.46-2-2.85-3.74-1.68,1.86-3.26-.08-4.88-.16-1.05-.05-.74.66-.79,1.14s-.42,1.23.62,1.21C744.2,620.89,744.79,620.9,745.37,620.9Zm80.48-12c1.18,2.21,3.39.76,4.35,2,1.81,2.36,2.76.06,3.92-.65.7-.43.41-1.36.22-2.06-.11-.4-.59-.81-.93-.63a1.85,1.85,0,0,0-.87,1.64c0,1.55-.5,1.17-1.62.69A25,25,0,0,0,825.85,608.91Zm-54.58,2.22c-1.56,1.52-2.87,3.18-4.4,4.66a1.65,1.65,0,0,0-.23,1.86,1,1,0,0,0,1.16.72c1-.16.21-.73.2-1.08,0-1,.2-2.09,1.38-1.8C771,615.9,771,615,771,614S771.18,612.08,771.27,611.13Zm-22.55,3.47c.94.78-.56,1.86.28,2.41,1.12.73,2.16,1.27,2.22,2.86,0,.61.94.49,1.51.5a1.75,1.75,0,0,0,1.52-1.1c.07-.12-.25-.66-.46-.71C751.58,618,751,615.46,748.72,614.61Zm8.59.36c-.24.95-2.18-.14-2,1.35a2.12,2.12,0,0,0,2.38,2c.94-.11,1.86-.65,1.61-1.74C759.12,615.83,758.79,614.77,757.32,615ZM756,612.3c-.07-2.06-1.83-2.34-2.75-3.3a.76.76,0,0,0-1.19.73c.07,1.43-.55,3,.81,4.42C753.12,612.29,753.33,610.25,756,612.3ZM836.82,634c.4.9,1.09,2.1,1.84,1.76,2-.91,2.55,1,3.75,1.67.16-2,.67-4.17-2.67-3A4.14,4.14,0,0,1,836.82,634Zm-51.17,2.69c1.69.59,3.33-1,4.77.43.07.07,1.14-.23,1-1.05s-.67-1.47-1.2-1.34C788.72,635.15,786.79,634.8,785.65,636.73Zm55.62-7.55c-.33-.71-.43-1.69-1.17-1-1.17,1.08-2.48.78-3.73.64-.71-.08-1.11.18-.76.61a2.92,2.92,0,0,0,2.62,1.46C839.48,630.7,839.79,629,841.27,629.18ZM799,610.4c1.26-.06,1.41-1.23,1.87-2,.25-.41-.41-1-.84-.88-1.14.45-3,0-3.22,1.65C796.64,610.12,798.3,609.76,799,610.4Zm-4-8.85c.12-1.27-.84-1.28-1.41-1.61-.35-.2-.82-.66-1.26,0s-.48,1.28.08,1.52c1.61.71,1.09,1.69.55,2.76-.15.29-.29.62.23.67.33,0,.77,0,.77-.38A3.46,3.46,0,0,1,795,601.55ZM763.2,624.62c1,1.27,2,.45,3,.13s.78-1.14.76-1.89a.84.84,0,0,0-.86-.94c-.89-.1-1.08.42-1.22,1.14S763.68,623.79,763.2,624.62Zm-3.87-4.68c-1,.8-1.25,1.9-1.73,2.82-.23.43-.38,1.2.28,1.51s.81-.4,1.19-.67C760.51,622.57,760.45,621.42,759.34,619.94Zm65.13,13.23c-1.33-.6-.76-1.86-1.22-2.71-1.44.37-2.87.67-3.58,2.45C821.29,632.46,822.83,632.09,824.47,633.17ZM802,601.56c-.89-.21-1.5.59-2.24.28-1.23-.53-.62.76-1,1.1s-.13.89.27,1.23.93,0,1.31-.23A4.42,4.42,0,0,0,802,601.56Zm-80.9,8.26c1.67,1.39,1.85,2.59,1.25,3.86a.7.7,0,0,0,.23,1c.4.28.75.13,1.06-.22C724.54,613.48,723.31,610.41,721.11,609.82Zm123.12-6.64c-.28,1.14-2.6.46-2,1.89.38,1,2,1.07,3.4,1.29Zm-58-1.05c-1.17-1.17-2-1.57-2.57,0-.24.61-.5,1.2-1.26,1.35-.53.1-1,.34-.55,1s.74.64,1.22-.15A4.26,4.26,0,0,1,786.2,602.12Zm56.94-2,3-1c-1.56-.57-1.16-2.7-3.13-3A4.65,4.65,0,0,1,843.14,600.1Zm-60.55,34.79c-2.28.63-3,1.83-2.49,3.7.06.23.43.44.71.54.09,0,.49-.4.46-.44C780.27,637.08,782.21,636.45,782.58,634.89Zm-9.18-13.68a1.54,1.54,0,0,0-.91-1.52c-.82-.51-1.3-2.44-2.37-1.4-.75.73.92,1.39,1.57,2C772.11,620.72,772.38,621.5,773.4,621.21Zm70-11.28c-1.27.17-2,.19-2.66-.33s-.7.65-1.22.85-.1.72,0,1c.35.72.88.35,1.13,0C841.25,610.63,842.31,611.2,843.41,609.93Zm-50.5,23.38c3.11-.12,3.56-.53,3.29-2.7Zm29-15.92c.47.43.72.5,1.07.28.78-.49,2-.26,2.4-1.35.06-.16-.28-.6-.53-.74-1.42-.79-1.33,1.1-2.22,1.3C822.41,616.95,822.24,617.15,821.9,617.4ZM781.25,627c-.92-.12-.82.86-1.32,1.22a1,1,0,0,0-.21,1.53c.17.24.54.53.76.48.8-.16.4-.91.56-1.4S781.69,627.89,781.25,627Zm34.16,5.68c-.13-.45-.38-.84-.84-.75a1.69,1.69,0,0,0-1.44,1.44.79.79,0,0,0,.93.87A1.91,1.91,0,0,0,815.41,632.73Zm14.3-38.06c-1.3.3-2.78-.1-3.91.86-.06,0,.12.57.24.59C827.5,596.35,828.51,595.31,829.71,594.67ZM773.55,606.4c-.41.19-1.31-.41-1.13.64.08.45-.15,1.45.76,1.21.64-.16,1.64-.37,1.69-1.24S774,606.55,773.55,606.4ZM726.7,616.53c1.29.85,1.54,2.17,2.87,1.38.37-.22.88-.56.68-.86C729.51,615.93,728.38,616.5,726.7,616.53Zm87.67,5.89c-1-.54-2-.82-3-.11-.47.35-.09.91.12,1C812.74,624.09,813.23,622.25,814.38,622.42ZM790.9,606.73c-.67,1.4-.08,2.67-.8,3.68-.06.09.3.54.53.74.07.06.38-.18.58-.28C790.45,609.64,792.15,608.29,790.9,606.73Z" transform="translate(-611.45 -37.86)"/><path class="cls-3" d="M872.53,633.67a3.75,3.75,0,0,1,2.39-2.26c3-1.26,4.27-4.18,6.08-6.58.52-.69-.74-1.07-.35-1.9.79-.17,1.45,1,2.33.42l.05.65c-1,1.23-.8,2.15.37,3.31a12.65,12.65,0,0,1,3.76,8.21c-1.2-.2-1-1-1.21-1.57a12.45,12.45,0,0,0-2.63-5c-.69-.71-1.1-2.81-2.72-1.37-1.17,1-2.79,2.09-1.06,4.26a20.38,20.38,0,0,1,4.14,11.07c.35,3.83.51,7.68.77,11.64-1.31-.22-1-1-1-1.43a32.33,32.33,0,0,1-.24-4c.11-4.54-.41-8.66-5.24-10.9-1.61-.75-2.45-3.47-4-3.35s-2.77,2.2-4.31,3.14c-1.81,1.11-1.8,2-.74,3.85,3.89,6.87,3.53,14.18,1.59,21.55l-.84-.46c1.25-6.15,1.95-12.29-.61-18.32-.26-.61-.5-1.23-.8-1.82-1.27-2.47-3-2.57-4.74-.35-.7.9.09,1.4.41,1.94,2,3.4,3.6,6.9,3.23,11l-.6,0-.5-2.77,0-.77-.46-1.23c-.16-2-1.46-3.43-2.49-5l-.53-1.22v-1l0-1.46c1.69-.66,1.58-3.61,4.11-3.2.46-.12,1.06-.08,1-.84h0c.41.07.71,0,.52-.51v0c.76.09,1.4.05,1-1l0,0c1.07.49,1.38-.13,1.52-1h0c.5.16.71,0,.51-.51h0C872.08,635.17,872.49,634.64,872.53,633.67ZM882,640a19.16,19.16,0,0,0-3.48-8c-.44-.64-.94-1.4-1.65-.42-.58.8-2.5,1.17-1.37,2.63A22.33,22.33,0,0,0,882,640Z" transform="translate(-611.45 -37.86)"/><path class="cls-4" d="M785,663.37a3.31,3.31,0,0,1,2.4-.41c8.8.22,17.43-1.32,26.11-2.47,2.46-.33,3.64-1.42,4.13-3.64h.25l.47.58c-1-.1-1,.59-1,1.27.11.93.8.61,1.31.49,1.75-.42,3.48-.88,5.22-1.33l4.1-.9c1.17,1.27,2.29-.52,3.45-.05-3.93,1.57-8.1,2.26-12.21,3.16a3.93,3.93,0,0,0-3.14,2.66A123.4,123.4,0,0,1,806.38,681c-.56.87-1,1.91-2.15,2.33-.62-1,.28-1.39.62-1.91a160.77,160.77,0,0,0,9.8-17.94c.32-.65.93-1.46.5-2.07s-1.38,0-2.1,0c-3-.1-4.65,1.46-5.42,4.32-.65,2.42-1.62,4.75-2.45,7.13-.8-.33-.68-.69-.64-1,.06-.47.33-1.05-.31-1.28s-.83.41-1.06.81c-1.06,1.89-2.06,3.8-3.13,5.68a3.32,3.32,0,0,1-1.4,1.65c-.71-1,.13-1.49.45-2a97.64,97.64,0,0,0,5.77-11.6c.68-1.64.67-2.54-1.71-2.26A109.82,109.82,0,0,1,785,663.84,4.49,4.49,0,0,1,785,663.37Z" transform="translate(-611.45 -37.86)"/><path class="cls-5" d="M831.48,656.9c-1.16-.46-2.28,1.32-3.45.05l7.59-2.64c1-.24,2.17-.16,2.72-1.33,3.62-.32,6.84-1.9,9.91-3.61,2.23-1.24,4.93-1.49,6.83-3.36.05,1.06.91.84,1.55,1-2.1,2.52-5.27,3.27-8,4.77-1.38.76-2,1.3-1.16,2.94a15.11,15.11,0,0,1,1.44,6.71c-.44.34-.4.67,0,1l0,2h-.95c-.19-3.14-.19-6.31-1.5-9.28-.5-1.14-.92-2.06-2.54-1.33-1.87.84-.57,1.72-.17,2.52,1.78,3.53,1.57,7.23,1.07,11a1.54,1.54,0,0,1-.34.65c-.08.1-.25.13-.61.31.12-1.4.27-2.68.32-4a15.58,15.58,0,0,0-.81-6.13c-1.21-3.26-3.16-4.07-6.32-2.64-.78.35-.7.83-.19,1.33,4.87,4.73,5.14,10.9,5.4,17.08l-.8.44c-.37-2.95-.64-5.91-1.13-8.83a14.75,14.75,0,0,0-3.75-7.41C835.22,656.47,833.56,655.86,831.48,656.9Z" transform="translate(-611.45 -37.86)"/><path class="cls-3" d="M885.41,620.51c0-2.91.62-5.52,3.12-7.35,1.78.19,3,1.37,4.2,2.51a31,31,0,0,1,9.64,19.76c.49,4.71.55,9.47.78,14.21a4.82,4.82,0,0,1-.41,1.23c-.85-1.92-.68-3.59-.78-5.21-.36-5.89-.26-11.84-2.45-17.47a24.78,24.78,0,0,0-1.74-3.85c-.28-.46-.21-2.58-1.82-.84-.45.49-.65-.49-.88-.82-1.77-2.51-4.51-3.6-7.11-4.88-.78-.38-1.62,0-1.17.74,1,1.69-.58,1.53-1.21,2.07Zm7.07-3.12a4.72,4.72,0,0,0-2.76-2.46c-.72-.2-1.16,1.1-1.11,1.3.36,1.37,1.83,1.41,2.85,2C892,618.49,892.39,618.11,892.48,617.4Z" transform="translate(-611.45 -37.86)"/><path class="cls-6" d="M748.54,659.56c1.29-.45,3.06.26,4-2.15-.07,3.33,2.41,2.77,3.94,3.55q0,.22,0,.44c-1.95-.57-2.61,0-3.11,2.17-1.25,5.32-5,9.35-7.88,13.85l-.61-.69c1.72-2.74,3.41-5.49,5.16-8.2a16.27,16.27,0,0,0,2.46-5.93c.13-.75.47-1.71-.7-2.08a1.81,1.81,0,0,0-2.13.81A184.94,184.94,0,0,1,736,676.1c-.29.29-.61.56-.91.84l-.63-.66c4.42-4.84,9.21-9.34,13.37-14.42.53-.64,1.56-1.19.76-2.3Z" transform="translate(-611.45 -37.86)"/><path class="cls-7" d="M775.45,670.38c-.62,3.26-1.34,6.5-1.83,9.77-.52,3.49-1.46,7.1,2.19,10.39-2.51-.78-3.21-1.62-3.59-3.94-.56-3.44.33-6.77.83-10.13.08-.57.24-1.14.32-1.71.06-.41.08-.88-.33-1.1-.59-.31-.91.16-1.19.57a55.87,55.87,0,0,1-4.88,6.61,3.64,3.64,0,0,1-3.21,1.62c4.69-4.07,7-9.13,10.18-13.64l.32.31.14-.41h-.17s0-.17,0-.16C775,668.9,774.84,669.91,775.45,670.38Z" transform="translate(-611.45 -37.86)"/><path class="cls-7" d="M863,645.65c1,1.56,2.33,3,2.49,5-1-.06-.69.62-.53,1.1s.58.7,1,.14l0,.77c-1.58.58-.45,1.7-.45,2.55,0,.63.49.74,1,.22l.6,0c.7.38.41,1,.35,1.54a1.78,1.78,0,0,0,0,2.5,13.14,13.14,0,0,1-.16,3.85c-1.37.24-.54-1.32-1.67-1.35-.44,1.64,0,3.51-.8,5.18-1.2-.45-.63-1.29-.6-1.92.19-4,.48-7.95-.21-11.91a14.14,14.14,0,0,0-2.82-6.55c-.71-.89-1.49-1.6-2.73-.94,1.2-.32,1.44-3,3.43-1.42C861.87,645.13,861.51,646.22,863,645.65Z" transform="translate(-611.45 -37.86)"/><path class="cls-8" d="M748.54,659.56h0a5.47,5.47,0,0,0-2.66.38c-8.13,3.74-17.12,4.48-25.53,7.29-.1,0-.26-.15-.43-.25-.09-1,.81-.88,1.33-1,5.79-1.75,11.66-3.24,17.56-4.6a39.26,39.26,0,0,0,4.72-1.54c.59-.22,1.34-.54.64-1.42h0C745.6,658.92,747.6,657.29,748.54,659.56Z" transform="translate(-611.45 -37.86)"/><path class="cls-6" d="M744.19,658.37h0c-8.21-3.3-17.41-2.8-25.49-6.62-.94-.45-2.11-.55-2.82-1.87,1.65,0,2.85.89,4.17,1.28,2.15.63,4.26,1.43,6.42,2,.72.2,1.78.88,2.27,0,.59-1-1.06-1-1.29-1.79Z" transform="translate(-611.45 -37.86)"/><path class="cls-7" d="M869.62,662.94l.84.46c-1.7,8-4.84,15.61-7.34,23.39l-.86-.27Z" transform="translate(-611.45 -37.86)"/><path class="cls-6" d="M836.47,560.87c-3.25-.5-6.49-1.12-9.75-1.47a52,52,0,0,0-5.77-.65c-7.71.07-15.42.39-23.13-.06a4.24,4.24,0,0,0-1.17.28l-.3,0c3.75-.87,7.59-.49,11.38-.74,9.32-.61,18.49.57,27.62,2.17A6.1,6.1,0,0,1,836.47,560.87Z" transform="translate(-611.45 -37.86)"/><path class="cls-7" d="M848,676.41c-1.18,7.5-2.77,14.91-4.62,22.26l-.92-.19,4.7-22.53Z" transform="translate(-611.45 -37.86)"/><path class="cls-7" d="M782.66,665.13c2.68,6.49,3,13.4,3.57,20.26,0,.11-.19.24-.7.88-1-7.14-1.42-13.92-3.51-20.36Z" transform="translate(-611.45 -37.86)"/><path class="cls-8" d="M889.07,610.49c-1.09-.92-.13-1.43.4-2,1.9,1,4,.55,6,.83,3.9.53,9.36,2.33,11.61,4.15-1,.42-1.83-.16-2.58-.5a37.33,37.33,0,0,0-13.76-2.8A6.84,6.84,0,0,0,889.07,610.49Z" transform="translate(-611.45 -37.86)"/><path class="cls-9" d="M775.45,670.38c-.6-.48-.41-1.49-1.23-1.83.11-1.45,1-2.52,1.68-3.72a1.47,1.47,0,0,0,.49-1.47,4.24,4.24,0,0,1,.08-.44c2.05-1.42,1.68-3.95,2.47-6.41,1.27,2.2-.56,4.54,1.3,5.88a7.37,7.37,0,0,0,4.75,1,4.46,4.46,0,0,0,0,.47h-2.18a.31.31,0,0,0-.32.12l0,.94-.79.15c-.44-.49-.77-1.1-1.5-1.22-1.11,0-.43,1.33-1.21,1.55-.17-.52,0-1.27-.72-1.45s-.87.59-1.12,1.06c-.58,1.09-.51,2.45-1.45,3.38a.37.37,0,0,0-.21.56Z" transform="translate(-611.45 -37.86)"/><path class="cls-7" d="M744.89,676.72l.61.69c-2.86,4.48-5.45,9.17-9.93,12.37C739.18,685.77,741.58,680.92,744.89,676.72Z" transform="translate(-611.45 -37.86)"/><path class="cls-7" d="M734.42,676.27l.63.66c-3.15,3.67-6.51,7.17-9.18,11.25A31.93,31.93,0,0,1,734.42,676.27Z" transform="translate(-611.45 -37.86)"/><path class="cls-4" d="M885.41,620.51l.16.1c1.22,2,3.56,2.57,5.19,4,1.48,1.34,3.2,2.52,3,5-1.61-3-4.43-4.47-7-6.34-1.69-1.23-2.77-1-3.74.71l-.05-.65C884.24,622.78,883.37,620.4,885.41,620.51Z" transform="translate(-611.45 -37.86)"/><path class="cls-10" d="M779.46,678.9l-2.55,14.17-1-.2c.71-4.68,1.55-9.34,2.68-13.95Z" transform="translate(-611.45 -37.86)"/><path class="cls-9" d="M889.53,607.59c-1.68-1.41-1-2.44.54-3.34l2-.21.45.82c-.67.28-2-.23-1.82,1,.13.82,1.27.29,2,.31,3,.09,5.92.16,8.88.24.43.63,1,.58,1.67.42l.84.12v.86l-4-.44c-.29-.42-.61-.51-1-.06C895.86,607.27,892.67,606.57,889.53,607.59Z" transform="translate(-611.45 -37.86)"/><path class="cls-11" d="M901.49,606.38c-3-.08-5.92-.15-8.88-.24-.69,0-1.83.51-2-.31-.19-1.21,1.16-.7,1.82-1,.59-.11,1.72.49,1.27-1h0c.43,1.75,1.8.61,2.71.88C898.19,605.12,900.22,604.58,901.49,606.38Z" transform="translate(-611.45 -37.86)"/><path class="cls-12" d="M861.88,644.35c-2-1.57-2.22,1.1-3.43,1.42L856.63,647c-.64-.13-1.49.08-1.55-1,1.27,0,2.1-.82,3-1.52a12.48,12.48,0,0,1,4.4-2.53l0,1.46c-.53.06-.77.32-.58.86Z" transform="translate(-611.45 -37.86)"/><path class="cls-9" d="M779.46,678.9l-.86,0a42.8,42.8,0,0,0,.52-12l.87-.48A35.43,35.43,0,0,1,779.46,678.9Z" transform="translate(-611.45 -37.86)"/><path class="cls-7" d="M904,607.78v-.86a8.47,8.47,0,0,1,5.31,2.15C907.37,609.25,905.78,608.16,904,607.78Z" transform="translate(-611.45 -37.86)"/><path class="cls-7" d="M901.49,606.38c-1.27-1.81-3.3-1.26-5-1.63l.05-.8a6.28,6.28,0,0,1,6.65,2.85C902.53,607,901.92,607,901.49,606.38Z" transform="translate(-611.45 -37.86)"/><path class="cls-5" d="M848,676.41l-.85-.46.9-9h1l0,2a.9.9,0,0,0-.09,1.46Z" transform="translate(-611.45 -37.86)"/><path class="cls-10" d="M841.57,674.37l.8-.44a17.31,17.31,0,0,1,0,6l-.77,0Z" transform="translate(-611.45 -37.86)"/><path class="cls-6" d="M845.24,562.88c-2.76-.58-5.59-.87-8.22-2A29.82,29.82,0,0,1,845.24,562.88Z" transform="translate(-611.45 -37.86)"/><path class="cls-7" d="M849,666.91h-1a5.22,5.22,0,0,1,0-2.49H849v1c-.42.17-.43.34,0,.51Z" transform="translate(-611.45 -37.86)"/><path class="cls-10" d="M780,666.41l-.87.48a1.77,1.77,0,0,1-.1-1.49c.78-.22.1-1.59,1.21-1.55Z" transform="translate(-611.45 -37.86)"/><path class="cls-6" d="M770.49,662.92H773q0,.25,0,.5a11.09,11.09,0,0,1-4.34-.37Z" transform="translate(-611.45 -37.86)"/><path class="cls-6" d="M724,649.41a3,3,0,0,1,2.55,1.53A4.92,4.92,0,0,1,724,649.41Z" transform="translate(-611.45 -37.86)"/><path class="cls-9" d="M896.51,604l-.05.8c-.91-.26-2.28.87-2.71-.88Z" transform="translate(-611.45 -37.86)"/><path class="cls-6" d="M765.5,662.41l1.51,0a4.68,4.68,0,0,1,0,.48,4.83,4.83,0,0,1-2.8-.37Z" transform="translate(-611.45 -37.86)"/><path class="cls-6" d="M718.91,646c1.15-.14,1.62.68,2.09,1.5A3.33,3.33,0,0,1,718.91,646Z" transform="translate(-611.45 -37.86)"/><path class="cls-7" d="M893.74,603.88c.45,1.47-.68.86-1.27,1L892,604Z" transform="translate(-611.45 -37.86)"/><path class="cls-4" d="M767,662.91a4.68,4.68,0,0,0,0-.48c1.17.13,2.44-.49,3.48.49l-1.83.14Z" transform="translate(-611.45 -37.86)"/><path class="cls-4" d="M773,663.43q0-.25,0-.5h3.46a3.91,3.91,0,0,0-.08.44l-1.19.07A3.47,3.47,0,0,1,773,663.43Z" transform="translate(-611.45 -37.86)"/><path class="cls-5" d="M841.56,679.93l.77,0-.21.87-.51,0Z" transform="translate(-611.45 -37.86)"/><path class="cls-6" d="M762,661.9l1,0a4.75,4.75,0,0,1,0,.48,3.63,3.63,0,0,1-2.31-.37Z" transform="translate(-611.45 -37.86)"/><path class="cls-6" d="M857.29,566.89a2.94,2.94,0,0,1-2.37-1A3.21,3.21,0,0,1,857.29,566.89Z" transform="translate(-611.45 -37.86)"/><path class="cls-7" d="M848.87,670.38a.9.9,0,0,1,.09-1.46A1.62,1.62,0,0,1,848.87,670.38Z" transform="translate(-611.45 -37.86)"/><path class="cls-4" d="M762,661.9l-1.32.15-1.2-.15a4.55,4.55,0,0,0,0-.46C760.36,661.49,761.3,661.06,762,661.9Z" transform="translate(-611.45 -37.86)"/><path class="cls-6" d="M873,575.4a1.34,1.34,0,0,1-1.53-1A1.54,1.54,0,0,1,873,575.4Z" transform="translate(-611.45 -37.86)"/><path class="cls-4" d="M763,662.41a4.75,4.75,0,0,0,0-.48c.85.08,1.8-.41,2.49.48l-1.29.13Z" transform="translate(-611.45 -37.86)"/><path class="cls-3" d="M867.45,659.42a1.78,1.78,0,0,1,0-2.5Z" transform="translate(-611.45 -37.86)"/><path class="cls-6" d="M721,647.42a1.43,1.43,0,0,1,1.55,1A1.84,1.84,0,0,1,721,647.42Z" transform="translate(-611.45 -37.86)"/><path class="cls-6" d="M722.46,648.42a1.44,1.44,0,0,1,1.55,1A2,2,0,0,1,722.46,648.42Z" transform="translate(-611.45 -37.86)"/><path class="cls-6" d="M775.21,663.44l1.19-.07a1.48,1.48,0,0,1-.5,1.47A1.32,1.32,0,0,0,775.21,663.44Z" transform="translate(-611.45 -37.86)"/><path class="cls-6" d="M759.5,661.44a4.55,4.55,0,0,1,0,.46c-.4,0-1,.36-1-.47Z" transform="translate(-611.45 -37.86)"/><path class="cls-7" d="M899,607.28c.35-.45.66-.36,1,.06A.76.76,0,0,1,899,607.28Z" transform="translate(-611.45 -37.86)"/><path class="cls-7" d="M849,662.4c-.44-.31-.48-.63,0-1A.86.86,0,0,1,849,662.4Z" transform="translate(-611.45 -37.86)"/><path class="cls-4" d="M756.5,661.39q0-.22,0-.44c.7,0,1.52-.38,2,.51C757.81,662,757.16,661.47,756.5,661.39Z" transform="translate(-611.45 -37.86)"/><path class="cls-6" d="M850.54,564.41c-.51-.19-1.24.21-1.55-.54C849.56,563.87,850.16,563.84,850.54,564.41Z" transform="translate(-611.45 -37.86)"/><path class="cls-6" d="M849,563.91c-.49-.25-1.2.18-1.55-.51A1.72,1.72,0,0,1,849,563.91Z" transform="translate(-611.45 -37.86)"/><path class="cls-6" d="M847.09,563.37c-.58-.12-1.29.22-1.67-.52A2,2,0,0,1,847.09,563.37Z" transform="translate(-611.45 -37.86)"/><path class="cls-8" d="M888.53,612.37c.12-.48-.18-1.08.43-1.41A1.43,1.43,0,0,1,888.53,612.37Z" transform="translate(-611.45 -37.86)"/><path class="cls-6" d="M852,564.91c-.52-.18-1.24.22-1.55-.54C851.07,564.35,851.66,564.33,852,564.91Z" transform="translate(-611.45 -37.86)"/><path class="cls-6" d="M861,568.41l-1.07-.53A1.15,1.15,0,0,1,861,568.41Z" transform="translate(-611.45 -37.86)"/><path class="cls-6" d="M863,569.41c-.39-.1-.89,0-1-.54C862.44,568.85,862.85,568.92,863,569.41Z" transform="translate(-611.45 -37.86)"/><path class="cls-6" d="M867,571.41c-.35-.16-.85-.05-1-.54Z" transform="translate(-611.45 -37.86)"/><path class="cls-6" d="M875.66,577.3a.58.58,0,0,1-.66-.43A.57.57,0,0,1,875.66,577.3Z" transform="translate(-611.45 -37.86)"/><path class="cls-6" d="M859.77,567.88c-.47-.06-1,.13-1.28-.51A1.11,1.11,0,0,1,859.77,567.88Z" transform="translate(-611.45 -37.86)"/><path class="cls-6" d="M874.54,576.41c-.38-.11-.9,0-1-.54C874,575.7,874.3,576,874.54,576.41Z" transform="translate(-611.45 -37.86)"/><path class="cls-4" d="M781.74,665.06l.79-.15a.15.15,0,0,1,.13.21l-.65.78Z" transform="translate(-611.45 -37.86)"/><path class="cls-6" d="M869.52,572.91c-.36-.15-.85,0-1-.54A1.12,1.12,0,0,1,869.52,572.91Z" transform="translate(-611.45 -37.86)"/><path class="cls-6" d="M854.77,565.88a1.83,1.83,0,0,1-1.5-.55C853.84,565.34,854.41,565.32,854.77,565.88Z" transform="translate(-611.45 -37.86)"/><path class="cls-6" d="M853.29,565.39c-.48-.06-1,.09-1.31-.53C852.5,564.84,853,564.8,853.29,565.39Z" transform="translate(-611.45 -37.86)"/><path class="cls-6" d="M858.53,567.4l-1.26-.57C857.76,566.87,858.3,566.8,858.53,567.4Z" transform="translate(-611.45 -37.86)"/><path class="cls-6" d="M726.46,650.91c.37.15.88,0,1.06.55A1.14,1.14,0,0,1,726.46,650.91Z" transform="translate(-611.45 -37.86)"/><path class="cls-6" d="M868.54,572.4c-.4-.07-.9,0-1-.53A.78.78,0,0,1,868.54,572.4Z" transform="translate(-611.45 -37.86)"/><path class="cls-6" d="M866,570.91c-.38-.13-.89,0-1.05-.54A1,1,0,0,1,866,570.91Z" transform="translate(-611.45 -37.86)"/><path class="cls-6" d="M865,570.41c-.39-.1-.88,0-1-.54C864.44,569.86,864.85,569.92,865,570.41Z" transform="translate(-611.45 -37.86)"/><path class="cls-6" d="M864,569.91c-.39-.11-.89,0-1-.54A.93.93,0,0,1,864,569.91Z" transform="translate(-611.45 -37.86)"/><path class="cls-6" d="M871,573.91c-.37-.13-.9,0-1-.54A1,1,0,0,1,871,573.91Z" transform="translate(-611.45 -37.86)"/><path class="cls-6" d="M862,568.91c-.38-.12-.87,0-1.05-.54C861.42,568.39,861.83,568.44,862,568.91Z" transform="translate(-611.45 -37.86)"/><path class="cls-10" d="M841.61,680.86l.51,0c.13.34-.09.43-.35.43C841.71,681.24,841.66,681,841.61,680.86Z" transform="translate(-611.45 -37.86)"/><path class="cls-6" d="M870,573.42l-.53-.53C869.79,573,870,573.07,870,573.42Z" transform="translate(-611.45 -37.86)"/><path class="cls-7" d="M775.53,669a.37.37,0,0,1,.21-.56Z" transform="translate(-611.45 -37.86)"/><path class="cls-9" d="M774.39,668.72l-.14.41-.32-.31Z" transform="translate(-611.45 -37.86)"/><path class="cls-6" d="M873.54,575.9l-.54-.53C873.35,575.38,873.6,575.48,873.54,575.9Z" transform="translate(-611.45 -37.86)"/><path class="cls-6" d="M871.54,574.41l-.55-.54C871.29,573.93,871.55,574,871.54,574.41Z" transform="translate(-611.45 -37.86)"/><path class="cls-4" d="M782.51,664a.31.31,0,0,1,.32-.12l-.14.14Z" transform="translate(-611.45 -37.86)"/><path class="cls-6" d="M867.54,571.91l-.53-.51C867.29,571.45,867.56,571.53,867.54,571.91Z" transform="translate(-611.45 -37.86)"/><path class="cls-6" d="M875,576.92l-.55-.55Z" transform="translate(-611.45 -37.86)"/><path class="cls-5" d="M849,665.92c-.43-.17-.43-.34,0-.51Z" transform="translate(-611.45 -37.86)"/><path class="cls-13" d="M756.43,605.4c.48,1.34,1.19,1.11,2,.32s2.17-1.2,1.31-2.69c-.48-.83-1.34-1.49-1-2.64,0-.12-.07-.28-.11-.42-3.47,1.08-.82-2.44-2.56-2.84.9-.25,1.29-.2,1.45.48a1.23,1.23,0,0,0,1.93.81c.85-.44.89-1.12-.1-1.64-.42-.22-.19-.62.05-.79a2.2,2.2,0,0,1,1.11-.4c.38,0,.43.39.46.74s-.38.64-.19,1.14c.73,1.89.92,4.33,4.09,3,.66-.28,1.85-.44,2.25.46s-.72.74-1.14,1.09c-.74.62.53,2.9,1.75,2.82,1-.07,1.57.1,1.7,1,.11.73-.59,1.25-1.16,1.44-.84.28-1.84.49-2.49-.44-.27-.39-.22-1.06-.54-1.33-.67-.55-1-2-2.31-1.22-.94.54-2.44.59-2.35,2.16.08,1.4,1.18,2,2.38,2.29.69.17,1.58,0,1.54,1s-.74,1.2-1.58,1.18c-1.1,0-2-.07-2.5,1.39-.42,1.26-1.46.58-1.77-.21-.46-1.15-.63-1.94-2.2-2.5-1.3-.46-1.33-2.78.08-4.2Z" transform="translate(-611.45 -37.86)"/><path class="cls-14" d="M832.12,598.42c1.13-.49,2.35-.46,3.41-1.57s2.94-.15,3.56.91-.45,2.3-1.33,3.16a10,10,0,0,1-1.74.93,1,1,0,0,0-.19,1.71c.49.6.84.06,1.14-.32,1.07-1.35,2.63,0,2.64.29.12,1.73,1.58,3.34.66,5.2-1.91-1.8-4-3.85-6.52-3a4.92,4.92,0,0,1-2.87.15c-.61-.14-.89-.54-.4-1.27,1-1.41.87-2.37-1.21-2.05-.3,0-.65.34-.75-.14a1.91,1.91,0,0,1,.17-.93c.23-.67,1.62-.32,1.33-1.47C830.43,599.05,831.95,599.64,832.12,598.42Zm1.43,4.59a1.83,1.83,0,0,0,.89-1.37c0-.7-.59-.63-1-.71-.62-.1-1,.17-.78.8S832.86,602.86,833.55,603Z" transform="translate(-611.45 -37.86)"/><path class="cls-13" d="M740.75,607a4.76,4.76,0,0,0-.23.91c0,.6-.16,1.36-.81,1.27s-.91-1-.65-1.63c.48-1.09.38-1.45-.91-1.33-.38,0-.72-.62-.62-1.2s.52-.58.94-.57c1.73,0,2.64-.26,1.6-2.36-.61-1.24.75-2.79-.16-4.29,2.2.46,3.57,3.8,2.1,5.29-1.13,1.15-.66,2.06-.39,3.09.11.43.82.35,1.08.13,1-.83,1.95-2,1.59-3.17-.59-1.87-.77-2.29,1.58-1.9s2.39,0,1.61,2.55c-.54,1.79-2.75,2.91-2.09,5.2,0,.05-.35.21-.53.32C744.33,607.36,741.19,609.66,740.75,607Z" transform="translate(-611.45 -37.86)"/><path class="cls-12" d="M864.34,614.91c-1.85-.22-3.25-1-3.16-2.85.07-1.46.64-3.1,2.58-2.93a3.16,3.16,0,0,1,3.15,3.15A2.59,2.59,0,0,1,864.34,614.91Z" transform="translate(-611.45 -37.86)"/><path class="cls-13" d="M745.37,620.9c-.58,0-1.17,0-1.75,0-1,0-.66-.72-.62-1.21s-.27-1.19.79-1.14c1.62.08,3.2,2,4.88.16.38,1.69,2.4,2.19,2.85,3.74a3.12,3.12,0,0,1-1.05,3.14c-.59.53-1.21.74-1.08-.7S746.62,620.9,745.37,620.9Z" transform="translate(-611.45 -37.86)"/><path class="cls-13" d="M825.85,608.91a25,25,0,0,1,5.07,1c1.12.48,1.58.85,1.62-.69a1.85,1.85,0,0,1,.87-1.64c.34-.17.82.23.93.63.18.7.48,1.63-.22,2.06-1.16.71-2.11,3-3.92.65C829.24,609.68,827,611.13,825.85,608.91Z" transform="translate(-611.45 -37.86)"/><path class="cls-15" d="M771.27,611.13c-.1.95-.24,1.9-.28,2.85s0,1.92-1.61,1.52c-1.18-.29-1.4.77-1.38,1.8,0,.34.78.92-.2,1.08a1,1,0,0,1-1.16-.72,1.65,1.65,0,0,1,.23-1.86C768.41,614.32,769.71,612.65,771.27,611.13Z" transform="translate(-611.45 -37.86)"/><path class="cls-13" d="M748.72,614.61c2.28.85,2.86,3.35,5.07,4,.22.06.53.6.46.71a1.75,1.75,0,0,1-1.52,1.1c-.57,0-1.48.11-1.51-.5-.06-1.59-1.11-2.13-2.22-2.86C748.16,616.47,749.66,615.39,748.72,614.61Z" transform="translate(-611.45 -37.86)"/><path class="cls-15" d="M757.32,615c1.47-.2,1.81.86,2,1.65.25,1.09-.67,1.63-1.61,1.74a2.12,2.12,0,0,1-2.38-2C755.14,614.83,757.07,615.92,757.32,615Z" transform="translate(-611.45 -37.86)"/><path class="cls-15" d="M756,612.3c-2.66-2.05-2.86,0-3.13,1.86-1.36-1.44-.74-3-.81-4.42a.76.76,0,0,1,1.19-.73C754.16,610,755.91,610.24,756,612.3Z" transform="translate(-611.45 -37.86)"/><path class="cls-13" d="M836.82,634a4.14,4.14,0,0,0,2.92.39c3.34-1.13,2.83,1,2.67,3-1.2-.69-1.74-2.59-3.75-1.67C837.92,636.13,837.22,634.93,836.82,634Z" transform="translate(-611.45 -37.86)"/><path class="cls-13" d="M762.27,617.62c-.41-1.41-1.17-2.77-.78-4.82.6,1.06.53,2.73,2.15,1.81.08,0,1.37,1.12,1.21,2.1-.21,1.34-1.33,1.22-2.32,1.22Z" transform="translate(-611.45 -37.86)"/><path class="cls-13" d="M785.65,636.73c1.14-1.92,3.07-1.58,4.63-2,.53-.13,1.11.59,1.2,1.34s-1,1.12-1,1.05C789,635.73,787.34,637.32,785.65,636.73Z" transform="translate(-611.45 -37.86)"/><path class="cls-15" d="M841.27,629.18c-1.48-.17-1.79,1.52-3,1.7a2.92,2.92,0,0,1-2.62-1.46c-.35-.43,0-.69.76-.61,1.26.14,2.56.44,3.73-.64C840.83,627.49,840.94,628.46,841.27,629.18Z" transform="translate(-611.45 -37.86)"/><path class="cls-16" d="M823.92,657.85c-1.74.45-3.48.91-5.22,1.33-.51.12-1.2.44-1.31-.49-.08-.68,0-1.37,1-1.27a3.51,3.51,0,0,0,3.28-.22A2.37,2.37,0,0,1,823.92,657.85Z" transform="translate(-611.45 -37.86)"/><path class="cls-15" d="M799,610.4c-.65-.64-2.32-.28-2.19-1.21.22-1.6,2.08-1.19,3.22-1.65.43-.17,1.1.47.84.88C800.37,609.17,800.22,610.35,799,610.4Z" transform="translate(-611.45 -37.86)"/><path class="cls-15" d="M795,601.55a3.46,3.46,0,0,0-1,2.93c0,.4-.44.42-.77.38-.52-.06-.38-.39-.23-.67.54-1.06,1.05-2-.55-2.76-.56-.25-.46-1-.08-1.52s.91-.16,1.26,0C794.11,600.27,795.07,600.28,795,601.55Z" transform="translate(-611.45 -37.86)"/><path class="cls-15" d="M763.2,624.62c.47-.83,1.54-.72,1.7-1.56s.32-1.23,1.22-1.14a.84.84,0,0,1,.86.94c0,.75.1,1.61-.76,1.89S764.16,625.88,763.2,624.62Z" transform="translate(-611.45 -37.86)"/><path class="cls-15" d="M756.43,605.4h.07c-.87-.9-2.54-.81-2.91-2.31-.14-.57-.21-1.19.44-1.51a.91.91,0,0,1,1.36.64c.1,1,.9,1.27,1.47,1.8C757.65,604.75,757.12,605.1,756.43,605.4Z" transform="translate(-611.45 -37.86)"/><path class="cls-15" d="M759.34,619.94c1.11,1.48,1.17,2.64-.26,3.65-.38.27-.64.93-1.19.67s-.51-1.07-.28-1.51C758.08,621.84,758.3,620.74,759.34,619.94Z" transform="translate(-611.45 -37.86)"/><path class="cls-13" d="M824.47,633.17c-1.63-1.08-3.18-.71-4.79-.26.71-1.77,2.14-2.08,3.58-2.45C823.71,631.31,823.14,632.56,824.47,633.17Z" transform="translate(-611.45 -37.86)"/><path class="cls-15" d="M802,601.56a4.42,4.42,0,0,1-1.66,2.38c-.38.27-.79.68-1.31.23s-.77-.8-.27-1.23-.22-1.63,1-1.1C800.51,602.15,801.12,601.35,802,601.56Z" transform="translate(-611.45 -37.86)"/><path class="cls-15" d="M721.11,609.82c2.19.59,3.43,3.66,2.54,4.66-.31.35-.66.5-1.06.22a.7.7,0,0,1-.23-1C723,612.41,722.79,611.21,721.11,609.82Z" transform="translate(-611.45 -37.86)"/><path class="cls-13" d="M844.23,603.18l1.38,3.18c-1.43-.22-3-.34-3.4-1.29C841.63,603.64,844,604.31,844.23,603.18Z" transform="translate(-611.45 -37.86)"/><path class="cls-13" d="M786.2,602.12a4.26,4.26,0,0,0-3.16,2.12c-.48.79-.81.7-1.22.15s0-.86.55-1c.76-.15,1-.73,1.26-1.35C784.23,600.55,785,601,786.2,602.12Z" transform="translate(-611.45 -37.86)"/><path class="cls-15" d="M843.14,600.1a4.65,4.65,0,0,0-.18-4c2,.27,1.57,2.39,3.13,3Z" transform="translate(-611.45 -37.86)"/><path class="cls-15" d="M782.58,634.89c-.37,1.56-2.31,2.18-1.32,3.79,0,0-.37.48-.46.44-.27-.1-.65-.3-.71-.54C779.62,636.72,780.3,635.52,782.58,634.89Z" transform="translate(-611.45 -37.86)"/><path class="cls-13" d="M773.4,621.21c-1,.29-1.29-.49-1.72-.91-.65-.63-2.32-1.28-1.57-2,1.07-1,1.56.89,2.37,1.4A1.54,1.54,0,0,1,773.4,621.21Z" transform="translate(-611.45 -37.86)"/><path class="cls-13" d="M843.41,609.93c-1.1,1.27-2.16.7-2.71,1.5-.26.38-.79.75-1.13,0-.14-.29-.63-.77,0-1s.49-1.4,1.22-.85S842.14,610.11,843.41,609.93Z" transform="translate(-611.45 -37.86)"/><path class="cls-16" d="M838.34,653c-.55,1.17-1.71,1.09-2.72,1.33-.38-1.26.74-1.88,1.15-2.8C837.9,651.4,837.18,653.18,838.34,653Z" transform="translate(-611.45 -37.86)"/><path class="cls-15" d="M792.91,633.32l3.29-2.7C796.47,632.78,796,633.19,792.91,633.32Z" transform="translate(-611.45 -37.86)"/><path class="cls-15" d="M821.9,617.4c.34-.25.51-.45.71-.5.89-.2.8-2.09,2.22-1.3.25.14.59.57.53.74-.41,1.1-1.62.86-2.4,1.35C822.62,617.9,822.37,617.83,821.9,617.4Z" transform="translate(-611.45 -37.86)"/><path class="cls-15" d="M781.25,627c.44.85,0,1.31-.21,1.83s.24,1.24-.56,1.4c-.22,0-.6-.25-.76-.48a1,1,0,0,1,.21-1.53C780.43,627.91,780.33,626.92,781.25,627Z" transform="translate(-611.45 -37.86)"/><path class="cls-13" d="M815.41,632.73a1.91,1.91,0,0,1-1.35,1.56.79.79,0,0,1-.93-.87,1.69,1.69,0,0,1,1.44-1.44C815,631.89,815.28,632.28,815.41,632.73Z" transform="translate(-611.45 -37.86)"/><path class="cls-11" d="M832.12,598.42c-.17,1.21-1.69.63-2.08,1.55-.55.19-1.17.46-1.37-.38s.34-1.07,1-1.12C830.46,598.4,831.29,598.43,832.12,598.42Z" transform="translate(-611.45 -37.86)"/><path class="cls-14" d="M829.71,594.67c-1.2.65-2.21,1.68-3.68,1.45-.11,0-.29-.54-.24-.59C826.93,594.57,828.41,595,829.71,594.67Z" transform="translate(-611.45 -37.86)"/><path class="cls-15" d="M773.55,606.4c.48.15,1.37-.3,1.32.61s-1.05,1.07-1.69,1.24c-.92.24-.69-.76-.76-1.21C772.24,606,773.14,606.59,773.55,606.4Z" transform="translate(-611.45 -37.86)"/><path class="cls-15" d="M726.7,616.53c1.68,0,2.81-.6,3.55.52.2.3-.31.64-.68.86C728.25,618.7,728,617.38,726.7,616.53Z" transform="translate(-611.45 -37.86)"/><path class="cls-15" d="M814.38,622.42c-1.14-.17-1.64,1.66-2.84.93-.21-.13-.59-.69-.12-1C812.35,621.61,813.35,621.88,814.38,622.42Z" transform="translate(-611.45 -37.86)"/><path class="cls-15" d="M790.9,606.73c1.25,1.56-.45,2.91.31,4.14-.2.1-.52.34-.58.28-.23-.2-.59-.65-.53-.74C790.81,609.39,790.23,608.13,790.9,606.73Z" transform="translate(-611.45 -37.86)"/><path class="cls-11" d="M872.53,633.67c0,1-.46,1.5-1.51,1.28C870.87,633.74,871.94,634,872.53,633.67Z" transform="translate(-611.45 -37.86)"/><path class="cls-11" d="M870.53,635.44c-.14.89-.45,1.51-1.52,1A1.23,1.23,0,0,1,870.53,635.44Z" transform="translate(-611.45 -37.86)"/><path class="cls-16" d="M817.88,656.84h-.25l.51-1.74C818.82,655.92,817.88,656.29,817.88,656.84Z" transform="translate(-611.45 -37.86)"/><path class="cls-13" d="M762.53,617.94c0,.5-.08,1-.78.94-.18,0-.33-.19-.5-.29l1-1Z" transform="translate(-611.45 -37.86)"/><path class="cls-11" d="M869,636.44c.38,1.06-.26,1.1-1,1C868,636.72,868.32,636.39,869,636.44Z" transform="translate(-611.45 -37.86)"/><path class="cls-11" d="M867.53,637.93c.1.76-.5.72-1,.84C866.51,638.05,866.91,637.86,867.53,637.93Z" transform="translate(-611.45 -37.86)"/><path class="cls-13" d="M742,621.46c-.17-.09-.4-.21-.17-.41.08-.07.34.08.52.13A1.08,1.08,0,0,0,742,621.46Z" transform="translate(-611.45 -37.86)"/><path class="cls-11" d="M868,637.43c.19.54-.11.58-.52.51Z" transform="translate(-611.45 -37.86)"/><path class="cls-13" d="M742.31,621.18c.31.2.18.41,0,.58a3.67,3.67,0,0,1-.32-.3A1.08,1.08,0,0,1,742.31,621.18Z" transform="translate(-611.45 -37.86)"/><path class="cls-11" d="M871,634.94c.2.54,0,.67-.51.51A.47.47,0,0,1,871,634.94Z" transform="translate(-611.45 -37.86)"/><path class="cls-16" d="M882,640a22.33,22.33,0,0,1-6.51-5.78c-1.13-1.46.79-1.82,1.37-2.63.71-1,1.21-.22,1.65.42A19.16,19.16,0,0,1,882,640Z" transform="translate(-611.45 -37.86)"/><path class="cls-1" d="M866.53,655.42c-.46.52-1,.41-1-.22,0-.85-1.13-2,.45-2.55Z" transform="translate(-611.45 -37.86)"/><path class="cls-1" d="M863,645.65c-1.52.57-1.16-.52-1.15-1.3l.05-.05.57.13Z" transform="translate(-611.45 -37.86)"/><path class="cls-1" d="M866,651.88c-.42.56-.79.45-1-.14s-.51-1.15.53-1.1Z" transform="translate(-611.45 -37.86)"/><path class="cls-7" d="M862.5,644.43l-.57-.13c-.19-.54,0-.8.58-.86Z" transform="translate(-611.45 -37.86)"/><path class="cls-1" d="M892.48,617.4c-.1.72-.51,1.09-1,.82-1-.56-2.49-.61-2.85-2-.05-.21.39-1.51,1.11-1.3A4.72,4.72,0,0,1,892.48,617.4Z" transform="translate(-611.45 -37.86)"/><path class="cls-11" d="M833.55,603c-.69-.15-.78-.78-.94-1.28s.16-.9.78-.8c.46.07,1.08,0,1,.71A1.83,1.83,0,0,1,833.55,603Z" transform="translate(-611.45 -37.86)"/></svg>