<svg id="Ebene_1" data-name="Ebene 1" xmlns="http://www.w3.org/2000/svg" viewBox="0 0 117.94 140.15"><defs><style>.cls-1{fill:#f9aa6c;}.cls-2{fill:#fb621f;}.cls-3{fill:#f76a2f;}.cls-4{fill:#f8803c;}.cls-5{fill:#90827e;}.cls-6{fill:#6d5044;}.cls-7{fill:#fd9545;}.cls-8{fill:#e1cdd0;}.cls-9{fill:#bd6953;}.cls-10{fill:#7a3c17;}.cls-11{fill:#fc894c;}.cls-12{fill:#fe792c;}.cls-13{fill:#fb4914;}.cls-14{fill:#6f1da4;}.cls-15{fill:#fe5841;}</style></defs><title>plantation orange</title><path class="cls-1" d="M124.93,56.47A5.43,5.43,0,0,0,122.59,53c-1.15-1.71-2-3.62-3.62-5,.2-.55.36-1.25,1-1.32,2.18-.24,3.68-1.84,5.56-2.68A16.42,16.42,0,0,1,135.08,53a32.59,32.59,0,0,1-1.92,8.53l-.13-.49v-4.5c.17-1.45-.82-1.81-1.94-2v-.47c.44-.33.4-.65,0-1-2-1.6-4-2.89-6.71-1,0,1.74,2.51,2.51,2.26,4.55,2.08,3.08,1.78,6.26.41,9.48-.33-2.22.72-4.71-1.28-6.62A5.75,5.75,0,0,0,124.93,56.47Zm.75-6.11c.06-.14.2-.31.16-.41s-.26-.13-.39-.19c-.06.14-.2.31-.16.41s.26.14.39.2Z" transform="translate(-39.97 -17.37)"/><path class="cls-2" d="M119.55,152.08l-.23.85a1.7,1.7,0,0,0-1.84,1.55h0c-1,.21-2.37,1-2.34-.77,0-2.59-1-3.27-3.36-2.68a6.61,6.61,0,0,1-1.71,0c-.33-2.92,1.33-5.37,2-8,.2-.78-.07-3,1.55-2.49,1.13.33-.29,1.87-.1,2.9v.74c.1.59-.34,1.54.57,1.65s1-.83,1-1.44c.26-3,2.26-5.25,3.12-8a8.49,8.49,0,0,1,2.78-4.27c-.2,3.16-.07,6.39-1.68,9.29-1.37,2.47-1.79,5.28-2.89,7.84-.25.58-.44,1,.27,1.46s1.14,0,1.58-.56a8,8,0,0,0,1.19-3,34.82,34.82,0,0,1,2.48-7c.36-.69.53-1.67,1.68-1.49l-.16,1.9a.86.86,0,0,0-.89,1.15l-.12,1.35c-.67.12-1.24.28-.44,1,0,1.23-1.9,2.13-.59,3.57l-1,3.3C119.91,151.14,119.49,151.4,119.55,152.08Z" transform="translate(-39.97 -17.37)"/><path class="cls-3" d="M144.55,94.55c-.09-2.58.61-5.07,1-7.59a31.86,31.86,0,0,0,0-7.15c-.89-4.63-1.71-9.26.54-13.77.76.68.67,2.52,1.94,2.18.89-.24,1.39-1.6,1.69-2.77s-.28-2.71,1.09-3.58c-1.37-1.54,0-2.91.28-4.35,1.32.31,2,.7,1.19,2.35s-.39,3.2,1.75,3.7v1a8.06,8.06,0,0,1-6.33,4.84c2,1.51,4.13,2.07,4.74,4.22.07.24.71.31,1.08.46l.52,1c-1,1.42,1.39,3.19-.46,4.52L153,81.1h-2.5c0-2.53.51-5.2-2.1-7-.31-.21-.28-.91-.45-1.37-.36-1-1-2.07-2-1.84s-1,1.58-.92,2.56a3.07,3.07,0,0,0,.63,1.83c1.42,1.3,1.37,2.9,1.34,4.58v6.22c-.62,1-.36,2.08-.53,3.13-.35,2.18-.34,4.49-1.83,6.35Z" transform="translate(-39.97 -17.37)"/><path class="cls-1" d="M123.55,140.54l.16-1.9.5-.44a1.12,1.12,0,0,0,.95-1c.53,0,1.09,0,1.43-.56a1.57,1.57,0,0,0,1-1.54c1.31-3.76,4.17-6.71,5.54-10.44,1.7-.57.67-2,1-3,2-1.79,3.11-4.25,4.5-6.49l1.46-1.54,2.62.1-1.52,4.52c-.17,1.37-1.6,1.76-2.17,2.82-2.38,1.48-4.39,3.24-4.88,6.2-.45,1.41-1.77,2.13-2.56,3.26a11.66,11.66,0,0,0-2.3,5.62,5.77,5.77,0,0,0-2.75,2.75c-1.69,2.93-3.32,5.89-5,8.83-1.32-1.44.61-2.34.59-3.57a1,1,0,0,0,.44-1l.12-1.35a1,1,0,0,0,.87-1.22Z" transform="translate(-39.97 -17.37)"/><path class="cls-4" d="M82.55,109.39a1.43,1.43,0,0,1,0-.41,6.09,6.09,0,0,0,.09-2.63,15.75,15.75,0,0,1-.53-5.83,1.66,1.66,0,0,0,0-2.35L82,98.05l-.45-.9L81.17,94l3.35.54c.13.77-.31,1.81,1,2a40.29,40.29,0,0,0,2.09,13l.46,4c-1.21-.37-2.43-1.51-3.59.08C83.69,112.28,84,110.45,82.55,109.39Z" transform="translate(-39.97 -17.37)"/><path class="cls-5" d="M155.55,60.05c2,8.07,3.46,16.17,1.26,24.46a52.23,52.23,0,0,0-1.28,8.87c-.48,5.49-2.67,10.44-4.82,15.4a3.1,3.1,0,0,1-1.6,1.84l-.58-.55a14.58,14.58,0,0,0,2.68-6l.36-.88.52-1a25.44,25.44,0,0,0,2.39-11l1.6-9.52a34.11,34.11,0,0,0-.46-15.09c.22-2.19-1.35-4.1-1-6.31Z" transform="translate(-39.97 -17.37)"/><path class="cls-1" d="M117.49,154.48a1.7,1.7,0,0,1,1.84-1.55h0c-.44,2-.45,4.3-3.26,4.57a5.6,5.6,0,0,1-5.92-4.08c-.35-1-1.18-1.13-1.92-1.31a15.34,15.34,0,0,0-3.92-.59c-2.22,0-3.27-.9-3.23-3.09a49.26,49.26,0,0,0-.53-8.29l.44-.09,2.05,1.54a1.08,1.08,0,0,0,1,.55c1.36,2,1,4.27,1,6.48,0,.89-.15,1.73,1.22,2a12.91,12.91,0,0,1,7.86,4.63C115.6,157.05,116.61,156.81,117.49,154.48Z" transform="translate(-39.97 -17.37)"/><path class="cls-5" d="M134.11,75c1.15,3.44.62,6.92.09,10.36-.79,5.09-1.69,10.17-2.57,15.25-.64,3.71-.33,7.46-.44,11.19,0,1.48.46,3.21,2.4,3.71l-1.53,2.5-1.63-1v-2.1c-1.12-3.42.07-6.93-.39-10.37V103c.26-1.8.59-3.6.76-5.41.33-3.55,1.91-6.89,1.66-10.53l.09-3,1-7.07C134.3,76.48,133.91,75.67,134.11,75Z" transform="translate(-39.97 -17.37)"/><path class="cls-3" d="M84.55,94.57,81.2,94c-1.24-.92-.62-3.19-2.61-3.57a11.58,11.58,0,0,0-2.54-3.78c-.47-2.61-1.76-4.55-4.44-5.32A10.64,10.64,0,0,0,67,78.06c-.53-.67-1.27-.48-2-.48l-1.47-.5-2.14.14h0l-.08-.39-.28.3-3-.31V76c1-.15,2.14.45,3-.53,3.12-1,5.94.84,7.89,2.29,4,3,9.23,5,10.62,10.71.1.41.65.7,1,1a3.87,3.87,0,0,0,3,2c0,.76.71,1,1,1.5v1.5Z" transform="translate(-39.97 -17.37)"/><path class="cls-6" d="M135.08,53A16.42,16.42,0,0,0,125.53,44c-.12-.48,1.69-1,0-1.45.11-.76.11-1.46-1-1.44h0a1.28,1.28,0,0,0-.48-1.25,2.15,2.15,0,0,0-3-.32c-4.33.24-4.87.74-4.91,4.54a1.16,1.16,0,0,0-.64,1c-1.48-3-.7-5.11,2.17-6.33a11.51,11.51,0,0,1,5.85-.59c2.18.23,2.51,2.38,3.56,3.73a8.26,8.26,0,0,0,1.78,2c3.31,2.22,5.56,5.38,7.56,8.74Z" transform="translate(-39.97 -17.37)"/><path class="cls-1" d="M119.06,67.08c.17-1.35-.72-2.7,0-4a8.92,8.92,0,0,1,3.3-.5c0,1.49,1.87,1.35,2.23,2.53l-.67,3.21-1.22,4.79a9.61,9.61,0,0,0-1.17-.32c-1.87-.28-1.28-2.44-2.49-3.22Z" transform="translate(-39.97 -17.37)"/><path class="cls-6" d="M145.08,46.59a35.24,35.24,0,0,0-4.65-7c-3.19-3.94-7.46-4.85-12.12-5-1-.19-1.93-.72-3-.32l-1.07.14c-.79-.3-1.79-.21-2.18-1.22,1.37-.36,3,.4,4.13-1,1.2-.15.86-1.36,1.36-2l.49-.08a1.08,1.08,0,0,1,.48,1c-1.06,2.35-.24,3.44,2.51,3.18.84-.08,1.8.11,2.53-.58,3.12.25,4.9,2.63,7,4.45a.86.86,0,0,0,.91.48h0l.52.51h0c1.21,2.5,3.44,4.45,3.95,7.33Z" transform="translate(-39.97 -17.37)"/><path class="cls-7" d="M62.11,41.48a.16.16,0,0,1,0-.22l0,0c1.62.06,3.27.52,4.85-.26.08,2.24,1.95,2.77,3.48,3.63h.14l-.08,2.92c-1.79.12-2.59-1.56-4-2.19-1-.45-1.67-1.29-2.86.19-.49.6-1.27,2-2.57,2C60.88,45.44,62,43.55,62.11,41.48Z" transform="translate(-39.97 -17.37)"/><path class="cls-5" d="M82.55,109.39c1.42,1,1.13,2.89,1.92,4.23l.12,1,.42.61a23,23,0,0,0,3.59,12.15l-.08.91c-1.7-1-2.23-3.28-4.2-4.06-.2-.08-.34-.58-.33-.88,0-3.92-1.1-7.63-1.88-11.41C82,111.08,81.61,110.08,82.55,109.39Z" transform="translate(-39.97 -17.37)"/><path class="cls-6" d="M62.11,41.48c-.06,2.07-1.23,4-1,6.08a6.24,6.24,0,0,0-.49,3.52c-.18,1.5.14,3-.46,4.49l-.5,1.78L59,60.53a1.64,1.64,0,0,1-1.43-2.14c.53-2.36,0-4.75.34-7.09a2.66,2.66,0,0,0-.45-1.78c2.85-.88,3-1.14,1.91-2.86l-.59-1.06c.66-.1,1.24-.29,1.14-1.15C60.84,43.57,60.7,42,62.11,41.48Z" transform="translate(-39.97 -17.37)"/><path class="cls-6" d="M46.89,71.14c-2.9-2-3.53-5.27-4.47-8.34C41.24,58.94,39.68,55.18,40,51c.09-1.09.11-2,1.53-2-.11,1.22,1.63,1.26,1.56,2.45l-.06.69c-1.5-.83-2,0-1.91,1.3a11.67,11.67,0,0,0,1.36,5.23A8.81,8.81,0,0,0,43.64,63c.57,1.8.64,3.8,2.22,5.17l.71.74a1.09,1.09,0,0,0,1,.62h0l.54.49h0l.61.54a1.35,1.35,0,0,1-.06.46Z" transform="translate(-39.97 -17.37)"/><path class="cls-8" d="M111.09,54c1.69,1,3.53,1.64,4,4a3.3,3.3,0,0,1-.07,2.48c-1,1.92-.26,4-.47,6-.16,1.43.32,3-1,4.14l-.42-6.49c.44-1.32.74-2.58-1.07-3.13h0L112,59.62c.71-2.17-1.55-3.53-1.52-5.52Z" transform="translate(-39.97 -17.37)"/><path class="cls-6" d="M146.07,66.05c-2.25,4.51-1.43,9.14-.54,13.77-2.65-4.46-3.17-8.89-.74-13.77.83-1.66.12-4.06.25-6.11,0-.81-.55-1.85.59-2.42.76,2,.31,4,.65,6Q146.16,64.79,146.07,66.05Z" transform="translate(-39.97 -17.37)"/><path class="cls-5" d="M121.5,147.63c1.65-3,3.29-5.91,5-8.83a5.77,5.77,0,0,1,2.75-2.75c-.8,2.46-2.62,4.34-3.8,6.6a37.47,37.47,0,0,0-3.33,9.53,16.25,16.25,0,0,1-1.42,3.76l-.18-3.91v-1.11Z" transform="translate(-39.97 -17.37)"/><path class="cls-6" d="M89.83,27.14c3.43.57,6.27,4.65,5,8.1-.76,2.09-1.19,4.35-2.33,6.31l-1-1.47L91,39.56v-1l.41-.67c1.36,0,1.56-1.15,1.77-2,.69-2.74-.9-4.87-2.16-7.06l-1-.67Z" transform="translate(-39.97 -17.37)"/><path class="cls-5" d="M135.08,53l1.35-.47a6.26,6.26,0,0,1,.5,4.77c-.73,3.27-1.67,6.49-2.53,9.73a4.87,4.87,0,0,1-.18-3.77c.36-1.26-.41-1.15-1.12-1.26a1.14,1.14,0,0,1,.06-.46A32.62,32.62,0,0,0,135.08,53Z" transform="translate(-39.97 -17.37)"/><path class="cls-3" d="M105.28,37.53c2,1.18,2.86,3.51,1.31,4.73-1.07.84-2.35,2.76-4.41,2.26l-2-3,1.46-.45c.61.36,1.35,1,1.82,0a1.36,1.36,0,0,0-1-2l.35-1C103.64,37.94,104.55,38.3,105.28,37.53Z" transform="translate(-39.97 -17.37)"/><path class="cls-6" d="M119.09,31.52a.54.54,0,0,1,0-.47c.95-.75.17-.86-.39-1.06a20.78,20.78,0,0,1,2.33-9.3,6,6,0,0,1,5.63-3.3A1.9,1.9,0,0,1,128.79,19v0c-.49,0-1,.07-1.21.6-1.46-1.08-2.84-1.35-4.05.36-1.89.47-2.47,1.78-2.31,3.58q-.07.24-.16.47l-.22.1.18.34v2c-.88,1.19-.26,2.62-.63,3.89C120,30.8,119.92,31.58,119.09,31.52Z" transform="translate(-39.97 -17.37)"/><path class="cls-5" d="M100.55,140.14a49.28,49.28,0,0,1,.51,8.33c-1.25-.64-.91-1.88-.91-2.86,0-4.82-2.51-8.2-6-11.13-2-1.66-4.45-2.89-5.61-5.42l1.54.06h0a1.49,1.49,0,0,0,1.46,1.52h.06l.53.53h0l.55.54h0A47.1,47.1,0,0,1,100.55,140.14Z" transform="translate(-39.97 -17.37)"/><path class="cls-9" d="M91.55,40.05l1,1.47a4.8,4.8,0,0,1-3.44,2.62c-1.48.33-2.15,1-2,2.2s1.53,1.26,2.63,1.23H91c.19,1.93-1.93,1-2.48,2-1,.19-1.92-.81-2.87,0-.24-.51-.67-1-.47-1.6.31,0,.66,0,.67-.48H85.2c-.55-.2-.62-.68-.66-1.17a1.35,1.35,0,0,1,0-.44c1.46-.2,1.35-1.37,1.47-2.39a1.82,1.82,0,0,0,2-1A4.27,4.27,0,0,0,91.55,40.05Z" transform="translate(-39.97 -17.37)"/><path class="cls-5" d="M144.55,94.55l.13,1-.28,2c-.64,1.67-1.66,3.26-1,5.18v.61c-1.34.93-1.33,2.69-2.36,3.81l-.51,1.36-.57.56h0l-.5.53h0c-1.24.76-1.6,2.4-3,3l-.1-.1c.61-2.12,2.33-3.57,3.32-5.47C141.81,103,142.36,98.46,144.55,94.55Z" transform="translate(-39.97 -17.37)"/><path class="cls-6" d="M101.62,45.14c-.38,1.43-.46,2.5,1.54,2.85,1.23.21,1.73,1.36.85,2.62a2,2,0,0,0-.45,0,1.88,1.88,0,0,0-2.21-1.47l-.24.06a2.71,2.71,0,0,0-3.49,1.57q0,.11-.07.23l-.48.23c-1.58-.58-2.16,1.28-3.45,1.42l.15-1.23c.5-1.7,2.62-1.8,3.29-3.33.68,0,1.06-.24,1-1h0c1.06-.37,2.33-.5,2.32-2.07h.1Z" transform="translate(-39.97 -17.37)"/><path class="cls-8" d="M124.61,65.06c-.36-1.18-2.22-1-2.23-2.54,1.36-.64,1.44-1.73,1.05-3L123.07,58c1.37.36,1.31-1,1.86-1.57a5.73,5.73,0,0,1,.82,3l.32,9.65c-.27.74-.14,1.72-1.18,2A17.8,17.8,0,0,0,124.61,65.06Z" transform="translate(-39.97 -17.37)"/><path class="cls-6" d="M105.28,37.53c-.7.76-1.64.41-2.48.52-2-1.38-2.88,0-3.74,1.5-.42-.14-.86-.51-1.24,0s0,.89.19,1.3c-.78,1.92-1.38,4-3.18,5.24L94,46c1.94-1.86,2.7-4.28,3.36-6.79.38-1.43.91-3,2.73-3.14S104,35.45,105.28,37.53Z" transform="translate(-39.97 -17.37)"/><path class="cls-9" d="M133.1,62c.71.11,1.48,0,1.12,1.26A4.87,4.87,0,0,0,134.4,67l-.3,8c-.2.67.19,1.48-.49,2a14.1,14.1,0,0,1-1.08-5.47c.11-.9.27-1.8.32-2.71.09-1.94.71-3.91-.31-5.8v-.52Z" transform="translate(-39.97 -17.37)"/><path class="cls-5" d="M60,44.46c.09.86-.48,1-1.14,1.15A11.84,11.84,0,0,0,55.09,45a2,2,0,0,1-.1-.35c0-.62.77-.47,1-.94a24.93,24.93,0,0,0-2.56-.41c-1.07-.07-2.25-.2-2.7,1.2l-2.42.71-.17-.09-.6-1.24c3.83-1.92,7.61-2.07,11.33.28A1.55,1.55,0,0,0,60,44.46Z" transform="translate(-39.97 -17.37)"/><path class="cls-10" d="M115.55,45a1.16,1.16,0,0,1,.64-1c1.73,1,3.43,2.28,5.41.49l2.22-1.5.74-.5h1c1.73.43-.08,1,0,1.45-1.88.84-3.38,2.44-5.56,2.68-.64.07-.8.77-1,1.32l-.53.23h0c.1-.33-.07-.49-.37-.56l-.5-.81v-.14h-.14L116,45.37a.3.3,0,0,0-.33-.23Z" transform="translate(-39.97 -17.37)"/><path class="cls-9" d="M62,40.61,61,40c0-1.45-.23-3,1.3-3.94,1.27,2.26,2.94,2.76,4.5,1.33L67.17,39C66,41.23,63.75,40.25,62,40.61Z" transform="translate(-39.97 -17.37)"/><path class="cls-6" d="M76.77,34.53a3.54,3.54,0,0,1,1.49-2c1.48-1,3-2,3.47-4a1.63,1.63,0,0,1,1.81-1l.07,1.17A6.77,6.77,0,0,0,83,31.49c-.94,0-.69.54-.52,1.07-2-.88-2,1.8-3.43,1.93C78.32,32.47,77.55,35,76.77,34.53Z" transform="translate(-39.97 -17.37)"/><path class="cls-6" d="M62.32,36.06C60.79,37.06,61,38.55,61,40c-1.36-1.29-1-2.69-.13-4,1.08-1.7,4.64-2.8,6.53-2.14A1.94,1.94,0,0,1,69,36.08l-.53.11h.07c-.08-.34-.21-.47-.46-.11L67.59,36a3.63,3.63,0,0,0-2.72-.85A2.84,2.84,0,0,0,62.32,36.06Z" transform="translate(-39.97 -17.37)"/><path class="cls-5" d="M46.89,71.14,48.6,71h0c0,.45-.12,1,.63.5,2.85,1.72,5.19,4.43,8.87,4.52v.8A15.39,15.39,0,0,1,46.89,71.14Z" transform="translate(-39.97 -17.37)"/><path class="cls-1" d="M154,43.67l.07.85q0,2.24-.11,4.48a3.56,3.56,0,0,1-.86-3,4.7,4.7,0,0,0-1.45-4l-.07-1.46a.93.93,0,0,0-.49-1h0a.93.93,0,0,0-.85-1h-.15l-.49-.54c.37-1.41-1.77-1.63-1.43-3,1.2.37,2,1.64,3.34,1.64h0A14.4,14.4,0,0,0,154,43.67Z" transform="translate(-39.97 -17.37)"/><path class="cls-9" d="M119.06,67.08v2.44a27.82,27.82,0,0,0-1.47,11v2.11H117c-.76-1.43-.4-3-.49-4.49-.32-2.44.91-4.66,1-7C117.75,69.61,117.4,68,119.06,67.08Z" transform="translate(-39.97 -17.37)"/><path class="cls-5" d="M82.11,100.53a15.75,15.75,0,0,0,.53,5.83,6.09,6.09,0,0,1-.09,2.63c-1.11-.19-1.12-1.17-1.18-1.91-.32-3.67-.54-7.35-.8-11l1,1.11.45.9Z" transform="translate(-39.97 -17.37)"/><path class="cls-10" d="M127.55,19.65c.24-.53.72-.57,1.21-.6L130,21.66l.2,1.69V25l-.1,1L128.92,31l-.4.12a1.08,1.08,0,0,0-.48-1l.19-1,.27-.65c.16-1,.39-1.89.46-2.84,0-.71.45-1.74-.91-1.77l-.46-.18a2,2,0,0,0,.35-2.57Z" transform="translate(-39.97 -17.37)"/><path class="cls-5" d="M113.55,70.62c1.31-1.15.83-2.71,1-4.14.22-2-.53-4,.47-6h0c0,.42,0,.83.47,1A39.55,39.55,0,0,1,115.05,72l-.39,2.69-.82-.64C114.35,72.87,113.37,71.8,113.55,70.62Z" transform="translate(-39.97 -17.37)"/><path class="cls-9" d="M123.43,59.54c.39,1.26.31,2.35-1.05,3a8.93,8.93,0,0,0-3.3.5c-.75-1.4-2-2.69-.9-4.47.76.27,1.07-1.14,1.92-.51-1,1.43-1,2.75.79,3.4,1.56.58,2-.56,2-1.88Z" transform="translate(-39.97 -17.37)"/><path class="cls-11" d="M111.09,54h-.54l-1-.06c-1.66-1.17-3.83-.44-5.53-1.48l.18-.89C107.19,50.42,109.43,51.4,111.09,54Z" transform="translate(-39.97 -17.37)"/><path class="cls-6" d="M155.55,60.05l-.91.07L154.15,58,154,49.87l.53.15a19.87,19.87,0,0,1,1,5.52v4.51Z" transform="translate(-39.97 -17.37)"/><path class="cls-10" d="M68.44,36.14,69,36c1,.91.83,2.28,1.36,3.38l-.87.81c-1.08-.67-1.74.15-2.48.69-1.58.78-3.23.32-4.85.26L62,40.56c1.8-.36,4,.62,5.22-1.66C69.1,38.71,68.35,37.26,68.44,36.14Z" transform="translate(-39.97 -17.37)"/><path class="cls-3" d="M146.26,63.53c-.34-2,.11-4.07-.65-6V54.18l1.36-.32c.11,1.64.57,3.36.22,4.89S148,62.24,146.26,63.53Z" transform="translate(-39.97 -17.37)"/><path class="cls-6" d="M63.55,77.08l1.47.5c.56.53,1.29.38,2,.48a10.64,10.64,0,0,1,4.58,3.3l-.08.77c-2.77-1.16-4.94-3.56-8.1-3.91Z" transform="translate(-39.97 -17.37)"/><path class="cls-8" d="M154,43.67a14.4,14.4,0,0,1-2.46-7.07c2.11.47,3.32,1.65,3,3.94C154.37,41.59,154.14,42.62,154,43.67Z" transform="translate(-39.97 -17.37)"/><path class="cls-6" d="M69.46,40.26l.87-.81,1,1.72C72.6,40.37,73,38.85,74,38l.1,2.18v-.06l-.49.54h0c-.55.23-.53.71-.51,1.19a.21.21,0,0,1,0,.25c-1.24,0-2.45,0-1.77,1.84.18.51-.4.61-.78.75h-.14C70.61,43,69.93,41.67,69.46,40.26Z" transform="translate(-39.97 -17.37)"/><path class="cls-10" d="M104.19,51.62l-.18.89c-1.15,1-2,2.41-3.49,3-.6.07-1,.28-.8,1a4.8,4.8,0,0,1-3.14-2c2.16,0,4.59.56,5.45-2.41l1.52-1.53a2,2,0,0,1,.45,0Z" transform="translate(-39.97 -17.37)"/><path class="cls-10" d="M83.6,28.74l-.07-1.17c2-1.79,4.15-.94,6.29-.46l.3,1c-1.85.17-3.75-.43-5.55.39Z" transform="translate(-39.97 -17.37)"/><path class="cls-11" d="M43.11,51.51c.06-1.19-1.67-1.24-1.56-2.45a.73.73,0,0,1,.1-.44l.84-.56,3.91-1.15.11.74-.8.43c-2,.53-.51,2.67-1.66,3.59Z" transform="translate(-39.97 -17.37)"/><path class="cls-8" d="M114.72,74.72l.39-2.69c1.12.43,1.53-.93,2.47-1-.13,2.38-1.36,4.59-1,7-1.1-.2-.76-1.59-1.64-2Z" transform="translate(-39.97 -17.37)"/><path class="cls-6" d="M136,25.51c.09-.19.29-.42.24-.57s-.22-.17-.1.11.2.34.3.34c2.51-.06,3.74,2.15,5.64,3.16l-.13.57h-1A28.4,28.4,0,0,1,136,26Z" transform="translate(-39.97 -17.37)"/><path class="cls-6" d="M120.1,58.05c-.85-.63-1.17.78-1.92.51.87-2.63,2.16-2.76,4.9-.51l.36,1.49h-.5C121.85,59.32,121.39,57.92,120.1,58.05Z" transform="translate(-39.97 -17.37)"/><path class="cls-10" d="M74.15,40.14,74.05,38l2.42-3,.1-.15a.23.23,0,0,1,.17-.27h0c.78.46,1.55-2.06,2.32,0C76.88,35.9,75.85,38.32,74.15,40.14Z" transform="translate(-39.97 -17.37)"/><path class="cls-10" d="M147,53.85l-1.41.29c-.12-1.87.43-3.74,0-5.61a.32.32,0,0,0,0-.37l-.46-1.61.86-.15C147.11,48.8,147,51.33,147,53.85Z" transform="translate(-39.97 -17.37)"/><path class="cls-10" d="M71.55,82.14l.08-.77a6.05,6.05,0,0,1,4.44,5.31Z" transform="translate(-39.97 -17.37)"/><path class="cls-9" d="M148.55,110.06l.58.55c-1.24,1.72-2,3.93-4.61,4.14v-.67C146.06,112.92,146.82,111,148.55,110.06Z" transform="translate(-39.97 -17.37)"/><path class="cls-5" d="M119.09,31.52c.83.06.9-.73,1.29-1.15.79.8.52,2.24,1.71,2.79.39,1,1.39.92,2.18,1.22C120.72,34.92,119.4,34.14,119.09,31.52Z" transform="translate(-39.97 -17.37)"/><path class="cls-5" d="M134.08,127.14c.49-3,2.5-4.72,4.88-6.2C137.89,123.47,135.78,125.14,134.08,127.14Z" transform="translate(-39.97 -17.37)"/><path class="cls-6" d="M42.48,48.05l-.84.56c-.45-1.29.07-2.09,1.2-2.77a28,28,0,0,1,4.67-2l.6,1.24C46,45.7,43.64,45.7,42.48,48.05Z" transform="translate(-39.97 -17.37)"/><path class="cls-10" d="M98,40.9c-.21-.41-.52-.82-.19-1.3s.82-.19,1.24,0c0,.85.6,1.37,1.07,2l2,3-.56.61-1.13-.12C100.67,43,98.72,42.34,98,40.9Z" transform="translate(-39.97 -17.37)"/><path class="cls-10" d="M94,46l.85.11c-.57,2.58-3,2.63-4.81,3.49l-1.51-.07c.54-1,2.67-.08,2.48-2l2.21-1a.32.32,0,0,0,.31-.21Z" transform="translate(-39.97 -17.37)"/><path class="cls-6" d="M130.18,23.36l-.2-1.69c2.23-.3,4,.27,5,2.49l-2.09-.37h-.09C132.07,22.7,131.13,23,130.18,23.36Z" transform="translate(-39.97 -17.37)"/><path class="cls-8" d="M144.55,114.08v.67c-1.24,1-1.59,2.92-3.37,3.39l1.52-4.52.87-.16Z" transform="translate(-39.97 -17.37)"/><path class="cls-9" d="M132.06,118l1.53-2.5,2.05-2H136c-.18,2.38-2.29,3.44-3.5,5.12Z" transform="translate(-39.97 -17.37)"/><path class="cls-5" d="M118.45,48.14l.53-.23c1.6,1.38,2.47,3.29,3.62,5C120.29,52.14,119.14,50.36,118.45,48.14Z" transform="translate(-39.97 -17.37)"/><path class="cls-8" d="M151.55,36.6c-1.38,0-2.14-1.26-3.34-1.64h0c.14-1.36-1.86-1.4-1.72-2.77l.16-.16A11.75,11.75,0,0,1,151.55,36.6Z" transform="translate(-39.97 -17.37)"/><path class="cls-6" d="M81.55,97.14l-1-1.11c0-2.08-1.65-3.6-2-5.58,2,.38,1.37,2.65,2.61,3.57Z" transform="translate(-39.97 -17.37)"/><path class="cls-8" d="M142,29.14l.13-.57c2.32.1,3.07,2.23,4.49,3.49l-.16.16C144.55,31.74,143.55,30,142,29.14Z" transform="translate(-39.97 -17.37)"/><path class="cls-1" d="M132.87,23.78l2.09.37,1,1.35L136,26C134.37,26.14,133.67,24.91,132.87,23.78Z" transform="translate(-39.97 -17.37)"/><path class="cls-5" d="M125.34,34.23c1-.4,2,.13,3,.32C127.16,36,126.18,35.78,125.34,34.23Z" transform="translate(-39.97 -17.37)"/><path class="cls-8" d="M154.55,50l-.53-.15-.11-.88.11-4.48C155,46.27,154.37,48.19,154.55,50Z" transform="translate(-39.97 -17.37)"/><path class="cls-8" d="M90.06,129.07,88.52,129v-.78l.08-.91A2.07,2.07,0,0,1,90.06,129.07Z" transform="translate(-39.97 -17.37)"/><path class="cls-5" d="M63.55,77.08l-.17,1.15a2,2,0,0,1-2-1Z" transform="translate(-39.97 -17.37)"/><path class="cls-5" d="M118.68,30c.56.19,1.34.31.39,1.06C118.55,30.85,118.55,30.45,118.68,30Z" transform="translate(-39.97 -17.37)"/><path class="cls-8" d="M115.55,61.55c-.51-.17-.49-.58-.47-1C115.66,60.67,116.3,60.78,115.55,61.55Z" transform="translate(-39.97 -17.37)"/><path class="cls-7" d="M120.48,150.94v1.11h-.92C119.49,151.4,119.91,151.14,120.48,150.94Z" transform="translate(-39.97 -17.37)"/><path class="cls-5" d="M155.61,56.61V55.54A.85.85,0,0,1,155.61,56.61Z" transform="translate(-39.97 -17.37)"/><path class="cls-5" d="M155.55,59.09V58A.82.82,0,0,1,155.55,59.09Z" transform="translate(-39.97 -17.37)"/><path class="cls-6" d="M115.64,45.07a.3.3,0,0,1,.33.23Z" transform="translate(-39.97 -17.37)"/><path class="cls-6" d="M93.55,46.35a.32.32,0,0,1-.31.21l.09-.2Z" transform="translate(-39.97 -17.37)"/><path class="cls-5" d="M117.45,46.59h.14v.14c-.05,0-.11.07-.15.06a.16.16,0,0,1-.08-.13Z" transform="translate(-39.97 -17.37)"/><path class="cls-5" d="M118.07,47.58c.29.08.47.23.37.56a.42.42,0,0,1-.37-.56Z" transform="translate(-39.97 -17.37)"/><polygon class="cls-6" points="36.59 17.44 36.49 17.59 36.45 17.46 36.59 17.44"/><path class="cls-6" d="M145.55,48.2a.32.32,0,0,1,0,.37.23.23,0,0,1,0-.32Z" transform="translate(-39.97 -17.37)"/><path class="cls-5" d="M136,113l.44-.56.1.1V113l-.42.09Z" transform="translate(-39.97 -17.37)"/><path class="cls-5" d="M136,113.52h-.36L136,113l.08.07a2.94,2.94,0,0,0-.06.42Z" transform="translate(-39.97 -17.37)"/><path class="cls-5" d="M61,77.14l.28-.3.08.39h-.2Z" transform="translate(-39.97 -17.37)"/><path class="cls-3" d="M131.08,54v.47a2.79,2.79,0,0,0,.45,2c-.32,1.17.85,2.33,0,3.5-.77.12-1.61-1-2.27-.07a1.64,1.64,0,0,0,.42,2.22c.44.41.08.82,0,1.3-.34,1.36-1.18,2.58-1.09,4v1.47a3.23,3.23,0,0,0-.51,2h-1.53v-2l.5-3c1.37-3.23,1.66-6.41-.41-9.48C128.61,56.62,129.24,54.27,131.08,54Z" transform="translate(-39.97 -17.37)"/><path class="cls-11" d="M131.08,54c-1.84.22-2.47,2.58-4.46,2.53.25-2-2.25-2.81-2.26-4.55,2.67-1.84,4.72-.55,6.71,1C131.47,53.39,131.55,53.71,131.08,54Z" transform="translate(-39.97 -17.37)"/><path class="cls-5" d="M127,66.05l-.5,3a2.84,2.84,0,0,0-.46,0l-.32-9.65C127.76,61.34,126.71,63.83,127,66.05Z" transform="translate(-39.97 -17.37)"/><path class="cls-4" d="M131.55,60.05c.85-1.17-.32-2.33,0-3.5H133v4.5l-1.48-.51Q131.55,60.3,131.55,60.05Z" transform="translate(-39.97 -17.37)"/><path class="cls-11" d="M133,56.55h-1.49a2.79,2.79,0,0,1-.45-2C132.22,54.74,133.21,55.14,133,56.55Z" transform="translate(-39.97 -17.37)"/><path class="cls-3" d="M131.55,60.54l1.48.51.13.49a1.15,1.15,0,0,0-.06.46l-.57.55C130.5,62.72,131.55,61.39,131.55,60.54Z" transform="translate(-39.97 -17.37)"/><path class="cls-11" d="M125.68,50.37c-.14-.06-.35-.09-.39-.19s.1-.27.16-.41c.14.06.35.09.39.19S125.74,50.23,125.68,50.37Z" transform="translate(-39.97 -17.37)"/><path class="cls-12" d="M104,142.14a1.08,1.08,0,0,1-1-.55c1.21-2.54-.82-2.87-2.4-3.52l-.27-.79c.48-2.12-1.4-3.67-1.35-5.68v-1.49l1,.48a3.41,3.41,0,0,1,1.55,2.51c-.35.09-.94,0-.76.6s.78.34,1.23.37h0c.48,2.67,3.41,3.66,4.16,6.24a18.2,18.2,0,0,0,.33-3.29c.08-.88-.55-2.1,1-2.45.11,1.26.93,1.57,2,1.54.48.65,1.35.22,1.82.56,2.54,1.82,2.87-.1,3.59-1.87,1.6-4,2.19-8.25,3.7-12.24.24-.62.09-1.75,1.09-1.7.78,0,.65,1,.88,1.6.41,1,.48,2.36,1.93,2.64l.06.54-.56,4a1,1,0,0,0-.49,1l-.52,1.49a8.49,8.49,0,0,0-2.78,4.27c-.86,2.74-2.86,5-3.12,8-.05.62-.21,1.54-1,1.44s-.47-1.06-.57-1.65v-.74c-.19-1,1.22-2.57.1-2.9-1.61-.47-1.35,1.71-1.55,2.49-.69,2.67-2.35,5.13-2,8-.75-.49-1.47-1-2.26-1.44-1.55-.8-2.15-1.86-1.34-3.57C107.66,143.48,106.15,142.57,104,142.14Z" transform="translate(-39.97 -17.37)"/><path class="cls-13" d="M122.06,129.55l.56-4,2.92-.54a12.18,12.18,0,0,1-1,5.48.92.92,0,0,0-1,1V134c-1.35,1.27,1.21,1.85.54,3l.14,1.15-.5.44c-1.15-.18-1.32.79-1.68,1.49a34.82,34.82,0,0,0-2.48,7,8,8,0,0,1-1.19,3c-.44.58-.76,1-1.58.56s-.52-.88-.27-1.46c1.1-2.56,1.52-5.37,2.89-7.84,1.61-2.9,1.48-6.12,1.68-9.29l.52-1.49C122.19,130.45,122.82,130.33,122.06,129.55Z" transform="translate(-39.97 -17.37)"/><path class="cls-7" d="M104,142.14c2.14.47,3.65,1.38,2.46,3.91-.81,1.71-.21,2.76,1.34,3.57.79.41,1.51,1,2.26,1.44a6.63,6.63,0,0,0,1.71,0c2.34-.59,3.4.09,3.36,2.68,0,1.83,1.39,1,2.34.77-.88,2.33-1.88,2.56-3.36.72a12.91,12.91,0,0,0-7.86-4.63c-1.37-.27-1.21-1.11-1.22-2C105,146.37,105.37,144.14,104,142.14Z" transform="translate(-39.97 -17.37)"/><path class="cls-12" d="M123.55,140.54a1,1,0,0,1-.84,1.13h0a.86.86,0,0,1,.89-1.14Z" transform="translate(-39.97 -17.37)"/><path class="cls-12" d="M122.55,143a1,1,0,0,1-.44,1C121.29,143.32,121.86,143.14,122.55,143Z" transform="translate(-39.97 -17.37)"/><path class="cls-2" d="M147,53.85c0-2.52.15-5.06-1-7.41-.5-2.88-2.74-4.83-3.95-7.33.52-.21,1.49.22,1.33-.93-.06-.4-.27-.84.28-1s.79.38,1.14.7A10.93,10.93,0,0,1,148,43a1.81,1.81,0,0,0,2,1.56h.09a7.61,7.61,0,0,0-.35,2.16c.39,3,.9,5.88,1.36,8.83v2c-.33,1.43-1.65,2.8-.28,4.35-1.38.87-.79,2.38-1.09,3.58S148.92,68,148,68.25c-1.28.34-1.18-1.5-1.94-2.18l.2-2.51c1.74-1.29.56-3.2.92-4.79S147.06,55.49,147,53.85Z" transform="translate(-39.97 -17.37)"/><path class="cls-11" d="M156.07,81.53l-1.6,9.52c-1.89,1-1,3-1.44,4.5-.77.15-1.28.38-.34,1.07l-.17.92c-1.54-.09-2.66.9-3.93,1.5.25-2.83,1.28-5.58,1-8.47,2.06-.69-.11-1.35,0-2v-1c.88-.84,0-1.14-.48-1.55l1-2.46c.69-.32,1.88,1.31,2-.16.1-1,1-1.42,1-2.33l.53-1.5h1.87C155.62,80.21,155.36,81,156.07,81.53Z" transform="translate(-39.97 -17.37)"/><path class="cls-12" d="M149.55,87.57v1c-.37-.1-.9-.4-1.1-.26-.56.42,0,.8.24,1.16l.87,1.13c.31,2.9-.73,5.64-1,8.47-.17,2.29-2.93,3.19-3,5.54a1.7,1.7,0,0,1-.06.45c-1.89.86-2.11-.3-2.09-1.74v-.62c.55-1.68,2-3.21,1-5.18l.28-2c1.5-1.86,1.49-4.17,1.83-6.35.17-1-.09-2.16.53-3.13a3.4,3.4,0,0,0,2,.51A1.07,1.07,0,0,0,149.55,87.57Zm-1.2,3.62c-.06-.14-.08-.36-.18-.4s-.27.09-.42.14c.06.14.08.36.18.4s.29-.09.44-.19Z" transform="translate(-39.97 -17.37)"/><path class="cls-4" d="M151.07,57.53v-1c.36-.08.86-.08.74-.61,0-.18-.47-.28-.73-.41-.47-2.94-1-5.88-1.36-8.83a7.61,7.61,0,0,1,.35-2.16c1.32-.35.62-1.94,1.55-2.53a4.7,4.7,0,0,1,1.45,4,3.56,3.56,0,0,0,.86,3l.11.87.12,8.1c-1.29,1.84-.42,3.73-.14,5.6-2.14-.5-2.62-2-1.75-3.7S152.39,57.84,151.07,57.53Z" transform="translate(-39.97 -17.37)"/><path class="cls-2" d="M149,86.56a3.4,3.4,0,0,1-2-.51V79.83c0-1.68.08-3.28-1.34-4.58a3.07,3.07,0,0,1-.63-1.83c-.1-1-.17-2.31.92-2.56s1.63.88,2,1.84c.17.46.14,1.15.45,1.37,2.61,1.78,2.1,4.45,2.1,7-.81.71-.38,1.65-.49,2.5l-1,2.46Z" transform="translate(-39.97 -17.37)"/><path class="cls-4" d="M153.55,74.06c-.37-.15-1-.22-1.08-.46-.61-2.15-2.7-2.71-4.74-4.22a8.06,8.06,0,0,0,6.33-4.84c.85.83.39,1.82.37,2.78,0,2-.36,4,.88,5.76v.5C154.66,73.57,154,73.43,153.55,74.06Z" transform="translate(-39.97 -17.37)"/><path class="cls-11" d="M155.29,73.09c-1.24-1.77-.92-3.8-.88-5.76,0-1,.48-1.94-.37-2.78v-1c-.28-1.87-1.14-3.76.14-5.6l.49,2.14c-.38,2.21,1.19,4.13,1,6.31S155.86,70.89,155.29,73.09Z" transform="translate(-39.97 -17.37)"/><path class="cls-4" d="M150.07,83.55c.11-.84-.33-1.79.49-2.5h2.5c.07.91-.88,1.31-1,2.33C151.94,84.87,150.76,83.23,150.07,83.55Z" transform="translate(-39.97 -17.37)"/><path class="cls-4" d="M155.46,79.53h-1.87c1.86-1.33-.52-3.1.46-4.52l1.38.52A7,7,0,0,1,155.46,79.53Z" transform="translate(-39.97 -17.37)"/><path class="cls-11" d="M155.43,75.57l-1.38-.52-.52-1c.46-.63,1.13-.49,1.76-.48A2.76,2.76,0,0,1,155.43,75.57Z" transform="translate(-39.97 -17.37)"/><path class="cls-4" d="M133.09,124.6c-1.36,3.74-4.22,6.68-5.54,10.44-1,.07-1,.79-1,1.54-.34.54-.9.51-1.43.56l-.1-.6v-2c.58-.37.47-1,.5-1.51,1.82-.3,1.8-1.73,1.69-3-.08-.92-.43-1.84.24-2.6,1.69-1.92,2.23-4.56,4-6.39h0C133.15,121.73,133.1,123.14,133.09,124.6Z" transform="translate(-39.97 -17.37)"/><path class="cls-11" d="M136.49,113v-.44c1.38-.63,1.74-2.26,3-3a6.88,6.88,0,0,1-1.32,3.8c-.37.56-1.2,1.47.36,1.74-1.39,2.24-2.46,4.7-4.5,6.49-.66-.37-1.51-.54-1.53-1.54v-1.38c1.21-1.68,3.32-2.74,3.5-5.12h0Z" transform="translate(-39.97 -17.37)"/><path class="cls-7" d="M143.45,103.3c0,1.44.19,2.6,2.09,1.74-.57,1.39-1.28,2.7-.1,4.24.45.59.08,1.57-.58,2.22s-1.29,1-1.34,2l-.87.16-2.62-.1c.19-1.49,1.56-2.07,2.38-3.07,1.62-2,1.28-2.88-1.32-3.34C142.12,106,142.11,104.23,143.45,103.3Z" transform="translate(-39.97 -17.37)"/><path class="cls-12" d="M141.09,107.14c2.6.47,2.94,1.37,1.32,3.34-.82,1-2.19,1.59-2.38,3.07l-1.46,1.54c-1.56-.27-.73-1.18-.36-1.74a6.88,6.88,0,0,0,1.32-3.8h0l.5-.53h0l.57-.56Z" transform="translate(-39.97 -17.37)"/><path class="cls-7" d="M132.55,120c0,1,.87,1.17,1.53,1.54-.31,1,.72,2.47-1,3,0-1.42.06-2.87-1.56-3.58A1,1,0,0,1,132.55,120Z" transform="translate(-39.97 -17.37)"/><path class="cls-7" d="M126.55,136.58c0-.74-.05-1.47,1-1.54A1.57,1.57,0,0,1,126.55,136.58Z" transform="translate(-39.97 -17.37)"/><path class="cls-12" d="M125,136.54l.1.6a1.12,1.12,0,0,1-.94,1l-.14-1.14Z" transform="translate(-39.97 -17.37)"/><path class="cls-13" d="M101.55,133.06a3.41,3.41,0,0,0-1.55-2.51c-1.31-2.4-2.61-4.8-3.95-7.19s-3.13-4.16-4.12-6.64a37.93,37.93,0,0,0-4.37-7.19,40.26,40.26,0,0,1-2.09-13V95a1.74,1.74,0,0,0-1-2c-.32-.52-1.07-.73-1-1.5a8.6,8.6,0,0,0-.25-1.94c-.34-.93-.82-2-2-2-1.37,0,.27,1.55-.74,1.9-.34-.35-.89-.64-1-1-1.39-5.67-6.63-7.75-10.62-10.71-1.95-1.45-4.76-3.3-7.89-2.29H59.51L59,75c-.89-1.14-2.45-.74-3.49-1.52L55,72c1.24-2.88,3-3.63,6.8-2.81,0-1.27-.6-1.77-1.78-1.71a.87.87,0,0,1,1-1c.34.56.92.49,1.44.55A5,5,0,0,0,65,69.61c2.51,1.45,4.38,1,5.54-1.08,2.11.22,3.27,2.18,5.16,2.83,4,1.37,6.13,4.85,8.61,7.81,3.52,4.22,3.85,9.75,5.25,14.82a2.59,2.59,0,0,0-.28,2.1c.62,2.35,2.32,4.85,2.27,6.75-.1,3.32,1.06,6,1.83,9A6.39,6.39,0,0,0,97,116c.59,1.79.33,3.88,1.89,5.32L102,125c.37,1.81,1.48,3.3,2.24,4.94,1.15,2.51.62,3.53-2.2,4h0Z" transform="translate(-39.97 -17.37)"/><path class="cls-11" d="M99,131.56c0,2,1.83,3.57,1.36,5.68a15.76,15.76,0,0,0-7.87-5.7h0L92,131h0l-.53-.53h0a1.46,1.46,0,0,0-1.4-1.52h-.12a2.07,2.07,0,0,0-1.45-1.74,23,23,0,0,1-3.59-12.15l-.42-.61-.12-1c1.16-1.59,2.38-.45,3.59-.08v.52c-.48.11-1.37-.22-1.26.57s1,.86,1.72.91h0c-.26.54-1.29.72-.84,1.56s1.17.36,1.78.46c.52,1.68,1.36,3.43,2.73,4.25a8.29,8.29,0,0,1,3.3,4.24c-1.24.44-2.46-1-3.81-.16.42,1.27,3.41.46,2.13,2.82C96.11,128.71,96.76,131.62,99,131.56Z" transform="translate(-39.97 -17.37)"/><path class="cls-2" d="M95.55,126.05a8.29,8.29,0,0,0-3.3-4.24c-1.36-.82-2.21-2.57-2.73-4.25a1.73,1.73,0,0,0-.94-2h0c0-.53.08-1.11-.46-1.48v-.52l-.46-4A37.89,37.89,0,0,1,92,116.75c1,2.49,2.84,4.38,4.12,6.64s2.63,4.79,3.95,7.19l-1-.48C96.91,129.57,96.88,127.24,95.55,126.05Z" transform="translate(-39.97 -17.37)"/><path class="cls-3" d="M85.55,95.06v1.5c-1.3-.18-.87-1.22-1-2h0Z" transform="translate(-39.97 -17.37)"/><path class="cls-3" d="M82.11,100.53,82,98.06a1.66,1.66,0,0,1,.25,2.33Z" transform="translate(-39.97 -17.37)"/><path class="cls-1" d="M143.55,113.47c.05-.93.77-1.42,1.34-2s1-1.63.58-2.22c-1.18-1.54-.47-2.84.1-4.24a2,2,0,0,1,.05-.45c1.88-.08,3.79.1,5.62-.55a14.58,14.58,0,0,1-2.68,6c-1.72,1-2.48,2.86-4,4Z" transform="translate(-39.97 -17.37)"/><path class="cls-7" d="M151.21,104c-1.83.65-3.74.47-5.62.55.07-2.35,2.83-3.24,3-5.54,1.27-.6,2.39-1.6,3.93-1.5l-.52,4c-.65.41-1.28.82-.43,1.62Z" transform="translate(-39.97 -17.37)"/><path class="cls-8" d="M155.43,75.57a2.76,2.76,0,0,0-.14-2v-.5c.57-2.19,0-4.44.32-6.65a34.1,34.1,0,0,1,.46,15.09c-.71-.51-.45-1.32-.61-2A7,7,0,0,0,155.43,75.57Z" transform="translate(-39.97 -17.37)"/><path class="cls-8" d="M152,101.54l.52-4,.17-.92.34-1.07c.46-1.51-.45-3.45,1.44-4.5a25.44,25.44,0,0,1-2.39,11Z" transform="translate(-39.97 -17.37)"/><path class="cls-1" d="M152,101.54l.09.56-.54,1C150.72,102.36,151.34,102,152,101.54Z" transform="translate(-39.97 -17.37)"/><path class="cls-8" d="M92.55,131.53a15.76,15.76,0,0,1,7.87,5.7l.27.79.34,2-.44.09A47.1,47.1,0,0,0,92.55,131.53Z" transform="translate(-39.97 -17.37)"/><path class="cls-11" d="M101,140l-.34-2c1.57.65,3.6,1,2.4,3.52Z" transform="translate(-39.97 -17.37)"/><path class="cls-13" d="M126.55,71.06H128c.74,0,1.62,0,1.79-.89s-.6-1-1.28-1.14V67.56c1.16,0,1-2,2.48-1.51a16.81,16.81,0,0,1,.11,7.28c-.16.78-1,1.82,0,2.71-.77,2.92,1.17,5.34,1.48,8.06l-.09,3h-.39c-1.14.15-1.39.61-.53,1.48-.57,1.44-1.39,2.82-1.09,4.48-2.93.3-3.12,2.31-2.88,4.6v.84c.3,1.37-1,3.09.91,4.09l.16,2.06-.12-.06c-1.46.33-1.2,1.11-.51,2l.15,2.06-.19,3.94c-1.21,1.54-3,2.87-1.66,5.25a2.25,2.25,0,0,1,0,1.91c-.15.41-.49.74-.92.58a.9.9,0,0,1-.29-.82c.71-2-1-2.24-2.14-2.92-.07-5.88,1.25-11.62,1.6-17.46.57-.18,1.43.29,1.68-.55.17-.54-.4-.8-.85-1V96.1c.87-.72.27-.88-.38-1V93.62c.64-.2,1.75,1.11,1.91-.45.1-1,1.62-2.34-.44-3.06.78-2.56-.82-5-.5-7.5h0c.25-.13.68-.23.72-.41.12-.52-.37-.54-.73-.63-.16-1,.36-2.1-.47-3q0-.71.05-1.43h.4c.73-.91,3.19-1.53.49-3l-.87-.1c-.06-.52-.15-1.06.38-1.43s.48-.92.5-1.46Z" transform="translate(-39.97 -17.37)"/><path class="cls-1" d="M128,112.55q.1-2,.19-3.94c1.16-.47,1-1.21.45-2.06l-.09-2,.12,0h1.4c.46,3.45-.73,7,.39,10.37-.13.7-1.69,1.36,0,2.1l1.63,1,.43.63v1.38a1,1,0,0,0-1,1h0c-1.6.19-1.74-1.82-3.06-2v-1.45l-.09-3.09C128.35,113.8,128.67,113.07,128,112.55Z" transform="translate(-39.97 -17.37)"/><path class="cls-11" d="M132.55,84.14c-.31-2.72-2.26-5.14-1.48-8.06,1.56-1.15.34-3.18,1.42-4.48a14.1,14.1,0,0,0,1.08,5.47Z" transform="translate(-39.97 -17.37)"/><path class="cls-1" d="M132.11,87.08h.39c.25,3.64-1.33,7-1.66,10.53-.17,1.81-.5,3.61-.76,5.41-1.15-1.74-.22-3.7-.59-5.52l1-4.47c-.3-1.65.52-3,1.09-4.48C132.18,88.22,132.05,87.62,132.11,87.08Z" transform="translate(-39.97 -17.37)"/><path class="cls-7" d="M129.55,97.5c.37,1.82-.57,3.78.59,5.52v1.56h-1.4l-.16-2.06c-.29-1.37.94-3.07-.91-4.09v-.84Z" transform="translate(-39.97 -17.37)"/><path class="cls-8" d="M130.43,117.06c-1.65-.73-.09-1.4,0-2.1Z" transform="translate(-39.97 -17.37)"/><path class="cls-11" d="M59.55,75.46H61c-.85,1-2,.38-3,.53-3.68-.08-6-2.8-8.87-4.52L49,70.93h1A1.55,1.55,0,0,0,51.5,72c1,1.43,2.53,1.5,4.07,1.45,1,.78,2.6.38,3.49,1.52Z" transform="translate(-39.97 -17.37)"/><path class="cls-2" d="M80.55,89.56c1-.35-.62-1.85.74-1.9,1.16,0,1.64,1,2,2a8.6,8.6,0,0,1,.25,1.94A3.87,3.87,0,0,1,80.55,89.56Z" transform="translate(-39.97 -17.37)"/><path class="cls-2" d="M85.55,95.06l-1-.51v-1.5A1.74,1.74,0,0,1,85.55,95.06Z" transform="translate(-39.97 -17.37)"/><path class="cls-5" d="M67,78.07a3.73,3.73,0,0,1-2-.48C65.74,77.59,66.48,77.4,67,78.07Z" transform="translate(-39.97 -17.37)"/><path class="cls-14" d="M123.79,43l-2.22,1.5a8.79,8.79,0,0,0-1.39-.48c-1.36-.23-2.61-.82-2.06-2.35.47-1.31,1.72-.67,2.7-.31a2.21,2.21,0,0,0,.62-.08l-.38-1.82a2.15,2.15,0,0,1,3,.32c-.9.83-.08,1,.48,1.25h0v1.47h0C124.11,42.44,123.93,42.71,123.79,43Z" transform="translate(-39.97 -17.37)"/><path class="cls-2" d="M121.07,39.5l.38,1.82c-.31,0-.49.13-.62.08-1-.37-2.23-1-2.7.31-.55,1.53.7,2.12,2.06,2.35a8.79,8.79,0,0,1,1.39.48c-2,1.79-3.68.49-5.41-.49C116.2,40.24,116.74,39.74,121.07,39.5Z" transform="translate(-39.97 -17.37)"/><path class="cls-9" d="M124.55,42.52V41.05c1.07,0,1.07.68,1,1.44Z" transform="translate(-39.97 -17.37)"/><path class="cls-9" d="M124.55,41.06c-.56-.26-1.38-.42-.48-1.25A1.28,1.28,0,0,1,124.55,41.06Z" transform="translate(-39.97 -17.37)"/><path class="cls-11" d="M117.55,80.51a27.81,27.81,0,0,1,1.47-11c1.21.77.62,2.94,2.49,3.22a9.51,9.51,0,0,1,1.17.32,1.68,1.68,0,0,0,.37,1.64l-.11.77c-1.73.82-.71,2.36-.92,3.57h0A5.24,5.24,0,0,1,117.55,80.51Z" transform="translate(-39.97 -17.37)"/><path class="cls-8" d="M123.08,74.7a1.69,1.69,0,0,1-.37-1.64l1.23-4.79.16,2.84L124,72Z" transform="translate(-39.97 -17.37)"/><path class="cls-5" d="M124.09,71.14l-.16-2.84.67-3.21a17.81,17.81,0,0,1,.29,6Z" transform="translate(-39.97 -17.37)"/><path class="cls-12" d="M151.61,42c-.93.59-.23,2.18-1.55,2.53A1.81,1.81,0,0,1,148,43.09V43a10.93,10.93,0,0,0-3.19-5.13c-.36-.31-.53-.89-1.14-.7s-.33.61-.28,1c.16,1.14-.82.71-1.33.93h0l-.52-.51h0a.74.74,0,0,0-.91-.48c-2.13-1.82-3.9-4.2-7-4.45,0-1.09-.7-1.51-1.67-1.75s-2-.64-3-1L130.05,26c.4.06,1,0,1.19.21,3.12,3.7,7.78,5.22,11.42,8.18.77.63,1.55,1,2.34,0a1.24,1.24,0,0,1,1,.59c-.38.27-.59.79-.18,1,1.31.53,2.2,1.82,3.69,2l.49.54a.87.87,0,0,0,1,1h0a1.05,1.05,0,0,0,.49,1Z" transform="translate(-39.97 -17.37)"/><path class="cls-7" d="M129,31c1,.33,2,.72,3,1s1.64.66,1.67,1.75c-.72.7-1.69.5-2.53.58-2.75.26-3.57-.82-2.51-3.18Z" transform="translate(-39.97 -17.37)"/><path class="cls-4" d="M122.09,33.14c-1.19-.55-.92-2-1.71-2.79.37-1.27-.26-2.71.62-3.9.4,1.18-.81,2.84,1.07,3.58.14.85.84.86,1.48,1,0,.77.38,1.09,1.13,1l1.54.06C125.12,33.55,123.46,32.79,122.09,33.14Z" transform="translate(-39.97 -17.37)"/><path class="cls-3" d="M126.22,32.14l-1.54-.06c-.16-.59.21-1,.42-1.51.86-.43,1.13-1.82,2.44-1.51v1.1C127.08,30.76,127.42,32,126.22,32.14Z" transform="translate(-39.97 -17.37)"/><path class="cls-4" d="M127.55,30.14V29l.42-.56.15.12a1.25,1.25,0,0,0,.16.43l-.19,1Z" transform="translate(-39.97 -17.37)"/><path class="cls-2" d="M140.61,38.14a.74.74,0,0,1,.91.48A.86.86,0,0,1,140.61,38.14Z" transform="translate(-39.97 -17.37)"/><path class="cls-2" d="M141.55,38.58l.52.51Z" transform="translate(-39.97 -17.37)"/><path class="cls-11" d="M60.64,51.08a6.24,6.24,0,0,1,.49-3.52c1.3-.07,2.08-1.41,2.57-2,1.19-1.48,1.89-.64,2.86-.19,1.37.64,2.18,2.31,4,2.19a3.45,3.45,0,0,1-.35,2A3.8,3.8,0,0,1,68.09,49l-3.27-1.61c-.45-.22-1.27-.32-1.09.29.64,2.13-1.45,1.54-2.11,2.34v1Z" transform="translate(-39.97 -17.37)"/><path class="cls-10" d="M70.17,49.57a3.45,3.45,0,0,0,.35-2l.08-2.92c.38-.14,1-.24.78-.75-.68-1.89.53-1.85,1.77-1.84A72.83,72.83,0,0,0,71,52.54H70Z" transform="translate(-39.97 -17.37)"/><path class="cls-1" d="M69.46,40.26c.47,1.41,1.15,2.77,1,4.32C68.93,43.72,67.06,43.2,67,41,67.72,40.41,68.38,39.6,69.46,40.26Z" transform="translate(-39.97 -17.37)"/><path class="cls-4" d="M84.6,114.57l.42.61Z" transform="translate(-39.97 -17.37)"/><path class="cls-10" d="M99,121.39c-1.56-1.44-1.3-3.53-1.89-5.32a8,8,0,0,0-.77-3.6c-1.16-3.32-2.22-6.65-3.6-9.91-1.17-2.75-2-5.69-3.12-8.51-1.4-5.07-1.72-10.61-5.25-14.82-2.48-3-4.65-6.44-8.61-7.81-1.89-.65-3-2.61-5.16-2.83l-6-3.09-5-4-.49-1,.62-3.18.93,2.17a3,3,0,0,0,1.2,2.34c1.67,1.3,3.49,2.41,5.24,3.6,6.75,2.92,13.06,6.48,18,12.13h0c2,3.91,4.1,7.75,4.63,12.21a10.89,10.89,0,0,0,.82,2.31l.19,1a1,1,0,0,0,.4,1c.42,1.38.5,2.88,1.42,4.09l3.41,8.94c.69,3.54,2.28,6.85,2.71,10.46C98.6,118.85,99.25,120.07,99,121.39Z" transform="translate(-39.97 -17.37)"/><path class="cls-7" d="M59.06,60.54l.49,1v2.07c0,1.38,1.29,1.69,2,2.48l-.51.53c-.67,0-1,.29-1,1-1.25.41-2.56-.08-3.86.44-1,.4-1.77-.17-1.59-1.44a4,4,0,0,0,1.82-4.4c-.73,1.53-1.11,2.83-2.4,3.44l-2-.55c.22-1.85,1.92-2.45,3.05-3.48a3.42,3.42,0,0,0,1.24-3.25,2.81,2.81,0,0,0-2.65-2.23c-1.37-.2-2.76-.36-4.13-.54v-1c.7-.21,1.42-.37,2.09-.64,2.12-.86,4.23-1.76,6.34-2.64-.39,2.35.19,4.73-.34,7.09a1.64,1.64,0,0,0,1.45,2.12Z" transform="translate(-39.97 -17.37)"/><path class="cls-15" d="M67.05,65.46c-1.76-1.19-3.57-2.3-5.24-3.6a3,3,0,0,1-1.2-2.34c2,.19-.78-1.85,1-2.09.86-.11.8-.57-1.42-1.87.6-1.45.28-3,.46-4.49h.92a9.21,9.21,0,0,0,5.49,3h0c1,1-.73,2.73,1,3.49a1.07,1.07,0,0,1-.52,1c-.77.39-2-1.09-2.3.22s1.3,1.11,2.14,1.44a11.38,11.38,0,0,0,1.19.33c.5.47,1.47.24,1.76,1.11-1.89.59-2.13.72-1.86,1.2.57,1,.41,1-.64.94S67.22,64.85,67.05,65.46Z" transform="translate(-39.97 -17.37)"/><path class="cls-10" d="M58,51.31c-2.11.88-4.22,1.78-6.34,2.64-.67.27-1.39.43-2.09.64l-2.42-.31L46.06,54l-1.89-.7L43.05,52.2l.06-.69.92.15c2.45,3,10,1.71,12.05-1.53l1.38-.67.07.06A2.66,2.66,0,0,1,58,51.31Z" transform="translate(-39.97 -17.37)"/><path class="cls-8" d="M55.08,45a11.85,11.85,0,0,1,3.76.61l.59,1.06L57.5,48.61C56.49,47.54,56.43,45.84,55.08,45Z" transform="translate(-39.97 -17.37)"/><path class="cls-4" d="M60.18,55.57c2.21,1.3,2.27,1.76,1.42,1.87-1.77.23,1,2.28-1,2.09l-.93-2.17Z" transform="translate(-39.97 -17.37)"/><path class="cls-10" d="M57.55,48.61l1.93-1.94c1.12,1.72.94,2-1.91,2.86l-.07-.06Z" transform="translate(-39.97 -17.37)"/><path class="cls-12" d="M46.06,54l1.07.25c0,1.94,1.51,1,2.43,1.27,1.38.18,2.76.33,4.13.54a2.81,2.81,0,0,1,2.65,2.23,3.42,3.42,0,0,1-1.24,3.25c-1.14,1-2.84,1.63-3.05,3.48h-.5l-1-2c2.79-1.37.73-2.52-.74-4a14,14,0,0,1,1.71.28c.47.16.95,1,1.4.18s-.45-.9-.89-1.25a3.45,3.45,0,0,0-4.19,0c-1.08.77-.91,2.47-.73,3.85-1.36.86-.93,2.26-1.05,3.5-1.5-.18-.77-2.44-2.37-2.53a8.81,8.81,0,0,1-1.15-4.31c.09-.6-.06-1.27.58-1.68A4,4,0,0,0,46.06,54Z" transform="translate(-39.97 -17.37)"/><path class="cls-13" d="M50.55,63.05l1,2c-1.07.65-1.2,1.29,0,1.93s.84,2,.82,2.91c0,1.14-1.15.2-1.76.33-.22,0-.36.46-.54.7h-1a1.21,1.21,0,0,0-.49,0h0a1.32,1.32,0,0,0,.06-.46c.32-.77-.33-.44-.61-.54h0l-.54-.49v-1c.51-1.51-.17-2.42-1.51-3h0c.12-1.24-.31-2.64,1.05-3.5A4.09,4.09,0,0,1,50.55,63.05Z" transform="translate(-39.97 -17.37)"/><path class="cls-7" d="M43.08,57.06c-.64.4-.49,1.08-.58,1.68a11.66,11.66,0,0,1-1.36-5.23c-.12-1.3.41-2.13,1.91-1.3l1.12,1.13C44.37,54.74,43.33,55.78,43.08,57.06Z" transform="translate(-39.97 -17.37)"/><path class="cls-11" d="M43.65,63c1.6.08.88,2.35,2.37,2.53h0V68l-.22.19C44.29,66.85,44.22,64.84,43.65,63Z" transform="translate(-39.97 -17.37)"/><path class="cls-4" d="M47.55,68.55v1a1.09,1.09,0,0,1-1-.62,3.39,3.39,0,0,1,0-.44Z" transform="translate(-39.97 -17.37)"/><path class="cls-11" d="M46.55,68.51a3.39,3.39,0,0,0,0,.44l-.71-.74.22-.18Z" transform="translate(-39.97 -17.37)"/><path class="cls-4" d="M48.05,70c.27.1.93-.24.61.54Z" transform="translate(-39.97 -17.37)"/><path class="cls-4" d="M47.55,69.55l.54.49Z" transform="translate(-39.97 -17.37)"/><path class="cls-7" d="M100.55,55.54c1.5-.62,2.34-2,3.49-3,1.7,1,3.87.3,5.53,1.48-1.26,2.79.67,4.16,2.49,5.58l.08,1.41c-1.95,0-4.13-.33-3.67,2.87.1.71-.78.65-1.34.68-1.53-2.32-2.1-5.37-5-6.6C102,56.86,100.05,57,100.55,55.54Z" transform="translate(-39.97 -17.37)"/><path class="cls-12" d="M107.1,64.53c.56,0,1.45,0,1.34-.68C108,60.64,110.16,61,112.11,61h0c.2,1.1-.87,2.63,1.07,3.13l.42,6.49c-.22,1.18.76,2.26.3,3.46-1.35-1.27-2.32-3.24-4.73-2.55C108.47,69.2,107.41,67,107.1,64.53Z" transform="translate(-39.97 -17.37)"/><path class="cls-1" d="M112,59.56c-1.82-1.42-3.74-2.79-2.49-5.58l1,.06C110.48,56,112.74,57.39,112,59.56Z" transform="translate(-39.97 -17.37)"/><path class="cls-7" d="M113.17,64.14c-1.94-.5-.88-2-1.07-3.13C113.91,61.54,113.61,62.81,113.17,64.14Z" transform="translate(-39.97 -17.37)"/><path class="cls-13" d="M84.55,28.52c1.8-.82,3.7-.22,5.55-.39l1,.67L91,31.18a4.28,4.28,0,0,1-2.25.93c-1.37,0-1.41.49-1.08,1.9.73,3,2.18,1.66,3.65,1,1.31.81,1.36.94.38,1.38s-1,.89-.2,1.51l-.41.67c-3.61.52-5.78-1.22-7-4.44C85,32.3,83.68,30.31,84.55,28.52Z" transform="translate(-39.97 -17.37)"/><path class="cls-10" d="M84,34.09c1.25,3.22,3.42,5,7,4.44v1l-1.52.16A6.34,6.34,0,0,1,86,38.62l-1.73-1.5a9.94,9.94,0,0,1-1.77-4.52c-.17-.52-.42-1.08.52-1.07A6.6,6.6,0,0,0,84,34.09Z" transform="translate(-39.97 -17.37)"/><path class="cls-3" d="M91.48,37.85c-.8-.62-.89-1,.2-1.51s.93-.57-.37-1.38l.31-1.42c.9-1.11.08-1.78-.63-2.48v.08l.11-2.38c1.26,2.2,2.85,4.32,2.16,7.06C93,36.7,92.84,37.88,91.48,37.85Z" transform="translate(-39.97 -17.37)"/><path class="cls-4" d="M89.55,39.68l1.52-.16.52.52a4.27,4.27,0,0,1-3.46,2.54h0A3.08,3.08,0,0,1,89.55,39.68Z" transform="translate(-39.97 -17.37)"/><path class="cls-14" d="M100.13,41.51a3.21,3.21,0,0,1-1.07-2c.86-1.47,1.74-2.88,3.74-1.5l-.35,1a2.27,2.27,0,0,0-.86,2Z" transform="translate(-39.97 -17.37)"/><path class="cls-9" d="M101.55,41.06a2.27,2.27,0,0,1,.86-2,1.36,1.36,0,0,1,1,2C103,42.05,102.2,41.43,101.55,41.06Z" transform="translate(-39.97 -17.37)"/><path class="cls-11" d="M127.55,19.65,128,21c-1.19.63-2.38-1.41-3.58,0h-.83V20C124.71,18.31,126.09,18.57,127.55,19.65Z" transform="translate(-39.97 -17.37)"/><path class="cls-3" d="M122.08,30.05c-1.88-.74-.67-2.4-1.07-3.58v-2a1.17,1.17,0,0,0,0-.45q.09-.23.16-.47L122,23l.09,4.65Z" transform="translate(-39.97 -17.37)"/><path class="cls-9" d="M122,23l-.84.56c-.16-1.8.42-3.11,2.31-3.58v1C122.64,21.39,122.47,22.31,122,23Z" transform="translate(-39.97 -17.37)"/><path class="cls-9" d="M121,24.06a1.17,1.17,0,0,1,0,.45l-.18-.34Z" transform="translate(-39.97 -17.37)"/><path class="cls-8" d="M90,129a1.46,1.46,0,0,1,1.52,1.4s0,.08,0,.12A1.49,1.49,0,0,1,90,129.1S90,129.06,90,129Z" transform="translate(-39.97 -17.37)"/><path class="cls-8" d="M91.55,130.54l.53.53Z" transform="translate(-39.97 -17.37)"/><path class="cls-8" d="M92,131l.55.54Z" transform="translate(-39.97 -17.37)"/><path class="cls-10" d="M85.18,48c-.2.64.23,1.09.47,1.6-1-.11-1.48.28-1.57,1.38-.2,2.38.85,3.73,3.51,5.09A43.24,43.24,0,0,1,98,63L100.64,67A12.52,12.52,0,0,0,102,70.61a.9.9,0,0,0,.12.41l.37.65,1,3.33c.06,1-.17,2.09.41,3,0,5.49.24,11-.27,16.47-.32,3.49-.71,7.09.3,10.6a3.72,3.72,0,0,0-.36,2.92l-.61,1.53c-.87-.71-.45-1.7-.5-2.56-.51-9,1-17.88.34-26.83-.21-2.79-.28-5.64-1.78-8.16-1.61-5-3.57-9.8-9-12l-.54-.44a.25.25,0,0,0-.24-.09A3.35,3.35,0,0,0,89.05,58h0a1,1,0,0,0-1-.52h0c-.19-.45-.6-.49-1-.52l-1-.42c-3-2-4-4.61-2.19-7.92.45-.83-.59-1-.47-1.64l1.18-.67c0,.49.1,1,.65,1.17A.52.52,0,0,0,85.18,48Z" transform="translate(-39.97 -17.37)"/><path class="cls-7" d="M98,63.07a43.23,43.23,0,0,0-10.44-7c-2.66-1.35-3.71-2.71-3.51-5.09.09-1.09.55-1.49,1.57-1.38,1-.82,1.91.18,2.87,0l1.51.07c.13,2,2,3.58,1.69,5.82-.09.65.86.54,1.43.53C94,57.59,95.77,57.66,97,58.6c-.72.67-.09.9.38,1.17s1.16.54,1.15,1.33C98.34,61.72,99.76,62.8,98,63.07Z" transform="translate(-39.97 -17.37)"/><path class="cls-2" d="M84.55,46.37,83.37,47c-1.09.27-1.09,1.27-1.44,2.07s-.28,2-1.39,2.44A1.38,1.38,0,0,1,80.08,50c.71-2.74,1.57-5.45,2.21-8.21.4-1.76,1.11-1.68,2.24-.7.17.33.34.35.51,0h0c1,0,1,.8,1,1.52l-.52,1a5,5,0,0,0-1,2.41A1.35,1.35,0,0,0,84.55,46.37Z" transform="translate(-39.97 -17.37)"/><path class="cls-13" d="M84.55,45.93a5,5,0,0,1,1-2.41h.5C85.92,44.56,86,45.73,84.55,45.93Z" transform="translate(-39.97 -17.37)"/><path class="cls-4" d="M86.05,43.54h-.5l.52-1h2A1.82,1.82,0,0,1,86.05,43.54Z" transform="translate(-39.97 -17.37)"/><path class="cls-13" d="M85.18,48a.52.52,0,0,1,0-.43h.63C85.85,48,85.5,47.94,85.18,48Z" transform="translate(-39.97 -17.37)"/><path class="cls-7" d="M144.41,97.51c1,2-.41,3.49-1,5.18C142.75,100.77,143.78,99.14,144.41,97.51Z" transform="translate(-39.97 -17.37)"/><path class="cls-11" d="M140.55,108.47,140,109Z" transform="translate(-39.97 -17.37)"/><path class="cls-11" d="M140,109l-.5.53Z" transform="translate(-39.97 -17.37)"/><path class="cls-1" d="M93.15,56c-.56,0-1.52.13-1.43-.53C92,53.2,90.16,51.68,90,49.63c1.82-.86,4.23-.91,4.81-3.49,1.81-1.29,2.4-3.32,3.18-5.24.71,1.44,2.65,2.14,2.48,4.12h-.1c-1.26.15-2.23.62-2.32,2.07h0c-.69,0-1,.3-1,1-.67,1.53-2.79,1.63-3.29,3.33-1.57.25-1.2,1.44-1.19,2.45.41,0,.49.25.5.58-.22.21-.52.42,0,.62h0Z" transform="translate(-39.97 -17.37)"/><path class="cls-8" d="M93.06,54.4c0-.33-.09-.59-.5-.58l1-1.22c1.29-.14,1.87-2,3.45-1.42-.44.54-.67,1.06.11,1.52l-.57,1.8a4.8,4.8,0,0,0,3.13,2l-.44,2.12-.43-.54L93,55h0Z" transform="translate(-39.97 -17.37)"/><path class="cls-14" d="M97.16,52.69c-.77-.45-.54-1-.11-1.52l.48-.23c1.25.34,2.27-.7,3.48-.57a2.5,2.5,0,0,1,.43,1.69A4.37,4.37,0,0,1,97.16,52.69Z" transform="translate(-39.97 -17.37)"/><path class="cls-1" d="M101.45,52.06a2.5,2.5,0,0,0-.43-1.69l.09-1.23a1.88,1.88,0,0,1,2.45,1.41L102,52.08Z" transform="translate(-39.97 -17.37)"/><path class="cls-9" d="M101.1,49.14,101,50.37c-1.21-.13-2.24.91-3.48.57a2.71,2.71,0,0,1,3.34-1.87Z" transform="translate(-39.97 -17.37)"/><path class="cls-9" d="M98.07,47.05c.09-1.46,1.06-1.93,2.32-2.07C100.41,46.55,99.14,46.68,98.07,47.05Z" transform="translate(-39.97 -17.37)"/><path class="cls-9" d="M93.6,52.59l-1,1.22c0-1-.39-2.21,1.19-2.45Q93.68,52,93.6,52.59Z" transform="translate(-39.97 -17.37)"/><path class="cls-9" d="M97,48a.88.88,0,0,1,1-1C98.1,47.8,97.73,48.08,97,48Z" transform="translate(-39.97 -17.37)"/><path class="cls-9" d="M124.09,71.14h.8c1-.28.92-1.25,1.18-2a2.88,2.88,0,0,1,.46,0v2h0c-.59.34-.52.91-.5,1.46-.53.37-.44.9-.38,1.43l-.19.62c-.47-.47-.12-1.38-.92-1.67L124,72Z" transform="translate(-39.97 -17.37)"/><path class="cls-2" d="M131,66.05c-1.44-.51-1.33,1.54-2.48,1.51-.09-1.47.75-2.69,1.09-4,.12-.48.48-.9,0-1.3a1.64,1.64,0,0,1-.42-2.22c.66-.94,1.5.19,2.27.07v.49c-.05.85-1.06,2.18,1,2v.52C132,64,131.08,64.82,131,66.05Z" transform="translate(-39.97 -17.37)"/><path class="cls-3" d="M131,66.05c0-1.23,1-2,1.51-3,1,1.88.4,3.86.31,5.8a22.5,22.5,0,0,1-.32,2.71c-1.08,1.3.14,3.33-1.42,4.48-1-.89-.13-1.93,0-2.71A16.81,16.81,0,0,0,131,66.05Z" transform="translate(-39.97 -17.37)"/><path class="cls-11" d="M57.55,48.61v.86l-1.38.67c-1-.83.8-2.54-1-3.11-.12-1-.87-1-1.63-1a.52.52,0,0,1-.36,0,3.82,3.82,0,0,0-4,0H47.55l.72-.88,2.42-.71L55,44.6a2,2,0,0,0,.1.35C56.43,45.84,56.49,47.54,57.55,48.61Z" transform="translate(-39.97 -17.37)"/><path class="cls-8" d="M48.28,45.21l-.72.88-1.17.81-3.91,1.15c1.16-2.35,3.55-2.35,5.63-2.94Z" transform="translate(-39.97 -17.37)"/><path class="cls-8" d="M55,44.65l-4.28-.16c.46-1.39,1.63-1.26,2.71-1.2A24.93,24.93,0,0,1,56,43.7C55.75,44.14,55,44,55,44.65Z" transform="translate(-39.97 -17.37)"/><path class="cls-9" d="M123.79,43c.14-.33.32-.59.74-.5Z" transform="translate(-39.97 -17.37)"/><path class="cls-14" d="M62.32,36.06a2.84,2.84,0,0,1,2.55-1c.3,1.07,1.16,1.37,2.12,1.52l-.17.79C65.25,38.82,63.55,38.33,62.32,36.06Z" transform="translate(-39.97 -17.37)"/><path class="cls-4" d="M66.82,37.4l.17-.79.6-.67.46.08.21.13h.18c-.09,1.08.66,2.54-1.27,2.77Z" transform="translate(-39.97 -17.37)"/><path class="cls-11" d="M82.55,32.59a10,10,0,0,0,1.77,4.52c-1.53.29-2.58-1.14-4.07-1.32,0,1.12,1.34,1.46,1,2.92-2.63-2.42-2.69-1.08-2,1.06-.84.38-1.26-1-2.07-.33C78.11,42,78.09,42,76,44.2c-1,1.06-1.44,2.26-.49,3.62-1.77,1-.73,2.24-.1,3.28-.61.6-1.74-.24-1.62.36.33,1.6-1.83,3-.25,4.59H71.55c-1-1-.26-2.38-.63-3.53A72.86,72.86,0,0,1,73.1,42.05a.21.21,0,0,0,0-.25,1.15,1.15,0,0,0,.51-1.18h0c.37,0,.46-.24.49-.54v.06c1.7-1.82,2.73-4.24,4.95-5.61C80.55,34.4,80.55,31.71,82.55,32.59Zm-6.48,9-.2-.12.21.11.21.12Z" transform="translate(-39.97 -17.37)"/><path class="cls-2" d="M84,34.09a6.6,6.6,0,0,1-1-2.56,6.77,6.77,0,0,1,.56-2.79l1-.21C83.68,30.31,85,32.3,84,34.09Z" transform="translate(-39.97 -17.37)"/><path class="cls-9" d="M67.55,35.94l-.6.67c-1-.15-1.82-.44-2.12-1.52A3.63,3.63,0,0,1,67.55,35.94Z" transform="translate(-39.97 -17.37)"/><path class="cls-10" d="M68.55,36.14H68.3L68.09,36C68.29,35.67,68.43,35.79,68.55,36.14Z" transform="translate(-39.97 -17.37)"/><path class="cls-6" d="M48.55,71A1.21,1.21,0,0,1,49,71l.15.54C48.45,72,48.55,71.47,48.55,71Z" transform="translate(-39.97 -17.37)"/><path class="cls-7" d="M149.55,38c-1.49-.16-2.38-1.45-3.69-2-.42-.17-.21-.69.18-1l2-.09h0C147.82,36.36,150,36.58,149.55,38Z" transform="translate(-39.97 -17.37)"/><path class="cls-7" d="M151.05,39.54a.89.89,0,0,1-1-1,.93.93,0,0,1,1,1Z" transform="translate(-39.97 -17.37)"/><path class="cls-4" d="M151.55,40.55a1.05,1.05,0,0,1-.49-1A.93.93,0,0,1,151.55,40.55Z" transform="translate(-39.97 -17.37)"/><path class="cls-2" d="M109.16,71.53c2.41-.69,3.38,1.28,4.73,2.55l.82.64.18,1.38c-.82,2.38-.26,4.7.46,7,.28.88,0,2.71,1.53,2.26s.07-1.8.14-2.75h.59l.47,1.42a.88.88,0,0,0,.45,1v1l.45.53q.07.21.12.42,0,4.77-.11,9.54c-1.76,1.5-1,3.69-1.5,5.52-1.32-1-2.18-3.38-4.47-1.5l-.53-5c.73-.87.92-1.62-.46-2,.12-1,.67-1.94.45-3a4.88,4.88,0,0,1,2.09-1.17c1.27-.41,1-1.5.63-2.49-.31-.82-.68-2.33-1.59-1.62-1.23,1-1.77-.27-2.62-.19l-.94-.5Z" transform="translate(-39.97 -17.37)"/><path class="cls-1" d="M118.55,86.05v-1c.78-.75.18-.89-.45-1l-.47-1.42V80.52a5.24,5.24,0,0,0,4.47-1.46C121.76,82.55,121,86,121,89.51l-.41.58c-1.1-.75.59-2.76-1.41-3.1q-.05-.21-.12-.42Z" transform="translate(-39.97 -17.37)"/><path class="cls-11" d="M117,82.58c-.06,1,1.36,2.32-.14,2.75s-1.25-1.37-1.53-2.26c-.72-2.27-1.28-4.58-.46-7,.87.39.53,1.78,1.64,2C116.63,79.59,116.26,81.14,117,82.58Z" transform="translate(-39.97 -17.37)"/><path class="cls-7" d="M145.05,34.46c-.79,1-1.57.6-2.34,0-3.63-3-8.3-4.49-11.42-8.18-.2-.24-.78-.15-1.19-.21l.1-1a2.28,2.28,0,0,0,2.58-1.24h.09c.8,1.12,1.5,2.38,3.19,2.24A28.39,28.39,0,0,0,141,29.15C141,32,144,32.44,145.05,34.46Z" transform="translate(-39.97 -17.37)"/><path class="cls-13" d="M122,23c.44-.72.62-1.63,1.51-2h.85c-.11,1.11.69,2.3-.35,3.35a.75.75,0,0,0,.1,1.06l0,0c.54.36,1,.14,1.56-.18.76-.44.71-1.74,1.87-1.7l.46.18c.25,1.58-.68,3.12-.12,4.71l-.42.56c-1.31-.3-1.58,1.08-2.44,1.51l-.61-.5c-.36-1.36.54-2.46,1-3.91l-3.4,1.55Z" transform="translate(-39.97 -17.37)"/><path class="cls-14" d="M127.62,23.58c-1.16,0-1.11,1.26-1.87,1.7-.54.31-1,.54-1.56.18a.75.75,0,0,1-.18-1l0,0c1-1.06.24-2.24.35-3.35,1.19-1.41,2.39.63,3.58,0A2,2,0,0,1,127.62,23.58Z" transform="translate(-39.97 -17.37)"/><path class="cls-1" d="M132.78,23.8A2.28,2.28,0,0,1,130.2,25V23.35C131.13,23,132.07,22.7,132.78,23.8Z" transform="translate(-39.97 -17.37)"/><path class="cls-4" d="M128,28.47c-.56-1.59.37-3.13.12-4.71,1.37,0,1,1.06.91,1.77a26.09,26.09,0,0,1-.46,2.85,1.23,1.23,0,0,1-.43.21Z" transform="translate(-39.97 -17.37)"/><path class="cls-6" d="M128.11,28.6a1.23,1.23,0,0,0,.43-.21l-.27.65A1.27,1.27,0,0,1,128.11,28.6Z" transform="translate(-39.97 -17.37)"/><path class="cls-14" d="M120.1,58.05c1.28-.13,1.75,1.27,2.83,1.51,0,1.33-.48,2.46-2,1.88C119.15,60.81,119.09,59.48,120.1,58.05Z" transform="translate(-39.97 -17.37)"/><path class="cls-10" d="M73.64,40.61a1.15,1.15,0,0,1-.51,1.18C73.1,41.31,73.08,40.84,73.64,40.61Z" transform="translate(-39.97 -17.37)"/><path class="cls-10" d="M74.11,40.08c0,.3-.12.54-.49.54Z" transform="translate(-39.97 -17.37)"/><path class="cls-4" d="M99.27,58.65l.44-2.12c-.2-.71.21-.93.8-1C100,57,102,56.85,102,57.93c-.33,2,2.06,2.49,2.38,4.14-.3.84-.63,1.66-.88,2.51-.43,1.48-1.23,2.47-2.92,2.42L98,63.06c1.73-.26.31-1.35.53-2C100.9,60.89,100.05,59.76,99.27,58.65Z" transform="translate(-39.97 -17.37)"/><path class="cls-9" d="M101.45,52.06H102c-.86,3-3.3,2.38-5.45,2.41l.57-1.8A4.37,4.37,0,0,0,101.45,52.06Z" transform="translate(-39.97 -17.37)"/><path class="cls-2" d="M55.08,47c1.8.56,0,2.28,1,3.11C54,53.37,46.48,54.68,44,51.66c1.15-.92-.32-3.06,1.66-3.59,0,4,3.66,2,5.38,3.2.68.48,1.25.18,1.76-.35a.88.88,0,0,1,.18-.17c1.46-.84,1.23-2.33,1.38-3.66Z" transform="translate(-39.97 -17.37)"/><path class="cls-14" d="M54.39,47.09c-.15,1.34.09,2.82-1.38,3.66a.88.88,0,0,0-.18.17c-.5.53-1.08.83-1.76.35-1.72-1.2-5.34.81-5.38-3.2l.81-.44c1.56.51,2.63,3.1,5,1.26-.93-.75-2.5-.44-2.27-2.06L53.11,46a.52.52,0,0,0,.36,0Z" transform="translate(-39.97 -17.37)"/><path class="cls-13" d="M49.2,46.83c-.22,1.62,1.34,1.31,2.27,2.06-2.34,1.84-3.42-.74-5-1.26l-.11-.74,1.17-.82H49Z" transform="translate(-39.97 -17.37)"/><path class="cls-1" d="M145.05,34.46c-1-2-4.1-2.51-4.07-5.35h1c1.56.91,2.58,2.62,4.46,3.07-.14,1.37,1.85,1.41,1.72,2.77l-2,.09A1.24,1.24,0,0,0,145.05,34.46Z" transform="translate(-39.97 -17.37)"/><path class="cls-9" d="M136.49,113l-.48.52a2.9,2.9,0,0,1,.06-.43Z" transform="translate(-39.97 -17.37)"/><path class="cls-2" d="M128.55,69c.68.1,1.43.28,1.28,1.14s-1,.86-1.79.89A3.23,3.23,0,0,1,128.55,69Z" transform="translate(-39.97 -17.37)"/><path class="cls-4" d="M124.63,99.09c-.35,5.84-1.67,11.59-1.6,17.46a1.61,1.61,0,0,0-.25,2.23c2.14,2.24,1.31,4.24-.22,6.28-1.45-.28-1.52-1.62-1.93-2.64-.24-.6-.1-1.56-.88-1.6-1,0-.85,1.08-1.09,1.7-1.51,4-2.1,8.26-3.7,12.24-.72,1.78-1.05,3.69-3.59,1.87-.48-.34-1.34.09-1.82-.56.83-1.22.08-2.83,1-4,.73-1.31-.05-3.26,1.83-4.39.3,2.55,0,5,1.18,7.39.77-1.26,1.27-2.36.88-3.59-.61-1.92.06-3.65.62-5.41,1-.25.86-1.1,1-1.82.65-2.56.81-5.32,3.06-7.25,1.49-1.28,1.55-3.43,2.76-5a2.24,2.24,0,0,0,.2-2.13c-1-2.15-.62-4.34-.24-6.54.17-1,.5-2-.3-2.82V100c1.26-.19.84-1.19.93-1.94q.49-3.76,1-7.52A22.48,22.48,0,0,0,125.15,82l.86.47c-.32,2.53,1.27,4.94.5,7.5-.84.55-.58,1.85-1.91,2.26-1.11.35,0,.89.44,1.25V95a1,1,0,0,0,.38,1v1.48A1.41,1.41,0,0,0,124.63,99.09Z" transform="translate(-39.97 -17.37)"/><path class="cls-2" d="M102.08,134c2.82-.51,3.36-1.53,2.2-4-.76-1.64-1.86-3.13-2.24-4.94,2.11-.29,2.4,2.42,4.24,2.57-1.14,1.75.35,1.37,1.19,1.43a1.7,1.7,0,0,1,1.56,1l-.51.49c-.22.12-.92-.23-.52.51l.54,1v.49a.89.89,0,0,0-1,1v1c-1.5.35-.88,1.57-1,2.45a18.2,18.2,0,0,1-.33,3.29C105.49,137.7,102.55,136.7,102.08,134Z" transform="translate(-39.97 -17.37)"/><path class="cls-2" d="M122.55,125.05c1.53-2,2.36-4,.22-6.28a1.61,1.61,0,0,1,.25-2.23c1.1.69,2.86.87,2.14,2.92a.9.9,0,0,0,.29.82c.44.16.77-.17.92-.58a2.25,2.25,0,0,0,0-1.91c-1.35-2.37.46-3.71,1.66-5.25.66.52.34,1.25.41,1.9-1.2,1.07-1.48,2.11.09,3.09V119c-1.27.42-1.35,1.48-1.38,2.56-1.1.91-.61,2.52-1.54,3.5l-2.92.54Z" transform="translate(-39.97 -17.37)"/><path class="cls-4" d="M95.55,126.05c1.34,1.19,1.37,3.52,3.5,4v1.49c-2.28.06-2.93-2.85-5.18-2.84,1.28-2.36-1.71-1.55-2.13-2.82C93.09,125.05,94.3,126.49,95.55,126.05Z" transform="translate(-39.97 -17.37)"/><path class="cls-11" d="M108.55,132.54v-.49h2c-.92,1.2-.17,2.81-1,4-1.09,0-1.92-.27-2-1.54v-1C108,133.38,109,133.66,108.55,132.54Z" transform="translate(-39.97 -17.37)"/><path class="cls-2" d="M101.55,133.06l.47,1c-.45,0-1.06.19-1.23-.37S101.25,133.14,101.55,133.06Z" transform="translate(-39.97 -17.37)"/><path class="cls-2" d="M122.06,129.55c.75.78.13.9-.49,1A1,1,0,0,1,122.06,129.55Z" transform="translate(-39.97 -17.37)"/><path class="cls-12" d="M125.55,125.05c.93-1,.44-2.59,1.54-3.5.7.62.4,1.32.21,2a68.34,68.34,0,0,0-1.74,9.44c0,.55.08,1.14-.5,1.51l-1.54-.5v-2.5a.89.89,0,0,0,1-1A12.18,12.18,0,0,0,125.55,125.05Z" transform="translate(-39.97 -17.37)"/><path class="cls-2" d="M123.55,134.05l1.54.5v2l-1,.51C124.73,135.9,122.17,135.33,123.55,134.05Z" transform="translate(-39.97 -17.37)"/><path class="cls-2" d="M124.55,130.53a.89.89,0,0,1-1,1,.92.92,0,0,1,.83-1Z" transform="translate(-39.97 -17.37)"/><path class="cls-3" d="M151.07,55.53c.25.14.69.23.73.41.11.53-.38.54-.74.61Z" transform="translate(-39.97 -17.37)"/><path class="cls-3" d="M149.55,90.58l-.87-1.13c-.28-.36-.8-.74-.24-1.16.19-.14.72.16,1.1.26C149.45,89.22,151.63,89.89,149.55,90.58Z" transform="translate(-39.97 -17.37)"/><path class="cls-3" d="M149,86.56V86c.52.41,1.35.72.48,1.55A1.07,1.07,0,0,1,149,86.56Z" transform="translate(-39.97 -17.37)"/><path class="cls-7" d="M153,95.55l-.34,1.07C151.75,95.93,152.26,95.7,153,95.55Z" transform="translate(-39.97 -17.37)"/><path class="cls-3" d="M148.36,91.14c-.14.06-.32.19-.42.14s-.12-.26-.18-.4c.14,0,.32-.19.42-.14S148.31,91.05,148.36,91.14Z" transform="translate(-39.97 -17.37)"/><path class="cls-7" d="M125.55,133.05a68.34,68.34,0,0,1,1.74-9.44c.19-.73.49-1.43-.21-2,0-1.08.11-2.14,1.38-2.56,1.33.22,1.46,2.23,3.06,2-1.82,1.83-2.35,4.47-4,6.39-.68.76-.33,1.69-.24,2.6C127.36,131.32,127.38,132.75,125.55,133.05Z" transform="translate(-39.97 -17.37)"/><path class="cls-12" d="M109,130.05a1.7,1.7,0,0,0-1.56-1c-.85-.06-2.33.32-1.19-1.43-1.84-.15-2.13-2.86-4.24-2.57L99,121.38c.29-1.32-.36-2.54-.39-3.83,2.15,0,3.68-.69,3.5-3.24a1.32,1.32,0,0,1,.52-1.29c1,1.77-.15,3.72.48,5.51-1.46.41-1.46,1.71-1.41,2.78s.42,2.2,1.68,2.06.6-1.32.71-2.07a8.28,8.28,0,0,0,0-1.24,1.1,1.1,0,0,1,.41-.15c1.42,2.65,2.87,5.29,4.22,8C109,128.53,110,129.14,109,130.05Z" transform="translate(-39.97 -17.37)"/><path class="cls-2" d="M89.55,94.05c1.08,2.83,2,5.77,3.12,8.51,1.38,3.26,2.45,6.59,3.6,9.91a8,8,0,0,1,.77,3.6,6.39,6.39,0,0,1-3.67-4.17c-.77-3-1.92-5.68-1.83-9,.05-1.91-1.65-4.4-2.27-6.75A2.59,2.59,0,0,1,89.55,94.05Z" transform="translate(-39.97 -17.37)"/><path class="cls-2" d="M50,70.94c.18-.24.32-.66.54-.7.61-.13,1.74.81,1.76-.33,0-.9.42-2.25-.82-2.91s-1.08-1.28,0-1.93h.55l2,.55a1,1,0,0,0,.59,1c-.18,1.27.58,1.84,1.59,1.44,1.3-.52,2.61,0,3.86-.44,1.18,0,1.82.44,1.78,1.71-3.78-.82-5.55-.08-6.8,2.81-1.17.53-2.31-1.92-3.48,0A1.55,1.55,0,0,1,50,70.94Z" transform="translate(-39.97 -17.37)"/><path class="cls-3" d="M64.61,65.48l6,3.09c-1.16,2.11-3,2.54-5.54,1.08a5,5,0,0,1-2.54-2.54l.09-.1c1.44-.33,2.23,1.57,3.87,1.21-.59-1.08-1.93-1.39-1.92-2.65Z" transform="translate(-39.97 -17.37)"/><path class="cls-4" d="M51.55,72c1.18-1.89,2.32.55,3.48,0l.59,1.43C54.08,73.54,52.55,73.47,51.55,72Z" transform="translate(-39.97 -17.37)"/><path class="cls-3" d="M61,66.57l.51-.53a1,1,0,0,1,1,1l-.09.1C62,67.06,61.38,67.14,61,66.57Z" transform="translate(-39.97 -17.37)"/><path class="cls-3" d="M59.55,75.46,59.07,75Z" transform="translate(-39.97 -17.37)"/><path class="cls-4" d="M88.55,115.54a1.73,1.73,0,0,1,.94,2c-.61-.1-1.4.26-1.78-.46S88.31,116.08,88.55,115.54Z" transform="translate(-39.97 -17.37)"/><path class="cls-4" d="M88.11,114.05c.54.37.44,1,.46,1.48-.72,0-1.61-.2-1.72-.91S87.63,114.14,88.11,114.05Z" transform="translate(-39.97 -17.37)"/><path class="cls-9" d="M125.19,82.08a22.49,22.49,0,0,1-1.68,8.47c-1.55-.07-1.67,1-1.59,2.1s.48,2.08-.38,3c-1.28-1.68-.9-3.65-1-5.54l.41-.59h.64c1.31.2,1.22-.9,1.52-1.64,1.55-3.86,1-8.13,2.33-12l.21,1.23-.06,1.43A5.27,5.27,0,0,0,125.19,82.08Z" transform="translate(-39.97 -17.37)"/><path class="cls-2" d="M129.55,97.5l-1.89.12c-.23-2.28,0-4.3,2.89-4.59Z" transform="translate(-39.97 -17.37)"/><path class="cls-2" d="M125.08,93.56c-.42-.36-1.55-.9-.44-1.25,1.33-.41,1.07-1.71,1.91-2.26,2.07.72.54,2.06.44,3.06C126.83,94.67,125.72,93.35,125.08,93.56Z" transform="translate(-39.97 -17.37)"/><path class="cls-2" d="M127.62,98.47c1.85,1,.62,2.73.91,4.09C126.55,101.56,127.91,99.83,127.62,98.47Z" transform="translate(-39.97 -17.37)"/><path class="cls-3" d="M125.19,82.08a5.27,5.27,0,0,1,.41-3.55c.83.89.31,2,.47,3v1h0Z" transform="translate(-39.97 -17.37)"/><path class="cls-2" d="M126.55,74.06c2.7,1.46.24,2.09-.49,3Z" transform="translate(-39.97 -17.37)"/><path class="cls-2" d="M124.63,99.09a1.41,1.41,0,0,1,.84-1.55c.45.2,1,.46.85,1C126.06,99.38,125.2,98.91,124.63,99.09Z" transform="translate(-39.97 -17.37)"/><path class="cls-3" d="M126.55,74.06l-.49,3h-.4l-.21-1.23v-1.3l.19-.62Z" transform="translate(-39.97 -17.37)"/><path class="cls-7" d="M128.65,106.55c.58.85.7,1.6-.45,2.06q-.07-1-.15-2.06Z" transform="translate(-39.97 -17.37)"/><path class="cls-2" d="M128.65,106.55h-.6c-.69-.88-.95-1.66.51-2Z" transform="translate(-39.97 -17.37)"/><path class="cls-2" d="M132.11,87.08c-.06.53.07,1.13-.53,1.48C130.72,87.7,131,87.23,132.11,87.08Z" transform="translate(-39.97 -17.37)"/><path class="cls-2" d="M126.08,82.56v-1c.36.09.85.1.73.63C126.76,82.34,126.33,82.43,126.08,82.56Z" transform="translate(-39.97 -17.37)"/><path class="cls-2" d="M125.47,96.06a1,1,0,0,1-.38-1C125.74,95.14,126.34,95.34,125.47,96.06Z" transform="translate(-39.97 -17.37)"/><path class="cls-3" d="M126.06,72.53c0-.55-.09-1.12.5-1.46C126.55,71.61,126.63,72.14,126.06,72.53Z" transform="translate(-39.97 -17.37)"/><path class="cls-7" d="M128.55,117.54c-1.57-1-1.29-2-.09-3.09Q128.46,116,128.55,117.54Z" transform="translate(-39.97 -17.37)"/><path class="cls-5" d="M121.55,89.56h-.64c0-3.52.75-7,1.09-10.45h0c.92-1,.5-2.41.92-3.57l.11-.77.93-2.72.54.94C123.5,78.45,122.25,84,121.55,89.56Z" transform="translate(-39.97 -17.37)"/><path class="cls-1" d="M123,75.47c-.42,1.16,0,2.54-.92,3.57C122.27,77.82,121.24,76.29,123,75.47Z" transform="translate(-39.97 -17.37)"/><path class="cls-14" d="M122.11,27.68l3.44-1.54c-.49,1.45-1.39,2.55-1,3.91l-.93,1c-.64-.1-1.33-.11-1.48-1Z" transform="translate(-39.97 -17.37)"/><path class="cls-9" d="M123.55,31l.93-1,.61.5c-.2.48-.58.92-.42,1.51C123.94,32.14,123.55,31.78,123.55,31Z" transform="translate(-39.97 -17.37)"/><path class="cls-4" d="M68.05,57.55c-1.73-.76,0-2.53-1-3.49.72,0,1.91.14.65-1-.76-.72-1.9-1-2.31-2.19,1-.51,2.46-.17,2.66-1.76a3.8,3.8,0,0,0,2.12.53Q70.09,51,70,52.5c-1,1.54-.28,3.07,0,4.59C69.55,57.78,68.74,57.48,68.05,57.55Z" transform="translate(-39.97 -17.37)"/><path class="cls-15" d="M68.05,49c-.19,1.59-1.7,1.25-2.66,1.76C65.8,52,66.94,52.27,67.7,53c1.25,1.19.06,1-.65,1h0l-5.47-4c.65-.8,2.75-.21,2.11-2.34-.18-.61.63-.5,1.09-.29C65.87,48,67,48.51,68.05,49Z" transform="translate(-39.97 -17.37)"/><path class="cls-4" d="M61.55,50.06l5.47,4a9.21,9.21,0,0,1-5.49-3Z" transform="translate(-39.97 -17.37)"/><path class="cls-6" d="M70.05,57.07c-.33-1.53-1-3,0-4.59h1c.37,1.15-.41,2.5.63,3.53v.58Z" transform="translate(-39.97 -17.37)"/><path class="cls-13" d="M101.08,72c1.5,2.52,1.57,5.38,1.78,8.16.67,9-.85,17.88-.34,26.83,0,.86-.38,1.85.5,2.56a2.72,2.72,0,0,1,0,.47,1,1,0,0,0-.91.71c-.19.63.26,1.78-.93,1.66s-1.62-1-1.61-2.18a7.15,7.15,0,0,1,.33-3,.72.72,0,0,0-.22-1l-.11-.06a2.1,2.1,0,0,0-.91,0c-.31,2.26-1.83.75-2.79.91l-3.42-8.93c1.69.26,1.39-1.49,2.16-2.15l2.29,9.8.53-.09-1-8.17c2.75.64,3,.34,2.68-2.64-.24-2-.25-4.14-.62-6.16-.32-1.79-.08-3.88-2.17-5-.41-.22-1.15-1-.18-1.58,2-1.08,2.17-2.79,1.92-4.72,1.11-.82-.18-1.57-.06-2.36V73.55L97.5,71C98.81,71,99.61,72.77,101.08,72Z" transform="translate(-39.97 -17.37)"/><path class="cls-4" d="M94.61,96c-.77.66-.47,2.41-2.16,2.15-.92-1.21-1-2.71-1.42-4.09a1.06,1.06,0,0,0-.4-1l-.18-1a1,1,0,0,0,.47-1.27c-.71-2.61-1.23-5.28-2.19-7.8-.78-2-1.42-4.38-3.73-5.46h0a2.3,2.3,0,0,0-.87-2.2c-1.87-1.77-3.65-3.65-5.62-5.3a5,5,0,0,1-1.6-2.64c-.16-.6,1.06-.82,1.78-1,.58.77,1.69.53,2.31,1.32,2.48,3.18,5.65,5.83,7.62,9.41C91.86,83.08,93.08,89.6,94.61,96Z" transform="translate(-39.97 -17.37)"/><path class="cls-3" d="M78.7,66.48c-.73.15-1.94.37-1.78,1a5,5,0,0,0,1.6,2.64c2,1.65,3.75,3.53,5.62,5.3a2.3,2.3,0,0,1,.87,2.2C80.11,72,73.8,68.41,67,65.49c.17-.61-.43-1.74.77-1.67s1.21.08.64-.94c-.27-.48,0-.62,1.86-1.2-.29-.86-1.25-.63-1.76-1.11,0-.86-.72-1.31-1-2a1.07,1.07,0,0,0,.52-1c.69-.06,1.46.23,2-.47l1.53-.45v.9c.63,3.38,2.18,6.09,5.42,7.64A10.57,10.57,0,0,1,78.7,66.48Z" transform="translate(-39.97 -17.37)"/><path class="cls-2" d="M95.86,107.14c1-.16,2.49,1.35,2.79-.91a2.1,2.1,0,0,1,.91,0,.72.72,0,0,1,.39.94l-.06.11a7.15,7.15,0,0,0-.33,3c0,1.13.46,2.06,1.61,2.18s.75-1,.93-1.66a1,1,0,0,1,.92-.71l.07,1.65-.5,1.35a1.32,1.32,0,0,0-.52,1.29c.18,2.55-1.35,3.22-3.5,3.24C98.13,114,96.55,110.64,95.86,107.14Z" transform="translate(-39.97 -17.37)"/><path class="cls-3" d="M85,77.59c2.31,1.08,2.94,3.4,3.73,5.46a71.49,71.49,0,0,1,2.19,7.8,1,1,0,0,1-.47,1.27,10.85,10.85,0,0,1-.82-2.31C89.09,85.34,87,81.5,85,77.59Z" transform="translate(-39.97 -17.37)"/><path class="cls-3" d="M59.55,63.56V61.49l5,4-.09.1C62.55,65.74,61.43,63.67,59.55,63.56Z" transform="translate(-39.97 -17.37)"/><path class="cls-3" d="M90.63,93.06a1.06,1.06,0,0,1,.4,1A1,1,0,0,1,90.63,93.06Z" transform="translate(-39.97 -17.37)"/><path class="cls-15" d="M59.55,63.56c1.88.11,3,2.18,5,2,0,1.26,1.33,1.57,1.92,2.65C64.83,68.58,64,66.67,62.6,67a1,1,0,0,0-1-1C60.84,65.25,59.55,64.94,59.55,63.56Z" transform="translate(-39.97 -17.37)"/><path class="cls-4" d="M54.55,66.55a1,1,0,0,1-.59-1c1.3-.61,1.68-1.91,2.4-3.44A4,4,0,0,1,54.55,66.55Z" transform="translate(-39.97 -17.37)"/><path class="cls-4" d="M49.55,55.55c-.91-.23-2.41.67-2.43-1.27l2.42.31Q49.55,55.07,49.55,55.55Z" transform="translate(-39.97 -17.37)"/><path class="cls-13" d="M67.55,58.56c.31.68,1.07,1.12,1,2a11.39,11.39,0,0,1-1.19-.33c-.84-.33-2.46,0-2.14-1.44S66.76,59,67.55,58.56Z" transform="translate(-39.97 -17.37)"/><path class="cls-4" d="M43.08,57.06c.25-1.27,1.29-2.32,1.08-3.72l1.89.69A4,4,0,0,1,43.08,57.06Z" transform="translate(-39.97 -17.37)"/><path class="cls-2" d="M50.55,63.05a4.09,4.09,0,0,0-3.45-1c-.17-1.38-.35-3.08.73-3.85a3.45,3.45,0,0,1,4.19,0c.44.35,1.25.56.89,1.25-.45.86-.92,0-1.4-.18A14,14,0,0,0,49.8,59C51.26,60.53,53.32,61.68,50.55,63.05Z" transform="translate(-39.97 -17.37)"/><path class="cls-2" d="M46.55,68.51l-.5-.48V65.56c1.33.58,2,1.49,1.51,3Z" transform="translate(-39.97 -17.37)"/><path class="cls-10" d="M102.55,113l.5-1.35c1.16,1,1.72.74,2.56-.61,1.67-2.65,3-5.27,2.42-8.52l.56-5.44h0A3.18,3.18,0,0,0,109,96c-.08-5.31.44-10.65-.45-15.94v-1l-.11-1.5v-.51a34,34,0,0,0-4-15c-.32-1.65-2.71-2.11-2.38-4.14,2.95,1.23,3.52,4.28,5,6.6.31,2.44,1.37,4.66,2.06,7l.93,13c.39,6-.45,12-.61,18-.14,3-.5,5.89-2.44,8.35a12.62,12.62,0,0,0-2.57,9,1.12,1.12,0,0,0-.41.15c-.89-.15-1-.84-1-1.54C102.44,116.75,103.55,114.81,102.55,113Z" transform="translate(-39.97 -17.37)"/><path class="cls-14" d="M91.62,33.55,91.31,35c-1.47.68-2.93,2-3.66-1-.34-1.4-.3-1.87,1.08-1.9A4.28,4.28,0,0,0,91,31.14V31C91.24,31.88,90.55,32.93,91.62,33.55Z" transform="translate(-39.97 -17.37)"/><path class="cls-15" d="M73.55,56.05c-1.58-1.58.58-3,.25-4.59-.12-.6,1,.24,1.62-.36-.64-1-1.67-2.27.1-3.28-.95-1.36-.55-2.56.49-3.62C78.15,42,78.17,42,77.24,39.44c.82-.67,1.24.71,2.07.33-.72-2.14-.66-3.48,2-1.06.32-1.46-1-1.79-1-2.92,1.49.18,2.54,1.62,4.07,1.32l1.73,1.5a1,1,0,0,1-.5,1l-.45.45v1h-.61c-1.13-1-1.84-1-2.24.7-.63,2.76-1.49,5.47-2.21,8.21a1.38,1.38,0,0,0,.46,1.58v1c-1.89,1.33-.7,2.15.49,3,.7,1.66.8,3.56,2,5a7.11,7.11,0,0,1,.32,2.62c-.46,1.67.4,1.86,1.63,1.89a8.09,8.09,0,0,1,.57,3l-2-.5c-1-1.52-1.7-3.31-3-4.48A3.75,3.75,0,0,1,79,59.57c.5-.07,1-.18.89-.85,0-.16-.36-.42-.45-.38-.59.23-.37.79-.43,1.24Z" transform="translate(-39.97 -17.37)"/><path class="cls-3" d="M85.55,39.59a1,1,0,0,0,.5-1,6.34,6.34,0,0,0,3.49,1.07,3.08,3.08,0,0,0-1.46,2.86h-2c0-.72,0-1.47-1-1.52V40Z" transform="translate(-39.97 -17.37)"/><path class="cls-13" d="M91.62,33.55c-1-.62-.38-1.67-.63-2.48C91.7,31.76,92.55,32.44,91.62,33.55Z" transform="translate(-39.97 -17.37)"/><path class="cls-2" d="M101.08,72c-1.47.77-2.26-1-3.52-1l-1-1a3.91,3.91,0,0,0-2.66-3.3c-.61-.24-1.21-.2-1.51.42s.28.78.76.89c1.55.36.19,1.34.42,2-.58,1.35-2.34,1.85-2.52,3.49-1.55,0-1.93-2-3.47-2v-2c.77-.29,1.52.68,2.11,0,1.41-.8-3.13-2.54.65-2.92,0-.23-.12-.46-.14-.69a8.9,8.9,0,0,0-2.65-5.75A4.81,4.81,0,0,1,86,56.6L87,57a1,1,0,0,0,1,.52h0a.93.93,0,0,0,1,.52h0c.09,1.47,1.1,1.56,2.22,1.5a.25.25,0,0,1,.24.09l.54.45C97.55,62.21,99.46,67,101.08,72Z" transform="translate(-39.97 -17.37)"/><path class="cls-2" d="M108.55,79.05v1c-1.91.52-.91,2.06-1,3.13-.27,3.12,1,6.35-.09,9.33-.72,2.07-.34,3.31,1.11,4.58h0c-.76.16-2.24-.74-1.76,1.23a.4.4,0,0,1-.58.48c-2.8-1.68-1.33,1-1.75,1.7-.78.73-.37,1.68-.47,2.53l-.07,2.07c-1-3.5-.62-7.11-.3-10.6.5-5.5.31-11,.27-16.46ZM105,96.93c.68-.07.91-.23.8-.49a1.25,1.25,0,0,0-.6-.66c-.37-.12-.59.17-.49.55a2.57,2.57,0,0,0,.34.6Z" transform="translate(-39.97 -17.37)"/><path class="cls-13" d="M86.05,56.59a4.81,4.81,0,0,0,1.5,3.55A8.9,8.9,0,0,1,90.18,66a3.38,3.38,0,0,0,.14.69c-3.78.38.76,2.12-.65,2.92-.59.65-1.35-.31-2.11,0l-2-1.51a8.11,8.11,0,0,0-.57-3c1-1.68.32-3.31-1.95-4.51-1.22-1.45-1.32-3.35-2-5-.16-1,.4-2.1-.49-3v-1c1.12-.44,1-1.59,1.39-2.44s.36-1.8,1.44-2.07c-.12.62.92.81.47,1.64C82.06,52,83,54.59,86.05,56.59Z" transform="translate(-39.97 -17.37)"/><path class="cls-3" d="M108.55,79.05l-4.64-1c-.58-1-.34-2-.41-3a1,1,0,0,0,.5-1c.81-.18,1.89,1.28,2.43-.32.34-1-.23-1.71-1.22-2a5.27,5.27,0,0,0-.72-.14c-.17-1-.33-1.94-.5-2.91-.09-.52.19-1.34-.65-1.34a1.36,1.36,0,0,0-1.19,1.13,15.62,15.62,0,0,0-.19,2.21,12.52,12.52,0,0,1-1.39-3.63c1.69.06,2.48-.94,2.92-2.42.25-.85.58-1.68.88-2.51a34,34,0,0,1,4,15c-.92-.38-1.85-.74-2.75-1.14-.62-.28-1.22-.31-1.39.43s.53.64,1,.72l3.17.51Z" transform="translate(-39.97 -17.37)"/><path class="cls-4" d="M104.06,103.05c.1-.86-.31-1.81.47-2.53,1.24.57,1.81,2.31,3.53,2,.62,3.25-.75,5.87-2.42,8.52-.84,1.34-1.4,1.66-2.56.61L103,110a2.77,2.77,0,0,0,0-.47l.61-1.52c1.95.19,2.81-1,2.83-2.64C106.48,104.06,106,102.71,104.06,103.05Z" transform="translate(-39.97 -17.37)"/><path class="cls-4" d="M102,70.64a15.62,15.62,0,0,1,.19-2.21,1.36,1.36,0,0,1,1.19-1.13c.85,0,.57.82.65,1.34.16,1,.33,1.94.5,2.91a4.14,4.14,0,0,1-.5,2.5,1,1,0,0,1-.5,1l-1-3.33-.37-.65A.9.9,0,0,1,102,70.64Z" transform="translate(-39.97 -17.37)"/><path class="cls-11" d="M104.06,103.05c1.89-.34,2.42,1,2.4,2.34a2.37,2.37,0,0,1-2.83,2.64,3.72,3.72,0,0,1,.36-2.92Z" transform="translate(-39.97 -17.37)"/><path class="cls-4" d="M91.28,59.52c-1.12.07-2.13,0-2.22-1.5A3.35,3.35,0,0,1,91.28,59.52Z" transform="translate(-39.97 -17.37)"/><path class="cls-4" d="M89.07,58a.93.93,0,0,1-1-.52A1,1,0,0,1,89.07,58Z" transform="translate(-39.97 -17.37)"/><path class="cls-4" d="M88.08,57.53a1,1,0,0,1-1-.52C87.48,57,87.89,57.08,88.08,57.53Z" transform="translate(-39.97 -17.37)"/><path class="cls-4" d="M92.07,60.06l-.54-.45Z" transform="translate(-39.97 -17.37)"/><path class="cls-3" d="M102.14,71l.37.65Z" transform="translate(-39.97 -17.37)"/><path class="cls-6" d="M93.06,55l5.78,3.1L97,58.56c-1.24-.93-3.05-1-3.87-2.58Z" transform="translate(-39.97 -17.37)"/><path class="cls-1" d="M97,58.56l1.83-.44.43.54c.78,1.1,1.62,2.23-.73,2.4,0-.78-.62-1-1.15-1.33S96.3,59.22,97,58.56Z" transform="translate(-39.97 -17.37)"/><path class="cls-3" d="M84.55,41.05h.51C84.88,41.4,84.71,41.39,84.55,41.05Z" transform="translate(-39.97 -17.37)"/><path class="cls-7" d="M93.06,54.4V55C92.55,54.81,92.85,54.61,93.06,54.4Z" transform="translate(-39.97 -17.37)"/><path class="cls-8" d="M121.55,89.56c.65-5.61,1.9-11.11,3-16.64.8.28.45,1.2.92,1.67v1.3c-1.31,3.91-.78,8.17-2.33,12C122.82,88.66,122.91,89.75,121.55,89.56Z" transform="translate(-39.97 -17.37)"/><path class="cls-3" d="M49.2,46.83,49,46.08a3.82,3.82,0,0,1,4,0Z" transform="translate(-39.97 -17.37)"/><path class="cls-3" d="M54.39,47.09l-.94-1c.75,0,1.51-.08,1.63,1Z" transform="translate(-39.97 -17.37)"/><path class="cls-4" d="M79.05,59.55a3.75,3.75,0,0,0,1.53,3.51c1.29,1.17,2,3,3,4.48l-1.11,0c-1-.7-2-1.45-3-2.1-2.84-1.78-6-3.27-6.61-7.1a1.08,1.08,0,0,0-1.24-.89h0V56h2l5.53,3.5Z" transform="translate(-39.97 -17.37)"/><path class="cls-15" d="M76.05,41.55l.21.11-.21-.12Z" transform="translate(-39.97 -17.37)"/><path class="cls-15" d="M76.05,41.55l-.21-.11.2.12Z" transform="translate(-39.97 -17.37)"/><path class="cls-13" d="M113.06,100.56c2.29-1.87,3.15.5,4.47,1.5v1.51l-.19.12a2.92,2.92,0,0,0,.19.34c.82,1.6-.05,3.07-.55,4.45a16.47,16.47,0,0,0-1.46,5.57c-.56,1.36-2,2.4-1.54,4.13a.42.42,0,0,0,0,.25l-.49.62h0c-.87-.39-2,1.84-2.31.25a15,15,0,0,1,0-6c.63-2.86,1.43-5.77.83-8.77V103C112.85,102.41,112.4,101.25,113.06,100.56Z" transform="translate(-39.97 -17.37)"/><path class="cls-3" d="M115.55,114a16.47,16.47,0,0,1,1.46-5.57c.5-1.38,1.36-2.85.55-4.45v-2c.54-1.83-.27-4,1.5-5.52-.1,2.88.38,5.79-.4,8.65a16,16,0,0,0-.17,9,33.11,33.11,0,0,0,1.63-5c.65-2.87.34-5.9,1.48-8.68.8.87.47,1.86.3,2.82-.38,2.2-.76,4.39.24,6.54a2.24,2.24,0,0,1-.2,2.13c-1.21,1.52-1.27,3.67-2.76,5-2.24,1.93-2.4,4.68-3.06,7.25-.18.72-.06,1.57-1,1.82a9.91,9.91,0,0,1,.5-3.51c-.25-1.61,1.64-2.88.71-4.74-1.84,1.11-2.24,3-2.73,4.73l-.48.5c-1.11-1.49.61-2.64.49-4h0l.49-.62a.43.43,0,0,1,0-.26C116.23,117,116.87,115.26,115.55,114Z" transform="translate(-39.97 -17.37)"/><path class="cls-11" d="M121.55,100.55c-1.14,2.78-.82,5.81-1.48,8.68a33.11,33.11,0,0,1-1.63,5,16,16,0,0,1,.17-9c.78-2.86.3-5.77.4-8.65q.05-4.77.11-9.54c2,.33.32,2.35,1.41,3.1.1,1.89-.28,3.87,1,5.54a4.46,4.46,0,0,0,.07,4.37Z" transform="translate(-39.97 -17.37)"/><path class="cls-4" d="M113.06,100.56c-.66.7-.21,1.85-1,2.49a4.36,4.36,0,0,0-2.55-.5c.16-6,1-12,.61-18l.94.5c-.14,1.81,1.19,3.39.84,5.24a3.71,3.71,0,0,0,.65.24c.22,1-.33,2-.45,3,0,.69-.25,1.46.46,2Z" transform="translate(-39.97 -17.37)"/><path class="cls-3" d="M112.55,90.56a3.71,3.71,0,0,1-.65-.24c.35-1.85-1-3.43-.84-5.24.85-.08,1.39,1.15,2.62.2.91-.71,1.28.8,1.59,1.62.37,1,.64,2.08-.63,2.49A4.88,4.88,0,0,0,112.55,90.56Z" transform="translate(-39.97 -17.37)"/><path class="cls-3" d="M112.55,95.55c-.71-.54-.41-1.31-.46-2C113.45,93.93,113.25,94.68,112.55,95.55Z" transform="translate(-39.97 -17.37)"/><path class="cls-11" d="M118.09,84c.63.12,1.23.26.45,1A.88.88,0,0,1,118.09,84Z" transform="translate(-39.97 -17.37)"/><path class="cls-11" d="M118.55,86.05l.45.53Z" transform="translate(-39.97 -17.37)"/><path class="cls-7" d="M109.48,102.54a4.36,4.36,0,0,1,2.55.5v1.52c-.74,3.91-3.23,7.45-2.48,11.7a3.17,3.17,0,0,1-.08,1.73c-.9,2,.17,3.54,1.32,5a9.26,9.26,0,0,1,1.61,2.43l.67-2.35.48-.5h2a9.91,9.91,0,0,0-.5,3.51c-.56,1.76-1.22,3.49-.62,5.41.39,1.23-.11,2.33-.88,3.59-1.19-2.45-.88-4.85-1.18-7.39-1.88,1.14-1.1,3.08-1.83,4.39h-1.48a1.06,1.06,0,0,0-.5-1v-.51l.51-.49c.92-.87,0-1.52-.36-2.13-1.35-2.69-2.8-5.32-4.22-8a12.62,12.62,0,0,1,2.57-9C109,108.43,109.34,105.52,109.48,102.54Z" transform="translate(-39.97 -17.37)"/><path class="cls-3" d="M121.61,100a4.46,4.46,0,0,1-.07-4.37c.86-.91.45-2,.38-3s0-2.17,1.59-2.1q-.49,3.76-1,7.52C122.45,98.82,122.87,99.82,121.61,100Z" transform="translate(-39.97 -17.37)"/><path class="cls-4" d="M108.55,132.54c.49,1.12-.47.84-1,1a.89.89,0,0,1,1-1Z" transform="translate(-39.97 -17.37)"/><path class="cls-4" d="M108.55,131.05a1.06,1.06,0,0,1,.5,1h-.5l-.54-1Z" transform="translate(-39.97 -17.37)"/><path class="cls-12" d="M108.55,131.05H108c-.4-.75.3-.39.52-.51Z" transform="translate(-39.97 -17.37)"/><path class="cls-4" d="M103.06,118.55c0,.7.1,1.39,1,1.54a8.28,8.28,0,0,1,0,1.24c-.12.74.44,1.94-.71,2.07s-1.63-1.13-1.68-2.06S101.6,119,103.06,118.55Z" transform="translate(-39.97 -17.37)"/><path class="cls-15" d="M98.06,77.44c.25,1.93,0,3.64-1.92,4.72-1,.54-.23,1.36.18,1.58,2.09,1.11,1.85,3.21,2.17,5,.37,2,.38,4.11.62,6.16.34,3,.07,3.27-2.68,2.64-.95-3.82-2.6-7.45-3-11.42.21-1.78,2-3.75-.07-5.28s-.89-1.6.72-1.79a6.39,6.39,0,0,0-2.07-2c.06-1,.79-1,1.53-1,.06.37.05.78.6.76a.23.23,0,0,0,.16-.15c0-.54-.4-.54-.76-.6v-1C95.71,74.55,96.85,76.07,98.06,77.44Zm-1.71.74c-.05-.14-.08-.34-.17-.39s-.26.08-.4.13c.05.14.08.34.17.39s.27-.07.4-.17Z" transform="translate(-39.97 -17.37)"/><path class="cls-10" d="M93.44,86.14c.39,4,2,7.6,3,11.42l1,8.17-.53.09L94.62,96c-1.53-6.41-2.75-12.93-6-18.8-2-3.59-5.14-6.23-7.62-9.41-.62-.79-1.73-.55-2.31-1.32a10.51,10.51,0,0,0-1.74-1.32c-3.24-1.55-4.78-4.26-5.42-7.64a1.08,1.08,0,0,1,1.28.83v0c.65,3.82,3.76,5.32,6.61,7.1,1,.65,2,1.39,3,2.1,1.39,1.8,2.55,3.81,4.54,5.08a.86.86,0,0,0,.2.36.78.78,0,0,0,.81.6h0a1.16,1.16,0,0,0,.52,1.07A63.33,63.33,0,0,1,93.44,86.14Z" transform="translate(-39.97 -17.37)"/><path class="cls-3" d="M98.06,77.44c-1.22-1.37-2.36-2.89-4.56-2.38-.66-.32-1.1-1.07-2-1L91,73.55c.19-1.64,1.95-2.13,2.52-3.49h3l1,1,.5,2.51c-1.2.33-2.17-2.18-2.71-1C94.66,74,96.76,74.47,98,75,97.88,75.87,99.17,76.63,98.06,77.44Z" transform="translate(-39.97 -17.37)"/><path class="cls-15" d="M98,75.08c-1.2-.57-3.29-1-2.66-2.47.54-1.23,1.51,1.28,2.71,1Z" transform="translate(-39.97 -17.37)"/><path class="cls-3" d="M108.62,97.07c-1.44-1.27-1.83-2.51-1.11-4.58,1-3-.17-6.21.09-9.33.09-1.07-.91-2.61,1-3.13.9,5.29.37,10.62.45,15.94A3.18,3.18,0,0,1,108.62,97.07Z" transform="translate(-39.97 -17.37)"/><path class="cls-3" d="M108.07,102.55c-1.73.28-2.29-1.46-3.53-2,.42-.73-1-3.38,1.75-1.7a.4.4,0,0,0,.58-.48c-.49-2,1-1.07,1.76-1.23Z" transform="translate(-39.97 -17.37)"/><path class="cls-2" d="M108.49,77.55,105.32,77c-.46-.07-1.16,0-1-.72s.77-.71,1.39-.43c.91.41,1.83.76,2.75,1.14Z" transform="translate(-39.97 -17.37)"/><path class="cls-3" d="M87,72.67c-2-1.27-3.15-3.27-4.54-5.08l1.11,0,2,.5,2,1.51v2C87.1,71.79,87.05,72.23,87,72.67Z" transform="translate(-39.97 -17.37)"/><path class="cls-2" d="M83.06,60.55c2.26,1.19,3,2.83,1.95,4.51-1.23,0-2.09-.22-1.63-1.89A7.11,7.11,0,0,0,83.06,60.55Z" transform="translate(-39.97 -17.37)"/><path class="cls-2" d="M80.55,52.56c.9.87.34,2,.49,3C79.86,54.71,78.66,53.89,80.55,52.56Z" transform="translate(-39.97 -17.37)"/><path class="cls-4" d="M79.05,59.55c.07-.44-.16-1,.43-1.24.09,0,.43.22.45.38.11.67-.39.78-.89.85Z" transform="translate(-39.97 -17.37)"/><path class="cls-2" d="M85.55,39.59,85.1,40Z" transform="translate(-39.97 -17.37)"/><path class="cls-12" d="M87,72.67c.06-.44.11-.88.56-1.13,1.54,0,1.92,2,3.47,2l.52.51c-1.79,1.31-.45,2.13.48,3a6.39,6.39,0,0,1,2.07,2c-1.62.19-2.67.36-.72,1.79s.28,3.5.07,5.28a63.42,63.42,0,0,0-5-11.46c0-.46,0-.89-.52-1.07h0c-.1-.43-.42-.56-.81-.6A.86.86,0,0,1,87,72.67Z" transform="translate(-39.97 -17.37)"/><path class="cls-12" d="M96.55,70.05h-3c-.23-.64,1.14-1.62-.42-2-.48-.11-1.11-.18-.76-.89s.89-.66,1.51-.42A3.91,3.91,0,0,1,96.55,70.05Z" transform="translate(-39.97 -17.37)"/><path class="cls-3" d="M105.07,96.93a2.57,2.57,0,0,1-.29-.61c-.1-.38.12-.67.49-.55a1.25,1.25,0,0,1,.6.66C106,96.7,105.75,96.85,105.07,96.93Z" transform="translate(-39.97 -17.37)"/><path class="cls-2" d="M104.05,74.05a4.14,4.14,0,0,0,.5-2.5,5.27,5.27,0,0,1,.72.14c1,.33,1.56,1,1.22,2C105.94,75.33,104.86,73.87,104.05,74.05Z" transform="translate(-39.97 -17.37)"/><path class="cls-4" d="M113,123l-.67,2.35a9.26,9.26,0,0,0-1.61-2.43c-1.15-1.43-2.22-2.93-1.32-5a3.17,3.17,0,0,0,.08-1.73c-.75-4.24,1.74-7.78,2.48-11.7.61,3-.2,5.91-.83,8.77a15,15,0,0,0,0,6c.29,1.58,1.44-.64,2.31-.25C113.65,120.4,111.94,121.55,113,123Z" transform="translate(-39.97 -17.37)"/><path class="cls-11" d="M115.55,114c1.32,1.21.69,2.92-1.54,4.12C113.55,116.45,115,115.4,115.55,114Z" transform="translate(-39.97 -17.37)"/><path class="cls-4" d="M114,118.43l-.49.62Z" transform="translate(-39.97 -17.37)"/><path class="cls-2" d="M117.55,103.57V104a3,3,0,0,1-.19-.34Z" transform="translate(-39.97 -17.37)"/><path class="cls-11" d="M115.55,122.55h-2c.5-1.78.89-3.62,2.73-4.73C117.19,119.67,115.3,120.94,115.55,122.55Z" transform="translate(-39.97 -17.37)"/><path class="cls-4" d="M92,77.05c-.93-.88-2.27-1.7-.48-3,.85,0,1.3.7,2,1v1h0C92.82,76,92.09,76,92,77.05Z" transform="translate(-39.97 -17.37)"/><path class="cls-4" d="M93.55,76.05c.36.06.79,0,.76.6a.23.23,0,0,1-.16.15c-.54,0-.54-.39-.6-.76Z" transform="translate(-39.97 -17.37)"/><path class="cls-4" d="M96.35,78.14c-.14,0-.31.18-.4.13s-.12-.25-.17-.39c.14,0,.31-.18.4-.13S96.3,78.05,96.35,78.14Z" transform="translate(-39.97 -17.37)"/><path class="cls-3" d="M88,73.6c.53.18.56.6.52,1.07A1.15,1.15,0,0,1,88,73.6Z" transform="translate(-39.97 -17.37)"/><path class="cls-3" d="M87.19,73a.74.74,0,0,1,.81.6A.78.78,0,0,1,87.19,73Z" transform="translate(-39.97 -17.37)"/></svg>