<svg id="Ebene_1" data-name="Ebene 1" xmlns="http://www.w3.org/2000/svg" viewBox="0 0 172.29 109.07"><defs><style>.cls-1{fill:#f83f88;}.cls-2{fill:#f34286;}.cls-3{fill:#f93d86;}.cls-4{fill:#fa1970;}.cls-5{fill:#58464c;}.cls-6{fill:#f16ea2;}.cls-7{fill:#f63982;}.cls-8{fill:#ee2b77;}.cls-9{fill:#ed518c;}.cls-10{fill:#47363c;}.cls-11{fill:#968379;}.cls-12{fill:#7c4256;}.cls-13{fill:#ad2a5b;}.cls-14{fill:#eb99b8;}.cls-15{fill:#aa6873;}</style></defs><title>plantation pink</title><path class="cls-1" d="M137.55,72.66l.06,1.62c3.36,1.51,6.64.65,9.92-.31a2.64,2.64,0,0,0,2-.38c3.12,1.58,6.61,1.28,9.92,1.92,2.91.56,5.66,1.65,8.56,2.18-.42,1.13-.1,2,1.07,2.29a1.76,1.76,0,0,1,1.52,1.68A11.09,11.09,0,0,0,166,83.12l-1,.16a.83.83,0,0,0-1,.24l-5-.06A2.21,2.21,0,0,0,157,81.37c-2.78-.21-5.6-.8-8.38.08a1.36,1.36,0,0,1-.41,0l-.57-.25-1.53-.1h-3.92c-2.45-.58-4.21.86-6.06,2-.21-1.24.66-1.92,1.32-2.76s2-1.71,1.2-2.58a3.38,3.38,0,0,0-3.92-.5,6.07,6.07,0,0,0-1.94,1.47,1.63,1.63,0,0,1-2,.53,5.52,5.52,0,0,0,1.34-3.73,26.55,26.55,0,0,0,3.12-4.9L139.59,66a1,1,0,0,0,1-.91l.08-.07a.84.84,0,0,1,.89.47l-.11,1.16a1.13,1.13,0,0,1-.84.9C139,69,136.92,70,137.55,72.66Z" transform="translate(-16.96 -16.92)"/><path class="cls-2" d="M69.32,27.53a.17.17,0,0,1,.24,0l0,0c.06.51.26.89.87.82l.1.63h0c-.52.35-.5.67,0,1v-.07c-1.35,1.14.22,1.9.37,2.85-1.59.86-.56,1.59.11,2.33-1,2.68-2.26,5.32-1.68,8.33l.75.71h0l1.24,1.18a16,16,0,0,1,5.79,3.61c-2,.18-3.19.8-2,3.07a4.85,4.85,0,0,1,.23,1.64l-2.43-.81c-.06-.75.27-1.7-1-1.82.17-1.89-2.4-1.49-2.57-3.1v-1c0-.61.34-1.52-.58-1.64-.71-.1-1.11.62-1.32,1.28a6.58,6.58,0,0,0-.15,1c-1.13,0-2.24,0-3-1.08a1.53,1.53,0,0,0,0-1.89V44a3.33,3.33,0,0,0,1-3h0c1.24-2-.06-2-1.52-2a1.77,1.77,0,0,0-1,2,2.53,2.53,0,0,0-.44.06l-.58-.59v-.91c2.5-2.14,2.5-6.87,0-10.57-.2-.63.21-1.09.44-1.6l3.08-.79,1.34.14A2.54,2.54,0,0,0,69.32,27.53Z" transform="translate(-16.96 -16.92)"/><path class="cls-3" d="M81.55,74.67c-.65,1-1.31,2-.72,3.2.52.93.22,2.8,1.44,2.75,2.65-.1,3.75,1.86,5.34,3.21l-1,1.73c-.47-.57-.51-2-1.82-.92-1,.85-.3,1.32.39,1.82a2.21,2.21,0,0,1,.41.59H85c-.71.06-1.54-.35-2,.54H81c-1.76-.46-3.69.59-5.37-.6,1-1.14-.82-2.31,0-3.45L76.66,83c1.92-.3,1.35-1.81,1.45-3,.3-.79,1.07-1.75,0-2.31s-1.3.9-2,1.33c-2.09-.68.49-1.87-.52-2.89-1.31.76-2.5.58-2.94-1.25,1.78,0,3.61-2.12,4.11-4.68,1.67-1,1.35-2.66,1.36-4.21l.48-1.48c1.22.31,1.91-1,3-1,.52.72,1.29.41,2,.48a8.17,8.17,0,0,0-.53,3,15.08,15.08,0,0,0-.51,1.79C82.17,70.79,80.55,72.53,81.55,74.67Z" transform="translate(-16.96 -16.92)"/><path class="cls-1" d="M126.55,101.84l-.6.19h0v-1c2.17-5.26,1.06-5.71-2.46-6h0c.72-1.24.53-2.6.5-3.94,1.25-1.46,1.74-3.31,2.55-5A2.33,2.33,0,0,1,127,86c.19,1.45,1.17,1.67,2.35,1.45.88-.16,1.14-.82,1.17-1.65.06-1.46-.83-1.83-2-1.88.68-1.11,1.13-2.41,2.41-3,.83,1,2.86-.81,2.8.62s1,1.4,1.46,2c-1.26.77-1.58,2.34-2.72,3.22-1.31.93-2.89,1.54-3.58,3.16-1.1,1.16-2.64,2.18-1.38,4.13.3,2.38,1.77,1,2.87.91,2.57,0,4.56-2,7.14-2.07l.07.55a8.82,8.82,0,0,1-3.27,2.88,2.87,2.87,0,0,0-1.76,3.17l-1.51,1.1-1.23-.06a1.39,1.39,0,0,0-1.3.43Z" transform="translate(-16.96 -16.92)"/><path class="cls-2" d="M54,35c.1-.9,1-.92,1.51-1.37,1,0,2.05-.46,2.9.46a2.25,2.25,0,0,1-.58,2.28c-1,.89-.55,1.7-.21,2.59v.94c-1.4.13-1-1-1.18-1.7a1,1,0,0,0-1.17-.63,2,2,0,0,0-1.63,1.34c-.17.4-.05,1,.41,1,2.32.12,2.53,2.21,3.47,3.6-.67.1-1.4.27-1.27,1.12s1,1.13,1.65,1.21a7.59,7.59,0,0,0,2.12-.34c.16.2.26.62.62.19L60,45.55v-.5l1.51-1c.52,0,1.08-.08,1.48.39-1.24.25-.94,1.23-1,2,1.38,2.5,4.12,2.84,6.37,3.92.82.4,1.74.39,1.66,1.61l-1.2.08c-1,.09-2.05-.45-3.07,0H64l-2.4-1c.09-.88,0-1.69-1.08-1.85-.91-.14-1.32.44-1.45,1.27-2.4-.82-4.66-1.81-5.45-4.55a1.31,1.31,0,0,0-.05-.35c-.08-2.39-1.57-4.58-1-7.07-.2-1.17,1.42-1.75,1-3h0Z" transform="translate(-16.96 -16.92)"/><path class="cls-4" d="M172.73,42.08l.19-.11c.8.27.85,1.88,2.06,1.31s1.79.44,2.63.82v4.5h0l-.48.6.06-.08a1.07,1.07,0,0,0-.64,1h0c-2,.19-2.62,2.1-4,3.08-1.59.49-2.11-1.51-3.49-1.51-.2-1.59-2.38-.72-2.7-2.16l.64-1.41h0C169.06,46.14,172.85,46,172.73,42.08Z" transform="translate(-16.96 -16.92)"/><path class="cls-3" d="M73,107.14l-4.45-.06c-.56.08-1.49.4-1.61.2-1.43-2.24-3.62-.8-5.4-1.22-1.48-.51-3-.94-3.08-3l.14-.11a8.25,8.25,0,0,1,2.64-.24c1.66.4,2-.53,2.31-1.76l2,.53.57-.12h0c.83.9,5.92,1.64,6.86,1,.35-.23.32-.49.29-.83s-.9-1-.05-1.46,1.26.54,1.84.92v.83L75,103a11.47,11.47,0,0,0-1.44,3.54Z" transform="translate(-16.96 -16.92)"/><path class="cls-2" d="M35.55,93.93c0-.65-.49-1-.93-1.36,0-1.36-1-1.34-2-1.71-2.26-.89-5-1.63-5.68-4.22a17.21,17.21,0,0,0-1.42-4.16v-.17l.15-1.22,2.27-1,.59,1.07a6.24,6.24,0,0,0,3,4.38c2.59,1.44,5.08,3,6.26,5.9.21.52.38,1.38,1.35,1.12h0L39,94l-.4.88v.23H37.13A1.85,1.85,0,0,0,35.55,93.93Z" transform="translate(-16.96 -16.92)"/><path class="cls-3" d="M98.37,78l.3-1.4c1.49,0,2-1.54,3.11-2.1l1.74.11c.57.87.84,2,1.93,2.42l.14.53a.53.53,0,0,1,0,.31c-2.55-.55-3.37,1.17-4,3.08v0l-.47.55a1.14,1.14,0,0,0-.12.3,11.06,11.06,0,0,0-4.83,6.73h-1l-3.29-.14c.57-2.65,2.8-4.41,3.72-6.87a1.08,1.08,0,0,0,.49-1C97.23,80.08,97.15,78.47,98.37,78Z" transform="translate(-16.96 -16.92)"/><path class="cls-4" d="M148.67,61.29l-.62.7h-1.49L145,61V59.81c.59-2.67,2.52-4.29,4.57-5.8l1.41-.56c2.37-.14,4.5-1.91,7-1-.1.94,0,1.79,1,2.18,0,.51,0,1,.54,1.34l-.5.53a36.08,36.08,0,0,1-3.7,1.23c-1,.22-2.29.91-2.81-.79a2.7,2.7,0,0,0,1.85-.44c.56-.38,1.14-.73,1-1.51s-.81-1-1.5-.94a1.55,1.55,0,0,0-1.57,1.25,4.72,4.72,0,0,0,.25,1.64l-1,1.22a3.45,3.45,0,0,1-2.2,2.35Z" transform="translate(-16.96 -16.92)"/><path class="cls-2" d="M100.42,46.56c-.88,1.81-2.72,3-3.36,5-1.29,1.12-2.85,2.1-2.09,4.24,0,0-.23.2-.35.3-.48-.2-.54-.64-.58-1.08-.92-1.68-2-1.11-2.82,0-.38.48-.37,1.32-1.15,1.47s-1.85.4-1.35,1.51c.57,1.27,1.5.42,2.29.06a1.14,1.14,0,0,0,1,.54c-2.12.71-4.16,1.72-6.43,1.91,0-1.82-.82-3.55-.59-5.39,3.22,0,5.45-1.9,7.43-4.1.51-.57,1.21-.81,1.65-1.38,1.86-.67,2.14-2.33,2.49-4v-.07a1,1,0,0,0,.48-1l.4-.49H98C97.61,47.14,97.82,47.39,100.42,46.56Z" transform="translate(-16.96 -16.92)"/><path class="cls-5" d="M166,83.14a11.09,11.09,0,0,1,4.57-1.46,5.41,5.41,0,0,0,3-.93c1.89-.31,3.22-1.62,4.72-2.62a15.35,15.35,0,0,0,6.69-7c1.39-.35,1.5-1.46,1.57-2.6.95,0,1.3-.58,1.5-1.36.84-3.31-.12-4.78-3.59-5.48-3,.06-3.65.56-3.9,3.43-.06.65-.47,1-.65,1.57-.28-.1-.72.56-.8,0-.27-1.77-.19-3.46,1.38-4.77,2-1.62,4.09-1.55,6.32-.87,1.8.55,2.14,1.89,2.35,3.64a8.64,8.64,0,0,1-2,6.47c-5.35,7-12.15,11.72-21.11,12.83Z" transform="translate(-16.96 -16.92)"/><path class="cls-1" d="M117.55,90.58l-1-1.47v0a3.51,3.51,0,0,0-.52-2.54v-5.7c1.58-2,3.54-.72,5.21-.38,2,.4,2.06,2.29,1.91,4a.29.29,0,0,1,0,.37c-1.76.83-1.92,2.13-1.11,3.73-1.63-.28-2.06,1.24-3,2Z" transform="translate(-16.96 -16.92)"/><path class="cls-6" d="M105.46,77.06c-1.09-.45-1.36-1.55-1.93-2.42,1.82-2.2,4.51-2.7,7-3.56a11.67,11.67,0,0,0,5-.73c.46-1.2,1.94-.32,2.54-1.25a.52.52,0,0,1,.45,0l1,.41c-.8,2.4,2,2.16,2.59,3.58-.07.55-.26,1-.93.84A1.73,1.73,0,0,0,119,73.1c-2.43,1.24-5.18.54-7.65,1.39A8.59,8.59,0,0,0,105.46,77.06Z" transform="translate(-16.96 -16.92)"/><path class="cls-1" d="M118.72,99.07,120,97.64l.4-.27.68-1.18,2.49-1.14h0c-.27,1.31.41,2.74-.47,4-1.88-.25-2.66.86-3,2.47-1.38.58-.62,1.66-.59,2.56a8,8,0,0,0-5.08,3,1.54,1.54,0,0,0-.11,2.06c.79.67,1-.43,1.38-.84a16.51,16.51,0,0,1,1.5-1.24l.38-.48h1V108a7.89,7.89,0,0,0-2.64,3c-.73.77-1.55-.19-2.31.12-.14-.28,0-1.11-.69-.41-1,0-1.23-1.41-2.32-1.15l-.53-1c.32-2.3,2.08-3.37,3.8-4.49,1.53-.23,3.78.45,3.16-2.5h0l.5-.5h0l.5-.49h0l.51-.55Z" transform="translate(-16.96 -16.92)"/><path class="cls-2" d="M66.49,75.87c-.62-.51-.6-1.54-1.47-1.85.37-2.32-1.34-2.59-2.94-3v-.15C64,69.56,61.52,69,61.59,68h1.46l.05.16a1.84,1.84,0,0,0,2.58.31l0,0a1.83,1.83,0,0,1,2.27.08,2,2,0,0,1,.42.18l.11.74A2.26,2.26,0,0,0,70,72.61l.59.36h0l-.08.68c-.49,1.38-2,2.89.6,3.85.57.21.52,1,.1,1.51a3.53,3.53,0,0,0-.69,2.54,2.75,2.75,0,0,0-.46,0c-.46-.76-.9-1.55-1.39-2.29C67.93,78.14,68.06,76.47,66.49,75.87Z" transform="translate(-16.96 -16.92)"/><path class="cls-3" d="M122.1,73.08c-.55-1.41-3.39-1.18-2.59-3.58,2.81-2,6.12-3.38,8.56-6L128,63h0l.6.27c.08,1.25,1.79,1.77,1.46,3.21-1.7,2.62-4.51,4-6.68,6.13C123.12,73.21,122.63,73.2,122.1,73.08Z" transform="translate(-16.96 -16.92)"/><path class="cls-7" d="M97.49,27l1-2.33c.63-.15.91-.7,1.29-1.14.91-.07.61-1.17,1.26-1.47h.46c.6.77.91,1.82,2,2.09v.93l-1,2c-.44.57-1.45.58-1.5,1.53h0a1.23,1.23,0,0,0-1.47,1.48,2.53,2.53,0,0,0,2.5,2.47h0c-.2,1,.43,1.45,1,2l-.58.1c-1.62-.22-3,.75-4.5,1l-1.62-1.84c1.95-.36,3.48-.86,1.65-3.23a10.44,10.44,0,0,1-1.05-2.48Z" transform="translate(-16.96 -16.92)"/><path class="cls-7" d="M177.61,44.14c-.84-.37-1.41-1.38-2.63-.82s-1.26-1-2.06-1.31l.15-.89h.5l.2-.47c.77-2.3-.39-4.07-1.62-5.81a1.84,1.84,0,0,1,.4-1.7c2.64-.75,2.85,2,4.35,3A17.53,17.53,0,0,1,178,43.6Z" transform="translate(-16.96 -16.92)"/><path class="cls-8" d="M130.48,40.06l1.17,1.45c-1,.27-2,.33-2.75,1.22-.39-.79-.65-1.75-1.87-1.53s-1.56,1-1.75,2,.07,1.85-.77,2.49c-1.13-.5-.79-2.11-1.95-2.6.3-1.27-.62-1.93-1.36-2.67a1.85,1.85,0,0,1-.51-2c.31-.94,1-.51,1.63-.46s1.14-.08,1.23-.83c.68-.11.76.49,1,.88C126.13,39.88,128.22,40.2,130.48,40.06Z" transform="translate(-16.96 -16.92)"/><path class="cls-9" d="M179.94,66.64c.18-.54.59-.92.65-1.57.26-2.87.88-3.37,3.9-3.43,1.74,1.73,3.73,3.38,2,6.23-1.41-.21-.63-1.66-1.22-2.26-1.39.34-1.35,2.07-2.61,2.5-1.19-.47-1.76,1-2.82.9h0Z" transform="translate(-16.96 -16.92)"/><path class="cls-5" d="M168,77.69c-2.9-.53-5.65-1.62-8.56-2.18-3.31-.63-6.8-.34-9.92-1.92,4.39.32,8.85,0,13.15,1.27,3.41,1,6.7.4,10-.55a3.23,3.23,0,0,1,2.38-.16.76.76,0,0,0,0,.27c-.34.33-.84.55-.88,1.12C171.87,75.58,169.67,75.87,168,77.69Z" transform="translate(-16.96 -16.92)"/><path class="cls-10" d="M54.18,98.61c-4.35.17-7.43,3-10.87,5.13-2.33,1.42-4.4,3.23-6.92,4.36-1.71.76-.95,2.93-2.08,4.07l-.86-.18c1.14-2.14.73-5.35,4.13-5.91h0a4,4,0,0,0,3-2h0l.68-.49,1.36-1.14.5-.4h0c.4-.06.84,0,1-.53h0l.59-.51h.42a.91.91,0,0,0,1-.49h0a11.19,11.19,0,0,1,7.45-2.74Z" transform="translate(-16.96 -16.92)"/><path class="cls-2" d="M25,109.49l-.17.08h-.19c-.06-1.19-2.77-1.74-1.32-2.88,1.92-1.5,2.74-3.77,4.58-5.21,1.71.69,3.7,1.1,3.63,3.59A8.87,8.87,0,0,0,25,109.49Z" transform="translate(-16.96 -16.92)"/><path class="cls-8" d="M138.87,43.14c-.94.62-1,2-2.17,2.43-1.49.4-1.83-1.58-3.16-1.53h0c.2-1-.56-1.7-1-2.5a10.39,10.39,0,0,1,1.93-3.09l.28,1.13a3.86,3.86,0,0,0,.65-.91,4.52,4.52,0,0,0,.1-1.18H137a6.42,6.42,0,0,1,0,2.38c-.85,2,.57,1.67,1.62,1.8l.88.43q.19.09.1.23l-.71.86Z" transform="translate(-16.96 -16.92)"/><path class="cls-5" d="M130.37,95c-1.09.13-2.57,1.48-2.87-.91l.82-.18c.63.75,1.13.28,1.67-.15,3.21-2.52,6.86-2.62,10.63-1.84,2,.41,2.73,1.76,1.67,3.45-1.59,2.53-3.46,4.89-6.71,5.46V100a5.86,5.86,0,0,0,3.09-2l.83-.78a4.71,4.71,0,0,0,1.73-2c.4-.87.94-1.85-.62-2.19a4.68,4.68,0,0,0-3.1-.37A8,8,0,0,0,130.37,95Z" transform="translate(-16.96 -16.92)"/><path class="cls-4" d="M135.18,83.58c-.48-.65-1.53-.54-1.46-2s-2,.34-2.8-.62l-.82-.75.46-.85h.2a1.63,1.63,0,0,0,2-.53,6.07,6.07,0,0,1,1.94-1.47,3.38,3.38,0,0,1,3.92.5c.81.87-.61,1.81-1.2,2.58s-1.53,1.52-1.32,2.76Z" transform="translate(-16.96 -16.92)"/><path class="cls-5" d="M27.94,101.45c-1.84,1.44-2.67,3.71-4.58,5.21-1.45,1.14,1.26,1.69,1.32,2.88A2.65,2.65,0,0,1,22,107.45c-.37-1.19.68-1.63,1.41-2.32a9.2,9.2,0,0,0,3.18-4.87c1-4.79,4.54-6.24,9-6.33a1.85,1.85,0,0,1,1.5,1.12,21.31,21.31,0,0,1-3.17.11c-2.46-.27-4.23.56-5.19,2.9-.4.8-1.48,1.41-.75,2.55Z" transform="translate(-16.96 -16.92)"/><path class="cls-5" d="M116.05,86.52a3.51,3.51,0,0,1,.52,2.54,8.07,8.07,0,0,1-2.51-4.34c-.42-2.22,0-4.5,2.21-5.59a6.36,6.36,0,0,1,6.4.34c1.91,1.23,2,3.1.46,5,.16-1.73.11-3.62-1.9-4-1.66-.33-3.63-1.62-5.21.38A4.13,4.13,0,0,0,116.05,86.52Z" transform="translate(-16.96 -16.92)"/><path class="cls-5" d="M61,121.32l-.72-1.6a7.45,7.45,0,0,1-4,1.62,3.22,3.22,0,0,1-3.81-4.46c1-2.09,1.22-4.78,4-5.59l.09.79c-.35.68-1.18,1.12-1,2L55,115l-.48.59h0c-1.21,1.16-1.76,2.47-.37,3.79a2.17,2.17,0,0,0,3.57-.26H58a1.06,1.06,0,0,0,1.18-.45C61.32,118.44,61.05,120,61,121.32Z" transform="translate(-16.96 -16.92)"/><path class="cls-7" d="M54.18,98.61l-.68-.78a1.79,1.79,0,0,1,0-.28c.32-1.1,1.4-1.81,1.52-3h1c.83.83,1.27,2.06,2.5,2.51l.61.91,2.06,2c-1.55.38-2.68,1.14-2.57,3l-.14.11c-.39-.36-.33-1.07-1-1.23C56.48,100.7,55.86,99.14,54.18,98.61Z" transform="translate(-16.96 -16.92)"/><path class="cls-8" d="M61.55,68c-.06,1,2.36,1.6.49,2.91a21.52,21.52,0,0,1-5.48.56L54.94,69c.54-.82.95-1.8,2.16-1.84C58.5,68,60.19,67.27,61.55,68Z" transform="translate(-16.96 -16.92)"/><path class="cls-5" d="M151.55,35.64a29.36,29.36,0,0,1,3.67-.42c5,0,7.38,4.15,5.23,9a17.64,17.64,0,0,0-1.92,6.34,1.27,1.27,0,0,1-1.09-.57c0-2.5,1.89-4.47,2-7,.16-1.73,1.84-3.58-.4-5.13a.67.67,0,0,0-.11-.36,6.09,6.09,0,0,0-5.35-1.29h-2Z" transform="translate(-16.96 -16.92)"/><path class="cls-5" d="M126.05,53.57c-4.76.46-9.25.1-12.86-3.65-1.28-1.33-2.18-2.47-1-4.31s2.66-2,4.46-1.12l-.08.09c-.68,0-1.41-.2-2,.39-2.31,2.07-2.24,3.09.31,4.76.4.27.79.56,1.18.84.37.82,1.15.91,1.9,1,1.23,1.11,2.69,1,4.18.81l1.44.59c.16.38.32.36.47,0l2-.06Z" transform="translate(-16.96 -16.92)"/><path class="cls-5" d="M93.55,32.14c-.39.91-1.2.54-1.7.35a15.53,15.53,0,0,0-5.53-1A2.79,2.79,0,0,1,83.4,29.3a3,3,0,0,1,1.26-3.45,9.68,9.68,0,0,1,5.87-2.26l-.41,1A1.05,1.05,0,0,0,90,25l-1.42.14a5.64,5.64,0,0,0-3,1.56A1.81,1.81,0,0,0,84.44,29l0,.07c.33,1.27,1.32,1.5,2.47,1.38l3.37.61C91.26,31.85,92.72,31.14,93.55,32.14Z" transform="translate(-16.96 -16.92)"/><path class="cls-10" d="M28.5,81.14l-.59-1.07c0-.84.3-1.79-.76-2.28v-.07c.5-.23.5-.68.49-1.14l.35-1a21.23,21.23,0,0,1,3-3.11,1.39,1.39,0,0,0,.34-2.16c-.61-.59-1.15.1-1.55.65s-.64.77-1.23.59l-.07-.08a9.29,9.29,0,0,1,.63-1.3c.67-1,1.48-2.11,2.77-1.35s.84,2.32.57,3.58a1.76,1.76,0,0,1-.78.93c-3,1.89-3.26,4.63-2.5,7.71Z" transform="translate(-16.96 -16.92)"/><path class="cls-3" d="M91.14,110l.44.45.34.59.12.54c-1.35,1.7-2.78,3-4.85,1L86,111.17l.07-1.53a1.82,1.82,0,0,0,1-2l.66-.06c.74.59,1.36,1.37,2.4,1.45v.07C90.06,109.75,90.45,110,91.14,110Z" transform="translate(-16.96 -16.92)"/><path class="cls-5" d="M118.72,99.07l-.16.93-.51.55h0l-.5.49h0l-.5.5h0l-3.16,2.5c-1.72,1.11-3.48,2.19-3.8,4.49h-.44c-.94-2.29-3.41-2.63-5.08-4l-1.12-.88.09-.64.1-.11a3.3,3.3,0,0,1,.71.21c5.24,2.89,5.21,2.85,10-.74C115.78,101.31,116.82,99.61,118.72,99.07Z" transform="translate(-16.96 -16.92)"/><path class="cls-11" d="M124.55,45.73c.84-.64.62-1.65.77-2.49.19-1.08.62-1.83,1.75-2s1.48.73,1.88,1.52l1.38,1.9L129,46.56H127.1l-1-.21L125,46.06Z" transform="translate(-16.96 -16.92)"/><path class="cls-5" d="M101.79,74.53c-1.13.56-1.62,2.08-3.11,2.1a13.14,13.14,0,0,1,8-6.21c1.38-.45,2-.87,1.58-2.53A3.14,3.14,0,0,1,110,64l.57.54c-2,1.37-1.44,3.2-.87,5-.29.76-1.08,1-1.6,1.5A11.73,11.73,0,0,0,101.79,74.53Z" transform="translate(-16.96 -16.92)"/><path class="cls-5" d="M110.68,122.5c-4.7,3.68-9.95,4.2-15.54,2.72l1.18-.44c1.8.47,3.55-.29,5.33-.25l4.32-.63C107.55,123.45,108.79,121.87,110.68,122.5Z" transform="translate(-16.96 -16.92)"/><path class="cls-5" d="M28.5,81.14l.66-.11a13.92,13.92,0,0,0,5.42,5c2.57,1.54,3.62,3.93,4.51,6.54-1,.26-1.14-.6-1.35-1.12-1.18-3-3.67-4.46-6.26-5.9A6.24,6.24,0,0,1,28.5,81.14Z" transform="translate(-16.96 -16.92)"/><path class="cls-10" d="M21,78.49c-1.51,0-3.34.66-3.93-1.45S18,74,19.43,72.65c2.86-2.68,6.06-.68,9-1.2l.07.08C28.26,73,27,72.73,26,73h0c-1.52-1.53-3.12-1.65-4.67-.11a5.28,5.28,0,0,1-2.2,1.48c-.95.28-1.18,1-1.23,1.9-.07,1.14.72,1.33,1.54,1.51Z" transform="translate(-16.96 -16.92)"/><path class="cls-12" d="M57.66,39.94V39l1-.47c3.33.71,4,.16,4.18-3.13a10.35,10.35,0,0,0-1.74-6.32h1c2.5,3.7,2.5,8.42,0,10.57-1,0-1,.75-1,1.44h0Z" transform="translate(-16.96 -16.92)"/><path class="cls-5" d="M90.11,108.94a4.66,4.66,0,0,1-2.4-1.45,6.88,6.88,0,0,0-6-4.45c-.17-.67-.71-.76-1.27-1-1.79-.67-3.59-.07-5.38-.17V101l.59-.29a10.29,10.29,0,0,0,2.22.2c5.68-.71,8.75,3.19,12,6.77C90.12,108,90,108.54,90.11,108.94Z" transform="translate(-16.96 -16.92)"/><path class="cls-10" d="M99.8,23.52c-.38.44-.66,1-1.29,1.14,0-1.82.83-3.69-.44-5.44-.27-.37,0-.91.43-1.29,2.16-1.88,7.53-1,9.16,1.52l-1.58.08c-.95-1.83-2.64-.72-4-1-.4-.63-.82-.4-1.25,0l-.77.07c-2,.66-.42,1.48-.09,2.23a.14.14,0,0,0,0,.19l0,0Z" transform="translate(-16.96 -16.92)"/><path class="cls-5" d="M45.73,84.56a4.27,4.27,0,0,1,1.33-4.51c1.37-1.15,2.92-1.92,4.78-1.14s2.35,2.44,2.17,4.3c-.1,1.06-.38,2.11-.58,3.16l-.82.13-.1-1c.7-1-.16-2,.07-3h0c.77-.54.52-1.1,0-1.66a1.2,1.2,0,0,0-1-1c-3.43-.62-4.84.7-5,4.69Z" transform="translate(-16.96 -16.92)"/><path class="cls-4" d="M100.42,46.56c-2.6.83-2.81.61-2.39-2.5a4.77,4.77,0,0,1,1.06-3l2.41.5.64.71c-.07,1.06-1.22,1.72-1,2.87A1.68,1.68,0,0,1,100.42,46.56Z" transform="translate(-16.96 -16.92)"/><path class="cls-5" d="M86,111.14l1.2,1.42-.08,1c-4-3.65-9-5.14-14.09-6.38l.55-.53a2.66,2.66,0,0,1,2.46.2A33.36,33.36,0,0,1,86,111.14Z" transform="translate(-16.96 -16.92)"/><path class="cls-12" d="M151.55,35.64v.6l-1.63,1.69c-1.76,1.22-1.55,2.43,0,3.62l.06,0,1,.66.87.83a2.1,2.1,0,0,0,1,1.5c.55,1.53-.29,2.93-.41,4.4a1,1,0,0,0-.44,1h0l-.52-.08c1.29-3.43.29-6-2.7-8.11-1.86-1.32-.72-3.07.18-4.46A3.93,3.93,0,0,1,151.55,35.64Z" transform="translate(-16.96 -16.92)"/><path class="cls-12" d="M115.93,111a7.89,7.89,0,0,1,2.64-3c2.35-.44,3.43-2.42,4.73-4.06.74-.94,1.39-1.86,2.73-1.84h0c-1.86,2.43-3.52,5-6,7C118.8,110,117.63,111,115.93,111Z" transform="translate(-16.96 -16.92)"/><path class="cls-2" d="M93.55,32.14c-.85-1-2.3-.29-3.23-1.09-.16-1.83,2.22-1.15,2.51-2.54l1.72-1h0c.17.44.54.52.95.54h.08c-.31,1.52,1.29,3.1-.12,4.59Z" transform="translate(-16.96 -16.92)"/><path class="cls-5" d="M93.64,109.14c1.74-1.12,1.44-2.36.2-3.64-1-1.08-2.08-2.15-3.11-3.23A6.45,6.45,0,0,1,89.12,96c.9.61-.15,2.28,1.38,2.56a5.55,5.55,0,0,0,2.62,4.47l2,2h0v3.23l-1.45.8Z" transform="translate(-16.96 -16.92)"/><path class="cls-8" d="M102.14,42.23l-.64-.71c1.5-2.67,1.43-2.81-1.44-3,.36-1.62,1.83-2.54,2.49-4l.58-.1h.06l.9,1C104.55,38.06,104.73,40.55,102.14,42.23Z" transform="translate(-16.96 -16.92)"/><path class="cls-12" d="M95.55,91c-1.23,5.69,1.62,9,6.53,11l-.08.67a11.73,11.73,0,0,1-7.24-5.18l-.33-5.91.15-.54h0L95,91Z" transform="translate(-16.96 -16.92)"/><path class="cls-10" d="M166,83.14V84c-5.84,1.57-11.38-.34-17-1.47.23-.42.64-.46,1.05-.5L159,83.48l5,.06,1-.24Z" transform="translate(-16.96 -16.92)"/><path class="cls-7" d="M87.11,113.5l.08-1c2.07,2,3.5.74,4.85-1l1-.07a1.41,1.41,0,0,0,.45-.06V113c-1.91.47-.86,2.69-2.1,3.56-.65,0-.89.42-1,1Z" transform="translate(-16.96 -16.92)"/><path class="cls-12" d="M126.05,53.57v-.63l1-.36c1.45-.09,2.54.27,2.55,2a2.85,2.85,0,0,0,1,2h0a8,8,0,0,0,.46,3.13l-.14,1.53-2.24,2-.6-.27c2.18-2.4,2-4.88.59-7.64C128,54.14,127.36,53.52,126.05,53.57Z" transform="translate(-16.96 -16.92)"/><path class="cls-12" d="M123.4,72.61c2.17-2.1,5-3.52,6.68-6.13L133.37,63H134l.26.24a42.41,42.41,0,0,1-8,8.34C125.47,72.29,124.55,73,123.4,72.61Z" transform="translate(-16.96 -16.92)"/><path class="cls-5" d="M25.55,82.47A17.21,17.21,0,0,1,27,86.63c.65,2.6,3.42,3.33,5.68,4.22.94.37,2,.35,2,1.71-1.43-1-3.23-1-4.81-1.74C26.1,89.05,25.07,86.21,25.55,82.47Z" transform="translate(-16.96 -16.92)"/><path class="cls-13" d="M135.18,83.58l.88-.41c1.85-1.19,3.62-2.63,6.06-2l-.07.87c-3.49.18-5.54,2.92-8.2,4.58l-.8.52h.06l-.65-.3C133.6,85.93,133.92,84.36,135.18,83.58Z" transform="translate(-16.96 -16.92)"/><path class="cls-5" d="M66.49,75.87c1.57.59,1.44,2.28,2.18,3.4.49.74.93,1.53,1.39,2.29l.5,1h0a4.52,4.52,0,0,0,1.24,2.23l1.27,1.86.16.47-.32.57c-1.93-1.06-2.52-3.09-3.49-4.84C68.21,80.62,66.85,78.45,66.49,75.87Z" transform="translate(-16.96 -16.92)"/><path class="cls-13" d="M169.1,51.6c1.38,0,1.9,2,3.49,1.51a1.15,1.15,0,0,1,0,.36c-1.53,2.11-3.85,2.34-6.16,2.56a.68.68,0,0,1-.3-.07l.08-.93c1.36-.26,1.83-1.39,2.39-2.42A1.1,1.1,0,0,0,169.1,51.6Z" transform="translate(-16.96 -16.92)"/><path class="cls-5" d="M62.07,67.14c2.12.19,3.36-.42,3.05-2.91a2.68,2.68,0,0,1,1.87-3c1.46-.46,3.21-.71,4.52.08s1,2.18,0,3.3l-.15-1.26c0-1-.27-1.85-1.48-1.78-1.44.08-3,0-3.39,2h0c-.58.35-.35.87-.3,1.36L65.94,67a3.56,3.56,0,0,1-2.88,1.21L63,68Z" transform="translate(-16.96 -16.92)"/><path class="cls-5" d="M53.55,45.58a1.23,1.23,0,0,0,.05.35l-.05,2.21c-2.15-3.17-3.18-6.59-2-10.36.3-.94.44-2.32,2-2.28.45,1.25-1.17,1.83-1,3A7.7,7.7,0,0,0,53.55,45.58Z" transform="translate(-16.96 -16.92)"/><path class="cls-5" d="M110.61,109.57c1.09-.26,1.36,1.14,2.32,1.15l.2.78a16,16,0,0,1-1.25,7.56c-.3,0-.88.89-.8-.2a18.53,18.53,0,0,1,.52-2.55h0c.65-.52.49-1,0-1.53v-.08C112.15,112.83,110.66,111.33,110.61,109.57Z" transform="translate(-16.96 -16.92)"/><path class="cls-5" d="M65.08,110.5c.23.83-.36,1.37-.71,2a3.26,3.26,0,0,0,0,3.49c1.41,2.06,1,3.8-.52,5.5l-.55-.71c.58-.92,1.36-2.08.61-2.94-2.19-2.54-.94-4.8.2-7.15Z" transform="translate(-16.96 -16.92)"/><path class="cls-6" d="M65.08,110.5l-1,.18c.11-1.06,1.84-1.51,1.27-2.66s-1.74-.33-2.64-.48L61.54,106c1.78.42,4-1,5.4,1.22.13.2,1.06-.12,1.61-.2C67.42,108.23,67.24,110.37,65.08,110.5Z" transform="translate(-16.96 -16.92)"/><path class="cls-7" d="M139,35.34l.82-.27c2.84-1,3.33,1.06,3.92,3a5.51,5.51,0,0,1-2.71,2.51V39.51c.82-1.93-.1-2.76-1.91-3Z" transform="translate(-16.96 -16.92)"/><path class="cls-10" d="M45.73,84.56h.83c.77,1.68.44,4.1,3.06,4.54a15.52,15.52,0,0,1-6,3.3l-.91-.51c1.49-.83,3.66-1.33,4.29-2.6S45.7,86.33,45.73,84.56Z" transform="translate(-16.96 -16.92)"/><path class="cls-14" d="M111.6,116.32a18.53,18.53,0,0,0-.52,2.55c-.07,1.09.5.25.8.2.24,1.37.48,2.74-1.21,3.43-1.89-.63-3.13,1-4.71,1.39l1.15-1.77a2.82,2.82,0,0,0,2.58-2.82A3.14,3.14,0,0,1,111.6,116.32Z" transform="translate(-16.96 -16.92)"/><path class="cls-13" d="M128.07,63.54c-2.44,2.58-5.75,3.91-8.56,6l-1-.41,9-6.07Z" transform="translate(-16.96 -16.92)"/><path class="cls-5" d="M81.55,74.67c-.93-2.14.64-3.88,1-5.82a15,15,0,0,1,.51-1.79c1-.74,1-2,1.61-3h.89a23.06,23.06,0,0,1-2.31,6C82.46,71.54,83.08,73.5,81.55,74.67Z" transform="translate(-16.96 -16.92)"/><path class="cls-10" d="M53.55,48.14l.08-2.21c.8,2.74,3.05,3.73,5.45,4.55a4.62,4.62,0,0,0,2.54.58l2.4,1C59.92,52.3,56.33,51.24,53.55,48.14Z" transform="translate(-16.96 -16.92)"/><path class="cls-5" d="M77.21,49a16,16,0,0,0-5.79-3.61,1.25,1.25,0,0,1,0-.24c2.94-.39,9.19,4,9.71,6.87l-.59.13-.94-1.31a.89.89,0,0,0-.83-.79L78,49.52Z" transform="translate(-16.96 -16.92)"/><path class="cls-10" d="M78.55,64.55,78.07,66h-.56c0-3.37-.05-6.74-1.64-9.85l.68-.09h.19a10.54,10.54,0,0,1,1.43,3.52l.46,1C77.91,61.86,79.55,63.23,78.55,64.55Z" transform="translate(-16.96 -16.92)"/><path class="cls-10" d="M101.06,28.61c0-1,1.06-1,1.5-1.53a3.14,3.14,0,0,0,2-.62,2.79,2.79,0,0,0,.46.1c.18.36.36.58.58,0h0l1.95-.21.56-.26a2.94,2.94,0,0,0,.48-.09c1.72-.89.66-2.57,1.1-3.82,1.28,3.52.63,4.7-3,5.37C104.82,27.94,102.94,28.27,101.06,28.61Z" transform="translate(-16.96 -16.92)"/><path class="cls-10" d="M102.14,42.23c2.59-1.68,2.37-4.17,1.95-6.72a1.06,1.06,0,0,1,1.34.67l0,.05c.85,2.38-1.83,7.9-4.34,8.87C100.92,44,102.07,43.29,102.14,42.23Z" transform="translate(-16.96 -16.92)"/><path class="cls-5" d="M87.55,83.83c-1.6-1.35-2.69-3.31-5.34-3.21-1.22,0-.92-1.83-1.44-2.75,1,1.39,2.47,1.68,3.94,2.07,2,.53,3.31,1.59,2.87,3.92Z" transform="translate(-16.96 -16.92)"/><path class="cls-13" d="M90.49,98.54C89,98.26,90,96.6,89.11,96l.29-4.84c1-.64.51-1.75.77-2.63L91,88l.57.53-.06,1.4C90.8,92.77,89.72,95.55,90.49,98.54Z" transform="translate(-16.96 -16.92)"/><path class="cls-10" d="M61.55,106l1.17,1.5-.63.57H61c-2.78-1.08-4.22-3.62-3.52-6.23.64.16.57.88,1,1.23C58.55,105.14,60.08,105.53,61.55,106Z" transform="translate(-16.96 -16.92)"/><path class="cls-5" d="M93.76,81.57A10.3,10.3,0,0,1,91.63,78c-.34-1.23-.4-2.52.85-3.35a2.4,2.4,0,0,1,3.36.28l-.29.72c-1,0-2.33-.5-2.87.77s.19,2.23,1,3.15a16.51,16.51,0,0,1,1,1.37A1,1,0,0,1,93.76,81.57Z" transform="translate(-16.96 -16.92)"/><path class="cls-12" d="M90.42,117.58c.14-.54.39-1,1-1l.15,2c-.24,5.36-.19,4.32,3.51,5.41a.82.82,0,0,0,.43.1h0l.81.7-1.18.45C90.16,123.58,89.92,123.14,90.42,117.58Z" transform="translate(-16.96 -16.92)"/><path class="cls-12" d="M110.55,64.51,110,64c2.72-1.11,4.58-.31,5.12,2.61.36,1.91,1,2.9,3,2.53-.6.92-2.08,0-2.54,1.24,0-.78-1-.26-1.13-.91C114.62,66.23,113.21,64.46,110.55,64.51Z" transform="translate(-16.96 -16.92)"/><path class="cls-15" d="M95.5,32.63c1.41-1.5-.2-3.07.12-4.59H97a10.44,10.44,0,0,0,1.05,2.48c1.83,2.36.3,2.87-1.65,3.23L96,33.36Z" transform="translate(-16.96 -16.92)"/><path class="cls-2" d="M75.68,100.78l-.59.29c-.59-.38-1-1.35-1.84-.92s0,1,.05,1.46.06.6-.29.83c-.94.62-6-.12-6.86-1h.94c3.52,1.2,5,.37,4.92-2.81a1.09,1.09,0,0,1,.53-1.09c-.08.74.3,1,1,1.06C74.32,99.26,75.49,99.53,75.68,100.78Z" transform="translate(-16.96 -16.92)"/><path class="cls-9" d="M25,109.49A8.87,8.87,0,0,1,31.57,105v1c-.15.67.17,1.45-.44,2-.87-2.62-1.78-.3-2.67,0C27.36,108.54,26.73,110.25,25,109.49Z" transform="translate(-16.96 -16.92)"/><path class="cls-12" d="M139.6,66.07l-4.38,4.63-.75-.18A31.53,31.53,0,0,1,143,62l.34.35-2.66,2.77-.08.07A1.5,1.5,0,0,0,139.6,66.07Z" transform="translate(-16.96 -16.92)"/><path class="cls-10" d="M85.49,64.05H84.6l.16-1c.51-.77.17-1.64.29-2.45l.55-.11c2.28-.19,4.31-1.2,6.43-1.91l1.18-.31.41.42c-1,2-3.2,1.32-4.8,2S85.39,61.7,85.49,64.05Z" transform="translate(-16.96 -16.92)"/><path class="cls-5" d="M147.55,74c-3.28,1-6.56,1.82-9.92.31,3.16-.25,6.28-1.07,9.49-.74C147.49,73.58,147.46,73.77,147.55,74Z" transform="translate(-16.96 -16.92)"/><path class="cls-10" d="M94.61,56.05c.12-.1.37-.25.35-.3-.76-2.14.8-3.12,2.09-4.24.5,3.16-1,5.38-3.43,7.12l-.4-.42Z" transform="translate(-16.96 -16.92)"/><path class="cls-10" d="M97,28H95.53a.86.86,0,0,0-1-.54h0c-1.19-1-1.82-3-4-2.44h0l-.39-.46.41-1c1.47-.4,2.58-.3,3.36,1.4a3.4,3.4,0,0,0,3.59,2Z" transform="translate(-16.96 -16.92)"/><path class="cls-12" d="M72,98.65c.05,3.18-1.4,4-4.92,2.81,1.22-.69,2.61-.08,4-.63C70,98.83,67.88,97,70,94.5l.26.25C70.23,96.33,69.15,98.38,72,98.65Z" transform="translate(-16.96 -16.92)"/><path class="cls-15" d="M157.48,50a1.27,1.27,0,0,0,1.09.57c3.22.47,5.77-1.28,8.47-2.55l-.64,1.41a11.92,11.92,0,0,0-3.44,2c-1.28.39-2.45-.52-3.72-.3L158,51.6c-.55-.42-1.46-.49-1.42-1.47Z" transform="translate(-16.96 -16.92)"/><path class="cls-12" d="M96,33.34l.44.39L98,35.57l.14.5v2l-.71,6-.4.49-.45.1-.23-.22c.55-2.49.49-5.06.85-7.54C97.49,35.14,95.55,34.75,96,33.34Z" transform="translate(-16.96 -16.92)"/><path class="cls-13" d="M123.55,37.14c-.09.75-.6.89-1.23.83s-1.32-.48-1.63.46a1.85,1.85,0,0,0,.51,2c.74.74,1.65,1.4,1.36,2.67-1.45-.88-2.71-1.92-3-3.73-.33-2.14.73-3,3-2.64l.8.34Z" transform="translate(-16.96 -16.92)"/><path class="cls-2" d="M87.55,83.83h0c1.41.78,1.31,2.4,2,3.6-.54.63-1,1.37-2,1L85,87.09h.56a1.54,1.54,0,0,0,1-1.49Z" transform="translate(-16.96 -16.92)"/><path class="cls-10" d="M111.38,74.48c2.47-.85,5.21-.16,7.65-1.39a1.73,1.73,0,0,1,2.14.83A25,25,0,0,1,112,75Z" transform="translate(-16.96 -16.92)"/><path class="cls-5" d="M58.55,97.07c-1.23-.44-1.66-1.67-2.5-2.51-.62-1.47-.62-3.17-1.59-4.51l.15-.63c.92.07,1.22.81,1.5,1.48C56.93,92.94,57.71,95,58.55,97.07Z" transform="translate(-16.96 -16.92)"/><path class="cls-5" d="M28.49,108c.89-.27,1.8-2.6,2.67,0l.41.54c.14,1.4-.12,3,1.87,3.43l.86.18c-.28.84-.9,1.31-1.7.91a3.27,3.27,0,0,1-1.92-3C30.74,108.4,29.93,108,28.49,108Z" transform="translate(-16.96 -16.92)"/><path class="cls-12" d="M93.76,81.57a1,1,0,0,0,.91-.66l.9.07v.62c-.93,2.46-3.15,4.21-3.72,6.87a1.06,1.06,0,0,0-.32.08L91,88a9.86,9.86,0,0,1,2-3.61C93.55,83.6,94.41,82.78,93.76,81.57Z" transform="translate(-16.96 -16.92)"/><path class="cls-5" d="M69.46,43.47c-.58-3,.64-5.65,1.68-8.33l.9-.6a1.28,1.28,0,0,0,.31.27Z" transform="translate(-16.96 -16.92)"/><path class="cls-13" d="M96.09,88.63a11.06,11.06,0,0,1,4.83-6.73l.13.76C99.18,84.46,98.55,87.3,96.09,88.63Z" transform="translate(-16.96 -16.92)"/><path class="cls-5" d="M61.19,100l-2.06-2c2.57.51,5.21.84,7,3.11l-.51.42-2-.53Z" transform="translate(-16.96 -16.92)"/><path class="cls-12" d="M109.65,22.22c-.44,1.25.62,2.94-1.1,3.82v-.51l.11-.91c.39-2.12-1-3-2.59-3.79a.34.34,0,0,0,0-.27v-1l1.58-.08h-.08a.8.8,0,0,0,.77.55A3.08,3.08,0,0,1,109.65,22.22Z" transform="translate(-16.96 -16.92)"/><path class="cls-5" d="M141.07,40.58a5.51,5.51,0,0,0,2.71-2.51l.33-1.78c1.12,2.72.81,3.64-1.68,4.82-.93.44-1.9.81-2.85,1.21.06-.1,0-.18-.1-.24V41L140,41a.82.82,0,0,0,1-.39Z" transform="translate(-16.96 -16.92)"/><path class="cls-12" d="M135.55,100v.82c-2.94.87-5.9,1.55-9,1l1.92-.83c.79.93,1,.11,1.3-.43l1.23.06Z" transform="translate(-16.96 -16.92)"/><path class="cls-13" d="M175,74.41a.74.74,0,0,1,0-.27c1.87-1.46,2.7-3.91,4.83-5.12h0L179,71.49c-.37.68-1.08,1.17-1.15,2C176.76,73.2,176.05,74.29,175,74.41Z" transform="translate(-16.96 -16.92)"/><path class="cls-5" d="M126.6,86.14c-.8,1.69-1.3,3.53-2.55,5l-1.28-.06-.29-1V88.64l.11-.1c.67.46,1.28,1,1.83-.2A26.19,26.19,0,0,1,126,85.61Z" transform="translate(-16.96 -16.92)"/><path class="cls-13" d="M122.78,91.05l1.27.06c0,1.34.22,2.7-.5,3.94l-2.49,1.14a3.1,3.1,0,0,0-.07-.8l-.44-.36h0l.09-.57C122.86,94.25,121.82,92,122.78,91.05Z" transform="translate(-16.96 -16.92)"/><path class="cls-12" d="M76.69,70.23c-.51,2.57-2.34,4.65-4.11,4.69-.48-.5-1.56-.26-1.59-1.3l.24-.25c2.18,1.12,3-.69,4.09-1.91a11.16,11.16,0,0,0,1.15-2.09Z" transform="translate(-16.96 -16.92)"/><path class="cls-7" d="M130.28,44.62l-1.38-1.9c.71-.88,1.78-.94,2.75-1.21a.46.46,0,0,1,.35.07,2.61,2.61,0,0,0,1.53,2.48h0l.13,1C132.55,44.92,131.47,44.3,130.28,44.62Z" transform="translate(-16.96 -16.92)"/><path class="cls-13" d="M126.6,86.14l-.55-.56c.74-2.25,2.37-3.83,4-5.39l.82.75c-1.28.64-1.73,1.93-2.41,3A2.6,2.6,0,0,0,127,86,2.33,2.33,0,0,0,126.6,86.14Z" transform="translate(-16.96 -16.92)"/><path class="cls-13" d="M172.73,42.08c.12,3.89-3.67,4.09-5.66,6C168.64,45.77,170.88,44.14,172.73,42.08Z" transform="translate(-16.96 -16.92)"/><path class="cls-13" d="M125,46l1.09.29-.15,1.23h-.23c-2.41.4-4.71-.68-7.11-.51L118,46l1.84-.07a6.3,6.3,0,0,1,3.57.61C124.34,47.14,124.71,46.93,125,46Z" transform="translate(-16.96 -16.92)"/><path class="cls-12" d="M177.61,44.14l.47-.53c1.1-1.18-.06-2.81.81-4a25.57,25.57,0,0,1,.15,6.9,2.6,2.6,0,0,1-1.45,2.16Z" transform="translate(-16.96 -16.92)"/><path class="cls-9" d="M80.55,52.14l.59-.13c1.62.68,2,2.41,2.93,3.61l-.12.94c-.73-.06-1.69.34-1.6-1.1,0-.65-.67-.83-1.29-.84C80.05,54,80.22,53.06,80.55,52.14Z" transform="translate(-16.96 -16.92)"/><path class="cls-10" d="M136.55,46.05l.11,11.56-1-.59c0-1.66-.3-3.34.29-5l.05-1C136.49,49.46,135.45,47.63,136.55,46.05Z" transform="translate(-16.96 -16.92)"/><path class="cls-10" d="M130.48,40.06c-2.25.14-4.35-.18-5.92-2C126.77,38,129.09,37.66,130.48,40.06Z" transform="translate(-16.96 -16.92)"/><path class="cls-5" d="M111.38,74.48,112,75c-2.29.5-4.3,1.74-6.45,2.59l-.14-.53A8.59,8.59,0,0,1,111.38,74.48Z" transform="translate(-16.96 -16.92)"/><path class="cls-5" d="M70.55,29c2.26.06,3.37,1.61,2.69,3.82a15.84,15.84,0,0,1-.9,2,1.31,1.31,0,0,1-.31-.27V33c.12-1.26.81-2.78-1.37-3v-.93Z" transform="translate(-16.96 -16.92)"/><path class="cls-13" d="M136.55,46.05c-1.08,1.58,0,3.41-.59,5-.72-1.66-.78-3.55-1.8-5.1l-.46-1-.13-1c1.32,0,1.66,1.93,3.16,1.53Z" transform="translate(-16.96 -16.92)"/><path class="cls-13" d="M144.11,36.29l-.33,1.78c-.6-1.93-1.08-4-3.92-3,0-2.48,1.48-1.58,2.67-1.08A2.42,2.42,0,0,1,144.11,36.29Z" transform="translate(-16.96 -16.92)"/><path class="cls-5" d="M137.55,72.66c-.64-2.68,1.45-3.7,3-5A7.87,7.87,0,0,1,137.55,72.66Z" transform="translate(-16.96 -16.92)"/><path class="cls-11" d="M25.64,81.08l-.15,1.22c-.5-.84-.47-2.14-2.19-1.62s-1.08-1.47-1.8-2.09l2.08.32,1,.11h0l.49.48Z" transform="translate(-16.96 -16.92)"/><path class="cls-13" d="M95.55,75.63l.29-.72c1.24.72,1,2.64,2.54,3.12-1.22.44-1.14,2-2.3,2.55l-.06,0C96,78.88,96.44,77.14,95.55,75.63Z" transform="translate(-16.96 -16.92)"/><path class="cls-13" d="M152.55,57c.52,1.7,1.81,1,2.81.79a36,36,0,0,0,3.7-1.23v.59c-2.43.92-4.76,2.57-7.54,1.07l1-1.22Z" transform="translate(-16.96 -16.92)"/><path class="cls-12" d="M159.1,57.14v-.59l.5-.53,4.43-.09h2.08a.68.68,0,0,0,.3.07c-.35,1.22-1.4.89-2.22,1A45.68,45.68,0,0,1,159.1,57.14Z" transform="translate(-16.96 -16.92)"/><path class="cls-13" d="M134.48,70.52l.75.18a26.47,26.47,0,0,1-3.12,4.91L132,74.38C132.55,72.91,133,71.41,134.48,70.52Z" transform="translate(-16.96 -16.92)"/><path class="cls-12" d="M61,108.09h1.06c-.4,2.3-1.34,3.93-4.11,3.53-.44-.06-.94.27-1.41.43l-.09-.79a6,6,0,0,1,1.84-.55C60.22,110.8,61,109.85,61,108.09Z" transform="translate(-16.96 -16.92)"/><path class="cls-13" d="M101.55,81c.67-1.92,1.48-3.64,4-3.08l1.06.68a3.08,3.08,0,0,0,0,.44c-2-.42-3.23.9-4.54,2Z" transform="translate(-16.96 -16.92)"/><path class="cls-10" d="M65.82,52.14c1-.46,2.05.08,3.08,0,1.11.78,2.55.22,3.69.89l-.08.77C70.19,53.53,67.8,53.63,65.82,52.14Z" transform="translate(-16.96 -16.92)"/><path class="cls-11" d="M72.91,87.67l.32-.58L75.52,87c1.68,1.19,3.61.15,5.37.6-1.13,1.87-2.9.66-4.36.91A5.46,5.46,0,0,0,73,87.61Z" transform="translate(-16.96 -16.92)"/><path class="cls-12" d="M101.55,81l.57.08c1.13,2.25,3.21,1.35,5,1.5l.31.71h-.19a.78.78,0,0,0-1.09.18l0,.06c-1.89,1-3.22-1.17-5-.86L101,81.9a1.12,1.12,0,0,1,.12-.3l.47-.55Z" transform="translate(-16.96 -16.92)"/><path class="cls-12" d="M146.55,62H148c-2,1.9-4.42,3.12-6.6,4.73l.11-1.16Z" transform="translate(-16.96 -16.92)"/><path class="cls-12" d="M68.55,69.47l-.11-.74q0-.87.05-1.74l.62-1.9L71,64.46l.23.25a.35.35,0,0,1-.14.37l-.51.43c-1.4,1-1,2.6-1.23,4Z" transform="translate(-16.96 -16.92)"/><path class="cls-10" d="M173.55,41.07h-.5a21.68,21.68,0,0,0-1.11-5.35l.19-.94c1.23,1.75,2.39,3.51,1.62,5.82Z" transform="translate(-16.96 -16.92)"/><path class="cls-12" d="M176.94,36.14c-1.5-.92-1.71-3.72-4.35-3,.19-.78,1.19-.43,1.48-1.07A7.5,7.5,0,0,1,177.71,36Z" transform="translate(-16.96 -16.92)"/><path class="cls-5" d="M72.55,53.76l.08-.77.46-.1,2.43.81,1,2.34-.68.09A8.3,8.3,0,0,0,72.55,53.76Z" transform="translate(-16.96 -16.92)"/><path class="cls-5" d="M132,74.38l.11,1.23a5.51,5.51,0,0,1-1.34,3.73h-.2C130.08,77.4,131.06,75.89,132,74.38Z" transform="translate(-16.96 -16.92)"/><path class="cls-12" d="M62.07,67.14l1,.92H61.55c-1.4-.73-3.09,0-4.45-.89A5.27,5.27,0,0,1,62.07,67.14Z" transform="translate(-16.96 -16.92)"/><path class="cls-13" d="M151.55,50l.52.08A5.25,5.25,0,0,1,151,53.51l-1.41.56C149.77,52.49,150.8,51.31,151.55,50Z" transform="translate(-16.96 -16.92)"/><path class="cls-13" d="M102.11,32.52a2.53,2.53,0,0,1-2.5-2.47,1.23,1.23,0,0,1,1.47-1.48C100.25,30.19,101.78,31.2,102.11,32.52Z" transform="translate(-16.96 -16.92)"/><path class="cls-5" d="M58.62,38.52l-1,.47c-.34-.89-.76-1.71.21-2.59a2.25,2.25,0,0,0,.58-2.28l.91-.14C60.18,35.67,58.18,36.9,58.62,38.52Z" transform="translate(-16.96 -16.92)"/><path class="cls-10" d="M62.06,29h-1c-1.26-2.76.9-2.72,2.54-3.11-.23.6-1.08.73-1.11,1.48C62.27,28,61.86,28.42,62.06,29Z" transform="translate(-16.96 -16.92)"/><path class="cls-5" d="M120.67,94.47l-.09.57-3-4.46H119l.86,1Z" transform="translate(-16.96 -16.92)"/><path class="cls-13" d="M176.94,36.14l.77-.13a7.15,7.15,0,0,1,1.17,3.56c-.88,1.22.29,2.86-.81,4A17.53,17.53,0,0,0,176.94,36.14Z" transform="translate(-16.96 -16.92)"/><path class="cls-5" d="M73.55,98.61c-.7,0-1.07-.32-1-1.06.79-1.65.95-3-1.46-3.18v-.74c1.81-.47,2.67.3,2.56,2.1C73.55,96.7,74,97.67,73.55,98.61Z" transform="translate(-16.96 -16.92)"/><path class="cls-5" d="M132.46,86.8l.65.3-3.94,3.76-.29-.9C129.55,88.34,131.16,87.73,132.46,86.8Z" transform="translate(-16.96 -16.92)"/><path class="cls-5" d="M174.07,32.06c-.28.65-1.29.3-1.48,1.07a1.84,1.84,0,0,0-.44,1.64l-.19.94a2.39,2.39,0,0,1-.51-3.09C172.05,31.67,173.08,31.71,174.07,32.06Z" transform="translate(-16.96 -16.92)"/><path class="cls-5" d="M107.36,83.28l-.31-.71c1.57-1.39,1.6-2.59-.43-3.54a3.08,3.08,0,0,1,0-.44A1.87,1.87,0,0,1,109,80.15a2.42,2.42,0,0,1-1.49,3.08Z" transform="translate(-16.96 -16.92)"/><path class="cls-13" d="M128.88,90l.29.9c-.31,1-1.18,1.87-.84,3.06l-.82.17C126.24,92.14,127.78,91.14,128.88,90Z" transform="translate(-16.96 -16.92)"/><path class="cls-5" d="M55,69l1.62,2.52-.07.75c-1.1,0-2.16-.23-2.49-1.45C53.83,70,53.8,69.14,55,69Z" transform="translate(-16.96 -16.92)"/><path class="cls-5" d="M172.55,53.47a1.15,1.15,0,0,0,0-.36c1.36-1,2-2.89,4-3.08C175.35,51.31,174.8,53.38,172.55,53.47Z" transform="translate(-16.96 -16.92)"/><path class="cls-12" d="M56.55,72.22l.07-.75a21.53,21.53,0,0,0,5.48-.56v.15l-.06.87C60.18,71.88,58.4,72.89,56.55,72.22Z" transform="translate(-16.96 -16.92)"/><path class="cls-13" d="M139,35.34l.07,1.14c-.75.23-1.83-.25-2.09,1h-1.5C136.37,36.27,137,34.71,139,35.34Z" transform="translate(-16.96 -16.92)"/><path class="cls-13" d="M84,56.55l.12-.94,1-.57c-.24,1.84.58,3.57.59,5.39l-.55.11a1.26,1.26,0,0,0-.45,0H84.5l.05-2Z" transform="translate(-16.96 -16.92)"/><path class="cls-5" d="M150.11,82a1.07,1.07,0,0,0-1.05.5l-5.48-.6c.67-.73,1.8,0,2.47-.78l1.53.1.57.25a1.37,1.37,0,0,0,.41,0C149.09,81.58,149.71,81.5,150.11,82Z" transform="translate(-16.96 -16.92)"/><path class="cls-10" d="M59.34,34l-.91.14c-.84-.91-1.91-.45-2.9-.46a2.27,2.27,0,0,1,2.61-1.57C59.18,32.2,59.15,33.22,59.34,34Z" transform="translate(-16.96 -16.92)"/><path class="cls-13" d="M135.55,57l1,.59c.57,1.13-.47,1.93-.58,2.93l-.39.65h.05L134.9,61C135.15,59.65,135.75,58.39,135.55,57Z" transform="translate(-16.96 -16.92)"/><path class="cls-10" d="M87.55,88.42c1,.41,1.51-.34,2-1,.56.15.55.62.6,1.06-.26.88.27,2-.77,2.63-.58-.75-.94-1.69-1.86-2.15Z" transform="translate(-16.96 -16.92)"/><path class="cls-12" d="M61,121.32c0-1.36.32-2.88-1.85-2.74,1.27-.81,2.59-1.77,2.4,1a1.38,1.38,0,0,0,1,1.5v.83A1.4,1.4,0,0,1,61,121.32Z" transform="translate(-16.96 -16.92)"/><path class="cls-13" d="M96.55,45.62c-.34,1.62-.63,3.28-2.49,4-.27-1.49,1-2.3,1.52-3.46L96,45.5h0Z" transform="translate(-16.96 -16.92)"/><path class="cls-12" d="M87.55,88.42V89L83,87.61c.49-.9,1.32-.48,2-.54Z" transform="translate(-16.96 -16.92)"/><path class="cls-5" d="M62,71.93l.06-.87c1.6.38,3.3.65,2.94,3A5.85,5.85,0,0,0,62,71.93Z" transform="translate(-16.96 -16.92)"/><path class="cls-13" d="M76.69,70.23l-.21-.87c.47-1.09.18-2.4,1-3.38H78C78,67.57,78.35,69.22,76.69,70.23Z" transform="translate(-16.96 -16.92)"/><path class="cls-13" d="M68.55,69.47h.79L70.16,72l-.13.68a2.26,2.26,0,0,1-1.48-3.16Z" transform="translate(-16.96 -16.92)"/><path class="cls-5" d="M122,88.56c-.81-1.59-.65-2.9,1.11-3.73l-.48,3.65-.11.1Z" transform="translate(-16.96 -16.92)"/><path class="cls-12" d="M23.55,78.91l-2.08-.32-.49-.1-1.5-.7c1.38-.51,2.69,0,4,.29h0Z" transform="translate(-16.96 -16.92)"/><path class="cls-2" d="M52.61,86.5l.82-.13c.84.79-.39,1.76.21,2.57l-.15.16A1.68,1.68,0,0,1,52.61,86.5Z" transform="translate(-16.96 -16.92)"/><path class="cls-13" d="M103.18,34.5h-.06c-.62-.51-1.25-1-1-2,1-.08,1,1,1.79,1.44S103.39,34.24,103.18,34.5Z" transform="translate(-16.96 -16.92)"/><path class="cls-12" d="M62.5,27.44c0-.75.88-.88,1.11-1.48a.44.44,0,0,1,.62,0l0,0a1.06,1.06,0,0,1,1.31.6Z" transform="translate(-16.96 -16.92)"/><path class="cls-5" d="M39,93.94l.12-1.42c.84.63,1.64,0,2.46-.06l.2.79h-.12c-.46-.13-.81,0-.92.48h0l-.56.43-1,.43Z" transform="translate(-16.96 -16.92)"/><path class="cls-5" d="M93.55,111.46a1.4,1.4,0,0,1-.45.06,1.18,1.18,0,0,0-.92-.87l-.17-.07,1.67-1.48h-.06Z" transform="translate(-16.96 -16.92)"/><path class="cls-12" d="M146,81.14c-.67.75-1.79,0-2.47.78l-1.52.07.07-.87Z" transform="translate(-16.96 -16.92)"/><path class="cls-5" d="M73,87.61a5.46,5.46,0,0,1,3.53.91C75.33,88.32,73.81,89.35,73,87.61Z" transform="translate(-16.96 -16.92)"/><path class="cls-13" d="M95.55,91H95a.48.48,0,0,0,0-.36l.2-2h1Z" transform="translate(-16.96 -16.92)"/><path class="cls-10" d="M65.55,26.64a1.06,1.06,0,0,0-1.31-.6,3.92,3.92,0,0,1,3.54.41l-.9.34Z" transform="translate(-16.96 -16.92)"/><path class="cls-13" d="M133.55,44.05A2.61,2.61,0,0,1,132,41.57h.56C133,42.35,133.74,43,133.55,44.05Z" transform="translate(-16.96 -16.92)"/><path class="cls-13" d="M135.55,37.51a4.52,4.52,0,0,1-.1,1.18,3.86,3.86,0,0,1-.65.91l-.28-1.13A1.49,1.49,0,0,1,135.55,37.51Z" transform="translate(-16.96 -16.92)"/><path class="cls-12" d="M66.91,26.79l.9-.34c.72,0,1.1.58,1.51,1.08A2.54,2.54,0,0,1,66.91,26.79Z" transform="translate(-16.96 -16.92)"/><path class="cls-12" d="M41.73,93.24l-.2-.79,1.15-.55.91.51Z" transform="translate(-16.96 -16.92)"/><path class="cls-5" d="M116.61,44.48a3.14,3.14,0,0,1,2,1l-1.22.11-.92-.5v-.56Z" transform="translate(-16.96 -16.92)"/><path class="cls-7" d="M91.14,110c-.7,0-1.08-.27-1-1C90.86,108.93,91.13,109.34,91.14,110Z" transform="translate(-16.96 -16.92)"/><path class="cls-12" d="M117.44,45.62l1.22-.11a1.37,1.37,0,0,1,1.19.5l-1.84.07Z" transform="translate(-16.96 -16.92)"/><path class="cls-5" d="M62.55,121.9v-.83l.72-.3.55.71A1.27,1.27,0,0,1,62.55,121.9Z" transform="translate(-16.96 -16.92)"/><path class="cls-2" d="M54.55,89.41,54.4,90c-.6,0-.85-.4-.94-.94l.15-.16C54,89,54.43,88.93,54.55,89.41Z" transform="translate(-16.96 -16.92)"/><path class="cls-12" d="M143,62l1.27-1.25a4.75,4.75,0,0,0,.33.36,2,2,0,0,1-1.26,1.24Z" transform="translate(-16.96 -16.92)"/><path class="cls-5" d="M120.38,97.37l-.4.27Z" transform="translate(-16.96 -16.92)"/><path class="cls-2" d="M113.13,111.5l-.2-.78c.72-.69.55.13.69.41Z" transform="translate(-16.96 -16.92)"/><path class="cls-12" d="M71.06,93.64v.74l-.82.38L70,94.51A1.11,1.11,0,0,1,71.06,93.64Z" transform="translate(-16.96 -16.92)"/><path class="cls-12" d="M70.46,28.39c-.61.07-.81-.3-.87-.82A1,1,0,0,1,70.46,28.39Z" transform="translate(-16.96 -16.92)"/><path class="cls-12" d="M148.67,61.29l.68-.7C149.26,61,149.22,61.37,148.67,61.29Z" transform="translate(-16.96 -16.92)"/><path class="cls-12" d="M135,61l.73.24a1.08,1.08,0,0,1-.55,1l-.14-.14v-1Z" transform="translate(-16.96 -16.92)"/><path class="cls-12" d="M71.39,63.36l.15,1.26a.4.4,0,0,1-.35.09L71,64.46l.1-.89Z" transform="translate(-16.96 -16.92)"/><path class="cls-12" d="M70,72.66l.13-.68c.37.25.66.54.47,1Z" transform="translate(-16.96 -16.92)"/><polygon class="cls-5" points="121.91 26.23 121.91 26.26 122.07 26.24 121.91 26.23"/><polygon class="cls-5" points="53.22 27.27 53.25 27.25 53.22 27.13 53.22 27.27"/><path class="cls-12" d="M96.55,45.62l-.61-.11.4-1.11.23.22v.93Z" transform="translate(-16.96 -16.92)"/><path class="cls-8" d="M123.42,37.14l-.8-.34A.63.63,0,0,1,123.42,37.14Z" transform="translate(-16.96 -16.92)"/><path class="cls-5" d="M106,83.52a.78.78,0,0,1,1.07-.28l.06,0A.82.82,0,0,1,106,83.52Z" transform="translate(-16.96 -16.92)"/><path class="cls-5" d="M102.68,102.41l.95.54-.1.11h-1a.84.84,0,0,1-.24-.24Z" transform="translate(-16.96 -16.92)"/><path class="cls-5" d="M176.55,50.07a1.07,1.07,0,0,1,.64-1A1.05,1.05,0,0,1,176.55,50.07Z" transform="translate(-16.96 -16.92)"/><path class="cls-12" d="M145,59.88v1.18a2,2,0,0,0-.45,0,4.75,4.75,0,0,1-.33-.36Z" transform="translate(-16.96 -16.92)"/><path class="cls-5" d="M120.55,95l.44.36Z" transform="translate(-16.96 -16.92)"/><path class="cls-12" d="M128.07,63.54l-.52-.51H128Z" transform="translate(-16.96 -16.92)"/><path class="cls-12" d="M177.11,49.14l.48-.6C177.63,48.91,177.5,49.14,177.11,49.14Z" transform="translate(-16.96 -16.92)"/><path class="cls-5" d="M102,102.69l.08-.67.63.39-.41.42Z" transform="translate(-16.96 -16.92)"/><path class="cls-12" d="M96,45.51l-.41.61Z" transform="translate(-16.96 -16.92)"/><path class="cls-2" d="M65.61,101.51l.51-.42a.26.26,0,0,1,.06.31Z" transform="translate(-16.96 -16.92)"/><path class="cls-10" d="M108.35,20a.8.8,0,0,1-.77-.55C108.07,19.35,108.18,19.72,108.35,20Z" transform="translate(-16.96 -16.92)"/><path class="cls-12" d="M135.66,61.19l.39-.65Z" transform="translate(-16.96 -16.92)"/><path class="cls-5" d="M133.05,87.14l.8-.52Z" transform="translate(-16.96 -16.92)"/><path class="cls-12" d="M135.16,62.14l-.44.55-.57-.52a.8.8,0,0,1,.21-.28L135,62Z" transform="translate(-16.96 -16.92)"/><path class="cls-12" d="M134.72,62.71l-.43.57L134,63l-.07-.59a.66.66,0,0,1,.18-.25Z" transform="translate(-16.96 -16.92)"/><path class="cls-5" d="M54,35l-.52.5C53.33,35,53.78,35.14,54,35Z" transform="translate(-16.96 -16.92)"/><path class="cls-5" d="M70.55,65.51l.51-.43C71,65.41,70.82,65.49,70.55,65.51Z" transform="translate(-16.96 -16.92)"/><path class="cls-5" d="M116.55,89v0Z" transform="translate(-16.96 -16.92)"/><path class="cls-12" d="M70.55,73.68l.08-.68c.37-.15.51.11.64.37l-.24.25A2.39,2.39,0,0,0,70.55,73.68Z" transform="translate(-16.96 -16.92)"/><path class="cls-7" d="M91.92,111.05l-.34-.59.39.11.17.07A.74.74,0,0,0,91.92,111.05Z" transform="translate(-16.96 -16.92)"/><path class="cls-9" d="M168,77.69c1.66-1.82,3.86-2.11,6.14-2.16,1.26.24.8,1.25.9,2,.53,1.53-1.14,2-1.45,3.19a5.42,5.42,0,0,1-3,.93A1.76,1.76,0,0,0,169.08,80,1.5,1.5,0,0,1,168,77.69Zm4.06,0c-.16-.28.21-1.15-.74-1-.63.09-1.3.37-1.32,1.21a1,1,0,0,0,.77,1.19l.18,0c.88.11,1.14-.43,1.11-1.39Z" transform="translate(-16.96 -16.92)"/><path class="cls-14" d="M150.11,82c-.4-.52-1-.43-1.56-.57,2.78-.88,5.59-.29,8.38-.08A2.21,2.21,0,0,1,159,83.46Z" transform="translate(-16.96 -16.92)"/><path class="cls-2" d="M144.55,61.14a2,2,0,0,1,.45,0l1.52,1-5,3.52a.84.84,0,0,0-.89-.47l2.66-2.77A2,2,0,0,0,144.55,61.14Z" transform="translate(-16.96 -16.92)"/><path class="cls-2" d="M139.6,66.07a1.5,1.5,0,0,1,1-.91A1,1,0,0,1,139.6,66.07Z" transform="translate(-16.96 -16.92)"/><path class="cls-5" d="M165,83.29l-1,.24A.83.83,0,0,1,165,83.29Z" transform="translate(-16.96 -16.92)"/><path class="cls-12" d="M148.14,81.49l-.57-.25Z" transform="translate(-16.96 -16.92)"/><path class="cls-4" d="M76.55,56l-1-2.34a4.86,4.86,0,0,0-.23-1.64c-1.23-2.27,0-2.89,2-3.07l.83.53.74.51a.89.89,0,0,1,.83.79c-.07,1.8-2.29,3.17-1.06,5.23H76.55Z" transform="translate(-16.96 -16.92)"/><path class="cls-4" d="M70.09,52c.08-1.22-.84-1.22-1.66-1.61-2.25-1.08-5-1.42-6.37-3.92h2.45c.72,1.08,1.83,1.11,3,1.08l2,.38c.17,1.6,2.74,1.21,2.57,3.1C71.87,52.32,70.88,52,70.09,52Z" transform="translate(-16.96 -16.92)"/><path class="cls-9" d="M63,44.44c-.4-.47-1-.37-1.48-.39v-.47c0-.57.11-1.18-.52-1.54V41h0l1-.53.58.59V42l.07.65L63,42.5l1.48,1.58v.54Z" transform="translate(-16.96 -16.92)"/><path class="cls-4" d="M62.63,42V41.1a2.59,2.59,0,0,1,.44-.06h2.52a3.33,3.33,0,0,1-1,3l-1.48-1.58Z" transform="translate(-16.96 -16.92)"/><path class="cls-11" d="M63,44.44l1.49.18a1.53,1.53,0,0,1,0,1.89H62.07C62.1,45.67,61.79,44.68,63,44.44Z" transform="translate(-16.96 -16.92)"/><path class="cls-15" d="M69.55,48l-2-.38a6.49,6.49,0,0,1,.15-1c.21-.66.61-1.38,1.32-1.28.92.13.55,1,.58,1.64A7.19,7.19,0,0,0,69.55,48Z" transform="translate(-16.96 -16.92)"/><path class="cls-6" d="M70.65,30c2.18.22,1.49,1.74,1.37,3l-1-.15C70.87,31.86,69.3,31.14,70.65,30Z" transform="translate(-16.96 -16.92)"/><path class="cls-8" d="M65.55,41.06H63a1.77,1.77,0,0,1,1-2C64.54,39.73,65.64,40,65.55,41.06Z" transform="translate(-16.96 -16.92)"/><path class="cls-9" d="M70.09,52c.79-.06,1.77.3,2-1,1.24.12.91,1.07,1,1.82l-.46.1c-1.14-.67-2.57-.11-3.69-.89Z" transform="translate(-16.96 -16.92)"/><path class="cls-11" d="M71,32.81,72,33v1.57l-.9.6C70.46,34.39,69.43,33.66,71,32.81Z" transform="translate(-16.96 -16.92)"/><path class="cls-4" d="M65.55,41.06c.09-1.12-1-1.34-1.52-2C65.5,39,66.8,39.07,65.55,41.06Z" transform="translate(-16.96 -16.92)"/><path class="cls-8" d="M62,40.52l-1,.53c0-.69,0-1.43,1-1.44Z" transform="translate(-16.96 -16.92)"/><path class="cls-6" d="M70.55,29.06v1C70.06,29.73,70,29.41,70.55,29.06Z" transform="translate(-16.96 -16.92)"/><path class="cls-4" d="M84,56.55l.54,2.06c-.69.54-.41,1.29-.42,2l-.56,3.44c-.68-.07-1.45.24-2-.48V59.76a4.48,4.48,0,0,1-2.95.79l-.46-1c.81-1.09.2-2.34.41-3.49h0L81,54.62c.62,0,1.34.19,1.29.84C82.26,56.89,83.22,56.49,84,56.55Z" transform="translate(-16.96 -16.92)"/><path class="cls-8" d="M70.55,73.68a2.39,2.39,0,0,1,.48-.06c0,1,1.11.81,1.59,1.3.44,1.82,1.63,2,2.94,1.24,1,1-1.56,2.22.52,2.89,0,.46.14,1.07-.47,1.26s-.73-.28-.91-.65c-1-2.1-1.45-.86-2.48.13-1.31,1.24,1.09,2.3-.18,3.27l-1.44-.52h0v-1A3.53,3.53,0,0,1,71.29,79c.42-.48.47-1.3-.1-1.51C68.5,76.56,70,75.06,70.55,73.68Z" transform="translate(-16.96 -16.92)"/><path class="cls-4" d="M72,83.05c1.27-1-1.12-2,.18-3.27,1-1,1.49-2.22,2.48-.13.18.38.44.8.91.65S76,79.51,76,79c.69-.43.89-1.88,2-1.33s.33,1.52,0,2.31c-.54,1-3.12,1-1.45,3l-1.07.54a1,1,0,0,0-1,1h-.87L72.18,84Z" transform="translate(-16.96 -16.92)"/><path class="cls-2" d="M78.61,60.53a4.48,4.48,0,0,0,2.95-.79v3.81c-1.11,0-1.8,1.31-3,1C79.55,63.23,77.91,61.86,78.61,60.53Z" transform="translate(-16.96 -16.92)"/><path class="cls-8" d="M74.55,84.59a1,1,0,0,1,1-1c-.85,1.15,1,2.31,0,3.45l-2.29.08-.16-.47C73,85.54,74.21,85.39,74.55,84.59Z" transform="translate(-16.96 -16.92)"/><path class="cls-14" d="M83.55,64l.56-3.44h.53L84.8,63l-.16,1c-.62,1-.59,2.27-1.61,3A8.16,8.16,0,0,1,83.55,64Z" transform="translate(-16.96 -16.92)"/><path class="cls-8" d="M86.55,85.56a1.54,1.54,0,0,1-1,1.49,2.21,2.21,0,0,0-.41-.59c-.69-.5-1.42-1-.39-1.82C86.06,83.54,86.09,85,86.55,85.56Z" transform="translate(-16.96 -16.92)"/><path class="cls-15" d="M76.62,83c-1.67-2,.91-2,1.45-3C78,81.22,78.55,82.72,76.62,83Z" transform="translate(-16.96 -16.92)"/><path class="cls-4" d="M139.47,97.22l-.83.78c-2.24-.32-3.89,1.72-6.09,1.55a2.87,2.87,0,0,1,1.76-3.17,8.82,8.82,0,0,0,3.27-2.88c1.38.11,1.44,1.27,1.76,2.22A1.53,1.53,0,0,0,139.47,97.22Z" transform="translate(-16.96 -16.92)"/><path class="cls-4" d="M123.11,99.06c.88-1.24.2-2.67.47-4,3.52.27,4.63.72,2.46,6l-2-.09a1,1,0,0,0-.91-1Z" transform="translate(-16.96 -16.92)"/><path class="cls-6" d="M124.09,101l2,.09v1c-1.34,0-2,.9-2.73,1.84-1.3,1.65-2.37,3.62-4.73,4.06v-1.44h0l.52-.51h0a1,1,0,0,0,1-.47,1.09,1.09,0,0,0,.52-1.07l.45-.43C123,104,123,101.92,124.09,101Z" transform="translate(-16.96 -16.92)"/><path class="cls-4" d="M127,86A2.6,2.6,0,0,1,128.51,84c1.21.06,2.1.42,2,1.88,0,.83-.29,1.49-1.17,1.65C128.19,87.71,127.21,87.49,127,86Z" transform="translate(-16.96 -16.92)"/><path class="cls-6" d="M132.55,99.54c2.21.17,3.85-1.87,6.09-1.55a5.86,5.86,0,0,1-3.09,2l-4.52.63Z" transform="translate(-16.96 -16.92)"/><path class="cls-14" d="M130.37,95a8,8,0,0,1,7.12-2.31v.24C134.93,93,132.94,95,130.37,95Z" transform="translate(-16.96 -16.92)"/><path class="cls-9" d="M137.55,92.94V92.7a4.68,4.68,0,0,1,3.1.37c0,1.09.1,2.2-1.25,2.64-.32-1-.38-2.11-1.76-2.22Z" transform="translate(-16.96 -16.92)"/><path class="cls-6" d="M129.82,100.58c-.3.55-.51,1.36-1.3.43A1.39,1.39,0,0,1,129.82,100.58Z" transform="translate(-16.96 -16.92)"/><path class="cls-4" d="M61.55,43.57V44L60,45l-2.49-1.51c-.95-1.4-1.15-3.48-3.47-3.6-.46,0-.57-.6-.41-1a2,2,0,0,1,1.63-1.34,1,1,0,0,1,1.17.63c.22.68-.21,1.83,1.18,1.7L61,41.06v1C60.16,42.89,61,43.14,61.55,43.57Z" transform="translate(-16.96 -16.92)"/><path class="cls-6" d="M57.55,43.55,60,45.06v.5h0a7.59,7.59,0,0,1-2.12.34c-.68-.08-1.53-.38-1.65-1.21S56.88,43.65,57.55,43.55Z" transform="translate(-16.96 -16.92)"/><path class="cls-14" d="M53.55,45.58a7.7,7.7,0,0,1-1-7.07C52,41,53.46,43.14,53.55,45.58Z" transform="translate(-16.96 -16.92)"/><path class="cls-11" d="M61.55,51.06A4.62,4.62,0,0,1,59,50.48c.13-.83.54-1.4,1.45-1.27C61.55,49.37,61.67,50.14,61.55,51.06Z" transform="translate(-16.96 -16.92)"/><path class="cls-6" d="M60,45.56l.63.17c-.36.43-.46,0-.62-.19Z" transform="translate(-16.96 -16.92)"/><path class="cls-7" d="M164,56l-4.43.09c-.57-.29-.52-.83-.54-1.34l1-.16c1.73-.34,3.24-.89,2.87-3.15a12,12,0,0,1,3.44-2c.32,1.44,2.49.57,2.7,2.16a1.1,1.1,0,0,1-.53,1c-.61-1.46-1.18.81-1.78,0C164.17,52.35,164,54.07,164,56Z" transform="translate(-16.96 -16.92)"/><path class="cls-4" d="M61.19,100l2.38,1c-.27,1.24-.66,2.16-2.31,1.76a8.25,8.25,0,0,0-2.64.24C58.55,101.14,59.64,100.4,61.19,100Z" transform="translate(-16.96 -16.92)"/><path class="cls-9" d="M76,106.79a2.65,2.65,0,0,0-2.46-.2A11.46,11.46,0,0,1,75,103.05h1.55A9.65,9.65,0,0,0,76,106.79Z" transform="translate(-16.96 -16.92)"/><path class="cls-6" d="M76.55,103.14H75l.07-1.15c1.79.1,3.59-.5,5.38.17.56.21,1.1.3,1.27,1C80,102.51,78.27,102.14,76.55,103.14Z" transform="translate(-16.96 -16.92)"/><path class="cls-6" d="M41.73,93.24l1.86-.82a15.52,15.52,0,0,0,6-3.3.81.81,0,0,1,.92.44c-.91,1.5-3,1.82-3.65,3.56-.17.43-.68.42-1.1.26-1.69-.67-2.86.44-4,1.29a3.53,3.53,0,0,1-2.22.92h-1v-.74l.52-.28,1-.43.56-.43h0l.92-.48Z" transform="translate(-16.96 -16.92)"/><path class="cls-9" d="M38.55,95v.51a1.4,1.4,0,0,1-1.49.94c-3.23-1-5-.57-6.06,1.65l-2.32-.08c1-2.34,2.73-3.17,5.19-2.9A21.31,21.31,0,0,0,37,95.05Z" transform="translate(-16.96 -16.92)"/><path class="cls-6" d="M25.64,81.08l-.57-1.56v-.44a1.92,1.92,0,0,0,2.07-1.29c1.06.49.75,1.44.76,2.28Z" transform="translate(-16.96 -16.92)"/><path class="cls-12" d="M39.08,94.54l-.52.28.4-.88Z" transform="translate(-16.96 -16.92)"/><path class="cls-4" d="M95.15,88.6l-.2,2-.39.43h0c-1.12-.11-2.45.35-3.07-1.12l.06-1.4a1.06,1.06,0,0,1,.32-.08Z" transform="translate(-16.96 -16.92)"/><path class="cls-14" d="M101.79,74.53a11.73,11.73,0,0,1,6.28-3.5l2.48,0c-2.51.86-5.19,1.36-7,3.56Z" transform="translate(-16.96 -16.92)"/><path class="cls-13" d="M95.55,81.6V81l.45-.46.06,0A1.08,1.08,0,0,1,95.55,81.6Z" transform="translate(-16.96 -16.92)"/><path class="cls-13" d="M101.55,81l-.47.55Z" transform="translate(-16.96 -16.92)"/><path class="cls-3" d="M151,53.51A5.25,5.25,0,0,0,152,50.06h0a.86.86,0,0,0,.44-1c.11-1.47,1-2.87.41-4.4l1.64-1.56c1.1-.36,2.26-.63,1.46-2.28a1,1,0,0,1,.62-1.23c1.14.35.74,2.58,1.84,2.19,1.28-.46.32-2.17.58-3.3a2.76,2.76,0,0,0,0-.49c2.23,1.55.56,3.4.4,5.13-2.07,1.9-2.15,4.61-2.9,7,0,1,.87,1.06,1.42,1.47v1C155.48,51.6,153.35,53.37,151,53.51Z" transform="translate(-16.96 -16.92)"/><path class="cls-15" d="M152.55,57a4.72,4.72,0,0,1-.25-1.64,1.55,1.55,0,0,1,1.57-1.25c.7,0,1.34.16,1.5.94s-.42,1.13-1,1.51a2.7,2.7,0,0,1-1.85.44Z" transform="translate(-16.96 -16.92)"/><path class="cls-11" d="M158,52.54v-1l1.25-.47c0,1.21,2.17,1.91.85,3.45l-1,.16C158,54.33,157.9,53.48,158,52.54Z" transform="translate(-16.96 -16.92)"/><path class="cls-15" d="M91,58c-.78.36-1.72,1.21-2.29-.06-.49-1.1.47-1.34,1.35-1.51s.76-1,1.15-1.47c.86-1.09,1.89-1.66,2.82,0Z" transform="translate(-16.96 -16.92)"/><path class="cls-4" d="M91,58l3-3a1,1,0,0,0,.58,1.08l-1.39,2.16L92,58.54A1.14,1.14,0,0,1,91,58Z" transform="translate(-16.96 -16.92)"/><path class="cls-8" d="M97.48,44l.71-6,.95,1a1.4,1.4,0,0,0,0,1.92,4.77,4.77,0,0,0-1.06,3Z" transform="translate(-16.96 -16.92)"/><path class="cls-13" d="M96.55,45.56v-.93l.45-.1A1,1,0,0,1,96.55,45.56Z" transform="translate(-16.96 -16.92)"/><path class="cls-2" d="M175.05,77.53c-.1-.76.35-1.77-.9-2,0-.57.54-.78.88-1.12,1-.13,1.73-1.21,2.88-.9.88.27.16,1.72,1.6,1.84-.74-1.31,3.39-2.77-.45-3.86l.83-2.47c1.06.08,1.63-1.37,2.82-.9l2.3,3a15.35,15.35,0,0,1-6.69,7Z" transform="translate(-16.96 -16.92)"/><path class="cls-11" d="M185,71.14l-2.3-3c1.26-.43,1.22-2.15,2.61-2.5.59.6-.2,2,1.22,2.26v.61C186.55,69.64,186.4,70.75,185,71.14Z" transform="translate(-16.96 -16.92)"/><path class="cls-14" d="M186.55,68.49v-.61c1.68-2.86-.31-4.5-2-6.23,3.47.71,4.43,2.17,3.59,5.48C187.88,67.92,187.55,68.53,186.55,68.49Z" transform="translate(-16.96 -16.92)"/><path class="cls-6" d="M175.05,77.53l3.27.58c-1.51,1-2.84,2.31-4.72,2.61C173.92,79.59,175.55,79.06,175.05,77.53Z" transform="translate(-16.96 -16.92)"/><path class="cls-8" d="M122,88.56h.52V90c-1.18,0-1.61,1.31-2.64,1.59l-.86-1C119.92,89.8,120.35,88.29,122,88.56Z" transform="translate(-16.96 -16.92)"/><path class="cls-14" d="M116.05,86.52a4.13,4.13,0,0,1,0-5.7Z" transform="translate(-16.96 -16.92)"/><path class="cls-13" d="M110.55,71.08l-2.48,0c.52-.52,1.31-.75,1.6-1.5,1.59-.15,3.2,1.19,4.77-.09.1.65,1.13.13,1.13.91A11.63,11.63,0,0,1,110.55,71.08Z" transform="translate(-16.96 -16.92)"/><path class="cls-6" d="M110.61,109.57c.05,1.76,1.54,3.26.94,5.14l-2-.65c-.14-1.18-.52-2.13-2-2,.18-2.32-1.42-3.65-2.84-5.09a5.71,5.71,0,0,1,4.07,1.88c.63.57.73.33.85-.27h.44Z" transform="translate(-16.96 -16.92)"/><path class="cls-15" d="M117.18,107.05c-.5.41-1,.79-1.5,1.24s-.59,1.51-1.38.84a1.54,1.54,0,0,1,.11-2.06,8,8,0,0,1,5.08-3l-.46,2h0l-.52.51h-1Z" transform="translate(-16.96 -16.92)"/><path class="cls-15" d="M123.11,99.06a7.41,7.41,0,0,0,.06.94,1.93,1.93,0,0,1-2.09,1.69l-1-.16C120.45,99.92,121.23,98.82,123.11,99.06Z" transform="translate(-16.96 -16.92)"/><path class="cls-9" d="M120.09,101.53l1,.16-.06,2.38-.45.43a1.11,1.11,0,0,0-.52,1.07,1,1,0,0,1-1,.47l.45-2C119.47,103.14,118.71,102.14,120.09,101.53Z" transform="translate(-16.96 -16.92)"/><path class="cls-6" d="M113.89,104.05l3.16-2.5C117.67,104.49,115.41,103.81,113.89,104.05Z" transform="translate(-16.96 -16.92)"/><path class="cls-6" d="M117,101.54l.5-.5Z" transform="translate(-16.96 -16.92)"/><path class="cls-6" d="M117.55,101l.5-.49Z" transform="translate(-16.96 -16.92)"/><path class="cls-6" d="M118.05,100.55l.51-.55Z" transform="translate(-16.96 -16.92)"/><path class="cls-9" d="M117.18,107.05l.38-.48Z" transform="translate(-16.96 -16.92)"/><path class="cls-6" d="M63.11,68.14A3.56,3.56,0,0,0,66,66.93c.73.15,1.45.56,2.21.11L68,68.52a1.83,1.83,0,0,0-2.27-.08,1.84,1.84,0,0,1-2.59-.27Z" transform="translate(-16.96 -16.92)"/><path class="cls-13" d="M68,68.54l.21-1.48a.41.41,0,0,0,.27-.08q0,.87-.05,1.74A2.11,2.11,0,0,0,68,68.54Z" transform="translate(-16.96 -16.92)"/><path class="cls-6" d="M70.55,81.58v1l-.5-1A2.78,2.78,0,0,1,70.55,81.58Z" transform="translate(-16.96 -16.92)"/><path class="cls-6" d="M134.15,62.14a.65.65,0,0,0-.18.25l-.6.55-3.29,3.48c.33-1.44-1.38-2-1.46-3.21l2.24-2c1.1.64,2.32.14,3.46.39v.28A.84.84,0,0,0,134.15,62.14Z" transform="translate(-16.96 -16.92)"/><path class="cls-1" d="M106.09,19.54v1c-1.73-.18-3,.93-4.53,1.48h-.46a1,1,0,0,0-1-1h-.05a.14.14,0,0,1,0-.19l0,0,.09-2.23.77-.07h1.25C103.44,18.81,105.14,17.7,106.09,19.54Z" transform="translate(-16.96 -16.92)"/><path class="cls-15" d="M101.55,22.05c1.49-.55,2.8-1.66,4.53-1.48a.35.35,0,0,1,0,.27q0,1.6-.06,3.2l-2.47.1C102.43,23.86,102.13,22.81,101.55,22.05Z" transform="translate(-16.96 -16.92)"/><path class="cls-4" d="M99.13,39.14l-.95-1v-1a.55.55,0,0,0,0-1l-.14-.5c1.52-.25,2.88-1.22,4.5-1-.66,1.43-2.13,2.36-2.49,4Z" transform="translate(-16.96 -16.92)"/><path class="cls-8" d="M103.55,24.14,106,24c.81.53,1.89-.18,2.65.59l-.11.91-.48.59-.56.26c-.77-1-1.42-1-1.95.21H105a2.79,2.79,0,0,1-.46-.1c0-.72,0-1.38-1-1.39Z" transform="translate(-16.96 -16.92)"/><path class="cls-2" d="M103.55,25.07c1,0,1,.67,1,1.39a3.13,3.13,0,0,1-2,.62Z" transform="translate(-16.96 -16.92)"/><path class="cls-9" d="M100,21a1,1,0,0,1,1,.95s0,0,0,.05c-.65.29-.35,1.4-1.26,1.47Z" transform="translate(-16.96 -16.92)"/><path class="cls-4" d="M173.55,41.07l.2-.47Z" transform="translate(-16.96 -16.92)"/><path class="cls-4" d="M31.61,106v-1c.07-2.49-1.92-2.9-3.63-3.59v-.85a3.5,3.5,0,0,0,2.11-.57,1.05,1.05,0,0,0,1,.52l1.79,1.56a5.36,5.36,0,0,0,5.7-.52c.94,0,1.4-.79,2-1.29,1.6-1.27,3.36-2,5.42-1.24l.05,1.52h0a.86.86,0,0,0-1,.49h-.42l-.59.51h0c-.45,0-.85,0-1,.53h0l-.5.4-1.36,1.14-.68.49h0c-1.4.07-3.37-.71-3,2h0a7,7,0,0,0-4,.46Z" transform="translate(-16.96 -16.92)"/><path class="cls-9" d="M33.55,106.53a7,7,0,0,1,4-.46c-3.39.56-3,3.78-4.13,5.91-2-.4-1.73-2-1.87-3.43C33.14,108.77,33.77,108.07,33.55,106.53Z" transform="translate(-16.96 -16.92)"/><path class="cls-6" d="M46.05,100.57,46,99.05c1.86-1.78,4.51-1.06,6.61-2.1l.93.6a1.82,1.82,0,0,0,0,.28A11.19,11.19,0,0,0,46.05,100.57Z" transform="translate(-16.96 -16.92)"/><path class="cls-9" d="M37.55,106.08c-.35-2.71,1.62-1.93,3-2A4,4,0,0,1,37.55,106.08Z" transform="translate(-16.96 -16.92)"/><path class="cls-6" d="M45.07,101.05a.86.86,0,0,1,1-.49A.91.91,0,0,1,45.07,101.05Z" transform="translate(-16.96 -16.92)"/><path class="cls-3" d="M43.06,102.14a.85.85,0,0,1,1-.53C43.9,102.05,43.46,102,43.06,102.14Z" transform="translate(-16.96 -16.92)"/><path class="cls-3" d="M42.55,102.46l.5-.4Z" transform="translate(-16.96 -16.92)"/><path class="cls-3" d="M44.06,101.59l.59-.51Z" transform="translate(-16.96 -16.92)"/><path class="cls-9" d="M40.55,104.14l.68-.49Z" transform="translate(-16.96 -16.92)"/><path class="cls-15" d="M137,37.48c.27-1.24,1.35-.76,2.09-1,1.82.26,2.73,1.1,1.91,3-.87.36-2.18.07-2.32,1.54l-.09.6c-1-.13-2.47.18-1.62-1.8A6.42,6.42,0,0,0,137,37.48Z" transform="translate(-16.96 -16.92)"/><path class="cls-7" d="M138.61,41.66l.09-.6h.8v1Z" transform="translate(-16.96 -16.92)"/><path class="cls-14" d="M139.34,95.71c1.34-.44,1.28-1.55,1.25-2.64,1.56.35,1,1.32.62,2.19a4.71,4.71,0,0,1-1.73,2A1.53,1.53,0,0,1,139.34,95.71Z" transform="translate(-16.96 -16.92)"/><path class="cls-11" d="M30,100a3.5,3.5,0,0,1-2.11.57c-.73-1.14.35-1.74.75-2.55l2.32.08C31.12,99,30.34,99.39,30,100Z" transform="translate(-16.96 -16.92)"/><path class="cls-2" d="M63.28,120.78l-.72.3a1.38,1.38,0,0,1-1-1.5c.2-2.77-1.13-1.8-2.4-1A1.06,1.06,0,0,1,58,119a1.71,1.71,0,0,1,1.34-1.81c1.73-.5,1.38-1.44.63-2.58-1.29-2-2.87-.86-4.39-.5-.16-.93.66-1.38,1-2,.47-.15,1-.49,1.41-.43,2.77.41,3.71-1.23,4.11-3.53l.63-.57c.9.15,2.14-.56,2.64.48s-1.16,1.6-1.27,2.66c-1.14,2.35-2.39,4.61-.2,7.15C64.64,118.7,63.86,119.86,63.28,120.78Z" transform="translate(-16.96 -16.92)"/><path class="cls-4" d="M55.55,114.14c1.52-.36,3.1-1.45,4.39.5.76,1.14,1.1,2.08-.63,2.58A1.71,1.71,0,0,0,58,119h-.25c-2.3-.06-3.22-1.36-3.2-3.53h0l.48-.59Z" transform="translate(-16.96 -16.92)"/><path class="cls-1" d="M54.55,115.54c0,2.16.89,3.47,3.2,3.53a2.17,2.17,0,0,1-3.57.26C52.76,118,53.31,116.7,54.55,115.54Z" transform="translate(-16.96 -16.92)"/><path class="cls-1" d="M55,114.94l-.48.59Z" transform="translate(-16.96 -16.92)"/><path class="cls-3" d="M52.6,97c-2.09,1-4.75.32-6.61,2.1-2.07-.73-3.82,0-5.42,1.24-.63.5-1.09,1.27-2,1.29-.21-.84-.67-1.86-1.55-1.39-1.36.72-3.7-.66-4.15,1.91l-1.79-1.56c.81-1.34,2.09-1.55,3.49-1.48,1.76.36,4.55-1.59,5-3.48a3.53,3.53,0,0,0,2.22-.92c1.17-.84,2.34-2,4-1.29.41.16.92.17,1.1-.26.7-1.74,2.74-2.06,3.65-3.56.36-.26.67-.87.36-1-2.38-1-1.91-3.18-2.34-5,1.43.1,2.1-.56,2-2,1.1-.09,1-.93,1-1.67a1.2,1.2,0,0,1,1,1v1.66h0c-1.36-.09-.71,1.56-1.62,1.87-.58.2-1.65.17-1.23,1.09s1.21.13,1.85-.14c.25-.1.62.09.93.15l.1,1c-.67,1.19-.26,2,.88,2.6.09.54.34.91.94.94,1,1.35,1,3,1.59,4.51H55c-.39-1.3-1.28-1.82-2.46-1.18S51.17,95,52.16,96A2.91,2.91,0,0,1,52.6,97Z" transform="translate(-16.96 -16.92)"/><path class="cls-4" d="M52.6,97a2.91,2.91,0,0,0-.38-.91c-1-1.07-.76-2.06.38-2.67s2.07-.12,2.46,1.18c-.12,1.2-1.2,1.91-1.52,3Z" transform="translate(-16.96 -16.92)"/><path class="cls-3" d="M150,37.93l1.63-1.69h2c.72,1.58,2.59.2,3.48,1.35a1.08,1.08,0,0,1-.56,1c-1.56.89-3.33.57-5,.84-.21-.24-.36-.17-.49.09l-.41.87-.58,1.2-.06,0Q150,39.74,150,37.93Z" transform="translate(-16.96 -16.92)"/><path class="cls-4" d="M156.55,38.61a1.08,1.08,0,0,0,.56-1l1.87-.06a.67.67,0,0,1,.11.36,2.76,2.76,0,0,1,0,.49c-.25,1.13.7,2.84-.58,3.3-1.1.4-.7-1.83-1.84-2.19Z" transform="translate(-16.96 -16.92)"/><path class="cls-6" d="M156.55,50.14c.75-2.44.83-5.15,2.9-7-.1,2.48-2,4.45-2,7Z" transform="translate(-16.96 -16.92)"/><path class="cls-6" d="M159,37.57l-1.87.06c-.89-1.15-2.76.23-3.48-1.35A6.09,6.09,0,0,1,159,37.57Z" transform="translate(-16.96 -16.92)"/><path class="cls-1" d="M118.55,47c2.39-.17,4.7.91,7.1.51-.75,2,1,3.32,1.32,5l-1,.36L124,53a.72.72,0,0,0-.47,0l-1.44-.59c-1.12-1.68-2.77-.63-4.18-.81-.75-.13-1.52-.22-1.9-1v-.51c1.76-.68.38-2,.6-3C117.28,46.52,117.92,47.08,118.55,47Z" transform="translate(-16.96 -16.92)"/><path class="cls-9" d="M116.05,50.05v.51c-.39-.28-.78-.57-1.18-.84-2.55-1.68-2.62-2.7-.31-4.76l2,.17.92.5.56.45.56,1c-.64,0-1.28-.52-1.91,0A1,1,0,0,0,115,47c-.65.66-.16,1.17.34,1.62A2,2,0,0,1,116.05,50.05Z" transform="translate(-16.96 -16.92)"/><path class="cls-6" d="M117.94,51.61c1.41.19,3.06-.87,4.18.81C120.63,52.66,119.17,52.72,117.94,51.61Z" transform="translate(-16.96 -16.92)"/><path class="cls-12" d="M116.55,45.14l-2-.17c.57-.59,1.3-.38,2-.39Z" transform="translate(-16.96 -16.92)"/><path class="cls-12" d="M123.55,53a.72.72,0,0,1,.47,0C123.88,53.37,123.73,53.39,123.55,53Z" transform="translate(-16.96 -16.92)"/><path class="cls-11" d="M92.84,28.51c-.29,1.39-2.66.71-2.51,2.54L87,30.44l.07-.92c0-1.3.22-2.44,1.54-3.06.87.26.74,1.77,2,1.59C91.21,28.74,92.08,28.37,92.84,28.51Z" transform="translate(-16.96 -16.92)"/><path class="cls-9" d="M88.55,26.47c-1.32.61-1.59,1.75-1.54,3.06-2.38,0-1.18-1.79-1.46-2.85a5.64,5.64,0,0,1,3-1.56Z" transform="translate(-16.96 -16.92)"/><path class="cls-3" d="M88.55,26.47V25.12L90,25h.54c-.16,1,.8,2,0,3C89.32,28.24,89.45,26.73,88.55,26.47Z" transform="translate(-16.96 -16.92)"/><path class="cls-6" d="M85.55,26.67c.28,1-.92,2.87,1.46,2.85l-.07.92c-1.15.12-2.14-.1-2.47-1.38a1.81,1.81,0,0,1,1-2.36Z" transform="translate(-16.96 -16.92)"/><path class="cls-9" d="M90.55,25.05H90a1,1,0,0,1,.15-.41Z" transform="translate(-16.96 -16.92)"/><path class="cls-8" d="M27.14,77.78a1.92,1.92,0,0,1-2.07,1.29h-.48a.92.92,0,0,0-.83-1h-.17c-1.14-4.51-.91-5,2.54-5.06h0v1.12c-.57.35-1.6.3-1.44,1.31s1.37.58,1.94,1.09a1.44,1.44,0,0,0,.59,1.19Z" transform="translate(-16.96 -16.92)"/><path class="cls-9" d="M26.05,74.14V73c1-.27,2.22,0,2.45-1.47.59.19.93-.18,1.23-.59s.94-1.24,1.55-.65a1.39,1.39,0,0,1-.34,2.16,21.23,21.23,0,0,0-3,3.11Z" transform="translate(-16.96 -16.92)"/><path class="cls-11" d="M26.05,74.14,28,75.57l-.35,1-1.08,0c-.57-.51-1.77-.06-1.94-1.09S25.48,74.47,26.05,74.14Z" transform="translate(-16.96 -16.92)"/><path class="cls-2" d="M26.55,76.52l1.08,0c0,.45,0,.9-.49,1.14A1.43,1.43,0,0,1,26.55,76.52Z" transform="translate(-16.96 -16.92)"/><path class="cls-7" d="M76.55,103.14c1.71-.94,3.44-.58,5.17-.06a6.88,6.88,0,0,1,6,4.45l-.66.06c-.77,0-1.56,0-1.86.87s.21,1,.87,1.17L86,111.16a33.36,33.36,0,0,0-10-4.34A9.66,9.66,0,0,1,76.55,103.14Z" transform="translate(-16.96 -16.92)"/><path class="cls-4" d="M86.06,109.6c-.66-.12-1.13-.44-.87-1.17s1.1-.89,1.86-.87A1.82,1.82,0,0,1,86.06,109.6Z" transform="translate(-16.96 -16.92)"/><path class="cls-10" d="M91.92,111.05a.74.74,0,0,1,.22-.41,1.18,1.18,0,0,1,.92.88l-1,.07Z" transform="translate(-16.96 -16.92)"/><path class="cls-3" d="M104.72,107c1.42,1.43,3,2.76,2.84,5.09.6.73.47,2.18,2,2l2,.65v1.61h0a3.13,3.13,0,0,0-1.9,3,2.82,2.82,0,0,1-2.58,2.82,1.35,1.35,0,0,1-1.13-.67,28,28,0,0,1,1.51-4.85c.25-.48.37-1.42-.3-1.8s-1.23.24-1.79.55c-.73.41-1.24.92-.36,1.7v.51c-.32.5-1,.75-1,1.48l-.51.52c-.55.73-1.34.43-2.06.47.37-1.67-.58-2-1.94-1.89.13-.47.22-1,.38-1.41.54-1.51,1.09-3-.64-4.15a2.83,2.83,0,0,0-4,.42l0,0c-.6.64-1.18.32-1.78,0v-1.6l.07-2.39,1.45-.8,1.93-.28a3.81,3.81,0,0,0,6.26,0,2,2,0,0,0,.08-2.33,1.81,1.81,0,0,0-2-1c-1.6.26-2.84,1.21-4.24,1.87-.64-.52-.85-1.6-2-1.52h0c.16-1.45-.83-1.8-2-2a5.55,5.55,0,0,1-2.62-4.47c-.77-3,.31-5.77,1-8.6.62,1.47,1.95,1,3.07,1.12l-.15.54c-1.56,2.06-1.16,4,.33,5.91a11.73,11.73,0,0,0,7.24,5.18l.3.14a.8.8,0,0,0,.24.24l.93.63,1.12.88Z" transform="translate(-16.96 -16.92)"/><path class="cls-14" d="M104.72,107l-.15-2.37c1.67,1.35,4.14,1.69,5.08,4-.13.59-.23.83-.85.27A5.71,5.71,0,0,0,104.72,107Z" transform="translate(-16.96 -16.92)"/><path class="cls-12" d="M103.44,103.71l-.93-.63h1Z" transform="translate(-16.96 -16.92)"/><path class="cls-4" d="M127,52.57c-.31-1.71-2.07-3-1.32-5H127c.11.88.48,1.79,1.48,1.37s1.16-1.45.4-2.4l1.38-1.9c1.18-.32,2.25.29,3.39.41l.46,1c-1.11.85.75,2.3-.62,3.09-3.14,1.22-3.43,1.74-1.92,3.39,1.74,3.81,1.74,3.81-1,4.08h0c-.07-.79.39-1.86-1-2C129.55,52.84,128.43,52.48,127,52.57Z" transform="translate(-16.96 -16.92)"/><path class="cls-15" d="M128.91,46.52c.76,1,.67,2-.4,2.4s-1.37-.49-1.48-1.37h0l1.17-1Z" transform="translate(-16.96 -16.92)"/><path class="cls-1" d="M127,47.55h-1.14l.14-1.23,1,.21v1Z" transform="translate(-16.96 -16.92)"/><path class="cls-4" d="M127.05,47.53v-1h1.15Z" transform="translate(-16.96 -16.92)"/><path class="cls-1" d="M114.43,69.44c-1.57,1.28-3.18-.06-4.77.09-.57-1.82-1.16-3.65.87-5C113.21,64.46,114.62,66.23,114.43,69.44Z" transform="translate(-16.96 -16.92)"/><path class="cls-9" d="M106,121.45a1.36,1.36,0,0,0,1.14.67L106,123.89l-4.32.63c-2-1-4.09-.27-6.14-.45h0c-.1-.22-.2-.41-.43-.1-3.7-1.09-3.75,0-3.52-5.41l.93,1.51c.09.86-.24,2.27,1,2.23,2.71-.09,5.68,1.45,8.09-1,.29-.3.79-.7,1-.27.87,1.54,2.06.33,3.08.48Z" transform="translate(-16.96 -16.92)"/><path class="cls-14" d="M95.55,124.07c2,.18,4.15-.52,6.14.45-1.78,0-3.52.72-5.33.25Z" transform="translate(-16.96 -16.92)"/><path class="cls-2" d="M26.08,73c-3.45.09-3.68.55-2.54,5.06-1.33-.3-2.64-.8-4-.29-.83-.18-1.61-.37-1.54-1.51.05-.89.28-1.61,1.23-1.9a5.28,5.28,0,0,0,2.2-1.48C23,71.37,24.55,71.49,26.08,73Z" transform="translate(-16.96 -16.92)"/><path class="cls-9" d="M100.08,18.56,100,20.79C99.66,20,98,19.23,100.08,18.56Z" transform="translate(-16.96 -16.92)"/><path class="cls-9" d="M102.1,18.53h-1.25C101.28,18.14,101.7,17.9,102.1,18.53Z" transform="translate(-16.96 -16.92)"/><path class="cls-2" d="M48.55,83.55c.43,1.83,0,4,2.34,5,.31.13,0,.74-.36,1a.81.81,0,0,0-.92-.44c-2.62-.43-2.29-2.86-3.06-4.54.19-4,1.6-5.31,5-4.69,0,.74.08,1.58-1,1.67h0c-1-1.28-1.43-1.19-2.49.51h0c-.82.83-.56,1.3.5,1.5Z" transform="translate(-16.96 -16.92)"/><path class="cls-2" d="M52.55,85.54c-.32-.06-.69-.25-.93-.15-.64.26-1.36,1.19-1.85.14s.65-.89,1.23-1.09c.91-.31.26-2,1.62-1.87C52.35,83.55,53.21,84.57,52.55,85.54Z" transform="translate(-16.96 -16.92)"/><path class="cls-2" d="M52.55,82.58V80.92C53.09,81.48,53.34,82,52.55,82.58Z" transform="translate(-16.96 -16.92)"/><path class="cls-15" d="M99.13,39.14l.92-.56c2.88.16,2.94.31,1.44,3l-2.41-.5A1.4,1.4,0,0,1,99.13,39.14Z" transform="translate(-16.96 -16.92)"/><path class="cls-11" d="M156.55,38.61l.1.92a1,1,0,0,0-.62,1.23c.8,1.65-.36,1.92-1.46,2.28-.37-1.25-.46-1.32-1.07-.53-.45.59-1,.49-1.54.58l-.87-.83c-.29-.58.75-1.48-.43-1.85l.41-.87a1.15,1.15,0,0,0,.49-.09C153.2,39.14,155,39.5,156.55,38.61Z" transform="translate(-16.96 -16.92)"/><path class="cls-15" d="M151.94,43.09c.55-.09,1.09,0,1.54-.58.61-.79.7-.72,1.07.53l-1.64,1.56A2.09,2.09,0,0,1,151.94,43.09Z" transform="translate(-16.96 -16.92)"/><path class="cls-9" d="M150,37.93v3.62C148.42,40.36,148.21,39.14,150,37.93Z" transform="translate(-16.96 -16.92)"/><path class="cls-9" d="M150.64,40.4c1.18.37.14,1.27.43,1.85l-1-.65Z" transform="translate(-16.96 -16.92)"/><path class="cls-13" d="M152.5,49a.86.86,0,0,1-.44,1A1,1,0,0,1,152.5,49Z" transform="translate(-16.96 -16.92)"/><path class="cls-9" d="M90.55,28.06c.8-1-.16-2,0-3,2.19-.59,2.82,1.39,4,2.44l-1.72,1C92.08,28.37,91.21,28.74,90.55,28.06Z" transform="translate(-16.96 -16.92)"/><path class="cls-9" d="M94.55,27.52a.86.86,0,0,1,1,.54A1,1,0,0,1,94.55,27.52Z" transform="translate(-16.96 -16.92)"/><path class="cls-6" d="M95.06,105c1.11-.07,1.31,1,2,1.52L97,108l-1.93.28Q95,106.65,95.06,105Z" transform="translate(-16.96 -16.92)"/><path class="cls-6" d="M93.11,103c1.12.23,2.11.58,2,2Z" transform="translate(-16.96 -16.92)"/><path class="cls-9" d="M94.73,97.51c-1.49-1.89-1.88-3.85-.33-5.91Z" transform="translate(-16.96 -16.92)"/><path class="cls-3" d="M94.55,91.06l.39-.43a.48.48,0,0,1,0,.36Z" transform="translate(-16.96 -16.92)"/><path class="cls-4" d="M92.55,120.08l-.93-1.51-.15-2c1.24-.87.18-3.09,2.1-3.56.6.29,1.17.6,1.78,0a2.83,2.83,0,0,1,4-.46l0,0c1.74,1.13,1.19,2.64.64,4.15-.16.46-.26.94-.38,1.41l-.92.46c-1.84.28-4.33-1.14-5.08,2Z" transform="translate(-16.96 -16.92)"/><path class="cls-3" d="M130.55,56.57c2.79-.26,2.79-.26,1-4.08a3.08,3.08,0,0,0,2.44-1c.34,1.12,1.14.69,1.85.56-.59,1.63-.29,3.3-.29,5,.17,1.37-.43,2.62-.61,3.94h0a2.76,2.76,0,0,0-.45,0,3.16,3.16,0,0,0-3.54-1.34A8,8,0,0,1,130.55,56.57Z" transform="translate(-16.96 -16.92)"/><path class="cls-11" d="M131,59.7A3.16,3.16,0,0,1,134.54,61l-.22.59c-1.14-.25-2.37.25-3.46-.39Z" transform="translate(-16.96 -16.92)"/><path class="cls-3" d="M129.55,54.58c1.39.13.93,1.19,1,2A2.85,2.85,0,0,1,129.55,54.58Z" transform="translate(-16.96 -16.92)"/><path class="cls-13" d="M133.37,63l.6-.55L134,63Z" transform="translate(-16.96 -16.92)"/><path class="cls-6" d="M74.55,84.59c-.29.81-1.52,1-1.43,2l-1.26-1.86.28-.23c.5.25,1,.81,1.54.09Z" transform="translate(-16.96 -16.92)"/><path class="cls-6" d="M72,83.05l.16,1a2.36,2.36,0,0,0-.07.49l-.28.23a4.5,4.5,0,0,1-1.25-2.23Z" transform="translate(-16.96 -16.92)"/><path class="cls-4" d="M164,56c0-1.91.16-3.62,2.76-3.35l-.6,2.41-.08.93Z" transform="translate(-16.96 -16.92)"/><path class="cls-15" d="M166.17,55l.6-2.41c.6.8,1.18-1.47,1.79,0C168,53.65,167.55,54.78,166.17,55Z" transform="translate(-16.96 -16.92)"/><path class="cls-7" d="M68.46,67a.41.41,0,0,1-.27.08c-.76.45-1.48,0-2.21-.11l.25-2.07c.39-.39.3-.88.3-1.36H68c1,.1,1.06.83,1.07,1.59Z" transform="translate(-16.96 -16.92)"/><path class="cls-6" d="M68,63.49h-1.5c.38-2,2-1.88,3.39-2,1.21-.06,1.43.82,1.48,1.78l-.33.21C70.05,63.14,69.08,61.44,68,63.49Z" transform="translate(-16.96 -16.92)"/><path class="cls-6" d="M66.55,63.53c0,.47.09,1-.3,1.36C66.18,64.4,66,63.87,66.55,63.53Z" transform="translate(-16.96 -16.92)"/><path class="cls-14" d="M111.55,116.32v-1.53C112.06,115.29,112.22,115.8,111.55,116.32Z" transform="translate(-16.96 -16.92)"/><path class="cls-8" d="M139.55,41h-.8c.14-1.47,1.45-1.18,2.32-1.54v1.07h0l-1,.39Z" transform="translate(-16.96 -16.92)"/><path class="cls-2" d="M81.06,54.62l-2.51,1.44c-1.23-2.06,1-3.43,1.06-5.23l.94,1.31C80.22,53.06,80.05,54,81.06,54.62Z" transform="translate(-16.96 -16.92)"/><path class="cls-2" d="M78.78,50,78,49.52Z" transform="translate(-16.96 -16.92)"/><path class="cls-2" d="M78.55,56.05c-.2,1.16.41,2.41-.41,3.49A10.54,10.54,0,0,0,76.71,56Z" transform="translate(-16.96 -16.92)"/><path class="cls-2" d="M105.55,26.6c.53-1.2,1.18-1.25,1.95-.21Z" transform="translate(-16.96 -16.92)"/><path class="cls-2" d="M108.07,26.14l.48-.59v.51A2.94,2.94,0,0,1,108.07,26.14Z" transform="translate(-16.96 -16.92)"/><path class="cls-2" d="M105,26.56h.58C105.37,27.14,105.19,26.92,105,26.56Z" transform="translate(-16.96 -16.92)"/><path class="cls-2" d="M96,80.52l-.45.46-.9-.07c-.34-.46-.66-.93-1-1.37-.78-.92-1.48-2-1-3.15s1.84-.77,2.87-.77C96.44,77.14,96,78.88,96,80.52Z" transform="translate(-16.96 -16.92)"/><path class="cls-14" d="M95.12,124c.23-.31.33-.12.43.1A.82.82,0,0,1,95.12,124Z" transform="translate(-16.96 -16.92)"/><path class="cls-8" d="M70.26,94.75l.82-.38c2.41.18,2.25,1.53,1.46,3.18-.45.23-.49.66-.53,1.09C69.15,98.38,70.23,96.33,70.26,94.75Z" transform="translate(-16.96 -16.92)"/><path class="cls-2" d="M33.55,106.53c.24,1.54-.39,2.23-2,2l-.41-.54c.61-.57.3-1.35.44-2Z" transform="translate(-16.96 -16.92)"/><path class="cls-5" d="M84.77,63l-.16-2.41a1.27,1.27,0,0,1,.45,0C84.94,61.37,85.28,62.24,84.77,63Z" transform="translate(-16.96 -16.92)"/><path class="cls-2" d="M160.08,54.56c1.32-1.54-.82-2.24-.85-3.45,1.27-.22,2.44.69,3.72.3C163.33,53.67,161.82,54.21,160.08,54.56Z" transform="translate(-16.96 -16.92)"/><path class="cls-8" d="M98.19,36.06a.55.55,0,0,1,0,1Z" transform="translate(-16.96 -16.92)"/><path class="cls-2" d="M108.67,24.62c-.76-.77-1.84-.06-2.65-.59l.06-3.2C107.67,21.59,109.05,22.5,108.67,24.62Z" transform="translate(-16.96 -16.92)"/><path class="cls-7" d="M140.08,41l1-.39A.82.82,0,0,1,140.08,41Z" transform="translate(-16.96 -16.92)"/><path class="cls-15" d="M179.06,71.48c3.84,1.1-.29,2.56.45,3.86-1.44-.12-.72-1.57-1.6-1.84C178,72.66,178.69,72.14,179.06,71.48Z" transform="translate(-16.96 -16.92)"/><path class="cls-2" d="M119.85,91.62c1-.28,1.45-1.56,2.64-1.59l.29,1c-1,1,.08,3.2-2.11,3.42Z" transform="translate(-16.96 -16.92)"/><path class="cls-7" d="M135.88,52.06c-.71.13-1.52.57-1.85-.56a3,3,0,0,0-.52-2.4c1.37-.8-.49-2.24.62-3.09,1,1.55,1.08,3.44,1.8,5.1Z" transform="translate(-16.96 -16.92)"/><path class="cls-2" d="M23.55,78.06a.92.92,0,0,1,1,1l-1-.11Z" transform="translate(-16.96 -16.92)"/><path class="cls-2" d="M24.55,79H25v.44Z" transform="translate(-16.96 -16.92)"/><path class="cls-7" d="M106.62,79c2,1,2,2.15.43,3.54-1.76-.16-3.84.74-5-1.5C103.4,79.94,104.62,78.61,106.62,79Z" transform="translate(-16.96 -16.92)"/><path class="cls-9" d="M68,63.49c1.06-2,2-.34,3,.07l-.1.89-1.87.63C69.08,64.32,69,63.59,68,63.49Z" transform="translate(-16.96 -16.92)"/><path class="cls-3" d="M84.45,60.56h-.37c0-.69-.27-1.44.42-2Q84.47,59.59,84.45,60.56Z" transform="translate(-16.96 -16.92)"/><path class="cls-12" d="M41.6,93.21l-.92.48C40.79,93.14,41.15,93.09,41.6,93.21Z" transform="translate(-16.96 -16.92)"/><path class="cls-12" d="M40.64,93.69l-.56.43Z" transform="translate(-16.96 -16.92)"/><path class="cls-13" d="M134.32,61.62l.22-.59a2.74,2.74,0,0,1,.45,0v1l-.66-.11A1.47,1.47,0,0,0,134.32,61.62Z" transform="translate(-16.96 -16.92)"/><path class="cls-11" d="M172.07,77.72c0,1-.24,1.49-1.12,1.4a1,1,0,0,1-.95-1.21c0-.84.7-1.12,1.32-1.21C172.28,76.57,171.91,77.45,172.07,77.72Z" transform="translate(-16.96 -16.92)"/><path class="cls-2" d="M61.55,43.57C61,43.18,60.19,42.89,61,42,61.63,42.4,61.55,43,61.55,43.57Z" transform="translate(-16.96 -16.92)"/><path class="cls-8" d="M62.63,42l.43.47-.36.18Z" transform="translate(-16.96 -16.92)"/><path class="cls-8" d="M72.08,84.53a2.36,2.36,0,0,1,.07-.49l1.47.58C73.07,85.33,72.55,84.77,72.08,84.53Z" transform="translate(-16.96 -16.92)"/><path class="cls-1" d="M121,104.07l.06-2.38a1.93,1.93,0,0,0,2.09-1.69,1,1,0,0,1,.92,1C123,101.92,123,104,121,104.07Z" transform="translate(-16.96 -16.92)"/><path class="cls-1" d="M120.05,105.58a1.11,1.11,0,0,1,.52-1.07A1.09,1.09,0,0,1,120.05,105.58Z" transform="translate(-16.96 -16.92)"/><path class="cls-1" d="M118.55,106.55l.52-.51Z" transform="translate(-16.96 -16.92)"/><path class="cls-15" d="M39.55,95.58c-.44,1.89-3.23,3.84-5,3.48.12-1.56,1.75-1.64,2.51-2.57a1.4,1.4,0,0,0,1.49-.94Z" transform="translate(-16.96 -16.92)"/><path class="cls-8" d="M37.05,96.49c-.76.93-2.39,1-2.51,2.57-1.4-.07-2.68.14-3.49,1.48a1.05,1.05,0,0,1-1-.52c.31-.63,1.09-1,1-1.89C32.1,95.92,33.82,95.46,37.05,96.49Z" transform="translate(-16.96 -16.92)"/><path class="cls-2" d="M109.55,114.06c-1.51.16-1.38-1.29-2-2C109,111.94,109.4,112.88,109.55,114.06Z" transform="translate(-16.96 -16.92)"/><path class="cls-11" d="M32.84,102.14c.45-2.57,2.8-1.19,4.15-1.91.87-.46,1.34.56,1.55,1.39A5.36,5.36,0,0,1,32.84,102.14Z" transform="translate(-16.96 -16.92)"/><path class="cls-2" d="M50.55,81.56c.1,1.44-.58,2.09-2,2h0l-.5-1.5h0c.76-.5,1.77.18,2.49-.51Z" transform="translate(-16.96 -16.92)"/><path class="cls-9" d="M151.55,39.44a1.15,1.15,0,0,1-.49.09C151.17,39.27,151.33,39.2,151.55,39.44Z" transform="translate(-16.96 -16.92)"/><path class="cls-11" d="M116.05,50.05a2,2,0,0,0-.72-1.48c-.49-.46-1-1-.34-1.62a1,1,0,0,1,1.66.11C116.43,48.05,117.81,49.36,116.05,50.05Z" transform="translate(-16.96 -16.92)"/><path class="cls-4" d="M97,108l.06-1.43c1.39-.67,2.64-1.61,4.23-1.87a1.81,1.81,0,0,1,2,1,2,2,0,0,1-.08,2.33A3.81,3.81,0,0,1,97,108Z" transform="translate(-16.96 -16.92)"/><path class="cls-2" d="M92.55,120.08l1,.47,4.54-.52c1.13,1.94,2.26-.56,3.39,0,.71,0,1.5.26,2.06-.47H104c.31.85,1.5.93,1.65,1.92-1-.15-2.21,1.06-3.08-.48-.24-.43-.74,0-1,.27-2.41,2.48-5.38.94-8.09,1C92.3,122.35,92.63,120.94,92.55,120.08Z" transform="translate(-16.96 -16.92)"/><path class="cls-15" d="M105.69,121.49c-.15-1-1.34-1.07-1.65-1.92V119c0-.73.67-1,1-1.48.37-.07,1,0,.75-.61-.14-.4-.53-.2-.76.1-.88-.78-.37-1.29.36-1.7.56-.31,1.16-.91,1.79-.55s.54,1.32.3,1.8a28,28,0,0,0-1.51,4.85Z" transform="translate(-16.96 -16.92)"/><path class="cls-11" d="M101.49,120c-1.13-.56-2.26,1.94-3.39,0l.54-1.44.92-.46C100.92,118,101.87,118.36,101.49,120Z" transform="translate(-16.96 -16.92)"/><path class="cls-2" d="M105.05,117.05c.22-.3.61-.5.76-.1.22.61-.38.54-.75.61Z" transform="translate(-16.96 -16.92)"/><path class="cls-9" d="M104.06,119v.53h-.51Z" transform="translate(-16.96 -16.92)"/><path class="cls-15" d="M133.55,49.14a3,3,0,0,1,.52,2.4,3.09,3.09,0,0,1-2.44,1C130.07,50.84,130.37,50.31,133.55,49.14Z" transform="translate(-16.96 -16.92)"/><path class="cls-3" d="M50.55,81.54c-.72.69-1.73,0-2.49.51C49.11,80.35,49.55,80.26,50.55,81.54Z" transform="translate(-16.96 -16.92)"/><path class="cls-3" d="M48.05,82.05l.5,1.5C47.49,83.35,47.23,82.88,48.05,82.05Z" transform="translate(-16.96 -16.92)"/><path class="cls-7" d="M98.64,118.59,98.1,120l-4.54.52C94.31,117.46,96.8,118.87,98.64,118.59Z" transform="translate(-16.96 -16.92)"/></svg>