<svg id="Ebene_1" data-name="Ebene 1" xmlns="http://www.w3.org/2000/svg" viewBox="0 0 264.57 84.51"><defs><style>.cls-1{fill:#131211;}.cls-2{fill:#373737;}.cls-3{fill:#353535;}.cls-4{fill:#e25739;}.cls-5{fill:#e25738;}.cls-6{fill:#e35739;}.cls-7{fill:#e15638;}.cls-8{fill:#e05638;}.cls-9{fill:#de5639;}.cls-10{fill:#fefefe;}.cls-11{fill:#030303;}.cls-12{fill:#272727;}.cls-13{fill:#303030;}.cls-14{fill:#bf4b32;}.cls-15{fill:#874b3e;}.cls-16{fill:#0b0908;}</style></defs><title>plankton</title><path class="cls-1" d="M262.55,128.83a1,1,0,0,1-.23.08c-5.17.42-5.12.42-5.2-4.66,0-2.54-.35-5.07-.46-7.61,0-.84-.26-1.25-1.16-1.11s-.54.67-.52,1.27c.23,5.58.36,11.16.58,16.73.05,1.31.34,2.6.47,3.9.15,1.54-.27,2.52-2.12,2.61s-2.82-.62-2.72-2.32c.19-3.33-.66-6.6-.51-9.9.16-3.56-.66-7.06-.52-10.61,0-1-.41-1.24-1.33-1.23-1.1,0-.77.7-.81,1.32-.29,4.72.53,9.4.53,14.11,0,1.53-.26,2.57-2.13,2.62s-2.32-1.14-2.25-2.54c.23-4.31-.72-8.55-.57-12.86,0-.77.75-2.2-1.1-2.13-1.63.07-1,1.34-.93,2,.27,6.65.67,13.29.94,19.94.12,2.83-.59,3.56-3.29,3.43a2.18,2.18,0,0,1-2.08-2.27v-.07c-.16-3.54-.47-7.08-.46-10.61,0-3.9-1-7.73-.47-11.54a5.75,5.75,0,0,0-.52-.28c-.89,1.26-3.89-1.22-3.59,1.89.16,1.63.26,3.28.54,4.9,1,5.81,1.71,11.66,2.41,17.51a27,27,0,0,1,.5,4.65c-.15,2.92-2.66,1.6-4,2.16-1,.39-1.73-.48-1.93-1.87-1.08-7.54-2.13-15.08-3-22.65a29,29,0,0,1-.47-3.9c0-1.53-.84-1.93-2.26-1.86-1.8.08-.86,1.26-.8,1.93.39,4.82,1.07,9.6,1.88,14.37a34.69,34.69,0,0,1,.11,4.24c0,1-.39,1.68-1.44,1.45s-2.67,1-3-1.18c-.49-3.48-1.11-7-1.46-10.45-.29-2.94-1.12-5.81-1.07-8.8,0-.83-.55-1.33-1.3-.76s-2.54-.6-2.25,1.41c1,6.72,2,13.44,2.93,20.16.28,2,.39,4.1.55,6.15.11,1.41-.22,2.46-2,2.51-1.53,0-3,.23-3.29-1.91-.35-2.85-.76-5.68-1.15-8.52-.63-4.54-1.24-9.08-1.9-13.61a41.71,41.71,0,0,0-.49-4.41c-.33-1.32-1-1-1.77-1.06-1.3-.08-1,.92-.91,1.56q.91,6.44,2,12.85c.36,2.26-.55,3.33-3.25,3.56a6.59,6.59,0,0,1-4.07-.68c.47,3.55.93,6.81,1.32,10.08.16,1.34-.06,2.71-1.82,2.56-1.36-.11-3.52,1.17-3.67-1.79-.1-1.86-.78-3.7-.83-5.56,0-1.63-.5-2.36-2.15-2.09-2.69.44-3.28-.91-3.49-3.37-.42-5-1.27-9.91-1.93-14.86,0-.34-.08-.69-.49-.71-.6,0-.64.44-.6.84.22,2.12.44,4.25.7,6.36.75,6.1,1.55,12.19,2.27,18.29.19,1.63,0,2.93-2.24,3s-2.46-1.19-2.68-2.94c-.89-7.06-1.91-14.11-2.86-21.17a13,13,0,0,1-.1-2.23c0-1.08-.21-1.71-1.49-1.73s-1.19.92-1.1,1.67c.38,3.25.73,6.52,1.31,9.74.28,1.54,0,3.11.56,4.65.25.63-.33,2.15-1.41,1.9-3.65-.83-3,1.61-3,3.64-.65.69-.21.9.45,1l.05,2.5c-.64.69-.22.9.45,1l.05,3c-.64.69-.22.9.45,1,0,1.82-1.07,2.41-2.73,2.44s-2-.9-2.14-2.36c-.91-7.4-1.95-14.78-3-22.16-.26-1.86-.73-3.7-.85-5.57-.1-1.48-.9-1.45-2-1.43-1.57,0-.82,1-.79,1.71.13,3.7.91,7.32,1.4,11,.18,1.37.59,3-1.51,3.3-1.77.26-2.7-.3-2.85-2.38-.28-3.75-.94-7.47-1.43-11.21-.12-.93-.19-1.92-1.47-1.86s-1.83.73-1.65,2.11c.63,4.71,1.14,9.44,1.76,14.16.55,4.22,1.2,8.43,1.74,12.65a2.18,2.18,0,0,1-1.82,2.49h-.09c-1.65.31-2.31-1.15-2.37-2.3-.16-2.89-.74-5.7-1.11-8.55-.58-4.55-1.26-9.08-1.87-13.62-.28-2.11-.47-4.23-.7-6.34-2,0-2.22,1.15-2,2.61.62,4.46,1.16,8.93,1.92,13.37.57,3.29-.08,4.49-2.73,4.4-1.47,0-2-.7-2.12-2.13-.6-5.54-1.33-11.07-2-16.6,0-.27-.32-.51-.51-.79-1.08.76,0,1.37,0,2,0,4.79.62,9.54,1,14.31.27,3.36.4,6.72.95,10.06.22,1.37.16,2.93-1.84,3.12-1.79.17-2.86-.15-3.07-2.44-.64-7.37-.87-14.78-1.9-22.12-.21-1.47.38-3.47-.39-4.3s-2.75-.13-4.2-.13a1.71,1.71,0,0,1-1.94-2c.05-1.49-.78-2.87-.51-4.4.21-1.18-.65-1.14-1.42-1.08-5.24.45-10.48,1-15.73,1.38-3.62.28-7.26.47-10.89.6-2.58.09-1.62-2.4-1.76-3.37-.27-1.92-1.07-2.29-2.7-2.66-10.83-2.45-21.65-5-32.43-7.61-1.81-.45-3,.33-4.38.92-5.23,2.23-10.42,4.53-15.63,6.8-.9.39-2,1.07-2.5-.33s.69-1.7,1.59-2.09c6.25-2.73,12.34-5.85,18.83-8a1.32,1.32,0,0,0,1.86.14l.14-.14h1c.11.65.31,1.1,1,.45l9.5,2c.11.65.31,1.11,1,.45h1c.12.63.31,1.1,1,.45l3.5.54c.17.26.3.69.52.74,3.32.75,6.57,1.87,10,2.17a.81.81,0,0,0,1,.37c.06,0,.09-.12.14-.18l-1.08-.23a32.92,32.92,0,0,0-10-3.47c-6-2.08-11.94-4.76-18.14-6-4.63-1-6.32-4.16-8.56-7.28-1.72-2.4-3.47-4.79-5.11-7.25-.52-.78-1.26-1.91-.19-2.67s1.66.12,2.3,1c2.62,3.78,5.37,7.47,8,11.22.28.4.41.83,1,1q17.51,6.06,35,12.16a.69.69,0,0,0,.94.26l.06,0c.31-.23.14-.54-.2-.7-5.26-4-11-7.2-16.48-10.81s-11-7-16.45-10.49a2.1,2.1,0,0,1-1.17-1.76c-.21-3.86-1.53-7.52-2.15-11.32-.05-.32-.36-.65-.3-.92.21-1-.83-2.57,1-2.84S70.82,71.49,71,72.4c.83,3.58,1.39,7.22,2.16,10.81a3.14,3.14,0,0,0,1.42,2.17c9.67,6.12,19.29,12.32,28.92,18.5.89.57,1.68,1.41,1.71-.67.11-7.1.15-7.14,7.3-7.74,2.3-.19,4.6-.18,6.91-.46,4.49-.56,9-.73,13.55-1.07.25,0,.62.07.73-.06,2.85-3.61,7-1.8,10.49-2.32,7.39-1.12,14.91-1.23,22.36-2a85.69,85.69,0,0,1,8.64-.63c1.52,0,3.22.49,4.31-1.21a1,1,0,0,1,.9-.21c5.45,2,10.84-.26,16.25-.33a62.68,62.68,0,0,0,8.09-.62c5-.73,10.2-.67,15.29-1.15,6.23-.59,12.5-.86,18.7-1.57s12.29-.84,18.42-1.4c9-.82,18-1.83,27-2.42,4.77-.31,9.55-.62,14.3-1.12,3.66-.38,7.39,0,11-1.17,1.26-.4,2,.74,2,2,.05,3.6,0,7.21.17,10.8,0,.78.44,1.56.43,2.41a114.64,114.64,0,0,0,1,15.81,1.58,1.58,0,0,1-1.64,2c-1.82,0-3.56.85-5.4.52s-2,.61-2,2.1c.07,3.46.8,6.88.55,10.37-.1,1.4.26,3-1.92,3-1.92,0-2.61-1.24-2.48-3,.28-3.56-.68-7.06-.52-10.61,0-.6.25-1.46-.86-1.37s-.87,1-.59,1.47c.64,1,.23,2.12.28,3.13.31,5.71.41,11.43.58,17.15,0,1.29.08,2.71-1.72,2.69s-1.6-1.45-1.71-2.72c-.55-6.58-1-13.16-1-19.77,0-.86-.19-1.46-1.22-1.47s-.9.77-.88,1.38c.1,2.65-.34,5.33.25,8,.3,1.34,0,2.31-1.33,2.64-1.56.39-2.68-.3-2.78-1.93-.14-2.16,0-4.33-.05-6.5a7.94,7.94,0,0,0-.12-2c-.14-.52-.43-1.08-1.19-1.06-.94,0-.77.68-.78,1.23a175.07,175.07,0,0,0,.92,18.07c.11,1.22,0,2.45.08,3.67,0,1.5-.74,2-2.17,2.06s-2.24-.47-2.23-2,0-3.33,0-5c.52-.93.93-1.84-.34-2.52-.29-.73.2-2-1.66-1.3-1.65.65-2.52-.74-2.5-2.36a66,66,0,0,0-.52-9.9c-.08-.58.31-1.46-.82-1.43s-.79.91-.76,1.47c.3,5.66.64,11.31,1,17v2c.1,1.56-.31,2.56-2.16,2.57s-2.2-.87-2.27-2.48c-.18-4-.66-8.09-.48-12.15a.66.66,0,0,0-.49-.79l-.1,0v6.38c0,1.18,0,2.17-1.65,2.06s-2,.79-1.88,2.22c.09,1.16,0,2.33,0,3.5,0,1.53.28,2.92-2.17,2.84-2.3-.07-2.89-1-2.75-3,.11-1.66,0-3.33,0-5-.06-3.85-.06-7.7-.2-11.54a33.15,33.15,0,0,0-.67-4.18C261.87,119.19,263,124,262.55,128.83Zm-86.49,20.24c.11.65-.19,1.37.49,2.31a9.2,9.2,0,0,0,0-1.51,3.32,3.32,0,0,0-.43-.83v-3c-.48,1.1-.91,2.1-.09,3Zm-2.5-19v3c.49-1.66.49-1.66,0-3v-3c-.39,1.07-.87,2.07,0,3Zm86.52-14.52c-.13-.26-.21-.71-.39-.75-.54-.12-.56.36-.61.75-1.37,3.66.42,7.29.19,11,0,.67.83.57,1.31,0a9.11,9.11,0,0,0,0-6.5c.08-1.53.41-3.08-.53-4.5Zm-113.51,25v5c.3-1.66,1-3.36,0-5v-5.36c-.28,1.79-1,3.65,0,5.42Zm-10.49-42c-.07.52.09,1.1-.41,1.49-.1-.65-.2-1.3-.3-2-.3-1.84-1.12-2.25-3.12-2-5,.63-10.09.75-15.13,1.15-3,.23-5.94.64-8.91.86-1.41.1-1.52.79-1.4,2,.53,5.2,1.05,10.4,1.39,15.61.1,1.47.56,1.87,1.91,1.74,2.15-.21,4.3-.35,6.45-.51,4.72-.36,9.45-.6,14.15-1.16,1.81-.22,4.16.42,5.29-.66s.22-3.64.59-5.5c.14-.67-.2-1.43.42-2,1.11,4,.73,8.2,1.19,12.29.36,3.2.27,3.32,3.47,2.92a98.42,98.42,0,0,1,9.87-1c3.23-.08,6.43-.46,9.65-.63,1.37-.07,2-.5,1.81-2.14-.36-3.46-.3-7-.6-10.43-.42-4.79-.95-9.58-1-14.4,0-1.69-.91-2.12-2.4-1.93-1.81.24-3.61.44-5.45.54-4.88.27-9.75.81-14.63,1.11-2.15.13-3.1,1-2.73,3.18Zm92.51,20c-.83.75-.51,1.7-.4,2.57.95,7.12,1.94,14.23,2.87,21.35.11.85.06,1.68,1,2.08l.41.49c1,0,.84-.56.74-1.33-.61-4.58-1.11-9.18-1.69-13.76-.46-3.6-1-7.19-1.47-10.79-.08-.59-.1-1.22-.8-1.38s-.62.38-.68.79Zm9.56,3a48.25,48.25,0,0,1,.44,8.68c0,2.65.74,5.26.51,7.93,0,.55-.05,1.29.84,1.17.68-.09.56-.71.59-1.19a10.68,10.68,0,0,0,0-1.25q-.49-7.68-1-15.36v-3.44c0-.42-.1-.86-.61-.92-.68-.08-.82.43-.82.94,0,1.19,0,2.34,0,3.48ZM181.26,94.88c-1.06-.38-.84-1.31-.85-2.09,0-1.53-.6-2.28-2.27-2.13q-7.06.64-14.14,1.14c-1.55.11-1.89.86-1.77,2.29q1,12.64,2,25.29c.09,1.28.57,1.63,1.67,1.42a109,109,0,0,1,12.85-1.11c7.61-.49,15.21-1.25,22.82-1.81,1.37-.1,2.08-.16,1.94-1.91-.48-5.87-.54-11.77-1.18-17.61-.28-2.56-.15-5.14-.57-7.69-.21-1.28-.62-1.79-2.11-1.64q-7.55.74-15.13,1.11c-2.17.1-3.79.26-2.92,3.1a1.61,1.61,0,0,1-.36,1.69Zm100.53,1.88c-.38,3.76.47,7.46.49,11.2a4.85,4.85,0,0,0,.76,2.38c2.1-.26,4.2,1.42,6.26,0a1.77,1.77,0,0,1,1.39-.42,17.32,17.32,0,0,0,10.45-1.07,1.85,1.85,0,0,1,1.43,0c1.8,1.08,3.72.36,5.58.48,2.45.16,2.94-1.13,2.76-3.39-.61-7.77-1.14-15.55-1.44-23.33-.09-2.34-1-2.5-2.88-2.32-7.76.71-15.52,1.36-23.29,1.88-1.64.11-2.19.58-2.1,2.2.24,4.14.35,8.29.57,12.44Zm-58.62,7.78c-.22-5.15-.31-10.3-.66-15.45-.12-1.77-.76-2-2.25-1.9-5.36.53-10.72,1.06-16.09,1.44-1.3.09-1.53.6-1.44,1.68q.27,3.22.5,6.45c.39,5.29.59,10.6,1.2,15.87s.79,5.09,6.34,4.52c3.67-.38,7.32-1.31,11.05-1.08,1.42.09,1.36-.85,1.35-1.8q0-4.83,0-9.69Zm18.92-2.14h.69c-.38,3.67.78,7.26.46,10.93-.07.75.27,1,1,1,5.43-.46,10.85-1,16.29-1.3,1.83-.1,2-1,1.83-2.36-.84-8.31-1.7-16.63-2.45-25-.11-1.19-.42-1.62-1.6-1.52q-7.3.66-14.61,1.27c-1.5.12-1.75.81-1.7,2.3.18,4.89.07,9.78.07,14.67Zm38.29-10.15a50.71,50.71,0,0,0-.33-8.06c-.13-1.09-.45-1.64-1.67-1.54-5.2.43-10.4.81-15.61,1.2-1.22.09-1.7.6-1.57,1.92.45,4.78.79,9.56,1.19,14.34.27,3.22.49,6.44.89,9.64.14,1.14-.35,3.13,1.59,3,5.19-.31,10.36-.93,15.54-1.41.74-.07.82-.24.78-1-.37-6-.58-12-.83-18ZM224.23,106.6v7.5c0,1.21.2,1.87,1.62,1.76,5-.41,9.94-.73,14.91-1.14.64,0,1.45,0,1.38-1.24-.46-8.8-.84-17.61-1.19-26.41,0-1.12-.46-1.48-1.5-1.39-4.55.4-9.09.82-13.64,1.15-1.71.12-2.08.92-2.1,2.55-.16,5.76.33,11.53.5,17.27ZM200,147.42a35,35,0,0,0,0-3.87c-.94-7.11-1.93-14.22-2.91-21.33-.08-.61.21-1.61-.75-1.53s-.71,1.14-.63,1.81c.79,6.22,1.5,12.45,2.51,18.63.27,1.91-.11,4,1.76,6.34Zm15-1,.93-.13-3.57-27-.9.12c.88,9.06,2.2,18,3.54,27Zm-40.06-24.87c-.9,2.1,0,3.85.2,5.6.34,3.62,1,7.21,1.45,10.81.07.51.15,1.11.74,1.13s.7-.58.62-1.1c-.54-3.85-1-7.71-1.7-11.52-.3-1.55.44-3.39-1.31-4.92ZM194,136.14c-.68-5-1.33-9.78-2-14.6-.06-.44-.2-.86-.71-.84-.69,0-.69.55-.62,1.08q1,7.23,1.91,14.45c.07.52.24,1.11.79,1.09C194.27,137.29,193.93,136.48,194,136.14Zm8.5-13.83c-.17,1.64.53,3.1.57,4.69a67.54,67.54,0,0,0,.91,6.79c.08.65.35.85.94.82s.68-.37.67-.82a17,17,0,0,0-.11-1.73c-.45-3.23-.93-6.46-1.37-9.7-.11-.79.18-1.89-1.1-1.77s-.1,1.21-.46,1.7Zm63.24,13.45h.87l-1.18-20.87h-.75Zm-77.93,10.93.68-.07-3.37-25.13-.65.09Zm65-30.67h-.67l1,21.5h.62Zm16.74,11.19c.74-4.47-.37-8.87-.45-13.31C268.24,118.38,269.43,122.77,269.55,127.21Zm-116.86,14h.68L151.08,124l-.64.08ZM282,113.35c.25,4.28-.09,8.6.54,12.88,1-4.28-.17-8.55-.55-12.84Zm-7.07,7.21h-.23v8.38h.23Zm-100.62,14c-.63,2,.27,4,.39,6.42.84-2.46-.3-4.37-.39-6.37Zm46.5-13c-.63,2.07.28,4,.39,6.47.82-2.51-.29-4.42-.39-6.41Zm1.47,10.89c-.32,3.12-.32,3.12.79,4.82Zm-76.6,1h.21V129h-.21Zm139-5.62h.24v-4.39h-.24Zm-10.54-10.39h.23v-3.83h-.23Zm-101.48,8c.31-1,.55-2.12-.38-3Zm-25.22,21.7h-.24V151h.24Zm-2.18-19.54a4.7,4.7,0,0,0,0-3.19,6,6,0,0,0,0,3.22Zm76.51,3.82a3.19,3.19,0,0,0,0-2.51,3.55,3.55,0,0,0,0,2.54Zm-46.12,13.16c-.33-1.17.24-1.87-.68-2.8.21,1-.16,1.68.68,2.82Zm70.45-22.44c-.17-1.18.13-1.71-.42-2.32A2.72,2.72,0,0,0,246.11,122.14ZM275.39,134c0-.52.42-1.06-.15-1.52a1.23,1.23,0,0,0,.16,1.56Zm-55-13.86c.2-.58.43-1.1-.16-1.6-.17.63-.34,1.12.12,1.63Zm25.73-2.06-.31-.6a3.52,3.52,0,0,0-.18.66,1.3,1.3,0,0,0,.15.43Z" transform="translate(-48.58 -69.95)"/><path class="cls-2" d="M262.55,128.83c.52-4.82-.65-9.63.24-14.51a33.15,33.15,0,0,1,.67,4.18c.14,3.84.14,7.69.2,11.54Z" transform="translate(-48.58 -69.95)"/><path class="cls-3" d="M89.55,106.56a32.92,32.92,0,0,1,10,3.47h0c-3.42-.3-6.67-1.41-10-2.17-.22,0-.35-.48-.52-.74Z" transform="translate(-48.58 -69.95)"/><path class="cls-3" d="M282.78,128.51c1.27.68.86,1.59.34,2.52C282,130.32,283,129.34,282.78,128.51Z" transform="translate(-48.58 -69.95)"/><path class="cls-3" d="M71,103.14a1.32,1.32,0,0,1-1.86.14l-.14-.14a1.12,1.12,0,0,1,2,0Z" transform="translate(-48.58 -69.95)"/><path class="cls-3" d="M85.55,106.62c-.7.65-.89.18-1-.45C85,106,85.28,106.29,85.55,106.62Z" transform="translate(-48.58 -69.95)"/><path class="cls-3" d="M73,103.63c-.7.65-.9.2-1-.45C72.55,103,72.78,103.29,73,103.63Z" transform="translate(-48.58 -69.95)"/><path class="cls-2" d="M177.93,144.07c-.66-.11-1.1-.31-.45-1C177.81,143.32,178.11,143.59,177.93,144.07Z" transform="translate(-48.58 -69.95)"/><path class="cls-3" d="M83.55,106.14c-.7.65-.89.2-1-.45C83,105.5,83.28,105.79,83.55,106.14Z" transform="translate(-48.58 -69.95)"/><path class="cls-2" d="M178.43,147.57c-.67-.1-1.09-.31-.45-1C178.31,146.82,178.61,147.14,178.43,147.57Z" transform="translate(-48.58 -69.95)"/><path class="cls-2" d="M178.93,151.57c-.67-.1-1.09-.31-.45-1C178.81,150.82,179.11,151.14,178.93,151.57Z" transform="translate(-48.58 -69.95)"/><path class="cls-4" d="M181.24,94.93a1.61,1.61,0,0,0,.3-1.65c-.87-2.84.75-3,2.92-3.1q7.58-.36,15.13-1.11c1.49-.15,1.9.36,2.11,1.64.42,2.55.29,5.12.57,7.69.64,5.84.71,11.75,1.18,17.61.14,1.75-.57,1.81-1.94,1.91-7.61.55-15.21,1.31-22.82,1.81a109,109,0,0,0-12.85,1.11c-1.1.2-1.58-.14-1.67-1.42q-.88-12.66-2-25.29c-.12-1.43.22-2.18,1.77-2.29q7.07-.5,14.14-1.14c1.67-.15,2.26.6,2.27,2.13C180.4,93.62,180.18,94.54,181.24,94.93Zm.72,1.48a140.53,140.53,0,0,0,2.85,19.91l.64-.11Z" transform="translate(-48.58 -69.95)"/><path class="cls-5" d="M281.77,96.81c-.18-4.15-.33-8.3-.58-12.44-.1-1.61.46-2.08,2.1-2.2,7.77-.52,15.53-1.17,23.29-1.88,1.91-.17,2.79,0,2.88,2.32.3,7.79.83,15.57,1.44,23.33.18,2.26-.31,3.55-2.76,3.39-1.86-.12-3.78.6-5.58-.48a1.85,1.85,0,0,0-1.43,0,17.32,17.32,0,0,1-10.45,1.07,1.77,1.77,0,0,0-1.39.42c-2.06,1.42-4.16-.26-6.26,0a4.85,4.85,0,0,1-.76-2.38C282.24,104.26,281.39,100.56,281.77,96.81Z" transform="translate(-48.58 -69.95)"/><path class="cls-6" d="M136.17,97.06c-.37-2.16.57-3,2.73-3.18,4.88-.3,9.75-.84,14.63-1.11,1.83-.1,3.64-.3,5.45-.54,1.49-.2,2.39.24,2.4,1.93,0,4.82.56,9.6,1,14.4.3,3.47.24,7,.6,10.43.17,1.64-.44,2.07-1.81,2.14-3.22.17-6.42.55-9.65.63a98.42,98.42,0,0,0-9.87,1c-3.19.41-3.11.28-3.47-2.92-.46-4.09-.08-8.27-1.19-12.29l-.55-8.83A1.68,1.68,0,0,0,136.17,97.06Z" transform="translate(-48.58 -69.95)"/><path class="cls-7" d="M223.15,104.58v9.72c0,1,.07,1.89-1.35,1.8-3.73-.23-7.38.7-11.05,1.08-5.55.57-5.71.88-6.34-4.52s-.81-10.58-1.2-15.87q-.24-3.22-.5-6.45c-.09-1.07.15-1.58,1.44-1.68,5.37-.39,10.73-.92,16.09-1.44,1.49-.15,2.13.14,2.25,1.9C222.85,94.28,222.93,99.43,223.15,104.58Z" transform="translate(-48.58 -69.95)"/><path class="cls-7" d="M242.07,102.44c0-4.89.1-9.78-.06-14.67-.05-1.49.21-2.18,1.7-2.3q7.31-.61,14.61-1.27c1.17-.11,1.49.32,1.6,1.52.75,8.32,1.61,16.63,2.45,25,.14,1.41,0,2.25-1.83,2.36-5.44.31-10.86.84-16.29,1.3-.76.07-1.1-.21-1-1,.32-3.67-.84-7.26-.46-10.93Z" transform="translate(-48.58 -69.95)"/><path class="cls-8" d="M280.36,92.29c.25,6,.46,12,.8,18,0,.82,0,1-.78,1-5.18.47-10.35,1.1-15.54,1.41-1.94.12-1.45-1.87-1.59-3-.39-3.2-.62-6.42-.89-9.64-.4-4.78-.73-9.57-1.19-14.34-.13-1.32.36-1.83,1.57-1.92,5.2-.39,10.41-.77,15.61-1.2,1.22-.1,1.54.45,1.67,1.54A50.71,50.71,0,0,1,280.36,92.29Z" transform="translate(-48.58 -69.95)"/><path class="cls-8" d="M224.21,106.65c-.17-5.74-.62-11.47-.54-17.23,0-1.64.39-2.43,2.1-2.55,4.55-.33,9.1-.75,13.64-1.15,1-.09,1.46.28,1.5,1.39.35,8.81.73,17.61,1.19,26.41.07,1.25-.75,1.19-1.38,1.24-5,.41-9.94.73-14.91,1.14-1.42.12-1.65-.54-1.62-1.76C224.26,111.65,224.21,109.14,224.21,106.65Z" transform="translate(-48.58 -69.95)"/><path class="cls-9" d="M136.55,109.58c-.37,1.86.68,4.29-.59,5.5s-3.48.44-5.29.66c-4.7.56-9.43.79-14.15,1.16-2.15.17-4.3.3-6.45.51-1.34.13-1.81-.26-1.91-1.74-.34-5.21-.87-10.41-1.39-15.61-.12-1.18,0-1.87,1.4-2,3-.22,5.94-.63,8.91-.86,5-.39,10.12-.51,15.13-1.15,2-.25,2.82.16,3.12,2,.11.65.2,1.3.3,2C136,103.21,135.79,106.44,136.55,109.58Zm-13-2.58a8.94,8.94,0,0,0,4.46-1.21c2.5-1.77,2.53-4.07.08-5.91s-6.94-1.27-8.69,1a3.08,3.08,0,0,0,.11,4.35l.15.14a6.54,6.54,0,0,0,3.89,1.63Z" transform="translate(-48.58 -69.95)"/><path class="cls-2" d="M200,147.47c-1.86-2.31-1.48-4.43-1.79-6.29-1-6.18-1.72-12.42-2.51-18.63-.08-.67-.47-1.72.63-1.81s.67.92.75,1.53c1,7.11,2,14.21,2.91,21.33A35,35,0,0,1,200,147.47Z" transform="translate(-48.58 -69.95)"/><path class="cls-3" d="M215,146.42c-1.34-9-2.66-18-3.53-27l.9-.12,3.57,27Z" transform="translate(-48.58 -69.95)"/><path class="cls-2" d="M239.55,121.58q.49,7.68,1,15.36a10.68,10.68,0,0,1,0,1.25c0,.47.09,1.1-.59,1.19-.89.11-.88-.62-.84-1.17.22-2.67-.49-5.28-.51-7.93a48.18,48.18,0,0,0-.44-8.68Z" transform="translate(-48.58 -69.95)"/><path class="cls-2" d="M174.92,121.55c1.75,1.53,1,3.37,1.3,4.92.73,3.81,1.16,7.68,1.7,11.52.07.52,0,1.12-.62,1.1s-.67-.62-.74-1.13c-.49-3.6-1.12-7.19-1.45-10.81C175,125.4,174,123.65,174.92,121.55Z" transform="translate(-48.58 -69.95)"/><path class="cls-2" d="M194,136.14c-.08.36.27,1.17-.61,1.2-.55,0-.73-.57-.79-1.09q-.95-7.23-1.91-14.45c-.07-.53-.07-1,.62-1.08.51,0,.65.4.71.84C192.67,126.34,193.33,131.14,194,136.14Z" transform="translate(-48.58 -69.95)"/><path class="cls-10" d="M202.55,122.29c.4-.48-.8-1.6.51-1.72s1,1,1.1,1.77c.44,3.23.92,6.46,1.37,9.7a17,17,0,0,1,.11,1.73c0,.45-.12.79-.67.82s-.86-.16-.94-.82a67.54,67.54,0,0,1-.91-6.79C203,125.39,202.34,123.92,202.55,122.29Z" transform="translate(-48.58 -69.95)"/><path class="cls-11" d="M232.46,145l-.41-.49-1.18-8.83-2.3-17.17h0c1.28.14.9,1.15,1,1.91.43,3.27,1,6.53,1.3,9.81C231.31,135.22,232.63,140.05,232.46,145Z" transform="translate(-48.58 -69.95)"/><path class="cls-3" d="M265.74,135.74l-1.06-20.86h.75l1.18,20.87Z" transform="translate(-48.58 -69.95)"/><path class="cls-3" d="M187.81,146.67l-3.33-25.11.65-.09,3.37,25.13Z" transform="translate(-48.58 -69.95)"/><path class="cls-12" d="M232.46,145c.16-5-1.15-9.83-1.61-14.75-.31-3.28-.87-6.54-1.3-9.81-.1-.77.28-1.77-1-1.91.06-.41.09-.92.68-.79s.72.79.8,1.38c.48,3.6,1,7.19,1.47,10.79.58,4.58,1.08,9.18,1.69,13.76C233.31,144.48,233.55,145,232.46,145Z" transform="translate(-48.58 -69.95)"/><path class="cls-12" d="M228.55,118.55l2.3,17.17,1.18,8.83c-.95-.4-.9-1.23-1-2.08-.93-7.12-1.93-14.23-2.87-21.35C228,120.25,227.74,119.3,228.55,118.55Z" transform="translate(-48.58 -69.95)"/><path class="cls-13" d="M252.81,116l1,21.51h-.62l-1-21.5Z" transform="translate(-48.58 -69.95)"/><path class="cls-3" d="M269.55,127.21c-.11-4.44-1.3-8.84-.45-13.31C269.17,118.34,270.28,122.74,269.55,127.21Z" transform="translate(-48.58 -69.95)"/><path class="cls-13" d="M152.68,141.25l-2.26-17.11.64-.08,2.29,17.22Z" transform="translate(-48.58 -69.95)"/><path class="cls-3" d="M282,113.39c.38,4.29,1.54,8.56.54,12.88C281.91,122,282.26,117.66,282,113.39Z" transform="translate(-48.58 -69.95)"/><path class="cls-12" d="M136.55,109.58c-.75-3.14-.57-6.37-.91-9.55.5-.4.35-1,.41-1.49l.36.21.55,8.83C136.34,108.14,136.68,108.91,136.55,109.58Z" transform="translate(-48.58 -69.95)"/><path class="cls-12" d="M260.55,126.55c-.48.52-1.36.62-1.31,0,.23-3.66-1.56-7.29-.19-11h0a73.86,73.86,0,0,1,.51,8.81c0,.79-.48,1.94,1,2.15Z" transform="translate(-48.58 -69.95)"/><path class="cls-12" d="M239.55,121.58h-1.38c0-1.15-.05-2.29,0-3.44,0-.51.14-1,.82-.94.51.06.6.5.61.92C239.55,119.28,239.55,120.43,239.55,121.58Z" transform="translate(-48.58 -69.95)"/><path class="cls-12" d="M274.93,120.6V129h-.23V120.6Z" transform="translate(-48.58 -69.95)"/><path class="cls-13" d="M174.32,134.61c.09,2,1.22,3.91.39,6.42C174.55,138.58,173.69,136.66,174.32,134.61Z" transform="translate(-48.58 -69.95)"/><path class="cls-13" d="M220.82,121.62c.1,2,1.21,3.9.39,6.47C221.1,125.6,220.19,123.69,220.82,121.62Z" transform="translate(-48.58 -69.95)"/><path class="cls-12" d="M260.55,120.05a9.11,9.11,0,0,1,0,6.5h0c.34-2.16-.58-4.32,0-6.48Z" transform="translate(-48.58 -69.95)"/><path class="cls-13" d="M222.29,132.5l.79,4.82C222,135.62,222,135.62,222.29,132.5Z" transform="translate(-48.58 -69.95)"/><path class="cls-13" d="M146.55,140.56c-1-1.77-.25-3.63,0-5.46v5.45Z" transform="translate(-48.58 -69.95)"/><path class="cls-13" d="M145.7,133.53v-4.46h.21v4.46Z" transform="translate(-48.58 -69.95)"/><path class="cls-12" d="M284.68,127.91v-4.36h.24v4.39Z" transform="translate(-48.58 -69.95)"/><path class="cls-13" d="M146.55,140.54c1,1.6.28,3.3,0,5v-5Z" transform="translate(-48.58 -69.95)"/><path class="cls-13" d="M274.15,117.44v-3.8h.23v3.83Z" transform="translate(-48.58 -69.95)"/><path class="cls-13" d="M172.68,125.47l-.38-3C173.23,123.34,173,124.45,172.68,125.47Z" transform="translate(-48.58 -69.95)"/><path class="cls-12" d="M260,115.55c.94,1.42.61,3,.5,4.5h0c-1-1.4-.24-3-.51-4.49Z" transform="translate(-48.58 -69.95)"/><path class="cls-13" d="M147.45,147.14V151h-.24v-3.81Z" transform="translate(-48.58 -69.95)"/><path class="cls-13" d="M173.55,130.07c-.84-.92-.36-2,0-3Z" transform="translate(-48.58 -69.95)"/><path class="cls-13" d="M145.27,127.63a6,6,0,0,1,0-3.19A4.7,4.7,0,0,1,145.27,127.63Z" transform="translate(-48.58 -69.95)"/><path class="cls-13" d="M176,149.07c-.82-.93-.39-2,0-3Z" transform="translate(-48.58 -69.95)"/><path class="cls-13" d="M173.55,130c.46,1.33.46,1.33,0,3Z" transform="translate(-48.58 -69.95)"/><path class="cls-13" d="M221.78,131.45a3.46,3.46,0,0,1,0-2.51A3.19,3.19,0,0,1,221.78,131.45Z" transform="translate(-48.58 -69.95)"/><path class="cls-13" d="M175.66,144.6c-.83-1.15-.47-1.84-.68-2.8C175.9,142.73,175.33,143.43,175.66,144.6Z" transform="translate(-48.58 -69.95)"/><path class="cls-12" d="M246.11,122.14a2.72,2.72,0,0,1-.42-2.32C246.24,120.47,245.94,121,246.11,122.14Z" transform="translate(-48.58 -69.95)"/><path class="cls-12" d="M275.4,134a1.23,1.23,0,0,1-.15-1.52C275.82,133,275.36,133.49,275.4,134Z" transform="translate(-48.58 -69.95)"/><path class="cls-13" d="M220.35,120.14c-.46-.52-.3-1-.16-1.6C220.78,119.05,220.55,119.57,220.35,120.14Z" transform="translate(-48.58 -69.95)"/><path class="cls-13" d="M176.07,149a3.32,3.32,0,0,1,.43.83,9.2,9.2,0,0,1,0,1.51c-.68-.94-.38-1.66-.49-2.31Z" transform="translate(-48.58 -69.95)"/><path class="cls-12" d="M246.08,118.09l-.34.48c-.05-.14-.16-.29-.15-.43a3.52,3.52,0,0,1,.18-.66Z" transform="translate(-48.58 -69.95)"/><path class="cls-12" d="M259,115.55c.05-.38.07-.86.61-.75.18,0,.26.49.39.75h-1Z" transform="translate(-48.58 -69.95)"/><path class="cls-3" d="M99.55,110l1.08.23a.25.25,0,0,1-.14.18.81.81,0,0,1-1-.37Z" transform="translate(-48.58 -69.95)"/><path class="cls-14" d="M136.41,98.74l-.36-.21.12-1.48A1.68,1.68,0,0,1,136.41,98.74Z" transform="translate(-48.58 -69.95)"/><path class="cls-10" d="M104.68,108.28c.34.16.5.48.2.7a.69.69,0,0,1-1-.16l0-.06Z" transform="translate(-48.58 -69.95)"/><path class="cls-15" d="M182,96.41l3.5,19.8-.64.11A140.53,140.53,0,0,1,182,96.41Z" transform="translate(-48.58 -69.95)"/><path class="cls-16" d="M123.55,107a6.54,6.54,0,0,1-3.89-1.63,3.08,3.08,0,0,1-.4-4.34l.14-.15c1.75-2.27,6.37-2.74,8.69-1s2.42,4.14-.08,5.91A8.94,8.94,0,0,1,123.55,107Z" transform="translate(-48.58 -69.95)"/><path class="cls-11" d="M259.07,115.57h1c.27,1.48-.5,3.09.51,4.49-.59,2.16.33,4.32,0,6.48-1.44-.21-1-1.36-1-2.15A73.87,73.87,0,0,0,259.07,115.57Z" transform="translate(-48.58 -69.95)"/></svg>