<svg id="Ebene_1" data-name="Ebene 1" xmlns="http://www.w3.org/2000/svg" viewBox="0 0 264.44 84.34"><defs><style>.cls-1{fill:#131211;}.cls-2{fill:#e15638;}.cls-3{fill:#fefefe;}</style></defs><title>plankton</title><path class="cls-1" d="M1062.13,445.14c-5.26-4-11-7.2-16.48-10.81s-11-7-16.45-10.49a2.1,2.1,0,0,1-1.17-1.76c-.21-3.86-1.53-7.52-2.15-11.32-.05-.32-.36-.65-.3-.92.21-1-.83-2.57,1-2.84s1.57,1.51,1.79,2.42c.83,3.58,1.39,7.22,2.16,10.81a3.14,3.14,0,0,0,1.42,2.17c9.67,6.12,19.29,12.32,28.92,18.5.89.57,1.68,1.41,1.71-.67.1-7.1.15-7.14,7.3-7.74,2.3-.19,4.6-.18,6.91-.46,4.49-.56,9-.73,13.55-1.07.25,0,.62.07.73-.06,2.85-3.62,7-1.79,10.49-2.32,7.39-1.12,14.91-1.23,22.36-2,2.85-.3,5.75-.62,8.64-.63,1.52,0,3.22.49,4.31-1.21a1,1,0,0,1,.9-.21c5.45,1.95,10.84-.26,16.25-.33a62.7,62.7,0,0,0,8.09-.62c5-.73,10.2-.67,15.29-1.15,6.23-.59,12.5-.86,18.7-1.57s12.29-.84,18.42-1.4c9-.82,18-1.82,27-2.42,4.69-.31,9.38-.6,14.05-1.1,3.74-.41,7.56,0,11.25-1.18,1.26-.4,2,.74,2,2.05,0,3.6,0,7.21.17,10.8,0,.78.44,1.56.43,2.41a113.71,113.71,0,0,0,1,15.81,1.58,1.58,0,0,1-1.64,2c-1.82,0-3.56.85-5.4.52s-2,.61-2,2.1c.08,3.55.78,7.05.55,10.62-.09,1.39,0,2.82-1.93,2.77a2.3,2.3,0,0,1-2.47-2.73c.27-3.64-.66-7.22-.53-10.86,0-.6.25-1.46-.86-1.36s-.87,1-.59,1.47c.64,1,.23,2.12.28,3.13.31,5.71.41,11.43.58,17.15,0,1.29.08,2.71-1.72,2.69s-1.6-1.46-1.7-2.73c-.54-6.5-1-13-1-19.52,0-.87,0-1.72-1.22-1.71s-.9,1-.86,1.62c.17,2.72-.38,5.44.36,8.17a1.74,1.74,0,0,1-1.7,2.23c-1.59.14-2.43-.58-2.54-2-.15-1.91,0-3.83,0-5.75,0-.58,0-1.17,0-1.75,0-.93-.07-2-1.31-2-1.41,0-.74,1.27-.75,1.93-.09,6.68.58,13.33.95,20,.09,1.59.14,3-2.15,3.06s-2.2-1.4-2.25-3c-.08-2.67-.31-5.34-.48-8-3.24.73-4.1.12-4-3.06s-.41-6.1-.54-9.15c0-.53.2-1.22-.73-1.27s-.89.54-.86,1.14c.27,4.93.55,9.87.81,14.8.09,1.64.12,3.28.18,4.92.06,1.45-.6,2.12-2.08,2.14s-2.35-.5-2.33-2.15c.05-4-.84-7.91-.5-11.9a1.34,1.34,0,0,0-.59-1.53c0,2.25,0,4.35,0,6.45,0,1.34-.09,2.27-1.83,2.15-1.38-.09-1.8.82-1.71,2.13s0,2.5,0,3.75c.06,1.51.15,2.75-2.1,2.65-2-.09-3-.56-2.82-2.71a19.24,19.24,0,0,0,0-2c0-4.19,0-4.25-4.15-4.32-1.7,0-2.5-.67-2.35-2.38.3-3.31-.65-6.56-.51-9.86,0-.69.05-1.37-1-1.29s-.7.7-.67,1.38c.23,5.49.36,11,.57,16.49.05,1.39.33,2.77.47,4.15.16,1.61-.43,2.42-2.22,2.52s-2.61-.77-2.65-2.42c-.08-2.81-.32-5.62-.41-8.41-.12-4-.59-7.9-.6-11.85,0-.86-.08-1.38-1.18-1.39-1.26,0-.9.75-.95,1.44-.31,4.64.53,9.23.53,13.86,0,1.61-.21,2.77-2.24,2.75s-2.1-1.28-2.16-2.65c-.19-4.2-.3-8.41-.55-12.6,0-.77.85-2.19-1-2.26s-1.09,1.4-1.06,2.16c.26,6.65.42,13.32,1.05,19.94.29,3-1.55,3.21-3.28,3.26-2.06.06-2.16-1.7-2.24-3.4-.31-7.08-.73-14.16-1.12-21.25-.07,0-.18-.09-.19-.08-1,1.24-4.07-1.22-3.7,2,.19,1.63.33,3.27.55,4.9.77,5.76,1.61,11.51,2.37,17.27a40.7,40.7,0,0,1,.57,4.4c.08,3.17-2.51,2.05-4,2.5-1.25.38-1.84-.52-2.05-2q-1.64-11.18-3-22.41a34.66,34.66,0,0,1-.48-4.16c0-1.38-.84-1.73-2.14-1.73-1.73,0-1,1.06-.93,1.84.43,4.9,1.06,9.77,1.95,14.61a10.64,10.64,0,0,1,0,3c-.1,1,.71,2.55-1.32,2.58-1.53,0-3,.4-3.27-2.08-.4-4.48-1.24-8.92-1.76-13.38-.19-1.63-.76-3.2-.58-4.9.11-1-.51-1.38-1.44-.79-.72.45-2.43-.55-2.09,1.51,1.25,7.44,2.12,14.92,3,22.41a31.29,31.29,0,0,1,.47,4.16c0,1.3-.52,2.18-1.88,2-1.13-.11-2.81.89-3.12-1.34-.43-3.16-1-6.31-1.41-9.46-.82-5.75-1.68-11.5-2.37-17.27-.18-1.5-.94-1.53-2-1.37-1.35.21-.76,1.27-.66,2,.59,4.29,1.28,8.58,1.87,12.87a2.17,2.17,0,0,1-1.75,2.77,8.55,8.55,0,0,1-5.45-.19c.36,3.14.54,6.16,1.15,9.15.2,1,.52,2.27-.58,3-1.26.85-2.74.4-4.11.31-.59,0-.58-.67-.65-1.18a63.38,63.38,0,0,1-.92-6.3c-.07-1.59-.62-2.13-2.08-1.9-2.62.41-3.35-.77-3.56-3.31-.4-5-1.26-9.91-1.92-14.86-.06-.44-.12-.86-.68-.77-.39.07-.44.45-.41.78.21,2.13.41,4.25.67,6.37.76,6,1.58,12,2.29,18,.18,1.57.33,3.2-2.18,3.29s-2.51-1.34-2.73-3.14c-.87-7-1.9-14-2.84-20.93a20.57,20.57,0,0,1-.12-2.73c0-1-.56-1.21-1.44-1.27-1.1-.07-1.26.51-1.16,1.37.37,3.26.54,6.57,1.22,9.77.34,1.61.13,3.24.63,4.87.38,1.23-.76,2.34-2.35,2-1.84-.39-2.26.4-2,2,.45,3.08.64,6.21,1.31,9.24.42,1.88-.33,2.81-1.78,3.16s-2.73,0-3-2.2c-.84-7.49-1.81-15-3-22.4-.3-1.85-.3-3.74-.76-5.6-.39-1.59-1.24-1.22-2.14-1.21-1.4,0-.65,1-.62,1.6a105.39,105.39,0,0,0,1.45,11.21c.2,1.26.46,2.84-1.48,3.13-1.7.25-2.71-.18-2.94-2.3-.4-3.74-1.15-7.45-1.42-11.21-.08-1-.21-2.09-1.65-1.93-1.17.13-1.64.77-1.47,2,.62,4.72,1.11,9.45,1.72,14.17.55,4.22,1.23,8.42,1.77,12.64a2.17,2.17,0,0,1-2.09,2.58c-1.63.15-2.14-1.31-2.22-2.48-.18-2.55-.67-5-1-7.55-1-6.9-1.74-13.82-2.59-20.74-2.82.06-2.16,2.1-2,3.51.53,4.39,1.31,8.74,1.92,13.12.42,3-.38,3.92-3,3.72a1.79,1.79,0,0,1-1.91-1.81c-.64-5.45-1.33-10.9-2-16.35-.07-.57,0-1.15-1-1.3.64,6.85,1.28,13.6,1.89,20.35.2,2.21,0,4.43.46,6.66.29,1.35-.4,2.5-2.26,2.48s-2.44-.56-2.61-2.43c-.69-7.37-.86-14.79-1.94-22.12,0-.08,0-.17,0-.25-.14-1.47.66-3.43-.42-4.27-.84-.66-2.69,0-4.09,0s-2-.6-2-1.95-.8-2.87-.52-4.4c.21-1.11-.52-1.22-1.36-1.15-5.24.46-10.48,1-15.73,1.37-3.62.28-7.26.42-10.89.64-1,.06-1.38-.34-1.55-1.41-.7-4.35-.8-4.17-5.31-5.14-6.46-1.39-12.87-3.08-19.3-4.62-3.73-.9-7.47-1.73-11.19-2.66-1.36-.34-2.39.36-3.49.84-5,2.19-9.94,4.43-14.91,6.65-.23.1-.45.3-.67.3-1,0-2.33,1.5-3-.2s1-1.84,2-2.29c5.79-2.6,11.57-5.2,17.39-7.74,3-1.32,5.72.55,8.52,1.06,3.76.69,7.45,1.83,11.17,2.73a2.51,2.51,0,0,0,1.77-.32l-8-2.86c-3.4-1.21-6.72-3.09-10.21-3.45-5-.52-6.35-4.44-8.73-7.48-1.77-2.26-3.35-4.69-4.92-7.1-.51-.78-1.22-1.88,0-2.59,1-.57,1.52.2,2.11,1.05,2.62,3.79,5.38,7.48,8.05,11.24.33.47.54.88,1.19,1.11q17.07,5.94,34.1,12a5.6,5.6,0,0,0,.73.15.69.69,0,0,0,1,.22C1062.63,445.61,1062.47,445.3,1062.13,445.14Zm76.72-13.34c-1.1-.28-1-1.09-1-1.82.11-2-.83-2.6-2.73-2.42-4.46.43-8.93.77-13.39,1.09-1.67.12-2.2.81-2,2.55.74,8.17,1.42,16.36,1.92,24.55.12,2,.8,2.19,2.4,1.89a32.54,32.54,0,0,1,5.63-.84c9.89-.11,19.68-1.6,29.55-2,1.39-.06,1.84-.35,1.73-1.86-.45-5.87-.55-11.77-1.17-17.62-.26-2.48-.22-5-.53-7.44-.18-1.45-.59-2.1-2.37-1.91-4.86.54-9.75.85-14.64,1.1-3.21.17-3.21.05-3.2,3.28A13.32,13.32,0,0,1,1138.85,431.8Zm100.37,2c-.42,3.61.44,7.31.5,11.05,0,1.19.15,2.3,2.2,2.61,2.25.34,4.19-.55,6.17-.48,3.6.12,7.08.29,10.46-1.2a1.82,1.82,0,0,1,1.43,0c1.8,1.08,3.72.38,5.58.49,2.39.14,3-1.06,2.79-3.37-.62-7.77-1.15-15.55-1.45-23.34-.09-2.31-.92-2.53-2.85-2.35-7.76.71-15.52,1.36-23.29,1.89-1.61.11-2.22.53-2.12,2.17C1238.89,425.34,1239,429.49,1239.22,433.79Zm-118.89,20.48c-.5-7.37-1.05-14.74-1.47-22.11-.18-3.17-.36-3.31-3.53-3-5.61.56-11.25.9-16.87,1.42s-5.06,0-4.66,5.42c.51,7,1.41,14,1.76,21,.12,2.48.92,3,3.06,2.7,5.91-.77,11.85-1.22,17.81-1.48C1120.35,458.07,1120.35,458.06,1120.34,454.27Zm60.26-15.1c-.15-4.33-.45-8.64-.63-13-.08-2-.86-2.28-2.55-2.11-5.19.54-10.39,1.08-15.59,1.41-1.56.1-1.78.72-1.67,2,.19,2.06.35,4.13.5,6.2.39,5.29.59,10.6,1.21,15.87s.79,5.14,6.36,4.45a97.76,97.76,0,0,1,10.33-1.11c1.85,0,2.08-.48,2.05-2C1180.55,447,1180.59,443.07,1180.59,439.17Zm19.58.39c-.32,3.38.81,7,.5,10.65-.06.72.21,1.05,1,1,5.35-.45,10.69-1,16-1.25,2.22-.12,2.25-1.21,2.06-2.88-.38-3.21-.63-6.43-.95-9.64-.5-5.1-1-10.2-1.48-15.31-.1-1.17-.82-1.09-1.55-1-4.87.4-9.74.84-14.61,1.25-1.46.12-1.84.75-1.73,2.28C1199.82,429.49,1199.95,434.39,1200.17,439.56Zm38.78,8.58c-.77-1.43-.58-2.77-.62-4.09-.25-7.38-.55-14.76-.75-22.14-.05-1.93-.84-2.53-2.71-2.35-4.78.45-9.58.78-14.37,1.14-1.36.1-2,.57-1.88,2.17.45,4.53.63,9.08,1.1,13.6.37,3.54.78,7.07,1,10.62.07,1.05-.32,2.86,2,2.61C1228,449.11,1233.24,448.68,1239,448.14Zm-40.62-21.21c0-1.18-.06-2,0-2.85.11-1.26-.5-1.6-1.63-1.51q-6.57.57-13.15,1.09c-1.72.14-2.47.76-2.47,2.76,0,8.25.91,16.47.54,24.72-.06,1.41.54,1.7,1.76,1.61,4.89-.38,9.78-.72,14.67-1.08,1.22-.09,1.43-.57,1.39-1.91C1199.24,442,1198.79,434.3,1198.34,426.93Zm-104.5,21.78c-.53-4.91-.15-9.91-1.41-14.77-.29-1.13-.62-1.2-1.61-1.11-5.45.46-10.9.82-16.35,1.26-3,.24-5.93.64-8.9.87-1.22.1-1.5.62-1.38,1.76.52,4.94,1.25,9.88,1.35,14.83.06,2.72,1.17,2.89,3.23,2.71q11.88-1.05,23.77-2c1-.07,1.36-.36,1.29-1.32C1093.8,450.21,1093.84,449.46,1093.84,448.71Zm66,10.5c.53,3.4,1,6.88,1.62,10.34.11.67-.61,2,.83,1.85s.83-1.5.68-2.17c-.75-3.37-.92-6.8-1.41-10.2-.11-.73.08-1.67-1-1.62C1159.18,457.48,1160.29,458.59,1159.84,459.2Z" transform="translate(-1006 -406.98)"/><path class="cls-2" d="M1138.85,431.8a13.32,13.32,0,0,0,.16-1.47c0-3.23,0-3.11,3.2-3.28,4.89-.25,9.78-.56,14.64-1.1,1.77-.2,2.19.46,2.37,1.91.3,2.47.27,5,.53,7.44.62,5.85.72,11.75,1.17,17.62.12,1.51-.34,1.8-1.73,1.86-9.86.41-19.66,1.9-29.55,2a32.54,32.54,0,0,0-5.63.84c-1.6.3-2.28.07-2.4-1.89-.5-8.19-1.19-16.37-1.92-24.55-.16-1.73.37-2.43,2-2.55,4.47-.32,8.94-.66,13.39-1.09,1.9-.18,2.84.44,2.73,2.42C1137.81,430.71,1137.76,431.52,1138.85,431.8Z" transform="translate(-1006 -406.98)"/><path class="cls-2" d="M1239.22,433.79c-.19-4.3-.33-8.45-.58-12.59-.1-1.64.52-2.06,2.12-2.17,7.77-.53,15.53-1.17,23.29-1.89,1.93-.18,2.76,0,2.85,2.35.3,7.79.82,15.57,1.45,23.34.19,2.31-.4,3.5-2.79,3.37-1.86-.11-3.78.6-5.58-.49a1.82,1.82,0,0,0-1.43,0c-3.38,1.49-6.86,1.33-10.46,1.2-2-.07-3.92.82-6.17.48-2-.31-2.18-1.41-2.2-2.61C1239.66,441.1,1238.81,437.4,1239.22,433.79Z" transform="translate(-1006 -406.98)"/><path class="cls-2" d="M1120.34,454.27c0,3.79,0,3.79-3.89,4-6,.26-11.9.72-17.81,1.48-2.14.28-2.94-.22-3.06-2.7-.35-7-1.25-14-1.76-21-.4-5.46-1-4.89,4.66-5.42s11.25-.85,16.87-1.42c3.16-.32,3.35-.18,3.53,3C1119.29,439.53,1119.84,446.9,1120.34,454.27Z" transform="translate(-1006 -406.98)"/><path class="cls-2" d="M1180.59,439.17c0,3.9,0,7.81,0,11.71,0,1.54-.21,2-2.05,2a97.76,97.76,0,0,0-10.33,1.11c-5.57.69-5.73.92-6.36-4.45s-.82-10.58-1.21-15.87c-.15-2.07-.32-4.13-.5-6.2-.11-1.25.1-1.87,1.67-2,5.21-.33,10.4-.87,15.59-1.41,1.69-.18,2.46.08,2.55,2.11C1180.15,430.53,1180.44,434.84,1180.59,439.17Z" transform="translate(-1006 -406.98)"/><path class="cls-2" d="M1200.17,439.56c-.23-5.17-.35-10.07-.71-14.95-.11-1.52.27-2.16,1.73-2.28,4.87-.41,9.74-.85,14.61-1.25.73-.06,1.44-.15,1.55,1,.44,5.11,1,10.21,1.48,15.31.31,3.21.57,6.43.95,9.64.2,1.67.16,2.76-2.06,2.88-5.35.28-10.7.8-16,1.25-.79.07-1.07-.27-1-1C1201,446.54,1199.85,442.94,1200.17,439.56Z" transform="translate(-1006 -406.98)"/><path class="cls-2" d="M1239,448.14c-5.71.54-11,1-16.23,1.56-2.31.26-1.92-1.55-2-2.61-.24-3.55-.64-7.08-1-10.62-.48-4.52-.66-9.08-1.1-13.6-.16-1.6.52-2.07,1.88-2.17,4.79-.36,9.58-.69,14.37-1.14,1.88-.18,2.66.43,2.71,2.35.2,7.38.49,14.76.75,22.14C1238.38,445.37,1238.19,446.7,1239,448.14Z" transform="translate(-1006 -406.98)"/><path class="cls-2" d="M1198.34,426.93c.45,7.37.9,15.09,1.12,22.83,0,1.34-.18,1.82-1.39,1.91-4.89.36-9.78.7-14.67,1.08-1.22.09-1.82-.2-1.76-1.61.37-8.25-.57-16.47-.54-24.72,0-2,.75-2.62,2.47-2.76q6.58-.52,13.15-1.09c1.13-.1,1.74.24,1.63,1.51C1198.28,424.91,1198.34,425.75,1198.34,426.93Z" transform="translate(-1006 -406.98)"/><path class="cls-2" d="M1093.84,448.71c0,.75,0,1.5,0,2.24.06,1-.34,1.24-1.29,1.32q-11.89.93-23.77,2c-2.07.18-3.18,0-3.23-2.71-.11-5-.83-9.89-1.35-14.83-.12-1.13.16-1.66,1.38-1.76,3-.24,5.93-.63,8.9-.87,5.45-.44,10.9-.8,16.35-1.26,1-.08,1.32,0,1.61,1.11C1093.69,438.8,1093.3,443.79,1093.84,448.71Zm-12.52-4.79a10.46,10.46,0,0,0,3.9-1.13c2.75-1.76,2.82-4.34.15-6.2-2.28-1.59-6.68-1.07-8.53,1a3.34,3.34,0,0,0,.25,4.69A7,7,0,0,0,1081.32,443.92Z" transform="translate(-1006 -406.98)"/><path class="cls-3" d="M1159.84,459.2c.45-.61-.66-1.72.7-1.79,1.1-.06.91.88,1,1.62.49,3.4.66,6.83,1.41,10.2.15.67.75,2-.68,2.17s-.71-1.18-.83-1.85C1160.88,466.08,1160.37,462.61,1159.84,459.2Z" transform="translate(-1006 -406.98)"/><path class="cls-3" d="M1062.13,445.14c.34.16.5.48.2.7a.69.69,0,0,1-1-.22Z" transform="translate(-1006 -406.98)"/><path class="cls-1" d="M1081.32,443.92a7,7,0,0,1-4.23-1.63,3.34,3.34,0,0,1-.25-4.69c1.85-2.07,6.24-2.59,8.53-1,2.67,1.85,2.61,4.43-.15,6.2A10.46,10.46,0,0,1,1081.32,443.92Z" transform="translate(-1006 -406.98)"/></svg>