<svg id="Ebene_1" data-name="Ebene 1" xmlns="http://www.w3.org/2000/svg" viewBox="0 0 206.21 140.6"><defs><style>.cls-1{fill:#5b9ec1;}.cls-2{fill:#555656;}.cls-3{fill:#5b5e60;}.cls-4{fill:#454849;}.cls-5{fill:#525253;}.cls-6{fill:#686868;}.cls-7{fill:#5a5a5a;}.cls-8{fill:#3e4142;}.cls-9{fill:#6e6e6e;}.cls-10{fill:#d5d5d5;}.cls-11{fill:#0a0f11;}.cls-12{fill:#61f910;}.cls-13{fill:#68f91d;}.cls-14{fill:#5df809;}.cls-15{fill:#ececec;}.cls-16{fill:#fefefe;}</style></defs><title>plankton blue</title><path class="cls-1" d="M277.08,574.51v.8c-2.5,1.83-3.16,4.44-3.12,7.35-2-.11-1.18,2.27-2.43,2.84-.88.6-1.54-.59-2.33-.42-.39.83.87,1.2.35,1.9-1.81,2.4-3.1,5.32-6.08,6.58a3.75,3.75,0,0,0-2.39,2.26c-.6.31-1.66.08-1.51,1.28h0a.47.47,0,0,0-.51.51h0a1.23,1.23,0,0,0-1.5.89l0,.11h0c-.72,0-1.07.28-1,1h0l-.52.51h0c-.63-.07-1,.12-1,.84-2.52-.41-2.42,2.54-4.11,3.2a12.48,12.48,0,0,0-4.4,2.53c-.9.7-1.73,1.54-3,1.52-1.9,1.87-4.6,2.11-6.83,3.36-3.07,1.71-6.29,3.29-9.91,3.61-1.15.19-.43-1.59-1.57-1.47-.41.92-1.53,1.54-1.15,2.8l-7.5,2.63-4.1.9a2.37,2.37,0,0,0-2.29-.65,3.51,3.51,0,0,1-3.28.22l-.47-.58c0-.55.94-.93.26-1.74l-.51,1.74c-.49,2.22-1.67,3.31-4.13,3.64-8.68,1.15-17.3,2.69-26.11,2.47a3.31,3.31,0,0,0-2.4.41,7.37,7.37,0,0,1-4.75-1c-1.86-1.34,0-3.68-1.3-5.88-.79,2.46-.42,5-2.47,6.41h-6c-1-1-2.32-.36-3.48-.49H154c-.69-.89-1.64-.41-2.49-.48h-1c-.71-.84-1.65-.42-2.51-.46h-1c-.48-.9-1.29-.49-2-.51-1.53-.78-4-.21-3.94-3.55-1,2.42-2.72,1.7-4,2.15-.94-2.27-2.94-.64-4.35-1.19l-16.73-7h0c-.18-.52-.69-.39-1.06-.55H115a3,3,0,0,0-2.55-1.53h0a1.44,1.44,0,0,0-1.55-1h0a1.43,1.43,0,0,0-1.55-1h0c-.47-.82-.94-1.63-2.09-1.5a37.15,37.15,0,0,1-11.44-12.14c-7.63-12.54-4.23-28.07,5-38.84a82.22,82.22,0,0,1,19.69-16.62c13.81-8.54,29-13.59,44.77-16.92,5-1,10-1.71,15-2.26,1.63-.18,3.27.87,4.85-.07a4.24,4.24,0,0,1,1.17-.28c7.71.45,15.42.14,23.13.06a52,52,0,0,1,5.77.65c3.27.35,6.5,1,9.75,1.47h.55c2.64,1.1,5.47,1.38,8.22,2h.17c.38.74,1.1.4,1.67.52a.26.26,0,0,1,.37,0l0,0c.34.69,1.06.26,1.55.51h0c.32.75,1,.35,1.55.54h0c.32.76,1,.36,1.55.54h0c.26.62.83.47,1.31.53v-.06a1.83,1.83,0,0,0,1.5.55h.15a2.94,2.94,0,0,0,2.37,1v-.06l1.26.57h0c.24.64.81.45,1.28.51l.1-.07.1.08,1.07.53h-.06c.18.51.67.42,1,.54h0c.16.54.66.44,1,.54h0c.16.54.66.43,1,.54h0c.17.53.66.43,1,.54h0c.16.55.67.41,1,.54h-.06c.18.48.68.38,1,.54h0l.53.51h0c.14.57.64.46,1,.53h0c.18.5.67.39,1,.54h0l.53.53h0c.15.56.67.41,1,.54h-.06l.55.54h0a1.34,1.34,0,0,0,1.53,1h0l.54.53h0c.13.59.65.43,1,.54h0l.55.55v-.06a.58.58,0,0,0,.66.43c2.79,2.64,5.77,5.14,8.1,8.2a30.78,30.78,0,0,1,6.32,18.75c-1.5.9-2.22,1.93-.54,3.34l-.07.86c-.53.6-1.49,1.12-.4,2a.61.61,0,0,1-.11.47C276.9,573.42,277.2,574,277.08,574.51ZM130.55,583.6a3.66,3.66,0,0,0,.32.3c.2-.17.33-.38,0-.58-.18,0-.45-.2-.52-.13C130.1,583.39,130.34,583.5,130.55,583.6Zm20.57-3.52c1,0,2.11.12,2.32-1.22.16-1-1.13-2.15-1.21-2.1-1.62.92-1.55-.75-2.15-1.81-.39,2,.37,3.4.79,4.82l-1,1c.17.1.33.27.5.29.63,0,.67-.48.71-1Zm69.59-19.52h-2.48c-.64,0-1.15.39-1,1.12s.82.58,1.37.38c.29,1.16-1.1.8-1.33,1.47a1.91,1.91,0,0,0-.17.93c.11.49.45.19.75.14,2.08-.32,2.18.64,1.21,2-.5.73-.22,1.13.4,1.27a4.92,4.92,0,0,0,2.87-.15c2.55-.81,4.61,1.24,6.52,3,.92-1.86-.54-3.47-.66-5.2,0-.26-1.57-1.64-2.64-.29-.3.38-.65.92-1.14.32a1,1,0,0,1,.19-1.71,10,10,0,0,0,1.74-.93c.88-.86,1.88-2.22,1.33-3.16s-2.53-2-3.56-.91-2.31,1.18-3.44,1.67Zm-75.69,7c.69-.3,1.23-.65.42-1.38-.57-.53-1.37-.78-1.47-1.8a.91.91,0,0,0-1.36-.64c-.65.33-.58,1-.44,1.51.38,1.5,2,1.41,2.91,2.31-1.4,1.42-1.37,3.74-.08,4.2,1.57.56,1.74,1.35,2.2,2.5.31.79,1.35,1.47,1.77.21.49-1.46,1.4-1.41,2.5-1.39.84,0,1.54-.24,1.58-1.18s-.85-.87-1.54-1c-1.2-.29-2.3-.89-2.38-2.29-.09-1.56,1.41-1.62,2.35-2.16,1.32-.76,1.64.66,2.31,1.22.32.27.27,1,.54,1.33.65.93,1.65.73,2.49.44.57-.19,1.27-.71,1.16-1.44-.13-.88-.71-1-1.7-1-1.21.08-2.48-2.2-1.75-2.82.42-.35,1.56-.16,1.14-1.09s-1.59-.74-2.25-.46c-3.17,1.35-3.36-1.09-4.09-3-.19-.49.22-.74.19-1.14s-.08-.75-.46-.74a2.2,2.2,0,0,0-1.11.4c-.25.17-.47.57,0,.79,1,.52,1,1.19.1,1.64a1.23,1.23,0,0,1-1.93-.81c-.17-.68-.56-.73-1.45-.48,1.74.4-.91,3.92,2.56,2.84,0,.14.14.3.11.42-.3,1.14.56,1.8,1,2.64.87,1.5-.53,2-1.31,2.69s-1.52,1-2-.34Zm-15.72,1.58c.44,2.67,3.58.38,4.11,2.31.19-.11.55-.27.53-.32-.65-2.29,1.55-3.41,2.09-5.2.77-2.56.69-2.17-1.61-2.55s-2.17,0-1.58,1.9c.35,1.12-.64,2.33-1.59,3.17-.26.23-1,.31-1.08-.13-.27-1-.74-1.94.39-3.09,1.47-1.49.1-4.83-2.1-5.29.91,1.5-.46,3,.16,4.29,1,2.09.13,2.38-1.6,2.36-.42,0-.84,0-.94.57s.24,1.24.62,1.2c1.29-.11,1.39.25.91,1.33-.27.6-.15,1.51.65,1.63s.77-.66.81-1.27A4.76,4.76,0,0,1,129.3,569.14Zm123.58,7.93a2.59,2.59,0,0,0,2.56-2.62h0a3.16,3.16,0,0,0-3.15-3.15c-1.93-.17-2.51,1.47-2.58,2.93-.07,1.86,1.33,2.61,3.18,2.83Zm-119,6c1.25,0,4.14,2.56,4,4s.49,1.23,1.08.7a3.12,3.12,0,0,0,1-3.14c-.45-1.56-2.46-2-2.85-3.74-1.68,1.86-3.26-.08-4.88-.16-1,0-.74.66-.79,1.14s-.42,1.23.62,1.21c.64-.05,1.23,0,1.81,0Zm80.48-12c1.18,2.21,3.39.76,4.35,2,1.81,2.36,2.76.06,3.92-.65.7-.43.41-1.36.22-2.06-.11-.4-.59-.81-.93-.63a1.85,1.85,0,0,0-.87,1.64c0,1.55-.5,1.17-1.62.69a25,25,0,0,0-5-1Zm-54.58,2.22c-1.56,1.52-2.87,3.18-4.4,4.66a1.65,1.65,0,0,0-.23,1.86,1,1,0,0,0,1.16.72c1-.16.21-.73.2-1.08,0-1,.2-2.09,1.38-1.8,1.66.39,1.66-.51,1.66-1.51s.18-1.92.27-2.87Zm-22.55,3.47c.94.78-.56,1.86.28,2.41,1.12.73,2.16,1.27,2.22,2.86,0,.61.94.49,1.51.5a1.75,1.75,0,0,0,1.52-1.1c.07-.12-.25-.66-.46-.71-2.17-.58-2.75-3.12-5-4Zm8.59.36c-.24,1-2.18-.14-2,1.35a2.12,2.12,0,0,0,2.22,2h.16c.94-.11,1.86-.65,1.61-1.74-.14-.76-.47-1.82-1.94-1.59Zm-1.27-2.68c-.07-2.06-1.83-2.34-2.75-3.3a.76.76,0,0,0-1.19.73c.07,1.43-.55,3,.81,4.42C141.67,574.43,141.88,572.39,144.55,574.44Zm80.82,21.7c.4.9,1.09,2.1,1.84,1.76,2-.91,2.55,1,3.75,1.67.16-2,.67-4.17-2.67-3A4.14,4.14,0,0,1,225.37,596.14Zm-51.17,2.69c1.69.59,3.33-1,4.77.43.07.07,1.14-.23,1-1s-.67-1.47-1.2-1.34c-1.5.42-3.43.07-4.57,2Zm55.62-7.55c-.33-.71-.43-1.69-1.17-1-1.17,1.08-2.48.78-3.73.64-.71-.08-1.11.18-.76.61a2.92,2.92,0,0,0,2.62,1.46c1.25-.15,1.56-1.85,3-1.67Zm-42.27-18.74c1.26-.06,1.41-1.23,1.87-2,.25-.41-.41-1-.84-.88-1.14.45-3,0-3.22,1.65C185.19,572.26,186.85,571.9,187.55,572.54Zm-4-8.85c.12-1.27-.84-1.28-1.41-1.61-.35-.2-.82-.66-1.26,0s-.48,1.28.08,1.52c1.61.71,1.09,1.69.55,2.76-.15.29-.29.62.23.67.33,0,.77,0,.77-.38a3.46,3.46,0,0,1,1-3Zm-31.8,23.07c1,1.27,2,.45,3,.13s.78-1.14.76-1.89a.84.84,0,0,0-.73-.93h-.13c-.89-.1-1.08.42-1.22,1.14S152.23,585.93,151.75,586.76Zm-3.87-4.68a7.29,7.29,0,0,0-1.73,2.82c-.23.43-.38,1.2.28,1.51s.81-.4,1.19-.67c1.44-1,1.38-2.18.27-3.66ZM213,595.31c-1.33-.6-.76-1.86-1.22-2.71-1.44.37-2.87.67-3.58,2.45,1.63-.45,3.17-.82,4.81.26ZM190.55,563.7c-.89-.21-1.5.59-2.24.28-1.23-.53-.62.76-1,1.1s-.13.89.27,1.23.93,0,1.31-.23A4.42,4.42,0,0,0,190.55,563.7ZM109.65,572c1.67,1.39,1.85,2.59,1.25,3.86a.7.7,0,0,0,.19,1l0,0c.4.28.75.13,1.06-.22.9-1-.33-4.05-2.53-4.64Zm123.12-6.64c-.28,1.14-2.6.46-2,1.89.38,1,2,1.07,3.4,1.29Zm-58-1c-1.17-1.17-2-1.57-2.57,0-.24.61-.5,1.2-1.26,1.35-.53.1-1,.34-.55,1s.74.64,1.22-.15a4.26,4.26,0,0,1,3.14-2.21Zm56.94-2,3-1c-1.56-.57-1.16-2.7-3.13-3a4.65,4.65,0,0,1,.11,4Zm-60.55,34.79c-2.28.63-3,1.83-2.49,3.7.06.23.43.44.71.54.09,0,.49-.4.46-.44-1-1.64.92-2.27,1.29-3.83ZM162,583.38a1.54,1.54,0,0,0-.91-1.52c-.82-.51-1.3-2.44-2.37-1.4-.75.73.92,1.39,1.57,2,.39.4.66,1.18,1.68.89Zm70-11.28c-1.27.17-2,.19-2.66-.33s-.7.65-1.22.85-.1.72,0,1c.35.72.88.35,1.13,0,.57-.85,1.63-.28,2.73-1.55Zm-50.5,23.38c3.11-.12,3.56-.53,3.29-2.7Zm29-15.92c.47.43.72.5,1.07.28.78-.49,2-.26,2.4-1.35.06-.16-.28-.6-.53-.74-1.42-.79-1.33,1.1-2.22,1.3-.24,0-.41.24-.75.49Zm-40.68,9.58c-.92-.12-.82.86-1.32,1.22a1,1,0,0,0-.21,1.53c.17.24.54.53.76.48.8-.16.4-.91.56-1.4S170.24,590,169.8,589.14ZM204,594.82c-.13-.45-.38-.84-.84-.75a1.69,1.69,0,0,0-1.44,1.44.79.79,0,0,0,.93.87,1.91,1.91,0,0,0,1.35-1.51Zm14.3-38.06c-1.3.3-2.78-.1-3.91.86-.06,0,.12.57.24.59,1.46.28,2.47-.76,3.67-1.4ZM162.1,568.54c-.41.19-1.31-.41-1.13.64.08.45-.15,1.45.76,1.21.64-.16,1.64-.37,1.69-1.24S162.55,568.69,162.1,568.54Zm-46.85,10.13c1.29.85,1.54,2.17,2.87,1.38.37-.22.88-.56.68-.86C118.06,578.07,116.93,578.64,115.25,578.67Zm87.67,5.89a2.64,2.64,0,0,0-3-.11c-.47.35-.09.91.12,1,1.25.78,1.74-1.06,2.89-.89Zm-23.47-15.69c-.67,1.4-.08,2.67-.8,3.68-.06.09.3.54.53.74.07.06.38-.18.58-.28C179,571.78,180.7,570.43,179.45,568.87Z" transform="translate(-91.65 -520.21)"/><path class="cls-2" d="M261.08,595.81a3.75,3.75,0,0,1,2.39-2.26c3-1.26,4.27-4.18,6.08-6.58.52-.69-.74-1.07-.35-1.9.79-.17,1.45,1,2.33.42l0,.65c-1,1.23-.8,2.15.37,3.31a12.65,12.65,0,0,1,3.76,8.21c-1.2-.2-1-1-1.21-1.57a12.45,12.45,0,0,0-2.63-5c-.69-.71-1.1-2.81-2.72-1.37-1.17,1-2.79,2.09-1.06,4.26A20.38,20.38,0,0,1,272.23,605c.35,3.83.51,7.68.77,11.64-1.31-.22-1-1-1-1.43a32.32,32.32,0,0,1-.24-4c.11-4.54-.41-8.66-5.24-10.9-1.61-.75-2.45-3.47-4-3.35s-2.77,2.2-4.31,3.14c-1.81,1.11-1.8,2-.74,3.85,3.89,6.87,3.53,14.18,1.59,21.55l-.84-.46c1.25-6.15,2-12.29-.61-18.32-.26-.61-.5-1.23-.8-1.82-1.27-2.47-3-2.57-4.74-.35-.7.9.09,1.4.41,1.94,2,3.4,3.6,6.9,3.23,11h-.6l-.5-2.77V614l-.46-1.23c-.16-2-1.46-3.43-2.49-5l-.53-1.22v-2.46c1.69-.66,1.58-3.61,4.11-3.2.46-.12,1.06-.08,1-.84h0c.41.07.71,0,.52-.51h0c.76.09,1.4,0,1-1h0c1.07.49,1.38-.13,1.52-1h0c.5.16.71,0,.51-.51h0C260.63,597.31,261,596.78,261.08,595.81Zm9.47,6.33a19.16,19.16,0,0,0-3.48-8c-.44-.64-.94-1.4-1.65-.42-.58.8-2.5,1.17-1.37,2.63A22.33,22.33,0,0,0,270.55,602.14Z" transform="translate(-91.65 -520.21)"/><path class="cls-3" d="M173.55,625.51a3.31,3.31,0,0,1,2.4-.41c8.8.22,17.43-1.32,26.11-2.47,2.46-.33,3.64-1.42,4.13-3.64h.25l.47.58c-1-.1-1,.59-1,1.27.11.93.8.61,1.31.49,1.75-.42,3.48-.88,5.22-1.33l4.1-.9c1.17,1.27,2.29-.52,3.45,0-3.93,1.57-8.1,2.26-12.21,3.16a3.93,3.93,0,0,0-3.14,2.66,123.4,123.4,0,0,1-9.71,18.27c-.56.87-1,1.91-2.15,2.33-.62-1,.28-1.39.62-1.91a160.78,160.78,0,0,0,9.8-17.94c.32-.65.93-1.46.5-2.07s-1.38,0-2.1,0c-3-.1-4.65,1.46-5.42,4.32-.65,2.42-1.62,4.75-2.45,7.13-.8-.33-.68-.69-.64-1,.06-.47.33-1-.31-1.28s-.83.41-1.06.81c-1.06,1.89-2.06,3.8-3.13,5.68a3.32,3.32,0,0,1-1.4,1.65c-.71-1,.13-1.49.45-2a97.65,97.65,0,0,0,5.77-11.6c.68-1.64.67-2.54-1.71-2.26a109.82,109.82,0,0,1-18.15,1A4.51,4.51,0,0,1,173.55,625.51Z" transform="translate(-91.65 -520.21)"/><path class="cls-4" d="M220,619c-1.16-.46-2.28,1.32-3.45,0l7.59-2.64c1-.24,2.17-.16,2.72-1.33,3.62-.32,6.84-1.9,9.91-3.61,2.23-1.24,4.93-1.49,6.83-3.36,0,1.06.91.84,1.55,1-2.1,2.52-5.27,3.27-8,4.77-1.38.76-2,1.3-1.16,2.94a15.11,15.11,0,0,1,1.44,6.71c-.44.34-.4.67,0,1v2h-1c-.19-3.14-.19-6.31-1.5-9.28-.5-1.14-.92-2.06-2.54-1.33-1.87.84-.57,1.72-.17,2.52,1.78,3.53,1.57,7.23,1.07,11a1.54,1.54,0,0,1-.34.65c-.08.1-.25.13-.61.31.12-1.4.27-2.68.32-4a15.58,15.58,0,0,0-.81-6.13c-1.21-3.26-3.16-4.07-6.32-2.64-.78.35-.7.83-.19,1.33,4.87,4.73,5.14,10.9,5.4,17.08l-.8.44c-.37-3-.64-5.91-1.13-8.83a14.75,14.75,0,0,0-3.75-7.41C223.77,618.61,222.11,618,220,619Z" transform="translate(-91.65 -520.21)"/><path class="cls-2" d="M274,582.65c0-2.91.62-5.52,3.12-7.35,1.78.19,3,1.37,4.2,2.51a31,31,0,0,1,9.64,19.76c.49,4.71.55,9.47.78,14.21a4.82,4.82,0,0,1-.41,1.23c-.85-1.92-.68-3.59-.78-5.21-.36-5.89-.26-11.84-2.45-17.47a24.78,24.78,0,0,0-1.74-3.85c-.28-.46-.21-2.58-1.82-.84-.45.49-.65-.49-.88-.82-1.77-2.51-4.51-3.6-7.11-4.88-.78-.38-1.62,0-1.17.74,1,1.69-.58,1.53-1.21,2.07Zm7.07-3.12a4.72,4.72,0,0,0-2.76-2.46c-.72-.2-1.16,1.1-1.11,1.3.36,1.37,1.83,1.41,2.85,2,.54.26.93-.12,1-.83Z" transform="translate(-91.65 -520.21)"/><path class="cls-5" d="M137.09,621.7c1.29-.45,3.06.26,4-2.15-.07,3.33,2.41,2.77,3.94,3.55v.44c-2-.57-2.61,0-3.11,2.17-1.25,5.32-5,9.35-7.88,13.85l-.61-.69c1.72-2.74,3.41-5.49,5.16-8.2a16.27,16.27,0,0,0,2.46-5.93c.13-.75.47-1.71-.7-2.08a1.81,1.81,0,0,0-2.13.81,184.94,184.94,0,0,1-13.67,14.77c-.29.29-.61.56-.91.84l-.63-.66c4.42-4.84,9.21-9.34,13.37-14.42.53-.64,1.56-1.19.76-2.3Z" transform="translate(-91.65 -520.21)"/><path class="cls-6" d="M164,632.52c-.62,3.26-1.34,6.5-1.83,9.77-.52,3.49-1.46,7.1,2.19,10.39-2.51-.78-3.21-1.62-3.59-3.94-.56-3.44.33-6.77.83-10.13.08-.57.24-1.14.32-1.71.06-.41.08-.88-.33-1.1-.59-.31-.91.16-1.19.57a55.87,55.87,0,0,1-4.88,6.61,3.64,3.64,0,0,1-3.21,1.62c4.69-4.07,7-9.13,10.18-13.64l.32.31.14-.41h-.17v-.16C163.55,631,163.39,632,164,632.52Z" transform="translate(-91.65 -520.21)"/><path class="cls-6" d="M251.55,607.79c1,1.56,2.33,3,2.49,5-1-.06-.69.62-.53,1.1s.58.7,1,.14v.77c-1.58.58-.45,1.7-.45,2.55,0,.63.49.74,1,.22h.6c.7.38.41,1,.35,1.54a1.78,1.78,0,0,0,0,2.5,13.14,13.14,0,0,1-.16,3.85c-1.37.24-.54-1.32-1.67-1.35-.44,1.64,0,3.51-.8,5.18-1.2-.45-.63-1.29-.6-1.92.19-4,.48-8-.21-11.91a14.14,14.14,0,0,0-2.82-6.55c-.71-.89-1.49-1.6-2.73-.94,1.2-.32,1.44-3,3.43-1.42C250.42,607.27,250.06,608.36,251.55,607.79Z" transform="translate(-91.65 -520.21)"/><path class="cls-7" d="M137.09,621.7h0a5.47,5.47,0,0,0-2.66.38c-8.13,3.74-17.12,4.48-25.53,7.29-.1,0-.26-.15-.43-.25-.09-1,.81-.88,1.33-1,5.79-1.75,11.66-3.24,17.56-4.6a39.26,39.26,0,0,0,4.72-1.54c.59-.22,1.34-.54.64-1.42h0C134.15,621.06,136.15,619.43,137.09,621.7Z" transform="translate(-91.65 -520.21)"/><path class="cls-5" d="M132.74,620.51h0c-8.21-3.3-17.41-2.8-25.49-6.62-.94-.45-2.11-.55-2.82-1.87,1.65,0,2.85.89,4.17,1.28,2.15.63,4.26,1.43,6.42,2,.72.2,1.78.88,2.27,0s-1.06-1-1.29-1.79Z" transform="translate(-91.65 -520.21)"/><path class="cls-6" d="M258.17,625.08l.84.46c-1.7,8-4.84,15.61-7.34,23.39l-.86-.27Z" transform="translate(-91.65 -520.21)"/><path class="cls-5" d="M225,523c-3.25-.5-6.49-1.12-9.75-1.47a52,52,0,0,0-5.77-.65c-7.71.07-15.42.39-23.13-.06a4.24,4.24,0,0,0-1.17.28h-.3c3.75-.87,7.59-.49,11.38-.74,9.32-.61,18.49.57,27.62,2.17A6.1,6.1,0,0,1,225,523Z" transform="translate(-91.65 -520.21)"/><path class="cls-6" d="M236.55,638.55c-1.18,7.5-2.77,14.91-4.62,22.26l-.92-.19,4.7-22.53Z" transform="translate(-91.65 -520.21)"/><path class="cls-6" d="M171.21,627.27c2.68,6.49,3,13.4,3.57,20.26,0,.11-.19.24-.7.88-1-7.14-1.42-13.92-3.51-20.36Z" transform="translate(-91.65 -520.21)"/><path class="cls-7" d="M277.62,572.63c-1.09-.92-.13-1.43.4-2,1.9,1,4,.55,6,.83,3.9.53,9.36,2.33,11.61,4.15-1,.42-1.83-.16-2.58-.5a37.33,37.33,0,0,0-13.76-2.8A6.84,6.84,0,0,0,277.62,572.63Z" transform="translate(-91.65 -520.21)"/><path class="cls-8" d="M164,632.52c-.6-.48-.41-1.49-1.23-1.83.11-1.45,1-2.52,1.68-3.72a1.47,1.47,0,0,0,.49-1.47,4.23,4.23,0,0,1,.08-.44c2-1.42,1.68-4,2.47-6.41,1.27,2.2-.56,4.54,1.3,5.88a7.37,7.37,0,0,0,4.75,1,4.47,4.47,0,0,0,0,.47h-2.18a.31.31,0,0,0-.32.12v.94l-.79.15c-.44-.49-.77-1.1-1.5-1.22-1.11,0-.43,1.33-1.21,1.55-.17-.52,0-1.27-.72-1.45s-.87.59-1.12,1.06c-.58,1.09-.51,2.45-1.45,3.38a.37.37,0,0,0-.21.56Z" transform="translate(-91.65 -520.21)"/><path class="cls-6" d="M133.44,638.86l.61.69c-2.86,4.48-5.45,9.17-9.93,12.37C127.73,647.91,130.13,643.06,133.44,638.86Z" transform="translate(-91.65 -520.21)"/><path class="cls-6" d="M123,638.41l.63.66c-3.15,3.67-6.51,7.17-9.18,11.25A31.93,31.93,0,0,1,123,638.41Z" transform="translate(-91.65 -520.21)"/><path class="cls-3" d="M274,582.65l.16.1c1.22,2,3.56,2.57,5.19,4,1.48,1.34,3.2,2.52,3,5-1.61-3-4.43-4.47-7-6.34-1.69-1.23-2.77-1-3.74.71l0-.65C272.79,584.92,271.92,582.54,274,582.65Z" transform="translate(-91.65 -520.21)"/><path class="cls-9" d="M168,641l-2.55,14.17-1-.2c.71-4.68,1.55-9.34,2.68-14Z" transform="translate(-91.65 -520.21)"/><path class="cls-8" d="M278.08,569.73c-1.68-1.41-1-2.44.54-3.34l2-.21.45.82c-.67.28-2-.23-1.82,1,.13.82,1.27.29,2,.31l8.88.24c.43.63,1,.58,1.67.42l.84.12v.86l-4-.44c-.29-.42-.61-.51-1-.06C284.41,569.41,281.22,568.71,278.08,569.73Z" transform="translate(-91.65 -520.21)"/><path class="cls-10" d="M290,568.52l-8.88-.24c-.69,0-1.83.51-2-.31-.19-1.21,1.16-.7,1.82-1,.59-.11,1.72.49,1.27-1h0c.43,1.75,1.8.61,2.71.88C286.74,567.26,288.77,566.72,290,568.52Z" transform="translate(-91.65 -520.21)"/><path class="cls-11" d="M250.43,606.49c-2-1.57-2.22,1.1-3.43,1.42l-1.82,1.23c-.64-.13-1.49.08-1.55-1,1.27,0,2.1-.82,3-1.52a12.48,12.48,0,0,1,4.4-2.53v1.46c-.53.06-.77.32-.58.86Z" transform="translate(-91.65 -520.21)"/><path class="cls-8" d="M168,641h-.86a42.8,42.8,0,0,0,.52-12l.87-.48A35.43,35.43,0,0,1,168,641Z" transform="translate(-91.65 -520.21)"/><path class="cls-6" d="M292.55,569.92v-.86a8.47,8.47,0,0,1,5.31,2.15C295.92,571.39,294.33,570.3,292.55,569.92Z" transform="translate(-91.65 -520.21)"/><path class="cls-6" d="M290,568.52c-1.27-1.81-3.3-1.26-5-1.63l0-.8a6.28,6.28,0,0,1,6.65,2.85A1.36,1.36,0,0,1,290,568.52Z" transform="translate(-91.65 -520.21)"/><path class="cls-4" d="M236.55,638.55l-.85-.46.9-9h1v2a.9.9,0,0,0-.09,1.46Z" transform="translate(-91.65 -520.21)"/><path class="cls-9" d="M230.12,636.51l.8-.44a17.31,17.31,0,0,1,0,6h-.77Z" transform="translate(-91.65 -520.21)"/><path class="cls-5" d="M233.79,525c-2.76-.58-5.59-.87-8.22-2A29.82,29.82,0,0,1,233.79,525Z" transform="translate(-91.65 -520.21)"/><path class="cls-6" d="M237.55,629h-1a5.22,5.22,0,0,1,0-2.49h1v1c-.42.17-.43.34,0,.51Z" transform="translate(-91.65 -520.21)"/><path class="cls-9" d="M168.55,628.55l-.87.48a1.77,1.77,0,0,1-.1-1.49c.78-.22.1-1.59,1.21-1.55Z" transform="translate(-91.65 -520.21)"/><path class="cls-5" d="M159,625.06h2.51v.5a11.09,11.09,0,0,1-4.34-.37Z" transform="translate(-91.65 -520.21)"/><path class="cls-5" d="M112.55,611.55a3,3,0,0,1,2.55,1.53A4.92,4.92,0,0,1,112.55,611.55Z" transform="translate(-91.65 -520.21)"/><path class="cls-8" d="M285.06,566.14l0,.8c-.91-.26-2.28.87-2.71-.88Z" transform="translate(-91.65 -520.21)"/><path class="cls-5" d="M154,624.55h1.51a4.66,4.66,0,0,1,0,.48,4.83,4.83,0,0,1-2.8-.37Z" transform="translate(-91.65 -520.21)"/><path class="cls-5" d="M107.46,608.14c1.15-.14,1.62.68,2.09,1.5A3.33,3.33,0,0,1,107.46,608.14Z" transform="translate(-91.65 -520.21)"/><path class="cls-6" d="M282.29,566c.45,1.47-.68.86-1.27,1l-.47-.88Z" transform="translate(-91.65 -520.21)"/><path class="cls-3" d="M155.55,625a4.66,4.66,0,0,0,0-.48c1.17.13,2.44-.49,3.48.49l-1.83.14Z" transform="translate(-91.65 -520.21)"/><path class="cls-3" d="M161.55,625.57v-.5H165a3.91,3.91,0,0,0-.08.44l-1.19.07A3.47,3.47,0,0,1,161.55,625.57Z" transform="translate(-91.65 -520.21)"/><path class="cls-4" d="M230.11,642.07h.77l-.21.87h-.51Z" transform="translate(-91.65 -520.21)"/><path class="cls-5" d="M150.55,624h1a4.73,4.73,0,0,1,0,.48,3.63,3.63,0,0,1-2.31-.37Z" transform="translate(-91.65 -520.21)"/><path class="cls-5" d="M245.84,529a2.94,2.94,0,0,1-2.37-1A3.21,3.21,0,0,1,245.84,529Z" transform="translate(-91.65 -520.21)"/><path class="cls-6" d="M237.42,632.52a.9.9,0,0,1,.09-1.46A1.62,1.62,0,0,1,237.42,632.52Z" transform="translate(-91.65 -520.21)"/><path class="cls-3" d="M150.55,624l-1.32.15L148,624a4.55,4.55,0,0,0,0-.46C148.91,623.63,149.85,623.2,150.55,624Z" transform="translate(-91.65 -520.21)"/><path class="cls-5" d="M261.55,537.54a1.34,1.34,0,0,1-1.53-1A1.54,1.54,0,0,1,261.55,537.54Z" transform="translate(-91.65 -520.21)"/><path class="cls-3" d="M151.55,624.55a4.73,4.73,0,0,0,0-.48c.85.08,1.8-.41,2.49.48l-1.29.13Z" transform="translate(-91.65 -520.21)"/><path class="cls-2" d="M256,621.56a1.78,1.78,0,0,1,0-2.5Z" transform="translate(-91.65 -520.21)"/><path class="cls-5" d="M109.55,609.56a1.43,1.43,0,0,1,1.55,1A1.84,1.84,0,0,1,109.55,609.56Z" transform="translate(-91.65 -520.21)"/><path class="cls-5" d="M111,610.56a1.44,1.44,0,0,1,1.55,1A2,2,0,0,1,111,610.56Z" transform="translate(-91.65 -520.21)"/><path class="cls-5" d="M163.76,625.58l1.19-.07a1.48,1.48,0,0,1-.5,1.47A1.32,1.32,0,0,0,163.76,625.58Z" transform="translate(-91.65 -520.21)"/><path class="cls-5" d="M148,623.58a4.55,4.55,0,0,1,0,.46c-.4,0-1,.36-1-.47Z" transform="translate(-91.65 -520.21)"/><path class="cls-6" d="M287.55,569.42c.35-.45.66-.36,1,.06A.76.76,0,0,1,287.55,569.42Z" transform="translate(-91.65 -520.21)"/><path class="cls-6" d="M237.55,624.54c-.44-.31-.48-.63,0-1A.86.86,0,0,1,237.55,624.54Z" transform="translate(-91.65 -520.21)"/><path class="cls-3" d="M145,623.53v-.44c.7,0,1.52-.38,2,.51C146.36,624.14,145.71,623.61,145,623.53Z" transform="translate(-91.65 -520.21)"/><path class="cls-5" d="M239.09,526.55c-.51-.19-1.24.21-1.55-.54C238.11,526,238.71,526,239.09,526.55Z" transform="translate(-91.65 -520.21)"/><path class="cls-5" d="M237.55,526c-.49-.25-1.2.18-1.55-.51A1.72,1.72,0,0,1,237.55,526Z" transform="translate(-91.65 -520.21)"/><path class="cls-5" d="M235.64,525.51c-.58-.12-1.29.22-1.67-.52A2,2,0,0,1,235.64,525.51Z" transform="translate(-91.65 -520.21)"/><path class="cls-7" d="M277.08,574.51c.12-.48-.18-1.08.43-1.41A1.43,1.43,0,0,1,277.08,574.51Z" transform="translate(-91.65 -520.21)"/><path class="cls-5" d="M240.55,527c-.52-.18-1.24.22-1.55-.54C239.62,526.49,240.21,526.47,240.55,527Z" transform="translate(-91.65 -520.21)"/><path class="cls-5" d="M249.55,530.55l-1.07-.53A1.15,1.15,0,0,1,249.55,530.55Z" transform="translate(-91.65 -520.21)"/><path class="cls-5" d="M251.55,531.55c-.39-.1-.89,0-1-.54C251,531,251.4,531.06,251.55,531.55Z" transform="translate(-91.65 -520.21)"/><path class="cls-5" d="M255.55,533.55c-.35-.16-.85,0-1-.54Z" transform="translate(-91.65 -520.21)"/><path class="cls-5" d="M264.21,539.44a.58.58,0,0,1-.66-.43A.57.57,0,0,1,264.21,539.44Z" transform="translate(-91.65 -520.21)"/><path class="cls-5" d="M248.32,530c-.47-.06-1,.13-1.28-.51A1.11,1.11,0,0,1,248.32,530Z" transform="translate(-91.65 -520.21)"/><path class="cls-5" d="M263.09,538.55c-.38-.11-.9,0-1-.54C262.55,537.84,262.85,538.14,263.09,538.55Z" transform="translate(-91.65 -520.21)"/><path class="cls-3" d="M170.29,627.2l.79-.15a.15.15,0,0,1,.13.21l-.65.78Z" transform="translate(-91.65 -520.21)"/><path class="cls-5" d="M258.07,535c-.36-.15-.85,0-1-.54A1.12,1.12,0,0,1,258.07,535Z" transform="translate(-91.65 -520.21)"/><path class="cls-5" d="M243.32,528a1.83,1.83,0,0,1-1.5-.55C242.39,527.48,243,527.46,243.32,528Z" transform="translate(-91.65 -520.21)"/><path class="cls-5" d="M241.84,527.53c-.48-.06-1,.09-1.31-.53C241,527,241.55,526.94,241.84,527.53Z" transform="translate(-91.65 -520.21)"/><path class="cls-5" d="M247.08,529.54l-1.26-.57C246.31,529,246.85,528.94,247.08,529.54Z" transform="translate(-91.65 -520.21)"/><path class="cls-5" d="M115,613c.37.15.88,0,1.06.55A1.14,1.14,0,0,1,115,613Z" transform="translate(-91.65 -520.21)"/><path class="cls-5" d="M257.09,534.54c-.4-.07-.9,0-1-.53a.78.78,0,0,1,1,.49Z" transform="translate(-91.65 -520.21)"/><path class="cls-5" d="M254.55,533c-.38-.13-.89,0-1-.54A1,1,0,0,1,254.55,533Z" transform="translate(-91.65 -520.21)"/><path class="cls-5" d="M253.55,532.55c-.39-.1-.88,0-1-.54C253,532,253.4,532.06,253.55,532.55Z" transform="translate(-91.65 -520.21)"/><path class="cls-5" d="M252.55,532c-.39-.11-.89,0-1-.54A.93.93,0,0,1,252.55,532Z" transform="translate(-91.65 -520.21)"/><path class="cls-5" d="M259.55,536c-.37-.13-.9,0-1-.54A1,1,0,0,1,259.55,536Z" transform="translate(-91.65 -520.21)"/><path class="cls-5" d="M250.55,531c-.38-.12-.87,0-1-.54C250,530.53,250.38,530.58,250.55,531Z" transform="translate(-91.65 -520.21)"/><path class="cls-9" d="M230.16,643h.51c.13.34-.09.43-.35.43A1.7,1.7,0,0,1,230.16,643Z" transform="translate(-91.65 -520.21)"/><path class="cls-5" d="M258.55,535.56,258,535C258.34,535.14,258.55,535.21,258.55,535.56Z" transform="translate(-91.65 -520.21)"/><path class="cls-6" d="M164.08,631.14a.37.37,0,0,1,.11-.51l.1,0Z" transform="translate(-91.65 -520.21)"/><path class="cls-8" d="M162.94,630.86l-.14.41-.32-.31Z" transform="translate(-91.65 -520.21)"/><path class="cls-5" d="M262.09,538l-.54-.53C261.9,537.52,262.15,537.62,262.09,538Z" transform="translate(-91.65 -520.21)"/><path class="cls-5" d="M260.09,536.55l-.55-.54C259.84,536.07,260.1,536.14,260.09,536.55Z" transform="translate(-91.65 -520.21)"/><path class="cls-3" d="M171.06,626.14a.31.31,0,0,1,.32-.12l-.14.14Z" transform="translate(-91.65 -520.21)"/><path class="cls-5" d="M256.09,534l-.53-.51C255.84,533.59,256.11,533.67,256.09,534Z" transform="translate(-91.65 -520.21)"/><path class="cls-5" d="M263.55,539.06l-.55-.55Z" transform="translate(-91.65 -520.21)"/><path class="cls-4" d="M237.55,628.06q-.64-.25,0-.51Z" transform="translate(-91.65 -520.21)"/><path class="cls-12" d="M145,567.54c.48,1.34,1.19,1.11,2,.32s2.17-1.2,1.31-2.69c-.48-.83-1.34-1.49-1-2.64a1.87,1.87,0,0,0-.11-.42c-3.47,1.08-.82-2.44-2.56-2.84.9-.25,1.29-.2,1.45.48a1.23,1.23,0,0,0,1.93.81c.85-.44.89-1.12-.1-1.64-.42-.22-.19-.62,0-.79a2.2,2.2,0,0,1,1.11-.4c.38,0,.43.39.46.74s-.38.64-.19,1.14c.73,1.89.92,4.33,4.09,3,.66-.28,1.85-.44,2.25.46s-.72.74-1.14,1.09c-.74.62.53,2.9,1.75,2.82,1-.07,1.57.1,1.7,1,.11.73-.59,1.25-1.16,1.44-.84.28-1.84.49-2.49-.44-.27-.39-.22-1.06-.54-1.33-.67-.55-1-2-2.31-1.22-.94.54-2.44.59-2.35,2.16.08,1.4,1.18,2,2.38,2.29.69.17,1.58,0,1.54,1s-.74,1.2-1.58,1.18c-1.1,0-2-.07-2.5,1.39-.42,1.26-1.46.58-1.77-.21-.46-1.15-.63-1.94-2.2-2.5-1.3-.46-1.33-2.78.08-4.2Z" transform="translate(-91.65 -520.21)"/><path class="cls-13" d="M220.67,560.56c1.13-.49,2.35-.46,3.41-1.57s2.94-.15,3.56.91-.45,2.3-1.33,3.16a10,10,0,0,1-1.74.93,1,1,0,0,0-.19,1.71c.49.6.84.06,1.14-.32,1.07-1.35,2.63,0,2.64.29.12,1.73,1.58,3.34.66,5.2-1.91-1.8-4-3.85-6.52-3a4.92,4.92,0,0,1-2.87.15c-.61-.14-.89-.54-.4-1.27,1-1.41.87-2.37-1.21-2-.3,0-.65.34-.75-.14a1.91,1.91,0,0,1,.17-.93c.23-.67,1.62-.32,1.33-1.47C219,561.19,220.5,561.78,220.67,560.56Zm1.43,4.59a1.83,1.83,0,0,0,.89-1.37c0-.7-.59-.63-1-.71-.62-.1-1,.17-.78.8s.2,1.13.89,1.27Z" transform="translate(-91.65 -520.21)"/><path class="cls-12" d="M129.3,569.14a4.76,4.76,0,0,0-.23.91c0,.6-.16,1.36-.81,1.27s-.91-1-.65-1.63c.48-1.09.38-1.45-.91-1.33-.38,0-.72-.62-.62-1.2s.52-.58.94-.57c1.73,0,2.64-.26,1.6-2.36-.61-1.24.75-2.79-.16-4.29,2.2.46,3.57,3.8,2.1,5.29-1.13,1.15-.66,2.06-.39,3.09.11.43.82.35,1.08.13,1-.83,2-2,1.59-3.17-.59-1.87-.77-2.29,1.58-1.9s2.39,0,1.61,2.55c-.54,1.79-2.75,2.91-2.09,5.2,0,0-.35.21-.53.32C132.88,569.5,129.74,571.8,129.3,569.14Z" transform="translate(-91.65 -520.21)"/><path class="cls-11" d="M252.89,577c-1.85-.22-3.25-1-3.16-2.85.07-1.46.64-3.1,2.58-2.93a3.16,3.16,0,0,1,3.15,3.15,2.59,2.59,0,0,1-2.55,2.63Z" transform="translate(-91.65 -520.21)"/><path class="cls-12" d="M133.92,583h-1.75c-1,0-.66-.72-.62-1.21s-.27-1.19.79-1.14c1.62.08,3.2,2,4.88.16.38,1.69,2.4,2.19,2.85,3.74a3.12,3.12,0,0,1-1,3.14c-.59.53-1.21.74-1.08-.7S135.17,583,133.92,583Z" transform="translate(-91.65 -520.21)"/><path class="cls-12" d="M214.4,571a25,25,0,0,1,5.07,1c1.12.48,1.58.85,1.62-.69a1.85,1.85,0,0,1,.87-1.64c.34-.17.82.23.93.63.18.7.48,1.63-.22,2.06-1.16.71-2.11,3-3.92.65C217.79,571.82,215.55,573.27,214.4,571Z" transform="translate(-91.65 -520.21)"/><path class="cls-14" d="M159.82,573.27c-.1,1-.24,1.9-.28,2.85s0,1.92-1.61,1.52c-1.18-.29-1.4.77-1.38,1.8,0,.34.78.92-.2,1.08a1,1,0,0,1-1.16-.72,1.65,1.65,0,0,1,.23-1.86C157,576.46,158.26,574.79,159.82,573.27Z" transform="translate(-91.65 -520.21)"/><path class="cls-12" d="M137.27,576.75c2.28.85,2.86,3.35,5.07,4,.22.06.53.6.46.71a1.75,1.75,0,0,1-1.52,1.1c-.57,0-1.48.11-1.51-.5-.06-1.59-1.11-2.13-2.22-2.86C136.71,578.61,138.21,577.53,137.27,576.75Z" transform="translate(-91.65 -520.21)"/><path class="cls-14" d="M145.87,577.14c1.47-.2,1.81.86,2,1.65.25,1.09-.67,1.63-1.61,1.74a2.12,2.12,0,0,1-2.37-1.84q0-.08,0-.16C143.69,577,145.62,578.06,145.87,577.14Z" transform="translate(-91.65 -520.21)"/><path class="cls-14" d="M144.55,574.44c-2.66-2-2.86,0-3.13,1.86-1.36-1.44-.74-3-.81-4.42a.76.76,0,0,1,1.19-.73C142.71,572.14,144.46,572.38,144.55,574.44Z" transform="translate(-91.65 -520.21)"/><path class="cls-12" d="M225.37,596.14a4.14,4.14,0,0,0,2.92.39c3.34-1.13,2.83,1,2.67,3-1.2-.69-1.74-2.59-3.75-1.67C226.47,598.27,225.77,597.07,225.37,596.14Z" transform="translate(-91.65 -520.21)"/><path class="cls-12" d="M150.82,579.76c-.41-1.41-1.17-2.77-.78-4.82.6,1.06.53,2.73,2.15,1.81.08,0,1.37,1.12,1.21,2.1-.21,1.34-1.33,1.22-2.32,1.22Z" transform="translate(-91.65 -520.21)"/><path class="cls-12" d="M174.2,598.87c1.14-1.92,3.07-1.58,4.63-2,.53-.13,1.11.59,1.2,1.34s-1,1.12-1,1C177.55,597.87,175.89,599.46,174.2,598.87Z" transform="translate(-91.65 -520.21)"/><path class="cls-14" d="M229.82,591.32c-1.48-.17-1.79,1.52-3,1.7a2.92,2.92,0,0,1-2.62-1.46c-.35-.43,0-.69.76-.61,1.26.14,2.56.44,3.73-.64C229.38,589.63,229.49,590.6,229.82,591.32Z" transform="translate(-91.65 -520.21)"/><path class="cls-15" d="M212.47,620c-1.74.45-3.48.91-5.22,1.33-.51.12-1.2.44-1.31-.49-.08-.68,0-1.37,1-1.27a3.51,3.51,0,0,0,3.28-.22A2.37,2.37,0,0,1,212.47,620Z" transform="translate(-91.65 -520.21)"/><path class="cls-14" d="M187.55,572.54c-.65-.64-2.32-.28-2.19-1.21.22-1.6,2.08-1.19,3.22-1.65.43-.17,1.1.47.84.88C188.92,571.31,188.77,572.49,187.55,572.54Z" transform="translate(-91.65 -520.21)"/><path class="cls-14" d="M183.55,563.69a3.46,3.46,0,0,0-1,2.93c0,.4-.44.42-.77.38-.52-.06-.38-.39-.23-.67.54-1.06,1-2-.55-2.76-.56-.25-.46-1-.08-1.52s.91-.16,1.26,0C182.66,562.41,183.62,562.42,183.55,563.69Z" transform="translate(-91.65 -520.21)"/><path class="cls-14" d="M151.75,586.76c.47-.83,1.54-.72,1.7-1.56s.32-1.23,1.22-1.14a.84.84,0,0,1,.86.94c0,.75.1,1.61-.76,1.89S152.71,588,151.75,586.76Z" transform="translate(-91.65 -520.21)"/><path class="cls-14" d="M145,567.54H145c-.87-.9-2.54-.81-2.91-2.31-.14-.57-.21-1.19.44-1.51a.91.91,0,0,1,1.36.64c.1,1,.9,1.27,1.47,1.8C146.2,566.89,145.67,567.24,145,567.54Z" transform="translate(-91.65 -520.21)"/><path class="cls-14" d="M147.89,582.08c1.11,1.48,1.17,2.64-.26,3.65-.38.27-.64.93-1.19.67s-.51-1.07-.28-1.51C146.63,584,146.85,582.88,147.89,582.08Z" transform="translate(-91.65 -520.21)"/><path class="cls-12" d="M213,595.31c-1.63-1.08-3.18-.71-4.79-.26.71-1.77,2.14-2.08,3.58-2.45C212.26,593.45,211.69,594.7,213,595.31Z" transform="translate(-91.65 -520.21)"/><path class="cls-14" d="M190.55,563.7a4.42,4.42,0,0,1-1.66,2.38c-.38.27-.79.68-1.31.23s-.77-.8-.27-1.23-.22-1.63,1-1.1C189.06,564.29,189.67,563.49,190.55,563.7Z" transform="translate(-91.65 -520.21)"/><path class="cls-14" d="M109.66,572c2.19.59,3.43,3.66,2.54,4.66-.31.35-.66.5-1.06.22a.7.7,0,0,1-.26-1l0,0C111.55,574.55,111.34,573.35,109.66,572Z" transform="translate(-91.65 -520.21)"/><path class="cls-12" d="M232.78,565.32l1.38,3.18c-1.43-.22-3-.34-3.4-1.29C230.18,565.78,232.55,566.45,232.78,565.32Z" transform="translate(-91.65 -520.21)"/><path class="cls-12" d="M174.75,564.26a4.26,4.26,0,0,0-3.16,2.12c-.48.79-.81.7-1.22.15s0-.86.55-1c.76-.15,1-.73,1.26-1.35C172.78,562.69,173.55,563.14,174.75,564.26Z" transform="translate(-91.65 -520.21)"/><path class="cls-14" d="M231.69,562.24a4.65,4.65,0,0,0-.18-4c2,.27,1.57,2.39,3.13,3Z" transform="translate(-91.65 -520.21)"/><path class="cls-14" d="M171.13,597c-.37,1.56-2.31,2.18-1.32,3.79,0,0-.37.48-.46.44-.27-.1-.65-.3-.71-.54C168.17,598.86,168.85,597.66,171.13,597Z" transform="translate(-91.65 -520.21)"/><path class="cls-12" d="M162,583.35c-1,.29-1.29-.49-1.72-.91-.65-.63-2.32-1.28-1.57-2,1.07-1,1.56.89,2.37,1.4A1.54,1.54,0,0,1,162,583.35Z" transform="translate(-91.65 -520.21)"/><path class="cls-12" d="M232,572.07c-1.1,1.27-2.16.7-2.71,1.5-.26.38-.79.75-1.13,0-.14-.29-.63-.77,0-1s.49-1.4,1.22-.85S230.69,572.25,232,572.07Z" transform="translate(-91.65 -520.21)"/><path class="cls-15" d="M226.89,615.14c-.55,1.17-1.71,1.09-2.72,1.33-.38-1.26.74-1.88,1.15-2.8C226.45,613.54,225.73,615.32,226.89,615.14Z" transform="translate(-91.65 -520.21)"/><path class="cls-14" d="M181.46,595.46l3.29-2.7C185,594.92,184.55,595.33,181.46,595.46Z" transform="translate(-91.65 -520.21)"/><path class="cls-14" d="M210.45,579.54c.34-.25.51-.45.71-.5.89-.2.8-2.09,2.22-1.3.25.14.59.57.53.74-.41,1.1-1.62.86-2.4,1.35C211.17,580,210.92,580,210.45,579.54Z" transform="translate(-91.65 -520.21)"/><path class="cls-14" d="M169.8,589.14c.44.85,0,1.31-.21,1.83s.24,1.24-.56,1.4a1.23,1.23,0,0,1-.76-.48,1,1,0,0,1,.06-1.41l.15-.12C169,590,168.88,589.06,169.8,589.14Z" transform="translate(-91.65 -520.21)"/><path class="cls-12" d="M204,594.87a1.91,1.91,0,0,1-1.35,1.56.79.79,0,0,1-.93-.87,1.69,1.69,0,0,1,1.44-1.44C203.55,594,203.83,594.42,204,594.87Z" transform="translate(-91.65 -520.21)"/><path class="cls-10" d="M220.67,560.56c-.17,1.21-1.69.63-2.08,1.55-.55.19-1.17.46-1.37-.38s.34-1.07,1-1.12S219.84,560.57,220.67,560.56Z" transform="translate(-91.65 -520.21)"/><path class="cls-13" d="M218.26,556.81c-1.2.65-2.21,1.68-3.68,1.45-.11,0-.29-.54-.24-.59C215.48,556.71,217,557.14,218.26,556.81Z" transform="translate(-91.65 -520.21)"/><path class="cls-14" d="M162.1,568.54c.48.15,1.37-.3,1.32.61s-1,1.07-1.69,1.24c-.92.24-.69-.76-.76-1.21C160.79,568.14,161.69,568.73,162.1,568.54Z" transform="translate(-91.65 -520.21)"/><path class="cls-14" d="M115.25,578.67c1.68,0,2.81-.6,3.55.52.2.3-.31.64-.68.86C116.8,580.84,116.55,579.52,115.25,578.67Z" transform="translate(-91.65 -520.21)"/><path class="cls-14" d="M202.93,584.56c-1.14-.17-1.64,1.66-2.84.93-.21-.13-.59-.69-.12-1C200.9,583.75,201.9,584,202.93,584.56Z" transform="translate(-91.65 -520.21)"/><path class="cls-14" d="M179.45,568.87c1.25,1.56-.45,2.91.31,4.14-.2.1-.52.34-.58.28-.23-.2-.59-.65-.53-.74C179.36,571.53,178.78,570.27,179.45,568.87Z" transform="translate(-91.65 -520.21)"/><path class="cls-10" d="M261.08,595.81c0,1-.46,1.5-1.51,1.28C259.42,595.88,260.49,596.14,261.08,595.81Z" transform="translate(-91.65 -520.21)"/><path class="cls-10" d="M259.08,597.58c-.14.89-.45,1.51-1.52,1a1.23,1.23,0,0,1,1.41-1Z" transform="translate(-91.65 -520.21)"/><path class="cls-15" d="M206.43,619h-.25l.51-1.74C207.37,618.06,206.43,618.43,206.43,619Z" transform="translate(-91.65 -520.21)"/><path class="cls-12" d="M151.08,580.08c0,.5-.08,1-.78.94-.18,0-.33-.19-.5-.29l1-1Z" transform="translate(-91.65 -520.21)"/><path class="cls-10" d="M257.55,598.58c.38,1.06-.26,1.1-1,1C256.55,598.86,256.87,598.53,257.55,598.58Z" transform="translate(-91.65 -520.21)"/><path class="cls-10" d="M256.08,600.07c.1.76-.5.72-1,.84C255.06,600.19,255.46,600,256.08,600.07Z" transform="translate(-91.65 -520.21)"/><path class="cls-12" d="M130.55,583.6c-.17-.09-.4-.21-.17-.41.08-.07.34.08.52.13A1.08,1.08,0,0,0,130.55,583.6Z" transform="translate(-91.65 -520.21)"/><path class="cls-10" d="M256.55,599.57c.19.54-.11.58-.52.51Z" transform="translate(-91.65 -520.21)"/><path class="cls-12" d="M130.86,583.32c.31.2.18.41,0,.58a3.67,3.67,0,0,1-.32-.3A1.08,1.08,0,0,1,130.86,583.32Z" transform="translate(-91.65 -520.21)"/><path class="cls-10" d="M259.55,597.08c.2.54,0,.67-.51.51a.47.47,0,0,1,.43-.51Z" transform="translate(-91.65 -520.21)"/><path class="cls-15" d="M270.55,602.14a22.33,22.33,0,0,1-6.51-5.78c-1.13-1.46.79-1.82,1.37-2.63.71-1,1.21-.22,1.65.42A19.16,19.16,0,0,1,270.55,602.14Z" transform="translate(-91.65 -520.21)"/><path class="cls-16" d="M255.08,617.56c-.46.52-1,.41-1-.22,0-.85-1.13-2,.45-2.55Z" transform="translate(-91.65 -520.21)"/><path class="cls-16" d="M251.55,607.79c-1.52.57-1.16-.52-1.15-1.3l0,0,.57.13Z" transform="translate(-91.65 -520.21)"/><path class="cls-16" d="M254.55,614c-.42.56-.79.45-1-.14s-.51-1.15.53-1.1Z" transform="translate(-91.65 -520.21)"/><path class="cls-6" d="M251,606.57l-.57-.13c-.19-.54,0-.8.58-.86Z" transform="translate(-91.65 -520.21)"/><path class="cls-16" d="M281,579.54c-.1.72-.51,1.09-1,.82-1-.56-2.49-.61-2.85-2,0-.21.39-1.51,1.11-1.3A4.72,4.72,0,0,1,281,579.54Z" transform="translate(-91.65 -520.21)"/><path class="cls-10" d="M222.1,565.14c-.69-.15-.78-.78-.94-1.28s.16-.9.78-.8c.46.07,1.08,0,1,.71A1.83,1.83,0,0,1,222.1,565.14Z" transform="translate(-91.65 -520.21)"/></svg>