<svg id="Ebene_1" data-name="Ebene 1" xmlns="http://www.w3.org/2000/svg" viewBox="0 0 200.1 141.1"><defs><style>.cls-1{fill:#fdfdfd;}.cls-2{fill:#f83f88;}.cls-3{fill:#f34286;}.cls-4{fill:#f93d86;}.cls-5{fill:#fa1970;}.cls-6{fill:#58464c;}.cls-7{fill:#f16ea2;}.cls-8{fill:#f63982;}.cls-9{fill:#ee2b77;}.cls-10{fill:#ed518c;}.cls-11{fill:#47363c;}.cls-12{fill:#968379;}.cls-13{fill:#7c4256;}.cls-14{fill:#ad2a5b;}.cls-15{fill:#eb99b8;}.cls-16{fill:#aa6873;}</style></defs><title>plantation pink</title><path class="cls-1" d="M1051.5,512.91q0-69.5,0-139c0-1.71.34-2,2-2q98,.08,196,0c1.71,0,2.05.34,2,2q-.09,68.5,0,137c0,1.71-.34,2-2,2Q1150.5,512.87,1051.5,512.91Zm134.67-78.34.44-.55a1.08,1.08,0,0,0,.55-1h-.05l.39-.65c.11-1,1.15-1.8.58-2.93l-.11-11.56.18-.47c1.13-.45,1.23-1.82,2.17-2.43h.16l-.16,0,.71-.86c1-.4,1.92-.77,2.85-1.21,2.49-1.18,2.8-2.1,1.68-4.82a2.42,2.42,0,0,0-1.58-2.3c-1.19-.49-2.65-1.4-2.67,1.08l-.82.27c-2-.63-2.67.93-3.53,2.17h0a1.5,1.5,0,0,0-1,1,10.4,10.4,0,0,0-1.93,3.09l-.56,0a.46.46,0,0,0-.35-.07l-1.17-1.45c-1.39-2.39-3.71-2-5.92-2-.25-.39-.32-1-1-.88l-.12-.05a.63.63,0,0,0-.8-.34c-2.32-.4-3.38.5-3.05,2.64.28,1.81,1.54,2.85,3,3.73,1.15.49.82,2.09,1.95,2.6l.45.29c-.24.91-.61,1.15-1.53.6a6.31,6.31,0,0,0-3.57-.61,1.37,1.37,0,0,0-1.19-.5,3.14,3.14,0,0,0-2-1c-1.81-.89-3.32-.73-4.46,1.12s-.24,3,1,4.31c3.61,3.75,8.1,4.11,12.86,3.65,1.31,0,1.93.59,2.56,1.79,1.45,2.76,1.58,5.24-.59,7.64h0l-.46,0-9,6.07a.52.52,0,0,0-.45,0c-2,.37-2.65-.62-3-2.53-.54-2.91-2.4-3.72-5.12-2.61a3.14,3.14,0,0,0-1.73,3.92c.47,1.65-.19,2.08-1.58,2.53a13.14,13.14,0,0,0-8,6.21l-.3,1.39c-1.54-.48-1.31-2.39-2.54-3.12a2.4,2.4,0,0,0-3.36-.29c-1.25.83-1.19,2.12-.85,3.35a10.3,10.3,0,0,0,2.13,3.6c.65,1.21-.23,2-.82,2.84a9.87,9.87,0,0,0-2,3.61l-.79.5c-.05-.44,0-.91-.6-1.06-.66-1.2-.56-2.81-2-3.6.44-2.33-.88-3.38-2.86-3.91-1.47-.39-3-.68-3.93-2.06-.6-1.25.06-2.23.71-3.21,1.56-1.17.94-3.13,1.66-4.65a23.06,23.06,0,0,0,2.31-6c-.11-2.35,1.65-2.75,3.34-3.43s3.77,0,4.8-2c2.47-1.74,3.93-4,3.43-7.12.64-2,2.48-3.14,3.36-4.95a1.68,1.68,0,0,0,.69-1.46c2.51-1,5.19-6.49,4.34-8.87a1.06,1.06,0,0,0-1.36-.72l-.9-1c.21-.27,1.37-.2.68-.56s-.8-1.52-1.79-1.44l0,0c-.33-1.32-1.86-2.33-1-3.95l0,0c1.88-.34,3.75-.67,5.63-1,3.59-.67,4.24-1.86,3-5.37a3.08,3.08,0,0,0-1.31-2.18c-.16-.31-.28-.69-.77-.55l.08,0c-1.63-2.53-7-3.41-9.16-1.52-.43.37-.7.92-.43,1.29,1.27,1.75.45,3.62.44,5.44l-1,2.32a3.4,3.4,0,0,1-3.59-2c-.77-1.7-1.88-1.79-3.36-1.4a9.68,9.68,0,0,0-5.87,2.26,3,3,0,0,0-1.26,3.45,2.79,2.79,0,0,0,2.92,2.19,15.53,15.53,0,0,1,5.53,1c.51.18,1.31.56,1.7-.35l1.93.49.49.71c-.41,1.41,1.51,1.78,1.25,3.53-.36,2.47-.3,5-.85,7.54l-.4,1.11h0l-.41.61c-.5,1.15-1.79,2-1.51,3.46-.45.57-1.14.81-1.65,1.38-2,2.2-4.21,4.09-7.43,4.1l-1,.57c-1-1.2-1.32-2.92-2.93-3.61-.51-2.83-6.77-7.26-9.71-6.87a1.25,1.25,0,0,0,0,.24l-1.24-1.18v-.14l0,.12-.75-.71,2.88-8.66a15.7,15.7,0,0,0,.9-2c.69-2.21-.43-3.76-2.69-3.82l-.1-.63a1,1,0,0,0-.87-.82.17.17,0,0,0-.27,0c-.41-.49-.78-1-1.51-1.08a3.92,3.92,0,0,0-3.54-.41.44.44,0,0,0-.66-.08c-1.64.39-3.8.36-2.54,3.11a10.35,10.35,0,0,1,1.74,6.32c-.17,3.29-.85,3.84-4.18,3.13-.44-1.62,1.56-2.86.72-4.54-.19-.76-.15-1.78-1.19-1.89a2.27,2.27,0,0,0-2.61,1.57c-.51.45-1.41.47-1.51,1.37-.25.09-.7,0-.52.5l0,0c-1.56,0-1.71,1.34-2,2.28-1.19,3.77-.16,7.19,2,10.36,2.82,3.1,6.41,4.16,10.48,4h1.83c2,1.53,4.37,1.43,6.68,1.65,1.43.35,2.33,1.43,3.35,2.37,1.59,3.11,1.62,6.48,1.64,9.85-.83,1-.54,2.29-1,3.38a11.16,11.16,0,0,1-1.15,2.09c-1.05,1.22-1.91,3-4.09,1.91-.13-.26-.27-.52-.64-.37v0c.19-.5-.1-.79-.47-1l-.82-2.48c.19-1.4-.18-3,1.23-4,.27,0,.5-.09.51-.43a.35.35,0,0,0,.14-.37.4.4,0,0,0,.35-.09c.94-1.12,1.25-2.53,0-3.3s-3.06-.54-4.52-.08a2.68,2.68,0,0,0-1.87,3c.31,2.48-.94,3.09-3.05,2.91a5.27,5.27,0,0,0-4.93,0c-1.21,0-1.62,1-2.16,1.84-1.18.15-1.15,1-.94,1.82.33,1.23,1.39,1.43,2.49,1.45,1.87.67,3.65-.34,5.49-.29a5.85,5.85,0,0,1,3,2.1c.87.31.85,1.34,1.47,1.85.36,2.58,1.71,4.74,2.94,7,1,1.75,1.55,3.78,3.49,4.84l.09-.06c.81,1.74,2.33.71,3.53.91,1.47-.24,3.23,1,4.36-.91h2.07l4.59,1.38c.92.46,1.28,1.4,1.86,2.15l-.29,4.84a6.45,6.45,0,0,0,1.61,6.23c1,1.09,2.07,2.16,3.11,3.23,1.24,1.29,1.54,2.52-.2,3.64l-1.67,1.48-.39-.11-.44-.45c0-.67-.28-1.09-1-1v-.07c-.07-.4,0-.94-.22-1.19-3.24-3.57-6.31-7.47-12-6.77a10.29,10.29,0,0,1-2.22-.2c-.18-1.25-1.36-1.52-2.14-2.16.45-.94,0-1.91.09-2.87.1-1.81-.75-2.57-2.56-2.1a1.11,1.11,0,0,0-1.06.86c-2.07,2.5.06,4.37,1.13,6.33-1.43.55-2.83-.06-4,.63l-.94,0,0,0a.26.26,0,0,0-.06-.31c-1.78-2.28-4.43-2.6-7-3.11l-.61-.91c-.81-2.06-1.59-4.13-2.44-6.17-.28-.67-.58-1.42-1.5-1.48-.15-.48-.58-.4-.94-.46-.6-.81.63-1.78-.21-2.57.2-1.05.48-2.1.58-3.16.18-1.86-.23-3.49-2.17-4.3s-3.41,0-4.78,1.14a4.27,4.27,0,0,0-1.33,4.51c0,1.76,1.85,3.51,1.24,4.75s-2.8,1.76-4.29,2.6l-1.15.55c-.82.1-1.62.69-2.46.06h0c-.88-2.6-1.93-5-4.51-6.54a13.92,13.92,0,0,1-5.42-5c-.76-3.09-.46-5.82,2.5-7.71a1.76,1.76,0,0,0,.78-.93c.26-1.26.82-2.76-.57-3.58s-2.1.38-2.77,1.35a9.29,9.29,0,0,0-.63,1.3c-3,.52-6.17-1.48-9,1.2-1.4,1.31-2.92,2.3-2.34,4.39s2.42,1.48,3.93,1.45l.49.1c.72.62.08,2.61,1.8,2.09s1.69.78,2.19,1.62l0,.17c-.45,3.74.58,6.58,4.28,8.36,1.58.76,3.38.71,4.81,1.74.44.37.91.71.93,1.36-4.42.09-8,1.54-9,6.33a9.2,9.2,0,0,1-3.18,4.87c-.73.69-1.78,1.13-1.41,2.32a2.65,2.65,0,0,0,2.69,2.09l.19,0,.17-.08c1.7.76,2.33-.95,3.46-1.5,1.43,0,2.24.4,2.19,2.11a3.27,3.27,0,0,0,1.92,3c.8.4,1.42-.06,1.7-.91,1.13-1.14.38-3.31,2.08-4.07,2.53-1.13,4.6-2.94,6.92-4.36,3.44-2.1,6.52-5,10.87-5.13,1.68.49,2.3,2.09,3.33,3.25-.7,2.6.74,5.14,3.52,6.23,0,1.76-.81,2.71-2.71,2.64a6,6,0,0,0-1.84.55c-2.8.81-3,3.5-4,5.59a3.22,3.22,0,0,0,3.81,4.46,7.45,7.45,0,0,0,4-1.62l.72,1.6a1.4,1.4,0,0,0,1.52.58,1.27,1.27,0,0,0,1.3-.41c1.55-1.7,1.93-3.44.52-5.5a3.26,3.26,0,0,1,0-3.49c.35-.63.94-1.17.71-2,2.16-.13,2.34-2.28,3.49-3.44l4.45.06c5.1,1.24,10.08,2.73,14.09,6.38l3.31,4.08c-.5,5.6-.26,6,4.72,7.64,5.6,1.48,10.85,1,15.54-2.72,1.68-.69,1.44-2.06,1.21-3.43a16,16,0,0,0,1.25-7.57l.49-.37c.75-.31,1.58.65,2.31-.12,1.7,0,2.87-1,4.1-2,2.44-1.94,4.11-4.53,6-7l.6-.19c3.1.54,6.05-.14,9-1,3.25-.57,5.12-2.93,6.71-5.46,1.06-1.68.32-3-1.67-3.45-3.77-.78-7.42-.68-10.63,1.84-.54.43-1,.9-1.67.15-.34-1.19.53-2,.84-3.06l3.94-3.76h-.06l.8-.52c2.66-1.66,4.72-4.4,8.2-4.58l1.52-.07,5.48.6c5.61,1.13,11.15,3,17,1.47,9-1.11,15.76-5.84,21.11-12.83a8.64,8.64,0,0,0,2-6.47c-.21-1.75-.55-3.09-2.35-3.64-2.24-.69-4.37-.75-6.32.87-1.57,1.3-1.66,3-1.38,4.77.08.52.52-.13.8,0l-.07,2.38c-2.13,1.21-3,3.66-4.83,5.12a3.23,3.23,0,0,0-2.38.16c-3.27,1-6.56,1.53-10,.55-4.29-1.24-8.75-1-13.15-1.27a2.64,2.64,0,0,1-2,.38c-.08-.2-.05-.39-.43-.43-3.21-.33-6.33.49-9.49.74l-.06-1.62a7.87,7.87,0,0,0,3-5,1.13,1.13,0,0,0,.85-.9c2.18-1.61,4.63-2.83,6.6-4.73l.62-.7c.55.08.59-.33.68-.7a3.45,3.45,0,0,0,2.21-2.35c2.78,1.5,5.1-.15,7.54-1.07,1.7-.06,3.39-.08,5.09-.2.82-.06,1.87.28,2.22-.95,2.32-.22,4.63-.45,6.16-2.56,2.24-.09,2.79-2.16,4-3.44l0,0a1,1,0,0,0,.64-1l-.06.08c.39,0,.51-.25.48-.6v0a2.6,2.6,0,0,0,1.45-2.16,25.58,25.58,0,0,0-.15-6.9,7.15,7.15,0,0,0-1.17-3.56,7.5,7.5,0,0,0-3.64-3.92c-1-.35-2-.39-2.62.57a2.39,2.39,0,0,0,.51,3.09,21.68,21.68,0,0,1,1.11,5.35l-.15.89-.19.11c-1.85,2-4.09,3.69-5.66,6l0,0c-2.7,1.26-5.25,3-8.47,2.55a17.64,17.64,0,0,1,1.92-6.34c2.14-4.87-.24-9-5.23-9a29.36,29.36,0,0,0-3.67.42,3.93,3.93,0,0,0-2.59,1.77c-.9,1.38-2,3.14-.18,4.46,3,2.12,4,4.67,2.7,8.11-.72,1.33-1.74,2.52-1.95,4.1-2.06,1.52-4,3.14-4.57,5.8l-.74.85-1.27,1.25a31.53,31.53,0,0,0-8.5,8.54c-1.43.9-1.93,2.4-2.49,3.86-.93,1.52-1.91,3-1.43,4.94l-.46.85c-1.67,1.56-3.3,3.14-4,5.39a26.18,26.18,0,0,0-1.61,2.73c-.55,1.25-1.16.66-1.83.2l.48-3.66a.28.28,0,0,0,0-.37c1.56-1.88,1.45-3.75-.46-5a6.36,6.36,0,0,0-6.4-.34c-2.21,1.08-2.62,3.36-2.21,5.59a8.07,8.07,0,0,0,2.51,4.34v-.05l0,.09,1,1.47,3,4.46h0l.44.36.07.8-.68,1.18-.39.26-1.26,1.44c-1.91.53-2.94,2.24-4.41,3.35-4.77,3.59-4.73,3.64-10,.74a3.29,3.29,0,0,0-.71-.21l-.95-.54-.63-.4c-4.91-2-7.76-5.31-6.53-11l.6-2.43,0,0c2.46-1.32,3.09-4.16,5-6,1.77-.3,3.1,1.91,5,.86a.83.83,0,0,0,1.13-.24h.19a2.42,2.42,0,0,0,1.63-3.14,1.87,1.87,0,0,0-2.38-1.56l-1.06-.68a.51.51,0,0,0,0-.31c2.15-.85,4.15-2.09,6.45-2.59a25,25,0,0,0,9.13-1.09c.67.12.86-.29.93-.84.54.13,1,.13,1.3-.47,1.19.34,2.07-.31,2.9-1a42.39,42.39,0,0,0,8-8.34Z" transform="translate(-1051.45 -371.86)"/><path class="cls-2" d="M1189,444.52l.06,1.62c3.36,1.51,6.64.65,9.92-.31a2.64,2.64,0,0,0,2-.38c3.12,1.58,6.61,1.28,9.92,1.92,2.91.56,5.66,1.65,8.56,2.18-.42,1.13-.1,2,1.07,2.29a1.76,1.76,0,0,1,1.52,1.68,11.09,11.09,0,0,0-4.57,1.46l-1,.16a.83.83,0,0,0-1,.24l-5-.06a2.21,2.21,0,0,0-2.07-2.09c-2.78-.21-5.6-.8-8.38.08a1.36,1.36,0,0,1-.41,0l-.57-.25-1.53-.1-3.92,0c-2.45-.58-4.21.86-6.06,2.05-.21-1.24.66-1.92,1.32-2.76s2-1.71,1.2-2.58a3.38,3.38,0,0,0-3.92-.5,6.07,6.07,0,0,0-1.94,1.47,1.63,1.63,0,0,1-2,.53,5.52,5.52,0,0,0,1.34-3.73,26.55,26.55,0,0,0,3.12-4.9l4.38-4.64a1,1,0,0,0,1-.91l.08-.07a.84.84,0,0,1,.89.47l-.11,1.16a1.13,1.13,0,0,1-.84.9C1190.47,440.82,1188.37,441.84,1189,444.52Z" transform="translate(-1051.45 -371.86)"/><path class="cls-3" d="M1120.77,399.39a.17.17,0,0,1,.27,0c.06.51.26.89.87.82l.1.63v0c-.52.35-.5.67,0,1l0-.07c-1.35,1.14.22,1.9.37,2.85-1.59.86-.56,1.59.11,2.33-1,2.68-2.26,5.32-1.68,8.33l.75.71,0,0,1.24,1.18a16,16,0,0,1,5.79,3.61c-2,.18-3.19.8-2,3.07a4.85,4.85,0,0,1,.23,1.64l-2.43-.81c-.06-.75.27-1.7-1-1.82.17-1.89-2.4-1.49-2.57-3.1,0-.33,0-.67,0-1,0-.61.34-1.52-.58-1.64-.71-.1-1.11.62-1.32,1.28a6.59,6.59,0,0,0-.15,1c-1.13,0-2.24,0-3-1.08a1.53,1.53,0,0,0,0-1.89l0-.54a3.33,3.33,0,0,0,1-3h0c1.24-2-.06-2.05-1.52-2a1.77,1.77,0,0,0-1,2,2.53,2.53,0,0,0-.44.06l-.58-.59,0-.91c2.5-2.14,2.5-6.87,0-10.57-.2-.63.21-1.09.44-1.6l3.08-.79,1.34.14A2.54,2.54,0,0,0,1120.77,399.39Z" transform="translate(-1051.45 -371.86)"/><path class="cls-4" d="M1133,446.53c-.65,1-1.31,2-.72,3.2.52.93.22,2.8,1.44,2.75,2.65-.1,3.75,1.86,5.34,3.21l-1,1.73c-.47-.57-.51-2-1.82-.92-1,.85-.3,1.32.39,1.82a2.21,2.21,0,0,1,.41.59l-.56,0c-.71.06-1.54-.35-2,.54h-2.07c-1.76-.46-3.69.59-5.37-.6,1-1.14-.82-2.31,0-3.45l1.07-.54c1.92-.3,1.35-1.81,1.45-3,.3-.79,1.07-1.75,0-2.31s-1.3.9-2,1.33c-2.09-.68.49-1.87-.52-2.89-1.31.76-2.5.58-2.94-1.25,1.78,0,3.61-2.12,4.11-4.68,1.67-1,1.35-2.66,1.36-4.21l.48-1.48c1.22.31,1.91-1,3-1,.52.72,1.29.41,2,.48a8.17,8.17,0,0,0-.53,3,15.08,15.08,0,0,0-.51,1.79C1133.62,442.65,1132,444.39,1133,446.53Z" transform="translate(-1051.45 -371.86)"/><path class="cls-2" d="M1178,473.7l-.6.19,0,0,0-1c2.17-5.26,1.06-5.71-2.46-6l0,0c.72-1.24.53-2.6.5-3.94,1.25-1.46,1.74-3.31,2.55-5a2.33,2.33,0,0,1,.42-.07c.19,1.45,1.17,1.67,2.35,1.45.88-.16,1.14-.82,1.17-1.65.06-1.46-.83-1.83-2-1.88.68-1.11,1.13-2.41,2.41-3,.83,1,2.86-.81,2.8.62s1,1.4,1.46,2.05c-1.26.77-1.58,2.34-2.72,3.22-1.31.93-2.89,1.54-3.58,3.16-1.1,1.16-2.64,2.18-1.38,4.13.3,2.38,1.77,1,2.87.91,2.57,0,4.56-2,7.14-2.07l.07.55a8.82,8.82,0,0,1-3.27,2.88,2.87,2.87,0,0,0-1.76,3.17l-1.51,1.1-1.23-.06a1.39,1.39,0,0,0-1.3.43Z" transform="translate(-1051.45 -371.86)"/><path class="cls-3" d="M1105.48,406.89c.1-.9,1-.92,1.51-1.37,1,0,2.05-.46,2.9.46a2.25,2.25,0,0,1-.58,2.28c-1,.89-.55,1.7-.21,2.59q0,.47,0,.94c-1.4.13-1-1-1.18-1.7a1,1,0,0,0-1.17-.63,2,2,0,0,0-1.63,1.34c-.17.4-.05,1,.41,1,2.32.12,2.53,2.21,3.47,3.6-.67.1-1.4.27-1.27,1.12s1,1.13,1.65,1.21a7.59,7.59,0,0,0,2.12-.34c.16.2.26.62.62.19l-.63-.17v-.5l1.51-1c.52,0,1.08-.08,1.48.39-1.24.25-.94,1.23-1,2,1.38,2.5,4.12,2.84,6.37,3.92.82.4,1.74.39,1.66,1.61l-1.2.08c-1,.09-2.05-.45-3.07,0h-1.83l-2.4-1c.09-.88,0-1.69-1.08-1.85-.91-.14-1.32.44-1.45,1.27-2.4-.82-4.66-1.81-5.45-4.55q0-.17-.05-.35c-.08-2.39-1.57-4.58-1-7.07-.2-1.17,1.42-1.75,1-3l0,0Z" transform="translate(-1051.45 -371.86)"/><path class="cls-5" d="M1224.18,413.94l.19-.11c.8.27.85,1.88,2.06,1.31s1.79.44,2.63.82l0,4.5v0l-.48.6.06-.08a1.07,1.07,0,0,0-.64,1l0,0c-2,.19-2.62,2.1-4,3.08-1.59.49-2.11-1.51-3.49-1.51-.2-1.59-2.38-.72-2.7-2.16l.64-1.41,0,0C1220.51,418,1224.3,417.83,1224.18,413.94Z" transform="translate(-1051.45 -371.86)"/><path class="cls-4" d="M1124.47,479l-4.45-.06c-.56.08-1.49.4-1.61.2-1.43-2.24-3.62-.8-5.4-1.22-1.48-.51-3-.94-3.08-2.95l.14-.11a8.25,8.25,0,0,1,2.64-.24c1.66.4,2-.53,2.31-1.76l2,.53.57-.12,0,0c.83.9,5.92,1.64,6.86,1,.35-.23.32-.49.29-.83s-.9-1-.05-1.46,1.26.54,1.84.92v.83l-.07,1.15a11.47,11.47,0,0,0-1.44,3.54Z" transform="translate(-1051.45 -371.86)"/><path class="cls-3" d="M1087,465.79c0-.65-.49-1-.93-1.36,0-1.36-1-1.34-2-1.71-2.26-.89-5-1.63-5.68-4.22a17.21,17.21,0,0,0-1.42-4.16l0-.17.15-1.22,2.27-1,.59,1.07a6.24,6.24,0,0,0,3,4.38c2.59,1.44,5.08,2.95,6.26,5.9.21.52.38,1.38,1.35,1.12h0l-.12,1.42-.4.88,0,.23h-1.49A1.85,1.85,0,0,0,1087,465.79Z" transform="translate(-1051.45 -371.86)"/><path class="cls-4" d="M1149.82,449.89l.3-1.4c1.49,0,2-1.54,3.11-2.1l1.74.11c.57.87.84,2,1.93,2.42l.14.53a.53.53,0,0,1,0,.31c-2.55-.55-3.37,1.17-4,3.08v.05l-.47.55a1.14,1.14,0,0,0-.12.3,11.06,11.06,0,0,0-4.83,6.73l0,0h-1l-3.29-.14c.57-2.65,2.8-4.41,3.72-6.87a1.08,1.08,0,0,0,.49-1C1148.68,451.94,1148.6,450.33,1149.82,449.89Z" transform="translate(-1051.45 -371.86)"/><path class="cls-5" d="M1200.12,433.15l-.62.7-1.49,0-1.52-1,0-1.18c.59-2.67,2.52-4.29,4.57-5.8l1.41-.56c2.37-.14,4.5-1.91,7-1-.1.94,0,1.79,1,2.18,0,.51,0,1.05.54,1.34l-.5.53a36.09,36.09,0,0,1-3.7,1.23c-1,.22-2.29.91-2.81-.79a2.7,2.7,0,0,0,1.85-.44c.56-.38,1.14-.73,1-1.51s-.81-1-1.5-.94a1.55,1.55,0,0,0-1.57,1.25,4.72,4.72,0,0,0,.25,1.64l-1,1.22a3.45,3.45,0,0,1-2.2,2.35Z" transform="translate(-1051.45 -371.86)"/><path class="cls-3" d="M1151.87,418.42c-.88,1.81-2.72,3-3.36,4.95-1.29,1.12-2.85,2.1-2.09,4.24,0,.05-.23.2-.35.3-.48-.2-.54-.64-.58-1.08-.92-1.68-2-1.11-2.82,0-.38.48-.37,1.32-1.15,1.47s-1.85.4-1.35,1.51c.57,1.27,1.5.42,2.29.06a1.14,1.14,0,0,0,1,.54c-2.12.71-4.16,1.72-6.43,1.91,0-1.82-.82-3.55-.59-5.39,3.22,0,5.45-1.9,7.43-4.1.51-.57,1.21-.81,1.65-1.38,1.86-.67,2.14-2.33,2.49-3.95v-.07a1,1,0,0,0,.48-1l.4-.49.56,0C1149.06,419,1149.27,419.25,1151.87,418.42Z" transform="translate(-1051.45 -371.86)"/><path class="cls-6" d="M1217.49,455a11.09,11.09,0,0,1,4.57-1.46,5.41,5.41,0,0,0,3-.93c1.89-.31,3.22-1.62,4.72-2.62a15.35,15.35,0,0,0,6.69-7c1.39-.35,1.5-1.46,1.57-2.6.95,0,1.3-.58,1.5-1.36.84-3.31-.12-4.78-3.59-5.48-3,.06-3.65.56-3.9,3.43-.06.65-.47,1-.65,1.57-.28-.1-.72.56-.8,0-.27-1.77-.19-3.46,1.38-4.77,2-1.62,4.09-1.55,6.32-.87,1.8.55,2.14,1.89,2.35,3.64a8.64,8.64,0,0,1-2,6.47c-5.35,7-12.15,11.72-21.11,12.83Z" transform="translate(-1051.45 -371.86)"/><path class="cls-2" d="M1169,462.44l-1-1.47,0-.09v.05a3.51,3.51,0,0,0-.52-2.54l0-5.7c1.58-2,3.54-.72,5.21-.38,2,.4,2.06,2.29,1.91,4a.29.29,0,0,1,0,.37c-1.76.83-1.92,2.13-1.11,3.73-1.63-.28-2.06,1.24-3,2Z" transform="translate(-1051.45 -371.86)"/><path class="cls-7" d="M1156.91,448.92c-1.09-.45-1.36-1.55-1.93-2.42,1.82-2.2,4.51-2.7,7-3.56a11.67,11.67,0,0,0,5-.73c.46-1.2,1.94-.32,2.54-1.25a.52.52,0,0,1,.45,0l1,.41c-.8,2.4,2,2.16,2.59,3.58-.07.55-.26,1-.93.84a1.73,1.73,0,0,0-2.14-.83c-2.43,1.24-5.18.54-7.65,1.39A8.59,8.59,0,0,0,1156.91,448.92Z" transform="translate(-1051.45 -371.86)"/><path class="cls-2" d="M1170.17,470.93l1.26-1.43.4-.27.68-1.18,2.49-1.14,0,0c-.27,1.31.41,2.74-.47,4-1.88-.25-2.66.86-3,2.47-1.38.58-.62,1.66-.59,2.56a8,8,0,0,0-5.08,3,1.54,1.54,0,0,0-.11,2.06c.79.67,1-.43,1.38-.84s1-.83,1.5-1.24l.38-.48,1,0,0,1.44a7.89,7.89,0,0,0-2.64,3c-.73.77-1.55-.19-2.31.12-.14-.28,0-1.11-.69-.41-1,0-1.23-1.41-2.32-1.15l-.53-1c.32-2.3,2.08-3.37,3.8-4.49,1.53-.23,3.78.45,3.16-2.5h0l.5-.5h0l.5-.49h0l.51-.55Z" transform="translate(-1051.45 -371.86)"/><path class="cls-3" d="M1117.94,447.73c-.62-.51-.6-1.54-1.47-1.85.37-2.32-1.34-2.59-2.94-3v-.15c1.87-1.31-.56-1.9-.49-2.91h1.46l.05.16a1.84,1.84,0,0,0,2.61.29,1.83,1.83,0,0,1,2.27.08,2,2,0,0,1,.42.18l.11.74a2.26,2.26,0,0,0,1.49,3.2l.59.36v0l-.08.68c-.49,1.38-2,2.89.6,3.85.57.21.52,1,.1,1.51a3.53,3.53,0,0,0-.69,2.54,2.75,2.75,0,0,0-.46,0c-.46-.76-.9-1.55-1.39-2.29C1119.38,450,1119.51,448.33,1117.94,447.73Z" transform="translate(-1051.45 -371.86)"/><path class="cls-4" d="M1173.55,444.94c-.55-1.41-3.39-1.18-2.59-3.58,2.81-2.05,6.12-3.38,8.56-6l-.06-.54h0l.6.27c.08,1.25,1.79,1.77,1.46,3.21-1.7,2.62-4.51,4-6.68,6.13C1174.57,445.07,1174.08,445.06,1173.55,444.94Z" transform="translate(-1051.45 -371.86)"/><path class="cls-8" d="M1148.94,398.85l1-2.33c.63-.15.91-.7,1.29-1.14.91-.07.61-1.17,1.26-1.47h.46c.6.77.91,1.82,2,2.09v.93l-1,2c-.44.57-1.45.58-1.5,1.53l0,0a1.23,1.23,0,0,0-1.47,1.48,2.53,2.53,0,0,0,2.5,2.47l0,0c-.2.95.43,1.45,1,2l-.58.1c-1.62-.22-3,.75-4.5,1l-1.62-1.84c1.95-.36,3.48-.86,1.65-3.23a10.44,10.44,0,0,1-1.05-2.48Z" transform="translate(-1051.45 -371.86)"/><path class="cls-8" d="M1229.06,416c-.84-.37-1.41-1.38-2.63-.82s-1.26-1-2.06-1.31l.15-.89h.5l.2-.47c.77-2.3-.39-4.07-1.62-5.81A1.84,1.84,0,0,1,1224,405c2.64-.75,2.85,2.05,4.35,3a17.53,17.53,0,0,1,1.13,7.46Z" transform="translate(-1051.45 -371.86)"/><path class="cls-9" d="M1181.93,411.92l1.17,1.45c-1,.27-2,.33-2.75,1.22-.39-.79-.65-1.75-1.87-1.53s-1.56,1-1.75,2c-.15.85.07,1.85-.77,2.49-1.13-.5-.79-2.11-1.95-2.6.3-1.27-.62-1.93-1.36-2.67a1.85,1.85,0,0,1-.51-2c.31-.94,1-.51,1.63-.46s1.14-.08,1.23-.83c.68-.11.76.49,1,.88C1177.58,411.74,1179.67,412.06,1181.93,411.92Z" transform="translate(-1051.45 -371.86)"/><path class="cls-10" d="M1231.39,438.5c.18-.54.59-.92.65-1.57.26-2.87.88-3.37,3.9-3.43,1.74,1.73,3.73,3.38,2,6.23-1.41-.21-.63-1.66-1.22-2.26-1.39.34-1.35,2.07-2.61,2.5-1.19-.47-1.76,1-2.82.9h0Z" transform="translate(-1051.45 -371.86)"/><path class="cls-6" d="M1219.46,449.55c-2.9-.53-5.65-1.62-8.56-2.18-3.31-.63-6.8-.34-9.92-1.92,4.39.32,8.85,0,13.15,1.27,3.41,1,6.7.4,10-.55a3.23,3.23,0,0,1,2.38-.16.76.76,0,0,0,0,.27c-.34.33-.84.55-.88,1.12C1223.32,447.44,1221.12,447.73,1219.46,449.55Z" transform="translate(-1051.45 -371.86)"/><path class="cls-11" d="M1105.63,470.47c-4.35.17-7.43,3-10.87,5.13-2.33,1.42-4.4,3.23-6.92,4.36-1.71.76-.95,2.93-2.08,4.07l-.86-.18c1.14-2.14.73-5.35,4.13-5.91h0a4,4,0,0,0,3-2l0,0,.68-.49,1.36-1.14.5-.4,0,0c.4-.06.84-.05,1-.53l0,0,.59-.51h.21l.21,0a.91.91,0,0,0,1-.49l0,0a11.19,11.19,0,0,1,7.45-2.74Z" transform="translate(-1051.45 -371.86)"/><path class="cls-3" d="M1076.48,481.35l-.17.08-.19,0c-.06-1.19-2.77-1.74-1.32-2.88,1.92-1.5,2.74-3.77,4.58-5.21,1.71.69,3.7,1.1,3.63,3.59A8.87,8.87,0,0,0,1076.48,481.35Z" transform="translate(-1051.45 -371.86)"/><path class="cls-9" d="M1190.32,415c-.94.62-1,2-2.17,2.43-1.49.4-1.83-1.58-3.16-1.53h0c.2-1-.56-1.7-1-2.5a10.39,10.39,0,0,1,1.93-3.09l.28,1.13a3.86,3.86,0,0,0,.65-.91,4.52,4.52,0,0,0,.1-1.18h0l1.5,0a6.42,6.42,0,0,1,0,2.38c-.85,2,.57,1.67,1.62,1.8l.88.43q.19.09.1.23l-.71.86Z" transform="translate(-1051.45 -371.86)"/><path class="cls-6" d="M1181.82,466.87c-1.09.13-2.57,1.48-2.87-.91l.82-.18c.63.75,1.13.28,1.67-.15,3.21-2.52,6.86-2.62,10.63-1.84,2,.41,2.73,1.76,1.67,3.45-1.59,2.53-3.46,4.89-6.71,5.46q0-.41,0-.82a5.86,5.86,0,0,0,3.09-2l.83-.78a4.71,4.71,0,0,0,1.73-2c.4-.87.94-1.85-.62-2.19a4.68,4.68,0,0,0-3.1-.37A8,8,0,0,0,1181.82,466.87Z" transform="translate(-1051.45 -371.86)"/><path class="cls-5" d="M1186.63,455.44c-.48-.65-1.53-.54-1.46-2.05s-2,.34-2.8-.62l-.82-.75.46-.85h.2a1.63,1.63,0,0,0,2-.53,6.07,6.07,0,0,1,1.94-1.47,3.38,3.38,0,0,1,3.92.5c.81.87-.61,1.81-1.2,2.58s-1.53,1.52-1.32,2.76Z" transform="translate(-1051.45 -371.86)"/><path class="cls-6" d="M1079.39,473.31c-1.84,1.44-2.67,3.71-4.58,5.21-1.45,1.14,1.26,1.69,1.32,2.88a2.65,2.65,0,0,1-2.69-2.09c-.37-1.19.68-1.63,1.41-2.32a9.2,9.2,0,0,0,3.18-4.87c1-4.79,4.54-6.24,9-6.33a1.85,1.85,0,0,1,1.5,1.12,21.31,21.31,0,0,1-3.17.11c-2.46-.27-4.23.56-5.19,2.9-.4.8-1.48,1.41-.75,2.55Z" transform="translate(-1051.45 -371.86)"/><path class="cls-6" d="M1167.5,458.38a3.51,3.51,0,0,1,.52,2.54,8.07,8.07,0,0,1-2.51-4.34c-.42-2.22,0-4.5,2.21-5.59a6.36,6.36,0,0,1,6.4.34c1.91,1.23,2,3.1.46,5,.16-1.73.11-3.62-1.9-4-1.66-.33-3.63-1.62-5.21.38A4.13,4.13,0,0,0,1167.5,458.38Z" transform="translate(-1051.45 -371.86)"/><path class="cls-6" d="M1112.46,493.18l-.72-1.6a7.45,7.45,0,0,1-4,1.62,3.22,3.22,0,0,1-3.81-4.46c1-2.09,1.22-4.78,4-5.59l.09.79c-.35.68-1.18,1.12-1,2.05l-.55.82-.48.59h0c-1.21,1.16-1.76,2.47-.37,3.79a2.17,2.17,0,0,0,3.57-.26h.13l.12,0a1.06,1.06,0,0,0,1.18-.45C1112.77,490.3,1112.5,491.82,1112.46,493.18Z" transform="translate(-1051.45 -371.86)"/><path class="cls-8" d="M1105.63,470.47l-.68-.78a1.8,1.8,0,0,1,0-.28c.32-1.1,1.4-1.81,1.52-3h1c.83.83,1.27,2.06,2.5,2.51l.61.91,2.06,2c-1.55.38-2.68,1.14-2.57,3l-.14.11c-.39-.36-.33-1.07-1-1.23C1107.93,472.56,1107.31,471,1105.63,470.47Z" transform="translate(-1051.45 -371.86)"/><path class="cls-9" d="M1113,439.86c-.06,1,2.36,1.6.49,2.91a21.52,21.52,0,0,1-5.48.56l-1.62-2.52c.54-.82.95-1.8,2.16-1.84C1109.95,439.88,1111.64,439.13,1113,439.86Z" transform="translate(-1051.45 -371.86)"/><path class="cls-6" d="M1203,407.5a29.36,29.36,0,0,1,3.67-.42c5,0,7.38,4.15,5.23,9a17.64,17.64,0,0,0-1.92,6.34,1.27,1.27,0,0,1-1.09-.57c0-2.5,1.89-4.47,2-7,.16-1.73,1.84-3.58-.4-5.13a.67.67,0,0,0-.11-.36,6.09,6.09,0,0,0-5.35-1.29l-2,0Z" transform="translate(-1051.45 -371.86)"/><path class="cls-6" d="M1177.5,425.43c-4.76.46-9.25.1-12.86-3.65-1.28-1.33-2.18-2.47-1-4.31s2.66-2,4.46-1.12l-.08.09c-.68,0-1.41-.2-2,.39-2.31,2.07-2.24,3.09.31,4.76.4.27.79.56,1.18.84.37.82,1.15.91,1.9,1,1.23,1.11,2.69,1.05,4.18.81l1.44.59c.16.38.32.36.47,0l2-.06Z" transform="translate(-1051.45 -371.86)"/><path class="cls-6" d="M1145,404c-.39.91-1.2.54-1.7.35a15.53,15.53,0,0,0-5.53-1,2.79,2.79,0,0,1-2.92-2.19,3,3,0,0,1,1.26-3.45,9.68,9.68,0,0,1,5.87-2.26l-.41,1a1.05,1.05,0,0,0-.15.41L1140,397a5.64,5.64,0,0,0-3,1.56,1.81,1.81,0,0,0-1.08,2.38c.33,1.27,1.32,1.5,2.47,1.38l3.37.61C1142.71,403.71,1144.17,403,1145,404Z" transform="translate(-1051.45 -371.86)"/><path class="cls-11" d="M1079.95,453l-.59-1.07c0-.84.3-1.79-.76-2.28v-.07c.5-.23.5-.68.49-1.14l.35-1a21.23,21.23,0,0,1,3-3.11,1.39,1.39,0,0,0,.34-2.16c-.61-.59-1.15.1-1.55.65s-.64.77-1.23.59l-.07-.08a9.29,9.29,0,0,1,.63-1.3c.67-1,1.48-2.11,2.77-1.35s.84,2.32.57,3.58a1.76,1.76,0,0,1-.78.93c-3,1.89-3.26,4.63-2.5,7.71Z" transform="translate(-1051.45 -371.86)"/><path class="cls-4" d="M1142.59,481.87l.44.45.34.59.12.54c-1.35,1.7-2.78,2.95-4.85,1l-1.2-1.42.07-1.53a1.82,1.82,0,0,0,1-2l.66-.06c.74.59,1.36,1.37,2.4,1.45v.07C1141.51,481.61,1141.9,481.9,1142.59,481.87Z" transform="translate(-1051.45 -371.86)"/><path class="cls-6" d="M1170.17,470.93l-.16.93-.51.55h0l-.5.49h0l-.5.5h0l-3.16,2.5c-1.72,1.11-3.48,2.19-3.8,4.49l-.44,0c-.94-2.29-3.41-2.63-5.08-4l-1.12-.88.09-.64.1-.11a3.3,3.3,0,0,1,.71.21c5.24,2.89,5.21,2.85,10-.74C1167.23,473.17,1168.27,471.47,1170.17,470.93Z" transform="translate(-1051.45 -371.86)"/><path class="cls-12" d="M1176,417.59c.84-.64.62-1.65.77-2.49.19-1.08.62-1.83,1.75-2s1.48.73,1.88,1.52l1.38,1.9-1.38,1.9h-1.85l-1-.21-1.09-.29Z" transform="translate(-1051.45 -371.86)"/><path class="cls-6" d="M1153.24,446.39c-1.13.56-1.62,2.08-3.11,2.1a13.14,13.14,0,0,1,8-6.21c1.38-.45,2-.87,1.58-2.53a3.14,3.14,0,0,1,1.73-3.92l.57.54c-2,1.37-1.44,3.2-.87,5-.29.76-1.08,1-1.6,1.5A11.73,11.73,0,0,0,1153.24,446.39Z" transform="translate(-1051.45 -371.86)"/><path class="cls-6" d="M1162.13,494.36c-4.7,3.68-9.95,4.2-15.54,2.72l1.18-.44c1.8.47,3.55-.29,5.33-.25l4.32-.63C1159,495.31,1160.24,493.73,1162.13,494.36Z" transform="translate(-1051.45 -371.86)"/><path class="cls-6" d="M1079.95,453l.66-.11a13.92,13.92,0,0,0,5.42,5c2.57,1.54,3.62,3.93,4.51,6.54-1,.26-1.14-.6-1.35-1.12-1.18-3-3.67-4.46-6.26-5.9A6.24,6.24,0,0,1,1079.95,453Z" transform="translate(-1051.45 -371.86)"/><path class="cls-11" d="M1072.47,450.35c-1.51,0-3.34.66-3.93-1.45s.94-3.08,2.34-4.39c2.86-2.68,6.06-.68,9-1.2l.07.08c-.24,1.46-1.5,1.2-2.45,1.47h0c-1.52-1.53-3.12-1.65-4.67-.11a5.28,5.28,0,0,1-2.2,1.48c-.95.28-1.18,1-1.23,1.9-.07,1.14.72,1.33,1.54,1.51Z" transform="translate(-1051.45 -371.86)"/><path class="cls-13" d="M1109.11,411.8v-.94l1-.47c3.33.71,4,.16,4.18-3.13a10.35,10.35,0,0,0-1.74-6.32l1,0c2.5,3.7,2.5,8.42,0,10.57-1,0-1,.75-1,1.44l0,0Z" transform="translate(-1051.45 -371.86)"/><path class="cls-6" d="M1141.56,480.8c-1-.08-1.67-.86-2.4-1.45a6.88,6.88,0,0,0-6-4.45c-.17-.67-.71-.76-1.27-1-1.79-.67-3.59-.07-5.38-.17v-.83l.59-.29a10.29,10.29,0,0,0,2.22.2c5.68-.71,8.75,3.19,12,6.77C1141.57,479.86,1141.49,480.4,1141.56,480.8Z" transform="translate(-1051.45 -371.86)"/><path class="cls-11" d="M1151.25,395.38c-.38.44-.66,1-1.29,1.14,0-1.82.83-3.69-.44-5.44-.27-.37,0-.91.43-1.29,2.16-1.88,7.53-1,9.16,1.52l-1.58.08c-.95-1.83-2.64-.72-4-1-.4-.63-.82-.4-1.25,0l-.77.07c-2,.66-.42,1.48-.09,2.23a.14.14,0,0,0,0,.23Z" transform="translate(-1051.45 -371.86)"/><path class="cls-6" d="M1097.18,456.42a4.27,4.27,0,0,1,1.33-4.51c1.37-1.15,2.92-1.92,4.78-1.14s2.35,2.44,2.17,4.3c-.1,1.06-.38,2.11-.58,3.16l-.82.13-.1-1c.7-1-.16-2,.07-3h0c.77-.54.52-1.1,0-1.66a1.2,1.2,0,0,0-1-1c-3.43-.62-4.84.7-5,4.69Z" transform="translate(-1051.45 -371.86)"/><path class="cls-5" d="M1151.87,418.42c-2.6.83-2.81.61-2.39-2.5a4.77,4.77,0,0,1,1.06-3l2.41.5.64.71c-.07,1.06-1.22,1.72-1,2.87A1.68,1.68,0,0,1,1151.87,418.42Z" transform="translate(-1051.45 -371.86)"/><path class="cls-6" d="M1137.43,483l1.2,1.42-.08,1c-4-3.65-9-5.14-14.09-6.38l.55-.53a2.66,2.66,0,0,1,2.46.2A33.36,33.36,0,0,1,1137.43,483Z" transform="translate(-1051.45 -371.86)"/><path class="cls-13" d="M1203,407.5c0,.2,0,.4,0,.6l-1.63,1.69c-1.76,1.22-1.55,2.43,0,3.62l.06.05,1,.66.87.83a2.1,2.1,0,0,0,1,1.5c.55,1.53-.29,2.93-.41,4.4a1,1,0,0,0-.44,1l0,0-.52-.08c1.29-3.43.29-6-2.7-8.11-1.86-1.32-.72-3.07.18-4.46A3.93,3.93,0,0,1,1203,407.5Z" transform="translate(-1051.45 -371.86)"/><path class="cls-13" d="M1167.38,482.87a7.89,7.89,0,0,1,2.64-3c2.35-.44,3.43-2.42,4.73-4.06.74-.94,1.39-1.86,2.73-1.84l0,0c-1.86,2.43-3.52,5-6,7C1170.25,481.83,1169.08,482.88,1167.38,482.87Z" transform="translate(-1051.45 -371.86)"/><path class="cls-3" d="M1145,404c-.85-1-2.3-.29-3.23-1.09-.16-1.83,2.22-1.15,2.51-2.54l1.72-1,0,0c.17.44.54.52.95.54l.08,0c-.31,1.52,1.29,3.1-.12,4.59Z" transform="translate(-1051.45 -371.86)"/><path class="cls-6" d="M1145.09,481c1.74-1.12,1.44-2.36.2-3.64-1-1.08-2.08-2.15-3.11-3.23a6.45,6.45,0,0,1-1.61-6.23c.9.61-.15,2.28,1.38,2.56a5.55,5.55,0,0,0,2.62,4.47l2,2h0l0,3.23-1.45.8Z" transform="translate(-1051.45 -371.86)"/><path class="cls-9" d="M1153.59,414.09l-.64-.71c1.5-2.67,1.43-2.81-1.44-3,.36-1.62,1.83-2.54,2.49-4l.58-.1.06,0,.9,1C1156,409.92,1156.18,412.41,1153.59,414.09Z" transform="translate(-1051.45 -371.86)"/><path class="cls-13" d="M1147,462.88c-1.23,5.69,1.62,9,6.53,11l-.08.67a11.73,11.73,0,0,1-7.24-5.18l-.33-5.91.15-.54h0l.38-.08Z" transform="translate(-1051.45 -371.86)"/><path class="cls-11" d="M1217.49,455v.87c-5.84,1.57-11.38-.34-17-1.47.23-.42.64-.46,1.05-.5l8.89,1.44,5,.06,1-.24Z" transform="translate(-1051.45 -371.86)"/><path class="cls-8" d="M1138.56,485.36l.08-1c2.07,2,3.5.74,4.85-1l1-.07a1.41,1.41,0,0,0,.45-.06l0,1.6c-1.91.47-.86,2.69-2.1,3.56-.65,0-.89.42-1,1Z" transform="translate(-1051.45 -371.86)"/><path class="cls-13" d="M1177.5,425.43l0-.63,1-.36c1.45-.09,2.54.27,2.55,2a2.85,2.85,0,0,0,1,2h0a8,8,0,0,0,.46,3.13l-.14,1.53-2.24,2-.6-.27c2.18-2.4,2-4.88.59-7.64C1179.43,426,1178.81,425.38,1177.5,425.43Z" transform="translate(-1051.45 -371.86)"/><path class="cls-13" d="M1174.85,444.47c2.17-2.1,5-3.52,6.68-6.13l3.29-3.48.67,0,.26.24a42.41,42.41,0,0,1-8,8.34C1176.92,444.15,1176,444.81,1174.85,444.47Z" transform="translate(-1051.45 -371.86)"/><path class="cls-6" d="M1077,454.33a17.21,17.21,0,0,1,1.42,4.16c.65,2.6,3.42,3.33,5.68,4.22.94.37,2,.35,2,1.71-1.43-1-3.23-1-4.81-1.74C1077.55,460.91,1076.52,458.07,1077,454.33Z" transform="translate(-1051.45 -371.86)"/><path class="cls-14" d="M1186.63,455.44l.88-.41c1.85-1.19,3.62-2.63,6.06-2.05l-.07.87c-3.49.18-5.54,2.92-8.2,4.58l-.8.52h.06l-.65-.3C1185.05,457.79,1185.37,456.22,1186.63,455.44Z" transform="translate(-1051.45 -371.86)"/><path class="cls-6" d="M1117.94,447.73c1.57.59,1.44,2.28,2.18,3.4.49.74.93,1.53,1.39,2.29l.5,1v0a4.52,4.52,0,0,0,1.24,2.23l1.27,1.86.16.47-.32.57c-1.93-1.06-2.52-3.09-3.49-4.84C1119.66,452.48,1118.3,450.31,1117.94,447.73Z" transform="translate(-1051.45 -371.86)"/><path class="cls-14" d="M1220.55,423.46c1.38,0,1.9,2,3.49,1.51a1.15,1.15,0,0,1,0,.36c-1.53,2.11-3.85,2.34-6.16,2.56a.68.68,0,0,1-.3-.07l.08-.93c1.36-.26,1.83-1.39,2.39-2.42A1.1,1.1,0,0,0,1220.55,423.46Z" transform="translate(-1051.45 -371.86)"/><path class="cls-6" d="M1113.52,439c2.12.19,3.36-.42,3.05-2.91a2.68,2.68,0,0,1,1.87-3c1.46-.46,3.21-.71,4.52.08s1,2.18,0,3.3l-.15-1.26c0-1-.27-1.85-1.48-1.78-1.44.08-3,0-3.39,2h0c-.58.35-.35.87-.3,1.36l-.25,2.07a3.56,3.56,0,0,1-2.88,1.21l-.05-.16Z" transform="translate(-1051.45 -371.86)"/><path class="cls-6" d="M1105,417.44q0,.18.05.35L1105,420c-2.15-3.17-3.18-6.59-2-10.36.3-.94.44-2.32,2-2.28.45,1.25-1.17,1.83-1,3A7.7,7.7,0,0,0,1105,417.44Z" transform="translate(-1051.45 -371.86)"/><path class="cls-6" d="M1162.06,481.43c1.09-.26,1.36,1.14,2.32,1.15l.2.78a16,16,0,0,1-1.25,7.56c-.3.05-.88.89-.8-.2a18.53,18.53,0,0,1,.52-2.55h0c.65-.52.49-1,0-1.53v-.08C1163.6,484.69,1162.11,483.19,1162.06,481.43Z" transform="translate(-1051.45 -371.86)"/><path class="cls-6" d="M1116.53,482.36c.23.83-.36,1.37-.71,2a3.26,3.26,0,0,0,0,3.49c1.41,2.06,1,3.8-.52,5.5l-.55-.71c.58-.92,1.36-2.08.61-2.94-2.19-2.54-.94-4.8.2-7.15Z" transform="translate(-1051.45 -371.86)"/><path class="cls-7" d="M1116.53,482.36l-1,.18c.11-1.06,1.84-1.51,1.27-2.66s-1.74-.33-2.64-.48l-1.17-1.5c1.78.42,4-1,5.4,1.22.13.2,1.06-.12,1.61-.2C1118.87,480.09,1118.69,482.23,1116.53,482.36Z" transform="translate(-1051.45 -371.86)"/><path class="cls-8" d="M1190.49,407.2l.82-.27c2.84-1,3.33,1.06,3.92,3a5.51,5.51,0,0,1-2.71,2.51l0-1.07c.82-1.93-.1-2.76-1.91-3Z" transform="translate(-1051.45 -371.86)"/><path class="cls-11" d="M1097.18,456.42l.83,0c.77,1.68.44,4.1,3.06,4.54a15.52,15.52,0,0,1-6,3.3l-.91-.51c1.49-.83,3.66-1.33,4.29-2.6S1097.15,458.19,1097.18,456.42Z" transform="translate(-1051.45 -371.86)"/><path class="cls-15" d="M1163.05,488.18a18.53,18.53,0,0,0-.52,2.55c-.07,1.09.5.25.8.2.24,1.37.48,2.74-1.21,3.43-1.89-.63-3.13,1-4.71,1.39l1.15-1.77a2.82,2.82,0,0,0,2.58-2.82A3.14,3.14,0,0,1,1163.05,488.18Z" transform="translate(-1051.45 -371.86)"/><path class="cls-14" d="M1179.52,435.4c-2.44,2.58-5.75,3.91-8.56,6l-1-.41,9-6.07Z" transform="translate(-1051.45 -371.86)"/><path class="cls-6" d="M1133,446.53c-.93-2.14.64-3.88,1-5.82a15,15,0,0,1,.51-1.79c1-.74,1-2.05,1.61-3h.89a23.06,23.06,0,0,1-2.31,6C1133.91,443.4,1134.53,445.36,1133,446.53Z" transform="translate(-1051.45 -371.86)"/><path class="cls-11" d="M1105,420l.08-2.21c.8,2.74,3.05,3.73,5.45,4.55a4.62,4.62,0,0,0,2.54.58l2.4,1C1111.37,424.16,1107.78,423.1,1105,420Z" transform="translate(-1051.45 -371.86)"/><path class="cls-6" d="M1128.66,420.84a16,16,0,0,0-5.79-3.61,1.26,1.26,0,0,1,0-.24c2.94-.39,9.19,4,9.71,6.87l-.59.13-.94-1.31a.89.89,0,0,0-.83-.79l-.74-.51Z" transform="translate(-1051.45 -371.86)"/><path class="cls-11" d="M1130,436.41l-.48,1.48-.56,0c0-3.37-.05-6.74-1.64-9.85l.68-.09.19,0a10.54,10.54,0,0,1,1.43,3.52l.46,1C1129.36,433.72,1131,435.09,1130,436.41Z" transform="translate(-1051.45 -371.86)"/><path class="cls-11" d="M1152.51,400.47c0-1,1.06-1,1.5-1.53a3.14,3.14,0,0,0,2-.62,2.79,2.79,0,0,0,.46.1c.18.36.36.58.58,0h0l1.95-.21.56-.26a2.94,2.94,0,0,0,.48-.09c1.72-.89.66-2.57,1.1-3.82,1.28,3.52.63,4.7-3,5.37C1156.27,399.8,1154.39,400.13,1152.51,400.47Z" transform="translate(-1051.45 -371.86)"/><path class="cls-11" d="M1153.59,414.09c2.59-1.68,2.37-4.17,1.95-6.72a1.06,1.06,0,0,1,1.36.72c.85,2.38-1.83,7.9-4.34,8.87C1152.37,415.81,1153.52,415.15,1153.59,414.09Z" transform="translate(-1051.45 -371.86)"/><path class="cls-6" d="M1139,455.69c-1.6-1.35-2.69-3.31-5.34-3.21-1.22,0-.92-1.83-1.44-2.75,1,1.39,2.47,1.68,3.94,2.07,2,.53,3.31,1.59,2.87,3.92Z" transform="translate(-1051.45 -371.86)"/><path class="cls-14" d="M1141.94,470.4c-1.52-.28-.47-1.94-1.38-2.56l.29-4.84c1-.64.51-1.75.77-2.63l.79-.5.57.53-.06,1.4C1142.25,464.63,1141.17,467.41,1141.94,470.4Z" transform="translate(-1051.45 -371.86)"/><path class="cls-11" d="M1113,477.9l1.17,1.5-.63.57-1.06,0c-2.78-1.08-4.22-3.62-3.52-6.23.64.16.57.88,1,1.23C1110,477,1111.53,477.39,1113,477.9Z" transform="translate(-1051.45 -371.86)"/><path class="cls-6" d="M1145.21,453.43a10.3,10.3,0,0,1-2.13-3.6c-.34-1.23-.4-2.52.85-3.35a2.4,2.4,0,0,1,3.36.28l-.29.72c-1,0-2.33-.5-2.87.77s.19,2.23,1,3.15c.37.43.68.91,1,1.37A1,1,0,0,1,1145.21,453.43Z" transform="translate(-1051.45 -371.86)"/><path class="cls-13" d="M1141.87,489.44c.14-.54.39-1,1-1l.15,2c-.24,5.36-.19,4.32,3.51,5.41a.82.82,0,0,0,.43.1l0,0,.81.7-1.18.45C1141.61,495.44,1141.37,495,1141.87,489.44Z" transform="translate(-1051.45 -371.86)"/><path class="cls-13" d="M1162,436.37l-.57-.54c2.72-1.11,4.58-.31,5.12,2.61.36,1.91,1,2.9,3,2.53-.6.92-2.08,0-2.54,1.24,0-.78-1-.26-1.13-.91C1166.07,438.09,1164.66,436.32,1162,436.37Z" transform="translate(-1051.45 -371.86)"/><path class="cls-16" d="M1146.95,404.49c1.41-1.5-.2-3.07.12-4.59l1.41,0a10.44,10.44,0,0,0,1.05,2.48c1.83,2.36.3,2.87-1.65,3.23l-.44-.39Z" transform="translate(-1051.45 -371.86)"/><path class="cls-3" d="M1127.13,472.64l-.59.29c-.59-.38-1-1.35-1.84-.92s0,1,.05,1.46.06.6-.29.83c-.94.62-6-.12-6.86-1l.94,0c3.52,1.2,5,.37,4.92-2.81,0-.43.08-.86.53-1.09-.08.74.3,1.05,1,1.06C1125.77,471.12,1126.94,471.39,1127.13,472.64Z" transform="translate(-1051.45 -371.86)"/><path class="cls-10" d="M1076.48,481.35a8.87,8.87,0,0,1,6.54-4.46l0,1c-.15.67.17,1.45-.44,2-.87-2.62-1.78-.3-2.67,0C1078.81,480.4,1078.18,482.11,1076.48,481.35Z" transform="translate(-1051.45 -371.86)"/><path class="cls-13" d="M1191.05,437.93l-4.38,4.63-.75-.18a31.53,31.53,0,0,1,8.5-8.54l.34.35-2.66,2.77-.08.07A1.5,1.5,0,0,0,1191.05,437.93Z" transform="translate(-1051.45 -371.86)"/><path class="cls-11" d="M1136.94,435.91h-.89l.16-1c.51-.77.17-1.64.29-2.45l.55-.11c2.28-.19,4.31-1.2,6.43-1.91l1.18-.31.41.42c-1,2-3.2,1.32-4.8,2S1136.84,433.56,1136.94,435.91Z" transform="translate(-1051.45 -371.86)"/><path class="cls-6" d="M1199,445.83c-3.28,1-6.56,1.82-9.92.31,3.16-.25,6.28-1.07,9.49-.74C1198.94,445.44,1198.91,445.63,1199,445.83Z" transform="translate(-1051.45 -371.86)"/><path class="cls-11" d="M1146.06,427.91c.12-.1.37-.25.35-.3-.76-2.14.8-3.12,2.09-4.24.5,3.16-1,5.38-3.43,7.12l-.4-.42Z" transform="translate(-1051.45 -371.86)"/><path class="cls-11" d="M1148.47,399.88l-1.41,0-.08,0a.86.86,0,0,0-1-.54l0,0c-1.19-1.05-1.82-3-4-2.44h0l-.39-.46.41-1c1.47-.4,2.58-.3,3.36,1.4a3.4,3.4,0,0,0,3.59,2Z" transform="translate(-1051.45 -371.86)"/><path class="cls-13" d="M1123.46,470.51c.05,3.18-1.4,4-4.92,2.81,1.22-.69,2.61-.08,4-.63-1.08-2-3.21-3.84-1.13-6.33l.26.25C1121.68,468.19,1120.6,470.24,1123.46,470.51Z" transform="translate(-1051.45 -371.86)"/><path class="cls-16" d="M1208.93,421.86a1.27,1.27,0,0,0,1.09.57c3.22.47,5.77-1.28,8.47-2.55l-.64,1.41a11.92,11.92,0,0,0-3.44,2c-1.28.39-2.45-.52-3.72-.3l-1.25.47c-.55-.42-1.46-.49-1.42-1.47Z" transform="translate(-1051.45 -371.86)"/><path class="cls-13" d="M1147.43,405.2l.44.39,1.62,1.84.14.5v2l-.71,6-.4.49-.45.1-.23-.22c.55-2.49.49-5.06.85-7.54C1148.94,407,1147,406.61,1147.43,405.2Z" transform="translate(-1051.45 -371.86)"/><path class="cls-14" d="M1175,409c-.09.75-.6.89-1.23.83s-1.32-.48-1.63.46a1.85,1.85,0,0,0,.51,2c.74.74,1.65,1.4,1.36,2.67-1.45-.88-2.71-1.92-3-3.73-.33-2.14.73-3,3-2.64l.8.34Z" transform="translate(-1051.45 -371.86)"/><path class="cls-3" d="M1139,455.69l0,0c1.41.78,1.31,2.4,2,3.6-.54.63-1,1.37-2,1l-2.55-1.34.56,0a1.54,1.54,0,0,0,1-1.49Z" transform="translate(-1051.45 -371.86)"/><path class="cls-11" d="M1162.83,446.34c2.47-.85,5.21-.16,7.65-1.39a1.73,1.73,0,0,1,2.14.83,25,25,0,0,1-9.13,1.09Z" transform="translate(-1051.45 -371.86)"/><path class="cls-6" d="M1110,468.93c-1.23-.44-1.66-1.67-2.5-2.51-.62-1.47-.62-3.17-1.59-4.51l.15-.63c.92.07,1.22.81,1.5,1.48C1108.38,464.8,1109.16,466.87,1110,468.93Z" transform="translate(-1051.45 -371.86)"/><path class="cls-6" d="M1079.94,479.85c.89-.27,1.8-2.6,2.67,0l.41.54c.14,1.4-.12,3,1.87,3.43l.86.18c-.28.84-.9,1.31-1.7.91a3.27,3.27,0,0,1-1.92-3C1082.19,480.26,1081.38,479.83,1079.94,479.85Z" transform="translate(-1051.45 -371.86)"/><path class="cls-13" d="M1145.21,453.43a1,1,0,0,0,.91-.66l.9.07,0,.62c-.93,2.46-3.15,4.21-3.72,6.87a1.06,1.06,0,0,0-.32.08l-.57-.53a9.86,9.86,0,0,1,2-3.61C1145,455.46,1145.86,454.64,1145.21,453.43Z" transform="translate(-1051.45 -371.86)"/><path class="cls-6" d="M1120.91,415.33c-.58-3,.64-5.65,1.68-8.33l.9-.6a1.28,1.28,0,0,0,.31.27Z" transform="translate(-1051.45 -371.86)"/><path class="cls-14" d="M1147.54,460.49a11.06,11.06,0,0,1,4.83-6.73l.13.76C1150.63,456.32,1150,459.16,1147.54,460.49Z" transform="translate(-1051.45 -371.86)"/><path class="cls-6" d="M1112.64,471.87l-2.06-2c2.57.51,5.21.84,7,3.11l-.51.42-2-.53Z" transform="translate(-1051.45 -371.86)"/><path class="cls-13" d="M1161.1,394.08c-.44,1.25.62,2.94-1.1,3.82v-.51l.11-.91c.39-2.12-1-3-2.59-3.79a.34.34,0,0,0,0-.27l0-1,1.58-.08-.08,0a.8.8,0,0,0,.77.55A3.08,3.08,0,0,1,1161.1,394.08Z" transform="translate(-1051.45 -371.86)"/><path class="cls-6" d="M1192.52,412.44a5.51,5.51,0,0,0,2.71-2.51l.33-1.78c1.12,2.72.81,3.64-1.68,4.82-.93.44-1.9.81-2.85,1.21.06-.1,0-.18-.1-.24l0-1.05.57-.08a.82.82,0,0,0,1-.39Z" transform="translate(-1051.45 -371.86)"/><path class="cls-13" d="M1187,471.87l0,.82c-2.94.87-5.9,1.55-9,1l1.92-.83c.79.93,1,.11,1.3-.43l1.23.06Z" transform="translate(-1051.45 -371.86)"/><path class="cls-14" d="M1226.48,446.27a.74.74,0,0,1,0-.27c1.87-1.46,2.7-3.91,4.83-5.12h0l-.83,2.47c-.37.68-1.08,1.17-1.15,2C1228.21,445.06,1227.5,446.15,1226.48,446.27Z" transform="translate(-1051.45 -371.86)"/><path class="cls-6" d="M1178.05,458c-.8,1.69-1.3,3.53-2.55,5l-1.28-.06-.29-1,0-1.44.11-.1c.67.46,1.28,1,1.83-.2a26.18,26.18,0,0,1,1.61-2.73Z" transform="translate(-1051.45 -371.86)"/><path class="cls-14" d="M1174.23,462.91l1.27.06c0,1.34.22,2.7-.5,3.94l-2.49,1.14c0-.27,0-.53-.07-.8l-.44-.36h0l.09-.57C1174.31,466.11,1173.27,463.89,1174.23,462.91Z" transform="translate(-1051.45 -371.86)"/><path class="cls-13" d="M1128.14,442.09c-.51,2.57-2.34,4.65-4.11,4.69-.48-.5-1.56-.26-1.59-1.3l.24-.25c2.18,1.12,3-.69,4.09-1.91a11.16,11.16,0,0,0,1.15-2.09Z" transform="translate(-1051.45 -371.86)"/><path class="cls-8" d="M1181.73,416.48l-1.38-1.9c.71-.88,1.78-.94,2.75-1.21a.46.46,0,0,1,.35.07,2.61,2.61,0,0,0,1.53,2.48h0l.13,1C1184,416.78,1182.92,416.16,1181.73,416.48Z" transform="translate(-1051.45 -371.86)"/><path class="cls-14" d="M1178.05,458l-.55-.56c.74-2.25,2.37-3.83,4-5.39l.82.75c-1.28.64-1.73,1.93-2.41,3a2.6,2.6,0,0,0-1.49,2.08A2.33,2.33,0,0,0,1178.05,458Z" transform="translate(-1051.45 -371.86)"/><path class="cls-14" d="M1224.18,413.94c.12,3.89-3.67,4.09-5.66,6C1220.09,417.63,1222.33,416,1224.18,413.94Z" transform="translate(-1051.45 -371.86)"/><path class="cls-14" d="M1176.4,417.88l1.09.29-.15,1.23h-.23c-2.41.4-4.71-.68-7.11-.51l-.56-1,1.84-.07a6.3,6.3,0,0,1,3.57.61C1175.79,419,1176.16,418.79,1176.4,417.88Z" transform="translate(-1051.45 -371.86)"/><path class="cls-13" d="M1229.06,416l.47-.53c1.1-1.18-.06-2.81.81-4a25.57,25.57,0,0,1,.15,6.9,2.6,2.6,0,0,1-1.45,2.16Z" transform="translate(-1051.45 -371.86)"/><path class="cls-10" d="M1132,424l.59-.13c1.62.68,2,2.41,2.93,3.61l-.12.94c-.73-.06-1.69.34-1.6-1.1,0-.65-.67-.83-1.29-.84C1131.5,425.82,1131.67,424.92,1132,424Z" transform="translate(-1051.45 -371.86)"/><path class="cls-11" d="M1188,417.91l.11,11.56-1-.59c0-1.66-.3-3.34.29-5l.05-1C1187.94,421.32,1186.9,419.49,1188,417.91Z" transform="translate(-1051.45 -371.86)"/><path class="cls-11" d="M1181.93,411.92c-2.25.14-4.35-.18-5.92-2C1178.22,409.87,1180.54,409.52,1181.93,411.92Z" transform="translate(-1051.45 -371.86)"/><path class="cls-6" d="M1162.83,446.34l.66.53c-2.29.5-4.3,1.74-6.45,2.59l-.14-.53A8.59,8.59,0,0,1,1162.83,446.34Z" transform="translate(-1051.45 -371.86)"/><path class="cls-6" d="M1122,400.88c2.26.06,3.37,1.61,2.69,3.82a15.83,15.83,0,0,1-.9,2,1.31,1.31,0,0,1-.31-.27l0-1.58c.12-1.26.81-2.78-1.37-3l0,.07,0-1Z" transform="translate(-1051.45 -371.86)"/><path class="cls-14" d="M1188,417.91c-1.08,1.58,0,3.41-.59,5-.72-1.66-.78-3.55-1.8-5.1l-.46-1-.13-1c1.32-.05,1.66,1.93,3.16,1.53Z" transform="translate(-1051.45 -371.86)"/><path class="cls-14" d="M1195.56,408.15l-.33,1.78c-.6-1.93-1.08-4-3.92-3,0-2.48,1.48-1.58,2.67-1.08A2.42,2.42,0,0,1,1195.56,408.15Z" transform="translate(-1051.45 -371.86)"/><path class="cls-6" d="M1189,444.52c-.64-2.68,1.45-3.7,3-5A7.87,7.87,0,0,1,1189,444.52Z" transform="translate(-1051.45 -371.86)"/><path class="cls-12" d="M1077.09,452.94l-.15,1.22c-.5-.84-.47-2.14-2.19-1.62s-1.08-1.47-1.8-2.09l2.08.32,1,.11,0,0,.49.48Z" transform="translate(-1051.45 -371.86)"/><path class="cls-14" d="M1147,447.49l.29-.72c1.24.72,1,2.64,2.54,3.12-1.22.44-1.14,2.05-2.3,2.55l-.06-.05C1147.41,450.74,1147.89,449,1147,447.49Z" transform="translate(-1051.45 -371.86)"/><path class="cls-14" d="M1204,428.89c.52,1.7,1.81,1,2.81.79a36,36,0,0,0,3.7-1.23q0,.29,0,.59c-2.43.92-4.76,2.57-7.54,1.07l1-1.22Z" transform="translate(-1051.45 -371.86)"/><path class="cls-13" d="M1210.55,429q0-.29,0-.59l.5-.53,4.43-.09h2.08a.68.68,0,0,0,.3.07c-.35,1.22-1.4.89-2.22.95C1213.94,429,1212.24,429,1210.55,429Z" transform="translate(-1051.45 -371.86)"/><path class="cls-14" d="M1185.93,442.38l.75.18a26.47,26.47,0,0,1-3.12,4.91l-.11-1.23C1184,444.77,1184.49,443.27,1185.93,442.38Z" transform="translate(-1051.45 -371.86)"/><path class="cls-13" d="M1112.48,479.95l1.06,0c-.4,2.3-1.34,3.93-4.11,3.53-.44-.06-.94.27-1.41.43l-.09-.79a6,6,0,0,1,1.84-.55C1111.67,482.66,1112.44,481.71,1112.48,479.95Z" transform="translate(-1051.45 -371.86)"/><path class="cls-14" d="M1153,452.85c.67-1.92,1.48-3.64,4-3.08l1.06.68a3.09,3.09,0,0,0,0,.44c-2-.42-3.23.9-4.54,2Z" transform="translate(-1051.45 -371.86)"/><path class="cls-11" d="M1117.27,424c1-.46,2.05.08,3.08,0,1.11.78,2.55.22,3.69.89l-.08.77C1121.64,425.39,1119.25,425.49,1117.27,424Z" transform="translate(-1051.45 -371.86)"/><path class="cls-12" d="M1124.36,459.53l.32-.58,2.29-.08c1.68,1.19,3.61.15,5.37.6-1.13,1.87-2.9.66-4.36.91a5.46,5.46,0,0,0-3.53-.91Z" transform="translate(-1051.45 -371.86)"/><path class="cls-13" d="M1153,452.85l.57.08c1.13,2.25,3.21,1.35,5,1.5l.31.71h-.19a.78.78,0,0,0-1.13.24c-1.89,1-3.22-1.17-5-.86l-.13-.76a1.12,1.12,0,0,1,.12-.3l.47-.55Z" transform="translate(-1051.45 -371.86)"/><path class="cls-13" d="M1198,433.9l1.49,0c-2,1.9-4.42,3.12-6.6,4.73l.11-1.16Z" transform="translate(-1051.45 -371.86)"/><path class="cls-13" d="M1120,441.33l-.11-.74q0-.87.05-1.74l.62-1.9,1.87-.63.23.25a.35.35,0,0,1-.14.37l-.51.43c-1.4,1-1,2.6-1.23,4Z" transform="translate(-1051.45 -371.86)"/><path class="cls-11" d="M1225,412.93h-.5a21.68,21.68,0,0,0-1.11-5.35l.19-.94c1.23,1.75,2.39,3.51,1.62,5.82Z" transform="translate(-1051.45 -371.86)"/><path class="cls-13" d="M1228.39,408c-1.5-.92-1.71-3.72-4.35-3,.19-.78,1.19-.43,1.48-1.07a7.5,7.5,0,0,1,3.64,3.92Z" transform="translate(-1051.45 -371.86)"/><path class="cls-6" d="M1124,425.62l.08-.77.46-.1,2.43.81,1,2.34-.68.09C1126.28,427.05,1125.38,426,1124,425.62Z" transform="translate(-1051.45 -371.86)"/><path class="cls-6" d="M1183.44,446.24l.11,1.23a5.51,5.51,0,0,1-1.34,3.73h-.2C1181.53,449.26,1182.51,447.75,1183.44,446.24Z" transform="translate(-1051.45 -371.86)"/><path class="cls-13" d="M1113.52,439l1,.92H1113c-1.4-.73-3.09,0-4.45-.89A5.27,5.27,0,0,1,1113.52,439Z" transform="translate(-1051.45 -371.86)"/><path class="cls-14" d="M1203,421.84l.52.08a5.25,5.25,0,0,1-1.06,3.45l-1.41.56C1201.22,424.35,1202.25,423.17,1203,421.84Z" transform="translate(-1051.45 -371.86)"/><path class="cls-14" d="M1153.56,404.38a2.53,2.53,0,0,1-2.5-2.47,1.23,1.23,0,0,1,1.47-1.48C1151.7,402.05,1153.23,403.06,1153.56,404.38Z" transform="translate(-1051.45 -371.86)"/><path class="cls-6" d="M1110.07,410.38l-1,.47c-.34-.89-.76-1.71.21-2.59a2.25,2.25,0,0,0,.58-2.28l.91-.14C1111.63,407.53,1109.63,408.76,1110.07,410.38Z" transform="translate(-1051.45 -371.86)"/><path class="cls-11" d="M1113.51,400.9l-1,0c-1.26-2.76.9-2.72,2.54-3.11-.23.6-1.08.73-1.11,1.48C1113.72,399.81,1113.31,400.28,1113.51,400.9Z" transform="translate(-1051.45 -371.86)"/><path class="cls-6" d="M1172.12,466.33l-.09.57-3-4.46h1.44l.86,1Z" transform="translate(-1051.45 -371.86)"/><path class="cls-14" d="M1228.39,408l.77-.13a7.15,7.15,0,0,1,1.17,3.56c-.88,1.22.29,2.86-.81,4A17.53,17.53,0,0,0,1228.39,408Z" transform="translate(-1051.45 -371.86)"/><path class="cls-6" d="M1125,470.47c-.7,0-1.07-.32-1-1.06.79-1.65.95-3-1.46-3.18l0-.74c1.81-.47,2.67.3,2.56,2.1C1125,468.56,1125.44,469.53,1125,470.47Z" transform="translate(-1051.45 -371.86)"/><path class="cls-6" d="M1183.91,458.66l.65.3-3.94,3.76-.29-.9C1181,460.2,1182.61,459.59,1183.91,458.66Z" transform="translate(-1051.45 -371.86)"/><path class="cls-6" d="M1225.52,403.92c-.28.65-1.29.3-1.48,1.07a1.84,1.84,0,0,0-.44,1.64l-.19.94a2.39,2.39,0,0,1-.51-3.09C1223.5,403.53,1224.53,403.57,1225.52,403.92Z" transform="translate(-1051.45 -371.86)"/><path class="cls-6" d="M1158.81,455.14l-.31-.71c1.57-1.39,1.6-2.59-.43-3.54a3.09,3.09,0,0,1,0-.44,1.87,1.87,0,0,1,2.38,1.56A2.42,2.42,0,0,1,1158.81,455.14Z" transform="translate(-1051.45 -371.86)"/><path class="cls-14" d="M1180.33,461.82l.29.9c-.31,1-1.18,1.87-.84,3.06l-.82.17C1177.69,464,1179.23,463,1180.33,461.82Z" transform="translate(-1051.45 -371.86)"/><path class="cls-6" d="M1106.43,440.81l1.62,2.52-.07.75c-1.1,0-2.16-.23-2.49-1.45C1105.28,441.85,1105.25,441,1106.43,440.81Z" transform="translate(-1051.45 -371.86)"/><path class="cls-6" d="M1224,425.33a1.15,1.15,0,0,0,0-.36c1.36-1,2-2.89,4-3.08C1226.8,423.17,1226.25,425.24,1224,425.33Z" transform="translate(-1051.45 -371.86)"/><path class="cls-13" d="M1108,444.08l.07-.75a21.53,21.53,0,0,0,5.48-.56v.15l-.06.87C1111.63,443.74,1109.85,444.75,1108,444.08Z" transform="translate(-1051.45 -371.86)"/><path class="cls-14" d="M1190.49,407.2l.07,1.14c-.75.23-1.83-.25-2.09,1l-1.5,0C1187.82,408.13,1188.48,406.57,1190.49,407.2Z" transform="translate(-1051.45 -371.86)"/><path class="cls-14" d="M1135.4,428.41l.12-.94,1-.57c-.24,1.84.58,3.57.59,5.39l-.55.11a1.26,1.26,0,0,0-.45,0l-.16,0,.05-2Z" transform="translate(-1051.45 -371.86)"/><path class="cls-6" d="M1201.56,453.88c-.41,0-.82.08-1.05.5l-5.48-.6c.67-.73,1.8,0,2.47-.78l1.53.1.57.25a1.37,1.37,0,0,0,.41,0C1200.54,453.44,1201.16,453.36,1201.56,453.88Z" transform="translate(-1051.45 -371.86)"/><path class="cls-11" d="M1110.79,405.84l-.91.14c-.84-.91-1.91-.45-2.9-.46a2.27,2.27,0,0,1,2.61-1.57C1110.63,404.06,1110.6,405.08,1110.79,405.84Z" transform="translate(-1051.45 -371.86)"/><path class="cls-14" d="M1187,428.88l1,.59c.57,1.13-.47,1.93-.58,2.93l-.39.65h.05l-.73-.24C1186.6,431.51,1187.2,430.25,1187,428.88Z" transform="translate(-1051.45 -371.86)"/><path class="cls-11" d="M1139,460.28c1,.41,1.51-.34,2-1,.56.15.55.62.6,1.06-.26.88.27,2-.77,2.63-.58-.75-.94-1.69-1.86-2.15Z" transform="translate(-1051.45 -371.86)"/><path class="cls-13" d="M1112.46,493.18c0-1.36.32-2.88-1.85-2.74,1.27-.81,2.59-1.77,2.4,1a1.38,1.38,0,0,0,1,1.5l0,.83A1.4,1.4,0,0,1,1112.46,493.18Z" transform="translate(-1051.45 -371.86)"/><path class="cls-14" d="M1148,417.48c-.34,1.62-.63,3.28-2.49,3.95-.27-1.49,1-2.3,1.52-3.46l.41-.61h0Z" transform="translate(-1051.45 -371.86)"/><path class="cls-13" d="M1139,460.28v.57l-4.59-1.38c.49-.9,1.32-.48,2-.54Z" transform="translate(-1051.45 -371.86)"/><path class="cls-6" d="M1113.47,443.79l.06-.87c1.6.38,3.3.65,2.94,3A5.85,5.85,0,0,0,1113.47,443.79Z" transform="translate(-1051.45 -371.86)"/><path class="cls-14" d="M1128.14,442.09l-.21-.87c.47-1.09.18-2.4,1-3.38l.56,0C1129.49,439.43,1129.8,441.08,1128.14,442.09Z" transform="translate(-1051.45 -371.86)"/><path class="cls-14" d="M1120,441.33l.79,0,.82,2.48-.13.68A2.26,2.26,0,0,1,1120,441.33Z" transform="translate(-1051.45 -371.86)"/><path class="cls-6" d="M1173.43,460.42c-.81-1.59-.65-2.9,1.11-3.73l-.48,3.65-.11.1Z" transform="translate(-1051.45 -371.86)"/><path class="cls-13" d="M1075,450.77l-2.08-.32-.49-.1-1.5-.7c1.38-.51,2.69,0,4,.29h0Z" transform="translate(-1051.45 -371.86)"/><path class="cls-3" d="M1104.06,458.36l.82-.13c.84.79-.39,1.76.21,2.57l-.15.16C1103.8,460.38,1103.4,459.56,1104.06,458.36Z" transform="translate(-1051.45 -371.86)"/><path class="cls-14" d="M1154.63,406.36l-.06,0c-.62-.51-1.25-1-1-2,1-.08,1,1,1.79,1.44S1154.84,406.1,1154.63,406.36Z" transform="translate(-1051.45 -371.86)"/><path class="cls-13" d="M1113.95,399.3c0-.75.88-.88,1.11-1.48a.44.44,0,0,1,.66.08,1.06,1.06,0,0,1,1.31.6Z" transform="translate(-1051.45 -371.86)"/><path class="cls-6" d="M1090.4,465.8l.12-1.42c.84.63,1.64,0,2.46-.06l.2.79-.12,0c-.46-.13-.81-.05-.92.48h0l-.56.43-1,.43Z" transform="translate(-1051.45 -371.86)"/><path class="cls-6" d="M1145,483.32a1.4,1.4,0,0,1-.45.06,1.18,1.18,0,0,0-.92-.87l-.17-.07,1.67-1.48-.06,0Z" transform="translate(-1051.45 -371.86)"/><path class="cls-13" d="M1197.49,453c-.67.75-1.79.05-2.47.78l-1.52.07.07-.87Z" transform="translate(-1051.45 -371.86)"/><path class="cls-6" d="M1124.45,459.47a5.46,5.46,0,0,1,3.53.91C1126.78,460.18,1125.26,461.21,1124.45,459.47Z" transform="translate(-1051.45 -371.86)"/><path class="cls-14" d="M1147,462.88l-.59,0a.48.48,0,0,0,0-.36l.2-2h1Z" transform="translate(-1051.45 -371.86)"/><path class="cls-11" d="M1117,398.5a1.06,1.06,0,0,0-1.31-.6,3.92,3.92,0,0,1,3.54.41l-.9.34Z" transform="translate(-1051.45 -371.86)"/><path class="cls-14" d="M1185,415.91a2.61,2.61,0,0,1-1.53-2.48l.56,0C1184.43,414.21,1185.19,414.87,1185,415.91Z" transform="translate(-1051.45 -371.86)"/><path class="cls-14" d="M1187,409.37a4.52,4.52,0,0,1-.1,1.18,3.86,3.86,0,0,1-.65.91l-.28-1.13A1.49,1.49,0,0,1,1187,409.37Z" transform="translate(-1051.45 -371.86)"/><path class="cls-13" d="M1118.36,398.65l.9-.34c.72,0,1.1.58,1.51,1.08A2.54,2.54,0,0,1,1118.36,398.65Z" transform="translate(-1051.45 -371.86)"/><path class="cls-13" d="M1093.18,465.1l-.2-.79,1.15-.55.91.51Z" transform="translate(-1051.45 -371.86)"/><path class="cls-6" d="M1168.06,416.34a3.14,3.14,0,0,1,2,1l-1.22.11-.92-.5v-.56Z" transform="translate(-1051.45 -371.86)"/><path class="cls-8" d="M1142.59,481.87c-.7,0-1.08-.27-1-1C1142.31,480.79,1142.58,481.2,1142.59,481.87Z" transform="translate(-1051.45 -371.86)"/><path class="cls-13" d="M1168.89,417.48l1.22-.11a1.37,1.37,0,0,1,1.19.5l-1.84.07Z" transform="translate(-1051.45 -371.86)"/><path class="cls-6" d="M1114,493.76l0-.83.72-.3.55.71A1.27,1.27,0,0,1,1114,493.76Z" transform="translate(-1051.45 -371.86)"/><path class="cls-3" d="M1106,461.27l-.15.63c-.6,0-.85-.4-.94-.94l.15-.16C1105.45,460.88,1105.88,460.79,1106,461.27Z" transform="translate(-1051.45 -371.86)"/><path class="cls-13" d="M1194.43,433.84l1.27-1.25a4.75,4.75,0,0,0,.33.36,2,2,0,0,1-1.26,1.24Z" transform="translate(-1051.45 -371.86)"/><path class="cls-6" d="M1171.83,469.23l-.4.27Z" transform="translate(-1051.45 -371.86)"/><path class="cls-3" d="M1164.58,483.36l-.2-.78c.72-.69.55.13.69.41Z" transform="translate(-1051.45 -371.86)"/><path class="cls-13" d="M1122.51,465.5l0,.74-.82.38-.26-.25A1.11,1.11,0,0,1,1122.51,465.5Z" transform="translate(-1051.45 -371.86)"/><path class="cls-13" d="M1121.91,400.25c-.61.07-.81-.3-.87-.82A1,1,0,0,1,1121.91,400.25Z" transform="translate(-1051.45 -371.86)"/><path class="cls-13" d="M1200.12,433.15l.68-.7C1200.71,432.82,1200.67,433.23,1200.12,433.15Z" transform="translate(-1051.45 -371.86)"/><path class="cls-13" d="M1186.43,432.82l.73.24a1.08,1.08,0,0,1-.55,1l-.14-.14,0-1Z" transform="translate(-1051.45 -371.86)"/><path class="cls-13" d="M1122.84,435.22l.15,1.26a.4.4,0,0,1-.35.09l-.23-.25.1-.89Z" transform="translate(-1051.45 -371.86)"/><path class="cls-13" d="M1121.46,444.52l.13-.68c.37.25.66.54.47,1Z" transform="translate(-1051.45 -371.86)"/><polygon class="cls-6" points="138.87 43.15 138.87 43.18 139.03 43.16 138.87 43.15"/><polygon class="cls-6" points="70.18 44.19 70.21 44.17 70.18 44.05 70.18 44.19"/><path class="cls-13" d="M1148,417.48l-.61-.11.4-1.11.23.22q0,.47,0,.93Z" transform="translate(-1051.45 -371.86)"/><path class="cls-9" d="M1174.87,409l-.8-.34A.63.63,0,0,1,1174.87,409Z" transform="translate(-1051.45 -371.86)"/><path class="cls-6" d="M1157.49,455.38a.78.78,0,0,1,1.13-.24A.82.82,0,0,1,1157.49,455.38Z" transform="translate(-1051.45 -371.86)"/><path class="cls-6" d="M1154.13,474.27l.95.54-.1.11h-1a.84.84,0,0,1-.24-.24Z" transform="translate(-1051.45 -371.86)"/><path class="cls-6" d="M1228,421.93a1.07,1.07,0,0,1,.64-1A1.05,1.05,0,0,1,1228,421.93Z" transform="translate(-1051.45 -371.86)"/><path class="cls-13" d="M1196.44,431.74l0,1.18a2,2,0,0,0-.45,0,4.75,4.75,0,0,1-.33-.36Z" transform="translate(-1051.45 -371.86)"/><path class="cls-6" d="M1172,466.89l.44.36Z" transform="translate(-1051.45 -371.86)"/><path class="cls-13" d="M1179.52,435.4l-.52-.51.46,0Z" transform="translate(-1051.45 -371.86)"/><path class="cls-13" d="M1228.56,421l.48-.6C1229.08,420.77,1228.95,421,1228.56,421Z" transform="translate(-1051.45 -371.86)"/><path class="cls-6" d="M1153.43,474.55l.08-.67.63.39-.41.42Z" transform="translate(-1051.45 -371.86)"/><path class="cls-13" d="M1147.48,417.37l-.41.61Z" transform="translate(-1051.45 -371.86)"/><path class="cls-3" d="M1117.06,473.37l.51-.42a.26.26,0,0,1,.06.31Z" transform="translate(-1051.45 -371.86)"/><path class="cls-11" d="M1159.8,391.89a.8.8,0,0,1-.77-.55C1159.52,391.21,1159.63,391.58,1159.8,391.89Z" transform="translate(-1051.45 -371.86)"/><path class="cls-13" d="M1187.11,433.05l.39-.65Z" transform="translate(-1051.45 -371.86)"/><path class="cls-6" d="M1184.5,459l.8-.52Z" transform="translate(-1051.45 -371.86)"/><path class="cls-13" d="M1186.61,434l-.44.55-.57-.52a.8.8,0,0,1,.21-.28l.66.11Z" transform="translate(-1051.45 -371.86)"/><path class="cls-13" d="M1186.17,434.57l-.43.57-.26-.24-.07-.59a.66.66,0,0,1,.18-.25Z" transform="translate(-1051.45 -371.86)"/><path class="cls-6" d="M1105.48,406.89l-.52.5C1104.78,406.86,1105.23,407,1105.48,406.89Z" transform="translate(-1051.45 -371.86)"/><path class="cls-6" d="M1122,437.37l.51-.43C1122.49,437.27,1122.27,437.35,1122,437.37Z" transform="translate(-1051.45 -371.86)"/><path class="cls-6" d="M1168,460.88l0,.09Z" transform="translate(-1051.45 -371.86)"/><path class="cls-13" d="M1122,445.54l.08-.68c.37-.15.51.11.64.37l-.24.25A2.39,2.39,0,0,0,1122,445.54Z" transform="translate(-1051.45 -371.86)"/><path class="cls-8" d="M1143.37,482.91l-.34-.59.39.11.17.07A.74.74,0,0,0,1143.37,482.91Z" transform="translate(-1051.45 -371.86)"/><path class="cls-10" d="M1219.46,449.55c1.66-1.82,3.86-2.11,6.14-2.16,1.26.24.8,1.25.9,2,.53,1.53-1.14,2.05-1.45,3.19a5.42,5.42,0,0,1-3,.93,1.76,1.76,0,0,0-1.52-1.68C1219.36,451.53,1219,450.67,1219.46,449.55Zm4.06,0c-.16-.28.21-1.15-.74-1-.63.09-1.3.37-1.32,1.21a1,1,0,0,0,.95,1.21C1223.29,451.08,1223.55,450.54,1223.52,449.58Z" transform="translate(-1051.45 -371.86)"/><path class="cls-15" d="M1201.56,453.88c-.4-.52-1-.43-1.56-.57,2.78-.88,5.59-.29,8.38-.08a2.21,2.21,0,0,1,2.07,2.09Z" transform="translate(-1051.45 -371.86)"/><path class="cls-3" d="M1196,433a2,2,0,0,1,.45,0l1.52,1-5,3.52a.84.84,0,0,0-.89-.47l2.66-2.77A2,2,0,0,0,1196,433Z" transform="translate(-1051.45 -371.86)"/><path class="cls-3" d="M1191.05,437.93a1.5,1.5,0,0,1,1-.91A1,1,0,0,1,1191.05,437.93Z" transform="translate(-1051.45 -371.86)"/><path class="cls-6" d="M1216.46,455.15l-1,.24A.83.83,0,0,1,1216.46,455.15Z" transform="translate(-1051.45 -371.86)"/><path class="cls-13" d="M1199.59,453.35l-.57-.25Z" transform="translate(-1051.45 -371.86)"/><path class="cls-5" d="M1128,427.9l-1-2.34a4.86,4.86,0,0,0-.23-1.64c-1.23-2.27,0-2.89,2-3.07l.83.53.74.51a.89.89,0,0,1,.83.79c-.07,1.8-2.29,3.17-1.06,5.23h0l-1.84,0Z" transform="translate(-1051.45 -371.86)"/><path class="cls-5" d="M1121.54,423.88c.08-1.22-.84-1.22-1.66-1.61-2.25-1.08-5-1.42-6.37-3.92l2.45,0c.72,1.08,1.83,1.11,3,1.08l2,.38c.17,1.6,2.74,1.21,2.57,3.1C1123.32,424.18,1122.33,423.82,1121.54,423.88Z" transform="translate(-1051.45 -371.86)"/><path class="cls-10" d="M1114.48,416.3c-.4-.47-1-.37-1.48-.39q0-.24,0-.47c0-.57.11-1.18-.52-1.54l0-1,0,0,1-.53.58.59q0,.47,0,.93l.07.65.36-.18,1.48,1.58,0,.54Z" transform="translate(-1051.45 -371.86)"/><path class="cls-5" d="M1114.08,413.89q0-.47,0-.93a2.59,2.59,0,0,1,.44-.06l2.52,0a3.33,3.33,0,0,1-1,3l-1.48-1.58Z" transform="translate(-1051.45 -371.86)"/><path class="cls-12" d="M1114.48,416.3l1.49.18a1.53,1.53,0,0,1,0,1.89l-2.45,0C1113.55,417.53,1113.24,416.54,1114.48,416.3Z" transform="translate(-1051.45 -371.86)"/><path class="cls-16" d="M1121,419.82l-2-.38a6.49,6.49,0,0,1,.15-1c.21-.66.61-1.38,1.32-1.28.92.13.55,1,.58,1.64C1121,419.16,1121,419.49,1121,419.82Z" transform="translate(-1051.45 -371.86)"/><path class="cls-7" d="M1122.1,401.82c2.18.22,1.49,1.74,1.37,3l-1-.15C1122.32,403.72,1120.75,403,1122.1,401.82Z" transform="translate(-1051.45 -371.86)"/><path class="cls-9" d="M1117,412.92l-2.52,0a1.77,1.77,0,0,1,1-2c.51.67,1.61.89,1.52,2Z" transform="translate(-1051.45 -371.86)"/><path class="cls-10" d="M1121.54,423.88c.79-.06,1.77.3,2-1,1.24.12.91,1.07,1,1.82l-.46.1c-1.14-.67-2.57-.11-3.69-.89Z" transform="translate(-1051.45 -371.86)"/><path class="cls-12" d="M1122.47,404.67l1,.15,0,1.57-.9.6C1121.91,406.25,1120.88,405.52,1122.47,404.67Z" transform="translate(-1051.45 -371.86)"/><path class="cls-5" d="M1117,412.92c.09-1.12-1-1.34-1.52-2C1116.95,410.87,1118.25,410.93,1117,412.92Z" transform="translate(-1051.45 -371.86)"/><path class="cls-9" d="M1113.48,412.38l-1,.53c0-.69,0-1.43,1-1.44Z" transform="translate(-1051.45 -371.86)"/><path class="cls-7" d="M1122,400.92l0,1C1121.51,401.59,1121.48,401.27,1122,400.92Z" transform="translate(-1051.45 -371.86)"/><path class="cls-5" d="M1135.4,428.41l.54,2.06c-.69.54-.41,1.29-.42,2l-.56,3.44c-.68-.07-1.45.24-2-.48,0-1.2,0-2.39,0-3.81a4.48,4.48,0,0,1-2.95.79l-.46-1c.81-1.09.2-2.34.41-3.49h0l2.51-1.44c.62,0,1.34.19,1.29.84C1133.71,428.75,1134.67,428.35,1135.4,428.41Z" transform="translate(-1051.45 -371.86)"/><path class="cls-9" d="M1122,445.54a2.39,2.39,0,0,1,.48-.06c0,1,1.11.81,1.59,1.3.44,1.82,1.63,2,2.94,1.24,1,1-1.56,2.22.52,2.89,0,.46.14,1.07-.47,1.26s-.73-.28-.91-.65c-1-2.1-1.45-.86-2.48.13-1.31,1.24,1.09,2.3-.18,3.27l-1.44-.52v0l0-1a3.53,3.53,0,0,1,.69-2.54c.42-.48.47-1.3-.1-1.51C1119.95,448.42,1121.47,446.92,1122,445.54Z" transform="translate(-1051.45 -371.86)"/><path class="cls-5" d="M1123.45,454.91c1.27-1-1.12-2,.18-3.27,1-1,1.49-2.22,2.48-.13.18.38.44.8.91.65s.42-.79.47-1.26c.69-.43.89-1.88,2-1.33s.33,1.52,0,2.31c-.54,1-3.12.95-1.45,3l-1.07.54a1,1,0,0,0-1,1l-.87,0-1.47-.58Z" transform="translate(-1051.45 -371.86)"/><path class="cls-3" d="M1130.06,432.39a4.48,4.48,0,0,0,2.95-.79c0,1.42,0,2.62,0,3.81-1.11,0-1.8,1.31-3,1C1131,435.09,1129.36,433.72,1130.06,432.39Z" transform="translate(-1051.45 -371.86)"/><path class="cls-9" d="M1126,456.45a1,1,0,0,1,1-1c-.85,1.15,1,2.31,0,3.45l-2.29.08-.16-.47C1124.43,457.4,1125.66,457.25,1126,456.45Z" transform="translate(-1051.45 -371.86)"/><path class="cls-15" d="M1135,435.89l.56-3.44.37,0,.16,0,.16,2.41-.16,1c-.62,1-.59,2.27-1.61,3A8.16,8.16,0,0,1,1135,435.89Z" transform="translate(-1051.45 -371.86)"/><path class="cls-9" d="M1138,457.42a1.54,1.54,0,0,1-1,1.49,2.21,2.21,0,0,0-.41-.59c-.69-.5-1.42-1-.39-1.82C1137.51,455.4,1137.54,456.85,1138,457.42Z" transform="translate(-1051.45 -371.86)"/><path class="cls-16" d="M1128.07,454.88c-1.67-2,.91-2,1.45-3C1129.42,453.08,1130,454.58,1128.07,454.88Z" transform="translate(-1051.45 -371.86)"/><path class="cls-5" d="M1190.92,469.08l-.83.78c-2.24-.32-3.89,1.72-6.09,1.55a2.87,2.87,0,0,1,1.76-3.17,8.82,8.82,0,0,0,3.27-2.88c1.38.11,1.44,1.27,1.76,2.22A1.53,1.53,0,0,0,1190.92,469.08Z" transform="translate(-1051.45 -371.86)"/><path class="cls-5" d="M1174.56,470.92c.88-1.24.2-2.67.47-4,3.52.27,4.63.72,2.46,6l-2-.09a1,1,0,0,0-.91-1Z" transform="translate(-1051.45 -371.86)"/><path class="cls-7" d="M1175.54,472.84l2,.09,0,1c-1.34,0-2,.9-2.73,1.84-1.3,1.65-2.37,3.62-4.73,4.06l0-1.44v0l.52-.51h0a1,1,0,0,0,1-.47,1.09,1.09,0,0,0,.52-1.07l.45-.43C1174.44,475.84,1174.43,473.78,1175.54,472.84Z" transform="translate(-1051.45 -371.86)"/><path class="cls-5" d="M1178.47,457.9a2.6,2.6,0,0,1,1.49-2.08c1.21.06,2.1.42,2,1.88,0,.83-.29,1.49-1.17,1.65C1179.64,459.57,1178.66,459.35,1178.47,457.9Z" transform="translate(-1051.45 -371.86)"/><path class="cls-7" d="M1184,471.4c2.21.17,3.85-1.87,6.09-1.55a5.86,5.86,0,0,1-3.09,2l-4.52.63Z" transform="translate(-1051.45 -371.86)"/><path class="cls-15" d="M1181.82,466.87a8,8,0,0,1,7.12-2.31l0,.24C1186.38,464.82,1184.39,466.84,1181.82,466.87Z" transform="translate(-1051.45 -371.86)"/><path class="cls-10" d="M1189,464.8l0-.24a4.68,4.68,0,0,1,3.1.37c0,1.09.1,2.2-1.25,2.64-.32-1-.38-2.11-1.76-2.22Z" transform="translate(-1051.45 -371.86)"/><path class="cls-7" d="M1181.27,472.44c-.3.55-.51,1.36-1.3.43A1.39,1.39,0,0,1,1181.27,472.44Z" transform="translate(-1051.45 -371.86)"/><path class="cls-5" d="M1113,415.43q0,.24,0,.47l-1.51,1-2.49-1.51c-.95-1.4-1.15-3.48-3.47-3.6-.46,0-.57-.6-.41-1a2,2,0,0,1,1.63-1.34,1,1,0,0,1,1.17.63c.22.68-.21,1.83,1.18,1.7l3.37,1.14q0,.48,0,1C1111.61,414.75,1112.45,415,1113,415.43Z" transform="translate(-1051.45 -371.86)"/><path class="cls-7" d="M1109,415.41l2.49,1.51q0,.25,0,.5h0a7.59,7.59,0,0,1-2.12.34c-.68-.08-1.53-.38-1.65-1.21S1108.33,415.51,1109,415.41Z" transform="translate(-1051.45 -371.86)"/><path class="cls-15" d="M1105,417.44a7.7,7.7,0,0,1-1-7.07C1103.42,412.85,1104.91,415,1105,417.44Z" transform="translate(-1051.45 -371.86)"/><path class="cls-12" d="M1113,422.92a4.62,4.62,0,0,1-2.54-.58c.13-.83.54-1.4,1.45-1.27C1113,421.23,1113.12,422,1113,422.92Z" transform="translate(-1051.45 -371.86)"/><path class="cls-7" d="M1111.49,417.42l.63.17c-.36.43-.46,0-.62-.19Z" transform="translate(-1051.45 -371.86)"/><path class="cls-8" d="M1215.47,427.83l-4.43.09c-.57-.29-.52-.83-.54-1.34l1-.16c1.73-.34,3.24-.89,2.87-3.15a12,12,0,0,1,3.44-2c.32,1.44,2.49.57,2.7,2.16a1.1,1.1,0,0,1-.53,1c-.61-1.46-1.18.81-1.78,0C1215.62,424.21,1215.43,425.93,1215.47,427.83Z" transform="translate(-1051.45 -371.86)"/><path class="cls-5" d="M1112.64,471.87l2.38,1c-.27,1.24-.66,2.16-2.31,1.76a8.25,8.25,0,0,0-2.64.24C1110,473,1111.09,472.26,1112.64,471.87Z" transform="translate(-1051.45 -371.86)"/><path class="cls-10" d="M1127.48,478.65a2.65,2.65,0,0,0-2.46-.2,11.46,11.46,0,0,1,1.44-3.54l1.55,0A9.65,9.65,0,0,0,1127.48,478.65Z" transform="translate(-1051.45 -371.86)"/><path class="cls-7" d="M1128,475l-1.55,0,.07-1.15c1.79.1,3.59-.5,5.38.17.56.21,1.1.3,1.27,1C1131.45,474.37,1129.72,474,1128,475Z" transform="translate(-1051.45 -371.86)"/><path class="cls-7" d="M1093.18,465.1l1.86-.82a15.52,15.52,0,0,0,6-3.3.81.81,0,0,1,.92.44c-.91,1.5-3,1.82-3.65,3.56-.17.43-.68.42-1.1.26-1.69-.67-2.86.44-4,1.29a3.53,3.53,0,0,1-2.22.92l-1,0v-.51l0-.23.52-.28,1-.43.56-.43h0l.92-.48Z" transform="translate(-1051.45 -371.86)"/><path class="cls-10" d="M1090,466.9v.51a1.4,1.4,0,0,1-1.49.94c-3.23-1-5-.57-6.06,1.65l-2.32-.08c1-2.34,2.73-3.17,5.19-2.9a21.31,21.31,0,0,0,3.17-.11Z" transform="translate(-1051.45 -371.86)"/><path class="cls-7" d="M1077.09,452.94l-.57-1.56q0-.22,0-.44a1.92,1.92,0,0,0,2.07-1.29c1.06.49.75,1.44.76,2.28Z" transform="translate(-1051.45 -371.86)"/><path class="cls-13" d="M1090.53,466.4l-.52.28.4-.88Z" transform="translate(-1051.45 -371.86)"/><path class="cls-5" d="M1146.6,460.46l-.2,2-.39.43h0c-1.12-.11-2.45.35-3.07-1.12l.06-1.4a1.06,1.06,0,0,1,.32-.08Z" transform="translate(-1051.45 -371.86)"/><path class="cls-15" d="M1153.24,446.39a11.73,11.73,0,0,1,6.28-3.5l2.48.05c-2.51.86-5.19,1.36-7,3.56Z" transform="translate(-1051.45 -371.86)"/><path class="cls-14" d="M1147,453.46l0-.62.45-.46.06.05A1.08,1.08,0,0,1,1147,453.46Z" transform="translate(-1051.45 -371.86)"/><path class="cls-14" d="M1153,452.9l-.47.55Z" transform="translate(-1051.45 -371.86)"/><path class="cls-4" d="M1202.43,425.37a5.25,5.25,0,0,0,1.06-3.45l0,0a.86.86,0,0,0,.44-1c.11-1.47,1-2.87.41-4.4l1.64-1.56c1.1-.36,2.26-.63,1.46-2.28-.19-.4.12-1,.62-1.23,1.14.35.74,2.58,1.84,2.19,1.28-.46.32-2.17.58-3.3a2.75,2.75,0,0,0,0-.49c2.23,1.55.56,3.4.4,5.13-2.07,1.9-2.15,4.61-2.9,7,0,1,.87,1.06,1.42,1.47q0,.48,0,1C1206.93,423.46,1204.8,425.23,1202.43,425.37Z" transform="translate(-1051.45 -371.86)"/><path class="cls-16" d="M1204,428.89a4.72,4.72,0,0,1-.25-1.64,1.55,1.55,0,0,1,1.57-1.25c.7,0,1.34.16,1.5.94s-.42,1.13-1,1.51a2.7,2.7,0,0,1-1.85.44Z" transform="translate(-1051.45 -371.86)"/><path class="cls-12" d="M1209.45,424.4q0-.48,0-1l1.25-.47c0,1.21,2.17,1.91.85,3.45l-1,.16C1209.44,426.19,1209.35,425.34,1209.45,424.4Z" transform="translate(-1051.45 -371.86)"/><path class="cls-16" d="M1142.45,429.85c-.78.36-1.72,1.21-2.29-.06-.49-1.1.47-1.34,1.35-1.51s.76-1,1.15-1.47c.86-1.09,1.89-1.66,2.82,0Z" transform="translate(-1051.45 -371.86)"/><path class="cls-5" d="M1142.45,429.85l3-3c0,.44.1.87.58,1.08l-1.39,2.16-1.18.31A1.14,1.14,0,0,1,1142.45,429.85Z" transform="translate(-1051.45 -371.86)"/><path class="cls-9" d="M1148.93,415.89l.71-6,.95,1a1.4,1.4,0,0,0,0,1.92,4.77,4.77,0,0,0-1.06,3Z" transform="translate(-1051.45 -371.86)"/><path class="cls-14" d="M1148,417.42q0-.47,0-.93l.45-.1A1,1,0,0,1,1148,417.42Z" transform="translate(-1051.45 -371.86)"/><path class="cls-3" d="M1226.5,449.39c-.1-.76.35-1.77-.9-2,0-.57.54-.78.88-1.12,1-.13,1.73-1.21,2.88-.9.88.27.16,1.72,1.6,1.84-.74-1.31,3.39-2.77-.45-3.86l.83-2.47c1.06.08,1.63-1.37,2.82-.9l2.3,3a15.35,15.35,0,0,1-6.69,7Z" transform="translate(-1051.45 -371.86)"/><path class="cls-12" d="M1236.46,443l-2.3-3c1.26-.43,1.22-2.15,2.61-2.5.59.6-.2,2.05,1.22,2.26l0,.61C1238,441.5,1237.85,442.61,1236.46,443Z" transform="translate(-1051.45 -371.86)"/><path class="cls-15" d="M1238,440.35l0-.61c1.68-2.86-.31-4.5-2-6.23,3.47.71,4.43,2.17,3.59,5.48C1239.33,439.78,1239,440.39,1238,440.35Z" transform="translate(-1051.45 -371.86)"/><path class="cls-7" d="M1226.5,449.39l3.27.58c-1.51,1-2.84,2.31-4.72,2.61C1225.37,451.45,1227,450.92,1226.5,449.39Z" transform="translate(-1051.45 -371.86)"/><path class="cls-9" d="M1173.43,460.42l.52,0q0,.72,0,1.44c-1.18,0-1.61,1.31-2.64,1.59l-.86-1C1171.37,461.66,1171.8,460.15,1173.43,460.42Z" transform="translate(-1051.45 -371.86)"/><path class="cls-15" d="M1167.5,458.38a4.13,4.13,0,0,1,0-5.7Z" transform="translate(-1051.45 -371.86)"/><path class="cls-14" d="M1162,442.94l-2.48-.05c.52-.52,1.31-.75,1.6-1.5,1.59-.15,3.2,1.19,4.77-.09.1.65,1.13.13,1.13.91A11.63,11.63,0,0,1,1162,442.94Z" transform="translate(-1051.45 -371.86)"/><path class="cls-7" d="M1162.06,481.43c.05,1.76,1.54,3.26.94,5.14l-2-.65c-.14-1.18-.52-2.13-2-2,.18-2.32-1.42-3.65-2.84-5.09a5.71,5.71,0,0,1,4.07,1.88c.63.57.73.33.85-.27l.44,0Z" transform="translate(-1051.45 -371.86)"/><path class="cls-16" d="M1168.63,478.91c-.5.41-1,.79-1.5,1.24s-.59,1.51-1.38.84a1.54,1.54,0,0,1,.11-2.06,8,8,0,0,1,5.08-3l-.46,2h0l-.52.51v0l-1,0Z" transform="translate(-1051.45 -371.86)"/><path class="cls-16" d="M1174.56,470.92q0,.47.06.94a1.93,1.93,0,0,1-2.09,1.69l-1-.16C1171.9,471.78,1172.68,470.68,1174.56,470.92Z" transform="translate(-1051.45 -371.86)"/><path class="cls-10" d="M1171.54,473.39l1,.16-.06,2.38-.45.43a1.11,1.11,0,0,0-.52,1.07,1,1,0,0,1-1,.47l.45-2C1170.92,475,1170.16,474,1171.54,473.39Z" transform="translate(-1051.45 -371.86)"/><path class="cls-7" d="M1165.34,475.91l3.16-2.5C1169.12,476.35,1166.86,475.67,1165.34,475.91Z" transform="translate(-1051.45 -371.86)"/><path class="cls-7" d="M1168.49,473.4l.5-.5Z" transform="translate(-1051.45 -371.86)"/><path class="cls-7" d="M1169,472.9l.5-.49Z" transform="translate(-1051.45 -371.86)"/><path class="cls-7" d="M1169.5,472.41l.51-.55Z" transform="translate(-1051.45 -371.86)"/><path class="cls-10" d="M1168.63,478.91l.38-.48Z" transform="translate(-1051.45 -371.86)"/><path class="cls-7" d="M1114.56,440a3.56,3.56,0,0,0,2.88-1.21c.73.15,1.45.56,2.21.11l-.21,1.48a1.83,1.83,0,0,0-2.27-.08A1.84,1.84,0,0,1,1114.56,440Z" transform="translate(-1051.45 -371.86)"/><path class="cls-14" d="M1119.44,440.4l.21-1.48a.41.41,0,0,0,.27-.08q0,.87-.05,1.74A2.11,2.11,0,0,0,1119.44,440.4Z" transform="translate(-1051.45 -371.86)"/><path class="cls-7" d="M1122,453.44l0,1-.5-1A2.78,2.78,0,0,1,1122,453.44Z" transform="translate(-1051.45 -371.86)"/><path class="cls-7" d="M1185.6,434a.65.65,0,0,0-.18.25l-.6.55-3.29,3.48c.33-1.44-1.38-2-1.46-3.21l2.24-2c1.1.64,2.32.14,3.46.39l0,.28A.84.84,0,0,0,1185.6,434Z" transform="translate(-1051.45 -371.86)"/><path class="cls-2" d="M1157.54,391.4l0,1c-1.73-.18-3,.93-4.53,1.48h-.46a1,1,0,0,0-1.05-1,.14.14,0,0,1,0-.23l.09-2.23.77-.07,1.25,0C1154.89,390.67,1156.59,389.56,1157.54,391.4Z" transform="translate(-1051.45 -371.86)"/><path class="cls-16" d="M1153,393.91c1.49-.55,2.8-1.66,4.53-1.48a.35.35,0,0,1,0,.27q0,1.6-.06,3.2L1155,396C1153.88,395.72,1153.58,394.67,1153,393.91Z" transform="translate(-1051.45 -371.86)"/><path class="cls-5" d="M1150.58,411l-.95-1q0-.51,0-1a.55.55,0,0,0,0-1l-.14-.5c1.52-.25,2.88-1.22,4.5-1-.66,1.43-2.13,2.36-2.49,4Z" transform="translate(-1051.45 -371.86)"/><path class="cls-9" d="M1155,396l2.47-.1c.81.53,1.89-.18,2.65.59l-.11.91-.48.59-.56.26c-.77-1-1.42-1-1.95.21h0l-.58,0a2.79,2.79,0,0,1-.46-.1c0-.72,0-1.38-1-1.39Z" transform="translate(-1051.45 -371.86)"/><path class="cls-3" d="M1155,396.93c1,0,1,.67,1,1.39a3.13,3.13,0,0,1-2,.62Z" transform="translate(-1051.45 -371.86)"/><path class="cls-10" d="M1151.46,392.88a1,1,0,0,1,1.05,1c-.65.29-.35,1.4-1.26,1.47Z" transform="translate(-1051.45 -371.86)"/><path class="cls-5" d="M1225,412.93l.2-.47Z" transform="translate(-1051.45 -371.86)"/><path class="cls-5" d="M1083.06,477.85l0-1c.07-2.49-1.92-2.9-3.63-3.59q0-.42,0-.85a3.5,3.5,0,0,0,2.11-.57,1.05,1.05,0,0,0,1,.52l1.79,1.56a5.36,5.36,0,0,0,5.7-.52c.94,0,1.4-.79,2-1.29,1.6-1.27,3.36-2,5.42-1.24l.05,1.52,0,0a.86.86,0,0,0-1,.49l-.21,0h-.21l-.59.51,0,0c-.45,0-.85,0-1,.53l0,0-.5.4-1.36,1.14-.68.49,0,0c-1.4.07-3.37-.71-3,2h0a7,7,0,0,0-4,.46Z" transform="translate(-1051.45 -371.86)"/><path class="cls-10" d="M1085,478.39a7,7,0,0,1,4-.46c-3.39.56-3,3.78-4.13,5.91-2-.4-1.73-2-1.87-3.43C1084.59,480.63,1085.22,479.93,1085,478.39Z" transform="translate(-1051.45 -371.86)"/><path class="cls-7" d="M1097.5,472.43l-.05-1.52c1.86-1.78,4.51-1.06,6.61-2.1l.93.6a1.82,1.82,0,0,0,0,.28A11.19,11.19,0,0,0,1097.5,472.43Z" transform="translate(-1051.45 -371.86)"/><path class="cls-10" d="M1089,477.94c-.35-2.71,1.62-1.93,3-2A4,4,0,0,1,1089,477.94Z" transform="translate(-1051.45 -371.86)"/><path class="cls-7" d="M1096.52,472.91a.86.86,0,0,1,1-.49A.91.91,0,0,1,1096.52,472.91Z" transform="translate(-1051.45 -371.86)"/><path class="cls-4" d="M1094.51,474c.18-.49.58-.56,1-.53C1095.35,473.91,1094.91,473.89,1094.51,474Z" transform="translate(-1051.45 -371.86)"/><path class="cls-4" d="M1094,474.32l.5-.4Z" transform="translate(-1051.45 -371.86)"/><path class="cls-4" d="M1095.51,473.45l.59-.51Z" transform="translate(-1051.45 -371.86)"/><path class="cls-10" d="M1092,476l.68-.49Z" transform="translate(-1051.45 -371.86)"/><path class="cls-16" d="M1188.47,409.34c.27-1.24,1.35-.76,2.09-1,1.82.26,2.73,1.1,1.91,3-.87.36-2.18.07-2.32,1.54l-.09.6c-1-.13-2.47.18-1.62-1.8A6.42,6.42,0,0,0,1188.47,409.34Z" transform="translate(-1051.45 -371.86)"/><path class="cls-8" d="M1190.06,413.52l.09-.6.8,0,0,1.05Z" transform="translate(-1051.45 -371.86)"/><path class="cls-15" d="M1190.79,467.57c1.34-.44,1.28-1.55,1.25-2.64,1.56.35,1,1.32.62,2.19a4.71,4.71,0,0,1-1.73,2A1.53,1.53,0,0,1,1190.79,467.57Z" transform="translate(-1051.45 -371.86)"/><path class="cls-12" d="M1081.48,471.89a3.5,3.5,0,0,1-2.11.57c-.73-1.14.35-1.74.75-2.55l2.32.08C1082.57,470.86,1081.79,471.25,1081.48,471.89Z" transform="translate(-1051.45 -371.86)"/><path class="cls-3" d="M1114.73,492.64l-.72.3a1.38,1.38,0,0,1-1-1.5c.2-2.77-1.13-1.8-2.4-1a1.06,1.06,0,0,1-1.18.45,1.71,1.71,0,0,1,1.34-1.81c1.73-.5,1.38-1.44.63-2.58-1.29-2-2.87-.86-4.39-.5-.16-.93.66-1.38,1-2.05.47-.15,1-.49,1.41-.43,2.77.41,3.71-1.23,4.11-3.53l.63-.57c.9.15,2.14-.56,2.64.48s-1.16,1.6-1.27,2.66c-1.14,2.35-2.39,4.61-.2,7.15C1116.09,490.56,1115.31,491.72,1114.73,492.64Z" transform="translate(-1051.45 -371.86)"/><path class="cls-5" d="M1107,486c1.52-.36,3.1-1.45,4.39.5.76,1.14,1.1,2.08-.63,2.58a1.71,1.71,0,0,0-1.34,1.81l-.12,0h-.13c-2.3-.06-3.22-1.36-3.2-3.53h0l.48-.59Z" transform="translate(-1051.45 -371.86)"/><path class="cls-2" d="M1106,487.4c0,2.16.89,3.47,3.2,3.53a2.17,2.17,0,0,1-3.57.26C1104.21,489.87,1104.76,488.56,1106,487.4Z" transform="translate(-1051.45 -371.86)"/><path class="cls-2" d="M1106.46,486.8l-.48.59Z" transform="translate(-1051.45 -371.86)"/><path class="cls-4" d="M1104.05,468.81c-2.09,1-4.75.32-6.61,2.1-2.07-.73-3.82,0-5.42,1.24-.63.5-1.09,1.27-2,1.29-.21-.84-.67-1.86-1.55-1.39-1.36.72-3.7-.66-4.15,1.91l-1.79-1.56c.81-1.34,2.09-1.55,3.49-1.48,1.76.36,4.55-1.59,5-3.48a3.53,3.53,0,0,0,2.22-.92c1.17-.84,2.34-2,4-1.29.41.16.92.17,1.1-.26.7-1.74,2.74-2.06,3.65-3.56.36-.26.67-.87.36-1-2.38-1-1.91-3.18-2.34-5,1.43.1,2.1-.56,2-2,1.1-.09,1-.93,1-1.67a1.2,1.2,0,0,1,1,1l0,1.66h0c-1.36-.09-.71,1.56-1.62,1.87-.58.2-1.65.17-1.23,1.09s1.21.13,1.85-.14c.25-.1.62.09.93.15l.1,1c-.67,1.19-.26,2,.88,2.6.09.54.34.91.94.94,1,1.35,1,3,1.59,4.51h-1c-.39-1.3-1.28-1.82-2.46-1.18s-1.37,1.6-.38,2.67A2.91,2.91,0,0,1,1104.05,468.81Z" transform="translate(-1051.45 -371.86)"/><path class="cls-5" d="M1104.05,468.81a2.91,2.91,0,0,0-.38-.91c-1-1.07-.76-2.06.38-2.67s2.07-.12,2.46,1.18c-.12,1.2-1.2,1.91-1.52,3Z" transform="translate(-1051.45 -371.86)"/><path class="cls-4" d="M1201.42,409.79l1.63-1.69,2,0c.72,1.58,2.59.2,3.48,1.35a1.08,1.08,0,0,1-.56,1c-1.56.89-3.33.57-5,.84-.21-.24-.36-.17-.49.09l-.41.87-.58,1.2-.06-.05Q1201.44,411.6,1201.42,409.79Z" transform="translate(-1051.45 -371.86)"/><path class="cls-5" d="M1208,410.47a1.08,1.08,0,0,0,.56-1l1.87-.06a.67.67,0,0,1,.11.36,2.76,2.76,0,0,1,0,.49c-.25,1.13.7,2.84-.58,3.3-1.1.4-.7-1.83-1.84-2.19Z" transform="translate(-1051.45 -371.86)"/><path class="cls-7" d="M1208,422c.75-2.44.83-5.15,2.9-7-.1,2.48-2,4.45-2,7Z" transform="translate(-1051.45 -371.86)"/><path class="cls-7" d="M1210.41,409.43l-1.87.06c-.89-1.15-2.76.23-3.48-1.35A6.09,6.09,0,0,1,1210.41,409.43Z" transform="translate(-1051.45 -371.86)"/><path class="cls-2" d="M1170,418.9c2.39-.17,4.7.91,7.1.51-.75,2,1,3.32,1.32,5l-1,.36-2,.06a.72.72,0,0,0-.47,0l-1.44-.59c-1.12-1.68-2.77-.63-4.18-.81-.75-.13-1.52-.22-1.9-1v-.51c1.76-.68.38-2,.6-3C1168.73,418.38,1169.37,418.94,1170,418.9Z" transform="translate(-1051.45 -371.86)"/><path class="cls-10" d="M1167.5,421.91v.51c-.39-.28-.78-.57-1.18-.84-2.55-1.68-2.62-2.7-.31-4.76l2,.17.92.5.56.45.56,1c-.64,0-1.28-.52-1.91,0a1,1,0,0,0-1.66-.11c-.65.66-.16,1.17.34,1.62A2,2,0,0,1,1167.5,421.91Z" transform="translate(-1051.45 -371.86)"/><path class="cls-7" d="M1169.39,423.47c1.41.19,3.06-.87,4.18.81C1172.08,424.52,1170.62,424.58,1169.39,423.47Z" transform="translate(-1051.45 -371.86)"/><path class="cls-13" d="M1168,417l-2-.17c.57-.59,1.3-.38,2-.39Z" transform="translate(-1051.45 -371.86)"/><path class="cls-13" d="M1175,424.87a.72.72,0,0,1,.47,0C1175.33,425.23,1175.18,425.25,1175,424.87Z" transform="translate(-1051.45 -371.86)"/><path class="cls-12" d="M1144.29,400.37c-.29,1.39-2.66.71-2.51,2.54l-3.37-.61.07-.92c0-1.3.22-2.44,1.54-3.06.87.26.74,1.77,2,1.59C1142.66,400.6,1143.53,400.23,1144.29,400.37Z" transform="translate(-1051.45 -371.86)"/><path class="cls-10" d="M1140,398.33c-1.32.61-1.59,1.75-1.54,3.06-2.38,0-1.18-1.79-1.46-2.85a5.64,5.64,0,0,1,3-1.56Z" transform="translate(-1051.45 -371.86)"/><path class="cls-4" d="M1140,398.33l0-1.35,1.44-.11.54,0h0c-.16,1,.8,2,0,3C1140.77,400.1,1140.9,398.59,1140,398.33Z" transform="translate(-1051.45 -371.86)"/><path class="cls-7" d="M1137,398.53c.28,1.05-.92,2.87,1.46,2.85l-.07.92c-1.15.12-2.14-.1-2.47-1.38A1.81,1.81,0,0,1,1137,398.53Z" transform="translate(-1051.45 -371.86)"/><path class="cls-10" d="M1142,396.91l-.54,0a1,1,0,0,1,.15-.41Z" transform="translate(-1051.45 -371.86)"/><path class="cls-9" d="M1078.59,449.64a1.92,1.92,0,0,1-2.07,1.29l-.48,0,0,0a.92.92,0,0,0-1-1h0c-1.14-4.51-.91-5,2.54-5.06h0l0,1.12c-.57.35-1.6.3-1.44,1.31s1.37.58,1.94,1.09a1.44,1.44,0,0,0,.59,1.19Z" transform="translate(-1051.45 -371.86)"/><path class="cls-10" d="M1077.5,446l0-1.12c1-.27,2.22,0,2.45-1.47.59.19.93-.18,1.23-.59s.94-1.24,1.55-.65a1.39,1.39,0,0,1-.34,2.16,21.23,21.23,0,0,0-3,3.11Z" transform="translate(-1051.45 -371.86)"/><path class="cls-12" d="M1077.5,446l1.93,1.43-.35,1-1.08-.05c-.57-.51-1.77-.06-1.94-1.09S1076.93,446.33,1077.5,446Z" transform="translate(-1051.45 -371.86)"/><path class="cls-3" d="M1078,448.38l1.08.05c0,.45,0,.9-.49,1.14A1.43,1.43,0,0,1,1078,448.38Z" transform="translate(-1051.45 -371.86)"/><path class="cls-8" d="M1128,475c1.71-.94,3.44-.58,5.17-.06a6.88,6.88,0,0,1,6,4.45l-.66.06c-.77,0-1.56,0-1.86.87s.21,1.05.87,1.17l-.07,1.53a33.36,33.36,0,0,0-10-4.34A9.66,9.66,0,0,1,1128,475Z" transform="translate(-1051.45 -371.86)"/><path class="cls-5" d="M1137.51,481.46c-.66-.12-1.13-.44-.87-1.17s1.1-.89,1.86-.87A1.82,1.82,0,0,1,1137.51,481.46Z" transform="translate(-1051.45 -371.86)"/><path class="cls-11" d="M1143.37,482.91a.74.74,0,0,1,.22-.41,1.18,1.18,0,0,1,.92.88l-1,.07Z" transform="translate(-1051.45 -371.86)"/><path class="cls-4" d="M1156.17,478.81c1.42,1.43,3,2.76,2.84,5.09.6.73.47,2.18,2,2l2,.65v.08l0,1.53h0a3.13,3.13,0,0,0-1.9,3,2.82,2.82,0,0,1-2.58,2.82,1.35,1.35,0,0,1-1.13-.67,28,28,0,0,1,1.51-4.85c.25-.48.37-1.42-.3-1.8s-1.23.24-1.79.55c-.73.41-1.24.92-.36,1.7v.51c-.32.5-1,.75-1,1.48l-.51.52c-.55.73-1.34.43-2.06.47.37-1.67-.58-2-1.94-1.89.13-.47.22-1,.38-1.41.54-1.51,1.09-3-.64-4.15a2.83,2.83,0,0,0-4,.44c-.6.64-1.18.32-1.78,0l0-1.6.07-2.39,1.45-.8,1.93-.28a3.81,3.81,0,0,0,6.26,0,2,2,0,0,0,.08-2.33,1.81,1.81,0,0,0-2-1c-1.6.26-2.84,1.21-4.24,1.87-.64-.52-.85-1.6-2-1.52h0c.16-1.45-.83-1.8-2-2a5.55,5.55,0,0,1-2.62-4.47c-.77-3,.31-5.77,1-8.6.62,1.47,1.95,1,3.07,1.12l-.15.54c-1.56,2.06-1.16,4,.33,5.91a11.73,11.73,0,0,0,7.24,5.18l.3.14a.8.8,0,0,0,.24.24l.93.63,1.12.88Z" transform="translate(-1051.45 -371.86)"/><path class="cls-15" d="M1156.17,478.81l-.15-2.37c1.67,1.35,4.14,1.69,5.08,4-.13.59-.23.83-.85.27A5.71,5.71,0,0,0,1156.17,478.81Z" transform="translate(-1051.45 -371.86)"/><path class="cls-13" d="M1154.89,475.57l-.93-.63h1Z" transform="translate(-1051.45 -371.86)"/><path class="cls-5" d="M1178.44,424.43c-.31-1.71-2.07-3-1.32-5h1.37c.11.88.48,1.79,1.48,1.37s1.16-1.45.4-2.4l1.38-1.9c1.18-.32,2.25.29,3.39.41l.46,1c-1.11.85.75,2.3-.62,3.09-3.14,1.22-3.43,1.74-1.92,3.39,1.74,3.81,1.74,3.81-1,4.08h0c-.07-.79.39-1.86-1-2C1181,424.7,1179.88,424.34,1178.44,424.43Z" transform="translate(-1051.45 -371.86)"/><path class="cls-16" d="M1180.36,418.38c.76,1,.67,2-.4,2.4s-1.37-.49-1.48-1.37v0l1.17-1Z" transform="translate(-1051.45 -371.86)"/><path class="cls-2" d="M1178.48,419.41h-1.14l.14-1.23,1,.21v1Z" transform="translate(-1051.45 -371.86)"/><path class="cls-5" d="M1178.5,419.39v-1h1.15Z" transform="translate(-1051.45 -371.86)"/><path class="cls-2" d="M1165.88,441.3c-1.57,1.28-3.18-.06-4.77.09-.57-1.82-1.16-3.65.87-5C1164.66,436.32,1166.07,438.09,1165.88,441.3Z" transform="translate(-1051.45 -371.86)"/><path class="cls-10" d="M1157.43,493.31a1.36,1.36,0,0,0,1.14.67l-1.15,1.77-4.32.63c-2-1-4.09-.27-6.14-.45l0,0c-.1-.22-.2-.41-.43-.1-3.7-1.09-3.75-.05-3.52-5.41l.93,1.51c.09.86-.24,2.27,1,2.23,2.71-.09,5.68,1.45,8.09-1,.29-.3.79-.7,1-.27.87,1.54,2.06.33,3.08.48Z" transform="translate(-1051.45 -371.86)"/><path class="cls-15" d="M1147,495.93c2,.18,4.15-.52,6.14.45-1.78,0-3.52.72-5.33.25Z" transform="translate(-1051.45 -371.86)"/><path class="cls-3" d="M1077.53,444.88c-3.45.09-3.68.55-2.54,5.06-1.33-.3-2.64-.8-4-.29-.83-.18-1.61-.37-1.54-1.51.05-.89.28-1.61,1.23-1.9a5.28,5.28,0,0,0,2.2-1.48C1074.4,443.23,1076,443.35,1077.53,444.88Z" transform="translate(-1051.45 -371.86)"/><path class="cls-10" d="M1151.53,390.42l-.09,2.23C1151.11,391.9,1149.48,391.09,1151.53,390.42Z" transform="translate(-1051.45 -371.86)"/><path class="cls-10" d="M1153.55,390.39l-1.25,0C1152.73,390,1153.15,389.76,1153.55,390.39Z" transform="translate(-1051.45 -371.86)"/><path class="cls-3" d="M1100,455.41c.43,1.83,0,4,2.34,5,.31.13,0,.74-.36,1a.81.81,0,0,0-.92-.44c-2.62-.43-2.29-2.86-3.06-4.54.19-4,1.6-5.31,5-4.69,0,.74.08,1.58-1,1.67h0c-1-1.28-1.43-1.19-2.49.51h0c-.82.83-.56,1.3.5,1.5Z" transform="translate(-1051.45 -371.86)"/><path class="cls-3" d="M1104,457.4c-.32-.06-.69-.25-.93-.15-.64.26-1.36,1.19-1.85.14s.65-.89,1.23-1.09c.91-.31.26-2,1.62-1.87C1103.8,455.41,1104.66,456.43,1104,457.4Z" transform="translate(-1051.45 -371.86)"/><path class="cls-3" d="M1104,454.44l0-1.66C1104.54,453.34,1104.79,453.9,1104,454.44Z" transform="translate(-1051.45 -371.86)"/><path class="cls-16" d="M1150.58,411l.92-.56c2.88.16,2.94.31,1.44,3l-2.41-.5A1.4,1.4,0,0,1,1150.58,411Z" transform="translate(-1051.45 -371.86)"/><path class="cls-12" d="M1208,410.47l.1.92c-.51.26-.81.83-.62,1.23.8,1.65-.36,1.92-1.46,2.28-.37-1.25-.46-1.32-1.07-.53-.45.59-1,.49-1.54.58l-.87-.83c-.29-.58.75-1.48-.43-1.85l.41-.87a1.15,1.15,0,0,0,.49-.09C1204.65,411,1206.42,411.36,1208,410.47Z" transform="translate(-1051.45 -371.86)"/><path class="cls-16" d="M1203.39,414.95c.55-.09,1.09,0,1.54-.58.61-.79.7-.72,1.07.53l-1.64,1.56A2.09,2.09,0,0,1,1203.39,414.95Z" transform="translate(-1051.45 -371.86)"/><path class="cls-10" d="M1201.42,409.79q0,1.81,0,3.62C1199.87,412.22,1199.66,411,1201.42,409.79Z" transform="translate(-1051.45 -371.86)"/><path class="cls-10" d="M1202.09,412.26c1.18.37.14,1.27.43,1.85l-1-.65Z" transform="translate(-1051.45 -371.86)"/><path class="cls-14" d="M1203.95,420.85a.86.86,0,0,1-.44,1A1,1,0,0,1,1203.95,420.85Z" transform="translate(-1051.45 -371.86)"/><path class="cls-10" d="M1142,399.92c.8-1-.16-2,0-3,2.19-.59,2.82,1.39,4,2.44l-1.72,1C1143.53,400.23,1142.66,400.6,1142,399.92Z" transform="translate(-1051.45 -371.86)"/><path class="cls-10" d="M1146,399.38a.86.86,0,0,1,1,.54C1146.57,399.9,1146.2,399.82,1146,399.38Z" transform="translate(-1051.45 -371.86)"/><path class="cls-7" d="M1146.51,476.9c1.11-.07,1.31,1,2,1.52l-.06,1.43-1.93.28Q1146.49,478.51,1146.51,476.9Z" transform="translate(-1051.45 -371.86)"/><path class="cls-7" d="M1144.56,474.87c1.12.23,2.11.58,2,2Z" transform="translate(-1051.45 -371.86)"/><path class="cls-10" d="M1146.18,469.37c-1.49-1.89-1.88-3.85-.33-5.91Z" transform="translate(-1051.45 -371.86)"/><path class="cls-4" d="M1146,462.92l.39-.43a.48.48,0,0,1,0,.36Z" transform="translate(-1051.45 -371.86)"/><path class="cls-5" d="M1144,491.94l-.93-1.51-.15-2c1.24-.87.18-3.09,2.1-3.56.6.29,1.17.6,1.78,0a2.83,2.83,0,0,1,4-.44c1.74,1.13,1.19,2.64.64,4.15-.16.46-.26.94-.38,1.41l-.92.46c-1.84.28-4.33-1.14-5.08,2Z" transform="translate(-1051.45 -371.86)"/><path class="cls-4" d="M1182,428.43c2.79-.26,2.79-.26,1-4.08a3.08,3.08,0,0,0,2.44-1c.34,1.12,1.14.69,1.85.56-.59,1.63-.29,3.3-.29,5,.17,1.37-.43,2.62-.61,3.94v0a2.76,2.76,0,0,0-.45,0,3.16,3.16,0,0,0-3.54-1.34A8,8,0,0,1,1182,428.43Z" transform="translate(-1051.45 -371.86)"/><path class="cls-12" d="M1182.45,431.56a3.16,3.16,0,0,1,3.54,1.34l-.22.59c-1.14-.25-2.37.25-3.46-.39Q1182.38,432.32,1182.45,431.56Z" transform="translate(-1051.45 -371.86)"/><path class="cls-4" d="M1181,426.44c1.39.13.93,1.19,1,2A2.85,2.85,0,0,1,1181,426.44Z" transform="translate(-1051.45 -371.86)"/><path class="cls-14" d="M1184.82,434.85l.6-.55.07.59Z" transform="translate(-1051.45 -371.86)"/><path class="cls-7" d="M1126,456.45c-.29.81-1.52,1-1.43,2l-1.26-1.86.28-.23c.5.25,1,.81,1.54.09Z" transform="translate(-1051.45 -371.86)"/><path class="cls-7" d="M1123.45,454.91l.16,1a2.36,2.36,0,0,0-.07.49l-.28.23a4.5,4.5,0,0,1-1.25-2.23Z" transform="translate(-1051.45 -371.86)"/><path class="cls-5" d="M1215.47,427.83c0-1.91.16-3.62,2.76-3.35l-.6,2.41-.08.93Z" transform="translate(-1051.45 -371.86)"/><path class="cls-16" d="M1217.62,426.89l.6-2.41c.6.8,1.18-1.47,1.79,0C1219.45,425.51,1219,426.64,1217.62,426.89Z" transform="translate(-1051.45 -371.86)"/><path class="cls-8" d="M1119.91,438.84a.41.41,0,0,1-.27.08c-.76.45-1.48,0-2.21-.11l.25-2.07c.39-.39.3-.88.3-1.36h0l1.5,0c1,.1,1.06.83,1.07,1.59Z" transform="translate(-1051.45 -371.86)"/><path class="cls-7" d="M1119.47,435.35l-1.5,0c.38-2,2-1.88,3.39-2,1.21-.06,1.43.82,1.48,1.78l-.33.21C1121.5,435,1120.53,433.3,1119.47,435.35Z" transform="translate(-1051.45 -371.86)"/><path class="cls-7" d="M1118,435.39c0,.47.09,1-.3,1.36C1117.63,436.26,1117.4,435.73,1118,435.39Z" transform="translate(-1051.45 -371.86)"/><path class="cls-15" d="M1163,488.18l0-1.53C1163.51,487.15,1163.67,487.66,1163,488.18Z" transform="translate(-1051.45 -371.86)"/><path class="cls-9" d="M1191,412.9l-.8,0c.14-1.47,1.45-1.18,2.32-1.54l0,1.07v0l-1,.39Z" transform="translate(-1051.45 -371.86)"/><path class="cls-3" d="M1132.51,426.48l-2.51,1.44c-1.23-2.06,1-3.43,1.06-5.23L1132,424C1131.67,424.92,1131.5,425.82,1132.51,426.48Z" transform="translate(-1051.45 -371.86)"/><path class="cls-3" d="M1130.23,421.89l-.74-.51Z" transform="translate(-1051.45 -371.86)"/><path class="cls-3" d="M1130,427.91c-.2,1.16.41,2.41-.41,3.49a10.54,10.54,0,0,0-1.43-3.52Z" transform="translate(-1051.45 -371.86)"/><path class="cls-3" d="M1157,398.46c.53-1.2,1.18-1.25,1.95-.21Z" transform="translate(-1051.45 -371.86)"/><path class="cls-3" d="M1159.52,398l.48-.59v.51A2.94,2.94,0,0,1,1159.52,398Z" transform="translate(-1051.45 -371.86)"/><path class="cls-3" d="M1156.46,398.42l.58,0C1156.82,399,1156.64,398.78,1156.46,398.42Z" transform="translate(-1051.45 -371.86)"/><path class="cls-3" d="M1147.46,452.38l-.45.46-.9-.07c-.34-.46-.66-.93-1-1.37-.78-.92-1.48-2-1-3.15s1.84-.77,2.87-.77C1147.89,449,1147.41,450.74,1147.46,452.38Z" transform="translate(-1051.45 -371.86)"/><path class="cls-15" d="M1146.57,495.85c.23-.31.33-.12.43.1A.82.82,0,0,1,1146.57,495.85Z" transform="translate(-1051.45 -371.86)"/><path class="cls-9" d="M1121.71,466.61l.82-.38c2.41.18,2.25,1.53,1.46,3.18-.45.23-.49.66-.53,1.09C1120.6,470.24,1121.68,468.19,1121.71,466.61Z" transform="translate(-1051.45 -371.86)"/><path class="cls-3" d="M1085,478.39c.24,1.54-.39,2.23-2,2l-.41-.54c.61-.57.3-1.35.44-2Z" transform="translate(-1051.45 -371.86)"/><path class="cls-6" d="M1136.22,434.86l-.16-2.41a1.27,1.27,0,0,1,.45,0C1136.39,433.23,1136.73,434.1,1136.22,434.86Z" transform="translate(-1051.45 -371.86)"/><path class="cls-3" d="M1211.53,426.42c1.32-1.54-.82-2.24-.85-3.45,1.27-.22,2.44.69,3.72.3C1214.78,425.53,1213.27,426.07,1211.53,426.42Z" transform="translate(-1051.45 -371.86)"/><path class="cls-9" d="M1149.64,407.92a.55.55,0,0,1,0,1Q1149.64,408.41,1149.64,407.92Z" transform="translate(-1051.45 -371.86)"/><path class="cls-3" d="M1160.12,396.48c-.76-.77-1.84-.06-2.65-.59l.06-3.2C1159.12,393.45,1160.5,394.36,1160.12,396.48Z" transform="translate(-1051.45 -371.86)"/><path class="cls-8" d="M1191.53,412.81l1-.39A.82.82,0,0,1,1191.53,412.81Z" transform="translate(-1051.45 -371.86)"/><path class="cls-16" d="M1230.51,443.34c3.84,1.1-.29,2.56.45,3.86-1.44-.12-.72-1.57-1.6-1.84C1229.44,444.52,1230.14,444,1230.51,443.34Z" transform="translate(-1051.45 -371.86)"/><path class="cls-3" d="M1171.3,463.48c1-.28,1.45-1.56,2.64-1.59l.29,1c-1,1,.08,3.2-2.11,3.42Z" transform="translate(-1051.45 -371.86)"/><path class="cls-8" d="M1187.33,423.92c-.71.13-1.52.57-1.85-.56a3,3,0,0,0-.52-2.4c1.37-.8-.49-2.24.62-3.09,1,1.55,1.08,3.44,1.8,5.1Z" transform="translate(-1051.45 -371.86)"/><path class="cls-3" d="M1075,449.92a.92.92,0,0,1,1,1l-1-.11Z" transform="translate(-1051.45 -371.86)"/><path class="cls-3" d="M1076,450.89l.48,0q0,.22,0,.44Z" transform="translate(-1051.45 -371.86)"/><path class="cls-8" d="M1158.07,450.89c2,1,2,2.15.43,3.54-1.76-.16-3.84.74-5-1.5C1154.85,451.8,1156.07,450.47,1158.07,450.89Z" transform="translate(-1051.45 -371.86)"/><path class="cls-10" d="M1119.47,435.35c1.06-2.05,2-.34,3,.07l-.1.89-1.87.63C1120.53,436.18,1120.46,435.45,1119.47,435.35Z" transform="translate(-1051.45 -371.86)"/><path class="cls-4" d="M1135.9,432.42l-.37,0c0-.69-.27-1.44.42-2Q1135.92,431.45,1135.9,432.42Z" transform="translate(-1051.45 -371.86)"/><path class="cls-13" d="M1093.05,465.07l-.92.48C1092.24,465,1092.6,464.95,1093.05,465.07Z" transform="translate(-1051.45 -371.86)"/><path class="cls-13" d="M1092.09,465.55l-.56.43Z" transform="translate(-1051.45 -371.86)"/><path class="cls-14" d="M1185.77,433.48l.22-.59a2.74,2.74,0,0,1,.45,0l0,1-.66-.11C1185.79,433.67,1185.78,433.58,1185.77,433.48Z" transform="translate(-1051.45 -371.86)"/><path class="cls-12" d="M1223.52,449.58c0,1-.24,1.49-1.12,1.4a1,1,0,0,1-.95-1.21c0-.84.7-1.12,1.32-1.21C1223.73,448.43,1223.36,449.31,1223.52,449.58Z" transform="translate(-1051.45 -371.86)"/><path class="cls-3" d="M1113,415.43c-.53-.39-1.36-.68-.52-1.54C1113.08,414.26,1113,414.86,1113,415.43Z" transform="translate(-1051.45 -371.86)"/><path class="cls-9" d="M1114.08,413.89l.43.47-.36.18Z" transform="translate(-1051.45 -371.86)"/><path class="cls-9" d="M1123.53,456.39a2.36,2.36,0,0,1,.07-.49l1.47.58C1124.52,457.19,1124,456.63,1123.53,456.39Z" transform="translate(-1051.45 -371.86)"/><path class="cls-2" d="M1172.47,475.93l.06-2.38a1.93,1.93,0,0,0,2.09-1.69,1,1,0,0,1,.92,1C1174.43,473.78,1174.44,475.84,1172.47,475.93Z" transform="translate(-1051.45 -371.86)"/><path class="cls-2" d="M1171.5,477.44a1.11,1.11,0,0,1,.52-1.07A1.09,1.09,0,0,1,1171.5,477.44Z" transform="translate(-1051.45 -371.86)"/><path class="cls-2" d="M1170,478.41l.52-.51Z" transform="translate(-1051.45 -371.86)"/><path class="cls-16" d="M1091,467.44c-.44,1.89-3.23,3.84-5,3.48.12-1.56,1.75-1.64,2.51-2.57a1.4,1.4,0,0,0,1.49-.94Z" transform="translate(-1051.45 -371.86)"/><path class="cls-9" d="M1088.5,468.35c-.76.93-2.39,1-2.51,2.57-1.4-.07-2.68.14-3.49,1.48a1.05,1.05,0,0,1-1-.52c.31-.63,1.09-1,1-1.89C1083.55,467.78,1085.27,467.32,1088.5,468.35Z" transform="translate(-1051.45 -371.86)"/><path class="cls-3" d="M1161,485.92c-1.51.16-1.38-1.29-2-2C1160.47,483.8,1160.85,484.74,1161,485.92Z" transform="translate(-1051.45 -371.86)"/><path class="cls-12" d="M1084.29,474c.45-2.57,2.8-1.19,4.15-1.91.87-.46,1.34.56,1.55,1.39A5.36,5.36,0,0,1,1084.29,474Z" transform="translate(-1051.45 -371.86)"/><path class="cls-3" d="M1102,453.42c.1,1.44-.58,2.09-2,2h0l-.5-1.5h0c.76-.5,1.77.18,2.49-.51Z" transform="translate(-1051.45 -371.86)"/><path class="cls-10" d="M1203,411.3a1.15,1.15,0,0,1-.49.09C1202.62,411.13,1202.78,411.06,1203,411.3Z" transform="translate(-1051.45 -371.86)"/><path class="cls-12" d="M1167.5,421.91a2,2,0,0,0-.72-1.48c-.49-.46-1-1-.34-1.62a1,1,0,0,1,1.66.11C1167.88,419.91,1169.26,421.22,1167.5,421.91Z" transform="translate(-1051.45 -371.86)"/><path class="cls-5" d="M1148.4,479.85l.06-1.43c1.39-.67,2.64-1.61,4.23-1.87a1.81,1.81,0,0,1,2,1,2,2,0,0,1-.08,2.33A3.81,3.81,0,0,1,1148.4,479.85Z" transform="translate(-1051.45 -371.86)"/><path class="cls-3" d="M1144,491.94l1,.47,4.54-.52c1.13,1.94,2.26-.56,3.39,0,.71,0,1.5.26,2.06-.47h.49c.31.85,1.5.93,1.65,1.92-1-.15-2.21,1.06-3.08-.48-.24-.43-.74,0-1,.27-2.41,2.48-5.38.94-8.09,1C1143.75,494.21,1144.08,492.8,1144,491.94Z" transform="translate(-1051.45 -371.86)"/><path class="cls-16" d="M1157.14,493.35c-.15-1-1.34-1.07-1.65-1.92l0-.53c0-.73.67-1,1-1.48.37-.07,1,0,.75-.61-.14-.4-.53-.2-.76.1-.88-.78-.37-1.29.36-1.7.56-.31,1.16-.91,1.79-.55s.54,1.32.3,1.8a28,28,0,0,0-1.51,4.85Z" transform="translate(-1051.45 -371.86)"/><path class="cls-12" d="M1152.94,491.89c-1.13-.56-2.26,1.94-3.39,0l.54-1.44.92-.46C1152.37,489.9,1153.32,490.22,1152.94,491.89Z" transform="translate(-1051.45 -371.86)"/><path class="cls-3" d="M1156.5,488.91c.22-.3.61-.5.76-.1.22.61-.38.54-.75.61Z" transform="translate(-1051.45 -371.86)"/><path class="cls-10" d="M1155.51,490.9l0,.53H1155Z" transform="translate(-1051.45 -371.86)"/><path class="cls-16" d="M1185,421a3,3,0,0,1,.52,2.4,3.09,3.09,0,0,1-2.44,1C1181.52,422.7,1181.82,422.17,1185,421Z" transform="translate(-1051.45 -371.86)"/><path class="cls-4" d="M1102,453.4c-.72.69-1.73,0-2.49.51C1100.56,452.21,1101,452.12,1102,453.4Z" transform="translate(-1051.45 -371.86)"/><path class="cls-4" d="M1099.5,453.91l.5,1.5C1098.94,455.21,1098.68,454.74,1099.5,453.91Z" transform="translate(-1051.45 -371.86)"/><path class="cls-8" d="M1150.09,490.45l-.54,1.44-4.54.52C1145.76,489.32,1148.25,490.73,1150.09,490.45Z" transform="translate(-1051.45 -371.86)"/></svg>