<svg id="Ebene_1" data-name="Ebene 1" xmlns="http://www.w3.org/2000/svg" viewBox="0 0 206 140.44"><defs><style>.cls-1{fill:#5b9ec1;}.cls-2{fill:#5a5a5a;}.cls-3{fill:#fefefe;}</style></defs><title>plankton_blue</title><path class="cls-1" d="M859.78,567.88h.16c.22.48.7.42,1.09.54l-.05,0c.17.52.65.45,1,.54l0,0c.16.55.64.46,1,.54l0,0c.16.55.65.46,1,.54l0,0c.16.54.64.46,1,.54l0,0c.16.55.66.44,1,.54l-.05,0c.17.52.67.4,1,.54l0,0,.54.52,0,0c.14.58.62.48,1,.53l0,0c.17.53.67.41,1,.54l0,0,.54.53,0,0c.15.57.66.44,1,.54l-.06,0,.55.54,0,0a1.3,1.3,0,0,0,1.53,1l0,0,.54.53,0,0c.13.59.64.45,1,.54l-.06,0,.55.55,0-.06c.08.37.35.46.68.45,3.25,3.21,6.87,6.09,9.35,10A29.82,29.82,0,0,1,890,604.18c-1.38,1-2.28,2.05-.39,3.42l-.12.85c-.53.6-1.49,1.12-.4,2a.61.61,0,0,1-.11.47c-1.63,3.4-3.45,6.74-4.83,10.24-.76,1.92-1.47,2.81-3.41,1.63-.54.87.81,1.4.21,2.14-1.87,2.26-3.06,5.18-6,6.44a3.65,3.65,0,0,0-2.44,2.24c-.51.44-1.61.18-1.53,1.31l0,0-.54.54,0,0a1.52,1.52,0,0,0-1.54,1l0,0a1,1,0,0,0-1,1l0,0-.55.54,0,0c-.51,0-.95.17-.92.82-1.09.35-2.56,0-2.71,1.9-.05.65-1,1-1.69,1.34-4.8,2.56-9.48,5.38-14.4,7.69-3,1.43-6.1,3-9.57,3.35-1.13.15-.35-1.58-1.48-1.48-.35.92-1.5,1.51-1.11,2.75-.41,0-.93-.11-1.22.09-3.18,2.2-7,2.43-10.54,3.46a2.39,2.39,0,0,0-2.27-.57,3.89,3.89,0,0,1-3.31.22l-.49-.7c0-.56.93-.86.36-1.62l-.51,1.62c-.37,2.7-2.15,3.45-4.62,3.73-5.4.61-10.75,1.62-16.18,2.08a147.63,147.63,0,0,1-15.18.27c-1.65,0-2.29-1-2.23-2.6a7.19,7.19,0,0,0-.14-3.24c-.34.06-.44,0-.49.09-.58.53-.28,1.25-.39,1.88-.59,3.47-1.17,4.07-4.7,3.87a132.85,132.85,0,0,1-18.14-2.3c-1.79-.35-2.9-.86-3.14-3.3-.69,2.23-2.39,2.51-3.2,2-2-1.27-4.3-.67-6.35-1.57-5.09-2.23-10.3-4.2-15.46-6.28l0,0c-.17-.53-.67-.42-1.05-.54l.05,0a2.87,2.87,0,0,0-2.55-1.53l0,0a1.39,1.39,0,0,0-1.54-1l0,0a1.38,1.38,0,0,0-1.54-1l0,0c-.46-.85-.94-1.65-2.11-1.49a37.57,37.57,0,0,1-11.44-12.16c-7.6-12.51-4.24-28,5-38.84A82.46,82.46,0,0,1,732,578.22c13.74-8.5,28.83-13.52,44.54-16.87a150.2,150.2,0,0,1,15.28-2.3c1.56-.17,3.1.83,4.62,0a10.34,10.34,0,0,1,1.93-.28c7.41.32,14.82.09,22.23,0,2,0,4,.47,6.07.65,3.3.3,6.56.94,9.84,1.43l.49,0a39.89,39.89,0,0,0,8.26,2l.13,0c.4.75,1.13.45,1.74.53a.21.21,0,0,1,.35,0c.34.71,1,.32,1.56.52l-.05,0c.31.76,1,.39,1.55.54l0,0c.31.76,1,.4,1.55.54l0,0c.25.62.81.48,1.3.52l0-.06a1.82,1.82,0,0,0,1.53.55l.12,0a2.87,2.87,0,0,0,2.39,1l0-.06a1.7,1.7,0,0,0,1.27.57l0,0C858.73,568,859.31,567.83,859.78,567.88ZM742.06,621.35l-.27-.21.2.27.28.21Zm20.46-3.42c1,0,2.08,0,2.29-1.27.16-.89-1-2-1.13-1.95-1.41.65-1.63-.67-2.21-1.6-.33,1.94.53,3.28,1,4.72-.5.07-.95.22-1.09.78,0,0,.2.21.32.23C762.34,618.91,762.44,618.42,762.52,617.93ZM830,600c.21,1.19-1.87,1-1.33,2.5,1.82-.36,3.34-.23,1.76,2.24-.31.48,0,1,.33.93.82-.18,1.44,1.55,2.21.27a1.49,1.49,0,0,1,2-.53c1.9.72,3.85,1.44,5.29,3.25.87-1.9-.47-3.46-.7-5.1a1.56,1.56,0,0,0-2.49-.39c-.42.44-.87,1-1.37.16a1,1,0,0,1,.51-1.65,5.71,5.71,0,0,0,1.54-.8c.86-.87,1.9-2.16,1.25-3.15s-2.4-2-3.42-.88-2.27,1.14-3.44,1.58c-.83,0-1.66.08-2.49.1-.59,0-1,.31-.93.89C828.78,600.35,829.51,600,830,600Zm-73.68-3a5.43,5.43,0,0,1,.57,1.54c0,.56-.79,1.66.13,1.56,3-.34,2,2.43,2.8,3.63s-1.25,2.18-2.18,2.42c-1.3.34-.26-1.06-.52-1.49a14.68,14.68,0,0,0-2.37-3c-.52-.5-1.15-.07-1.19.66a1.78,1.78,0,0,0,1.11,2c1.37.45,1.53,1.12,1,2.44-.43,1.07-.09,2.83,1,2.9,1.46.1,1.49,1,1.78,1.77.2.57.32,1.16,1,1.34s1-.33,1.16-.94c.28-.88,1-1,1.81-1s1.86.11,2-1-.84-1-1.65-1.15a2.56,2.56,0,0,1-2.2-2.32c-.06-1.56,1.4-1.67,2.36-2.19,1.31-.72,1.67.64,2.34,1.23.27.24.25.78.45,1.13.57,1,1.54.89,2.42.66a1.5,1.5,0,0,0,1.24-1.39c0-1.12-.9-.91-1.73-1-1.64-.24-2-1.84-.77-3.15.67-.72.26-1.08-.4-1.18a5.06,5.06,0,0,0-2.94.19c-.82.37-1.55.23-1.86-.61a17.28,17.28,0,0,1-.8-3.29c-.07-.46.28-1-.41-1.2a1.22,1.22,0,0,0-.89.27c-.57.45-.26.79.18,1.16a.75.75,0,0,1-.09,1.26,1.72,1.72,0,0,1-1.67,0C757.29,598.13,757.69,596.93,756.34,597Zm-15.7,10.07c1,2.21,3.58.56,4.67,2.19a5.14,5.14,0,0,1,1.8-4.54c.77-.63,1-2.05,1.23-3.16s-.34-1.29-1.28-.92c-1.47.58-3.93.24-2.79,3.21.13.33-.71,1-.84,1.7a1.07,1.07,0,0,1-1.36.79c-.81-.15-.59-.87-.69-1.4a2.45,2.45,0,0,1,.61-1.78c1.19-2,.11-4.94-2-5.39.77,1.43-.37,2.87.11,4.1.73,1.88.36,2.62-1.64,2.57-.44,0-.86.15-.84.68,0,.3.22.84.36.84,1.8,0,1.22,1.18,1.09,2.17a.79.79,0,0,0,.64.93c.46,0,.67-.38.75-.81S740.58,607.49,740.64,607.1ZM864,615a3.05,3.05,0,0,0,3-2.57,3.62,3.62,0,0,0-3.31-3.4c-2,0-2.67,1.63-2.67,3.19C861.06,614,862.47,614.83,864,615Zm-112.56,7.55-2.72-3.75c-1.2,1.38-2.47.37-3.76.2-.58-.08-1.25-.85-1.77-.11a1.92,1.92,0,0,0-.1,1.42c.24.9,1.07.53,1.67.58,1,.09,2.14-.47,2.69,1.13.37,1.08,2.06,1.45,2,2.94,0,.36-.37.87.36.85a1.2,1.2,0,0,0,.82-.43A3.94,3.94,0,0,0,751.46,622.53Zm74.6-13.34a2.39,2.39,0,0,0,2.46,1.19,1.9,1.9,0,0,1,2,.78c.88,1.69,1.91.34,2.58,0a2.19,2.19,0,0,0,1.36-2.61,1.11,1.11,0,0,0-.77-.88c-.4-.1-.55.25-.71.53a17.32,17.32,0,0,1-3.1,1.55C828.59,610,827.6,608.72,826.06,609.19Zm-54.81,2.08c-1.52,1.52-2.95,3.11-4.43,4.65a1.86,1.86,0,0,0-.27,1.17,1.08,1.08,0,0,0,1,1.22c1.22.07.41-.79.43-1.2,0-.94.34-1.86,1.35-1.63,1.58.35,1.62-.46,1.65-1.57C771,613,771.15,612.15,771.25,611.27Zm-22.43,3.38c.82.79-.8,2,.52,2.59,1.07.49,1.81,1,1.81,2.32,0,.75.73.76,1.32.79a1.83,1.83,0,0,0,1.65-.92.51.51,0,0,0-.29-.8C751.63,618,751,615.54,748.82,614.65Zm10.56,2.13c-.44-.79-.58-2-1.74-1.73-.8.21-2.3,0-2.24,1.29a2.07,2.07,0,0,0,2.12,2A1.82,1.82,0,0,0,759.37,616.78Zm-6.81-2.85c.39-2.16,1.17-3.2,3.54-2-.9-1.42-1.89-3.1-3.31-2.81-1.57.32-.56,2.24-.72,3.44C752,613,752.39,613.48,752.56,613.93Zm89.84,23.62c.12-2.16.56-4.21-2.62-3.13-.84.29-1.93-.14-3-.26.58.82,1.2,1.87,1.91,1.59C840.57,635,841.22,636.5,842.4,637.55Zm-56.72-.85c1.75.51,3.32-.89,4.75.36.15.13,1-.25,1-.88s-.53-1.48-1.15-1.37C788.71,635.07,786.93,634.94,785.68,636.7Zm49.85-7.78c1.71,2.29,4.22,2.37,5.5.27.1-.16,0-.47-.08-.69-.12-.38-.54-.6-.75-.38C838.87,629.51,837.13,628.66,835.54,628.92Zm-36.45-18.54a2.46,2.46,0,0,0,1.68-1.95c.18-.62-.45-1.05-1.13-.77-1,.41-2.7.06-2.77,1.53C796.82,610.14,798.38,609.83,799.08,610.38ZM793.46,605a22.89,22.89,0,0,0,1.39-3.85c.15-.83-1-.91-1.6-1.28a.67.67,0,0,0-1,.25,1,1,0,0,0,.36,1.52C794.48,602.47,792.71,603.7,793.46,605Zm-30.17,19.63c1.07,1.22,2.07.4,3,.05.74-.28.69-1.06.66-1.73,0-.45-.16-.81-.66-.92-.83-.18-1.21.22-1.37,1S763.71,623.82,763.29,624.59Zm-3-2.56c-.43-.67-.24-1.9-.91-1.73-1.29.33-1.43,1.79-1.81,2.9-.13.4-.06,1.25.61,1A4,4,0,0,0,760.29,622Zm64.06,11c-1.83.08.13-2.77-1.93-2.33a3.23,3.23,0,0,0-2.67,2.23C821.38,632.36,822.81,632.06,824.35,633.07ZM802,601.86c-.86-.57-1.33,0-1.87.07-1.79.22-2.14,1.53-.67,2.22C800.6,604.69,801.21,602.9,802,601.86Zm-80.09,8.19a3.23,3.23,0,0,1,.54,3.5c-.22.54-.22,1,.39,1.18s1-.27.95-.54C723.44,612.71,724.17,610.75,721.89,610.05Zm122.35-6.77c-.42.95-2.44.43-2,1.76.35.94,1.84,1.08,3.19,1.15ZM785.9,602c-.52-.6-1.12-1.27-1.64-.71-.8.87-1.15,2.16-2.48,2.53a1.39,1.39,0,0,0,.15.63c.31.4.7.42,1,0A6.45,6.45,0,0,1,785.9,602ZM843,596.23a4.67,4.67,0,0,1,.27,3.77l2.44-.81C844.3,598.59,845,596.4,843,596.23Zm-60.55,38.88c-2.86,1.13-3.24,2.29-1,4.36C780.44,637.45,781.9,636.51,782.44,635.11Zm-9.33-13.87c-.6-1.37-1.25-2.68-2.72-3.18-.11,0-.34.29-.52.45.92.88,1.84,1.77,2.78,2.64C772.74,621.25,772.95,621.21,773.1,621.24ZM843,610.45c-.83-.57-1.59-.13-2.2-.73s-.81.49-1.26.72-.15.72,0,1c.43.64.79.1,1.2-.1C841.43,611,842.09,610.82,843,610.45Zm-20.85,7.08c1.2,0,2.37-.06,3.09-1.17.06-.1-.26-.64-.49-.71C823.1,615.11,823.27,617.15,822.19,617.52ZM793,633.3c3.14-.21,3.45-.5,3.17-2.57Zm21.17,1a1.78,1.78,0,0,0,1.21-1.63.63.63,0,0,0-.88-.58c-.7.26-1.35.69-1.27,1.56A.81.81,0,0,0,814.13,634.25ZM781,626.9c-.37.47-.59.78-.84,1.07-.45.51-.89,1-.46,1.73.15.24.54.55.74.5.9-.22.33-1.13.68-1.65A1.26,1.26,0,0,0,781,626.9Zm-53.94-10.3c.87.75,1.08,2,2.46,1.28.38-.2.88-.51.6-.88C729.42,616,728.38,616.48,727.08,616.6Zm102.65-21.75-.1-.31c-1,.16-2,.28-3,.48-.38.08-.88.25-.68.81a.67.67,0,0,0,1,.35Zm-15.44,27.47c-1-.24-2-.78-2.84.06a.73.73,0,0,0,.2,1.07C812.73,623.76,813.32,622.6,814.29,622.32Zm-39.11-15.65c-1.21-.16-2.08-.63-2.76.21a1.2,1.2,0,0,0,.28,1.12C773.71,608.42,774.33,607.77,775.18,606.66Zm15.7.06c-.31,1.51-.57,2.59-.72,3.67,0,.22.34.49.53.74.17-.15.51-.4.49-.43C790.47,609.53,792,608.34,790.88,606.72Z" transform="translate(-703.26 -558.12)"/><path class="cls-2" d="M838.25,653c3.47-.31,6.53-1.92,9.57-3.35,4.92-2.32,9.6-5.13,14.4-7.69.67-.36,1.64-.69,1.69-1.34.15-1.89,1.62-1.56,2.71-1.9.39-.18,1-.16.92-.82l0,0c.38,0,.7,0,.55-.54l0,0c.68,0,1.4,0,1-1l0,0c1,.33,1.42-.11,1.54-1l0,0c.48.12.71,0,.54-.54l0,0c1,.16,1.41-.41,1.53-1.31A3.65,3.65,0,0,1,875,631.4c2.91-1.25,4.1-4.17,6-6.44.6-.73-.75-1.27-.21-2.14,1.94,1.17,2.65.29,3.41-1.63,1.38-3.5,3.19-6.84,4.83-10.24-.25,1.26,0,2,1.3,2.85,5.4,3.59,8.71,8.87,10.7,14.95,2.32,7.06,1.78,14.4,2,21.67-1.11-1.22-.85-2.73-.93-4.13a120.71,120.71,0,0,0-1-12.7A29.64,29.64,0,0,0,897.6,624c-.29-.51-.42-1.95-1.58-.5-.47.58-.69-.39-.91-.72-1.73-2.56-4.48-3.63-7.08-4.92-.89-.44-1-.17-1.27.88-1,3.4,1.64,4.19,3.52,5.6s3.47,2.71,3.57,5.24c-1.74-3-4.57-4.68-7.36-6.41-.86-.53-1.89-1.57-2.69,0-.61,1.18-2.66,2.13-.6,3.91a12.28,12.28,0,0,1,3.61,6.17c.21.75.69,1.54-.2,2.55-1-2.62-1.63-5.23-3.51-7.16-.61-.63-1.1-2.44-2.4-1.1-1,1-2.95,1.81-1.28,4,5.17,6.85,4.61,14.95,5,23-1.16-.22-1-.91-1-1.4a27.43,27.43,0,0,1-.2-3.49c.19-4.92-.46-9.34-5.62-11.76-1.46-.68-2.17-3.19-3.65-3.07s-2.54,2-3.92,2.87c-1.84,1.19-2.41,2.1-1,4.4,3.61,6.06,3.43,12.74,2,19.41-1.77,8.24-4.82,16.1-7.51,24.05a5.91,5.91,0,0,1-.82,1.21c-.71-1.09,0-1.76.24-2.48,2.59-8.25,5.88-16.3,7.34-24.88,1-5.89.69-11.64-2.26-17-.45-.81-.68-2.64-2.4-1.36-1.17.87-3.23,1.18-1.59,3.6,3.82,5.67,3.88,12.08,3.37,18.53-.92.21-.88-.3-1-.67s-.07-.66-.75-.68l-.69,5.21c-1.25-.4-.74-1.16-.71-1.72.21-4,.52-8-.2-12a17.71,17.71,0,0,0-1-3.58c-2-4.79-3-5.11-7-2-2.4,1.87-5.28,2.81-7.86,4.32-.72.42-1.48.67-1,1.85,2.9,6.64,2.24,13.59,1.22,20.42-1.15,7.73-2.86,15.38-4.75,23-.11.45,0,1-.74,1.21-.85-.49-.27-1.14-.15-1.71,1.78-8.39,3.83-16.72,4.87-25.24a48.41,48.41,0,0,0-.17-13.2,14.06,14.06,0,0,0-1.31-4c-.58-1.2-1.39-.83-2.29-.46-1.05.43-.82,1-.36,1.74,2,3.24,2,6.8,1.63,10.42-.08.79-.05,1.65-.9,2.19-.74-.73-.15-1.46-.1-2.13.27-3.45.23-6.84-1.64-9.93-.53-.87-5.31-1.2-5.76-.39-.24.43,0,.79.34,1.09,5.2,5.14,5.08,11.86,5.42,18.42a22.58,22.58,0,0,1-.38,6.28,3.31,3.31,0,0,1-.65-2.89,58.53,58.53,0,0,0-1.05-13.17,15.12,15.12,0,0,0-4.54-8.15,3.13,3.13,0,0,0-3.43-.84c-4.37,1.91-9.07,2.48-13.63,3.6a3.35,3.35,0,0,0-2.56,2.29,130.76,130.76,0,0,1-9.73,18.28,5.53,5.53,0,0,1-2.28,2.57c-.64-1,.27-1.39.61-1.91a161,161,0,0,0,9.8-18c.32-.65.93-1.46.5-2.07s-1.38,0-2.1,0c-3-.08-4.67,1.43-5.43,4.32-.64,2.42-1.62,4.75-2.45,7.13-.79-.35-.66-.71-.62-1,.06-.48.32-1.05-.33-1.27s-.83.42-1.06.82c-1.06,1.89-2.06,3.81-3.13,5.69a3.28,3.28,0,0,1-1.43,1.66c-.58-1.11.3-1.64.66-2.29a95.18,95.18,0,0,0,5.7-11.65c.59-1.53.46-2.25-1.57-2a132.68,132.68,0,0,1-18.69,1.17c-2,0-2.16.63-1.58,2.29,2.12,6,2.45,12.39,3.15,18.67,0,.35-.07.65-.81,1-.35-2.86-.7-5.6-1-8.35a49,49,0,0,0-2.36-11c-.28-.79-.27-2.19-1.45-1.92s-.57,1.58-.48,2.38c1,8.74-1.84,17-3.25,25.41,0,.19-.3.35-.47.53-.84-.55-.36-1.23-.26-1.81,1-5.58,2.3-11.09,2.94-16.72a51.37,51.37,0,0,0-.22-9c0-.55.08-1.29-.7-1.4s-.86.68-1,1.18a79.43,79.43,0,0,0-4.09,19.43c-.2,2.19,1,3.88,1.88,5.7-2.38-.95-2.77-3-2.86-5.16a41.44,41.44,0,0,1,1-8.67,7.26,7.26,0,0,0,.22-1c0-.68.6-1.59-.4-2-.85-.31-1.06.62-1.4,1.11a48.41,48.41,0,0,1-4.63,6.2c-.64.66-1.17,1.65-2.82,1.43a44.06,44.06,0,0,0,7.92-10.42c1.23-2.07,2.3-4.23,3.45-6.35.61-1.12.59-1.84-1-1.91a132.66,132.66,0,0,1-19.31-2.42c-.85-.17-1.26,0-1.37.89-.43,3.61-2.42,6.48-4.33,9.42-3.35,5.17-6.6,10.41-10.37,15.3-.92,1.2-1.84,2.49-3.59,2.8,1.25-1.81,2.89-3.28,4.08-5.11,3.57-5.52,7.23-11,10.8-16.51a13.77,13.77,0,0,0,2.2-5.78c.08-.64.23-1.4-.65-1.67a1.5,1.5,0,0,0-1.83.35c-6.83,9-16,15.8-22.43,25.15-.51.74-1,1.52-1.58,2.53-.76-1.34.12-2.06.57-2.8A61.93,61.93,0,0,1,736,674.46c4-4,7.94-8.08,11.58-12.43.49-.59,1.61-1.17,1-2s-1.78-.51-2.72-.07c-8.09,3.72-17.05,4.39-25.39,7.27-.15.05-.4-.17-1.08-.49,8.33-3.45,17.12-4.08,25-7.65-3.76-1.55-7.28-3.32-11.33-3.57-5.56-.33-10.73-2.23-15.82-4.32-.56-.23-1.32-.4-1.24-1.42,3.48,1.15,6.91,2.33,10.36,3.41.73.23,1.8.85,2.29,0,.61-1-1.05-1-1.26-1.79,5.16,2.08,10.36,4.05,15.46,6.28,2,.9,4.34.3,6.35,1.57.81.51,2.51.24,3.2-2,.24,2.43,1.35,2.95,3.14,3.3a132.85,132.85,0,0,0,18.14,2.3c3.53.2,4.11-.4,4.7-3.87.11-.63-.19-1.35.39-1.88,0,0,.15,0,.49-.09a7.19,7.19,0,0,1,.14,3.24c-.06,1.6.58,2.57,2.23,2.6a147.63,147.63,0,0,0,15.18-.27c5.43-.46,10.78-1.46,16.18-2.08,2.47-.28,4.25-1,4.62-3.73h.15l.49.7c-1.13-.15-1,.67-.88,1.29s.73.51,1.17.4c1.77-.42,3.53-.89,5.29-1.34,3.55-1,7.36-1.27,10.54-3.46.29-.2.81-.07,1.22-.09C836.58,654,837.71,654.1,838.25,653ZM881.93,640a18.53,18.53,0,0,0-3.34-7.67c-.45-.64-.91-1.71-1.78-.55-.59.8-2.65,1.16-1.09,2.84A26.67,26.67,0,0,0,881.93,640Zm10.55-22.58a4.79,4.79,0,0,0-2.81-2.43c-.62-.14-1.14,1.15-1.06,1.34.58,1.28,1.93,1.57,3.14,1.94C892.25,618.38,892.4,617.88,892.48,617.37Zm-27.27,34.94c.06,1.57,0,2.43.85,3.34C866.52,654.46,866.39,653.62,865.21,652.31Zm.33-1.09-.3-.38c-.14.17-.52.19-.34.54a5.67,5.67,0,0,0,.4.59C865.43,651.81,865.81,651.8,865.54,651.22Zm-3.29-6.31c-.06.06-.17.12-.16.16a1.56,1.56,0,0,0,.16.34c.06-.06.17-.12.16-.16A1.33,1.33,0,0,0,862.25,644.91Z" transform="translate(-703.26 -558.12)"/><path class="cls-2" d="M889.59,607.6c-1.89-1.37-1-2.42.39-3.42a34,34,0,0,1,7.7-.28c1.82.13,3.67.33,4.77,2.16.5.84,1.47.62,2.23.85,1.63.49,3.34.81,4.58,2.26A45.34,45.34,0,0,0,889.59,607.6Zm11.66-1.32c-2.56-1.74-8.66-1.88-10.93,0C894.19,605.61,897.59,606.34,901.25,606.28Z" transform="translate(-703.26 -558.12)"/><path class="cls-2" d="M836.52,560.87c-3.28-.5-6.55-1.13-9.84-1.43-2-.18-4.06-.67-6.07-.65-7.41.08-14.82.31-22.23,0a10.34,10.34,0,0,0-1.93.28l-.47,0c-.29,0-.28,0,0-.09a31.15,31.15,0,0,1,6.19-.63c4.15-.08,8.31-.15,12.46-.24C822.08,558,829.3,559.38,836.52,560.87Z" transform="translate(-703.26 -558.12)"/><path class="cls-2" d="M889.07,610.49c-1.09-.92-.13-1.43.4-2,1.9,1,4,.55,6,.83,3.9.53,9.36,2.33,11.61,4.15-1,.42-1.83-.16-2.58-.5a37.33,37.33,0,0,0-13.76-2.8A6.84,6.84,0,0,0,889.07,610.49Z" transform="translate(-703.26 -558.12)"/><path class="cls-2" d="M845.27,562.88a39.89,39.89,0,0,1-8.26-2A28.41,28.41,0,0,1,845.27,562.88Z" transform="translate(-703.26 -558.12)"/><path class="cls-2" d="M724,649.42a2.87,2.87,0,0,1,2.55,1.53A4.65,4.65,0,0,1,724,649.42Z" transform="translate(-703.26 -558.12)"/><path class="cls-2" d="M718.89,646c1.16-.15,1.65.65,2.11,1.49A3.26,3.26,0,0,1,718.89,646Z" transform="translate(-703.26 -558.12)"/><path class="cls-2" d="M857.29,566.89a2.87,2.87,0,0,1-2.39-1A3.16,3.16,0,0,1,857.29,566.89Z" transform="translate(-703.26 -558.12)"/><path class="cls-2" d="M873,575.39a1.3,1.3,0,0,1-1.53-1A1.48,1.48,0,0,1,873,575.39Z" transform="translate(-703.26 -558.12)"/><path class="cls-2" d="M721,647.42a1.38,1.38,0,0,1,1.54,1A1.75,1.75,0,0,1,721,647.42Z" transform="translate(-703.26 -558.12)"/><path class="cls-2" d="M722.46,648.42a1.39,1.39,0,0,1,1.54,1A1.87,1.87,0,0,1,722.46,648.42Z" transform="translate(-703.26 -558.12)"/><path class="cls-2" d="M850.54,564.4c-.53-.15-1.24.22-1.55-.54C849.57,563.86,850.16,563.82,850.54,564.4Z" transform="translate(-703.26 -558.12)"/><path class="cls-2" d="M847.13,563.37c-.61-.08-1.33.22-1.74-.53A2.07,2.07,0,0,1,847.13,563.37Z" transform="translate(-703.26 -558.12)"/><path class="cls-2" d="M852,564.9c-.53-.14-1.23.23-1.55-.54C851.08,564.33,851.66,564.31,852,564.9Z" transform="translate(-703.26 -558.12)"/><path class="cls-2" d="M849,563.91c-.51-.2-1.22.19-1.56-.52A1.69,1.69,0,0,1,849,563.91Z" transform="translate(-703.26 -558.12)"/><path class="cls-2" d="M863,569.4c-.4-.08-.89,0-1-.54C862.45,568.84,862.86,568.9,863,569.4Z" transform="translate(-703.26 -558.12)"/><path class="cls-2" d="M862,568.9c-.39-.09-.88,0-1-.54C861.43,568.37,861.84,568.43,862,568.9Z" transform="translate(-703.26 -558.12)"/><path class="cls-2" d="M859.78,567.88c-.48,0-1,.14-1.29-.51A1.08,1.08,0,0,1,859.78,567.88Z" transform="translate(-703.26 -558.12)"/><path class="cls-2" d="M858.53,567.4a1.7,1.7,0,0,1-1.27-.57C857.76,566.84,858.3,566.78,858.53,567.4Z" transform="translate(-703.26 -558.12)"/><path class="cls-2" d="M854.78,565.89a1.82,1.82,0,0,1-1.53-.55C853.84,565.32,854.42,565.31,854.78,565.89Z" transform="translate(-703.26 -558.12)"/><path class="cls-2" d="M867,571.41c-.37-.14-.87,0-1-.54A1.21,1.21,0,0,1,867,571.41Z" transform="translate(-703.26 -558.12)"/><path class="cls-2" d="M874.54,576.4c-.39-.08-.91.06-1-.54C874,575.69,874.31,576,874.54,576.4Z" transform="translate(-703.26 -558.12)"/><path class="cls-2" d="M861,568.41c-.4-.12-.88-.06-1.09-.54A1.16,1.16,0,0,1,861,568.41Z" transform="translate(-703.26 -558.12)"/><path class="cls-2" d="M871,573.91c-.39-.1-.9,0-1-.54A.92.92,0,0,1,871,573.91Z" transform="translate(-703.26 -558.12)"/><path class="cls-2" d="M869.54,572.91c-.37-.13-.88,0-1-.54A1.08,1.08,0,0,1,869.54,572.91Z" transform="translate(-703.26 -558.12)"/><path class="cls-2" d="M868.54,572.4c-.41,0-.9,0-1-.53A.76.76,0,0,1,868.54,572.4Z" transform="translate(-703.26 -558.12)"/><path class="cls-2" d="M866,570.91c-.39-.1-.89,0-1-.54A1,1,0,0,1,866,570.91Z" transform="translate(-703.26 -558.12)"/><path class="cls-2" d="M726.46,650.91c.38.12.88,0,1.05.54A1.08,1.08,0,0,1,726.46,650.91Z" transform="translate(-703.26 -558.12)"/><path class="cls-2" d="M853.29,565.39c-.49,0-1,.1-1.3-.52C852.51,564.83,853,564.78,853.29,565.39Z" transform="translate(-703.26 -558.12)"/><path class="cls-2" d="M875.68,577.31c-.33,0-.6-.08-.68-.45A.57.57,0,0,1,875.68,577.31Z" transform="translate(-703.26 -558.12)"/><path class="cls-2" d="M865,570.4c-.4-.08-.88,0-1-.54C864.45,569.84,864.85,569.91,865,570.4Z" transform="translate(-703.26 -558.12)"/><path class="cls-2" d="M864,569.9c-.4-.08-.89,0-1-.54A.89.89,0,0,1,864,569.9Z" transform="translate(-703.26 -558.12)"/><path class="cls-2" d="M867.54,571.91l-.54-.52C867.29,571.44,867.57,571.51,867.54,571.91Z" transform="translate(-703.26 -558.12)"/><path class="cls-2" d="M871.54,574.41l-.55-.54C871.3,573.92,871.56,574,871.54,574.41Z" transform="translate(-703.26 -558.12)"/><path class="cls-2" d="M873.54,575.9l-.54-.53C873.36,575.37,873.61,575.47,873.54,575.9Z" transform="translate(-703.26 -558.12)"/><path class="cls-2" d="M875,576.92l-.55-.55Z" transform="translate(-703.26 -558.12)"/><path class="cls-2" d="M870,573.41l-.54-.53C869.79,572.94,870,573.05,870,573.41Z" transform="translate(-703.26 -558.12)"/><path class="cls-2" d="M756.34,597c1.34-.1.94,1.1,1.6,1.3a1.72,1.72,0,0,0,1.67,0,.75.75,0,0,0,.09-1.26c-.44-.38-.75-.72-.18-1.16a1.22,1.22,0,0,1,.89-.27c.69.17.34.75.41,1.2a17.28,17.28,0,0,0,.8,3.29c.3.84,1,1,1.86.61a5.06,5.06,0,0,1,2.94-.19c.66.1,1.07.46.4,1.18-1.21,1.31-.86,2.91.77,3.15.84.12,1.69-.09,1.73,1a1.5,1.5,0,0,1-1.24,1.39c-.88.23-1.86.36-2.42-.66-.2-.36-.18-.89-.45-1.13-.66-.6-1-2-2.34-1.23-1,.52-2.42.63-2.36,2.19a2.56,2.56,0,0,0,2.2,2.32c.81.2,1.8-.05,1.65,1.15s-1.15,1-2,1-1.54.09-1.81,1c-.19.61-.4,1.16-1.16.94s-.76-.77-1-1.34c-.29-.81-.32-1.66-1.78-1.77-1.08-.08-1.42-1.83-1-2.9.53-1.32.38-2-1-2.44a1.78,1.78,0,0,1-1.11-2c0-.73.67-1.16,1.19-.66a14.68,14.68,0,0,1,2.37,3c.27.44-.78,1.83.52,1.49.93-.24,2.93-1.23,2.18-2.42s.24-4-2.8-3.63c-.93.1-.11-1-.13-1.56A5.43,5.43,0,0,0,756.34,597Z" transform="translate(-703.26 -558.12)"/><path class="cls-2" d="M832.14,598.46c1.17-.44,2.38-.46,3.44-1.58s2.82,0,3.42.88-.4,2.28-1.25,3.15a5.71,5.71,0,0,1-1.54.8,1,1,0,0,0-.51,1.65c.5.8,1,.28,1.37-.16a1.56,1.56,0,0,1,2.49.39c.23,1.65,1.57,3.2.7,5.1-1.44-1.81-3.39-2.53-5.29-3.25a1.49,1.49,0,0,0-2,.53c-.78,1.28-1.39-.46-2.21-.27-.32.07-.64-.45-.33-.93,1.58-2.47.06-2.6-1.76-2.24-.54-1.53,1.54-1.31,1.33-2.5C830.42,599.08,832,599.69,832.14,598.46Zm1.39,4.78a1.67,1.67,0,0,0,1-1.56c0-.81-.64-.84-1.23-.86s-1,.31-.85.9S832.76,603,833.53,603.24Z" transform="translate(-703.26 -558.12)"/><path class="cls-2" d="M740.64,607.1c-.07.39-.13.79-.2,1.18s-.28.86-.75.81a.79.79,0,0,1-.64-.93c.13-1,.71-2.14-1.09-2.17-.13,0-.34-.54-.36-.84,0-.52.4-.69.84-.68,2,.05,2.37-.69,1.64-2.57-.48-1.23.66-2.67-.11-4.1,2.14.45,3.22,3.43,2,5.39a2.45,2.45,0,0,0-.61,1.78c.1.53-.13,1.26.69,1.4a1.07,1.07,0,0,0,1.36-.79c.14-.7,1-1.37.84-1.7-1.14-3,1.32-2.62,2.79-3.21.94-.37,1.56-.2,1.28.92s-.47,2.53-1.23,3.16a5.14,5.14,0,0,0-1.8,4.54C744.23,607.66,741.68,609.31,740.64,607.1Z" transform="translate(-703.26 -558.12)"/><path class="cls-2" d="M864,615c-1.55-.14-3-1-3-2.78,0-1.56.63-3.18,2.67-3.19a3.62,3.62,0,0,1,3.31,3.4A3.05,3.05,0,0,1,864,615Z" transform="translate(-703.26 -558.12)"/><path class="cls-2" d="M751.46,622.53a3.94,3.94,0,0,1-.81,2.85,1.2,1.2,0,0,1-.82.43c-.72,0-.37-.49-.36-.85.06-1.49-1.62-1.87-2-2.94-.55-1.6-1.67-1-2.69-1.13-.6-.05-1.43.31-1.67-.58a1.92,1.92,0,0,1,.1-1.42c.52-.74,1.19,0,1.77.11,1.29.17,2.56,1.18,3.76-.2Z" transform="translate(-703.26 -558.12)"/><path class="cls-2" d="M826.06,609.19c1.54-.47,2.53.79,3.78.56a17.32,17.32,0,0,0,3.1-1.55c.17-.29.31-.64.71-.53a1.11,1.11,0,0,1,.77.88,2.19,2.19,0,0,1-1.36,2.61c-.67.34-1.7,1.69-2.58,0a1.9,1.9,0,0,0-2-.78A2.39,2.39,0,0,1,826.06,609.19Z" transform="translate(-703.26 -558.12)"/><path class="cls-2" d="M771.25,611.27c-.09.88-.24,1.76-.27,2.64,0,1.11-.07,1.92-1.65,1.57-1-.23-1.31.69-1.35,1.63,0,.41.79,1.26-.43,1.2a1.08,1.08,0,0,1-1-1.22,1.86,1.86,0,0,1,.27-1.17C768.3,614.38,769.73,612.79,771.25,611.27Z" transform="translate(-703.26 -558.12)"/><path class="cls-2" d="M748.82,614.65c2.14.9,2.82,3.34,5,4a.51.51,0,0,1,.29.8,1.83,1.83,0,0,1-1.65.92c-.59,0-1.33,0-1.32-.79,0-1.32-.74-1.83-1.81-2.32C748,616.63,749.64,615.44,748.82,614.65Z" transform="translate(-703.26 -558.12)"/><path class="cls-2" d="M759.37,616.78a1.82,1.82,0,0,1-1.87,1.57,2.07,2.07,0,0,1-2.12-2c-.05-1.33,1.45-1.08,2.24-1.29C758.79,614.74,758.94,616,759.37,616.78Z" transform="translate(-703.26 -558.12)"/><path class="cls-2" d="M752.56,613.93c-.18-.45-.55-.92-.49-1.34.16-1.2-.86-3.12.72-3.44,1.42-.29,2.41,1.39,3.31,2.81C753.73,610.73,753,611.77,752.56,613.93Z" transform="translate(-703.26 -558.12)"/><path class="cls-2" d="M762.43,617.82c-.43-1.44-1.28-2.77-1-4.72.58.93.8,2.24,2.21,1.6.1,0,1.28,1.06,1.13,1.95-.22,1.25-1.27,1.31-2.29,1.27Z" transform="translate(-703.26 -558.12)"/><path class="cls-2" d="M842.4,637.55c-1.19-1.05-1.84-2.56-3.75-1.8-.71.28-1.33-.76-1.91-1.59,1.11.11,2.19.54,3,.26C843,633.34,842.52,635.39,842.4,637.55Z" transform="translate(-703.26 -558.12)"/><path class="cls-2" d="M785.68,636.7c1.25-1.76,3-1.63,4.57-1.89.62-.11,1.15.62,1.15,1.37s-.82,1-1,.88C789,635.81,787.43,637.21,785.68,636.7Z" transform="translate(-703.26 -558.12)"/><path class="cls-2" d="M835.54,628.92c1.59-.26,3.34.59,4.67-.79.22-.23.64,0,.75.38.07.22.17.53.08.69C839.75,631.29,837.25,631.21,835.54,628.92Z" transform="translate(-703.26 -558.12)"/><path class="cls-2" d="M799.08,610.38c-.7-.54-2.26-.23-2.22-1.19.07-1.47,1.76-1.12,2.77-1.53.68-.28,1.32.15,1.13.77A2.46,2.46,0,0,1,799.08,610.38Z" transform="translate(-703.26 -558.12)"/><path class="cls-3" d="M823.9,657.84c-1.76.45-3.52.92-5.29,1.34-.44.1-1.06.36-1.17-.4s-.25-1.44.88-1.29a3.89,3.89,0,0,0,3.31-.22A2.39,2.39,0,0,1,823.9,657.84Z" transform="translate(-703.26 -558.12)"/><path class="cls-2" d="M793.46,605c-.75-1.26,1-2.49-.89-3.36a1,1,0,0,1-.36-1.52.67.67,0,0,1,1-.25c.6.37,1.75.45,1.6,1.28A22.89,22.89,0,0,1,793.46,605Z" transform="translate(-703.26 -558.12)"/><path class="cls-2" d="M763.29,624.59c.42-.78,1.47-.75,1.64-1.59s.54-1.19,1.37-1c.49.11.64.47.66.92,0,.68.08,1.45-.66,1.73C765.36,625,764.36,625.81,763.29,624.59Z" transform="translate(-703.26 -558.12)"/><path class="cls-2" d="M760.29,622a4,4,0,0,1-2.11,2.14c-.67.27-.74-.58-.61-1,.37-1.11.52-2.57,1.81-2.9C760,620.13,759.86,621.36,760.29,622Z" transform="translate(-703.26 -558.12)"/><path class="cls-2" d="M824.35,633.07c-1.55-1-3-.71-4.6-.09a3.23,3.23,0,0,1,2.67-2.23C824.48,630.3,822.52,633.16,824.35,633.07Z" transform="translate(-703.26 -558.12)"/><path class="cls-2" d="M802,601.86c-.77,1-1.39,2.82-2.54,2.28-1.47-.69-1.11-2,.67-2.22C800.65,601.87,801.13,601.3,802,601.86Z" transform="translate(-703.26 -558.12)"/><path class="cls-2" d="M721.89,610.05c2.28.69,1.55,2.66,1.88,4.14.06.27-.46.7-.95.54s-.62-.64-.39-1.18A3.23,3.23,0,0,0,721.89,610.05Z" transform="translate(-703.26 -558.12)"/><path class="cls-2" d="M844.25,603.28l1.24,2.91c-1.36-.07-2.84-.2-3.19-1.15C841.81,603.71,843.83,604.23,844.25,603.28Z" transform="translate(-703.26 -558.12)"/><path class="cls-2" d="M785.9,602a6.45,6.45,0,0,0-3,2.41c-.28.47-.66.45-1,0a1.39,1.39,0,0,1-.15-.63c1.34-.37,1.68-1.66,2.48-2.53C784.78,600.71,785.39,601.38,785.9,602Z" transform="translate(-703.26 -558.12)"/><path class="cls-2" d="M843,596.23c2,.17,1.32,2.37,2.71,3l-2.44.81A4.67,4.67,0,0,0,843,596.23Z" transform="translate(-703.26 -558.12)"/><path class="cls-2" d="M782.44,635.11c-.54,1.4-2,2.34-1,4.36C779.2,637.39,779.57,636.24,782.44,635.11Z" transform="translate(-703.26 -558.12)"/><path class="cls-2" d="M773.1,621.24c-.16,0-.36,0-.46-.08-.94-.87-1.86-1.76-2.78-2.64.18-.16.41-.49.52-.45C771.85,618.56,772.5,619.87,773.1,621.24Z" transform="translate(-703.26 -558.12)"/><path class="cls-2" d="M843,610.45c-.94.38-1.6.6-2.22.91-.41.2-.77.74-1.2.1-.2-.29-.57-.73,0-1s.62-1.34,1.26-.72S842.21,609.87,843,610.45Z" transform="translate(-703.26 -558.12)"/><path class="cls-3" d="M838.25,653c-.54,1.08-1.67,1-2.59,1.27-.39-1.24.77-1.83,1.11-2.75C837.9,651.44,837.12,653.17,838.25,653Z" transform="translate(-703.26 -558.12)"/><path class="cls-2" d="M822.19,617.52c1.09-.38.92-2.42,2.6-1.88.23.07.56.61.49.71C824.56,617.47,823.38,617.48,822.19,617.52Z" transform="translate(-703.26 -558.12)"/><path class="cls-2" d="M793,633.3l3.17-2.57C796.41,632.79,796.09,633.08,793,633.3Z" transform="translate(-703.26 -558.12)"/><path class="cls-2" d="M814.13,634.25a.81.81,0,0,1-.93-.66c-.09-.87.57-1.3,1.27-1.56a.63.63,0,0,1,.88.58A1.78,1.78,0,0,1,814.13,634.25Z" transform="translate(-703.26 -558.12)"/><path class="cls-3" d="M832.14,598.46c-.18,1.23-1.73.62-2.12,1.57-.51,0-1.24.32-1.3-.58,0-.57.34-.87.93-.89C830.48,598.54,831.31,598.5,832.14,598.46Z" transform="translate(-703.26 -558.12)"/><path class="cls-2" d="M781,626.9a1.26,1.26,0,0,1,.12,1.65c-.35.52.21,1.43-.68,1.65-.2,0-.59-.26-.74-.5-.43-.7,0-1.22.46-1.73C780.43,627.69,780.65,627.37,781,626.9Z" transform="translate(-703.26 -558.12)"/><path class="cls-2" d="M727.08,616.6c1.3-.11,2.34-.58,3.06.39.28.38-.22.69-.6.88C728.16,618.59,728,617.35,727.08,616.6Z" transform="translate(-703.26 -558.12)"/><path class="cls-2" d="M829.73,594.85l-2.81,1.32a.67.67,0,0,1-1-.35c-.2-.55.3-.73.68-.81,1-.2,2-.33,3-.48Z" transform="translate(-703.26 -558.12)"/><path class="cls-2" d="M814.29,622.32c-1,.28-1.56,1.44-2.64,1.13a.73.73,0,0,1-.2-1.07C812.3,621.54,813.29,622.08,814.29,622.32Z" transform="translate(-703.26 -558.12)"/><path class="cls-2" d="M775.18,606.66c-.85,1.1-1.47,1.76-2.48,1.33a1.2,1.2,0,0,1-.28-1.12C773.1,606,774,606.5,775.18,606.66Z" transform="translate(-703.26 -558.12)"/><path class="cls-2" d="M790.88,606.72c1.14,1.62-.42,2.81.3,4,0,0-.32.28-.49.43-.19-.25-.56-.52-.53-.74C790.31,609.31,790.57,608.23,790.88,606.72Z" transform="translate(-703.26 -558.12)"/><path class="cls-3" d="M870.54,635.41c-.13.92-.58,1.37-1.54,1A1.52,1.52,0,0,1,870.54,635.41Z" transform="translate(-703.26 -558.12)"/><path class="cls-3" d="M872.53,633.64c-.11.9-.51,1.47-1.53,1.31C870.92,633.83,872,634.08,872.53,633.64Z" transform="translate(-703.26 -558.12)"/><path class="cls-2" d="M762.52,617.93c-.08.5-.18,1-.86.9-.12,0-.33-.18-.32-.23.14-.56.59-.7,1.09-.78Z" transform="translate(-703.26 -558.12)"/><path class="cls-3" d="M817.83,656.79h-.15l.51-1.62C818.76,655.93,817.79,656.23,817.83,656.79Z" transform="translate(-703.26 -558.12)"/><path class="cls-3" d="M869,636.41c.36,1.06-.36,1-1,1A1,1,0,0,1,869,636.41Z" transform="translate(-703.26 -558.12)"/><path class="cls-3" d="M867.53,637.91c0,.66-.53.64-.92.82C866.59,638.08,867,638,867.53,637.91Z" transform="translate(-703.26 -558.12)"/><path class="cls-3" d="M871,634.91c.16.53-.07.66-.54.54Z" transform="translate(-703.26 -558.12)"/><path class="cls-2" d="M742.06,621.35l.21.27-.28-.21Z" transform="translate(-703.26 -558.12)"/><path class="cls-3" d="M868,637.4c.15.52-.17.56-.55.54Z" transform="translate(-703.26 -558.12)"/><path class="cls-2" d="M742,621.41l-.2-.27.27.21Z" transform="translate(-703.26 -558.12)"/><path class="cls-3" d="M881.93,640a26.67,26.67,0,0,1-6.21-5.39c-1.56-1.68.5-2,1.09-2.84.87-1.17,1.34-.09,1.78.55A18.53,18.53,0,0,1,881.93,640Z" transform="translate(-703.26 -558.12)"/><path class="cls-3" d="M892.48,617.37c-.09.5-.24,1-.73.85-1.21-.38-2.55-.66-3.14-1.94-.09-.19.44-1.48,1.06-1.34A4.79,4.79,0,0,1,892.48,617.37Z" transform="translate(-703.26 -558.12)"/><path class="cls-3" d="M865.21,652.31c1.18,1.31,1.31,2.15.85,3.34C865.19,654.74,865.28,653.89,865.21,652.31Z" transform="translate(-703.26 -558.12)"/><path class="cls-3" d="M865.54,651.22c.27.58-.11.59-.24.76a5.67,5.67,0,0,1-.4-.59c-.18-.35.21-.37.34-.54Z" transform="translate(-703.26 -558.12)"/><path class="cls-3" d="M862.25,644.91a1.43,1.43,0,0,1,.15.34s-.1.11-.16.16a1.56,1.56,0,0,1-.16-.34S862.19,645,862.25,644.91Z" transform="translate(-703.26 -558.12)"/><path class="cls-3" d="M901.25,606.28c-3.66.06-7.06-.66-10.93,0C892.59,604.4,898.69,604.53,901.25,606.28Z" transform="translate(-703.26 -558.12)"/><path class="cls-1" d="M833.53,603.24c-.77-.22-.94-.89-1.05-1.52s.23-.93.85-.9,1.26.06,1.23.86A1.67,1.67,0,0,1,833.53,603.24Z" transform="translate(-703.26 -558.12)"/></svg>