<svg id="Ebene_1" data-name="Ebene 1" xmlns="http://www.w3.org/2000/svg" viewBox="0 0 387.09 212.59"><defs><style>.cls-1{fill:#fefefe;}.cls-2{fill:#131211;}.cls-3{fill:#373737;}.cls-4{fill:#353535;}.cls-5{fill:#e25739;}.cls-6{fill:#e25738;}.cls-7{fill:#e35739;}.cls-8{fill:#e15638;}.cls-9{fill:#e05638;}.cls-10{fill:#de5639;}.cls-11{fill:#030303;}.cls-12{fill:#272727;}.cls-13{fill:#303030;}.cls-14{fill:#bf4b32;}.cls-15{fill:#874b3e;}.cls-16{fill:#0b0908;}</style></defs><title>plankton</title><path class="cls-1" d="M1151,549.41q-95.62,0-191.25,0c-1.87,0-2.3-.42-2.3-2.3q.08-104,0-208c0-1.87.42-2.3,2.3-2.3q191.25.08,382.5,0c1.87,0,2.3.42,2.3,2.3q-.08,104,0,208c0,1.87-.42,2.3-2.3,2.3Q1246.63,549.37,1151,549.41Zm-16.07-69.48c0-2-.65-4.46,3-3.64,1.09.25,1.66-1.27,1.41-1.9-.61-1.54-.28-3.11-.56-4.65-.58-3.22-.93-6.48-1.31-9.74-.09-.76-.32-1.7,1.1-1.67s1.54.65,1.49,1.73a13,13,0,0,0,.1,2.23c1,7.06,2,14.1,2.86,21.17.22,1.75.43,3,2.68,2.94s2.44-1.36,2.24-3c-.73-6.1-1.52-12.19-2.27-18.29-.26-2.12-.49-4.24-.7-6.36,0-.4,0-.88.6-.84.41,0,.45.38.49.71.66,5,1.51,9.89,1.93,14.86.21,2.46.8,3.81,3.49,3.37,1.65-.27,2.1.46,2.15,2.09,0,1.86.73,3.7.83,5.56.16,3,2.31,1.68,3.67,1.79,1.76.15,2-1.22,1.82-2.56-.39-3.27-.85-6.53-1.32-10.08a6.59,6.59,0,0,0,4.07.68c2.71-.23,3.61-1.3,3.25-3.56-.68-4.28-1.34-8.56-2-12.85-.09-.64-.39-1.64.91-1.56.75,0,1.44-.26,1.77,1.06a41.71,41.71,0,0,1,.49,4.41c.67,4.53,1.28,9.07,1.9,13.61.39,2.84.8,5.68,1.15,8.52.27,2.13,1.76,2,3.29,1.91,1.73,0,2.07-1.1,2-2.51-.16-2.05-.27-4.11-.55-6.15-.94-6.73-2-13.44-2.93-20.16-.29-2,1.53-.87,2.25-1.41s1.32-.07,1.3.76c-.05,3,.77,5.86,1.07,8.8.35,3.5,1,7,1.46,10.45.3,2.13,1.93,1,3,1.18s1.49-.4,1.44-1.45a34.69,34.69,0,0,0-.11-4.24c-.8-4.77-1.49-9.55-1.88-14.37-.05-.67-1-1.85.8-1.93,1.42-.07,2.29.33,2.26,1.86a29,29,0,0,0,.47,3.9c.86,7.57,1.92,15.11,3,22.65.2,1.39,1,2.26,1.93,1.87,1.37-.56,3.89.76,4-2.16a27,27,0,0,0-.5-4.65c-.71-5.85-1.41-11.7-2.41-17.51-.28-1.61-.38-3.27-.54-4.9-.31-3.1,2.69-.63,3.59-1.89a5.74,5.74,0,0,1,.52.28c-.52,3.81.48,7.64.47,11.54,0,3.54.3,7.08.46,10.61a2.18,2.18,0,0,0,2.08,2.34c2.7.13,3.41-.6,3.29-3.43-.27-6.65-.67-13.29-.94-19.94,0-.71-.7-2,.93-2,1.84-.07,1.12,1.36,1.1,2.13-.15,4.3.8,8.55.57,12.86-.07,1.4.35,2.59,2.25,2.54s2.13-1.09,2.13-2.62c0-4.71-.82-9.39-.53-14.11,0-.63-.3-1.31.81-1.32.92,0,1.37.2,1.33,1.23-.14,3.55.68,7,.52,10.61-.15,3.3.7,6.57.51,9.9-.1,1.7.92,2.41,2.72,2.32s2.27-1.07,2.12-2.61c-.13-1.3-.42-2.6-.47-3.9-.22-5.58-.35-11.16-.58-16.73,0-.6-.41-1.12.52-1.27s1.12.27,1.16,1.11c.11,2.54.42,5.07.46,7.61.08,5.09,0,5.09,5.2,4.66a1,1,0,0,0,.23-.08l1.1,1.21c0,1.67.08,3.34,0,5-.14,2.05.45,3,2.75,3.05,2.45.08,2.21-1.3,2.17-2.84,0-1.17.07-2.34,0-3.5-.11-1.43.37-2.32,1.88-2.22s1.67-.88,1.65-2.06c0-2.12,0-4.24,0-6.38a.66.66,0,0,1,.59.81c-.19,4.07.29,8.1.48,12.15.07,1.61.48,2.49,2.27,2.48s2.26-1,2.16-2.57c0-.66,0-1.33,0-2-.32-5.66-.67-11.31-1-17,0-.56-.36-1.45.76-1.47s.74.85.82,1.43a66,66,0,0,1,.52,9.9c0,1.62.84,3,2.5,2.36,1.86-.73,1.36.57,1.66,1.3s-.73,1.81.34,2.52c0,1.67,0,3.33,0,5s.83,2,2.23,2,2.21-.56,2.17-2.06c0-1.22,0-2.46-.08-3.67a175.08,175.08,0,0,1-.92-18.07c0-.55-.16-1.21.78-1.23.77,0,1.05.54,1.19,1.06a7.94,7.94,0,0,1,.12,2c0,2.17-.09,4.34.05,6.5.11,1.63,1.23,2.31,2.78,1.93,1.35-.34,1.64-1.3,1.33-2.64-.6-2.62-.15-5.3-.25-7.95,0-.61-.22-1.39.88-1.38s1.22.61,1.22,1.47c0,6.61.42,13.19,1,19.77.11,1.27-.09,2.71,1.71,2.72s1.76-1.4,1.72-2.69c-.17-5.72-.27-11.44-.58-17.15-.05-1,.36-2.1-.28-3.13-.28-.45-.52-1.37.59-1.47s.88.77.86,1.37c-.15,3.55.81,7,.52,10.61-.14,1.74.55,3,2.48,3,2.18,0,1.82-1.62,1.92-3,.26-3.48-.48-6.9-.55-10.37,0-1.49.18-2.42,2-2.1s3.58-.49,5.4-.52a1.58,1.58,0,0,0,1.64-2,114.64,114.64,0,0,1-1-15.81c0-.85-.4-1.63-.43-2.41-.14-3.6-.12-7.2-.17-10.8,0-1.31-.74-2.45-2-2.05-3.61,1.16-7.34.79-11,1.17-4.75.49-9.53.81-14.3,1.12-9,.59-18,1.59-27,2.42-6.13.56-12.28.71-18.42,1.4s-12.47,1-18.7,1.57c-5.09.48-10.24.42-15.29,1.15a62.68,62.68,0,0,1-8.09.62c-5.41.07-10.81,2.28-16.25.33a1,1,0,0,0-.9.21c-1.09,1.7-2.79,1.2-4.31,1.21-2.9,0-5.79.34-8.64.63-7.45.77-15,.88-22.36,2-3.5.53-7.64-1.29-10.49,2.32-.1.13-.48,0-.73.06-4.52.33-9.06.51-13.55,1.07-2.31.29-4.61.27-6.91.46-7.15.6-7.2.64-7.3,7.74,0,2.08-.82,1.24-1.71.67-9.63-6.18-19.25-12.38-28.92-18.5a3.14,3.14,0,0,1-1.42-2.17c-.77-3.59-1.33-7.24-2.16-10.81-.21-.91,0-2.68-1.79-2.42s-.79,1.84-1,2.84c-.06.27.25.6.3.92.62,3.79,1.94,7.45,2.15,11.32a2.1,2.1,0,0,0,1.17,1.76c5.49,3.49,11,6.92,16.45,10.49s11.23,6.84,16.48,10.81l-.83.48q-17.5-6.09-35-12.16c-.56-.19-.68-.62-1-1-2.67-3.75-5.42-7.44-8-11.22-.64-.93-1.27-1.78-2.3-1s-.33,1.89.19,2.67c1.64,2.46,3.39,4.85,5.11,7.25,2.24,3.12,3.93,6.32,8.56,7.28,6.2,1.29,12.1,4,18.14,6l-.5.61-3.5-.54c-.25-.33-.52-.63-1-.45l-1,0c-.25-.33-.52-.63-1-.45l-9.5-2c-.25-.33-.52-.63-1-.45l-1,0a1.12,1.12,0,0,0-2,0c-6.49,2.17-12.58,5.29-18.83,8-.9.39-2.07.79-1.59,2.09s1.6.72,2.5.33c5.21-2.27,10.41-4.57,15.63-6.8,1.37-.59,2.58-1.37,4.38-.92,10.78,2.66,21.6,5.16,32.43,7.61,1.62.37,2.43.73,2.7,2.66.14,1-.82,3.46,1.76,3.37,3.63-.13,7.27-.32,10.89-.6,5.25-.41,10.49-.92,15.73-1.38.77-.07,1.63-.1,1.42,1.08-.27,1.53.57,2.91.51,4.4a1.71,1.71,0,0,0,1.94,2c1.46,0,3.54-.59,4.2.13s.18,2.84.39,4.3c1,7.34,1.26,14.75,1.9,22.12.2,2.29,1.28,2.61,3.07,2.44,2-.2,2.06-1.75,1.84-3.12-.55-3.34-.68-6.7-.95-10.06-.38-4.77-1-9.52-1-14.31,0-.63-1-1.24,0-2,.19.28.47.52.51.79.71,5.53,1.43,11.06,2,16.6.16,1.43.65,2.08,2.12,2.13,2.65.09,3.3-1.11,2.73-4.4-.76-4.43-1.3-8.91-1.92-13.37-.21-1.47.07-2.61,2-2.61.23,2.11.42,4.23.7,6.34.6,4.54,1.29,9.08,1.87,13.62.36,2.85,1,5.66,1.11,8.55.06,1.15.72,2.61,2.37,2.3a2.18,2.18,0,0,0,1.91-2.5c-.54-4.22-1.2-8.43-1.74-12.65-.61-4.72-1.13-9.44-1.76-14.16-.18-1.38.33-2,1.65-2.11s1.35.94,1.47,1.86c.49,3.73,1.15,7.46,1.43,11.21.15,2.08,1.09,2.65,2.85,2.38,2.1-.31,1.69-1.94,1.51-3.3-.49-3.65-1.27-7.27-1.4-11,0-.7-.78-1.7.79-1.71,1.06,0,1.86,0,2,1.43.12,1.87.6,3.71.85,5.57,1,7.38,2,14.76,3,22.16.18,1.46.47,2.38,2.14,2.36s2.72-.62,2.73-2.44c.18-.48-.12-.75-.45-1l-.05-3c.18-.48-.11-.75-.45-1l-.05-2.5C1135.56,480.45,1135.26,480.18,1134.93,479.93Z" transform="translate(-957.45 -336.86)"/><path class="cls-2" d="M1220,465.69a1,1,0,0,1-.23.08c-5.17.42-5.12.42-5.2-4.66,0-2.54-.35-5.07-.46-7.61,0-.84-.26-1.25-1.16-1.11s-.54.67-.52,1.27c.23,5.58.36,11.16.58,16.73.05,1.31.34,2.6.47,3.9.15,1.54-.27,2.52-2.12,2.61s-2.82-.62-2.72-2.32c.19-3.33-.66-6.6-.51-9.9.16-3.56-.66-7.06-.52-10.61,0-1-.41-1.24-1.33-1.23-1.1,0-.77.7-.81,1.32-.29,4.72.53,9.4.53,14.11,0,1.53-.26,2.57-2.13,2.62s-2.32-1.14-2.25-2.54c.23-4.31-.72-8.55-.57-12.86,0-.77.75-2.2-1.1-2.13-1.63.07-1,1.34-.93,2,.27,6.65.67,13.29.94,19.94.12,2.83-.59,3.56-3.29,3.43a2.18,2.18,0,0,1-2.08-2.34c-.16-3.54-.47-7.08-.46-10.61,0-3.9-1-7.73-.47-11.54a5.74,5.74,0,0,0-.52-.28c-.89,1.26-3.89-1.22-3.59,1.89.16,1.63.26,3.28.54,4.9,1,5.81,1.71,11.66,2.41,17.51a27,27,0,0,1,.5,4.65c-.15,2.92-2.66,1.6-4,2.16-1,.39-1.73-.48-1.93-1.87-1.08-7.54-2.13-15.08-3-22.65a29,29,0,0,1-.47-3.9c0-1.53-.84-1.93-2.26-1.86-1.8.08-.86,1.26-.8,1.93.39,4.82,1.07,9.6,1.88,14.37a34.69,34.69,0,0,1,.11,4.24c0,1.05-.39,1.68-1.44,1.45s-2.67.95-3-1.18c-.49-3.48-1.11-7-1.46-10.45-.29-2.94-1.12-5.81-1.07-8.8,0-.83-.55-1.33-1.3-.76s-2.54-.6-2.25,1.41c1,6.72,2,13.44,2.93,20.16.28,2,.39,4.1.55,6.15.11,1.41-.22,2.46-2,2.51-1.53,0-3,.23-3.29-1.91-.35-2.85-.76-5.68-1.15-8.52-.63-4.54-1.24-9.08-1.9-13.61a41.71,41.71,0,0,0-.49-4.41c-.33-1.32-1-1-1.77-1.06-1.3-.08-1,.92-.91,1.56.61,4.29,1.28,8.57,2,12.85.36,2.26-.55,3.33-3.25,3.56a6.59,6.59,0,0,1-4.07-.68c.47,3.55.93,6.81,1.32,10.08.16,1.34-.06,2.71-1.82,2.56-1.36-.11-3.52,1.17-3.67-1.79-.1-1.86-.78-3.7-.83-5.56,0-1.63-.5-2.36-2.15-2.09-2.69.44-3.28-.91-3.49-3.37-.42-5-1.27-9.91-1.93-14.86,0-.34-.08-.69-.49-.71-.6,0-.64.44-.6.84.22,2.12.44,4.25.7,6.36.75,6.1,1.55,12.19,2.27,18.29.19,1.63,0,2.93-2.24,3s-2.46-1.19-2.68-2.94c-.89-7.06-1.91-14.11-2.86-21.17a13,13,0,0,1-.1-2.23c0-1.08-.21-1.71-1.49-1.73s-1.19.92-1.1,1.67c.38,3.25.73,6.52,1.31,9.74.28,1.54,0,3.11.56,4.65.25.63-.33,2.15-1.41,1.9-3.65-.83-3,1.61-3,3.64-.65.69-.21.9.45,1l.05,2.5c-.64.69-.22.9.45,1l.05,3c-.64.69-.22.9.45,1,0,1.82-1.07,2.41-2.73,2.44s-2-.9-2.14-2.36c-.91-7.4-1.95-14.78-3-22.16-.26-1.86-.73-3.7-.85-5.57-.1-1.48-.9-1.45-2-1.43-1.57,0-.82,1-.79,1.71.13,3.7.91,7.32,1.4,11,.18,1.37.59,3-1.51,3.3-1.77.26-2.7-.3-2.85-2.38-.28-3.75-.94-7.47-1.43-11.21-.12-.93-.19-1.92-1.47-1.86s-1.83.73-1.65,2.11c.63,4.71,1.14,9.44,1.76,14.16.55,4.22,1.2,8.43,1.74,12.65a2.18,2.18,0,0,1-1.91,2.5c-1.65.31-2.31-1.15-2.37-2.3-.16-2.89-.74-5.7-1.11-8.55-.58-4.55-1.26-9.08-1.87-13.62-.28-2.11-.47-4.23-.7-6.34-2,0-2.22,1.15-2,2.61.62,4.46,1.16,8.93,1.92,13.37.57,3.29-.08,4.49-2.73,4.4-1.47-.05-2-.7-2.12-2.13-.6-5.54-1.33-11.07-2-16.6,0-.27-.32-.51-.51-.79-1.08.76,0,1.37,0,2,0,4.79.62,9.54,1,14.31.27,3.36.4,6.72.95,10.06.22,1.37.16,2.93-1.84,3.12-1.79.17-2.86-.15-3.07-2.44-.64-7.37-.87-14.78-1.9-22.12-.21-1.47.38-3.47-.39-4.3s-2.75-.13-4.2-.13a1.71,1.71,0,0,1-1.94-2c.05-1.49-.78-2.87-.51-4.4.21-1.18-.65-1.14-1.42-1.08-5.24.45-10.48,1-15.73,1.38-3.62.28-7.26.47-10.89.6-2.58.09-1.62-2.4-1.76-3.37-.27-1.92-1.07-2.29-2.7-2.66-10.83-2.45-21.65-4.95-32.43-7.61-1.81-.45-3,.33-4.38.92-5.23,2.23-10.42,4.53-15.63,6.8-.9.39-2,1.07-2.5-.33s.69-1.7,1.59-2.09c6.25-2.73,12.34-5.85,18.83-8a1.32,1.32,0,0,0,2,0l1,0c.11.65.31,1.1,1,.45l9.5,2c.11.65.31,1.11,1,.45l1,0c.12.63.31,1.1,1,.45l3.5.54c.17.26.3.69.52.74,3.32.75,6.57,1.87,10,2.17a.81.81,0,0,0,1,.37c.06,0,.09-.12.14-.18l-1.08-.23a32.92,32.92,0,0,0-10-3.47c-6-2.08-11.94-4.76-18.14-6-4.63-1-6.32-4.16-8.56-7.28-1.72-2.4-3.47-4.79-5.11-7.25-.52-.78-1.26-1.91-.19-2.67s1.66.12,2.3,1c2.62,3.78,5.37,7.47,8,11.22.28.4.41.83,1,1q17.51,6.06,35,12.16a.69.69,0,0,0,1,.22c.31-.23.14-.54-.2-.7-5.26-4-11-7.2-16.48-10.81s-11-7-16.45-10.49a2.1,2.1,0,0,1-1.17-1.76c-.21-3.86-1.53-7.52-2.15-11.32-.05-.32-.36-.65-.3-.92.21-1-.83-2.57,1-2.84s1.57,1.51,1.79,2.42c.83,3.58,1.39,7.22,2.16,10.81a3.14,3.14,0,0,0,1.42,2.17c9.67,6.12,19.29,12.32,28.92,18.5.89.57,1.68,1.41,1.71-.67.11-7.1.15-7.14,7.3-7.74,2.3-.19,4.6-.18,6.91-.46,4.49-.56,9-.73,13.55-1.07.25,0,.62.07.73-.06,2.85-3.61,7-1.8,10.49-2.32,7.39-1.12,14.91-1.23,22.36-2,2.85-.3,5.75-.62,8.64-.63,1.52,0,3.22.49,4.31-1.21a1,1,0,0,1,.9-.21c5.45,1.95,10.84-.26,16.25-.33a62.68,62.68,0,0,0,8.09-.62c5-.73,10.2-.67,15.29-1.15,6.23-.59,12.5-.86,18.7-1.57s12.29-.84,18.42-1.4c9-.82,18-1.83,27-2.42,4.77-.31,9.55-.62,14.3-1.12,3.66-.38,7.39,0,11-1.17,1.26-.4,2,.74,2,2.05.05,3.6,0,7.21.17,10.8,0,.78.44,1.56.43,2.41a114.64,114.64,0,0,0,1,15.81,1.58,1.58,0,0,1-1.64,2c-1.82,0-3.56.85-5.4.52s-2,.61-2,2.1c.07,3.46.8,6.88.55,10.37-.1,1.4.26,3-1.92,3-1.92,0-2.61-1.24-2.48-3,.28-3.56-.68-7.06-.52-10.61,0-.6.25-1.46-.86-1.37s-.87,1-.59,1.47c.64,1,.23,2.12.28,3.13.31,5.71.41,11.43.58,17.15,0,1.29.08,2.71-1.72,2.69s-1.6-1.45-1.71-2.72c-.55-6.58-1-13.16-1-19.77,0-.86-.19-1.46-1.22-1.47s-.9.77-.88,1.38c.1,2.65-.34,5.33.25,7.95.3,1.34,0,2.31-1.33,2.64-1.56.39-2.68-.3-2.78-1.93-.14-2.16,0-4.33-.05-6.5a7.94,7.94,0,0,0-.12-2c-.14-.52-.43-1.08-1.19-1.06-.94,0-.77.68-.78,1.23a175.08,175.08,0,0,0,.92,18.07c.11,1.22,0,2.45.08,3.67,0,1.5-.74,2.05-2.17,2.06s-2.24-.47-2.23-2,0-3.33,0-5c.52-.93.93-1.84-.34-2.52-.29-.73.2-2-1.66-1.3-1.65.65-2.52-.74-2.5-2.36a66,66,0,0,0-.52-9.9c-.08-.58.31-1.46-.82-1.43s-.79.91-.76,1.47c.3,5.66.64,11.31,1,17,0,.66,0,1.33,0,2,.1,1.56-.31,2.56-2.16,2.57s-2.2-.87-2.27-2.48c-.18-4-.66-8.09-.48-12.15a.66.66,0,0,0-.59-.81c0,2.14,0,4.26,0,6.38,0,1.18,0,2.17-1.65,2.06s-2,.79-1.88,2.22c.09,1.16,0,2.33,0,3.5,0,1.53.28,2.92-2.17,2.84-2.3-.07-2.89-1-2.75-3.05.11-1.66,0-3.33,0-5-.06-3.85-.06-7.7-.2-11.54a33.16,33.16,0,0,0-.67-4.18C1219.32,456.05,1220.48,460.87,1220,465.69Zm-86.49,20.24c.11.65-.19,1.37.49,2.31a9.21,9.21,0,0,0,0-1.51,3.32,3.32,0,0,0-.43-.83v-3C1133.09,484,1132.66,485,1133.48,485.93Zm-2.5-19v3c.49-1.66.49-1.66,0-3v-3C1130.62,465,1130.14,466,1131,466.93Zm86.52-14.52c-.13-.26-.21-.71-.39-.75-.54-.12-.56.36-.61.75-1.37,3.66.42,7.29.19,10.95,0,.67.83.57,1.31.05a9.11,9.11,0,0,0,0-6.5C1218.11,455.38,1218.44,453.83,1217.5,452.41Zm-113.51,25v4.95c.3-1.66,1-3.36,0-5V472C1103.74,473.79,1103,475.65,1104,477.42Zm-10.49-42c-.07.52.09,1.1-.41,1.49-.1-.65-.2-1.3-.3-2-.3-1.84-1.12-2.25-3.12-2-5,.63-10.09.75-15.13,1.15-3,.23-5.94.64-8.91.86-1.41.1-1.52.79-1.4,2,.53,5.2,1.05,10.4,1.39,15.61.1,1.47.56,1.87,1.91,1.74,2.15-.21,4.3-.35,6.45-.51,4.72-.36,9.45-.6,14.15-1.16,1.81-.22,4.16.42,5.29-.66s.22-3.64.59-5.5c.14-.67-.2-1.43.42-2,1.11,4,.73,8.2,1.19,12.29.36,3.2.27,3.32,3.47,2.92a98.42,98.42,0,0,1,9.87-1c3.23-.08,6.43-.46,9.65-.63,1.37-.07,2-.5,1.81-2.14-.36-3.46-.3-7-.6-10.43-.42-4.79-.95-9.58-1-14.4,0-1.69-.91-2.12-2.4-1.93-1.81.24-3.61.44-5.45.54-4.88.27-9.75.81-14.63,1.11-2.15.13-3.1,1-2.73,3.18Zm92.51,20c-.83.75-.51,1.7-.4,2.57.95,7.12,1.94,14.23,2.87,21.35.11.85.06,1.68,1,2.08l.41.49c1,0,.84-.56.74-1.33-.61-4.58-1.11-9.18-1.69-13.76-.46-3.6-1-7.19-1.47-10.79-.08-.59-.1-1.22-.8-1.38s-.62.38-.68.79Zm9.56,3a48.25,48.25,0,0,1,.44,8.68c0,2.65.74,5.26.51,7.93,0,.55-.05,1.29.84,1.17.68-.09.56-.71.59-1.19a10.69,10.69,0,0,0,0-1.25q-.49-7.68-1-15.36c0-1.15,0-2.3,0-3.44,0-.42-.1-.86-.61-.92-.68-.08-.82.43-.82.94C1195.53,456.16,1195.56,457.31,1195.58,458.45Zm-56.89-26.67c-1.06-.38-.84-1.31-.85-2.09,0-1.53-.6-2.28-2.27-2.13q-7.06.64-14.14,1.14c-1.55.11-1.89.86-1.77,2.29.7,8.43,1.37,16.86,2,25.29.09,1.28.57,1.63,1.67,1.42a109,109,0,0,1,12.85-1.11c7.61-.49,15.21-1.25,22.82-1.81,1.37-.1,2.08-.16,1.94-1.91-.48-5.87-.54-11.77-1.18-17.61-.28-2.56-.15-5.14-.57-7.69-.21-1.28-.62-1.79-2.11-1.64q-7.55.74-15.13,1.11c-2.17.1-3.79.26-2.92,3.1A1.61,1.61,0,0,1,1138.69,431.79Zm100.53,1.88c-.38,3.76.47,7.46.49,11.2a4.85,4.85,0,0,0,.76,2.38c2.1-.26,4.2,1.42,6.26,0a1.77,1.77,0,0,1,1.39-.42,17.32,17.32,0,0,0,10.45-1.07,1.85,1.85,0,0,1,1.43,0c1.8,1.08,3.72.36,5.58.48,2.45.16,2.94-1.13,2.76-3.39-.61-7.77-1.14-15.55-1.44-23.33-.09-2.34-1-2.5-2.88-2.32-7.76.71-15.52,1.36-23.29,1.88-1.64.11-2.19.58-2.1,2.2C1238.89,425.37,1239,429.52,1239.22,433.67Zm-58.62,7.78c-.22-5.15-.31-10.3-.66-15.45-.12-1.77-.76-2.05-2.25-1.9-5.36.53-10.72,1.06-16.09,1.44-1.3.09-1.53.6-1.44,1.68q.27,3.22.5,6.45c.39,5.29.59,10.6,1.2,15.87s.79,5.09,6.34,4.52c3.67-.38,7.32-1.31,11.05-1.08,1.42.09,1.36-.85,1.35-1.8Q1180.6,446.3,1180.6,441.44Zm18.92-2.14h.69c-.38,3.67.78,7.26.46,10.93-.07.75.27,1,1,1,5.43-.46,10.85-1,16.29-1.3,1.83-.1,2-1,1.83-2.36-.84-8.31-1.7-16.63-2.45-24.95-.11-1.19-.42-1.62-1.6-1.52q-7.3.66-14.61,1.27c-1.5.12-1.75.81-1.7,2.3C1199.63,429.52,1199.52,434.41,1199.52,439.3Zm38.29-10.15a50.7,50.7,0,0,0-.33-8.06c-.13-1.09-.45-1.64-1.67-1.54-5.2.43-10.4.81-15.61,1.2-1.22.09-1.7.6-1.57,1.92.45,4.78.79,9.56,1.19,14.34.27,3.22.49,6.44.89,9.64.14,1.14-.35,3.13,1.59,3,5.19-.31,10.36-.93,15.54-1.41.74-.07.82-.24.78-1.05C1238.27,441.16,1238.06,435.11,1237.81,429.15Zm-56.15,14.35c0,2.5,0,5,0,7.5,0,1.21.2,1.87,1.62,1.76,5-.41,9.94-.73,14.91-1.14.64-.05,1.45,0,1.38-1.24-.46-8.8-.84-17.61-1.19-26.41,0-1.12-.46-1.48-1.5-1.39-4.55.4-9.09.82-13.64,1.15-1.71.12-2.08.92-2.1,2.55C1181,432,1181.49,437.77,1181.66,443.51Zm-24.25,40.82a35,35,0,0,0,0-3.87c-.94-7.11-1.93-14.22-2.91-21.33-.08-.61.21-1.61-.75-1.53s-.71,1.14-.63,1.81c.79,6.22,1.5,12.45,2.51,18.63C1155.92,479.9,1155.54,482,1157.41,484.33Zm15-1,.93-.13-3.57-27-.9.12C1169.77,465.33,1171.09,474.31,1172.43,483.28Zm-40.06-24.87c-.9,2.1,0,3.85.2,5.6.34,3.62,1,7.21,1.45,10.81.07.51.15,1.11.74,1.13s.7-.58.62-1.1c-.54-3.85-1-7.71-1.7-11.52C1133.38,461.78,1134.12,459.94,1132.37,458.41ZM1151.45,473c-.68-5-1.33-9.78-2-14.6-.06-.44-.2-.86-.71-.84-.69,0-.69.55-.62,1.08q1,7.23,1.91,14.45c.07.52.24,1.11.79,1.09C1151.72,474.15,1151.38,473.34,1151.45,473Zm8.5-13.83c-.17,1.64.53,3.1.57,4.69a67.54,67.54,0,0,0,.91,6.79c.08.65.35.85.94.82s.68-.37.67-.82a17,17,0,0,0-.11-1.73c-.45-3.23-.93-6.46-1.37-9.7-.11-.79.18-1.89-1.1-1.77S1160.36,458.66,1160,459.15Zm63.24,13.45.87,0-1.18-20.87-.75,0Zm-77.93,10.93.68-.07-3.37-25.13-.65.09Zm65-30.67-.67,0,1,21.5.62,0ZM1227,464.07c.74-4.47-.37-8.87-.45-13.31C1225.69,455.24,1226.88,459.63,1227,464.07Zm-116.86,14,.68,0-2.29-17.22-.64.08Zm129.32-27.86c.25,4.28-.09,8.6.54,12.88C1241,458.81,1239.83,454.54,1239.45,450.25Zm-7.07,7.21h-.23v8.38h.23Zm-100.62,14c-.63,2.05.27,4,.39,6.42C1133,475.38,1131.86,473.47,1131.77,471.47Zm46.5-13c-.63,2.07.28,4,.39,6.47C1179.48,462.38,1178.37,460.47,1178.27,458.48Zm1.47,10.89c-.32,3.12-.32,3.12.79,4.82Zm-76.6,1h.21v-4.46h-.21Zm139-5.62.24,0v-4.39h-.24ZM1231.6,454.3l.23,0v-3.83h-.23Zm-101.48,8c.31-1,.55-2.12-.38-3ZM1104.9,484l-.24,0v3.83h.24Zm-2.18-19.54a4.7,4.7,0,0,0,0-3.19A6,6,0,0,0,1102.72,464.49Zm76.51,3.82a3.19,3.19,0,0,0,0-2.51C1178.84,466.52,1179,467.19,1179.23,468.31Zm-46.12,13.16c-.33-1.17.24-1.87-.68-2.8C1132.64,479.63,1132.27,480.32,1133.11,481.46ZM1203.56,459c-.17-1.18.13-1.71-.42-2.32A2.72,2.72,0,0,0,1203.56,459Zm29.28,11.83c0-.52.42-1.06-.15-1.52A1.23,1.23,0,0,0,1232.85,470.87Zm-55-13.86c.2-.58.43-1.1-.16-1.6C1177.51,456,1177.34,456.49,1177.8,457Zm25.73-2.06-.31-.6a3.53,3.53,0,0,0-.18.66c0,.14.09.28.15.43Z" transform="translate(-957.45 -336.86)"/><path class="cls-3" d="M1220,465.69c.52-4.82-.65-9.63.24-14.51a33.16,33.16,0,0,1,.67,4.18c.14,3.84.14,7.69.2,11.54Z" transform="translate(-957.45 -336.86)"/><path class="cls-4" d="M1047,443.42a32.92,32.92,0,0,1,10,3.47l0,0c-3.42-.3-6.67-1.41-10-2.17-.22,0-.35-.48-.52-.74Z" transform="translate(-957.45 -336.86)"/><path class="cls-4" d="M1240.23,465.37c1.27.68.86,1.59.34,2.52C1239.49,467.18,1240.42,466.2,1240.23,465.37Z" transform="translate(-957.45 -336.86)"/><path class="cls-4" d="M1028.48,440a1.32,1.32,0,0,1-2,0A1.12,1.12,0,0,1,1028.48,440Z" transform="translate(-957.45 -336.86)"/><path class="cls-4" d="M1043,443.48c-.7.65-.89.18-1-.45C1042.46,442.86,1042.73,443.15,1043,443.48Z" transform="translate(-957.45 -336.86)"/><path class="cls-4" d="M1030.48,440.49c-.7.65-.9.2-1-.45C1030,439.86,1030.23,440.15,1030.48,440.49Z" transform="translate(-957.45 -336.86)"/><path class="cls-3" d="M1135.38,480.93c-.66-.11-1.1-.31-.45-1C1135.26,480.18,1135.56,480.45,1135.38,480.93Z" transform="translate(-957.45 -336.86)"/><path class="cls-4" d="M1041,443c-.7.65-.89.2-1-.45C1040.46,442.36,1040.73,442.65,1041,443Z" transform="translate(-957.45 -336.86)"/><path class="cls-3" d="M1135.88,484.43c-.67-.1-1.09-.31-.45-1C1135.76,483.68,1136.06,484,1135.88,484.43Z" transform="translate(-957.45 -336.86)"/><path class="cls-3" d="M1136.38,488.43c-.67-.1-1.09-.31-.45-1C1136.26,487.68,1136.56,488,1136.38,488.43Z" transform="translate(-957.45 -336.86)"/><path class="cls-5" d="M1138.69,431.79a1.61,1.61,0,0,0,.3-1.65c-.87-2.84.75-3,2.92-3.1q7.58-.36,15.13-1.11c1.49-.15,1.9.36,2.11,1.64.42,2.55.29,5.12.57,7.69.64,5.84.71,11.75,1.18,17.61.14,1.75-.57,1.81-1.94,1.91-7.61.55-15.21,1.31-22.82,1.81a109,109,0,0,0-12.85,1.11c-1.1.2-1.58-.14-1.67-1.42-.59-8.44-1.26-16.86-2-25.29-.12-1.43.22-2.18,1.77-2.29q7.07-.5,14.14-1.14c1.67-.15,2.26.6,2.27,2.13C1137.85,430.48,1137.63,431.4,1138.69,431.79Zm.72,1.48a140.53,140.53,0,0,0,2.85,19.91l.64-.11Z" transform="translate(-957.45 -336.86)"/><path class="cls-6" d="M1239.22,433.67c-.18-4.15-.33-8.3-.58-12.44-.1-1.61.46-2.08,2.1-2.2,7.77-.52,15.53-1.17,23.29-1.88,1.91-.17,2.79,0,2.88,2.32.3,7.79.83,15.57,1.44,23.33.18,2.26-.31,3.55-2.76,3.39-1.86-.12-3.78.6-5.58-.48a1.85,1.85,0,0,0-1.43,0,17.32,17.32,0,0,1-10.45,1.07,1.77,1.77,0,0,0-1.39.42c-2.06,1.42-4.16-.26-6.26,0a4.85,4.85,0,0,1-.76-2.38C1239.69,441.12,1238.84,437.42,1239.22,433.67Z" transform="translate(-957.45 -336.86)"/><path class="cls-7" d="M1093.62,433.92c-.37-2.16.57-3,2.73-3.18,4.88-.3,9.75-.84,14.63-1.11,1.83-.1,3.64-.3,5.45-.54,1.49-.2,2.39.24,2.4,1.93,0,4.82.56,9.6,1,14.4.3,3.47.24,7,.6,10.43.17,1.64-.44,2.07-1.81,2.14-3.22.17-6.42.55-9.65.63a98.42,98.42,0,0,0-9.87,1c-3.19.41-3.11.28-3.47-2.92-.46-4.09-.08-8.27-1.19-12.29l-.55-8.83A1.68,1.68,0,0,0,1093.62,433.92Z" transform="translate(-957.45 -336.86)"/><path class="cls-8" d="M1180.6,441.44q0,4.86,0,9.72c0,1,.07,1.89-1.35,1.8-3.73-.23-7.38.7-11.05,1.08-5.55.57-5.71.88-6.34-4.52s-.81-10.58-1.2-15.87q-.24-3.22-.5-6.45c-.09-1.07.15-1.58,1.44-1.68,5.37-.39,10.73-.92,16.09-1.44,1.49-.15,2.13.14,2.25,1.9C1180.3,431.14,1180.38,436.29,1180.6,441.44Z" transform="translate(-957.45 -336.86)"/><path class="cls-8" d="M1199.52,439.3c0-4.89.1-9.78-.06-14.67-.05-1.49.21-2.18,1.7-2.3q7.31-.61,14.61-1.27c1.17-.11,1.49.32,1.6,1.52.75,8.32,1.61,16.63,2.45,24.95.14,1.41,0,2.25-1.83,2.36-5.44.31-10.86.84-16.29,1.3-.76.07-1.1-.21-1-1,.32-3.67-.84-7.26-.46-10.93Z" transform="translate(-957.45 -336.86)"/><path class="cls-9" d="M1237.81,429.15c.25,6,.46,12,.8,18,0,.82,0,1-.78,1.05-5.18.47-10.35,1.1-15.54,1.41-1.94.12-1.45-1.87-1.59-3-.39-3.2-.62-6.42-.89-9.64-.4-4.78-.73-9.57-1.19-14.34-.13-1.32.36-1.83,1.57-1.92,5.2-.39,10.41-.77,15.61-1.2,1.22-.1,1.54.45,1.67,1.54A50.7,50.7,0,0,1,1237.81,429.15Z" transform="translate(-957.45 -336.86)"/><path class="cls-9" d="M1181.66,443.51c-.17-5.74-.62-11.47-.54-17.23,0-1.64.39-2.43,2.1-2.55,4.55-.33,9.1-.75,13.64-1.15,1-.09,1.46.28,1.5,1.39.35,8.81.73,17.61,1.19,26.41.07,1.25-.75,1.19-1.38,1.24-5,.41-9.94.73-14.91,1.14-1.42.12-1.65-.54-1.62-1.76C1181.71,448.51,1181.66,446,1181.66,443.51Z" transform="translate(-957.45 -336.86)"/><path class="cls-10" d="M1094,446.44c-.37,1.86.68,4.29-.59,5.5s-3.48.44-5.29.66c-4.7.56-9.43.79-14.15,1.16-2.15.17-4.3.3-6.45.51-1.34.13-1.81-.26-1.91-1.74-.34-5.21-.87-10.41-1.39-15.61-.12-1.18,0-1.87,1.4-2,3-.22,5.94-.63,8.91-.86,5-.39,10.12-.51,15.13-1.15,2-.25,2.82.16,3.12,2,.11.65.2,1.3.3,2C1093.42,440.07,1093.24,443.3,1094,446.44Zm-13-2.58a8.94,8.94,0,0,0,4.46-1.21c2.5-1.77,2.53-4.07.08-5.91s-6.94-1.27-8.69,1a3.08,3.08,0,0,0,.26,4.49A6.54,6.54,0,0,0,1081,443.86Z" transform="translate(-957.45 -336.86)"/><path class="cls-3" d="M1157.41,484.33c-1.86-2.31-1.48-4.43-1.79-6.29-1-6.18-1.72-12.42-2.51-18.63-.08-.67-.47-1.72.63-1.81s.67.92.75,1.53c1,7.11,2,14.21,2.91,21.33A35,35,0,0,1,1157.41,484.33Z" transform="translate(-957.45 -336.86)"/><path class="cls-4" d="M1172.43,483.28c-1.34-9-2.66-17.95-3.53-27l.9-.12,3.57,27Z" transform="translate(-957.45 -336.86)"/><path class="cls-3" d="M1197,458.44q.49,7.68,1,15.36a10.69,10.69,0,0,1,0,1.25c0,.47.09,1.1-.59,1.19-.89.11-.88-.62-.84-1.17.22-2.67-.49-5.28-.51-7.93a48.19,48.19,0,0,0-.44-8.68Z" transform="translate(-957.45 -336.86)"/><path class="cls-3" d="M1132.37,458.41c1.75,1.53,1,3.37,1.3,4.92.73,3.81,1.16,7.68,1.7,11.52.07.52,0,1.12-.62,1.1s-.67-.62-.74-1.13c-.49-3.6-1.12-7.19-1.45-10.81C1132.41,462.26,1131.47,460.51,1132.37,458.41Z" transform="translate(-957.45 -336.86)"/><path class="cls-3" d="M1151.45,473c-.08.36.27,1.17-.61,1.2-.55,0-.73-.57-.79-1.09q-.95-7.23-1.91-14.45c-.07-.53-.07-1,.62-1.08.51,0,.65.4.71.84C1150.12,463.2,1150.78,468,1151.45,473Z" transform="translate(-957.45 -336.86)"/><path class="cls-1" d="M1160,459.15c.4-.48-.8-1.6.51-1.72s1,1,1.1,1.77c.44,3.23.92,6.46,1.37,9.7a17,17,0,0,1,.11,1.73c0,.45-.12.79-.67.82s-.86-.16-.94-.82a67.54,67.54,0,0,1-.91-6.79C1160.49,462.25,1159.79,460.78,1160,459.15Z" transform="translate(-957.45 -336.86)"/><path class="cls-11" d="M1189.91,481.9l-.41-.49-1.18-8.83-2.3-17.17v0c1.28.14.9,1.15,1,1.91.43,3.27,1,6.53,1.3,9.81C1188.76,472.08,1190.08,476.91,1189.91,481.9Z" transform="translate(-957.45 -336.86)"/><path class="cls-4" d="M1223.19,472.6l-1.06-20.86.75,0,1.18,20.87Z" transform="translate(-957.45 -336.86)"/><path class="cls-4" d="M1145.26,483.53l-3.33-25.11.65-.09,3.37,25.13Z" transform="translate(-957.45 -336.86)"/><path class="cls-12" d="M1189.91,481.9c.16-5-1.15-9.83-1.61-14.75-.31-3.28-.87-6.54-1.3-9.81-.1-.77.28-1.77-1-1.91.06-.41.09-.92.68-.79s.72.79.8,1.38c.48,3.6,1,7.19,1.47,10.79.58,4.58,1.08,9.18,1.69,13.76C1190.76,481.34,1191,481.89,1189.91,481.9Z" transform="translate(-957.45 -336.86)"/><path class="cls-12" d="M1186,455.41l2.3,17.17,1.18,8.83c-.95-.4-.9-1.23-1-2.08-.93-7.12-1.93-14.23-2.87-21.35C1185.5,457.11,1185.19,456.16,1186,455.41Z" transform="translate(-957.45 -336.86)"/><path class="cls-13" d="M1210.26,452.85l1,21.51-.62,0-1-21.5Z" transform="translate(-957.45 -336.86)"/><path class="cls-4" d="M1227,464.07c-.11-4.44-1.3-8.84-.45-13.31C1226.62,455.2,1227.73,459.6,1227,464.07Z" transform="translate(-957.45 -336.86)"/><path class="cls-13" d="M1110.13,478.11,1107.87,461l.64-.08,2.29,17.22Z" transform="translate(-957.45 -336.86)"/><path class="cls-4" d="M1239.45,450.25c.38,4.29,1.54,8.56.54,12.88C1239.36,458.85,1239.71,454.52,1239.45,450.25Z" transform="translate(-957.45 -336.86)"/><path class="cls-12" d="M1094,446.44c-.75-3.14-.57-6.37-.91-9.55.5-.4.35-1,.41-1.49l.36.21.55,8.83C1093.79,445,1094.13,445.77,1094,446.44Z" transform="translate(-957.45 -336.86)"/><path class="cls-12" d="M1218,463.41c-.48.52-1.36.62-1.31-.05.23-3.66-1.56-7.29-.19-10.95l0,0a73.85,73.85,0,0,1,.51,8.81c0,.79-.48,1.94,1,2.15Z" transform="translate(-957.45 -336.86)"/><path class="cls-12" d="M1197,458.44l-1.38,0c0-1.15-.05-2.29,0-3.44,0-.51.14-1,.82-.94.51.06.6.5.61.92C1197,456.14,1197,457.29,1197,458.44Z" transform="translate(-957.45 -336.86)"/><path class="cls-12" d="M1232.38,457.46v8.38h-.23v-8.38Z" transform="translate(-957.45 -336.86)"/><path class="cls-13" d="M1131.77,471.47c.09,2,1.22,3.91.39,6.42C1132,475.44,1131.14,473.52,1131.77,471.47Z" transform="translate(-957.45 -336.86)"/><path class="cls-13" d="M1178.27,458.48c.1,2,1.21,3.9.39,6.47C1178.55,462.46,1177.64,460.55,1178.27,458.48Z" transform="translate(-957.45 -336.86)"/><path class="cls-12" d="M1218,456.91a9.11,9.11,0,0,1,0,6.5l0,0c.34-2.16-.58-4.32,0-6.48Z" transform="translate(-957.45 -336.86)"/><path class="cls-13" d="M1179.74,469.36l.79,4.82C1179.42,472.48,1179.42,472.48,1179.74,469.36Z" transform="translate(-957.45 -336.86)"/><path class="cls-13" d="M1104,477.42c-1-1.77-.25-3.63,0-5.46v5.45Z" transform="translate(-957.45 -336.86)"/><path class="cls-13" d="M1103.15,470.39v-4.46h.21v4.46Z" transform="translate(-957.45 -336.86)"/><path class="cls-12" d="M1242.13,464.77v-4.36h.24v4.39Z" transform="translate(-957.45 -336.86)"/><path class="cls-13" d="M1104,477.4c1,1.6.28,3.3,0,5q0-2.47,0-4.95Z" transform="translate(-957.45 -336.86)"/><path class="cls-13" d="M1231.6,454.3v-3.8h.23v3.83Z" transform="translate(-957.45 -336.86)"/><path class="cls-13" d="M1130.13,462.33l-.38-3C1130.68,460.2,1130.43,461.31,1130.13,462.33Z" transform="translate(-957.45 -336.86)"/><path class="cls-12" d="M1217.5,452.41c.94,1.42.61,3,.5,4.5h0c-1-1.4-.24-3-.51-4.49Z" transform="translate(-957.45 -336.86)"/><path class="cls-13" d="M1104.9,484v3.81h-.24V484Z" transform="translate(-957.45 -336.86)"/><path class="cls-13" d="M1131,466.93c-.84-.92-.36-2,0-3v3Z" transform="translate(-957.45 -336.86)"/><path class="cls-13" d="M1102.72,464.49a6,6,0,0,1,0-3.19A4.7,4.7,0,0,1,1102.72,464.49Z" transform="translate(-957.45 -336.86)"/><path class="cls-13" d="M1133.48,485.93c-.82-.93-.39-2,0-3v3Z" transform="translate(-957.45 -336.86)"/><path class="cls-13" d="M1131,466.9c.46,1.33.46,1.33,0,3q0-1.48,0-3Z" transform="translate(-957.45 -336.86)"/><path class="cls-13" d="M1179.23,468.31c-.24-1.12-.38-1.79,0-2.51A3.19,3.19,0,0,1,1179.23,468.31Z" transform="translate(-957.45 -336.86)"/><path class="cls-13" d="M1133.11,481.46c-.83-1.15-.47-1.84-.68-2.8C1133.35,479.59,1132.78,480.29,1133.11,481.46Z" transform="translate(-957.45 -336.86)"/><path class="cls-12" d="M1203.56,459a2.72,2.72,0,0,1-.42-2.32C1203.69,457.33,1203.39,457.86,1203.56,459Z" transform="translate(-957.45 -336.86)"/><path class="cls-12" d="M1232.85,470.87a1.23,1.23,0,0,1-.15-1.52C1233.27,469.81,1232.81,470.35,1232.85,470.87Z" transform="translate(-957.45 -336.86)"/><path class="cls-13" d="M1177.8,457c-.46-.52-.3-1-.16-1.6C1178.23,455.91,1178,456.43,1177.8,457Z" transform="translate(-957.45 -336.86)"/><path class="cls-13" d="M1133.52,485.9a3.32,3.32,0,0,1,.43.83,9.21,9.21,0,0,1,0,1.51c-.68-.94-.38-1.66-.49-2.31Z" transform="translate(-957.45 -336.86)"/><path class="cls-12" d="M1203.53,454.95l-.34.48c-.05-.14-.16-.29-.15-.43a3.53,3.53,0,0,1,.18-.66Z" transform="translate(-957.45 -336.86)"/><path class="cls-12" d="M1216.5,452.41c.05-.38.07-.86.61-.75.18,0,.26.49.39.75l0,0h-1Z" transform="translate(-957.45 -336.86)"/><path class="cls-4" d="M1057,446.88l1.08.23c0,.06-.08.16-.14.18a.81.81,0,0,1-1-.37Z" transform="translate(-957.45 -336.86)"/><path class="cls-14" d="M1093.86,435.6l-.36-.21.12-1.48A1.68,1.68,0,0,1,1093.86,435.6Z" transform="translate(-957.45 -336.86)"/><path class="cls-1" d="M1062.13,445.14c.34.16.5.48.2.7a.69.69,0,0,1-1-.22Z" transform="translate(-957.45 -336.86)"/><path class="cls-15" d="M1139.41,433.27l3.5,19.8-.64.11A140.53,140.53,0,0,1,1139.41,433.27Z" transform="translate(-957.45 -336.86)"/><path class="cls-16" d="M1081,443.86a6.54,6.54,0,0,1-3.89-1.63,3.08,3.08,0,0,1-.26-4.49c1.75-2.27,6.37-2.74,8.69-1s2.42,4.14-.08,5.91A8.94,8.94,0,0,1,1081,443.86Z" transform="translate(-957.45 -336.86)"/><path class="cls-11" d="M1216.52,452.43h1c.27,1.48-.5,3.09.51,4.49-.59,2.16.33,4.32,0,6.48-1.44-.21-1-1.36-1-2.15A73.85,73.85,0,0,0,1216.52,452.43Z" transform="translate(-957.45 -336.86)"/></svg>