<svg id="Ebene_1" data-name="Ebene 1" xmlns="http://www.w3.org/2000/svg" viewBox="0 0 1080.09 810.09"><defs><style>.cls-1{fill:#fefefe;}.cls-2{fill:#b6517c;}.cls-3{fill:#5b6d68;}.cls-4{fill:#576964;}.cls-5{fill:#5b6e69;}.cls-6{fill:#5b6a65;}.cls-7{fill:#656568;}.cls-8{fill:#5f5e62;}.cls-9{fill:#6f6c73;}.cls-10{fill:#515151;}.cls-11{fill:#47494a;}.cls-12{fill:#2d3e3a;}.cls-13{fill:#fdceec;}.cls-14{fill:#f9c714;}.cls-15{fill:#1f1b0e;}</style></defs><title>seahorse pink</title><path class="cls-1" d="M1151.5,847.91q-268.87,0-537.75,0c-1.87,0-2.3-.42-2.3-2.3q.07-402.75,0-805.5c0-1.87.42-2.3,2.3-2.3q537.75.07,1075.5,0c1.87,0,2.3.42,2.3,2.3q-.07,402.75,0,805.5c0,1.87-.42,2.3-2.3,2.3Q1420.38,847.88,1151.5,847.91Zm-161-48.48,0,0c.42,0,.58-.18.49-.59l.66-.83-.07.07c2.91-2.34,5.21-5.32,7.6-8.1,4.59-5.35,9.5-10.42,13.94-15.91.51-.63,1.23-1.42,1.92-1.49,1.6-.16,1.35-1.12,1.29-2.12q-1-17.08-1.94-34.17c.33-3.09-.88-5-3.9-6.15-3.3-1.29-6.34-3.22-9.55-4.75-4.17-2-8.1-4.46-12.45-6l0,0a.82.82,0,0,0-1-.53l0,0-.55-.49h0c-.45-1-1.15-.69-1.84-.34l-18.75,9.48c-.7.28-1.15.64-.34,1.31l.34,1.06c.36,3.05.68,6.11,1.1,9.16.09.64-.28,1.57.78,1.83-.64,3.95.67,7.71,1.08,11.56,0,.43.69,1.11,1,.45.61-1.29,2-.59,2.71-1.35,1.71-.3,3.11-1.47,4.87-1.64,1.1-.11,1-.79.82-1.77-.41-2.43-.52-4.9-.72-7.36,0-.2.06-.7.43-.21.08.1-.12.41-.19.63-.81-5.37-.81-5.36,4.28-6.4a5.81,5.81,0,0,0,1.15-.4,3.24,3.24,0,0,1,3.59.85c3,4.49,6.51,8.57,9.92,12.72.94,1.14,1.51,2.05,1.24,3.46a76.51,76.51,0,0,0-3.71,10.46,5.81,5.81,0,0,0-.83,2.63l0,.08c-1.39,2.26-1.47,5.35-4.24,6.74L989,772l0-.14,0,.16-1.59,1.17a9.7,9.7,0,0,0-4.89,3.18l0,0a1.36,1.36,0,0,0-1.52,1l0,0a1.39,1.39,0,0,0-1.52,1l0,0a1.41,1.41,0,0,0-1.52,1l0,0a1.45,1.45,0,0,0-1.52,1l0,0a1.45,1.45,0,0,0-1.52,1l0,0a1.86,1.86,0,0,0-1.64,1l-1.42,1.12c-1-.1-1.64-1-2.62-1.26-5.44-1.65-10.84-3.45-16.26-5.17-.66-.21-1.37-.7-2.1-.13l-.64-.48c-1.94-1.22-4.26-1.41-6.3-2.35-.69-.92-1.45-1.8-2.05-2.78a231,231,0,0,0-13.5-19.15c-2.09-2.74-2.92-5.07-2.25-8.49,1-5,2.3-10,2.34-15.22Q936,724.7,943.39,721c.76-.39,1.59-.57,1.64-1.85.16-4.05.55-8.09.84-12.14l.15-2.08.86-9.42.4-3.18c.06.2.39.34.1.62s-.21.14-.26-.12a.66.66,0,0,1,0-.23c.33-2,1.12-4,.86-5.86s-1.56-3.57-2.41-5.34c-2.55-6.91-5.62-13.6-8.58-20.34-.66-1.5-1.07-2.84-3-2.67,0-1.06-.83-.9-1.51-.95l-.1-.09-.12.07a19.81,19.81,0,0,0-6.46-2l0,0c-2.33-1.21-4.68-2.34-7.43-2.05l-1.51-.51c.15-.74-.46-.77-.89-.91q-6.21-2-12.43-3.88a4.39,4.39,0,0,1-1.22-.67c-2-1.94-4-3.82-6.11-5.59-3.22-2.74-6.28-5.65-9.48-8.4a.66.66,0,0,0-.71-.49l0,0c0-.38-.19-.53-.54-.53l0,0c-2.81-1.91-2.17-5.31-3.4-7.91a1.57,1.57,0,0,1,.09-1.64c.15.15.4.26.17.53a1.64,1.64,0,0,0-.13.21l-.43-4.26c-.39-4.55-1-9.11,1.19-13.43l0,0,.79-1.58a.24.24,0,0,0,.15-.33c.53-1.35,1.35-2.59,1.48-4.09l.15-.11,0-.18c1.15-3,3.65-3.38,6.39-3.36q12,.09,24.07.15h1.42l.69,0,.18.06.16-.1c3.38.12,6.75.34,10.13.34,1.84,0,3.74.57,5.54-.31l.8.56h0l.81.4a56.13,56.13,0,0,0,9.21,3.69l6.28,2.32a6.48,6.48,0,0,0,1.51.78c2,.43,2.42,1.43,1.84,3.38a48,48,0,0,0-1.17,6.37c-.09.55-.57,1.48.56,1.5,2.61.06,5,1.22,7.56,1.41.32.1.71.1.94.3,1.89,1.71,2,.44,2.14-1.17s.42-2.93.63-4.4c1.59-5.83,2.36-11.82,3.53-17.73.91-4.58.89-4.58-3.57-4.54a5.22,5.22,0,0,1-1-.17l.72,0a.38.38,0,0,0-.1-.08c-6-2.09-7.13-1.54-8.54,4.29l-.31,1.19c-.53.94-.94,1.57-2.37,1a70.11,70.11,0,0,0-7.23-2.15l-.1,0a1.4,1.4,0,0,0-1.35-.5l-.11-.09-.13.06-.72-.35c-2.25-1.2-5.2-.84-7-3.14l0,0a12.39,12.39,0,0,0-2.53-4.53l0,0c-.26-1.32-1.16-2.31-1.72-3.47a4.18,4.18,0,0,0-1.06-2.53c-.27-.53,0-1.3-.69-1.64-.5-.66-1.19-.45-1.84-.4h.05c-.46-.84-1.38-.79-2.12-1-4-1.32-8.12-2.59-12.18-3.88-1.73-.58-3.45-1.23-5.2-1.73a7,7,0,0,1-4.67-3.48c-4.72-8.19-10.56-15.73-14.44-24.42-.89-2-1.46-2-2.64-.21-3.9,5.79-8,11.48-11.84,17.28-1,1.48-1.57,1.66-2.89.33-4.39-4.43-8.88-8.78-13.4-13.08-2-1.87-2.19-1.74-2.95.77-2.12,7.08-4.29,14.15-6.31,21.26-.53,1.87-1,2.23-2.77,1.13-6-3.75-12.07-7.35-18.13-11-.66-.4-1.38-1.26-2.22-.55s0,1.52.32,2.21c3.89,8.54,7.75,17.1,11.76,25.58.87,1.84,1.07,3-1.13,3.77-8.68,5.39-17.39,10.74-26,16.22-.94.6-3,.26-2.72,1.9.22,1.18,2,.51,3.05.86q13,4.36,26.06,8.44c1.73.54,2,.91.64,2.33-4.88,5.11-9.6,10.39-14.49,15.49-1.45,1.52-1.07,2.34.57,3q10.69,4.42,21.41,8.79a36.86,36.86,0,0,0,5.44,2.39c1.79.48,2,1.43,2,3-.06,8.61,0,17.22,0,25.58a1.8,1.8,0,0,0,2-.15l21.57-13c.77-.46,1.46-1.2,2.47-.58l.48.26,0,0c0,.37.12.58.53.53l0,0q-.07.6.52.52l0,0c0,.39.07.62.52.53l0,0c-.1.44,0,.65.52.52l0,0a7.08,7.08,0,0,0,3,3.51l0,0c0,.35.16.54.53.53l0,0c0,.36.15.56.53.53l0,0c0,.38.12.58.52.53l0,0c-.09.42.16.61.49.75l2.94,3.29.6.49,0,0a.47.47,0,0,0,.53.53l0,0c0,.35.15.56.53.53l0,0c0,.38.11.59.52.53l0,0c.49,1.44-.18,1.65-1.45,1.48-4.53-.61-9.08-1.15-13.62-1.75-.93-.12-2-.41-2.48.54-.57,1.12.73,1.51,1.31,2.09,1.76,1.77,3.63,3.43,5.41,5.18.54.54,1.69.93,1.28,1.87-.32.73-1.35.36-2.06.35-3.91,0-7.82-.07-11.74-.07-.67,0-1.5-.33-2.18.87l14.35,10.24c-6.09,2.1-10.2,7.26-17.23,7,1.3.73,2.13,1.53,3.08,1.69,6.5,1.1,12.59,3.59,18.9,5.31.88.24,1.4.64,2-.36,3-4.61,6-9.18,9-13.76,1.74-.26,1.47.93,1.42,2q-.21,4.93-.42,9.85l-.1,4a5,5,0,0,0,0,2.72,2.61,2.61,0,0,0-.09,1.91,14.81,14.81,0,0,0-.37,5.36L898,727.4c-.87,3.62.62,7.57-1.49,11-.09.15.18.63.39.85,1,1.07,1.73,2.44,3.1,3.16l0,0c0,.36.14.56.53.53l0,0c-.07.4.16.61.49.75a96.33,96.33,0,0,0,6.72,7.86c3.28,3.13,6,6.76,9.07,10,4.43,4.7,8.33,9.91,12.67,14.7,5,5.47,10,10.87,14.6,16.64a2.43,2.43,0,0,0,1.37,1c13.12,3,26.25,6,39.47,8.51,3,1.09,3.42.87,5.19-2.49l0,0C990.47,800,990.59,799.82,990.54,799.43Z" transform="translate(-611.45 -37.86)"/><path class="cls-2" d="M928.54,728.44c0,5.18-1.36,10.19-2.34,15.22-.66,3.42.16,5.76,2.25,8.49A231,231,0,0,1,942,771.3c.6,1,1.36,1.85,2.05,2.78,1.65,2,4,2.15,6.3,2.35l.63.48c6.12,2,12.21,4.09,18.38,5.89.81.24,1.52,1.46,2.6.67l1.42-1.12a1.27,1.27,0,0,0,1.64-1l0,0a1.28,1.28,0,0,0,1.52-1l0,0c.72,0,1.32-.23,1.52-1l0,0a1.39,1.39,0,0,0,1.52-1l0,0a1.27,1.27,0,0,0,1.52-1l0,0a1.38,1.38,0,0,0,1.52-1l0,0a12.18,12.18,0,0,0,4.89-3.18l1.59-1.17v0l.78-.65c3.22-.81,3.76-1.66,4.24-6.74l0-.08a2.75,2.75,0,0,0,1-2.6,30.42,30.42,0,0,0,3.56-10.48c.27-1.41-.3-2.31-1.24-3.46-3.41-4.15-6.92-8.22-9.92-12.72a3.24,3.24,0,0,0-3.59-.85,5.81,5.81,0,0,1-1.15.4c-5.1,1-5.1,1-4.28,6.37a14,14,0,0,0-.1,1.7c.22,3.89-.19,7.39-5,8.23-.07,0-.09.29-.13.45-.73.75-2.11.06-2.71,1.35-.31.67-1,0-1-.45-.41-3.85-1.72-7.62-1.08-11.56-.44-3.68-1.25-7.32-1.31-11.05-.22-1.44.44-2.24,1.74-2.87,5.41-2.63,10.78-5.35,16.16-8a3.91,3.91,0,0,1,2.12-.54h0l.55.49,0,0c.14.57.58.55,1,.53l0,0c.24,1,1.17,1.12,1.88,1.47,7.17,3.63,14.34,7.27,21.56,10.79,1.64.8,2.77,1.47,1.78,3.48-.3.61-.17,1.16.68,1.21q1,17.08,1.94,34.17c.06,1,.31,2-1.29,2.12-.69.07-1.41.86-1.92,1.49-4.44,5.48-9.34,10.56-13.94,15.91-2.39,2.78-4.69,5.75-7.6,8.1l.07-.07-.66.83-.49.59,0,0L990,800l0,0c-1.72.86-2.72,3.21-5.19,2.49-13.22-2.55-26.35-5.52-39.47-8.51a2.43,2.43,0,0,1-1.37-1c-4.62-5.77-9.64-11.16-14.6-16.64-4.34-4.8-8.24-10-12.67-14.7-3.09-3.28-5.79-6.91-9.07-10a96.26,96.26,0,0,1-6.72-7.86c0-.34-.11-.64-.49-.75l0,0-.53-.53,0,0a11.93,11.93,0,0,1-2-8.59c.2-2.14.36-4.28.54-6.43l0-3.51q0-2.68,0-5.35c1-.74.22-1.77.45-2.63l.07-2-.07-4,.06-13c0-.72.24-1.53-.94-1.47l-4.58-15c2-1,2-1.19-.52-3l0,0-.52-.53,0,0-.53-.53,0,0-.53-.53,0,0-.6-.49L888,672.17c0-.35-.11-.65-.49-.75l0,0-.52-.53,0,0-.53-.53,0,0-.53-.53,0,0c-.35-1.74-1.65-2.66-3-3.51l0,0a.52.52,0,0,0-.52-.52l0,0-.52-.53,0,0-.52-.52,0,0-.52-.53,0,0-.46-.55c.19-1.72-1.13-2-2.3-2.37-3-3.21-6-6.44-9-9.62a32.23,32.23,0,0,1-5.76-7.93q-10.16-20.63-20.57-41.14c-1.06-2.07-1.37-3.35,0-5.62,4.24-7.05,7.93-14.43,11.86-21.66,1-1.75,1.59-3.17,4.43-3.37,5.51-.38,10.92-2,16.39-3.06C881.39,568,887.19,567,893,565.9c1.08.76,2.51.6,3.61,1.43.41.31,1.38.38,1.29-.76l6.64,2.11c.54.36.76,1,1.49,1.24,3,.79,6,1.63,9,2.45,4.72,1.63,9.33,3.65,14.29,4.52h-.05l1.2,1.14.47.4a5.67,5.67,0,0,0,1.13,3c1,1.06,1.1,2.74,2.51,3.5l0,0c.47,1.72,1,3.4,2.53,4.53l0,0c.12,1.3.81,3,1.83,2.8,1.89-.36,3.39.73,5.11.65l.74,0,.13-.06.11.09c.3.57.85.46,1.34.5l.11,0c2.35,1.62,5.1,2.16,7.8,2.77,1.3.3,1.84-.36,1.8-1.62l.31-1.19c.21-.11.52-.18.6-.35,2-4.23,2-4.23,6.57-3.8a6.29,6.29,0,0,0,.74,0,5.22,5.22,0,0,0,1,.17c4.46,0,4.47,0,3.57,4.54-1.17,5.91-1.94,11.9-3.52,17.73a5.66,5.66,0,0,0-.75,2.54c-.13,1.7-.91,2.92-3,2.32-1.52-.37-3-.77-4.55-1.12-3.16-.73-3.2-.8-2.49-3.95.27-1.21.41-2.44.65-3.65.66-3.26.49-3.56-2.66-4.27a6.31,6.31,0,0,0-1.24,0l-6.28-2.32a22.06,22.06,0,0,0-9.21-3.69l-.81-.4h0l-.79-.55-15.68,0-.16.1-.18-.06c-.22-.41-.45-.49-.69,0h-.86l-.54-.53-22.48.06a16.28,16.28,0,0,1-3-.07c-3.34-.62-4.69.34-5,3.76l0,.18-.15.11c-.67,1.3-2,2.35-1.48,4.09a.24.24,0,0,1-.15.33c-1,.14-.67,1-.79,1.58l0,0c-1.23,1.07-1.37,2.71-2.06,4.06-.39.76-1.19,1.44-.71,2.44,1.08,2.19,1.12,4.61,1.57,6.94l.43,4.24c-1.38,4.54-.35,7.32,3.27,8.83l0,0,.54.53,0,0,.71.49c3.2,2.76,6.26,5.66,9.48,8.4,2.08,1.77,4.15,3.65,6.11,5.59a4.39,4.39,0,0,0,1.22.67c.09.55.42.76,1,.92,4.13,1.26,8.24,2.57,12.35,3.86l1.5.5c2.53.49,4.76,2.06,7.43,2.05l0,0a11.31,11.31,0,0,0,6.46,2l.12-.07.1.09c.27.69,1.1.47,1.5.94,2-.16,2.37,1.18,3,2.67,3,6.74,6,13.43,8.58,20.34,1.46,3.5,1.51,7.24,1.75,10.94l-.4,3.18c-1.32,3-1.13,6.23-.86,9.42l-.15,2.08c-1.44,3.22-1,6.72-1.3,10.08a4,4,0,0,1-2.46,3.84q-6,2.93-12,6C929.47,727.22,928.34,727.2,928.54,728.44ZM871.94,585.9a5.68,5.68,0,0,0-5.94,5.85,5.51,5.51,0,0,0,5.83,5.66,6.37,6.37,0,0,0,6.13-6A5.75,5.75,0,0,0,871.94,585.9Z" transform="translate(-611.45 -37.86)"/><path class="cls-3" d="M915,572.36c-3-.82-6-1.66-9-2.45-.73-.19-1-.88-1.49-1.24.72-1.12-.3-1.81-.75-2.53-2.84-4.56-5.79-9.05-8.65-13.6-2.08-3.31-4.46-6.44-5.56-10.88L874.8,562.78l-.37-.43c-5-5.68-10.7-10.61-16.21-16-2.38,8-4.67,15.71-7,23.43a3.38,3.38,0,0,0,.66,3.23c-7.77-4.57-15.37-9.19-23.46-13.89a12.36,12.36,0,0,0,.35,1.27q6,13.08,12,26.16c.28.62.9,1.93.56,1.92-1.61-.08-1.51,1.93-2.81,2l-.05-.65c2.2-.72,2-1.93,1.13-3.77-4-8.48-7.87-17-11.76-25.58-.31-.69-1.21-1.44-.32-2.21s1.55.15,2.22.55c6.06,3.63,12.14,7.24,18.13,11,1.74,1.09,2.24.73,2.77-1.13,2-7.11,4.19-14.18,6.31-21.26.75-2.52,1-2.64,2.95-.77,4.52,4.3,9,8.64,13.4,13.08,1.32,1.33,1.9,1.15,2.89-.33,3.89-5.8,7.95-11.49,11.84-17.28,1.18-1.76,1.75-1.79,2.64.21,3.88,8.69,9.72,16.23,14.44,24.42a7,7,0,0,0,4.67,3.48c1.76.49,3.47,1.15,5.2,1.73Q915,572.16,915,572.36Z" transform="translate(-611.45 -37.86)"/><path class="cls-4" d="M893,677.43c2.51,1.82,2.55,2.05.52,3-2.2-1.13-4.65-.88-7-1.28-3.22-.55-6.49-.83-9.87-1.24L886.37,688H869.78l-.2.48,13.71,9.65L869,706c6.13,1.81,11.67,3.38,17.15,5.11,1.38.43,1.9-.07,2.57-1.09,2.84-4.27,5.77-8.48,8.67-12.71l.17.76c-3,4.58-6,9.15-9,13.76-.64,1-1.16.59-2,.36-6.31-1.73-12.41-4.22-18.9-5.31-.95-.16-1.79-1-3.08-1.69,7,.29,11.14-4.88,17.23-7L867.43,688c.69-1.2,1.52-.87,2.18-.87,3.91,0,7.82.07,11.74.07.71,0,1.74.38,2.06-.35.41-.94-.73-1.34-1.28-1.87-1.78-1.75-3.65-3.41-5.41-5.18-.57-.58-1.88-1-1.31-2.09.48-.95,1.55-.66,2.48-.54,4.54.6,9.08,1.14,13.62,1.75C892.78,679.08,893.45,678.87,893,677.43Z" transform="translate(-611.45 -37.86)"/><path class="cls-5" d="M838.48,589.85l.05.65c-5.51,4-11.43,7.26-17.13,10.92-3.1,2-6.22,3.95-9.7,6.16l30.89,9.94L825,636.57c.53.95,1.38.93,2,1.21,6.65,2.88,13.47,5.35,20,8.55l0,.56q-10.71-4.39-21.41-8.79c-1.65-.68-2-1.51-.57-3,4.89-5.11,9.6-10.38,14.49-15.49,1.35-1.41,1.09-1.78-.64-2.33q-13.07-4.1-26.06-8.44c-1.06-.35-2.84.32-3.05-.86-.3-1.64,1.77-1.3,2.72-1.9C821.09,600.58,829.79,595.24,838.48,589.85Z" transform="translate(-611.45 -37.86)"/><path class="cls-6" d="M847,646.91l0-.56c2.05.38,3.82,1.5,5.76,2.18,2.36.83,2.79,2.49,2.78,4.9,0,7,.37,13.94.4,20.91,0,2.57.68,2.28,2.42,1.2,6.57-4.09,13.35-7.84,19.81-12.11,1.42-.94.14-1.26,0-1.87,1.17.4,2.49.65,2.3,2.37a2.21,2.21,0,0,0,0,.29c-1-.61-1.7.12-2.47.58l-21.57,13a1.8,1.8,0,0,1-2,.15c0-8.36,0-17,0-25.58,0-1.59-.23-2.54-2-3A36.87,36.87,0,0,1,847,646.91Z" transform="translate(-611.45 -37.86)"/><path class="cls-7" d="M1014.42,736.31c-.85,0-1-.6-.68-1.21,1-2-.13-2.68-1.78-3.48-7.23-3.51-14.39-7.16-21.56-10.79-.7-.36-1.63-.5-1.88-1.47,4.36,1.59,8.29,4.06,12.45,6,3.21,1.53,6.25,3.46,9.55,4.75C1013.54,731.34,1014.75,733.22,1014.42,736.31Z" transform="translate(-611.45 -37.86)"/><path class="cls-8" d="M928.54,728.44c-.2-1.24.93-1.23,1.57-1.56q6-3.06,12-6a4,4,0,0,0,2.46-3.84c.26-3.37-.14-6.86,1.3-10.08-.3,4-.68,8.09-.84,12.14-.05,1.28-.88,1.46-1.64,1.85Q936,724.72,928.54,728.44Z" transform="translate(-611.45 -37.86)"/><path class="cls-9" d="M987,718.42a3.91,3.91,0,0,0-2.12.54c-5.38,2.7-10.75,5.42-16.16,8-1.29.63-2,1.42-1.74,2.87l-.57.07-.34-1.06a1.15,1.15,0,0,0,.34-1.31l18.75-9.48C985.86,717.73,986.56,717.4,987,718.42Z" transform="translate(-611.45 -37.86)"/><path class="cls-8" d="M951.21,603.43a6.31,6.31,0,0,1,1.24,0c3.16.71,3.32,1,2.66,4.27-.25,1.21-.38,2.45-.65,3.65-.71,3.15-.68,3.21,2.49,3.95,1.52.35,3,.75,4.55,1.12a2.77,2.77,0,0,0,0,.41c-2.57-.19-5-1.34-7.56-1.41-1.14,0-.65-1-.56-1.5a48,48,0,0,1,1.17-6.37c.59-2,.13-2.95-1.84-3.38A6.48,6.48,0,0,1,951.21,603.43Z" transform="translate(-611.45 -37.86)"/><path class="cls-10" d="M885.54,599.66c.32-3.42,1.66-4.39,5-3.76a16.28,16.28,0,0,0,3,.07l22.48-.06,0,.54q-12-.07-24.07-.15C889.19,596.28,886.69,596.68,885.54,599.66Z" transform="translate(-611.45 -37.86)"/><path class="cls-7" d="M971.93,783.47c-1.09.79-1.8-.43-2.6-.67-6.18-1.81-12.27-3.89-18.38-5.89.74-.57,1.44-.08,2.11.13,5.42,1.72,10.82,3.52,16.26,5.17C970.29,782.51,970.91,783.38,971.93,783.47Z" transform="translate(-611.45 -37.86)"/><path class="cls-8" d="M898.5,727.43c-.18,2.14-.34,4.29-.54,6.43a11.93,11.93,0,0,0,2,8.59c-1.37-.72-2.08-2.09-3.1-3.16-.21-.22-.48-.69-.39-.85,2.12-3.47.62-7.42,1.49-11Z" transform="translate(-611.45 -37.86)"/><path class="cls-11" d="M973.09,751.59c0-.16.06-.44.13-.45,4.81-.85,5.21-4.34,5-8.23a14,14,0,0,1,.1-1.7c.07-.19.27-.5.19-.61-.37-.49-.44,0-.43.21.2,2.46.31,4.94.72,7.36.17,1,.28,1.67-.82,1.77C976.2,750.12,974.8,751.29,973.09,751.59Z" transform="translate(-611.45 -37.86)"/><path class="cls-9" d="M915,572.36q0-.2,0-.4c4.06,1.29,8.13,2.56,12.18,3.88.74.24,1.66.19,2.12,1C924.32,576,919.72,574,915,572.36Z" transform="translate(-611.45 -37.86)"/><path class="cls-7" d="M916.85,652.82c-4.11-1.3-8.22-2.61-12.35-3.86-.55-.17-.88-.37-1-.92q6.21,1.93,12.43,3.88C916.38,652,917,652.08,916.85,652.82Z" transform="translate(-611.45 -37.86)"/><path class="cls-10" d="M964.21,589.15a6.29,6.29,0,0,1-.74,0c-4.56-.43-4.56-.43-6.57,3.8-.08.17-.4.24-.6.35,1.41-5.83,2.51-6.38,8.54-4.29a.38.38,0,0,1,.1.08Z" transform="translate(-611.45 -37.86)"/><path class="cls-10" d="M885.54,632.4c-3.62-1.51-4.65-4.29-3.27-8.83,0,0,.08-.12.13-.19.23-.27,0-.38-.17-.53a1.57,1.57,0,0,0-.09,1.64C883.37,627.09,882.73,630.49,885.54,632.4Z" transform="translate(-611.45 -37.86)"/><path class="cls-11" d="M881.84,619.33c-.46-2.33-.5-4.75-1.57-6.94-.49-1,.32-1.68.71-2.44.69-1.35.82-3,2.06-4.06C880.88,610.22,881.45,614.78,881.84,619.33Z" transform="translate(-611.45 -37.86)"/><path class="cls-11" d="M947.29,692.28c-.24-3.7-.29-7.43-1.75-10.94.85,1.77,2.15,3.49,2.41,5.34s-.53,3.9-.86,5.86a.66.66,0,0,0,0,.23c.06.26.11.26.26.12S947.35,692.48,947.29,692.28Z" transform="translate(-611.45 -37.86)"/><path class="cls-7" d="M998.49,751.45a30.44,30.44,0,0,1-3.56,10.48l-.15,0A76.51,76.51,0,0,1,998.49,751.45Z" transform="translate(-611.45 -37.86)"/><path class="cls-8" d="M918.46,596.42l15.68,0c-1.8.88-3.7.31-5.54.31C925.21,596.76,921.84,596.55,918.46,596.42Z" transform="translate(-611.45 -37.86)"/><path class="cls-8" d="M897.57,698.1l-.17-.76v0l1.59-.47q0,6.52-.06,13h-.35q.21-4.93.42-9.85C899,699,899.31,697.84,897.57,698.1Z" transform="translate(-611.45 -37.86)"/><path class="cls-10" d="M944,592.82c-1.72.08-3.21-1-5.11-.65-1,.19-1.71-1.5-1.83-2.8,1.75,2.3,4.7,1.94,7,3.14Q944,592.67,944,592.82Z" transform="translate(-611.45 -37.86)"/><path class="cls-11" d="M961.51,616.87a2.77,2.77,0,0,1,0-.41c2.06.6,2.83-.62,3-2.31a5.66,5.66,0,0,1,.75-2.54c-.22,1.47-.52,2.93-.64,4.4s-.25,2.88-2.14,1.17C962.23,617,961.83,617,961.51,616.87Z" transform="translate(-611.45 -37.86)"/><path class="cls-7" d="M956,594.52c0,1.26-.5,1.92-1.8,1.62-2.71-.62-5.45-1.15-7.8-2.77a70.15,70.15,0,0,1,7.23,2.15C955,596.09,955.45,595.45,956,594.52Z" transform="translate(-611.45 -37.86)"/><path class="cls-8" d="M935.72,597.41a22.06,22.06,0,0,1,9.21,3.69A56.15,56.15,0,0,1,935.72,597.41Z" transform="translate(-611.45 -37.86)"/><path class="cls-8" d="M994,764.62c-.48,5.07-1,5.93-4.24,6.74C992.51,770,992.59,766.88,994,764.62Z" transform="translate(-611.45 -37.86)"/><path class="cls-8" d="M966.41,729.94l.57-.07c.06,3.73.87,7.37,1.31,11.05-1.07-.26-.7-1.19-.78-1.83C967.1,736,966.77,733,966.41,729.94Z" transform="translate(-611.45 -37.86)"/><path class="cls-7" d="M946,704.88c-.28-3.19-.46-6.38.86-9.42Z" transform="translate(-611.45 -37.86)"/><path class="cls-9" d="M925.78,655.38c-2.67,0-4.9-1.56-7.43-2.05C921.1,653,923.45,654.17,925.78,655.38Z" transform="translate(-611.45 -37.86)"/><path class="cls-8" d="M984.85,802.42c2.47.72,3.48-1.63,5.19-2.49C988.27,803.29,987.82,803.51,984.85,802.42Z" transform="translate(-611.45 -37.86)"/><path class="cls-7" d="M950.31,776.43c-2.32-.2-4.65-.35-6.3-2.35C946,775,948.37,775.2,950.31,776.43Z" transform="translate(-611.45 -37.86)"/><path class="cls-8" d="M987.35,773.21a12.18,12.18,0,0,1-4.89,3.18A9.7,9.7,0,0,1,987.35,773.21Z" transform="translate(-611.45 -37.86)"/><path class="cls-8" d="M932.21,657.37a11.31,11.31,0,0,1-6.46-2A19.84,19.84,0,0,1,932.21,657.37Z" transform="translate(-611.45 -37.86)"/><path class="cls-8" d="M883,666.44c1.38.85,2.68,1.77,3,3.51A7.08,7.08,0,0,1,883,666.44Z" transform="translate(-611.45 -37.86)"/><path class="cls-10" d="M937,589.41c-1.52-1.13-2.07-2.81-2.53-4.53A12.39,12.39,0,0,1,937,589.41Z" transform="translate(-611.45 -37.86)"/><path class="cls-10" d="M934.54,584.91c-1.41-.75-1.53-2.43-2.51-3.5l.78,0C933.38,582.6,934.28,583.59,934.54,584.91Z" transform="translate(-611.45 -37.86)"/><path class="cls-10" d="M883.95,604c-.54-1.74.81-2.79,1.48-4.09C885.3,601.44,884.48,602.69,883.95,604Z" transform="translate(-611.45 -37.86)"/><path class="cls-8" d="M898.48,718.56q0,2.68,0,5.35l-.4,0a14.81,14.81,0,0,1,.37-5.36Z" transform="translate(-611.45 -37.86)"/><path class="cls-12" d="M932.82,581.43l-.78,0a5.66,5.66,0,0,1-1.13-3l.86.5A4.18,4.18,0,0,1,932.82,581.43Z" transform="translate(-611.45 -37.86)"/><path class="cls-8" d="M899,713.94l-.06,2-.41.69a5,5,0,0,1,0-2.72Z" transform="translate(-611.45 -37.86)"/><path class="cls-10" d="M898.52,716.62l.41-.69c-.23.87.51,1.89-.45,2.63l-.05,0A2.61,2.61,0,0,1,898.52,716.62Z" transform="translate(-611.45 -37.86)"/><path class="cls-10" d="M899,713.94l-.52,0,.1-4h.35Q899,711.93,899,713.94Z" transform="translate(-611.45 -37.86)"/><path class="cls-8" d="M994.78,761.92l.15,0a2.76,2.76,0,0,1-1,2.6A5.81,5.81,0,0,1,994.78,761.92Z" transform="translate(-611.45 -37.86)"/><path class="cls-10" d="M898.06,723.9l.4,0q0,1.75,0,3.51l-.52,0Z" transform="translate(-611.45 -37.86)"/><path class="cls-10" d="M931.76,578.9l-.86-.5-.47-.41.64-.73C931.81,577.6,931.49,578.38,931.76,578.9Z" transform="translate(-611.45 -37.86)"/><path class="cls-8" d="M933.93,658.33c-.4-.47-1.24-.26-1.5-.94C933.1,657.43,933.9,657.27,933.93,658.33Z" transform="translate(-611.45 -37.86)"/><path class="cls-12" d="M931.07,577.27l-.64.73-1.2-1.14C929.88,576.82,930.57,576.61,931.07,577.27Z" transform="translate(-611.45 -37.86)"/><path class="cls-8" d="M981,777.37a1.27,1.27,0,0,1-1.52,1A1.39,1.39,0,0,1,981,777.37Z" transform="translate(-611.45 -37.86)"/><path class="cls-11" d="M883,605.94c.12-.6-.25-1.44.79-1.58Z" transform="translate(-611.45 -37.86)"/><path class="cls-8" d="M979.49,778.37a1.39,1.39,0,0,1-1.52,1A1.41,1.41,0,0,1,979.49,778.37Z" transform="translate(-611.45 -37.86)"/><path class="cls-8" d="M978,779.37c-.21.79-.81,1-1.52,1A1.45,1.45,0,0,1,978,779.37Z" transform="translate(-611.45 -37.86)"/><path class="cls-8" d="M976.49,780.37a1.28,1.28,0,0,1-1.52,1A1.45,1.45,0,0,1,976.49,780.37Z" transform="translate(-611.45 -37.86)"/><path class="cls-8" d="M975,781.37a1.27,1.27,0,0,1-1.64,1A1.86,1.86,0,0,1,975,781.37Z" transform="translate(-611.45 -37.86)"/><path class="cls-8" d="M982.48,776.37a1.38,1.38,0,0,1-1.52,1A1.36,1.36,0,0,1,982.48,776.37Z" transform="translate(-611.45 -37.86)"/><path class="cls-8" d="M966.41,727.56a1.15,1.15,0,0,1-.34,1.31C965.26,728.2,965.71,727.85,966.41,727.56Z" transform="translate(-611.45 -37.86)"/><polygon class="cls-8" points="377.5 734.15 377.49 734.18 377.52 734.01 377.5 734.15"/><path class="cls-9" d="M988.53,719.38c-.44,0-.88,0-1-.53A.82.82,0,0,1,988.53,719.38Z" transform="translate(-611.45 -37.86)"/><path class="cls-8" d="M934.93,597h0Z" transform="translate(-611.45 -37.86)"/><path class="cls-7" d="M946.27,593.39c-.49,0-1,.07-1.34-.5A1.4,1.4,0,0,1,946.27,593.39Z" transform="translate(-611.45 -37.86)"/><path class="cls-9" d="M987.54,718.9l-.55-.49Z" transform="translate(-611.45 -37.86)"/><path class="cls-8" d="M882,665.43l.52.53C882,666,881.92,665.82,882,665.43Z" transform="translate(-611.45 -37.86)"/><path class="cls-8" d="M880.51,664.19a2.21,2.21,0,0,1,0-.29l.46.55Z" transform="translate(-611.45 -37.86)"/><path class="cls-10" d="M886.71,633.36l-.71-.49A.66.66,0,0,1,886.71,633.36Z" transform="translate(-611.45 -37.86)"/><path class="cls-8" d="M881.46,664.93l.52.52Q881.39,665.52,881.46,664.93Z" transform="translate(-611.45 -37.86)"/><path class="cls-10" d="M886,632.9l-.54-.53C885.85,632.38,886.06,632.53,886,632.9Z" transform="translate(-611.45 -37.86)"/><path class="cls-8" d="M900,742.42l.53.53C900.1,743,899.95,742.78,900,742.42Z" transform="translate(-611.45 -37.86)"/><path class="cls-8" d="M917.42,596.44c.24-.48.47-.4.69,0Z" transform="translate(-611.45 -37.86)"/><path class="cls-8" d="M916,596.45l0-.54.54.53Z" transform="translate(-611.45 -37.86)"/><path class="cls-7" d="M944,592.82q0-.16,0-.31l.72.35Z" transform="translate(-611.45 -37.86)"/><path class="cls-8" d="M886.46,670.42l.53.53C886.61,671,886.45,670.78,886.46,670.42Z" transform="translate(-611.45 -37.86)"/><path class="cls-8" d="M887,670.92l.52.53C887.08,671.5,886.93,671.3,887,670.92Z" transform="translate(-611.45 -37.86)"/><path class="cls-8" d="M886,669.92l.53.53C886.12,670.46,886,670.27,886,669.92Z" transform="translate(-611.45 -37.86)"/><path class="cls-4" d="M892.46,676.92l.52.53C892.57,677.51,892.43,677.3,892.46,676.92Z" transform="translate(-611.45 -37.86)"/><path class="cls-8" d="M881,664.42l.52.53C881.08,665,880.94,664.79,881,664.42Z" transform="translate(-611.45 -37.86)"/><path class="cls-4" d="M892,676.42l.53.53C892.11,677,892,676.77,892,676.42Z" transform="translate(-611.45 -37.86)"/><path class="cls-4" d="M891.46,675.92l.53.53A.47.47,0,0,1,891.46,675.92Z" transform="translate(-611.45 -37.86)"/><path class="cls-4" d="M890.89,675.46l.6.49Z" transform="translate(-611.45 -37.86)"/><path class="cls-8" d="M887.46,671.42c.39.1.47.4.49.75C887.62,672,887.37,671.84,887.46,671.42Z" transform="translate(-611.45 -37.86)"/><path class="cls-8" d="M991.68,798l-.07.07Z" transform="translate(-611.45 -37.86)"/><path class="cls-8" d="M990.52,799.45l.49-.59C991.1,799.26,990.94,799.46,990.52,799.45Z" transform="translate(-611.45 -37.86)"/><path class="cls-8" d="M990,800l.52-.53C990.59,799.82,990.47,800,990,800Z" transform="translate(-611.45 -37.86)"/><path class="cls-8" d="M882.46,665.93a.52.52,0,0,1,.52.52C882.5,666.58,882.36,666.37,882.46,665.93Z" transform="translate(-611.45 -37.86)"/><path class="cls-8" d="M900.46,742.92c.38.11.47.41.49.75C900.62,743.53,900.39,743.32,900.46,742.92Z" transform="translate(-611.45 -37.86)"/><path class="cls-13" d="M878.23,661.54c.09.61,1.37.93,0,1.87-6.46,4.28-13.24,8-19.81,12.11-1.74,1.08-2.41,1.37-2.42-1.2,0-7-.44-13.94-.4-20.91,0-2.41-.42-4.07-2.78-4.9-1.94-.68-3.71-1.8-5.76-2.18-6.5-3.21-13.32-5.68-20-8.55-.66-.28-1.51-.27-2-1.21l17.56-19.06-30.89-9.94c3.48-2.21,6.6-4.17,9.7-6.16,5.7-3.66,11.62-7,17.13-10.92,1.3-.08,1.2-2.09,2.81-2,.33,0-.28-1.29-.56-1.92q-6-13.09-12-26.16a12.36,12.36,0,0,1-.35-1.27c8.09,4.7,15.69,9.32,23.46,13.89a3.38,3.38,0,0,1-.66-3.23c2.36-7.72,4.65-15.46,7-23.43,5.51,5.37,11.23,10.3,16.21,16-.42.53-1,1-.78,1.81.8-.16.76-.94,1.15-1.38l14.76-21.11c1.1,4.44,3.48,7.57,5.56,10.88,2.86,4.55,5.81,9,8.65,13.6.45.72,1.48,1.4.75,2.53l-6.64-2.11c-1.65-.06-3.06-2-4.9-.66-5.8,1.07-11.6,2.11-17.38,3.22-5.47,1.05-10.88,2.68-16.39,3.06-2.84.2-3.48,1.62-4.43,3.37-3.93,7.24-7.63,14.61-11.86,21.66-1.37,2.27-1.05,3.55,0,5.62q10.44,20.49,20.57,41.14a32.23,32.23,0,0,0,5.76,7.93C872.26,655.1,875.23,658.33,878.23,661.54Z" transform="translate(-611.45 -37.86)"/><path class="cls-13" d="M897.4,697.34c-2.9,4.23-5.83,8.44-8.67,12.71-.68,1-1.2,1.52-2.57,1.09-5.49-1.73-11-3.3-17.15-5.11l14.29-7.9-13.71-9.65.2-.48h16.59l-9.74-10.09c3.38.41,6.65.69,9.87,1.24,2.33.4,4.79.15,7,1.28l4.58,15-.65,1.94Z" transform="translate(-611.45 -37.86)"/><path class="cls-14" d="M871.94,585.9a5.75,5.75,0,0,1,6,5.55,6.37,6.37,0,0,1-6.13,6,5.51,5.51,0,0,1-5.83-5.66A5.68,5.68,0,0,1,871.94,585.9Zm-.27,9.39c2.06,0,4.23-1.81,4.27-3.5,0-1.47-.85-1.81-2.11-1.78-2.1.06-4.22,1.76-4.26,3.49C869.54,595,870.39,595.38,871.67,595.29Z" transform="translate(-611.45 -37.86)"/><path class="cls-12" d="M893,565.9c1.84-1.31,3.25.6,4.9.66.09,1.14-.88,1.07-1.29.76C895.49,566.5,894.06,566.67,893,565.9Z" transform="translate(-611.45 -37.86)"/><path class="cls-4" d="M897.4,697.36l.65-1.94c1.18-.06,1,.75.94,1.47Z" transform="translate(-611.45 -37.86)"/><path class="cls-3" d="M874.8,562.78c-.39.44-.35,1.22-1.15,1.38-.24-.83.37-1.28.78-1.81Z" transform="translate(-611.45 -37.86)"/><path class="cls-15" d="M871.67,595.29c-1.28.09-2.13-.34-2.1-1.79,0-1.73,2.16-3.43,4.26-3.49,1.26,0,2.15.31,2.11,1.78C875.9,593.48,873.74,595.25,871.67,595.29Z" transform="translate(-611.45 -37.86)"/></svg>