<svg id="Ebene_1" data-name="Ebene 1" xmlns="http://www.w3.org/2000/svg" viewBox="0 0 206.9 262.19"><defs><style>.cls-1{fill:#b6517c;}.cls-2{fill:#5b6d68;}.cls-3{fill:#576964;}.cls-4{fill:#5b6e69;}.cls-5{fill:#5b6a65;}.cls-6{fill:#656568;}.cls-7{fill:#5f5e62;}.cls-8{fill:#6f6c73;}.cls-9{fill:#515151;}.cls-10{fill:#47494a;}.cls-11{fill:#2d3e3a;}.cls-12{fill:#fdceec;}.cls-13{fill:#f9c714;}.cls-14{fill:#1f1b0e;}</style></defs><title>seahorse pink</title><path class="cls-1" d="M317.09,690.58c0,5.18-1.36,10.19-2.34,15.22-.66,3.42.16,5.76,2.25,8.49a231,231,0,0,1,13.55,19.15c.6,1,1.36,1.85,2,2.78,1.65,2,4,2.15,6.3,2.35l.63.48c6.12,2,12.21,4.09,18.38,5.89.81.24,1.52,1.46,2.6.67l1.42-1.12a1.27,1.27,0,0,0,1.64-1h0a1.28,1.28,0,0,0,1.52-1h0a1.36,1.36,0,0,0,1.52-1h0a1.39,1.39,0,0,0,1.52-1h0a1.27,1.27,0,0,0,1.51-1v0h0a1.38,1.38,0,0,0,1.52-1h0a12.18,12.18,0,0,0,4.89-3.18l1.59-1.17h0l.78-.65c3.22-.81,3.76-1.66,4.24-6.74v-.08a2.75,2.75,0,0,0,1-2.6,30.42,30.42,0,0,0,3.56-10.48c.27-1.41-.3-2.31-1.24-3.46a161.17,161.17,0,0,1-9.92-12.72,3.24,3.24,0,0,0-3.59-.85,5.81,5.81,0,0,1-1.15.4c-5.1,1-5.1,1-4.28,6.37a14,14,0,0,0-.1,1.7c.22,3.89-.19,7.39-5,8.23-.07,0-.09.29-.13.45-.73.75-2.11.06-2.71,1.35-.31.67-1,0-1-.45-.41-3.85-1.72-7.62-1.08-11.56-.44-3.68-1.25-7.32-1.31-11-.22-1.44.44-2.24,1.74-2.87,5.41-2.63,10.78-5.35,16.16-8a3.91,3.91,0,0,1,2.12-.54h0l.55.49h0c.14.57.58.55,1,.53h0c.24,1,1.17,1.12,1.88,1.47,7.17,3.63,14.34,7.27,21.56,10.79,1.64.8,2.77,1.47,1.78,3.48-.3.61-.17,1.16.68,1.21q1,17.08,1.94,34.17c.06,1,.31,2-1.29,2.12-.69.07-1.41.86-1.92,1.49-4.44,5.48-9.34,10.56-13.94,15.91-2.39,2.78-4.69,5.75-7.6,8.1l.07-.07-.66.83-.49.59h0l-.75.44h0c-1.72.86-2.72,3.21-5.19,2.49-13.22-2.55-26.35-5.52-39.47-8.51a2.43,2.43,0,0,1-1.37-1c-4.62-5.77-9.64-11.16-14.6-16.64-4.34-4.8-8.24-10-12.67-14.7-3.09-3.28-5.79-6.91-9.07-10a96.25,96.25,0,0,1-6.72-7.86.69.69,0,0,0-.49-.75h0l-.53-.53h0a11.93,11.93,0,0,1-2-8.59c.2-2.14.36-4.28.54-6.43v-8.86c1-.74.22-1.77.45-2.63l.07-2-.07-4,.06-13c0-.72.24-1.53-.94-1.47l-4.58-15c2-1,2-1.19-.52-3h0l-.52-.53h0l-.53-.53h0l-.53-.53h0l-.6-.49-2.72-3.27a.67.67,0,0,0-.49-.75h0l-.52-.53h0l-.53-.53h0l-.53-.53h0c-.35-1.74-1.65-2.66-3-3.51h0a.52.52,0,0,0-.52-.52h0l-.52-.53h0l-.52-.52h0l-.52-.53h0l-.46-.55c.19-1.72-1.13-2-2.3-2.37-3-3.21-6-6.44-9-9.62a32.23,32.23,0,0,1-5.76-7.93q-10.16-20.63-20.57-41.14c-1.06-2.07-1.37-3.35,0-5.62,4.24-7,7.93-14.43,11.86-21.66,1-1.75,1.59-3.17,4.43-3.37,5.51-.38,10.92-2,16.39-3.06,6-.9,11.75-1.9,17.56-3,1.08.76,2.51.6,3.61,1.43.41.31,1.38.38,1.29-.76l6.64,2.11c.54.36.76,1,1.49,1.24,3,.79,6,1.63,9,2.45,4.72,1.63,9.33,3.65,14.29,4.52h0l1.2,1.14.47.4a5.67,5.67,0,0,0,1.13,3c1,1.06,1.1,2.74,2.51,3.5h0c.47,1.72,1,3.4,2.53,4.53h0c.12,1.3.81,3,1.83,2.8,1.89-.36,3.39.73,5.11.65h.74l.13-.06.11.09c.3.57.85.46,1.34.5H335c2.35,1.62,5.1,2.16,7.8,2.77,1.3.3,1.84-.36,1.8-1.62l.31-1.19c.21-.11.52-.18.6-.35,2-4.23,2-4.23,6.57-3.8a6.29,6.29,0,0,0,.74,0,5.22,5.22,0,0,0,1,.17c4.46,0,4.47,0,3.57,4.54-1.17,5.91-1.94,11.9-3.52,17.73a5.66,5.66,0,0,0-.75,2.54c-.13,1.7-.91,2.92-3,2.32-1.52-.37-3-.77-4.55-1.12-3.16-.73-3.2-.8-2.49-4,.27-1.21.41-2.44.65-3.65.66-3.26.49-3.56-2.66-4.27a6.31,6.31,0,0,0-1.24,0l-6.28-2.32a22.06,22.06,0,0,0-9.21-3.69l-.81-.4h0l-.79-.55H307.09l-.16.1-.18-.06c-.22-.41-.45-.49-.69,0h-.86l-.54-.53-22.48.06a16.28,16.28,0,0,1-3-.07c-3.34-.62-4.69.34-5,3.76v.18l-.15.11c-.67,1.3-2,2.35-1.48,4.09a.24.24,0,0,1-.12.32h0c-1,.14-.67,1-.79,1.58h0c-1.23,1.07-1.37,2.71-2.06,4.06-.39.76-1.19,1.44-.71,2.44,1.08,2.19,1.12,4.61,1.57,6.94l.43,4.24c-1.38,4.54-.35,7.32,3.27,8.83h0l.54.53h0l.71.49c3.2,2.76,6.26,5.66,9.48,8.4,2.08,1.77,4.15,3.65,6.11,5.59a4.39,4.39,0,0,0,1.22.67c.09.55.42.76,1,.92,4.13,1.26,8.24,2.57,12.35,3.86l1.5.5c2.53.49,4.76,2.06,7.43,2h0a11.31,11.31,0,0,0,6.46,2l.12-.07.1.09c.27.69,1.1.47,1.5.94,2-.16,2.37,1.18,3,2.67,3,6.74,6,13.43,8.58,20.34,1.46,3.5,1.51,7.24,1.75,10.94l-.4,3.18c-1.32,3-1.13,6.23-.86,9.42l-.15,2.08c-1.44,3.22-1,6.72-1.3,10.08a4,4,0,0,1-2.46,3.84q-6,2.93-12,6C318,689.36,316.89,689.34,317.09,690.58ZM260.49,548a5.68,5.68,0,0,0-5.94,5.41q0,.22,0,.44a5.51,5.51,0,0,0,5.35,5.67h.48a6.37,6.37,0,0,0,6.13-6,5.75,5.75,0,0,0-6-5.51Z" transform="translate(-198.28 -502.95)"/><path class="cls-2" d="M303.55,534.5c-3-.82-6-1.66-9-2.45-.73-.19-1-.88-1.49-1.24.72-1.12-.3-1.81-.75-2.53-2.84-4.56-5.79-9-8.65-13.6-2.08-3.31-4.46-6.44-5.56-10.88l-14.75,21.12-.37-.43c-5-5.68-10.7-10.61-16.21-16-2.38,8-4.67,15.71-7,23.43a3.38,3.38,0,0,0,.66,3.23c-7.77-4.57-15.37-9.19-23.46-13.89a12.36,12.36,0,0,0,.35,1.27l12,26.16c.28.62.9,1.93.56,1.92-1.61-.08-1.51,1.93-2.81,2l0-.65c2.2-.72,2-1.93,1.13-3.77-4-8.48-7.87-17-11.76-25.58-.31-.69-1.21-1.44-.32-2.21s1.55.15,2.22.55c6.06,3.63,12.14,7.24,18.13,11,1.74,1.09,2.24.73,2.77-1.13,2-7.11,4.19-14.18,6.31-21.26.75-2.52,1-2.64,3-.77,4.52,4.3,9,8.64,13.4,13.08,1.32,1.33,1.9,1.15,2.89-.33,3.89-5.8,8-11.49,11.84-17.28,1.18-1.76,1.75-1.79,2.64.21,3.88,8.69,9.72,16.23,14.44,24.42a7,7,0,0,0,4.67,3.48c1.76.49,3.47,1.15,5.2,1.73Q303.55,534.3,303.55,534.5Z" transform="translate(-198.28 -502.95)"/><path class="cls-3" d="M281.55,639.57c2.51,1.82,2.55,2,.52,3-2.2-1.13-4.65-.88-7-1.28-3.22-.55-6.49-.83-9.87-1.24l9.72,10.09H258.33l-.2.48,13.71,9.65-14.29,7.87c6.13,1.81,11.67,3.38,17.15,5.11,1.38.43,1.9-.07,2.57-1.09,2.84-4.27,5.77-8.48,8.67-12.71l.17.76c-3,4.58-6,9.15-9,13.76-.64,1-1.16.59-2,.36-6.31-1.73-12.41-4.22-18.9-5.31-1-.16-1.79-1-3.08-1.69,7,.29,11.14-4.88,17.23-7L256,650.14c.69-1.2,1.52-.87,2.18-.87,3.91,0,7.82.07,11.74.07.71,0,1.74.38,2.06-.35.41-.94-.73-1.34-1.28-1.87-1.78-1.75-3.65-3.41-5.41-5.18-.57-.58-1.88-1-1.31-2.09s1.55-.66,2.48-.54c4.54.6,9.08,1.14,13.62,1.75C281.33,641.22,282,641,281.55,639.57Z" transform="translate(-198.28 -502.95)"/><path class="cls-4" d="M227,552l0,.65c-5.51,4-11.43,7.26-17.13,10.92-3.1,2-6.22,4-9.7,6.16l30.89,9.94-17.59,19.05c.53,1,1.38.93,2,1.21,6.65,2.88,13.47,5.35,20,8.55V609l-21.41-8.79c-1.65-.68-2-1.51-.57-3,4.89-5.11,9.6-10.38,14.49-15.49,1.35-1.41,1.09-1.78-.64-2.33q-13.07-4.1-26.06-8.44c-1.06-.35-2.84.32-3-.86-.3-1.64,1.77-1.3,2.72-1.9C209.64,562.72,218.34,557.38,227,552Z" transform="translate(-198.28 -502.95)"/><path class="cls-5" d="M235.55,609v-.56c2,.38,3.82,1.5,5.76,2.18,2.36.83,2.79,2.49,2.78,4.9,0,7,.37,13.94.4,20.91,0,2.57.68,2.28,2.42,1.2,6.57-4.09,13.35-7.84,19.81-12.11,1.42-.94.14-1.26,0-1.87,1.17.4,2.49.65,2.3,2.37a2.21,2.21,0,0,0,0,.29c-1-.61-1.7.12-2.47.58l-21.57,13a1.8,1.8,0,0,1-2,.15V614.51c0-1.59-.23-2.54-2-3A36.87,36.87,0,0,1,235.55,609Z" transform="translate(-198.28 -502.95)"/><path class="cls-6" d="M403,698.45c-.85,0-1-.6-.68-1.21,1-2-.13-2.68-1.78-3.48-7.23-3.51-14.39-7.16-21.56-10.79-.7-.36-1.63-.5-1.88-1.47,4.36,1.59,8.29,4.06,12.45,6,3.21,1.53,6.25,3.46,9.55,4.75C402.09,693.48,403.3,695.36,403,698.45Z" transform="translate(-198.28 -502.95)"/><path class="cls-7" d="M317.09,690.58c-.2-1.24.93-1.23,1.57-1.56q6-3.06,12-6a4,4,0,0,0,2.46-3.84c.26-3.37-.14-6.86,1.3-10.08-.3,4-.68,8.09-.84,12.14,0,1.28-.88,1.46-1.64,1.85Q324.55,686.86,317.09,690.58Z" transform="translate(-198.28 -502.95)"/><path class="cls-8" d="M375.55,680.56a3.91,3.91,0,0,0-2.12.54c-5.38,2.7-10.75,5.42-16.16,8-1.29.63-2,1.42-1.74,2.87L355,692l-.34-1.06a1.15,1.15,0,0,0,.34-1.31l18.75-9.48C374.41,679.87,375.11,679.54,375.55,680.56Z" transform="translate(-198.28 -502.95)"/><path class="cls-7" d="M339.76,565.57a6.31,6.31,0,0,1,1.24,0c3.16.71,3.32,1,2.66,4.27-.25,1.21-.38,2.45-.65,3.65-.71,3.15-.68,3.21,2.49,4,1.52.35,3,.75,4.55,1.12a2.77,2.77,0,0,0,0,.41c-2.57-.19-5-1.34-7.56-1.41-1.14,0-.65-1-.56-1.5a48,48,0,0,1,1.17-6.37c.59-2,.13-3-1.84-3.38A6.48,6.48,0,0,1,339.76,565.57Z" transform="translate(-198.28 -502.95)"/><path class="cls-9" d="M274.09,561.8c.32-3.42,1.66-4.39,5-3.76a16.28,16.28,0,0,0,3,.07l22.48-.06v.54l-24.07-.15C277.74,558.42,275.24,558.82,274.09,561.8Z" transform="translate(-198.28 -502.95)"/><path class="cls-6" d="M360.48,745.61c-1.09.79-1.8-.43-2.6-.67-6.18-1.81-12.27-3.89-18.38-5.89.74-.57,1.44-.08,2.11.13,5.42,1.72,10.82,3.52,16.26,5.17C358.84,744.65,359.46,745.52,360.48,745.61Z" transform="translate(-198.28 -502.95)"/><path class="cls-7" d="M287,689.57c-.18,2.14-.34,4.29-.54,6.43a11.93,11.93,0,0,0,2,8.59c-1.37-.72-2.08-2.09-3.1-3.16-.21-.22-.48-.69-.39-.85,2.12-3.47.62-7.42,1.49-11Z" transform="translate(-198.28 -502.95)"/><path class="cls-10" d="M361.64,713.73c0-.16.06-.44.13-.45,4.81-.85,5.21-4.34,5-8.23a14,14,0,0,1,.1-1.7c.07-.19.27-.5.19-.61-.37-.49-.44,0-.43.21.2,2.46.31,4.94.72,7.36.17,1,.28,1.67-.82,1.77C364.75,712.26,363.35,713.43,361.64,713.73Z" transform="translate(-198.28 -502.95)"/><path class="cls-8" d="M303.55,534.5v-.4c4.06,1.29,8.13,2.56,12.18,3.88.74.24,1.66.19,2.12,1C312.87,538.14,308.27,536.14,303.55,534.5Z" transform="translate(-198.28 -502.95)"/><path class="cls-6" d="M305.4,615c-4.11-1.3-8.22-2.61-12.35-3.86-.55-.17-.88-.37-1-.92l12.43,3.88C304.93,614.14,305.55,614.22,305.4,615Z" transform="translate(-198.28 -502.95)"/><path class="cls-9" d="M352.76,551.29a6.29,6.29,0,0,1-.74,0c-4.56-.43-4.56-.43-6.57,3.8-.08.17-.4.24-.6.35,1.41-5.83,2.51-6.38,8.54-4.29l.1.08Z" transform="translate(-198.28 -502.95)"/><path class="cls-9" d="M274.09,594.54c-3.62-1.51-4.65-4.29-3.27-8.83l.13-.19c.23-.27,0-.38-.17-.53a1.57,1.57,0,0,0-.09,1.64C271.92,589.23,271.28,592.63,274.09,594.54Z" transform="translate(-198.28 -502.95)"/><path class="cls-10" d="M270.39,581.47c-.46-2.33-.5-4.75-1.57-6.94-.49-1,.32-1.68.71-2.44.69-1.35.82-3,2.06-4.06C269.43,572.36,270,576.92,270.39,581.47Z" transform="translate(-198.28 -502.95)"/><path class="cls-10" d="M335.84,654.42c-.24-3.7-.29-7.43-1.75-10.94.85,1.77,2.15,3.49,2.41,5.34s-.53,3.9-.86,5.86a.66.66,0,0,0,0,.23c.06.26.11.26.26.12S335.9,654.62,335.84,654.42Z" transform="translate(-198.28 -502.95)"/><path class="cls-6" d="M387,713.59a30.44,30.44,0,0,1-3.56,10.48h-.15A76.51,76.51,0,0,1,387,713.59Z" transform="translate(-198.28 -502.95)"/><path class="cls-7" d="M307,558.56h15.68c-1.8.88-3.7.31-5.54.31C313.76,558.9,310.39,558.69,307,558.56Z" transform="translate(-198.28 -502.95)"/><path class="cls-7" d="M286.12,660.24l-.17-.76h0l1.59-.47q0,6.52-.06,13h-.35l.42-9.85C287.55,661.14,287.86,660,286.12,660.24Z" transform="translate(-198.28 -502.95)"/><path class="cls-9" d="M332.55,555c-1.72.08-3.21-1-5.11-.65-1,.19-1.71-1.5-1.83-2.8,1.75,2.3,4.7,1.94,7,3.14A.88.88,0,0,0,332.55,555Z" transform="translate(-198.28 -502.95)"/><path class="cls-10" d="M350.06,579a2.77,2.77,0,0,1,0-.41c2.06.6,2.83-.62,3-2.31a5.66,5.66,0,0,1,.75-2.54c-.22,1.47-.52,2.93-.64,4.4s-.25,2.88-2.14,1.17A5,5,0,0,0,350.06,579Z" transform="translate(-198.28 -502.95)"/><path class="cls-6" d="M344.55,556.66c0,1.26-.5,1.92-1.8,1.62-2.71-.62-5.45-1.15-7.8-2.77a70.15,70.15,0,0,1,7.23,2.15C343.55,558.23,344,557.59,344.55,556.66Z" transform="translate(-198.28 -502.95)"/><path class="cls-7" d="M324.27,559.55a22.06,22.06,0,0,1,9.21,3.69A56.15,56.15,0,0,1,324.27,559.55Z" transform="translate(-198.28 -502.95)"/><path class="cls-7" d="M382.55,726.76c-.48,5.07-1,5.93-4.24,6.74C381.06,732.14,381.14,729,382.55,726.76Z" transform="translate(-198.28 -502.95)"/><path class="cls-7" d="M355,692.08l.57-.07c.06,3.73.87,7.37,1.31,11-1.07-.26-.7-1.19-.78-1.83C355.65,698.14,355.32,695.14,355,692.08Z" transform="translate(-198.28 -502.95)"/><path class="cls-6" d="M334.55,667c-.28-3.19-.46-6.38.86-9.42Z" transform="translate(-198.28 -502.95)"/><path class="cls-8" d="M314.33,617.52c-2.67,0-4.9-1.56-7.43-2C309.65,615.14,312,616.31,314.33,617.52Z" transform="translate(-198.28 -502.95)"/><path class="cls-7" d="M373.4,764.56c2.47.72,3.48-1.63,5.19-2.49C376.82,765.43,376.37,765.65,373.4,764.56Z" transform="translate(-198.28 -502.95)"/><path class="cls-6" d="M338.86,738.57c-2.32-.2-4.65-.35-6.3-2.35C334.55,737.14,336.92,737.34,338.86,738.57Z" transform="translate(-198.28 -502.95)"/><path class="cls-7" d="M375.9,735.35a12.18,12.18,0,0,1-4.89,3.18A9.7,9.7,0,0,1,375.9,735.35Z" transform="translate(-198.28 -502.95)"/><path class="cls-7" d="M320.76,619.51a11.31,11.31,0,0,1-6.46-2A19.84,19.84,0,0,1,320.76,619.51Z" transform="translate(-198.28 -502.95)"/><path class="cls-7" d="M271.55,628.58c1.38.85,2.68,1.77,3,3.51A7.08,7.08,0,0,1,271.55,628.58Z" transform="translate(-198.28 -502.95)"/><path class="cls-9" d="M325.55,551.55c-1.52-1.13-2.07-2.81-2.53-4.53A12.39,12.39,0,0,1,325.55,551.55Z" transform="translate(-198.28 -502.95)"/><path class="cls-9" d="M323.09,547c-1.41-.75-1.53-2.43-2.51-3.5h.78C321.93,544.74,322.83,545.73,323.09,547Z" transform="translate(-198.28 -502.95)"/><path class="cls-9" d="M272.5,566.14c-.54-1.74.81-2.79,1.48-4.09A14.07,14.07,0,0,1,272.5,566.14Z" transform="translate(-198.28 -502.95)"/><path class="cls-7" d="M287,680.7V686h-.4a14.81,14.81,0,0,1,.37-5.36Z" transform="translate(-198.28 -502.95)"/><path class="cls-11" d="M321.37,543.57h-.78a5.66,5.66,0,0,1-1.13-3l.86.5A4.18,4.18,0,0,1,321.37,543.57Z" transform="translate(-198.28 -502.95)"/><path class="cls-7" d="M287.55,676.08l-.06,2-.41.69a5,5,0,0,1,0-2.72Z" transform="translate(-198.28 -502.95)"/><path class="cls-9" d="M287.07,678.76l.41-.69c-.23.87.51,1.89-.45,2.63h0A2.61,2.61,0,0,1,287.07,678.76Z" transform="translate(-198.28 -502.95)"/><path class="cls-9" d="M287.55,676.08H287l.1-4h.35Q287.55,674.07,287.55,676.08Z" transform="translate(-198.28 -502.95)"/><path class="cls-7" d="M383.33,724.06h.15a2.76,2.76,0,0,1-1,2.6A5.81,5.81,0,0,1,383.33,724.06Z" transform="translate(-198.28 -502.95)"/><path class="cls-9" d="M286.61,686h.4v3.51h-.52Z" transform="translate(-198.28 -502.95)"/><path class="cls-9" d="M320.31,541l-.86-.5-.47-.41.64-.73C320.36,539.74,320,540.52,320.31,541Z" transform="translate(-198.28 -502.95)"/><path class="cls-7" d="M322.48,620.47c-.4-.47-1.24-.26-1.5-.94C321.65,619.57,322.45,619.41,322.48,620.47Z" transform="translate(-198.28 -502.95)"/><path class="cls-11" d="M319.62,539.41l-.64.73-1.2-1.14C318.43,539,319.12,538.75,319.62,539.41Z" transform="translate(-198.28 -502.95)"/><path class="cls-7" d="M369.55,739.51a1.27,1.27,0,0,1-1.49,1h0A1.39,1.39,0,0,1,369.55,739.51Z" transform="translate(-198.28 -502.95)"/><path class="cls-10" d="M271.55,568.08c.12-.6-.25-1.44.79-1.58Z" transform="translate(-198.28 -502.95)"/><path class="cls-7" d="M368,740.51a1.39,1.39,0,0,1-1.52,1A1.41,1.41,0,0,1,368,740.51Z" transform="translate(-198.28 -502.95)"/><path class="cls-7" d="M366.55,741.51a1.36,1.36,0,0,1-1.52,1A1.45,1.45,0,0,1,366.55,741.51Z" transform="translate(-198.28 -502.95)"/><path class="cls-7" d="M365,742.51a1.28,1.28,0,0,1-1.51,1h0A1.45,1.45,0,0,1,365,742.51Z" transform="translate(-198.28 -502.95)"/><path class="cls-7" d="M363.55,743.51a1.27,1.27,0,0,1-1.46,1l-.18,0A1.86,1.86,0,0,1,363.55,743.51Z" transform="translate(-198.28 -502.95)"/><path class="cls-7" d="M371,738.51a1.38,1.38,0,0,1-1.52,1A1.36,1.36,0,0,1,371,738.51Z" transform="translate(-198.28 -502.95)"/><path class="cls-7" d="M355,689.7a1.15,1.15,0,0,1-.34,1.31C353.81,690.34,354.26,690,355,689.7Z" transform="translate(-198.28 -502.95)"/><polygon class="cls-7" points="179.22 231.2 179.21 231.23 179.24 231.06 179.22 231.2"/><path class="cls-8" d="M377.08,681.52c-.44,0-.88,0-1-.53A.82.82,0,0,1,377.08,681.52Z" transform="translate(-198.28 -502.95)"/><path class="cls-7" d="M323.48,559.14Z" transform="translate(-198.28 -502.95)"/><path class="cls-6" d="M334.82,555.53c-.49,0-1,.07-1.34-.5A1.4,1.4,0,0,1,334.82,555.53Z" transform="translate(-198.28 -502.95)"/><path class="cls-8" d="M376.09,681l-.55-.49Z" transform="translate(-198.28 -502.95)"/><path class="cls-7" d="M270.55,627.57l.52.53C270.55,628.14,270.47,628,270.55,627.57Z" transform="translate(-198.28 -502.95)"/><path class="cls-7" d="M269.06,626.33a2.21,2.21,0,0,1,0-.29l.46.55Z" transform="translate(-198.28 -502.95)"/><path class="cls-9" d="M275.26,595.5l-.71-.49A.66.66,0,0,1,275.26,595.5Z" transform="translate(-198.28 -502.95)"/><path class="cls-7" d="M270,627.07l.52.52Q269.94,627.66,270,627.07Z" transform="translate(-198.28 -502.95)"/><path class="cls-9" d="M274.55,595l-.54-.53C274.4,594.52,274.61,594.67,274.55,595Z" transform="translate(-198.28 -502.95)"/><path class="cls-7" d="M288.55,704.56l.53.53C288.65,705.14,288.5,704.92,288.55,704.56Z" transform="translate(-198.28 -502.95)"/><path class="cls-7" d="M306,558.58c.24-.48.47-.4.69,0Z" transform="translate(-198.28 -502.95)"/><path class="cls-7" d="M304.55,558.59v-.54l.54.53Z" transform="translate(-198.28 -502.95)"/><path class="cls-6" d="M332.55,555v-.31l.72.35Z" transform="translate(-198.28 -502.95)"/><path class="cls-7" d="M275,632.56l.53.53C275.16,633.14,275,632.92,275,632.56Z" transform="translate(-198.28 -502.95)"/><path class="cls-7" d="M275.55,633.06l.52.53C275.63,633.64,275.48,633.44,275.55,633.06Z" transform="translate(-198.28 -502.95)"/><path class="cls-7" d="M274.55,632.06l.53.53C274.67,632.6,274.55,632.41,274.55,632.06Z" transform="translate(-198.28 -502.95)"/><path class="cls-3" d="M281,639.06l.52.53C281.12,639.65,281,639.44,281,639.06Z" transform="translate(-198.28 -502.95)"/><path class="cls-7" d="M269.55,626.56l.52.53C269.63,627.14,269.49,626.93,269.55,626.56Z" transform="translate(-198.28 -502.95)"/><path class="cls-3" d="M280.55,638.56l.53.53C280.66,639.14,280.55,638.91,280.55,638.56Z" transform="translate(-198.28 -502.95)"/><path class="cls-3" d="M280,638.06l.53.53a.47.47,0,0,1-.53-.53Z" transform="translate(-198.28 -502.95)"/><path class="cls-3" d="M279.44,637.6l.6.49Z" transform="translate(-198.28 -502.95)"/><path class="cls-7" d="M276,633.56c.39.1.47.4.49.75C276.17,634.14,275.92,634,276,633.56Z" transform="translate(-198.28 -502.95)"/><path class="cls-7" d="M380.23,760.14l-.07.07Z" transform="translate(-198.28 -502.95)"/><path class="cls-7" d="M379.07,761.59l.49-.59C379.65,761.4,379.49,761.6,379.07,761.59Z" transform="translate(-198.28 -502.95)"/><path class="cls-7" d="M378.55,762.14l.52-.53C379.14,762,379,762.14,378.55,762.14Z" transform="translate(-198.28 -502.95)"/><path class="cls-7" d="M271,628.07a.52.52,0,0,1,.52.52h0C271,628.72,270.91,628.51,271,628.07Z" transform="translate(-198.28 -502.95)"/><path class="cls-7" d="M289,705.06c.38.11.47.41.49.75C289.17,705.67,288.94,705.46,289,705.06Z" transform="translate(-198.28 -502.95)"/><path class="cls-12" d="M266.78,623.68c.09.61,1.37.93,0,1.87-6.46,4.28-13.24,8-19.81,12.11-1.74,1.08-2.41,1.37-2.42-1.2,0-7-.44-13.94-.4-20.91,0-2.41-.42-4.07-2.78-4.9-1.94-.68-3.71-1.8-5.76-2.18-6.5-3.21-13.32-5.68-20-8.55-.66-.28-1.51-.27-2-1.21l17.56-19.06-30.89-9.94c3.48-2.21,6.6-4.17,9.7-6.16,5.7-3.66,11.62-7,17.13-10.92,1.3-.08,1.2-2.09,2.81-2,.33,0-.28-1.29-.56-1.92l-12-26.16a12.36,12.36,0,0,1-.35-1.27c8.09,4.7,15.69,9.32,23.46,13.89a3.38,3.38,0,0,1-.66-3.23c2.36-7.72,4.65-15.46,7-23.43,5.51,5.37,11.23,10.3,16.21,16-.42.53-1,1-.78,1.81.8-.16.76-.94,1.15-1.38l14.76-21.11c1.1,4.44,3.48,7.57,5.56,10.88,2.86,4.55,5.81,9,8.65,13.6.45.72,1.48,1.4.75,2.53l-6.64-2.11c-1.65-.06-3.06-2-4.9-.66-5.8,1.07-11.6,2.11-17.38,3.22-5.47,1-10.88,2.68-16.39,3.06-2.84.2-3.48,1.62-4.43,3.37-3.93,7.24-7.63,14.61-11.86,21.66-1.37,2.27-1,3.55,0,5.62q10.44,20.49,20.57,41.14a32.23,32.23,0,0,0,5.76,7.93C260.81,617.24,263.78,620.47,266.78,623.68Z" transform="translate(-198.28 -502.95)"/><path class="cls-12" d="M286,659.48c-2.9,4.23-5.83,8.44-8.67,12.71-.68,1-1.2,1.52-2.57,1.09-5.49-1.73-11-3.3-17.15-5.11l14.29-7.9-13.71-9.65.2-.48h16.59l-9.74-10.09c3.38.41,6.65.69,9.87,1.24,2.33.4,4.79.15,7,1.28l4.58,15-.65,1.94Z" transform="translate(-198.28 -502.95)"/><path class="cls-13" d="M260.49,548a5.75,5.75,0,0,1,6,5.49v.06a6.37,6.37,0,0,1-6.13,6,5.51,5.51,0,0,1-5.82-5.18q0-.24,0-.48A5.68,5.68,0,0,1,260,548Zm-.27,9.39c2.06,0,4.23-1.81,4.27-3.5,0-1.47-.85-1.81-2.11-1.78-2.1.06-4.22,1.76-4.26,3.49,0,1.5.82,1.88,2.1,1.79Z" transform="translate(-198.28 -502.95)"/><path class="cls-11" d="M281.55,528c1.84-1.31,3.25.6,4.9.66.09,1.14-.88,1.07-1.29.76C284,528.64,282.61,528.81,281.55,528Z" transform="translate(-198.28 -502.95)"/><path class="cls-3" d="M286,659.5l.65-1.94c1.18-.06,1,.75.94,1.47Z" transform="translate(-198.28 -502.95)"/><path class="cls-2" d="M263.35,524.92c-.39.44-.35,1.22-1.15,1.38-.24-.83.37-1.28.78-1.81Z" transform="translate(-198.28 -502.95)"/><path class="cls-14" d="M260.22,557.43c-1.28.09-2.13-.34-2.1-1.79,0-1.73,2.16-3.43,4.26-3.49,1.26,0,2.15.31,2.11,1.78C264.45,555.62,262.29,557.39,260.22,557.43Z" transform="translate(-198.28 -502.95)"/></svg>