<svg id="Ebene_1" data-name="Ebene 1" xmlns="http://www.w3.org/2000/svg" viewBox="0 0 206.87 262.56"><defs><style>.cls-1{fill:#273b3b;}.cls-2{fill:#374a46;}.cls-3{fill:#394b46;}.cls-4{fill:#394c47;}.cls-5{fill:#394c46;}.cls-6{fill:#3b4f49;}.cls-7{fill:#019388;}.cls-8{fill:#7ce0c2;}.cls-9{fill:#315653;}.cls-10{fill:#f5c213;}.cls-11{fill:#2a5251;}.cls-12{fill:#325a58;}.cls-13{fill:#1a1503;}</style></defs><title>seahorse green</title><path class="cls-1" d="M287.47,665.25v-1.17h.64c-.35,11.72-.66,23.45-1.11,35.17a6.29,6.29,0,0,0,1.75,4.71q7.61,8.59,15.19,17.21l28.67,32.6a4.33,4.33,0,0,0,2.34,1.75c12.65,2.68,25.31,5.33,37.92,8.19a4.42,4.42,0,0,0,5-1.58c7.26-8.24,14.68-16.33,21.88-24.62,2.13-2.45,4.64-4.37,4.13-8.83-1.21-10.55-1.29-21.22-1.76-31.85a2.8,2.8,0,0,0-1.7-2.73q-12.37-6.24-24.69-12.58a2.5,2.5,0,0,0-2.56,0q-8.13,4.11-16.31,8.12a2,2,0,0,0-1.19,2.4c.82,5.41,1.63,10.82,2.37,16.23a30.77,30.77,0,0,0,1,5.54c1.77-.67,3.51-1.46,5.32-2,1.63-.47,2-1.43,1.87-3-.25-2.9-.37-5.8-.56-8.7-.07-1.14-.67-2.84-.15-3.3.79-.69,2.34-.5,3.55-.73,4.07-.75,7.49-.83,10,3.75,2.1,3.89,5.38,7.15,8.28,10.58a2.72,2.72,0,0,1,.61,3.09c-1.78,4.92-4.13,9.77-5,14.86-.59,3.6-2.85,4.6-5.08,6.29-5.28,4-11.48,6.66-16.09,11.57-.39.41-.94.27-1.41.09-8.78-3.32-17.84-5.8-26.74-8.76a3.76,3.76,0,0,1-2-1.4l-17.72-25a2.15,2.15,0,0,1-.62-1.78c1.14-6.19,2.26-12.39,3.29-18.6.18-1.11.77-1.39,1.67-1.82,4.28-2,8.5-4.21,12.74-6.33.85-.42,1.57-.89,1.65-2,.12-1.57.34-3.13.48-4.7.65-7.27,1.32-14.54,1.92-21.82.28-3.45.35-6.76-1.3-10.15-3.34-6.87-6.21-14-9.14-21a3.66,3.66,0,0,0-2.53-2.36c-10-3.13-20-6.32-29.93-9.46a4.24,4.24,0,0,1-2-1c-5.51-5.67-11.61-10.7-17.49-16a7.08,7.08,0,0,1-2.61-5.32c-.18-3.73-.72-7.44-.78-11.17,0-1.78-1.41-3.29-.33-5.37A104.76,104.76,0,0,0,273.61,561a4.86,4.86,0,0,1,5.24-3.53c14.32.24,28.64.37,43,.54a4.08,4.08,0,0,1,1.71.17c6.23,3.19,13,5.14,19.41,7.8,1.35.55,2.19.82,1.33,2.69s-.84,3.87-1.22,5.82c-.26,1.36.15,2.23,1.64,2.5a45.56,45.56,0,0,1,5.58,1.24c1.49.47,2-.12,2.22-1.41,1.4-7.66,2.75-15.34,4.24-23,.28-1.46-.21-1.75-1.45-1.84-2.32-.18-4.64-.36-6.93-.73-1-.16-1.44.18-1.66,1-.66,2.35-2,4.52-1.55,7.26-3.87-1.24-7.56-2.45-11.27-3.6-1.65-.51-3.37-1.31-5-1.22a3,3,0,0,1-3.16-1.71c-2-3.62-4.29-7.15-6.07-10.89a5.23,5.23,0,0,0-3.49-3.06c-7.57-2.44-15.12-5-22.67-7.48v-.63l-.11-1.2.22-.88c1.06,2.63,3.54,3,5.84,3.78,6.41,2,12.79,4.17,19.23,6.13,2.07.63,2.06,2.56,2.6,3.91,1.32,3.35,3.42,6.25,5,9.44a1.57,1.57,0,0,0,1.06.89c4.93,1.46,9.88,2.9,14.75,4.55,1.6.54,2,0,2.37-1.33.66-2,.51-4.89,2.37-5.79,1.55-.75,3.93.22,5.94.42a16.89,16.89,0,0,0,3.77.29c1.63-.21,1.8.23,1.51,1.73q-2.52,12.85-4.85,25.73c-.27,1.48-.07,2.11-2.06,1.06a22.21,22.21,0,0,0-7.93-1.94c-1.57-.17-1.53-.59-1.28-1.78.5-2.36.74-4.78,1.34-7.11.34-1.32-.11-1.73-1.19-2.14q-9.55-3.62-19.06-7.34a6,6,0,0,0-2.2-.3l-40.48-.5c-4.09,0-4.51.51-6.3,4.17-3.06,6.27-4.6,12.63-3.57,19.71.43,3,1.3,5.94,1.37,9,0,.83.71,1.27,1.26,1.77l17.26,15.56a8.5,8.5,0,0,0,3.24,1.78c9.18,2.92,18.34,5.89,27.52,8.81,2.19.7,4,1.07,4.82,4.1,1.32,4.84,3.84,9.35,5.86,14,1.65,3.81,4.31,7.52,4.68,11.45.36,3.76-.8,7.85-1.17,11.81-.63,6.71-1.2,13.43-1.65,20.16a2.25,2.25,0,0,1-1.48,2.21c-4.32,2.13-8.59,4.38-12.94,6.44a3.34,3.34,0,0,0-2,2.8c-.87,5.33-1.75,10.67-2.73,16a3.5,3.5,0,0,0,.6,3q8.48,11.82,16.89,23.82a4.65,4.65,0,0,0,2.56,1.83c8.07,2.55,16.16,5.09,24.2,7.72a3.3,3.3,0,0,0,3.23-.44q8.56-5.83,17.18-11.56a4.45,4.45,0,0,0,1.92-2.46c1.8-5.44,3.66-10.86,5.63-16.23a2.8,2.8,0,0,0-.52-3.14q-4.94-6.13-9.71-12.38a4,4,0,0,0-4.12-1.64l-.74.13c-5.39.74-5.48.75-4.79,6.23.32,2.55-.08,5.16.79,7.66.22.64-.16,1.22-1,1.4a39.38,39.38,0,0,0-8.25,3.25c-.56-.38-.57-1-.65-1.56-.9-6.76-1.88-13.52-2.62-20.29-.14-1.28-1.57-2.65-.38-3.81.9-.88,2.32-1.24,3.51-1.83,4.53-2.27,9.08-4.48,13.57-6.83a4.88,4.88,0,0,1,5.36,0c7.72,4.23,15.65,8.07,23.53,12a3.43,3.43,0,0,1,2.35,3.43c.5,12.06,1.26,24.12,1.94,36.17.06,1,.31,2-1.29,2-.48,0-1,.86-1.39,1.36-8.14,9.14-16.31,18.27-24.39,27.47a3.64,3.64,0,0,1-4,1.4c-12.24-2.77-24.45-5.71-36.79-7.94-3-.54-4.51-2-6.16-3.87q-22.3-25.31-44.58-50.64c-.8-.91-2.17-1.71-.39-3.07.34-.26.11-1.27.13-1.94q.54-13.23,1.07-26.46C288,669.14,287.45,667.14,287.47,665.25Z" transform="translate(-198.13 -502.62)"/><path class="cls-2" d="M288.08,664.08h-.64c-.3-1.29.33-2.67-.5-4-1.12.39-1.4,1.52-2,2.35q-3.73,5.46-7.35,11c-.74,1.14-1.2,1.46-2.87,1-6.17-1.88-12.17-4.29-18.6-5.29-.6-.09-1.12-.62-1.7-.9s-1.12-.26-.82-.94.93-.38,1.32-.18c1.32.68,2.38.11,3.49-.52,3.75-2.09,7.51-4.14,11.6-6.38-4-2.85-7.83-5.51-11.59-8.21-.9-.65-2.49-1.25-2.14-2.37s1.94-.44,3-.46c4.23-.06,8.46,0,12.93,0-.78-1.82-2.39-2.62-3.54-3.83s-2.53-2.41-3.76-3.65c-.49-.5-1.5-.89-1.1-1.74s1.45-.9,2.41-.76c4.2.59,8.4,1.15,12.61,1.71.9.12,1.8.14,2.71.21.26-1.18-.64-1.6-1.14-2.16-3.52-3.89-7.13-7.69-10.61-11.61-1-1.16-1.72-1.26-3.09-.41-7.06,4.37-14.22,8.59-21.34,12.85-.54.32-1,1.07-1.74.59s0-1.08,0-1.64c-.2-8.41-.41-16.81-.56-25.22a1.64,1.64,0,0,0-1.32-1.75c-2-.75-4-1.67-5.92-2.53l1-.26c2,.61,3.76,1.91,5.64,2.4,1.72.45,1.54,1.19,1.55,2.26,0,3.33,0,6.66.12,10,.15,5,.38,10,.57,15,.3,0,.39.07.45,0,7.39-4.26,14.72-8.61,21.9-13.23,1.14-.73-.08-1.26,0-1.88,1.89.44,2.61,2.12,3.76,3.4,4,4.51,8.18,8.91,12.27,13.36.52.57,1.5,1.21.6,2s-.4,1.45-.17,2.23q1.89,6.41,3.74,12.84l-.57.12a85.64,85.64,0,0,1-2.65-9.06c-.87-4.76-3-7.64-8.27-7.1a4.8,4.8,0,0,1-.48-.12L264.95,640l9.6,10.3h-17l14.21,10-14.21,7.86c6.21,1.87,11.82,3.53,17.41,5.25,1.28.4,1.78-.34,2.36-1.22,3-4.56,6.13-9.1,9.2-13.65l2,2V662c-.68.56-.41,1.32-.43,2Z" transform="translate(-198.13 -502.62)"/><path class="cls-3" d="M213.46,599.64c-2.1-.68-.65-1.55,0-2.21,4.44-4.84,8.92-9.64,13.38-14.45.51-.55,1-1.11,1.54-1.63.75-.73,1-1.3-.29-1.68-9.76-2.85-19.21-6.7-29.15-9-.45-.1-.8-.15-.81-.69a1,1,0,0,1,.59-1c8.88-4.5,16.92-10.4,25.45-15.47.92-.55,1.87-1,2.81-1.57l.62.42-27.33,17.3,30.89,10c-4.72,5.08-9.31,9.9-13.75,14.84-1.4,1.56-3.38,2.73-3.83,5Z" transform="translate(-198.13 -502.62)"/><path class="cls-4" d="M228.78,549.64Q222.4,535.87,216,522.09c-.25-.55-.83-1.18,0-1.77s1.42,0,2,.42c6.12,3.68,12.27,7.32,18.33,11.1,1.61,1,2.2,1,2.76-1,1.92-6.79,4-13.51,6.09-20.26l.71.47c-.55,1.91-1.16,3.8-1.65,5.73-1.45,5.76-3.9,11.25-4.68,17.19a.83.83,0,0,1-.45.76c-.44.23-.78.23-1-.3a2.71,2.71,0,0,0-1.43-1.32q-9.17-5.54-18.37-11c-.38-.23-.75-.76-1.32-.12l12.53,27.56Z" transform="translate(-198.13 -502.62)"/><path class="cls-5" d="M245.93,511l-.71-.47.84-2.53h1c1.07,0,1.57.87,2.2,1.48,4.08,3.92,8.19,7.81,12.15,11.85,1.5,1.53,2.23,1.78,3.56-.26,3.82-5.84,7.87-11.52,11.86-17.25.49-.7,1-2.27,1.94-.27,4,8.73,9.59,16.47,14.59,24.59a3.12,3.12,0,0,1,.23.7l-.22.88c-2.83-4.4-5.74-8.75-8.45-13.21-2.09-3.44-4.75-6.55-6-10.51-.78-2.43-1.78-1-2.58.17L263,525.46l-16.16-17.32Z" transform="translate(-198.13 -502.62)"/><path class="cls-6" d="M236.76,608.93l-1,.26c-7.4-2.71-14.58-6-21.84-9-.19-.08-.3-.36-.44-.54l.07-.07a2.49,2.49,0,0,1,1.68.21Z" transform="translate(-198.13 -502.62)"/><path class="cls-2" d="M287.47,665.25c0,1.94.5,3.91-.37,5.79A17.59,17.59,0,0,1,287.47,665.25Z" transform="translate(-198.13 -502.62)"/><path class="cls-4" d="M227.55,552.42l-.61-.42c.44-.94,1.69-.65,2.23-1.45h.42A4.56,4.56,0,0,1,227.55,552.42Z" transform="translate(-198.13 -502.62)"/><path class="cls-4" d="M247.09,508h-1C246.38,507.14,246.73,507.14,247.09,508Z" transform="translate(-198.13 -502.62)"/><path class="cls-3" d="M229.55,550.57h-.42l-.37-.91.76-.09a.27.27,0,0,1,.08.29l-.06.73Z" transform="translate(-198.13 -502.62)"/><path class="cls-7" d="M287.2,657.44l-3.74-12.84c-.23-.77-.68-1.43.17-2.23s-.08-1.48-.6-2c-4.09-4.45-8.24-8.85-12.27-13.36-1.15-1.29-1.87-3-3.76-3.4h0V623a.87.87,0,0,0-1-.5h0a.52.52,0,0,0-.52-.52h0a1.35,1.35,0,0,0-1-1.51h0L264,620h0l-.4-.57-.62-.46h0l-.51-.52h0a.49.49,0,0,0-.47-.51h0c0-.71-.29-1-1-1h0a.5.5,0,0,0-.48-.52h0a.52.52,0,0,0-.52-.52h0a.51.51,0,0,0-.5-.52h0a.52.52,0,0,0-.51-.53h0a.81.81,0,0,0-.54-1h0l-.52-.52h0a5.27,5.27,0,0,0-3.51-3.51h0a.78.78,0,0,0-.48-1h0c0-.45,0-.85-.52-1h0c0-.45,0-.87-.52-1h0a3,3,0,0,0-1.51-3h0a3.9,3.9,0,0,0-.77-2.55c-2.62-5.26-5.23-10.52-7.9-15.75-.67-1.3-1-2.82-2.27-3.79a127.12,127.12,0,0,0-9.58-18.92v-2a11.31,11.31,0,0,0,3.52-6.52h0a8,8,0,0,0,3-5.53h0a8,8,0,0,0,3-5.53h0a8.78,8.78,0,0,0,3-5.52h0c1.51-.57,1.82-2.43,3.84-2.78,10.78-1.89,21.5-4.14,32.27-6.14,1.14-.21,2.29-.69,3.63-.27,3.36,1,6.81,1.84,10.22,2.73q11.32,3.75,22.67,7.48a5.23,5.23,0,0,1,3.79,3.42c1.78,3.75,4,7.28,6.07,10.89a3,3,0,0,0,3.16,1.71c1.64-.09,3.36.71,5,1.22,3.71,1.15,7.4,2.36,11.27,3.6-.48-2.74.89-4.92,1.55-7.26.22-.8.67-1.14,1.66-1,2.29.36,4.61.55,6.93.73,1.24.09,1.73.38,1.45,1.84-1.49,7.65-2.84,15.32-4.24,23-.23,1.29-.73,1.88-2.22,1.41A45.56,45.56,0,0,0,344.7,577c-1.49-.27-1.9-1.14-1.64-2.5.37-2,.41-4.06,1.22-5.82s0-2.13-1.33-2.69c-6.44-2.66-13.17-4.61-19.41-7.8a4.08,4.08,0,0,0-1.71-.17c-14.32-.17-28.64-.3-43-.54a4.86,4.86,0,0,0-5.24,3.53,104.76,104.76,0,0,1-4.72,11.26c-1.07,2.07.3,3.59.33,5.37.06,3.73.59,7.44.78,11.17a7.08,7.08,0,0,0,2.61,5.32c5.87,5.27,12,10.3,17.49,16a4.24,4.24,0,0,0,2,1c10,3.15,20,6.33,29.93,9.46a3.66,3.66,0,0,1,2.53,2.36c2.93,7.06,5.8,14.17,9.14,21,1.65,3.39,1.58,6.69,1.3,10.15-.6,7.28-1.27,14.55-1.92,21.82-.14,1.57-.36,3.13-.48,4.7-.08,1.09-.81,1.56-1.65,2-4.24,2.12-8.46,4.3-12.74,6.33-.9.43-1.49.71-1.67,1.82-1,6.21-2.15,12.41-3.29,18.6a2.15,2.15,0,0,0,.62,1.78l17.72,25a3.76,3.76,0,0,0,2,1.4c8.9,3,18,5.44,26.74,8.76a1.23,1.23,0,0,0,1.41-.09c4.61-4.9,10.81-7.59,16.09-11.57,2.23-1.68,4.49-2.68,5.08-6.29.84-5.09,3.19-9.93,5-14.86a2.72,2.72,0,0,0-.61-3.09c-2.9-3.42-6.19-6.69-8.28-10.58-2.47-4.58-5.89-4.5-10-3.75-1.22.22-2.77,0-3.55.73-.52.45.08,2.15.15,3.3.19,2.9.31,5.81.56,8.7.13,1.54-.24,2.5-1.87,3-1.81.52-3.55,1.31-5.32,2a30.77,30.77,0,0,1-1-5.54q-1.11-8.13-2.37-16.23a2,2,0,0,1,1.19-2.4q8.18-4,16.31-8.12a2.5,2.5,0,0,1,2.56,0q12.32,6.35,24.69,12.58a2.8,2.8,0,0,1,1.7,2.73c.47,10.63.55,21.3,1.76,31.85.51,4.46-2,6.38-4.13,8.83-7.2,8.29-14.62,16.39-21.88,24.62a4.42,4.42,0,0,1-5,1.58c-12.61-2.86-25.27-5.51-37.92-8.19a4.33,4.33,0,0,1-2.34-1.75q-14.35-16.29-28.67-32.6-7.58-8.62-15.19-17.21a6.29,6.29,0,0,1-1.75-4.71c.45-11.72.75-23.45,1.11-35.17h0c.51-.59.35-1.33.43-2v-1.46ZM260.64,547.61a6.32,6.32,0,0,0-6.46,6.18v0a6,6,0,0,0,5.91,6.09h0a6.5,6.5,0,0,0,6.64-6.34A6.11,6.11,0,0,0,260.64,547.61Z" transform="translate(-198.13 -502.62)"/><path class="cls-8" d="M229.62,549.84a.27.27,0,0,0-.08-.29L217.06,522c.56-.64.94-.11,1.32.12l18.37,11c.55.33,1.19.63,1.43,1.32.19.53.53.54,1,.3a.83.83,0,0,0,.45-.76c.78-5.94,3.23-11.43,4.68-17.19.49-1.93,1.1-3.82,1.65-5.73l1-3,16.17,17.35,13.3-19.24c.8-1.15,1.79-2.6,2.58-.17,1.28,4,3.93,7.06,6,10.51,2.71,4.47,5.63,8.81,8.45,13.21l.11,1.2c-3.14-1-6.29-2-9.4-3.12a3.36,3.36,0,0,0-2.17-.25c-5.2,1.78-10.64,2.48-16,3.36-6.8,1.12-13.39,3.63-20.43,3.28-.27,0-.67.47-.85.81a7.25,7.25,0,0,0-1.12,3h0a16.65,16.65,0,0,0-3,5.52h0a17.2,17.2,0,0,0-3,5.53h0a17.61,17.61,0,0,0-3,5.53h0A23.52,23.52,0,0,0,231,561.1h0c-.51,0-1,.1-1,.75s.11,1.31,1,1.3h0a2.69,2.69,0,0,0,.09,1q4.71,9.27,9.45,18.51c3.48,7.27,6.89,14.58,11,21.54h0a5.4,5.4,0,0,0,1.51,3h0c0,.44,0,.84.52,1h0c0,.43,0,.85.52,1h0c0,.42,0,.83.5,1h0c.15,2.18,2.12,2.56,3.51,3.51h0c-.06.41.07.62.52.52h0c-.23.55.16.78.54,1h0l.52.53h0l.52.52h0l.52.52h0l.52.52h0c.12.55.36,1,1,1h0c0,.35.13.55.51.51h0c0,.36.1.59.51.52h0c0,.06-.08.12-.07.17a2,2,0,0,0,.11.32c.21.39.43.75,1,.54h0c-.08.42.09.6.51.52h0c-.18.86.46,1.16,1,1.51h0l.52.52h0l.45.52.55.5h0c-.09.62,1.13,1.15,0,1.88-7.17,4.62-14.51,9-21.9,13.23H245c-.19-5-.42-10-.57-15-.1-3.33-.07-6.66-.12-10,0-1.08.17-1.81-1.55-2.26-1.88-.5-3.66-1.79-5.64-2.4l-21.55-9.15a2.49,2.49,0,0,0-1.68-.21c.46-2.29,2.43-3.47,3.83-5,4.44-4.94,9-9.76,13.75-14.84l-30.89-10,27-17.78a4.56,4.56,0,0,0,2-1.86h0C230.15,550.38,229.86,550.14,229.62,549.84ZM263,525.29l-.06-.24-.39.19.33.27Zm-22.72,9.35-.19.14c0,.06.1.16.16.16s.12-.08.19-.13Z" transform="translate(-198.13 -502.62)"/><path class="cls-9" d="M243.55,538a7.25,7.25,0,0,1,1.12-3c.17-.34.57-.82.85-.81,7,.35,13.63-2.16,20.43-3.28,5.37-.89,10.8-1.59,16-3.36a3.36,3.36,0,0,1,2.17.25c3.11,1.1,6.27,2.09,9.4,3.12v.63c-3.41-.89-6.86-1.68-10.22-2.73-1.34-.42-2.49.06-3.63.27-10.77,2-21.49,4.25-32.27,6.14C245.34,535.62,245,537.48,243.55,538Z" transform="translate(-198.13 -502.62)"/><path class="cls-8" d="M286.55,658.53c-3.07,4.55-6.15,9.09-9.2,13.65-.59.88-1.08,1.61-2.36,1.22-5.59-1.72-11.19-3.39-17.41-5.25l14.26-7.87-14.21-10h16.92L264.92,640l10.33,1.27c.16,0,.33.13.48.12,5.26-.53,7.4,2.34,8.27,7.1a85.66,85.66,0,0,0,2.65,9.06Z" transform="translate(-198.13 -502.62)"/><path class="cls-1" d="M286.55,658.53l.13-1,.57-.12,1.32,3.14Z" transform="translate(-198.13 -502.62)"/><path class="cls-1" d="M288.49,662c-.08.69.08,1.42-.43,2C288.09,663.36,287.82,662.61,288.49,662Z" transform="translate(-198.13 -502.62)"/><path class="cls-4" d="M229.62,549.84c.24.26.53.53-.06.73Z" transform="translate(-198.13 -502.62)"/><path class="cls-10" d="M260.64,547.61a6.11,6.11,0,0,1,6.11,6,6.5,6.5,0,0,1-6.64,6.34,6,6,0,0,1-5.93-6.07v0a6.32,6.32,0,0,1,6.39-6.25Zm-.51,9.85c2.14,0,4.44-1.86,4.42-3.61,0-1.46-.94-1.76-2.18-1.72-2.11.07-4.19,1.73-4.26,3.47-.08,1.43.7,1.93,2,1.86Z" transform="translate(-198.13 -502.62)"/><path class="cls-11" d="M251.55,604.07c-4.09-7-7.5-14.27-11-21.54V582c1.24,1,1.6,2.48,2.27,3.79,2.68,5.23,5.28,10.49,7.9,15.75A3.9,3.9,0,0,1,251.55,604.07Z" transform="translate(-198.13 -502.62)"/><path class="cls-9" d="M240.55,582v.55L231.1,564a2.69,2.69,0,0,1-.09-1A127.12,127.12,0,0,1,240.55,582Z" transform="translate(-198.13 -502.62)"/><path class="cls-9" d="M231,561a23.52,23.52,0,0,1,3.52-6.52A11.31,11.31,0,0,1,231,561Z" transform="translate(-198.13 -502.62)"/><path class="cls-11" d="M258,613.58c-1.39-1-3.35-1.33-3.51-3.51A5.27,5.27,0,0,1,258,613.58Z" transform="translate(-198.13 -502.62)"/><path class="cls-9" d="M237.55,549.06a17.2,17.2,0,0,1,3-5.53A8,8,0,0,1,237.55,549.06Z" transform="translate(-198.13 -502.62)"/><path class="cls-9" d="M234.55,554.55a17.61,17.61,0,0,1,3-5.53A8,8,0,0,1,234.55,554.55Z" transform="translate(-198.13 -502.62)"/><path class="cls-9" d="M240.55,543.55a16.65,16.65,0,0,1,3-5.52A8.78,8.78,0,0,1,240.55,543.55Z" transform="translate(-198.13 -502.62)"/><path class="cls-11" d="M253,607.07a5.4,5.4,0,0,1-1.51-3A3,3,0,0,1,253,607.07Z" transform="translate(-198.13 -502.62)"/><path class="cls-9" d="M231,563.08c-.9,0-1-.61-1-1.3s.53-.72,1-.75Z" transform="translate(-198.13 -502.62)"/><path class="cls-11" d="M262,618.08c-.65,0-.89-.46-1-1C261.74,617,262.08,617.36,262,618.08Z" transform="translate(-198.13 -502.62)"/><path class="cls-12" d="M265.55,622.07c-.57-.35-1.21-.64-1-1.51A1.35,1.35,0,0,1,265.55,622.07Z" transform="translate(-198.13 -502.62)"/><path class="cls-11" d="M254,609.07c-.5-.18-.51-.6-.52-1C254,608.22,254.08,608.63,254,609.07Z" transform="translate(-198.13 -502.62)"/><path class="cls-11" d="M259,615.07c-.37-.23-.77-.45-.54-1A.81.81,0,0,1,259,615.07Z" transform="translate(-198.13 -502.62)"/><path class="cls-12" d="M264,620.09c-.54.22-.76-.15-1-.54h.57Z" transform="translate(-198.13 -502.62)"/><path class="cls-11" d="M253.55,608.07a.86.86,0,0,1-.52-1C253.55,607.2,253.55,607.63,253.55,608.07Z" transform="translate(-198.13 -502.62)"/><path class="cls-12" d="M266.48,623.07l-.45-.52a.87.87,0,0,1,1,.5Z" transform="translate(-198.13 -502.62)"/><path class="cls-11" d="M254.55,610.07c-.47-.19-.5-.6-.5-1a.78.78,0,0,1,.51,1Z" transform="translate(-198.13 -502.62)"/><path class="cls-11" d="M258.55,614.08c-.44.1-.58-.11-.52-.52Z" transform="translate(-198.13 -502.62)"/><path class="cls-11" d="M259.55,615.57,259,615a.52.52,0,0,1,.52.52Z" transform="translate(-198.13 -502.62)"/><path class="cls-11" d="M260,616.07l-.52-.52a.51.51,0,0,1,.52.5S260.05,616.06,260,616.07Z" transform="translate(-198.13 -502.62)"/><path class="cls-11" d="M260.55,616.57,260,616a.52.52,0,0,1,.52.52Z" transform="translate(-198.13 -502.62)"/><path class="cls-11" d="M261,617.07l-.52-.52a.5.5,0,0,1,.52.48S261.05,617.06,261,617.07Z" transform="translate(-198.13 -502.62)"/><path class="cls-11" d="M262.55,618.58c-.38,0-.52-.17-.51-.51a.49.49,0,0,1,.51.47S262.55,618.57,262.55,618.58Z" transform="translate(-198.13 -502.62)"/><path class="cls-11" d="M263,619.08c-.41.07-.53-.15-.51-.52Z" transform="translate(-198.13 -502.62)"/><path class="cls-11" d="M263.63,619.52h-.57a2,2,0,0,1-.11-.32A.19.19,0,0,1,263,619Z" transform="translate(-198.13 -502.62)"/><path class="cls-12" d="M266,622.57l-.52-.52a.52.52,0,0,1,.52.52Z" transform="translate(-198.13 -502.62)"/><path class="cls-2" d="M266.48,623.07H267v.52Z" transform="translate(-198.13 -502.62)"/><path class="cls-12" d="M264.55,620.58c-.43.08-.59-.09-.51-.52Z" transform="translate(-198.13 -502.62)"/><path class="cls-5" d="M263,525.3l-.12.22-.33-.27.39-.19Z" transform="translate(-198.13 -502.62)"/><path class="cls-4" d="M240.27,534.65l.16.17c-.06,0-.13.14-.19.13s-.11-.1-.16-.16Z" transform="translate(-198.13 -502.62)"/><path class="cls-13" d="M260.12,557.46c-1.31.08-2.09-.43-2-1.85.08-1.74,2.15-3.41,4.26-3.47,1.24,0,2.16.26,2.18,1.72C264.55,555.6,262.26,557.47,260.12,557.46Z" transform="translate(-198.13 -502.62)"/></svg>