<svg id="Ebene_1" data-name="Ebene 1" xmlns="http://www.w3.org/2000/svg" viewBox="0 0 1080.09 810.09"><defs><style>.cls-1{fill:#fefefe;}.cls-2{fill:#273b3b;}.cls-3{fill:#374a46;}.cls-4{fill:#394b46;}.cls-5{fill:#394c47;}.cls-6{fill:#394c46;}.cls-7{fill:#3b4f49;}.cls-8{fill:#019388;}.cls-9{fill:#7ce0c2;}.cls-10{fill:#315653;}.cls-11{fill:#f5c213;}.cls-12{fill:#2a5251;}.cls-13{fill:#325a58;}.cls-14{fill:#1a1503;}</style></defs><title>seahorse green</title><path class="cls-1" d="M1151.5,847.91q-268.87,0-537.75,0c-1.87,0-2.3-.42-2.3-2.3q.07-402.75,0-805.5c0-1.87.42-2.3,2.3-2.3q537.75.07,1075.5,0c1.87,0,2.3.42,2.3,2.3q-.07,402.75,0,805.5c0,1.87-.42,2.3-2.3,2.3Q1420.38,847.88,1151.5,847.91ZM840.61,588.41c-.53.8-1.78.5-2.23,1.45-.94.52-1.89,1-2.81,1.57-8.53,5.08-16.57,11-25.45,15.47a1,1,0,0,0-.59,1c0,.54.36.59.81.69,9.94,2.26,19.39,6.11,29.15,9,1.32.39,1,1,.29,1.68-.54.52-1,1.08-1.54,1.63-4.47,4.81-8.94,9.61-13.38,14.45-.61.66-2.06,1.53,0,2.21.15.19.25.46.44.54,7.25,3.07,14.44,6.3,21.84,9,2,.85,3.91,1.78,5.92,2.53a1.64,1.64,0,0,1,1.32,1.75c.15,8.41.36,16.81.56,25.22,0,.56-.53,1.24,0,1.64s1.2-.27,1.74-.59c7.13-4.26,14.28-8.49,21.34-12.85,1.37-.85,2.06-.75,3.09.41,3.48,3.92,7.09,7.73,10.61,11.61.5.56,1.4,1,1.14,2.16-.91-.07-1.81-.09-2.71-.21-4.2-.55-8.41-1.11-12.61-1.71-1-.14-2-.16-2.41.76s.61,1.24,1.1,1.74c1.23,1.24,2.56,2.39,3.76,3.65s2.76,2,3.54,3.83c-4.47,0-8.7,0-12.93,0-1,0-2.66-.56-3,.46s1.24,1.72,2.14,2.37c3.77,2.7,7.56,5.36,11.59,8.21-4.08,2.24-7.85,4.29-11.6,6.38-1.12.62-2.17,1.2-3.49.52-.39-.2-1.07-.4-1.32.18s.38.73.82.94,1.1.8,1.7.9c6.42,1,12.45,3.44,18.64,5.26,1.66.49,2.12.16,2.87-1q3.62-5.53,7.35-11c.56-.82.85-2,2-2.35.83,1.35.2,2.74.5,4l0,1.17a17.59,17.59,0,0,0-.37,5.79q-.54,13.23-1.07,26.46c0,.67.21,1.68-.13,1.94-1.78,1.36-.41,2.16.39,3.07Q920,765.7,942.31,791c1.66,1.88,3.16,3.32,6.16,3.87,12.34,2.23,24.55,5.17,36.79,7.94a3.64,3.64,0,0,0,4.05-1.4c8.08-9.2,16.25-18.32,24.39-27.47.44-.5.91-1.34,1.39-1.36,1.61-.07,1.35-1,1.29-2-.68-12.06-1.44-24.11-1.94-36.17a3.43,3.43,0,0,0-2.35-3.43c-7.88-3.93-15.81-7.77-23.53-12a4.88,4.88,0,0,0-5.36,0c-4.49,2.35-9,4.56-13.57,6.83-1.19.59-2.61.95-3.51,1.83-1.18,1.16.25,2.53.38,3.81.74,6.78,1.72,13.53,2.62,20.29.08.57.09,1.18.65,1.56a39.39,39.39,0,0,1,8.25-3.25c.85-.18,1.23-.76,1-1.4-.87-2.5-.47-5.11-.79-7.66-.68-5.48-.59-5.49,4.79-6.23l.74-.13a4,4,0,0,1,4.12,1.64q4.77,6.25,9.71,12.38a2.8,2.8,0,0,1,.52,3.14c-2,5.38-3.84,10.79-5.63,16.23a4.45,4.45,0,0,1-1.92,2.46q-8.62,5.74-17.18,11.56a3.3,3.3,0,0,1-3.23.44c-8-2.63-16.13-5.17-24.2-7.72a4.65,4.65,0,0,1-2.56-1.83Q935,761,926.47,749.15a3.5,3.5,0,0,1-.6-3c1-5.31,1.86-10.65,2.73-16a3.34,3.34,0,0,1,2.05-2.8c4.35-2.07,8.61-4.32,12.94-6.44a2.25,2.25,0,0,0,1.48-2.21c.45-6.73,1-13.45,1.65-20.16.37-4,1.53-8,1.17-11.81-.37-3.93-3-7.64-4.68-11.45-2-4.65-4.54-9.16-5.86-14-.83-3-2.63-3.41-4.82-4.1-9.18-2.92-18.34-5.89-27.52-8.81a8.5,8.5,0,0,1-3.24-1.78q-8.61-7.8-17.26-15.56c-.55-.5-1.24-.94-1.26-1.77-.07-3.05-.94-6-1.37-9-1-7.08.51-13.44,3.57-19.71,1.79-3.66,2.21-4.21,6.3-4.17q20.24.23,40.48.5a6,6,0,0,1,2.2.3q9.51,3.71,19.06,7.34c1.08.41,1.54.82,1.19,2.14-.6,2.33-.84,4.75-1.34,7.11-.25,1.19-.29,1.61,1.28,1.78a22.21,22.21,0,0,1,7.93,1.94c2,1.05,1.79.42,2.06-1.06q2.34-12.88,4.85-25.73c.29-1.5.13-1.94-1.51-1.73a16.89,16.89,0,0,1-3.73-.27c-2-.19-4.39-1.17-5.94-.42-1.86.9-1.72,3.76-2.37,5.79-.41,1.28-.77,1.87-2.37,1.33-4.87-1.65-9.81-3.09-14.75-4.55a1.57,1.57,0,0,1-1.06-.89c-1.58-3.19-3.67-6.08-5-9.44-.53-1.35-.52-3.28-2.6-3.91-6.44-2-12.82-4.09-19.23-6.13-2.31-.73-4.78-1.16-5.84-3.78a3.12,3.12,0,0,0-.23-.7c-5-8.12-10.63-15.86-14.59-24.59-.91-2-1.45-.43-1.94.27-4,5.73-8,11.41-11.86,17.25-1.33,2-2.06,1.79-3.56.26-4-4-8.07-7.93-12.15-11.85-.64-.61-1.13-1.49-2.2-1.48-.36-.85-.7-.86-1,0l-.84,2.53c-2,6.75-4.17,13.48-6.09,20.26-.57,2-1.15,2-2.76,1-6.06-3.78-12.21-7.42-18.33-11.1-.61-.37-1.22-1-2-.42s-.22,1.22,0,1.77q6.36,13.78,12.75,27.55Z" transform="translate(-611.45 -37.86)"/><path class="cls-2" d="M898.92,703.11l0-1.17h.64c-.35,11.72-.66,23.45-1.11,35.17a6.29,6.29,0,0,0,1.75,4.71q7.61,8.59,15.19,17.21,14.34,16.3,28.67,32.6a4.33,4.33,0,0,0,2.34,1.75c12.65,2.68,25.31,5.33,37.92,8.19a4.42,4.42,0,0,0,5-1.58c7.26-8.24,14.68-16.33,21.88-24.62,2.13-2.45,4.64-4.37,4.13-8.83-1.21-10.55-1.29-21.22-1.76-31.85a2.8,2.8,0,0,0-1.7-2.73q-12.37-6.24-24.69-12.58a2.5,2.5,0,0,0-2.56,0q-8.13,4.11-16.31,8.12a2,2,0,0,0-1.19,2.4c.82,5.41,1.63,10.82,2.37,16.23a30.77,30.77,0,0,0,.95,5.54c1.77-.67,3.51-1.46,5.32-2,1.63-.47,2-1.43,1.87-3-.25-2.9-.37-5.8-.56-8.7-.07-1.14-.67-2.84-.15-3.3.79-.69,2.34-.5,3.55-.73,4.07-.75,7.49-.83,10,3.75,2.1,3.89,5.38,7.15,8.28,10.58a2.72,2.72,0,0,1,.61,3.09c-1.78,4.92-4.13,9.77-5,14.86-.59,3.6-2.85,4.6-5.08,6.29-5.28,4-11.48,6.66-16.09,11.57-.39.41-.94.27-1.41.09-8.78-3.32-17.84-5.8-26.74-8.76a3.76,3.76,0,0,1-2-1.4l-17.72-25a2.15,2.15,0,0,1-.62-1.78c1.14-6.19,2.26-12.39,3.29-18.6.18-1.11.77-1.39,1.67-1.82,4.28-2,8.5-4.21,12.74-6.33.85-.42,1.57-.89,1.65-2,.12-1.57.34-3.13.48-4.7.65-7.27,1.32-14.54,1.92-21.82.28-3.45.35-6.76-1.3-10.15-3.34-6.87-6.21-14-9.14-21a3.66,3.66,0,0,0-2.53-2.36c-10-3.13-19.95-6.32-29.93-9.46a4.24,4.24,0,0,1-2-1c-5.51-5.67-11.61-10.7-17.49-16a7.08,7.08,0,0,1-2.61-5.32c-.18-3.73-.72-7.44-.78-11.17,0-1.78-1.41-3.29-.33-5.37a104.76,104.76,0,0,0,4.72-11.26,4.86,4.86,0,0,1,5.24-3.53c14.32.24,28.64.37,43,.54a4.08,4.08,0,0,1,1.71.17c6.23,3.19,13,5.14,19.41,7.8,1.35.55,2.19.82,1.33,2.69s-.84,3.87-1.22,5.82c-.26,1.36.15,2.23,1.64,2.5a45.56,45.56,0,0,1,5.58,1.24c1.49.47,2-.12,2.22-1.41,1.4-7.66,2.75-15.34,4.24-23,.28-1.46-.21-1.75-1.45-1.84-2.32-.18-4.64-.36-6.93-.73-1-.16-1.44.18-1.66,1-.66,2.35-2,4.52-1.55,7.26-3.87-1.24-7.56-2.45-11.27-3.6-1.65-.51-3.37-1.31-5-1.22a3,3,0,0,1-3.16-1.71c-2.05-3.62-4.29-7.15-6.07-10.89a5.23,5.23,0,0,0-3.49-3.06c-7.57-2.44-15.12-5-22.67-7.48q0-.31,0-.63l-.11-1.2.22-.88c1.06,2.63,3.54,3.05,5.84,3.78,6.41,2,12.79,4.17,19.23,6.13,2.07.63,2.06,2.56,2.6,3.91,1.32,3.35,3.42,6.25,5,9.44a1.57,1.57,0,0,0,1.06.89c4.93,1.46,9.88,2.9,14.75,4.55,1.6.54,2-.05,2.37-1.33.66-2,.51-4.89,2.37-5.79,1.55-.75,3.93.22,5.94.42A16.89,16.89,0,0,0,968,589c1.63-.21,1.8.23,1.51,1.73q-2.52,12.85-4.85,25.73c-.27,1.48-.07,2.11-2.06,1.06a22.21,22.21,0,0,0-7.93-1.94c-1.57-.17-1.53-.59-1.28-1.78.5-2.36.74-4.78,1.34-7.11.34-1.32-.11-1.73-1.19-2.14q-9.55-3.62-19.06-7.34a6,6,0,0,0-2.2-.3q-20.24-.26-40.48-.5c-4.09,0-4.51.51-6.3,4.17-3.06,6.27-4.6,12.63-3.57,19.71.43,3,1.3,5.94,1.37,9,0,.83.71,1.27,1.26,1.77q8.63,7.78,17.26,15.56a8.5,8.5,0,0,0,3.24,1.78c9.18,2.92,18.34,5.89,27.52,8.81,2.19.7,4,1.07,4.82,4.1,1.32,4.84,3.84,9.35,5.86,14,1.65,3.81,4.31,7.52,4.68,11.45.36,3.76-.8,7.85-1.17,11.81-.63,6.71-1.2,13.43-1.65,20.16a2.25,2.25,0,0,1-1.48,2.21c-4.32,2.13-8.59,4.38-12.94,6.44a3.34,3.34,0,0,0-2.05,2.8c-.87,5.33-1.75,10.67-2.73,16a3.5,3.5,0,0,0,.6,3Q935,761,943.41,773a4.65,4.65,0,0,0,2.56,1.83c8.07,2.55,16.16,5.09,24.2,7.72a3.3,3.3,0,0,0,3.23-.44q8.56-5.83,17.18-11.56a4.45,4.45,0,0,0,1.92-2.46c1.8-5.44,3.66-10.86,5.63-16.23a2.8,2.8,0,0,0-.52-3.14q-4.94-6.13-9.71-12.38a4,4,0,0,0-4.12-1.64l-.74.13c-5.39.74-5.48.75-4.79,6.23.32,2.55-.08,5.16.79,7.66.22.64-.16,1.22-1,1.4a39.38,39.38,0,0,0-8.25,3.25c-.56-.38-.57-1-.65-1.56-.9-6.76-1.88-13.52-2.62-20.29-.14-1.28-1.57-2.65-.38-3.81.9-.88,2.32-1.24,3.51-1.83,4.53-2.27,9.08-4.48,13.57-6.83a4.88,4.88,0,0,1,5.36,0c7.72,4.23,15.65,8.07,23.53,12a3.43,3.43,0,0,1,2.35,3.43c.5,12.06,1.26,24.12,1.94,36.17.06,1,.31,2-1.29,2-.48,0-.95.86-1.39,1.36-8.14,9.14-16.31,18.27-24.39,27.47a3.64,3.64,0,0,1-4.05,1.4c-12.24-2.77-24.45-5.71-36.79-7.94-3-.54-4.51-2-6.16-3.87q-22.3-25.31-44.58-50.64c-.8-.91-2.17-1.71-.39-3.07.34-.26.11-1.27.13-1.94q.54-13.23,1.07-26.46C899.42,707,898.9,705,898.92,703.11Z" transform="translate(-611.45 -37.86)"/><path class="cls-3" d="M899.53,701.94h-.64c-.3-1.29.33-2.67-.5-4-1.12.39-1.4,1.52-2,2.35q-3.73,5.46-7.35,11c-.74,1.14-1.2,1.46-2.87,1C880,710.41,874,708,867.57,707c-.6-.09-1.12-.62-1.7-.9s-1.12-.26-.82-.94.93-.38,1.32-.18c1.32.68,2.38.11,3.49-.52,3.75-2.09,7.51-4.14,11.6-6.38-4-2.85-7.83-5.51-11.59-8.21-.9-.65-2.49-1.25-2.14-2.37s1.94-.44,3-.46c4.23-.06,8.46,0,12.93,0-.78-1.82-2.39-2.62-3.54-3.83s-2.53-2.41-3.76-3.65c-.49-.5-1.5-.89-1.1-1.74s1.45-.9,2.41-.76c4.2.59,8.4,1.15,12.61,1.71.9.12,1.8.14,2.71.21.26-1.18-.64-1.6-1.14-2.16-3.52-3.89-7.13-7.69-10.61-11.61-1-1.16-1.72-1.26-3.09-.41-7.06,4.37-14.22,8.59-21.34,12.85-.54.32-1,1.07-1.74.59s0-1.08,0-1.64c-.2-8.41-.41-16.81-.56-25.22a1.64,1.64,0,0,0-1.32-1.75c-2-.75-3.95-1.67-5.92-2.53l1-.26c2,.61,3.76,1.91,5.64,2.4,1.72.45,1.54,1.19,1.55,2.26,0,3.33,0,6.66.12,10,.15,5,.38,10.05.57,15,.3,0,.39.07.45,0,7.39-4.26,14.72-8.61,21.9-13.23,1.14-.73-.08-1.26,0-1.88,1.89.44,2.61,2.12,3.76,3.4,4,4.51,8.18,8.91,12.27,13.36.52.57,1.5,1.21.6,2.05s-.4,1.45-.17,2.23q1.89,6.41,3.74,12.84l-.57.12a85.64,85.64,0,0,1-2.65-9.06c-.87-4.76-3-7.64-8.27-7.1-.15,0-.32-.1-.48-.12l-10.33-1.27L886,688.14H869l14.21,10L869,706c6.21,1.87,11.82,3.53,17.41,5.25,1.28.4,1.78-.34,2.36-1.22,3-4.56,6.13-9.1,9.2-13.65l2,2,0,1.46c-.68.56-.41,1.32-.43,2Z" transform="translate(-611.45 -37.86)"/><path class="cls-4" d="M824.91,637.5c-2.1-.68-.65-1.55,0-2.21,4.44-4.84,8.92-9.64,13.38-14.45.51-.55,1-1.11,1.54-1.63.75-.73,1-1.3-.29-1.68-9.76-2.85-19.21-6.7-29.15-9-.45-.1-.8-.15-.81-.69a1,1,0,0,1,.59-1c8.88-4.5,16.92-10.4,25.45-15.47.92-.55,1.87-1,2.81-1.57l.62.42-27.33,17.3,30.89,10c-4.72,5.08-9.31,9.9-13.75,14.84-1.4,1.56-3.38,2.73-3.83,5Z" transform="translate(-611.45 -37.86)"/><path class="cls-5" d="M840.23,587.5q-6.38-13.77-12.75-27.55c-.25-.55-.83-1.18,0-1.77s1.42.05,2,.42c6.12,3.68,12.27,7.32,18.33,11.1,1.61,1,2.2,1,2.76-1,1.92-6.79,4-13.51,6.09-20.26l.71.47c-.55,1.91-1.16,3.8-1.65,5.73-1.45,5.76-3.9,11.25-4.68,17.19a.83.83,0,0,1-.45.76c-.44.23-.78.23-1-.3-.24-.69-.88-1-1.43-1.32q-9.17-5.54-18.37-11c-.38-.23-.75-.76-1.32-.12L841,587.41Z" transform="translate(-611.45 -37.86)"/><path class="cls-6" d="M857.38,548.91l-.71-.47.84-2.53,1,0c1.07,0,1.57.87,2.2,1.48,4.08,3.92,8.19,7.81,12.15,11.85,1.5,1.53,2.23,1.78,3.56-.26,3.82-5.84,7.87-11.52,11.86-17.25.49-.7,1-2.27,1.94-.27,4,8.73,9.59,16.47,14.59,24.59a3.12,3.12,0,0,1,.23.7l-.22.88c-2.83-4.4-5.74-8.75-8.45-13.21-2.09-3.44-4.75-6.55-6-10.51-.78-2.43-1.78-1-2.58.17l-13.3,19.24L858.33,546Z" transform="translate(-611.45 -37.86)"/><path class="cls-7" d="M848.21,646.79l-1,.26c-7.4-2.71-14.58-5.95-21.84-9-.19-.08-.3-.36-.44-.54l.07-.07a2.49,2.49,0,0,1,1.68.21Z" transform="translate(-611.45 -37.86)"/><path class="cls-3" d="M898.92,703.11c0,1.94.5,3.91-.37,5.79A17.59,17.59,0,0,1,898.92,703.11Z" transform="translate(-611.45 -37.86)"/><path class="cls-5" d="M839,590.28l-.61-.42c.44-.94,1.69-.65,2.23-1.45l.42,0A4.56,4.56,0,0,1,839,590.28Z" transform="translate(-611.45 -37.86)"/><path class="cls-5" d="M858.54,545.89l-1,0C857.83,545,858.18,545,858.54,545.89Z" transform="translate(-611.45 -37.86)"/><path class="cls-4" d="M841,588.43l-.42,0-.37-.91.76-.09a.27.27,0,0,1,.08.29l-.06.73Z" transform="translate(-611.45 -37.86)"/><path class="cls-8" d="M898.65,695.3q-1.87-6.42-3.74-12.84c-.23-.77-.68-1.43.17-2.23s-.08-1.48-.6-2.05c-4.09-4.45-8.24-8.85-12.27-13.36-1.15-1.29-1.87-3-3.76-3.4l0,0v-.52a.87.87,0,0,0-1-.5h0a.52.52,0,0,0-.52-.52l0,0a1.35,1.35,0,0,0-1-1.51l0,0-.51-.52v0l-.4-.57-.62-.46,0,0-.51-.52h0a.49.49,0,0,0-.51-.51h0c0-.71-.29-1.05-1-1h0a.5.5,0,0,0-.52-.52l0,0a.52.52,0,0,0-.52-.52l0,0a.51.51,0,0,0-.52-.52l0,0a.52.52,0,0,0-.52-.53l0,0a.81.81,0,0,0-.54-1l0,0-.52-.52v0a5.27,5.27,0,0,0-3.51-3.51h0a.78.78,0,0,0-.5-1l0,0c0-.45,0-.85-.52-1l0,0c0-.45,0-.87-.52-1v0a3,3,0,0,0-1.51-3v0a3.9,3.9,0,0,0-.77-2.55c-2.62-5.26-5.23-10.52-7.9-15.75-.67-1.3-1-2.82-2.27-3.79a127.12,127.12,0,0,0-9.58-18.92v-2a11.31,11.31,0,0,0,3.52-6.52l0,0a8,8,0,0,0,3-5.53l0,0a8,8,0,0,0,3-5.53l0,0a8.78,8.78,0,0,0,3-5.52l0,0c1.51-.57,1.82-2.43,3.84-2.78,10.78-1.89,21.5-4.14,32.27-6.14,1.14-.21,2.29-.69,3.63-.27,3.36,1.05,6.81,1.84,10.22,2.73,7.55,2.5,15.1,5,22.67,7.48A5.23,5.23,0,0,1,931.1,580c1.78,3.75,4,7.28,6.07,10.89a3,3,0,0,0,3.16,1.71c1.64-.09,3.36.71,5,1.22,3.71,1.15,7.4,2.36,11.27,3.6-.48-2.74.89-4.92,1.55-7.26.22-.8.67-1.14,1.66-1,2.29.36,4.61.55,6.93.73,1.24.09,1.73.38,1.45,1.84-1.49,7.65-2.84,15.32-4.24,23-.23,1.29-.73,1.88-2.22,1.41a45.56,45.56,0,0,0-5.58-1.24c-1.49-.27-1.9-1.14-1.64-2.5.37-2,.41-4.06,1.22-5.82s0-2.13-1.33-2.69c-6.44-2.66-13.17-4.61-19.41-7.8a4.08,4.08,0,0,0-1.71-.17c-14.32-.17-28.64-.3-43-.54a4.86,4.86,0,0,0-5.24,3.53,104.76,104.76,0,0,1-4.72,11.26c-1.07,2.07.3,3.59.33,5.37.06,3.73.59,7.44.78,11.17a7.08,7.08,0,0,0,2.61,5.32c5.87,5.27,12,10.3,17.49,16a4.24,4.24,0,0,0,2,1c10,3.15,19.95,6.33,29.93,9.46a3.66,3.66,0,0,1,2.53,2.36c2.93,7.06,5.8,14.17,9.14,21,1.65,3.39,1.58,6.69,1.3,10.15-.6,7.28-1.27,14.55-1.92,21.82-.14,1.57-.36,3.13-.48,4.7-.08,1.09-.81,1.56-1.65,2-4.24,2.12-8.46,4.3-12.74,6.33-.9.43-1.49.71-1.67,1.82-1,6.21-2.15,12.41-3.29,18.6a2.15,2.15,0,0,0,.62,1.78l17.72,25a3.76,3.76,0,0,0,2,1.4c8.9,3,18,5.44,26.74,8.76.47.18,1,.32,1.41-.09,4.61-4.9,10.81-7.59,16.09-11.57,2.23-1.68,4.49-2.68,5.08-6.29.84-5.09,3.19-9.93,5-14.86a2.72,2.72,0,0,0-.61-3.09c-2.9-3.42-6.19-6.69-8.28-10.58-2.47-4.58-5.89-4.5-10-3.75-1.22.22-2.77,0-3.55.73-.52.45.08,2.15.15,3.3.19,2.9.31,5.81.56,8.7.13,1.54-.24,2.5-1.87,3-1.81.52-3.55,1.31-5.32,2a30.77,30.77,0,0,1-.95-5.54c-.74-5.42-1.54-10.83-2.37-16.23a2,2,0,0,1,1.19-2.4q8.18-4,16.31-8.12a2.5,2.5,0,0,1,2.56,0q12.32,6.35,24.69,12.58a2.8,2.8,0,0,1,1.7,2.73c.47,10.63.55,21.3,1.76,31.85.51,4.46-2,6.38-4.13,8.83-7.2,8.29-14.62,16.39-21.88,24.62a4.42,4.42,0,0,1-5,1.58c-12.61-2.86-25.27-5.51-37.92-8.19a4.33,4.33,0,0,1-2.34-1.75q-14.35-16.29-28.67-32.6-7.58-8.62-15.19-17.21a6.29,6.29,0,0,1-1.75-4.71c.45-11.72.75-23.45,1.11-35.17h0c.51-.59.35-1.33.43-2l0-1.46ZM872.09,585.47a6.32,6.32,0,0,0-6.46,6.22,6,6,0,0,0,5.93,6.09,6.5,6.5,0,0,0,6.64-6.34A6.11,6.11,0,0,0,872.09,585.47Z" transform="translate(-611.45 -37.86)"/><path class="cls-9" d="M841.07,587.7a.27.27,0,0,0-.08-.29l-12.48-27.6c.56-.64.94-.11,1.32.12q9.19,5.5,18.37,11c.55.33,1.19.63,1.43,1.32.19.53.53.54,1,.3a.83.83,0,0,0,.45-.76c.78-5.94,3.23-11.43,4.68-17.19.49-1.93,1.1-3.82,1.65-5.73l.95-2.95,16.17,17.35,13.3-19.24c.8-1.15,1.79-2.6,2.58-.17,1.28,4,3.93,7.06,6,10.51,2.71,4.47,5.63,8.81,8.45,13.21l.11,1.2c-3.14-1-6.29-2-9.4-3.12a3.36,3.36,0,0,0-2.17-.25c-5.2,1.78-10.64,2.48-16,3.36-6.8,1.12-13.39,3.63-20.43,3.28-.27,0-.67.47-.85.81a7.25,7.25,0,0,0-1.12,3l0,0a16.65,16.65,0,0,0-3,5.52l0,0a17.2,17.2,0,0,0-3,5.53l0,0a17.61,17.61,0,0,0-3,5.53l0,0a23.52,23.52,0,0,0-3.52,6.52v0c-.51,0-1,.1-1,.75s.11,1.31,1,1.3v0a2.69,2.69,0,0,0,.09,1q4.71,9.27,9.45,18.51c3.48,7.27,6.89,14.58,11,21.54v0a5.4,5.4,0,0,0,1.51,3v0c0,.44,0,.84.52,1l0,0c0,.43,0,.85.52,1l0,0c0,.42,0,.83.5,1h0c.15,2.18,2.12,2.56,3.51,3.51v0c-.06.41.07.62.52.52l0,0c-.23.55.16.78.54,1l0,0,.52.53,0,0,.52.52,0,0,.52.52,0,0,.52.52h0c.12.55.36,1,1,1h0c0,.35.13.55.51.51h0c0,.36.1.59.51.52l0,0c0,.06-.08.12-.07.17a2,2,0,0,0,.11.32c.21.39.43.75,1,.54v0c-.08.42.09.6.51.52l0,0c-.18.86.46,1.16,1,1.51l0,0,.52.52h0l.45.52.55.5,0,0c-.09.62,1.13,1.15,0,1.88-7.17,4.62-14.51,9-21.9,13.23-.06,0-.15,0-.45,0-.19-5-.42-10-.57-15-.1-3.33-.07-6.66-.12-10,0-1.08.17-1.81-1.55-2.26-1.88-.5-3.66-1.79-5.64-2.4l-21.55-9.15a2.49,2.49,0,0,0-1.68-.21c.46-2.29,2.43-3.47,3.83-5,4.44-4.94,9-9.76,13.75-14.84l-30.89-10L839,590.28a4.56,4.56,0,0,0,2-1.86h0C841.6,588.24,841.31,588,841.07,587.7Zm33.37-24.55-.06-.24-.39.19.33.27Zm-22.72,9.35-.19.14c.05.06.1.16.16.16s.12-.08.19-.13Z" transform="translate(-611.45 -37.86)"/><path class="cls-10" d="M855,575.91a7.25,7.25,0,0,1,1.12-3c.17-.34.57-.82.85-.81,7,.35,13.63-2.16,20.43-3.28,5.37-.89,10.8-1.59,16-3.36a3.36,3.36,0,0,1,2.17.25c3.11,1.1,6.27,2.09,9.4,3.12q0,.31,0,.63c-3.41-.89-6.86-1.68-10.22-2.73-1.34-.42-2.49.06-3.63.27-10.77,2-21.49,4.25-32.27,6.14C856.79,573.48,856.49,575.34,855,575.91Z" transform="translate(-611.45 -37.86)"/><path class="cls-9" d="M898,696.39c-3.07,4.55-6.15,9.09-9.2,13.65-.59.88-1.08,1.61-2.36,1.22-5.59-1.72-11.19-3.39-17.41-5.25l14.26-7.87-14.21-10H886l-9.63-10.27,10.33,1.27c.16,0,.33.13.48.12,5.26-.53,7.4,2.34,8.27,7.1a85.65,85.65,0,0,0,2.65,9.06Z" transform="translate(-611.45 -37.86)"/><path class="cls-2" d="M898,696.39l.13-1,.57-.12,1.32,3.14Z" transform="translate(-611.45 -37.86)"/><path class="cls-2" d="M899.94,699.91c-.08.69.08,1.42-.43,2C899.54,701.22,899.27,700.47,899.94,699.91Z" transform="translate(-611.45 -37.86)"/><path class="cls-5" d="M841.07,587.7c.24.26.53.53-.06.73Z" transform="translate(-611.45 -37.86)"/><path class="cls-11" d="M872.09,585.47a6.11,6.11,0,0,1,6.11,6,6.5,6.5,0,0,1-6.64,6.34,6,6,0,0,1-5.93-6.09A6.32,6.32,0,0,1,872.09,585.47Zm-.51,9.85c2.14,0,4.44-1.86,4.42-3.61,0-1.46-.94-1.76-2.18-1.72-2.11.07-4.19,1.73-4.26,3.47C869.48,594.89,870.26,595.39,871.57,595.32Z" transform="translate(-611.45 -37.86)"/><path class="cls-12" d="M863,641.93c-4.09-7-7.5-14.27-11-21.54l0-.55c1.24,1,1.6,2.48,2.27,3.79,2.68,5.23,5.28,10.49,7.9,15.75A3.9,3.9,0,0,1,863,641.93Z" transform="translate(-611.45 -37.86)"/><path class="cls-10" d="M852,619.84l0,.55q-4.73-9.25-9.45-18.51a2.69,2.69,0,0,1-.09-1A127.12,127.12,0,0,1,852,619.84Z" transform="translate(-611.45 -37.86)"/><path class="cls-10" d="M842.48,598.91a23.52,23.52,0,0,1,3.52-6.52A11.31,11.31,0,0,1,842.48,598.91Z" transform="translate(-611.45 -37.86)"/><path class="cls-12" d="M869.48,651.44c-1.39-1-3.35-1.33-3.51-3.51A5.27,5.27,0,0,1,869.48,651.44Z" transform="translate(-611.45 -37.86)"/><path class="cls-10" d="M849,586.92a17.2,17.2,0,0,1,3-5.53A8,8,0,0,1,849,586.92Z" transform="translate(-611.45 -37.86)"/><path class="cls-10" d="M846,592.41a17.61,17.61,0,0,1,3-5.53A8,8,0,0,1,846,592.41Z" transform="translate(-611.45 -37.86)"/><path class="cls-10" d="M852,581.41a16.65,16.65,0,0,1,3-5.52A8.78,8.78,0,0,1,852,581.41Z" transform="translate(-611.45 -37.86)"/><path class="cls-12" d="M864.49,644.93a5.4,5.4,0,0,1-1.51-3A3,3,0,0,1,864.49,644.93Z" transform="translate(-611.45 -37.86)"/><path class="cls-10" d="M842.47,600.94c-.9,0-1-.61-1-1.3s.53-.72,1-.75Z" transform="translate(-611.45 -37.86)"/><path class="cls-12" d="M873.48,655.94c-.65,0-.89-.46-1-1C873.19,654.88,873.53,655.22,873.48,655.94Z" transform="translate(-611.45 -37.86)"/><path class="cls-13" d="M877,659.93c-.57-.35-1.21-.64-1-1.51A1.35,1.35,0,0,1,877,659.93Z" transform="translate(-611.45 -37.86)"/><path class="cls-12" d="M865.49,646.93c-.5-.18-.51-.6-.52-1C865.49,646.08,865.53,646.49,865.49,646.93Z" transform="translate(-611.45 -37.86)"/><path class="cls-12" d="M870.5,652.93c-.37-.23-.77-.45-.54-1A.81.81,0,0,1,870.5,652.93Z" transform="translate(-611.45 -37.86)"/><path class="cls-13" d="M875.48,657.95c-.54.22-.76-.15-1-.54l.57,0Z" transform="translate(-611.45 -37.86)"/><path class="cls-12" d="M865,645.93c-.48-.18-.55-.58-.52-1C865,645.06,865,645.49,865,645.93Z" transform="translate(-611.45 -37.86)"/><path class="cls-13" d="M877.93,660.93l-.45-.52a.87.87,0,0,1,1,.5Z" transform="translate(-611.45 -37.86)"/><path class="cls-12" d="M866,647.93c-.47-.19-.5-.6-.5-1A.78.78,0,0,1,866,647.93Z" transform="translate(-611.45 -37.86)"/><path class="cls-12" d="M870,651.94c-.44.1-.58-.11-.52-.52Z" transform="translate(-611.45 -37.86)"/><path class="cls-12" d="M871,653.43l-.52-.53A.52.52,0,0,1,871,653.43Z" transform="translate(-611.45 -37.86)"/><path class="cls-12" d="M871.5,653.93l-.52-.52A.51.51,0,0,1,871.5,653.93Z" transform="translate(-611.45 -37.86)"/><path class="cls-12" d="M872,654.43l-.52-.52A.52.52,0,0,1,872,654.43Z" transform="translate(-611.45 -37.86)"/><path class="cls-12" d="M872.5,654.93l-.52-.52A.5.5,0,0,1,872.5,654.93Z" transform="translate(-611.45 -37.86)"/><path class="cls-12" d="M874,656.44c-.38,0-.52-.17-.51-.51A.49.49,0,0,1,874,656.44Z" transform="translate(-611.45 -37.86)"/><path class="cls-12" d="M874.49,656.94c-.41.07-.53-.15-.51-.52Z" transform="translate(-611.45 -37.86)"/><path class="cls-12" d="M875.08,657.38l-.57,0a2,2,0,0,1-.11-.32c0-.05,0-.11.07-.17Z" transform="translate(-611.45 -37.86)"/><path class="cls-13" d="M877.5,660.43l-.52-.52A.52.52,0,0,1,877.5,660.43Z" transform="translate(-611.45 -37.86)"/><path class="cls-3" d="M877.93,660.93l.56,0v.52Z" transform="translate(-611.45 -37.86)"/><path class="cls-13" d="M876,658.44c-.43.08-.59-.09-.51-.52Z" transform="translate(-611.45 -37.86)"/><path class="cls-6" d="M874.44,563.16l-.12.22-.33-.27.39-.19Z" transform="translate(-611.45 -37.86)"/><path class="cls-5" d="M851.72,572.51l.16.17c-.06,0-.13.14-.19.13s-.11-.1-.16-.16Z" transform="translate(-611.45 -37.86)"/><path class="cls-14" d="M871.57,595.32c-1.31.08-2.09-.43-2-1.85.08-1.74,2.15-3.41,4.26-3.47,1.24,0,2.16.26,2.18,1.72C876,593.46,873.71,595.33,871.57,595.32Z" transform="translate(-611.45 -37.86)"/></svg>