<svg id="Ebene_1" data-name="Ebene 1" xmlns="http://www.w3.org/2000/svg" viewBox="0 0 206.87 262.47"><defs><style>.cls-1{fill:#019388;}.cls-2{fill:#7ce0c2;}</style></defs><title>seahorse_green</title><path class="cls-1" d="M898.11,697.71c-3,4.49-5.93,8.81-8.78,13.18-.88,1.35-1.42,1.88-3.43,1.27-6.09-1.87-12.06-4.22-18.41-5.21-.94-.14-1.77-1-3.13-1.79,7.14.38,11.21-4.93,17.31-6.88l-14.4-10.4.29-.7c5.25-.51,10.55.13,16-.19-.38-1.5-1.66-2.09-2.53-3-1.52-1.55-3.14-3-4.68-4.51-.5-.49-1.5-.9-1.1-1.74s1.45-.9,2.42-.76q6.3.89,12.62,1.7c.89.12,1.8.15,2.66.22.31-1-.4-1.38-.81-1.83-3.65-4-7.37-7.94-11-12-1.09-1.23-1.82-1.1-3.1-.31-7.08,4.35-14.24,8.59-21.37,12.86-.48.29-.91.89-1.54.59s-.16-1-.17-1.56q-.3-12.62-.56-25.24a1.68,1.68,0,0,0-1.25-1.8c-8.61-3.52-17.19-7.12-25.78-10.69-.54-.22-1.08-.42-1.62-.65-1.8-.79-2.39-1.6-.69-3.36,5.25-5.44,10.33-11.05,15.79-16.93L834,615.82c-7.19-2.32-14.41-4.57-21.55-7-1-.34-2.69.61-2.88-1s1.62-1,2.46-1.56q13.66-8.74,27.48-17.23c1.55-1,.44-1.73.12-2.44-3.9-8.63-7.88-17.23-11.8-25.85-.34-.75-1.38-1.58-.48-2.43s1.85.19,2.62.65c6.08,3.61,12.14,7.24,18.15,11,1.44.89,1.87.61,2.31-.91,2.08-7.18,4.26-14.33,6.4-21.5.8-2.69,1-2.81,3.08-.85,4.47,4.25,8.92,8.51,13.25,12.91,1.44,1.46,2,1.17,3.06-.37,3.84-5.74,7.81-11.39,11.73-17.08,1.48-2.15,1.56-2.19,2.69.26,4,8.64,9.74,16.23,14.53,24.39a7,7,0,0,0,4.43,3.37c6.84,2.08,13.61,4.36,20.43,6.49,2.18.68,2.16,2.8,2.83,4.33,1.4,3.22,3.36,6.1,4.94,9.2a1.35,1.35,0,0,0,.92.7c4.93,1.48,9.88,2.91,14.76,4.56,1.6.54,2-.06,2.37-1.34.55-1.73.74-3.58,1.73-5.16a1.52,1.52,0,0,1,1.93-.91,49.22,49.22,0,0,0,8.66.94c1.43,0,1.54.38,1.33,1.53-1.67,8.82-3.3,17.65-5,26.47-.2,1-.11,1.62-1.78.76-2.5-1.3-5.54-1.69-8.39-2.12-1.22-.18-1.36-.42-1.15-1.46.51-2.53.85-5.09,1.43-7.6.25-1.07,0-1.48-1-1.84-6.52-2.5-13-5-19.53-7.53a5.85,5.85,0,0,0-2-.22q-20.24-.26-40.49-.5c-4,0-4.4.6-6.21,4-3.81,7.06-4.5,14.45-3.39,22.2.61,4.24,1.26,8.23,5.22,11.12a89.64,89.64,0,0,1,11,9.82,24.83,24.83,0,0,0,11.09,6.29c8.51,2.57,17,5.36,25.43,8,1.11.35,2.31.54,1.87,2.25-.1.38.36.9.56,1.36q4.71,10.87,9.42,21.73a10.63,10.63,0,0,1,1.05,6.35c-1.13,7.48-1.5,15.07-2.16,22.62-.2,2.32-.47,4.65-.48,7,0,1.3-.89,1.46-1.65,1.85-4.22,2.15-8.43,4.34-12.71,6.38a3.37,3.37,0,0,0-2.1,2.77c-.89,5.42-1.78,10.83-2.78,16.23a3.26,3.26,0,0,0,.65,2.75Q935,761,943.44,772.94a4.32,4.32,0,0,0,2.33,1.74c8.16,2.58,16.32,5.15,24.45,7.81a3.29,3.29,0,0,0,3.22-.49q8.57-5.83,17.19-11.56a4.17,4.17,0,0,0,1.81-2.25c1.84-5.51,3.73-11,5.71-16.48a2.63,2.63,0,0,0-.49-2.92q-5-6.24-9.87-12.58c-1.19-1.55-2.67-1.69-4.43-1.44-5.68.79-5.75.77-5,6.5.3,2.46-.11,5,.74,7.41a1.06,1.06,0,0,1-1,1.41,21.13,21.13,0,0,0-6.93,2.64c-1.84,1-1.89.2-2.07-1.15-.86-6.52-1.84-13-2.54-19.55-.16-1.47-1.56-3.08-.44-4.33.93-1,2.58-1.42,3.92-2.09,4.46-2.23,9-4.37,13.36-6.73a4.71,4.71,0,0,1,5.13,0c7.84,4.19,15.83,8.12,23.78,12.1a3.28,3.28,0,0,1,2.2,3.29c.49,12,1.24,24,1.91,35.93.06,1.13.44,2.32-1.41,2.48-.5,0-.94.88-1.38,1.38-8.09,9.09-16.2,18.14-24.21,27.3a3.81,3.81,0,0,1-4.28,1.42c-12.16-2.76-24.3-5.68-36.56-7.88-3.12-.56-4.66-2.1-6.36-4q-21.57-24.46-43.09-49c-1.28-1.46-3.15-2.45-1.85-5.33,1-2.18.38-5.08.48-7.66q.55-14.36,1.1-28.72A3,3,0,0,0,898.11,697.71Zm-42.66-21.3,1,.26c6.76-4.35,13.85-8.13,20.56-12.6,2.48-1.65,1.37-2.39.2-3.66-2.83-3.05-5.71-6.06-8.5-9.15-1-1.08-2.28-1.69-3-3.16-7.88-15.77-15.88-31.48-23.87-47.2-.32-.63-.58-1.14-.13-1.83,4.92-7.5,8.7-15.65,13.1-23.45,1.07-1.9,1.66-3,4.48-3.48,11.35-1.86,22.72-3.78,33.89-6.63a4,4,0,0,1,2.41.2c3,1.07,6.06,2,9.22,3.08a3.77,3.77,0,0,0-.95-2.45c-4.37-7.62-10.06-14.44-13.57-22.58-.58-1.35-1.36-1.3-2.16-.17-1.28,1.84-2.53,3.7-3.81,5.55L875,562.58l-16.81-16.24c-2.35,7.91-4.54,15.54-6.92,23.11-.33,1.06.39,2.66-.84,3.1s-1.62-1.23-2.57-1.78c-5.47-3.16-10.84-6.51-16.25-9.77-.93-.56-1.9-1-3.49-1.91,4.36,9.5,8.29,18.28,12.44,27,1,2,.63,3-1.19,4.15-8.56,5.29-17.06,10.67-25.57,16-.6.38-1.41.56-1.57,1.52l30.27,9.79c-.47.54-.68.79-.9,1q-7.78,8.46-15.55,16.92c-.51.55-1.78,1.17,0,1.92,9.31,4,18.76,7.6,28,11.78,1.35.61,1.43,1,1.42,2Q855.44,663.81,855.45,676.41ZM869,706c6.16,1.82,11.65,3.4,17.11,5.09a1.82,1.82,0,0,0,2.46-.87c2.86-4.39,5.81-8.72,8.73-13.07a3.27,3.27,0,0,0,.36-3.06q-1.93-5.92-3.64-11.9c-.41-1.42-.93-2.32-2.64-2.37s-3.43-.55-5.16-.77c-3.14-.39-6.3-.72-9.46-1.08L886.24,688H869.8l-.15.48,13.66,9.61ZM872,585.54a6.13,6.13,0,0,0-6.26,6.29,5.7,5.7,0,0,0,6,5.86,6.33,6.33,0,0,0,6.5-6.4A6.08,6.08,0,0,0,872,585.54Z" transform="translate(-809.6 -540.51)"/><path class="cls-2" d="M855.45,676.41q0-12.6,0-25.2c0-1.05-.08-1.42-1.42-2-9.22-4.18-18.67-7.81-28-11.78-1.74-.74-.47-1.36,0-1.92q7.75-8.48,15.55-16.92c.22-.24.43-.49.9-1l-30.27-9.79c.16-1,1-1.14,1.57-1.52,8.51-5.36,17-10.74,25.57-16,1.82-1.12,2.17-2.1,1.19-4.15-4.15-8.68-8.08-17.46-12.44-27,1.59.87,2.57,1.35,3.49,1.91,5.41,3.27,10.77,6.61,16.25,9.77,1,.55,1.44,2.19,2.57,1.78s.5-2,.84-3.1c2.38-7.57,4.58-15.2,6.92-23.11L875,562.58l9.3-13.43c1.28-1.85,2.53-3.71,3.81-5.55.79-1.14,1.58-1.18,2.16.17,3.51,8.14,9.2,15,13.57,22.58a3.77,3.77,0,0,1,.95,2.45c-3.16-1-6.21-2-9.22-3.08a4,4,0,0,0-2.41-.2c-11.17,2.85-22.54,4.77-33.89,6.63-2.82.46-3.41,1.57-4.48,3.48-4.4,7.8-8.18,15.95-13.1,23.45-.45.68-.19,1.19.13,1.83,8,15.72,16,31.43,23.87,47.2.74,1.48,2,2.08,3,3.16,2.79,3.09,5.67,6.1,8.5,9.15,1.17,1.26,2.28,2-.2,3.66-6.71,4.46-13.8,8.25-20.56,12.6Zm18.87-113.05v-.44c-.08,0-.22,0-.22,0a1.33,1.33,0,0,0,0,.39A1.18,1.18,0,0,0,874.32,563.36Zm-22.46,9.33c0-.05-.09-.15-.15-.15s-.11.08-.17.13.1.14.16.14S851.81,572.72,851.86,572.68Z" transform="translate(-809.6 -540.51)"/><path class="cls-2" d="M869,706l14.28-7.89-13.66-9.61.15-.48h16.44L876.79,678c3.16.36,6.32.69,9.46,1.08,1.73.22,3.43.72,5.16.77s2.23.94,2.64,2.37q1.72,6,3.64,11.9a3.27,3.27,0,0,1-.36,3.06c-2.92,4.35-5.87,8.68-8.73,13.07a1.82,1.82,0,0,1-2.46.87C880.68,709.42,875.19,707.84,869,706Z" transform="translate(-809.6 -540.51)"/><path class="cls-2" d="M872,585.54a6.08,6.08,0,0,1,6.25,5.76,6.33,6.33,0,0,1-6.5,6.4,5.7,5.7,0,0,1-6-5.86A6.13,6.13,0,0,1,872,585.54Zm2,4.36c-2.41,0-4.62,1.89-4.54,3.78.06,1.41.92,1.76,2.17,1.74,2.25,0,4.54-2,4.46-3.79C876,590.22,875.13,589.82,874,589.91Z" transform="translate(-809.6 -540.51)"/><path class="cls-1" d="M874.32,563.36a1.18,1.18,0,0,1-.24,0,1.33,1.33,0,0,1,0-.39s.15,0,.22,0Z" transform="translate(-809.6 -540.51)"/><path class="cls-1" d="M851.86,572.68s-.1.12-.16.12-.11-.09-.16-.14.12-.13.17-.13S851.81,572.63,851.86,572.68Z" transform="translate(-809.6 -540.51)"/><path class="cls-1" d="M874,589.91c1.14-.08,2,.31,2.08,1.72.08,1.83-2.2,3.74-4.46,3.79-1.25,0-2.11-.33-2.17-1.74C869.37,591.79,871.58,589.91,874,589.91Z" transform="translate(-809.6 -540.51)"/></svg>