<svg id="Ebene_1" data-name="Ebene 1" xmlns="http://www.w3.org/2000/svg" viewBox="0 0 206.8 262.27"><defs><style>.cls-1{fill:#b6517c;}.cls-2{fill:#fdceec;}</style></defs><title>seahorse_pink</title><path class="cls-1" d="M898,697.87c-2.92,4.36-5.87,8.68-8.71,13.07-.87,1.34-1.48,1.72-3.28,1.2-6.12-1.81-12.09-4.19-18.45-5.2-.94-.15-1.77-1-3.25-1.86,6.86.51,10.8-4.23,15.87-6.29,1.66-.67.51-1.32-.2-1.83q-5.19-3.7-10.4-7.35a5.51,5.51,0,0,1-2.24-2.51h7.92c2.17,0,4.33,0,6.5,0,.55,0,1.31.27,1.59-.33.37-.79-.52-1.12-1-1.54-2-2-4.12-3.89-6.16-5.85-.45-.43-1.28-.82-.94-1.58s1.27-.92,2.15-.8c4.21.57,8.42,1.14,12.64,1.66a5,5,0,0,0,3.2-.1,42,42,0,0,0-4.14-5.17,111.89,111.89,0,0,1-7.75-8.11c-1-1.17-1.81-1.5-3.32-.56-7,4.34-14.1,8.53-21.17,12.76-.55.33-1.07,1.06-1.75.65s-.09-1.22-.11-1.84q-.35-12.49-.62-25c0-1-.46-1.38-1.34-1.75-8.77-3.6-17.52-7.26-26.28-10.91q-.69-.29-1.37-.6c-1.57-.72-1.81-1.54-.51-2.91,4.93-5.2,9.77-10.48,14.64-15.73.33-.36.64-.73,1-1.12-.59-1-1.61-1-2.41-1.22q-12.33-4.05-24.69-8a6.18,6.18,0,0,0-2.91-.57c-.44.07-.85,0-.9-.59a1,1,0,0,1,.56-1c9.87-5.2,18.9-11.79,28.54-17.36,1.77-1,1.62-1.79.93-3.28q-5.86-12.55-11.56-25.18c-.39-.86-1.7-1.91-.52-2.85s2,.42,2.85.93c5.87,3.49,11.72,7,17.52,10.6,1.57,1,2.13.81,2.66-1,2-7,4.17-14,6.27-21.05.88-2.94,1.06-3,3.36-.83,4.39,4.21,8.76,8.44,13,12.76,1.24,1.25,1.85,1.32,2.89-.25,3.88-5.82,7.94-11.51,11.86-17.31,1.15-1.71,1.77-1.86,2.68.19,3.88,8.71,9.74,16.25,14.46,24.46a7.28,7.28,0,0,0,4.71,3.47c6.74,2.12,13.43,4.37,20.19,6.42,2.17.66,2.17,2.65,2.76,4.08,1.35,3.25,3.34,6.12,4.91,9.23a1.89,1.89,0,0,0,1.33.94c4.86,1.46,9.72,2.94,14.53,4.55,1.4.47,2,.11,2.29-1.2.05-.24.12-.49.19-.72,2.3-7.2.81-5.51,8.34-4.72a9.49,9.49,0,0,0,2.85.32c1.28-.21,2.27.51,2,2.18-1.56,8.6-3.07,17.2-4.64,25.79-.1.54-.27,1.58-1.19,1-2.66-1.77-5.77-2-8.74-2.43-1.57-.25-1.51-.75-1.29-1.86.46-2.37.81-4.76,1.35-7.12.27-1.16-.13-1.61-1.12-2.06-6.23-2.78-12.85-4.57-19-7.46a5.62,5.62,0,0,0-2.22-.23q-20.25-.27-40.49-.51c-4,0-4.54.68-6.39,4.13-3.75,7-4.12,14.29-3.43,22,.55,6.2,3.65,10.46,8.2,14.15,2.53,2.05,4.94,4.26,7.32,6.48s4.84,4.51,8.22,5.53c8.23,2.49,16.4,5.22,24.61,7.79,2,.62,3.75,1.64,5.66,2.35,1.21.45.25,1.31.6,2,4.28,8.17,7.21,17,11.36,25.2.82,1.62-.4,2.63-.5,3.95-.54,7.14-1.22,14.27-1.85,21.41a26.84,26.84,0,0,0-.4,5c.33,3.2-1.2,4.67-4,5.83-3.83,1.6-7.46,3.69-11.19,5.53a2.44,2.44,0,0,0-1.51,2.2c-.69,5.11-1.45,10.22-2.57,15.24-.57,2.54.25,4.28,1.68,6.1q7.65,9.69,14.31,20.1a7.73,7.73,0,0,0,4.48,3.6c7.48,2.23,14.95,4.57,22.31,7.17,2.37.84,3.85.79,6-.8,5.17-3.9,10.67-7.35,16.07-10.94a4.14,4.14,0,0,0,1.71-2.32q2.75-8.16,5.67-16.26c.54-1.5.29-2.4-.81-3.71a152.07,152.07,0,0,1-10-12.74,3.21,3.21,0,0,0-3.56-.9,6.84,6.84,0,0,1-1.65.45c-4.25.6-4.34.6-4,4.82.24,2.89.14,5.82.82,8.67.24,1-.06,1.43-1.13,1.73a45.64,45.64,0,0,0-7.46,2.82c-1.12.54-1.16-.71-1.26-1.44-.59-4.2-1.08-8.42-1.72-12.62-.51-3.36-.54-6.82-1.62-10.07-.33-1,.24-1.18.83-1.47l18.54-9.25a1.75,1.75,0,0,1,1.83,0q12.28,6.41,24.65,12.65c1.78.9,2.73,1.83,2.82,4.06.52,12,1.26,23.95,1.94,35.92.06,1,0,1.69-1.3,1.86-1,.13-1.67,1.08-2.27,1.86-3,3.92-6.38,7.5-9.66,11.14-4.86,5.39-9.6,10.88-14.31,16.39a2.72,2.72,0,0,1-3.06,1q-20.07-4.54-40.16-9a2.58,2.58,0,0,1-1.62-1c-3.34-4.49-7.49-8.28-11-12.61-4-4.91-8.24-9.57-12.42-14.29s-8.55-9.73-12.9-14.53c-3.48-3.84-7-7.62-10.39-11.59-.63-.75-1.53-1.38-.17-2.38.37-.27.28-1.24.31-1.89q.71-17.61,1.39-35.21C898.88,699.52,899.18,698.54,898,697.87ZM874.73,562.61l-.32-.28c-5-5.62-10.67-10.59-16.2-15.91-2.34,7.91-4.55,15.54-6.88,23.13a2.8,2.8,0,0,0,1.18,3.56c-3.68-.56-5.44-3.07-7.93-4.32-2.74-1.37-5.27-3.15-7.9-4.74s-5.2-3.09-8.38-5c.54,1.27.8,1.93,1.09,2.57,3.87,8.44,7.76,16.87,11.6,25.33.23.51,1.08,1.45.24,1.69-1.65.46-2.31,2-3.65,2.77-5.43,3.21-10.74,6.63-16.08,10-3.13,2-6.25,3.94-9.75,6.15l30.89,9.95-17.55,19c.32.73.86.75,1.31.94Q839,642.7,851.62,648c3.86,1.62,3.82,1.64,3.91,5.86.15,6.91.39,13.82.47,20.73,0,1.93.42,2.16,2,1.14,6.93-4.33,14.16-8.18,21.06-13.06-3.3-3.6-6.53-7.15-9.79-10.66a34.16,34.16,0,0,1-5.88-8.15Q853.37,623.38,843,603.09c-1.09-2.15-1.48-3.63,0-6.09,4.31-7.11,8-14.61,12-21.91.82-1.5,1.47-3.57,4-2.71.26.09.63-.14.95-.2,3.78-.76,7.56-1.53,11.34-2.26,7.08-1.37,14.19-2.63,21.24-4.15a6.65,6.65,0,0,1,3.52.09c2.89.83,5.62,2.23,8.84,2.62a9.51,9.51,0,0,0-.45-1.15c-4.69-8.08-10.64-15.41-14.42-24-.65-1.49-1.23-.57-1.7.09-1.35,1.89-2.59,3.86-4,5.74C881.13,553.58,878.36,558.4,874.73,562.61ZM869.05,706c6.09,1.79,11.56,3.33,17,5a1.91,1.91,0,0,0,2.62-1c2.81-4.31,5.73-8.55,8.58-12.83a3.38,3.38,0,0,0,.36-3.26c-1.36-4-2.45-8.16-3.71-12.24-.31-1-.78-1.86-2.21-1.9a54.4,54.4,0,0,1-5.4-.76c-3.16-.41-6.32-.77-9.63-1.17l9.63,10.17H869.1l14.26,10Z" transform="translate(-809.6 -540.77)"/><path class="cls-2" d="M874.73,562.61c3.62-4.21,6.39-9,9.66-13.5,1.37-1.87,2.61-3.84,4-5.74.47-.66,1-1.58,1.7-.09,3.78,8.63,9.73,16,14.42,24a9.51,9.51,0,0,1,.45,1.15c-3.22-.39-6-1.79-8.84-2.62a6.65,6.65,0,0,0-3.52-.09c-7,1.53-14.16,2.78-21.24,4.15-3.79.73-7.56,1.5-11.34,2.26-.32.06-.69.29-.95.2-2.54-.86-3.18,1.21-4,2.71-4,7.3-7.68,14.8-12,21.91-1.49,2.46-1.1,3.93,0,6.09q10.32,20.31,20.42,40.74a34.16,34.16,0,0,0,5.88,8.15c3.26,3.51,6.49,7.06,9.79,10.66-6.9,4.88-14.13,8.73-21.06,13.06-1.62,1-2,.79-2-1.14-.08-6.91-.33-13.82-.47-20.73-.09-4.22,0-4.24-3.91-5.86q-12.6-5.27-25.23-10.49c-.45-.19-1-.2-1.31-.94l17.55-19-30.89-9.95c3.5-2.21,6.62-4.19,9.75-6.15,5.35-3.35,10.65-6.77,16.08-10,1.34-.79,2-2.31,3.65-2.77.84-.24,0-1.18-.24-1.69-3.84-8.46-7.73-16.89-11.6-25.33-.29-.64-.55-1.3-1.09-2.57,3.18,1.89,5.79,3.42,8.38,5s5.17,3.36,7.9,4.74c2.49,1.25,4.25,3.77,7.93,4.32a2.8,2.8,0,0,1-1.18-3.56c2.33-7.59,4.54-15.21,6.88-23.13,5.54,5.32,11.18,10.29,16.2,15.91-.4.55-1.11,1-.69,1.89A2.11,2.11,0,0,0,874.73,562.61Z" transform="translate(-809.6 -540.77)"/><path class="cls-2" d="M869.05,706l14.31-7.89-14.26-10h17.21L876.68,678c3.3.4,6.47.76,9.63,1.17a54.4,54.4,0,0,0,5.4.76c1.43,0,1.89.87,2.21,1.9,1.26,4.07,2.34,8.2,3.71,12.24a3.38,3.38,0,0,1-.36,3.26c-2.86,4.28-5.77,8.52-8.58,12.83a1.91,1.91,0,0,1-2.62,1C880.62,709.35,875.14,707.81,869.05,706Z" transform="translate(-809.6 -540.77)"/><path class="cls-1" d="M874.73,562.61a2.11,2.11,0,0,1-1,1.62c-.42-.91.29-1.35.69-1.89Z" transform="translate(-809.6 -540.77)"/></svg>