<svg id="Ebene_1" data-name="Ebene 1" xmlns="http://www.w3.org/2000/svg" viewBox="0 0 397.05 413.88"><defs><style>.cls-1{fill:#717274;}.cls-2{fill:#8c8e91;}.cls-3{fill:#fdfdfd;}.cls-4{fill:#58585a;}.cls-5{fill:none;stroke:#000;stroke-miterlimit:10;}</style></defs><title>seal</title><path class="cls-1" d="M1229.43,472.94v5.64l-8,15s-10.53,10.91,0,59c0,0,2.63,23.31-31.21,51.13V594L1176,597.75l4.89-12.41s-22.56,15-19.93,3c-.21-1.88,40.23-36.09,15-47.37C1176,541,1216.36,504.14,1229.43,472.94Z" transform="translate(-876.44 -211)"/><path class="cls-2" d="M1260.68,364c.34,29,.73,70.14-13.31,96.2-2.38,4.44,6.49,43.67.69,51.86s-21.5,12.28-21.5,12.28,22.18,32.75-6.82,73.69-44,22.85-44,22.85l-14-7.84-10.58-16s-5.12-10.57,2.39-18.08,10.92-8.87,10.92-8.87,19.78-21.15-.69-22.51-64.47,3.07-78.46,3.07-60-7.85-66.52-10.58c-2.89-1.21-9.83-2.9-18.68-2.44l-.07-1.29c7.57-10,59.73-5.74,59.73-5.74,87.21,18,104.51-.38,113.15-5.26,64.72-36.58,70.68-115,72.93-143.61,1.57-19.9-2.72-56.55-5.48-77C1245.33,312.92,1260.4,339.78,1260.68,364Zm-31.25,114.55v-5.64c-13.07,31.2-53.47,68-53.47,68,25.19,11.28-15.25,45.49-15,47.37-2.63,12,19.93-3,19.93-3L1176,597.75l14.28-3.76v9.77c33.84-27.82,31.21-51.13,31.21-51.13-10.53-48.11,0-59,0-59Z" transform="translate(-876.44 -211)"/><path d="M1218.92,213a5.28,5.28,0,0,1,.74,4.28,12.8,12.8,0,0,0-7.66,5.35l-.17-.11c-1.19-1-3.45-7-1.73-8.48C1210.1,214,1216,208,1218.92,213Zm-2.26,3.88a2,2,0,1,0-2,2A2,2,0,0,0,1216.66,216.87Z" transform="translate(-876.44 -211)"/><path d="M1219.66,217.27a6.14,6.14,0,0,1-2.81,3.34s-3.5,2.68-4.85,2A12.8,12.8,0,0,1,1219.66,217.27Z" transform="translate(-876.44 -211)"/><path d="M1214.66,214.87a2,2,0,1,1-2,2A2,2,0,0,1,1214.66,214.87Z" transform="translate(-876.44 -211)"/><path class="cls-3" d="M978.91,491.87c2.26-.75,10.91,4.51,2.26,4.51s-30.83,17.29-30.83,17.29l1.88-6C954.1,501.64,976.66,492.62,978.91,491.87Z" transform="translate(-876.44 -211)"/><path class="cls-4" d="M1211.76,223l.24-.38c1.35.67,4.85-2,4.85-2a6.14,6.14,0,0,0,2.81-3.34,11,11,0,0,1,1.45-.27s8.9-.81,15,6.16a22.3,22.3,0,0,1,4.85,10.31c1.31,6.12,1.18,14.5-1.5,26-.2.85-.41,1.71-.64,2.59,0,0-8.87,21.83,0,40.25,0,0,.58.88,1.54,2.48,2.76,20.41,7,57.06,5.48,77-2.25,28.57-8.21,107-72.93,143.61-8.64,4.88-25.94,23.3-113.15,5.26,0,0-52.16-4.3-59.73,5.74l.07,1.29c-11,.56-25.08,4.46-38,16.77-23.2,22.17-38.53,42.8-54.93,29.68-1.7-1.37-8.87.34-13.64-11.6,0,0-15.7-15-16.72-15s0-8.53,0-8.53,37.18,1.71,75.73-45.37,117.36-36.16,146.7-58,49.12-36.84,63.11-84.26c0,0,6.14-20.13-1.37-37.18,0,0-8.87-44.35,21.84-65.5,14.76-10.17,21.87-17.67,25.2-22.82,3.6-5.55,2.78-8.38,2.43-8.91S1210.62,224.83,1211.76,223Zm-16.25,49.11a3.16,3.16,0,1,0-3.16,3.16A3.16,3.16,0,0,0,1195.51,272.11ZM1175.2,372s-1.51-6.77-4.51,0-16.92,56-69.55,81.2c-1.88.37-4.93,4.17-1.88,3.38C1099.26,456.53,1156.4,445.25,1175.2,372Zm-194,124.43c8.65,0,0-5.26-2.26-4.51s-24.81,9.77-26.69,15.79l-1.88,6S972.52,496.38,981.17,496.38ZM920.7,580.59s14.66-6.39,12.4-12.41-3.52-.37-6.08,1.88-7.83,7.9-15.35,6-2.63,4.51-2.63,4.51S916.88,582.52,920.7,580.59Z" transform="translate(-876.44 -211)"/><path class="cls-3" d="M1170.69,372c3-6.77,4.51,0,4.51,0-18.8,73.3-75.94,84.58-75.94,84.58-3,.79,0-3,1.88-3.38C1153.77,428,1167.68,378.71,1170.69,372Z" transform="translate(-876.44 -211)"/><path class="cls-5" d="M1226.4,226.11s20.56-15.36,39.64-1" transform="translate(-876.44 -211)"/><path class="cls-5" d="M1212.16,227s-5.2-9.66-21.56,0" transform="translate(-876.44 -211)"/><path class="cls-5" d="M1198.08,235.41s8.18-2.73,11.4,0" transform="translate(-876.44 -211)"/><path class="cls-5" d="M1230.86,243.2s5.45,48.32,42.62,47.32" transform="translate(-876.44 -211)"/><path class="cls-5" d="M1232.34,231.31a42.42,42.42,0,0,1,26,30" transform="translate(-876.44 -211)"/></svg>