<svg id="Ebene_1" data-name="Ebene 1" xmlns="http://www.w3.org/2000/svg" viewBox="0 0 344.19 243.16"><defs><style>.cls-1{fill:#0c0b0b;}.cls-2{fill:#9a4d44;}.cls-3{fill:#d2a26d;}.cls-4{fill:#d2a16d;}.cls-5{fill:#d1a16d;}.cls-6{fill:#705245;}.cls-7{fill:#705145;}.cls-8{fill:#6f5245;}.cls-9{fill:#7e584a;}.cls-10{fill:#e8dfcc;}</style></defs><title>seaturtle</title><path class="cls-1" d="M364.84,300.26a81,81,0,0,1,4.71-10,53.31,53.31,0,0,1,9.85-12.51,8.74,8.74,0,0,0,3-6.5q1.05-19.71,2-39.42.7-13.47,1.42-26.95c.12-2.16.88-2.63,2.92-1.78q13.36,5.54,26.7,11.14c2,.84,2.65,2.93,1.82,5.38q-6.34,18.93-12.64,37.87c-.22.67-.92,1.46-.29,2.06s1.37-.17,2-.46c22.32-10.37,45.91-14.32,70.35-13.86,21.36.41,42,4.4,61.54,13.22,14.76,6.66,27.85,15.59,37.27,29.11,1.57,2.25,2.55.56,3.54-.24,8.47-6.86,17.14-13.51,25.23-20.8,4.13-3.72,7.6-4.42,12.7-2.18,8.13,3.57,16.63,6.3,24.93,9.5,1.1.43,3,0,3.19,1.17.2,1.41-1.74,1.78-2.79,2.48Q615,295.86,587.55,314.14a5.67,5.67,0,0,0-3,5c-.74,10.63-5.16,19.83-11.9,27.94-1.43,1.72-1.34,2.87.32,4.34q26.32,23.32,52.58,46.77Q633.29,405,641,412c.54.48,1.49,1,1.22,1.73-.41,1.17-1.23,0-1.86.07a6.58,6.58,0,0,0-1.44.33l-32.19,9c-.24.07-.58,0-.71.2-2.34,2.79-3.55.55-5.25-.93-3.51-3.06-7.24-5.86-10.89-8.76q-25.32-20.09-50.62-40.21a2.85,2.85,0,0,0-3.34-.41c-17.65,7.34-36.1,10.84-55.15,11.54a169,169,0,0,1-53.06-6.39c-1.58-.45-2-.27-2.84,1.32-2.92,5.66-2,11.8-2.56,17.7-1.4,13.75-2.29,27.54-3.39,41.32a36.46,36.46,0,0,0-.32,5.23c.14,2.16-.71,2.39-2.55,2-6.76-1.43-13.53-2.76-20.31-4.1-.89-.17-2,.1-2.64-.37s-3.7,0-1.27-2.28c.28-.27-.06-1.26-.21-1.9q-6.44-27.82-12.91-55.64c-.13-.57-.25-1.14-.42-1.7-.74-2.45.17-4.44,2.58-5.24l18.24-6c.65-.21,1.76.11,1.79-.9,0-.84-1-1-1.64-1.32a87.31,87.31,0,0,1-22-17.41c-9-10.06-14.69-21.52-14.46-35.38,0-.53.32-1.2-.34-1.58-.46-.27-.76.12-1.07.37-7.33,6-16.07,7.74-25.19,8.14s-17.78-.82-26-5a21.47,21.47,0,0,1-5.46-3.91c-5.39-5.32-5-11.85,1-16.56a33.92,33.92,0,0,1,14-6.23,59.08,59.08,0,0,1,29.15.75C355.22,291.26,361,294.06,364.84,300.26ZM480.18,362l-.58-.38a16.56,16.56,0,0,1,1-1.85q4.8-6.67,9.65-13.3c1.86-2.55,1.78-3.51-.85-5.3q-23.65-16.12-47.34-32.2c-1.28-.87-1.79-.7-2.57.64Q427.71,329.87,415.73,350c-1.2,2-.64,2.43,1.2,3.19A143.93,143.93,0,0,0,457.17,363a162,162,0,0,0,28.61.7,183.87,183.87,0,0,0,28.93-4.17A90.11,90.11,0,0,0,530,354.75c-.27-.3-.36-.49-.49-.53-11.46-3.47-22.93-6.91-34.38-10.43-1.16-.36-1.64.08-2.22.91-2.48,3.53-5,7.06-7.55,10.52-1.67,2.29-3.06,4.83-5.13,6.82ZM478,258c-1.29-.28-2.41.2-3.4,1.69q-15.34,23.13-30.83,46.16c-.92,1.37-1.3,2,.46,3.22q22.93,15.41,45.69,31.08c1.55,1.06,2.17.66,3-.79,6.26-10.56,12.51-21.14,19-31.58,1.66-2.68,2.27-5.1.95-8a36.35,36.35,0,0,1-1.39-4.5q-5-16.48-10-33c-.31-1-.43-2.11-2.06-2.37-7-1.06-14.06-1.26-21.41-1.89Zm61.34,113.1a5.94,5.94,0,0,0,2.08,2.25l23,18.26q18.64,14.79,37.26,29.62a3.74,3.74,0,0,0,3.79.73l31.88-9c.55-.15,1.41-.29,1.53-.65.27-.76-.66-1-1.12-1.43q-17.39-15.57-34.8-31.11l-32-28.58c-1-.86-1.56-.84-2.47.06-2,2-4.14,3.85-6.21,5.78-4.14,3.84-9,6.74-13.72,9.72A41.9,41.9,0,0,1,539.36,371.14Zm-159.89,7.43c.13.61.24,1.09.35,1.57l6.26,27c2.36,10.19,4.69,20.38,7.07,30.57a2.69,2.69,0,0,0,2.52,2.46c5.93,1,11.81,2.27,17.7,3.47,4,.82,3.93.83,4.18-3.35q.46-8,1.11-15.9c.59-7.36,1.3-14.71,1.88-22.08.56-7.2,1-14.4,1.57-21.6.07-.86,0-1.94,1.09-2.55,1.25-.72,1-1.19-.3-1.74-2.35-1-4.91-1.3-7.22-2.52-3.27-1.73-6.78-3-10.14-4.57a3.74,3.74,0,0,0-3-.27c-6.48,2.1-13,4-19.48,6.22-1.58.54-3.23,1.45-3.59,3.36ZM502,260.44c4.69,14.43,8.43,28.73,13.22,42.7a3.17,3.17,0,0,0,2.39,2.39q13.2,4.28,26.36,8.64c7.85,2.6,15.67,5.25,23.53,7.82.6.2,1.29,1,2,.11,1.83-2.23,2.28-7.77.87-10.73a.73.73,0,0,1,.07-.67c2-1.89.89-4.08.42-6.07a39.81,39.81,0,0,0-5.7-12.33c-.75-1.16-2.5-.63-2.61-2.08s-1.16-2.52-2.15-3.51a75.31,75.31,0,0,0-16.3-12.21A113.41,113.41,0,0,0,521.55,265,146.63,146.63,0,0,0,502,260.44ZM383,293.52c2.48.54,4.72,1.06,7,1.51,17,3.43,34,6.83,51,10.34,1.29.27,1.8.1,2.49-.94,4.33-6.6,8.74-13.14,13.13-19.71l16.22-24.23c.41-.61,1.1-1.28.78-2s-1.35-.45-2-.42c-4.14.17-8.31.17-12.41.66q-8.83,1.06-17.6,2.61a158.87,158.87,0,0,0-19.12,5,88.58,88.58,0,0,0-20.7,9.61A60.8,60.8,0,0,0,383,293.51Zm-4.74,20.62a32.21,32.21,0,0,0,5.36,14.2c6.89,10.27,16.7,16.93,27.65,22.15,1.08.52,2.06,1.49,3.17-.43C422.63,336,430.92,322,439.19,308c.65-1.1.8-1.64-.76-2-9.8-2-19.58-4-29.37-6-8.17-1.67-16.39-3.14-24.49-5.14-2.09-.52-2.38.14-3.11,1.51A28.45,28.45,0,0,0,378.29,314.14ZM569,324.05c-.34-.67-1.15-.74-1.78-1q-10.59-3.55-21.19-7c-9.57-3.17-19.23-6.12-28.66-9.66-2.84-1.07-3.4,0-4.54,1.88-6.06,10.29-12.22,20.53-18.36,30.78-1.73,2.9-1.74,2.89,1.38,3.84a2.13,2.13,0,0,1,.49.1c11.15,3.34,22.34,6.58,33.42,10.14a6.87,6.87,0,0,0,5.36-.33c11.82-5.23,22.65-11.8,30.37-22.55a32.83,32.83,0,0,0,3.52-6.22Zm15.63-9.6,58-38.83c-1-.44-1.63-.77-2.31-1-9.27-3.44-18.57-6.83-27.81-10.35a3.61,3.61,0,0,0-4.16.71q-14.64,12.16-29.49,24.16c-1.29,1-1.49,1.8-.64,3.25a48.49,48.49,0,0,1,6.42,22.09ZM303.4,307.14a6.73,6.73,0,0,0,2.33,3.41,24.76,24.76,0,0,0,9.34,5.49c9.09,3.33,18.49,3.75,27.93,2.36,6.06-.89,11.94-2.69,16.84-6.69,5.09-4.16,6-10.37.15-15.22a28.14,28.14,0,0,0-9.1-4.94,55.26,55.26,0,0,0-26.22-2.4c-6.5,1-12.82,2.62-18.08,6.9-2.4,2-4.11,4.31-4.2,7.57,0,1.82.54,2.56,2.59,2.41,6.3-.48,12.61-.73,18.92-1,.58,0,1.36-.41,1.73.91Zm80.15-33.24a102.82,102.82,0,0,1,17.72-12c.57-.3.67-.9.86-1.46,4.57-13.62,9.18-27.22,13.66-40.87.48-1.45.86-3.31-1.33-4.21q-12.93-5.35-25.83-10.79c-1.15-.48-1.57-.34-1.63,1q-.69,16.08-1.49,32.16c-.23,4.57-.53,9.13-.86,13.7-.25,3.49-.71,7.1-.3,10.44a24.52,24.52,0,0,1-.27,7.51C383.88,270.71,383.79,272.08,383.55,273.9Zm92,109.22c3.54-.4,8.14.38,12.68-.53.87-.17,1.55-.29.89-1.35-2.65-4.27-3.66-9.18-5.29-13.84-.63-1.78-1.44-2.42-3.36-2.39-7.56.12-15.13.23-22.63-.93-1.46-.23-1.9.38-1.84,1.79q.32,7.47.49,15c0,1.32.65,1.63,1.85,1.74,5.45.44,10.85.47,17.26.53Zm-55.62-8.91c2.92,1.13,5.69,1.25,8.21,2.54,2.21,1.14,4.88,1.41,7.36,2,5.76,1.45,11.63,2.29,17.49,3.19,1.1.17,2.64.56,2.51-1.6-.29-5-.69-9.94-.56-14.93,0-1.28-.67-1.76-2-1.94-4.4-.6-8.81-1.27-13.15-2.23-2.25-.5-4-.8-5.66,1.31-.94,1.21-2.44,2-3.65,3-3.41,2.82-6.84,5.66-10.5,8.67Zm126.26-7.82c-7.1-3.35-14.35-5-20.84-8.49a1.59,1.59,0,0,0-1.17.17A188.78,188.78,0,0,1,505,362.76a136.4,136.4,0,0,0,9.76,14.34,2.31,2.31,0,0,0,2.89.67c4.38-1.48,8.85-2.71,13.2-4.27a93.59,93.59,0,0,0,15.4-7.1Zm-56.4-1.74v-.22c-1.15.14-2.29.35-3.45.4-1.73.08-2,.68-1.44,2.36a122.78,122.78,0,0,0,5.64,14.43,1.3,1.3,0,0,0,1.56.85c6.94-.91,13.86-2,20.71-3.45,1.21-.26.83-.64.38-1.47-2.39-4.38-5.67-8.17-8.17-12.45-1.18-2-2.34-2.17-4.4-1.78-3.52.69-7.16.92-10.77,1.34Zm78.43-14.51c-8.07-.73-15.62-.51-23.17-.52a2.68,2.68,0,0,0-1.17.35,119.65,119.65,0,0,1-17.1,7.31c.16.24.23.45.35.5l20,7.6a1.69,1.69,0,0,0,1.62-.2A90.84,90.84,0,0,0,568.22,350.14Zm-186.33,1.53a80.75,80.75,0,0,0,16,12.16,3.53,3.53,0,0,0,2.89,0c3.81-1.08,7.64-2.11,11.46-3.17s7.63-1.78,11.66-3.5c-3.68-1.47-7-2.65-10.19-4.13a16.45,16.45,0,0,0-7.23-1.44c-6.74,0-13.49-.09-20.23-.06-1.32-.06-2.62-.84-4.36.1Zm26.28-1.23c-5.37-2.92-9.79-6.29-14.49-9.16-3-1.84-6.81-2.4-10.26-3.5-4.88-1.55-9.77-3.07-15.09-4.74,2.53,5.81,6,10.33,9.64,14.74a6.25,6.25,0,0,0,5.65,2.4c7.93-.31,15.93.77,24.55.22Zm138.26-1.87H567a5.08,5.08,0,0,0,4.3-2,60.62,60.62,0,0,0,6.75-10.09c1.89-3.74,1.9-3.88-2.28-4.26-5.41-.5-10.53-.93-14.47,4.61-3.55,5-9.11,8.07-14.88,11.7ZM478.19,246.51a4.72,4.72,0,0,0,2.28,2c4.68,3,9.41,5.92,14.09,8.92a8.12,8.12,0,0,0,3.19,1.19c4.87.81,9.78,1.51,14.57,2.79,2.94.78,5.91,1.43,8.86,2.14-3.08-3.48-6.63-6.26-9.67-9.52A15.73,15.73,0,0,0,501,248.75c-1.07-.1-2.13-.28-3.19-.44-6.4-1-12.83-1.48-19.63-1.84Zm-27.77,1.75c4.4,2.32,8.34,4.42,12.3,6.47A19,19,0,0,0,473,257.17a58.87,58.87,0,0,1,12.43.33c2.14.31,4.37.12,6.51.61a1.21,1.21,0,0,0-.71-1.46c-4.9-3.38-10.31-6-14.9-9.82-.36-.31-1.11-.19-1.68-.21a124,124,0,0,0-17.15.59c-2.17.16-4.48-.07-7.08,1Zm-15.19,112.1-5-1.33c-1.5-.39-2.81-1.06-4.55-.67-6.13,1.35-12.13,3.22-18.19,4.82-2.24.59-4.62.86-7.11,2.31,4.87,2,9,4.55,13.43,6.46,3.27,1.39,5.69,1.81,8.59-1,3.82-3.81,8.26-6.93,12.82-10.63ZM544.36,273c-1.32-4.17-3.87-7.64-5-11.75-.26-1-1.19-1.31-2-1.66-2.61-1.06-5.18-2.19-7.81-3.19a146.19,146.19,0,0,0-16.81-5.15c-.61-.15-1.61-.64-2,.22s.66,1,1.11,1.43c1.15,1.08,2.27,2.21,3.47,3.23,5.07,4.3,9.36,9.6,16.31,11.4,4.43,1.1,8.42,3.59,12.72,5.43Zm28.38,35,.79.51c1.84-2,3.54-4.19,5.55-6a3.1,3.1,0,0,0,.86-4.12,64.13,64.13,0,0,0-14.1-20.2c-1.07-1.06-2.34-1.93-4-3.29.47,3.61.94,6.55,1.2,9.51.17,1.92.24,3.83,1.53,5.4a37,37,0,0,1,8.16,18.12ZM426.55,253c5.08,2.48,9.65,4.73,14.26,6.91a3.08,3.08,0,0,0,1.71,0c4.38-.84,8.81-1.37,13.24-1.93,2.67-.34,5.41-.13,8.12-1-5-3-10.13-5.73-15.28-8.33a4.74,4.74,0,0,0-2.71-.08A133.3,133.3,0,0,0,426.55,253Zm-33.92,15.52c6.93,2.67,13.21,5.45,20,.55,2.75-2,6.37-2.78,9.85-4.23l-11.58-4.78c-.77-.31-1.61-.81-2.39-.44a95.67,95.67,0,0,0-15.84,8.9Zm169.54,18.34c-.56-4.2-1-7.68-1.51-11.13-.16-1,0-2.09-1.07-2.92A99.2,99.2,0,0,0,543,262.3c-1.26-.64-1.64-.12-1.51,1.14a9.68,9.68,0,0,0,1.45,3.4c1.46,2.78,2.32,6.37,4.59,8.14,4.8,3.7,9.83,7.05,14.64,11.91Zm-158.62-13.6c-4-1.24-7.74-2.39-11.48-3.61-.89-.29-1.38.18-2,.63a82.78,82.78,0,0,0-10.89,9.44c-.67.69-1.84,1.39-1.41,2.39.22.52,1.57.57,2.42.8,5.25,1.46,10.31,2,14.08-3.14.09-.12.29-.16.42-.26Zm-13.4,65.46.33-.63a30.31,30.31,0,0,1-5.81-6.44c-1.88-2.72-3.75-5-7.22-5.79a73.51,73.51,0,0,1-10-3.59c-.78-.3-1.56-1-2.56-.54a36.27,36.27,0,0,0,2.14,8.12,3.18,3.18,0,0,0,2.21,2.12l7.32,2.34Zm193.4-23.3A73.38,73.38,0,0,0,581.8,304c-.44-1.61-1.1-1.87-2.31-.62-1.85,1.91-3.76,3.77-5.65,5.65a2.23,2.23,0,0,0-.84,1.72,34.16,34.16,0,0,1-1.11,8.59c-.34,1.52.15,1.73,1.38,1.77,2.82.09,5.66-.31,8.45.38.83.21,1.2-.16,1.27-1C583.18,318.75,583.41,317.14,583.55,315.44ZM370.08,297.51c-1.35.18-2.56-.36-3.15,1.27a56.06,56.06,0,0,0-2.38,10.06c-.18,1.09.09,1.5,1.32,1.78,3,.68,6.12.18,9.11.91,1.53.37,1.81-.76,1.88-1.9a26.54,26.54,0,0,1,1.71-9.19c.82-1.89-.27-2.23-1.6-2.3C374.55,298,372.16,298.14,370.08,297.51Zm6.48-.44c1.17-.43,2.82.92,3.73-.91a49.19,49.19,0,0,1,6.45-9.42c.8-1,.93-1.48-.6-1.7-2.69-.39-5.34-1-8-1.4-.91-.13-2-.46-2.75.55a55,55,0,0,0-6.84,11c-.44.93-.3,1.36.79,1.43,2.37.12,4.76.32,7.21.5Zm62.34-36.68c-3.13-1.56-5.84-2.54-8.13-4.13-4.15-2.88-8.18-2.87-12.53-.66-2.27,1.15-4.87,1.63-7.42,3.22,4.42,1.82,8.39,3.48,12.39,5.06a3.82,3.82,0,0,0,2.2.14C429.71,262.91,434,261.72,438.9,260.39Zm-73.46,51.75c-1.41-.64-1.38.21-1.38,1v4.5a2.87,2.87,0,0,0,2,2.81c4.1,1.54,8.19,3.12,12.3,4.66.5.19,1.14.72,1.57.08.19-.29-.06-.94-.24-1.38a32,32,0,0,1-2.73-10c-.06-1-.74-1.22-1.56-1.19C372,312.67,368.69,311.65,365.44,312.14Zm208.34,19h2.75c4,.06,4,.07,5.18-3.76.09-.32.23-.62.31-.94.86-3.44.86-3.45-2.75-3.89-1.15-.14-2.41-.61-3.44-.31-1.62.48-4.7-2-4.71,2.09-2.21.9-2.21,3.37-3.49,4.93s-.42,1.94,1.15,1.9,3.34-.11,5-.11Z" transform="translate(-300.9 -202.7)"/><path class="cls-2" d="M480.19,362c2.07-2,3.46-4.53,5.16-6.81,2.58-3.46,5.07-7,7.55-10.52.58-.83,1.06-1.27,2.22-.91q17.17,5.27,34.38,10.43c.13,0,.22.23.49.53a90.11,90.11,0,0,1-15.25,4.75,183.87,183.87,0,0,1-28.93,4.17,162,162,0,0,1-28.61-.7A143.93,143.93,0,0,1,417,353.14c-1.84-.76-2.4-1.19-1.2-3.19q12-20.07,23.76-40.32c.78-1.34,1.29-1.51,2.57-.64q23.65,16.13,47.34,32.2c2.63,1.79,2.71,2.75.85,5.3q-4.84,6.64-9.65,13.3a16.56,16.56,0,0,0-1,1.85ZM456,336.46a14.34,14.34,0,0,0-9.52,3.17,6.67,6.67,0,0,0-2.85,6.52c.36,2.6,2.41,3.64,4.68,4.24,4.66,1.23,8.84,0,12.59-2.78,2-1.52,3.33-3.64,3-6.18s-2.42-4.06-4.94-4.64A23.85,23.85,0,0,0,456,336.46Z" transform="translate(-300.9 -202.7)"/><path class="cls-2" d="M478,258.06c7.35.62,14.41.83,21.39,2,1.64.26,1.75,1.35,2.06,2.37q5,16.47,10,33a36.35,36.35,0,0,0,1.39,4.5c1.32,2.92.71,5.33-.95,8-6.45,10.45-12.7,21-19,31.58-.86,1.45-1.47,1.85-3,.79q-22.78-15.63-45.69-31.08c-1.76-1.18-1.38-1.85-.46-3.22q15.48-23,30.83-46.16C475.61,258.26,476.73,257.78,478,258.06Zm-13,52a7.84,7.84,0,0,0,.63,3.38c2.71,6.68,12.27,10.56,19.56,8.33,7.13-2.18,9.56-9.09,5.3-15.19-4.15-5.94-12.35-7.8-18.49-5.88-4.91,1.49-7,4.44-7,9.31Zm17.08-34a11.46,11.46,0,0,0-1.77,0c-6.32.78-9.11,5.94-6.09,11,2.89,4.87,11.42,7.57,17,5.09a6.9,6.9,0,0,0,2.33-11.33,13.85,13.85,0,0,0-11.45-4.77Z" transform="translate(-300.9 -202.7)"/><path class="cls-3" d="M539.36,371.14a41.9,41.9,0,0,0,9.23-4.35c4.7-3,9.57-5.88,13.72-9.72,2.07-1.92,4.2-3.79,6.21-5.78.91-.91,1.52-.92,2.47-.06q16,14.32,32,28.58,17.41,15.54,34.8,31.11c.46.41,1.39.68,1.12,1.43-.12.35-1,.49-1.53.65l-31.88,9a3.74,3.74,0,0,1-3.79-.73q-18.58-14.87-37.26-29.62l-23-18.26A5.94,5.94,0,0,1,539.36,371.14Zm81.22,36.7a4.84,4.84,0,0,0-1.49-3.86c-4-4.29-12.8-2.44-14.76,3.1a6.13,6.13,0,0,0,.37,5.28c1.73,3,5.62,4.23,9.63,3.13a8.3,8.3,0,0,0,6.22-7.62Zm-33-12.78a16.81,16.81,0,0,0-3.34-10.22c-1.1-1.58-2.54-2.87-4.57-2.25S577.2,385.16,577,387a17.89,17.89,0,0,0,2.2,10.06c1.55,2.94,3.81,4.73,5.52,4.31,1.92-.43,2.9-2.63,2.85-6.24ZM555.94,375c.42,4.26,1.36,8.27,4,11.65.88,1.12,2,2.22,3.58,1.74,1.41-.43,1.83-1.77,2-3.17A18.49,18.49,0,0,0,563,373.06c-1-1.66-2.16-3.78-4.51-3.2-2.51.66-2,3.28-2.49,5.16Z" transform="translate(-300.9 -202.7)"/><path class="cls-3" d="M379.47,378.59c.36-1.92,2-2.82,3.56-3.35,6.46-2.18,13-4.11,19.48-6.22a3.74,3.74,0,0,1,3,.27c3.36,1.57,6.87,2.84,10.14,4.57,2.31,1.23,4.87,1.51,7.22,2.52,1.27.54,1.55,1,.3,1.74-1.07.62-1,1.69-1.09,2.55-.58,7.19-1,14.4-1.57,21.6-.58,7.36-1.29,14.72-1.88,22.08q-.64,7.94-1.11,15.9c-.24,4.18-.18,4.16-4.18,3.35-5.89-1.2-11.77-2.52-17.7-3.47a2.69,2.69,0,0,1-2.52-2.46c-2.38-10.18-4.71-20.38-7.07-30.57q-3.1-13.46-6.24-27C379.7,379.68,379.6,379.2,379.47,378.59Zm23.16,40c4.16,0,9.56-4.08,10.71-8.08.69-2.41-.36-3.91-2.84-4-4.16-.22-9.44,3.41-11,7.58-1.09,2.72.15,4.49,3.13,4.48ZM404,381c-2.85,0-8.15,4-9,6.77-.49,1.53.51,2.63,2.18,2.14a14.11,14.11,0,0,0,8.43-6.23c1-1.71.34-2.73-1.62-2.7Z" transform="translate(-300.9 -202.7)"/><path class="cls-2" d="M502,260.44A146.63,146.63,0,0,1,521.56,265a113.41,113.41,0,0,1,22.58,9.48,75.31,75.31,0,0,1,16.3,12.21c1,1,2,1.93,2.15,3.51s1.87.92,2.61,2.08a39.81,39.81,0,0,1,5.7,12.33c.47,2,1.62,4.18-.42,6.07a.73.73,0,0,0-.07.67c1.41,3,1,8.5-.87,10.73-.72.88-1.41.09-2-.11-7.85-2.57-15.68-5.23-23.53-7.82q-13.17-4.36-26.36-8.64a3.17,3.17,0,0,1-2.39-2.39C510.46,289.14,506.72,274.87,502,260.44ZM538.71,290c-3.23,0-5.33.56-7.31,2.12-3.9,3.07-4.15,8.59.92,10.82,4.16,1.83,10.75-.14,13-4.08a5.84,5.84,0,0,0-3.05-8.38,9.52,9.52,0,0,0-3.56-.49Z" transform="translate(-300.9 -202.7)"/><path class="cls-2" d="M383,293.51a60.8,60.8,0,0,1,18.71-17.57,88.58,88.58,0,0,1,20.7-9.61,158.87,158.87,0,0,1,19.12-5q8.78-1.55,17.6-2.61c4.11-.49,8.27-.5,12.41-.66.7,0,1.68-.39,2,.42s-.37,1.37-.78,2l-16.22,24.23c-4.39,6.56-8.8,13.11-13.13,19.71a2,2,0,0,1-2.49.94c-17-3.52-34-6.91-51-10.34C387.76,294.57,385.55,294.05,383,293.51ZM432.73,300c3.21.4,6.23-.83,8.95-2.62,2.54-1.67,4.76-4,4.24-7.34s-3.16-4.64-6.21-5.22c-5.39-1-10,.69-13.9,4.29a5.81,5.81,0,0,0,0,8.94c1.92,1.81,4.25,2.06,6.91,2Z" transform="translate(-300.9 -202.7)"/><path class="cls-2" d="M378.29,314.14a28.45,28.45,0,0,1,3.17-17.73c.73-1.37,1-2,3.11-1.51,8.09,2,16.31,3.47,24.49,5.14l29.37,6c1.56.31,1.41.85.76,2-8.28,14-16.56,28-24.72,42.1-1.11,1.92-2.08.94-3.17.43-10.94-5.22-20.76-11.87-27.65-22.15A32.21,32.21,0,0,1,378.29,314.14ZM418,315.41a5.39,5.39,0,0,0-2.15-3.49c-4.3-2.7-10.19-.49-12.53,2.64-2,2.61-1.1,5.57,1.77,7,3.39,1.71,6.55.77,9.45-1a6.54,6.54,0,0,0,3.47-5.12Z" transform="translate(-300.9 -202.7)"/><path class="cls-2" d="M569,324.08a32.84,32.84,0,0,1-3.5,6.21C557.79,341,547,347.61,535.14,352.84a6.87,6.87,0,0,1-5.36.33c-11.08-3.56-22.27-6.79-33.42-10.14a2.13,2.13,0,0,1-.49-.1c-3.13-.94-3.12-.94-1.38-3.84,6.13-10.25,12.3-20.48,18.36-30.78,1.13-1.93,1.69-3,4.54-1.88,9.43,3.55,19.09,6.49,28.66,9.66l21.19,7C567.86,323.35,568.67,323.41,569,324.08Zm-32.4,19c5.19,0,8.44-3,8.44-8s-3.31-8.56-8.3-8.54c-4.78,0-8.19,3.51-8.21,8.41s3.18,8.1,8.07,8.12Z" transform="translate(-300.9 -202.7)"/><path class="cls-4" d="M584.64,314.48a48.49,48.49,0,0,0-6.41-22.1c-.85-1.44-.66-2.2.64-3.25q14.84-12,29.53-24.15a3.61,3.61,0,0,1,4.16-.71c9.24,3.52,18.54,6.91,27.81,10.35.68.25,1.33.59,2.31,1Zm27.49-25.94c0-4.09-2.67-7-6.41-7.06a6.12,6.12,0,0,0-6.19,6.05q0,.16,0,.33c0,3.76,3.12,7.19,6.54,7.22S612.12,292.26,612.13,288.54Z" transform="translate(-300.9 -202.7)"/><path class="cls-5" d="M303.4,307.14l22.21-1.28c-.37-1.32-1.14-.94-1.73-.91-6.31.32-12.62.57-18.92,1-2,.16-2.64-.59-2.59-2.41.09-3.26,1.8-5.62,4.2-7.57,5.26-4.28,11.59-5.94,18.08-6.9a55.26,55.26,0,0,1,26.22,2.4,28.14,28.14,0,0,1,9.1,4.94c5.81,4.85,4.94,11.07-.15,15.22-4.9,4-10.77,5.8-16.84,6.69-9.44,1.39-18.84,1-27.93-2.36a24.76,24.76,0,0,1-9.34-5.49A6.73,6.73,0,0,1,303.4,307.14ZM341,295.55h0c-.79-.1-1.09.27-1,1h0c-1.67,1.17-1,2.34,0,3.51h0l.53.52h0c2.31,2.35,5.74,2.22,7-.29a.21.21,0,0,1,.24-.17h0c1.77-.67,1.39-1.81.67-3h0c0-.44,0-.86-.52-1h0c-.07-1-.77-1-1.52-1h0c-1.67-1.74-3.35-1.31-5,0h0Zm9.58,13.71c.06-1.63-.89-2.4-2.33-2.13a6.61,6.61,0,0,0-5,3.66c-.56,1.21-.79,2.7,1.07,3.21,2.44.7,6.19-2.17,6.27-4.72Zm5.43-3c2.22-.11,4.52-2.21,4.54-3.89,0-1.33-.75-1.71-1.92-1.61-2,.18-4.24,2.32-4.17,4a1.45,1.45,0,0,0,1.33,1.56h.23Zm-24.27-9.81a3.4,3.4,0,0,0,3.35-3.22,1.58,1.58,0,0,0-1.43-1.72h-.28a3.88,3.88,0,0,0-3.41,3.12c0,1.37.83,1.75,1.77,1.88Z" transform="translate(-300.9 -202.7)"/><path class="cls-5" d="M383.55,273.9c.2-1.81.29-3.19.53-4.54a24.52,24.52,0,0,0,.27-7.51c-.41-3.33,0-7,.3-10.44.33-4.56.63-9.13.86-13.7q.8-16.08,1.49-32.16c.06-1.36.49-1.5,1.63-1q12.9,5.43,25.83,10.79c2.19.91,1.81,2.77,1.33,4.21-4.48,13.65-9.1,27.25-13.66,40.87-.19.56-.29,1.15-.86,1.46A102.82,102.82,0,0,0,383.55,273.9ZM402.11,219c-4,0-7.71,3.35-7.67,6.92a2.38,2.38,0,0,0,2.5,2.73,8.75,8.75,0,0,0,8.23-4.94c1.28-3,.15-4.73-3-4.71Zm-9.56,29.63c3.32,0,7.85-3.36,8.85-6.62a2.51,2.51,0,0,0-2.94-3.36c-3.71.77-6.81,2.59-8.38,6.25C389,247.19,390,248.57,392.55,248.59Z" transform="translate(-300.9 -202.7)"/><path class="cls-6" d="M475.6,383.14c-6.42,0-11.82-.08-17.21-.56-1.2-.11-1.82-.42-1.85-1.74q-.18-7.48-.49-15c-.06-1.41.39-2,1.84-1.79,7.51,1.16,15.08,1.06,22.63.93a3,3,0,0,1,3.36,2.39c1.64,4.66,2.64,9.57,5.29,13.84.66,1.06,0,1.18-.89,1.35C483.74,383.5,479.14,382.73,475.6,383.14Z" transform="translate(-300.9 -202.7)"/><path class="cls-7" d="M420,374.22c3.66-3,7.08-5.85,10.53-8.66,1.22-1,2.72-1.76,3.65-3,1.64-2.11,3.41-1.81,5.66-1.31,4.33,1,8.74,1.63,13.15,2.23,1.35.19,2.05.66,2,1.94-.13,5,.26,10,.56,14.93.13,2.16-1.41,1.77-2.51,1.6-5.86-.9-11.73-1.73-17.49-3.19-2.48-.63-5.15-.9-7.36-2C425.67,375.46,422.9,375.34,420,374.22Z" transform="translate(-300.9 -202.7)"/><path class="cls-6" d="M546.25,366.4a93.59,93.59,0,0,1-15.35,7.1c-4.35,1.56-8.82,2.79-13.2,4.27a2.31,2.31,0,0,1-2.89-.67A136.4,136.4,0,0,1,505,362.76a188.78,188.78,0,0,0,19.18-4.69c.38-.12.89-.32,1.17-.17C531.89,361.42,539.15,363.05,546.25,366.4Z" transform="translate(-300.9 -202.7)"/><path class="cls-6" d="M489.85,364.66c3.61-.42,7.25-.65,10.81-1.33,2.06-.39,3.21-.26,4.4,1.78,2.49,4.28,5.78,8.07,8.17,12.45.45.82.83,1.21-.38,1.47-6.85,1.49-13.77,2.55-20.71,3.45a1.3,1.3,0,0,1-1.56-.85,122.78,122.78,0,0,1-5.64-14.43c-.53-1.68-.29-2.28,1.44-2.36,1.15,0,2.3-.26,3.45-.4Z" transform="translate(-300.9 -202.7)"/><path class="cls-8" d="M568.22,350.14a90.84,90.84,0,0,1-19.49,15,1.69,1.69,0,0,1-1.62.2l-20-7.6c-.13,0-.19-.26-.35-.5a119.65,119.65,0,0,0,17.1-7.31,2.68,2.68,0,0,1,1.17-.35C552.55,349.59,560.15,349.38,568.22,350.14Z" transform="translate(-300.9 -202.7)"/><path class="cls-6" d="M381.89,351.63c1.75-.94,3-.16,4.33-.17,6.74,0,13.49.1,20.23.06a16.45,16.45,0,0,1,7.23,1.44c3.19,1.48,6.51,2.66,10.19,4.13-4,1.72-7.89,2.45-11.66,3.5s-7.65,2.09-11.46,3.17a3.53,3.53,0,0,1-2.89,0A80.75,80.75,0,0,1,381.89,351.63Z" transform="translate(-300.9 -202.7)"/><path class="cls-6" d="M408.17,350.4c-8.61.55-16.58-.53-24.55-.26a6.25,6.25,0,0,1-5.65-2.4c-3.65-4.41-7.11-8.93-9.64-14.74,5.32,1.67,10.21,3.19,15.09,4.74,3.46,1.1,7.25,1.66,10.26,3.5C398.37,344.14,402.79,347.48,408.17,350.4Z" transform="translate(-300.9 -202.7)"/><path class="cls-6" d="M546.43,348.53c5.78-3.63,11.33-6.74,14.88-11.72,3.94-5.54,9.07-5.11,14.47-4.61,4.19.38,4.17.53,2.28,4.26a60.62,60.62,0,0,1-6.75,10.09,5.08,5.08,0,0,1-4.3,2C560.37,348.53,553.73,348.53,546.43,348.53Z" transform="translate(-300.9 -202.7)"/><path class="cls-8" d="M478.18,246.47c6.8.36,13.23.89,19.62,1.82,1.06.15,2.12.34,3.19.44A15.73,15.73,0,0,1,511.5,254c3,3.26,6.58,6,9.67,9.52-3-.71-5.93-1.35-8.86-2.14a147.35,147.35,0,0,0-14.57-2.79,8.12,8.12,0,0,1-3.19-1.19c-4.68-3-9.41-5.92-14.09-8.92A4.72,4.72,0,0,1,478.18,246.47Z" transform="translate(-300.9 -202.7)"/><path class="cls-6" d="M450.41,248.22c2.6-1.08,4.91-.85,7.08-1a124,124,0,0,1,17.15-.59c.57,0,1.32-.09,1.68.21,4.59,3.85,10,6.44,14.9,9.82a1.21,1.21,0,0,1,.71,1.46c-2.14-.48-4.37-.29-6.51-.61a58.87,58.87,0,0,0-12.43-.33,19,19,0,0,1-10.27-2.44C458.75,252.64,454.81,250.54,450.41,248.22Z" transform="translate(-300.9 -202.7)"/><path class="cls-6" d="M435.22,360.32c-4.56,3.7-9,6.83-12.84,10.58-2.9,2.82-5.32,2.4-8.59,1-4.47-1.91-8.57-4.48-13.43-6.46,2.49-1.45,4.87-1.72,7.11-2.31,6.06-1.6,12.06-3.46,18.19-4.82,1.74-.38,3.06.29,4.55.67S433.22,359.79,435.22,360.32Z" transform="translate(-300.9 -202.7)"/><path class="cls-8" d="M544.35,272.91c-4.3-1.83-8.3-4.33-12.74-5.48-6.95-1.8-11.23-7.09-16.31-11.4-1.2-1-2.32-2.15-3.47-3.23-.46-.43-1.44-.69-1.11-1.43s1.37-.37,2-.22a146.2,146.2,0,0,1,16.81,5.15c2.63,1,5.21,2.13,7.81,3.19.86.35,1.79.7,2,1.66C540.48,265.27,543,268.73,544.35,272.91Z" transform="translate(-300.9 -202.7)"/><path class="cls-6" d="M572.73,307.88a37,37,0,0,0-8.17-18.1c-1.29-1.57-1.36-3.48-1.53-5.4-.27-3-.73-5.9-1.2-9.51,1.67,1.36,2.93,2.22,4,3.29a64.13,64.13,0,0,1,14.08,20.08,3.1,3.1,0,0,1-.86,4.12c-2,1.83-3.71,4-5.55,6Z" transform="translate(-300.9 -202.7)"/><path class="cls-8" d="M426.55,253a133.3,133.3,0,0,1,19.33-4.43,4.74,4.74,0,0,1,2.71.08c5.15,2.6,10.24,5.34,15.28,8.33-2.71.82-5.45.61-8.12,1-4.43.56-8.85,1.09-13.24,1.93a3.08,3.08,0,0,1-1.71,0C436.24,257.75,431.67,255.49,426.55,253Z" transform="translate(-300.9 -202.7)"/><path class="cls-8" d="M392.67,268.54a95.67,95.67,0,0,1,15.88-8.9c.79-.37,1.63.13,2.39.44l11.58,4.78c-3.48,1.45-7.09,2.24-9.85,4.23C405.88,274,399.6,271.21,392.67,268.54Z" transform="translate(-300.9 -202.7)"/><path class="cls-8" d="M562.21,286.89c-4.81-4.86-9.84-8.2-14.59-11.9-2.27-1.77-3.13-5.36-4.59-8.14a9.68,9.68,0,0,1-1.45-3.4c-.14-1.26.25-1.78,1.51-1.14a99.2,99.2,0,0,1,16.55,10.53c1,.82.91,1.92,1.07,2.92C561.23,279.21,561.65,282.68,562.21,286.89Z" transform="translate(-300.9 -202.7)"/><path class="cls-8" d="M403.55,273.28l-8.84,6.24c-.14.1-.33.14-.42.26-3.77,5.19-8.83,4.61-14.08,3.14-.85-.24-2.2-.28-2.42-.8-.43-1,.74-1.7,1.41-2.39a82.78,82.78,0,0,1,10.89-9.44c.61-.44,1.09-.92,2-.63C395.76,270.89,399.55,272,403.55,273.28Z" transform="translate(-300.9 -202.7)"/><path class="cls-8" d="M390.1,338.74l-13.62-4.4L369.16,332a3.18,3.18,0,0,1-2.21-2.12,36.27,36.27,0,0,1-2.14-8.12c1-.44,1.79.24,2.56.54,3.32,1.27,6.55,2.84,10,3.59s5.34,3.07,7.22,5.79a30.31,30.31,0,0,0,5.81,6.44Z" transform="translate(-300.9 -202.7)"/><path class="cls-8" d="M583.55,315.44c-.19,1.67-.42,3.32-.56,5-.07.86-.44,1.23-1.27,1-2.79-.69-5.63-.29-8.45-.38-1.23,0-1.72-.25-1.38-1.77A34.16,34.16,0,0,0,573,310.7a2.23,2.23,0,0,1,.84-1.72c1.89-1.87,3.8-3.73,5.65-5.65,1.21-1.25,1.87-1,2.31.62A73.38,73.38,0,0,1,583.55,315.44Z" transform="translate(-300.9 -202.7)"/><path class="cls-8" d="M370.08,297.51c2.08.61,4.49.49,6.88.62,1.33.07,2.41.42,1.6,2.3a26.54,26.54,0,0,0-1.71,9.19c-.06,1.14-.35,2.27-1.88,1.9-3-.73-6.1-.22-9.11-.91-1.23-.28-1.5-.69-1.32-1.78a56.06,56.06,0,0,1,2.39-10.06C367.55,297.14,368.74,297.69,370.08,297.51Z" transform="translate(-300.9 -202.7)"/><path class="cls-6" d="M376.55,297.07c-2.46-.18-4.85-.38-7.24-.53-1.09-.07-1.23-.51-.79-1.43a55,55,0,0,1,6.84-11c.81-1,1.85-.68,2.75-.55,2.69.39,5.34,1,8,1.4,1.53.22,1.41.73.6,1.7a49.19,49.19,0,0,0-6.45,9.42C379.38,298,377.74,296.64,376.55,297.07Z" transform="translate(-300.9 -202.7)"/><path class="cls-8" d="M438.9,260.39c-4.91,1.33-9.19,2.52-13.49,3.62a3.82,3.82,0,0,1-2.2-.14c-4-1.58-8-3.24-12.39-5.06,2.55-1.58,5.15-2.06,7.42-3.22,4.35-2.21,8.39-2.22,12.53.66C433.06,257.85,435.77,258.83,438.9,260.39Z" transform="translate(-300.9 -202.7)"/><path class="cls-8" d="M365.44,312.14c3.25-.45,6.6.57,10,.47.83,0,1.5.2,1.56,1.19a32,32,0,0,0,2.73,10c.18.44.43,1.09.24,1.38-.42.64-1.06.11-1.57-.08-4.11-1.54-8.19-3.12-12.3-4.66a2.87,2.87,0,0,1-2-2.81v-4.5C364.06,312.31,364,311.46,365.44,312.14Z" transform="translate(-300.9 -202.7)"/><path class="cls-8" d="M573.78,331.05h-5c-1.67,0-2.42-.34-1.15-1.9s1.28-4,3.49-4.93c0-4.08,3.09-1.61,4.71-2.09,1-.31,2.29.17,3.44.31,3.6.44,3.61.44,2.75,3.89-.08.32-.21.63-.31.94-1.16,3.87-1.16,3.87-5.16,3.77h-2.77Z" transform="translate(-300.9 -202.7)"/><path class="cls-7" d="M456,336.46a23.85,23.85,0,0,1,3,.32c2.52.58,4.59,2,4.94,4.64s-1,4.67-3,6.18c-3.75,2.83-7.93,4-12.59,2.78-2.28-.6-4.33-1.63-4.68-4.24a6.67,6.67,0,0,1,2.85-6.52A14.34,14.34,0,0,1,456,336.46Z" transform="translate(-300.9 -202.7)"/><path class="cls-7" d="M465,310c0-4.87,2.07-7.82,7-9.36,6.14-1.92,14.34-.06,18.49,5.88,4.26,6.1,1.83,13-5.3,15.19-7.29,2.23-16.86-1.65-19.56-8.33A7.84,7.84,0,0,1,465,310Z" transform="translate(-300.9 -202.7)"/><path class="cls-7" d="M482.13,276.05a13.85,13.85,0,0,1,11.48,4.79,6.9,6.9,0,0,1-2.33,11.33c-5.59,2.48-14.12-.22-17-5.09-3-5.08-.23-10.24,6.09-11A11.46,11.46,0,0,1,482.13,276.05Z" transform="translate(-300.9 -202.7)"/><path class="cls-9" d="M620.55,407.87a8.3,8.3,0,0,1-6.25,7.65c-4,1.1-7.9-.15-9.63-3.13a6.13,6.13,0,0,1-.37-5.28c2-5.54,10.78-7.39,14.76-3.1A4.84,4.84,0,0,1,620.55,407.87Z" transform="translate(-300.9 -202.7)"/><path class="cls-9" d="M587.61,395.14c.05,3.66-.93,5.86-2.83,6.32-1.71.42-4-1.37-5.52-4.31a17.89,17.89,0,0,1-2.2-10.06c.16-1.85.61-3.8,2.63-4.42s3.47.67,4.57,2.25A16.82,16.82,0,0,1,587.61,395.14Z" transform="translate(-300.9 -202.7)"/><path class="cls-9" d="M556,375c.48-1.88,0-4.49,2.55-5.12,2.35-.58,3.54,1.54,4.51,3.2a18.49,18.49,0,0,1,2.53,12.14c-.19,1.39-.62,2.73-2,3.17-1.57.48-2.7-.62-3.58-1.74C557.32,383.28,556.38,379.28,556,375Z" transform="translate(-300.9 -202.7)"/><path class="cls-9" d="M402.63,418.57c-3,0-4.22-1.77-3.16-4.54,1.59-4.17,6.87-7.81,11-7.58,2.48.13,3.54,1.64,2.84,4C412.18,414.49,406.79,418.56,402.63,418.57Z" transform="translate(-300.9 -202.7)"/><path class="cls-9" d="M404,381c2,0,2.61,1,1.58,2.69a14.11,14.11,0,0,1-8.43,6.23c-1.67.48-2.67-.61-2.18-2.14C395.86,385,401.16,381.05,404,381Z" transform="translate(-300.9 -202.7)"/><path class="cls-7" d="M538.71,290a9.52,9.52,0,0,1,3.57.49,5.84,5.84,0,0,1,3.05,8.38c-2.26,3.93-8.86,5.9-13,4.08-5.07-2.23-4.82-7.75-.92-10.82C533.38,290.59,535.47,290,538.71,290Z" transform="translate(-300.9 -202.7)"/><path class="cls-7" d="M432.72,300c-2.66.14-5-.15-6.91-2a5.81,5.81,0,0,1,0-8.94c3.87-3.59,8.51-5.32,13.9-4.29,3,.58,5.69,1.9,6.21,5.22s-1.7,5.66-4.24,7.34C439,299.21,435.94,300.44,432.72,300Z" transform="translate(-300.9 -202.7)"/><path class="cls-7" d="M418,315.44a6.54,6.54,0,0,1-3.46,5.2c-2.9,1.74-6,2.68-9.45,1-2.88-1.45-3.73-4.41-1.77-7,2.34-3.13,8.23-5.34,12.53-2.64A5.39,5.39,0,0,1,418,315.44Z" transform="translate(-300.9 -202.7)"/><path class="cls-7" d="M536.61,343.07c-4.89,0-8.08-3.22-8.06-8.11s3.43-8.4,8.21-8.41c5,0,8.31,3.39,8.3,8.54C545,340,541.8,343.08,536.61,343.07Z" transform="translate(-300.9 -202.7)"/><path class="cls-9" d="M612.13,288.54c0,3.72-2.64,6.56-6.06,6.53s-6.52-3.46-6.54-7.22a6.12,6.12,0,0,1,5.85-6.37h.33C609.46,281.49,612.13,284.44,612.13,288.54Z" transform="translate(-300.9 -202.7)"/><path class="cls-9" d="M350.63,309.28c-.06,2.55-3.83,5.42-6.3,4.74-1.86-.51-1.63-2-1.07-3.21a6.61,6.61,0,0,1,5-3.66C349.74,306.88,350.69,307.65,350.63,309.28Z" transform="translate(-300.9 -202.7)"/><path class="cls-9" d="M347.61,300.23c-1.31,2.5-4.75,2.64-7,.29.47-.08,1-.06.94-.81-.21-2.36,1.29-2.59,3.14-2.7C347.08,296.87,346.63,299.14,347.61,300.23Z" transform="translate(-300.9 -202.7)"/><path class="cls-9" d="M356.06,306.32a1.45,1.45,0,0,1-1.55-1.53c-.08-1.65,2.14-3.79,4.17-4,1.17-.11,1.93.28,1.92,1.61C360.55,304.14,358.28,306.21,356.06,306.32Z" transform="translate(-300.9 -202.7)"/><path class="cls-10" d="M347.61,300.23c-1-1.07-.53-3.36-3-3.22-1.85.11-3.35.33-3.14,2.7.07.75-.47.72-.94.81h0c0-.35-.12-.58-.53-.52h0a9.61,9.61,0,0,1,0-3.51h0l1-1h0l.53-.53h0a10.39,10.39,0,0,1,5,0h0a2.32,2.32,0,0,0,1.52,1h0a1,1,0,0,0,.52,1h0a4,4,0,0,1-.67,3,.21.21,0,0,0-.29.27Z" transform="translate(-300.9 -202.7)"/><path class="cls-9" d="M331.78,296.51c-1-.13-1.79-.51-1.77-1.82a3.88,3.88,0,0,1,3.41-3.12,1.58,1.58,0,0,1,1.71,1.72A3.4,3.4,0,0,1,331.78,296.51Z" transform="translate(-300.9 -202.7)"/><path class="cls-9" d="M346.55,295.07a10.39,10.39,0,0,0-5,0C343.21,293.76,344.89,293.33,346.55,295.07Z" transform="translate(-300.9 -202.7)"/><path class="cls-9" d="M340.07,296.55a9.61,9.61,0,0,0,0,3.51C339,298.89,338.4,297.72,340.07,296.55Z" transform="translate(-300.9 -202.7)"/><path class="cls-9" d="M347.86,300.06a4,4,0,0,0,.67-3C349.25,298.25,349.64,299.4,347.86,300.06Z" transform="translate(-300.9 -202.7)"/><path class="cls-9" d="M348,296.08a2.32,2.32,0,0,1-1.52-1C347.28,295,348,295.08,348,296.08Z" transform="translate(-300.9 -202.7)"/><path class="cls-9" d="M341.07,295.55l-1,1C340,295.82,340.29,295.45,341.07,295.55Z" transform="translate(-300.9 -202.7)"/><path class="cls-9" d="M348.55,297.07a1,1,0,0,1-.52-1C348.55,296.22,348.55,296.64,348.55,297.07Z" transform="translate(-300.9 -202.7)"/><path class="cls-9" d="M340,300c.41-.06.52.18.53.52Z" transform="translate(-300.9 -202.7)"/><path class="cls-9" d="M341.55,295.05l-.53.53Z" transform="translate(-300.9 -202.7)"/><path class="cls-9" d="M402.15,219c3.18,0,4.3,1.72,3.06,4.71a8.75,8.75,0,0,1-8.23,4.94c-1.76-.13-2.49-1-2.5-2.73C394.44,222.31,398.1,219,402.15,219Z" transform="translate(-300.9 -202.7)"/><path class="cls-9" d="M392.55,248.59c-2.5,0-3.47-1.4-2.47-3.73,1.57-3.67,4.68-5.49,8.38-6.25A2.51,2.51,0,0,1,401.4,242C400.37,245.23,395.84,248.62,392.55,248.59Z" transform="translate(-300.9 -202.7)"/></svg>