<svg id="Ebene_1" data-name="Ebene 1" xmlns="http://www.w3.org/2000/svg" viewBox="0 0 344.49 243.52"><defs><style>.cls-1{fill:#9a4d44;}.cls-2{fill:#d2a26d;}.cls-3{fill:#fefefe;}</style></defs><title>seaturtle</title><path class="cls-1" d="M1012.6,405.55c-21.38-13-38.39-28.5-38.74-56-3.51,2.68-7,5-11.09,6.16-15,4.26-29.59,4.12-43.52-3.74a16.64,16.64,0,0,1-4.45-4c-4-4.8-3.07-11.14,2.25-15.32a28.59,28.59,0,0,1,9.22-4.88c13.88-4.28,27.58-4,40.95,2a19.44,19.44,0,0,1,9.07,8.11,58.19,58.19,0,0,1,11.26-19.09,13.44,13.44,0,0,1,2.36-2.56c4.2-2.73,3.81-7.12,4-11.17.85-15.3,1.52-30.6,2.28-45.91q.41-8.23.89-16.46c.13-2.22,1-2.79,3.12-1.93q13.38,5.53,26.74,11.13c2.1.88,2.76,3.07,1.9,5.62Q1022.41,276.76,1016,296c-.13.39-.21.79-.4,1.49,2.32-.34,4.11-1.56,6-2.38,15-6.48,30.65-10,46.82-11.47a169.49,169.49,0,0,1,49.73,2.53c19.26,3.93,37.41,10.73,53.21,22.88a70,70,0,0,1,15.49,16.09c1.25,1.84,2.11,1.19,3.29.23l17.55-14.39c4-3.27,8-6.51,12-9.81a3.61,3.61,0,0,1,4.06-.69c9.56,3.65,19.18,7.17,28.78,10.74.7.26,1.44.45,2.11.78s2-.3,2.17.77c.25,1.26-1.09,1.53-1.86,2-18.7,12.55-37.38,25.13-56.17,37.54a5,5,0,0,0-2.58,4.44c-.78,10.73-5.18,20-12,28.19-1.4,1.68-1.23,2.78.32,4.14q17.11,15.12,34.16,30.32,12.12,10.79,24.2,21.62c3.29,2.94,6.59,5.87,9.86,8.82.53.48,1.41,1,1.09,1.79-.4,1-1.27.15-1.9.24a42.38,42.38,0,0,0-5.08,1.16q-14.08,3.91-28.13,7.89a3,3,0,0,0-2.15,1.32c-.88,1.39-2.71.11-3.15-.45-2.86-3.68-6.86-6-10.37-8.78-16.65-13.38-33.48-26.54-50.11-40-2.63-2.12-4.64-2.57-7.88-1.25-16.6,6.75-34,9.88-51.85,10.62a169.94,169.94,0,0,1-54.32-6.41c-1.24-.36-1.62-.23-2.33,1-2.82,5.06-2,10.64-2.48,16-1.51,16.49-2.7,33-3.9,49.53-.15,2.11-1.41,1.26-2.24,1.1-6.13-1.17-12.25-2.44-18.37-3.67-1.3-.26-2.64-.39-3.92-.75s-4.6.56-2.41-2.92c.19-.31-.14-1-.26-1.44q-6.5-28-13-55.95c-1.16-5-.65-5.84,4.38-7.45C1000.32,409.56,1006.29,407.6,1012.6,405.55Zm238.14,44.68c-7-6.2-13.53-12-20-17.79q-24-21.45-48-43c-1.09-1-1.75-1.13-2.85,0a90.92,90.92,0,0,1-27.18,18.89c-1.88.89-1.5,1.41-.21,2.42q10.31,8.07,20.57,16.22,19.83,15.75,39.61,31.57a4.7,4.7,0,0,0,4.9,1c3.94-1.25,8-2.24,11.95-3.36C1236.39,454.3,1243.31,452.33,1250.74,450.23Zm-215.08-35.16c-3-1.71-6-1.79-8.63-3.22-3.19-1.75-6.66-3-10-4.51a3.8,3.8,0,0,0-3-.34c-6.52,2.12-13.08,4.11-19.59,6.27-2.87.95-3.53,2.39-2.88,5.25q3.56,15.47,7.11,30.93c2,8.62,4,17.24,6,25.84.23.94.18,2.2,1.65,2.49,6.82,1.31,13.63,2.65,20.43,4,1.32.27,1.64-.08,1.74-1.37.57-7.53,1.26-15,1.87-22.57.41-5,.75-10.1,1.14-15.15.61-7.77,1.26-15.54,1.83-23.32C1033.47,417.72,1033.57,416.11,1035.66,415.07Zm160.56-63,57.63-38.57c-.49-.25-.76-.41-1.06-.52-9.78-3.65-19.59-7.25-29.33-11-1.61-.62-2.49.1-3.49.93-9.91,8.11-19.79,16.26-29.73,24.33-1.05.86-1.29,1.46-.58,2.66A48.76,48.76,0,0,1,1196.22,352.11Zm-281.43-7c3.15,5.17,7.94,7.43,13,9.13a56,56,0,0,0,26.54,1.91c6.07-.94,11.95-2.7,16.9-6.7,4-3.21,6-9,1.49-13.65a24.21,24.21,0,0,0-10.09-6.18,55.35,55.35,0,0,0-24-2.71c-6.51.75-12.79,2-18.36,5.55-3.42,2.18-6.41,4.78-6.28,9.46,0,1.59.63,2,2.11,1.82,6.36-.66,12.75-.88,19.15-1,.62,0,1.58-.42,1.65.49.09,1.15-1,.76-1.68.8C928.53,344.4,921.83,344.75,914.79,345.13Zm80.34-33.85a3.73,3.73,0,0,0,.86-.36,82.27,82.27,0,0,1,15.64-10.63,4.44,4.44,0,0,0,2.21-2.81q1.9-5.79,3.83-11.57,4.67-14,9.33-28.09c.55-1.68,1.13-3.55-1.07-4.49-8.55-3.63-17.14-7.17-25.71-10.77-1.24-.52-1.55-.13-1.61,1.12-.46,9.71-1,19.42-1.47,29.14-.39,8.22-.55,16.46-1.17,24.66-.21,2.74,1.24,5.33.2,8.11A32.09,32.09,0,0,0,995.12,311.27Z" transform="translate(-912.31 -240.44)"/><path class="cls-2" d="M1250.74,450.23c-7.43,2.1-14.35,4.07-21.27,6-4,1.12-8,2.1-11.95,3.36a4.7,4.7,0,0,1-4.9-1Q1192.87,442.73,1173,427q-10.26-8.15-20.57-16.22c-1.29-1-1.68-1.54.21-2.42a90.92,90.92,0,0,0,27.18-18.89c1.09-1.13,1.76-1,2.85,0q24,21.52,48,43C1237.21,438.25,1243.75,444,1250.74,450.23Zm-35.3-3.12a6.28,6.28,0,0,0,4.69,6.25,9.51,9.51,0,0,0,10.45-3.26,6.43,6.43,0,0,0,.44-7.61c-1.68-2.52-5.72-3.67-9.17-2.62C1217.84,441.09,1215.47,443.76,1215.44,447.11Zm-16.38-14.19a16.85,16.85,0,0,0-3.22-10c-1.13-1.67-2.6-3.1-4.72-2.41s-2.48,2.72-2.62,4.68a18,18,0,0,0,2.24,9.81c1.54,2.92,3.82,4.71,5.53,4.27C1198.14,438.78,1199.1,436.61,1199.06,432.92Zm-31.63-20.06c.38,4.27,1.35,8.18,3.89,11.53.86,1.14,2,2.26,3.53,1.9s2-1.8,2.2-3.28a18.22,18.22,0,0,0-2.49-11.9c-1-1.73-2.17-4-4.66-3.33S1167.91,411.08,1167.43,412.86Z" transform="translate(-912.31 -240.44)"/><path class="cls-2" d="M1035.66,415.07c-2.09,1-2.19,2.65-2.31,4.34-.57,7.78-1.22,15.55-1.83,23.32-.39,5-.73,10.1-1.14,15.15-.61,7.52-1.3,15-1.87,22.57-.1,1.3-.42,1.64-1.74,1.37-6.8-1.4-13.61-2.73-20.43-4-1.47-.28-1.42-1.55-1.65-2.49-2.06-8.6-4-17.22-6-25.84q-3.57-15.46-7.11-30.93c-.66-2.85,0-4.3,2.88-5.25,6.51-2.16,13.07-4.15,19.59-6.27a3.8,3.8,0,0,1,3,.34c3.31,1.54,6.78,2.76,10,4.51C1029.64,413.28,1032.66,413.36,1035.66,415.07Zm-14.16,29.25c-4.22,0-9.42,3.86-10.74,8-.76,2.37.47,4,3,4.13,4.15.13,9.53-3.73,10.88-7.8C1025.58,445.86,1024.46,444.33,1021.49,444.32Zm-5.91-25.45c-2.88-.05-8.42,4.08-9.2,6.87a1.58,1.58,0,0,0,2.09,2.06,14,14,0,0,0,8.61-6.34C1018,419.88,1017.39,418.91,1015.58,418.87Z" transform="translate(-912.31 -240.44)"/><path class="cls-2" d="M1196.22,352.11a48.76,48.76,0,0,0-6.56-22.17c-.71-1.2-.47-1.8.58-2.66,9.94-8.07,19.83-16.21,29.73-24.33,1-.82,1.88-1.55,3.49-.93,9.75,3.75,19.55,7.34,29.33,11,.29.11.56.28,1.06.52Zm27.35-25.84c0-4.06-2.76-6.94-6.54-6.92a6.13,6.13,0,0,0-6,6.5c.09,3.76,3.28,7.15,6.67,7.08S1223.6,330,1223.57,326.26Z" transform="translate(-912.31 -240.44)"/><path class="cls-2" d="M914.79,345.13c7-.38,13.75-.73,20.45-1.11.65,0,1.77.35,1.68-.8-.07-.91-1-.51-1.65-.49-6.39.16-12.78.38-19.15,1-1.48.15-2.06-.23-2.11-1.82-.13-4.68,2.86-7.28,6.28-9.46,5.58-3.54,11.85-4.8,18.36-5.55a55.35,55.35,0,0,1,24,2.71,24.21,24.21,0,0,1,10.09,6.18c4.49,4.69,2.48,10.44-1.49,13.65-5,4-10.83,5.77-16.9,6.7a56,56,0,0,1-26.54-1.91C922.72,352.56,917.94,350.3,914.79,345.13Zm37.72-11.69h0c-.78-.1-1.08.27-1,1v0c-1.7,1.17-1.06,2.33,0,3.49l0,0,.52.52,0-.06c2.21,2.41,5.79,2.28,7-.26l.08-.18h.2c1.84-.62,1.43-1.77.7-3v0c0-.43,0-.86-.52-1l0,0c0-1-.76-1-1.51-1l0,0c-1.67-1.76-3.33-1.32-5,0l0,0Zm9.57,13.41c.1-1.28-.81-1.86-2.14-1.88-1.77,0-4.91,2.26-5.36,4-.32,1.21-.49,2.56,1.26,3C958.35,352.49,962.06,349.61,962.07,346.84Zm5.38-2.65c1.84.07,4.4-2.08,4.57-3.69.13-1.29-.51-1.86-1.7-1.87-1.8,0-4.26,2.2-4.36,3.81A1.51,1.51,0,0,0,967.46,344.19Zm-22.56-14.77c-1.68.09-3.5,1.89-3.42,3.25s.93,1.71,2,1.66a3.27,3.27,0,0,0,3.06-3.32A1.53,1.53,0,0,0,944.89,329.42Z" transform="translate(-912.31 -240.44)"/><path class="cls-2" d="M995.12,311.27a32.09,32.09,0,0,1,1-5.68c1-2.79-.41-5.37-.2-8.11.62-8.2.78-16.44,1.17-24.66.47-9.71,1-19.42,1.47-29.14.06-1.26.37-1.64,1.61-1.12,8.57,3.6,17.16,7.14,25.71,10.77,2.21.94,1.63,2.81,1.07,4.49q-4.64,14.05-9.33,28.09-1.92,5.78-3.83,11.57a4.44,4.44,0,0,1-2.21,2.81A82.27,82.27,0,0,0,996,310.91,3.73,3.73,0,0,1,995.12,311.27Zm18.53-54.44c-4,0-7.56,3.11-7.72,6.61-.09,1.91.65,3,2.69,3a8.78,8.78,0,0,0,8-4.9C1017.92,258.59,1016.8,256.82,1013.65,256.83ZM1004,286.45c3.35,0,8-3.55,8.83-6.76a2.48,2.48,0,0,0-2.93-3.21c-3.74.75-6.87,2.57-8.44,6.28C1000.5,285.07,1001.51,286.45,1004,286.45Z" transform="translate(-912.31 -240.44)"/><path class="cls-1" d="M1215.44,447.11c0-3.34,2.4-6,6.42-7.24,3.44-1,7.48.11,9.17,2.62a6.43,6.43,0,0,1-.44,7.61,9.51,9.51,0,0,1-10.45,3.26A6.28,6.28,0,0,1,1215.44,447.11Z" transform="translate(-912.31 -240.44)"/><path class="cls-1" d="M1199.06,432.92c0,3.68-.91,5.86-2.8,6.34-1.71.44-4-1.35-5.53-4.27a18,18,0,0,1-2.24-9.81c.14-2,.54-4,2.62-4.68s3.6.74,4.72,2.41A16.83,16.83,0,0,1,1199.06,432.92Z" transform="translate(-912.31 -240.44)"/><path class="cls-1" d="M1167.43,412.86c.48-1.79-.11-4.42,2.47-5.08s3.66,1.6,4.66,3.33A18.22,18.22,0,0,1,1177,423c-.21,1.48-.62,2.92-2.2,3.28s-2.67-.77-3.53-1.9C1168.78,421,1167.81,417.13,1167.43,412.86Z" transform="translate(-912.31 -240.44)"/><path class="cls-1" d="M1021.49,444.32c3,0,4.08,1.54,3.16,4.31-1.35,4.07-6.73,7.93-10.88,7.8-2.55-.08-3.77-1.75-3-4.13C1012.07,448.19,1017.28,444.32,1021.49,444.32Z" transform="translate(-912.31 -240.44)"/><path class="cls-1" d="M1015.58,418.87c1.81,0,2.44,1,1.5,2.59a14,14,0,0,1-8.61,6.34,1.58,1.58,0,0,1-2.09-2.06C1007.16,423,1012.71,418.82,1015.58,418.87Z" transform="translate(-912.31 -240.44)"/><path class="cls-1" d="M1223.57,326.26c0,3.76-2.48,6.6-5.91,6.67s-6.58-3.32-6.67-7.08a6.13,6.13,0,0,1,6-6.5C1220.81,319.32,1223.54,322.2,1223.57,326.26Z" transform="translate(-912.31 -240.44)"/><path class="cls-1" d="M962.07,346.84c0,2.77-3.73,5.64-6.24,5.05-1.75-.41-1.57-1.75-1.26-3,.44-1.71,3.58-4,5.36-4C961.27,345,962.17,345.56,962.07,346.84Z" transform="translate(-912.31 -240.44)"/><path class="cls-1" d="M959,338.08c-1.18,2.54-4.76,2.67-7,.26.45-.12.92-.1.85-.86-.21-2.13,1.11-2.56,2.91-2.68C958.24,334.64,958.41,336.51,959,338.08Z" transform="translate(-912.31 -240.44)"/><path class="cls-3" d="M959,338.08c-.58-1.57-.75-3.44-3.21-3.28-1.8.12-3.12.55-2.91,2.68.08.76-.4.74-.85.86l0,.06c0-.4,0-.68-.52-.52l0,0q0-1.74,0-3.49v0a1.38,1.38,0,0,0,1-1h0c.3-.05.56-.14.52-.52l0,0a13.84,13.84,0,0,1,5,0l0,0a1.76,1.76,0,0,0,1.51,1l0,0a.77.77,0,0,0,.52,1v0a4.57,4.57,0,0,1-.7,3h-.2Z" transform="translate(-912.31 -240.44)"/><path class="cls-1" d="M967.46,344.19a1.51,1.51,0,0,1-1.49-1.76c.09-1.61,2.56-3.82,4.36-3.81,1.19,0,1.84.59,1.7,1.87C971.86,342.12,969.3,344.26,967.46,344.19Z" transform="translate(-912.31 -240.44)"/><path class="cls-1" d="M944.89,329.42a1.53,1.53,0,0,1,1.67,1.59,3.27,3.27,0,0,1-3.06,3.32c-1.11,0-2-.37-2-1.66S943.21,329.51,944.89,329.42Z" transform="translate(-912.31 -240.44)"/><path class="cls-1" d="M958,332.94a13.84,13.84,0,0,0-5,0C954.67,331.62,956.33,331.17,958,332.94Z" transform="translate(-912.31 -240.44)"/><path class="cls-1" d="M951.53,334.42q0,1.74,0,3.49C950.47,336.74,949.83,335.58,951.53,334.42Z" transform="translate(-912.31 -240.44)"/><path class="cls-1" d="M959.27,337.9a4.57,4.57,0,0,0,.7-3C960.7,336.13,961.11,337.28,959.27,337.9Z" transform="translate(-912.31 -240.44)"/><path class="cls-1" d="M959.48,333.94a1.76,1.76,0,0,1-1.51-1C958.72,332.9,959.43,332.93,959.48,333.94Z" transform="translate(-912.31 -240.44)"/><path class="cls-1" d="M952.53,333.43a1.38,1.38,0,0,1-1,1C951.45,333.7,951.75,333.32,952.53,333.43Z" transform="translate(-912.31 -240.44)"/><path class="cls-1" d="M960,334.94a.77.77,0,0,1-.52-1C960,334.08,960,334.5,960,334.94Z" transform="translate(-912.31 -240.44)"/><path class="cls-1" d="M953,332.92c0,.38-.23.47-.52.52Z" transform="translate(-912.31 -240.44)"/><path class="cls-1" d="M951.51,337.87c.51-.16.57.13.52.52Z" transform="translate(-912.31 -240.44)"/><path class="cls-1" d="M1013.65,256.83c3.15,0,4.27,1.77,3,4.75a8.78,8.78,0,0,1-8,4.9c-2-.08-2.78-1.13-2.69-3C1006.09,259.94,1009.69,256.83,1013.65,256.83Z" transform="translate(-912.31 -240.44)"/><path class="cls-1" d="M1004,286.45c-2.53,0-3.53-1.37-2.54-3.7,1.58-3.71,4.7-5.52,8.44-6.28a2.48,2.48,0,0,1,2.93,3.21C1012,282.9,1007.38,286.44,1004,286.45Z" transform="translate(-912.31 -240.44)"/></svg>