<svg id="Ebene_1" data-name="Ebene 1" xmlns="http://www.w3.org/2000/svg" viewBox="0 0 1080.09 810.09"><defs><style>.cls-1{fill:#fefefe;}.cls-2{fill:#0c0b0b;}.cls-3{fill:#9a4d44;}.cls-4{fill:#d2a26d;}.cls-5{fill:#d2a16d;}.cls-6{fill:#d1a16d;}.cls-7{fill:#705245;}.cls-8{fill:#705145;}.cls-9{fill:#6f5245;}.cls-10{fill:#7e584a;}.cls-11{fill:#e8dfcc;}</style></defs><title>seaturtle</title><path class="cls-1" d="M611.5,37.91q538.88,0,1077.75,0c1.87,0,2.3.42,2.3,2.3q-.07,402.75,0,805.5c0,1.87-.42,2.3-2.3,2.3q-537.75-.07-1075.5,0c-1.87,0-2.3-.42-2.3-2.3Q611.53,441.79,611.5,37.91ZM976.29,338.12c-3.85-6.2-9.62-9-16-10.79a59.08,59.08,0,0,0-29.15-.75,33.92,33.92,0,0,0-14,6.23c-6,4.71-6.35,11.24-1,16.56a21.47,21.47,0,0,0,5.46,3.91c8.18,4.13,16.94,5.34,26,5s17.85-2.14,25.19-8.14c.31-.25.61-.65,1.07-.37.65.39.35,1.06.34,1.58-.23,13.86,5.46,25.31,14.46,35.38a87.31,87.31,0,0,0,22.05,17.41c.62.35,1.67.48,1.64,1.32,0,1-1.14.68-1.79.9-6.08,2-12.17,3.94-18.24,6-2.41.81-3.32,2.79-2.58,5.24.17.56.29,1.13.42,1.7q6.46,27.82,12.91,55.64c.15.64.49,1.63.21,1.9-2.43,2.31.7,1.85,1.27,2.28s1.75.19,2.64.37c6.77,1.34,13.55,2.67,20.31,4.1,1.84.39,2.69.15,2.55-2a36.47,36.47,0,0,1,.32-5.23c1.09-13.78,2-27.57,3.39-41.32.6-5.9-.36-12,2.56-17.7.82-1.59,1.26-1.77,2.84-1.32a169,169,0,0,0,53.06,6.39c19-.7,37.5-4.2,55.15-11.54a2.85,2.85,0,0,1,3.34.41q25.26,20.17,50.62,40.21c3.65,2.9,7.39,5.69,10.89,8.76,1.7,1.49,2.91,3.73,5.25.93.13-.16.47-.13.71-.2l32.19-9a6.58,6.58,0,0,1,1.44-.33c.64,0,1.45,1.1,1.86-.07.27-.78-.68-1.25-1.22-1.73q-7.71-6.93-15.45-13.83-26.3-23.41-52.63-46.79c-1.66-1.47-1.75-2.61-.32-4.34,6.74-8.12,11.16-17.31,11.9-27.94a5.67,5.67,0,0,1,3-4.95q27.46-18.19,54.77-36.6c1.05-.71,3-1.07,2.79-2.48-.17-1.19-2.09-.74-3.19-1.17-8.3-3.2-16.8-5.93-24.93-9.5-5.1-2.24-8.56-1.55-12.7,2.18-8.09,7.29-16.76,13.94-25.23,20.8-1,.8-2,2.49-3.54.24-9.42-13.52-22.51-22.44-37.27-29.11-19.54-8.82-40.18-12.81-61.54-13.22-24.44-.47-48,3.48-70.35,13.86-.63.29-1.34,1.09-2,.46s.07-1.39.29-2.06q6.3-18.94,12.64-37.87c.82-2.45.17-4.54-1.82-5.38q-13.34-5.59-26.7-11.14c-2-.85-2.8-.38-2.92,1.78q-.74,13.47-1.42,26.95-1,19.71-2,39.42a8.74,8.74,0,0,1-3,6.5A53.31,53.31,0,0,0,981,328.12,81,81,0,0,0,976.29,338.12Z" transform="translate(-611.45 -37.86)"/><path class="cls-2" d="M976.29,338.12a81,81,0,0,1,4.71-10,53.31,53.31,0,0,1,9.85-12.51,8.74,8.74,0,0,0,3-6.5q1.05-19.71,2-39.42.7-13.47,1.42-26.95c.12-2.16.88-2.63,2.92-1.78q13.36,5.54,26.7,11.14c2,.84,2.65,2.93,1.82,5.38q-6.34,18.93-12.64,37.87c-.22.67-.92,1.46-.29,2.06s1.37-.17,2-.46c22.32-10.37,45.91-14.32,70.35-13.86,21.36.41,42,4.4,61.54,13.22,14.76,6.66,27.85,15.59,37.27,29.11,1.57,2.25,2.55.56,3.54-.24,8.47-6.86,17.14-13.51,25.23-20.8,4.13-3.72,7.6-4.42,12.7-2.18,8.13,3.57,16.63,6.3,24.93,9.5,1.1.43,3,0,3.19,1.17.2,1.41-1.74,1.78-2.79,2.48Q1226.41,333.72,1199,352a5.67,5.67,0,0,0-3,4.95c-.74,10.63-5.16,19.83-11.9,27.94-1.43,1.72-1.34,2.87.32,4.34Q1210.74,412.55,1237,436q7.74,6.89,15.45,13.83c.54.48,1.49,1,1.22,1.73-.41,1.17-1.23,0-1.86.07a6.58,6.58,0,0,0-1.44.33l-32.19,9c-.24.07-.58,0-.71.2-2.34,2.79-3.55.55-5.25-.93-3.51-3.06-7.24-5.86-10.89-8.76q-25.32-20.09-50.62-40.21a2.85,2.85,0,0,0-3.34-.41c-17.65,7.34-36.1,10.84-55.15,11.54a169,169,0,0,1-53.06-6.39c-1.58-.45-2-.27-2.84,1.32-2.92,5.66-2,11.8-2.56,17.7-1.4,13.75-2.29,27.54-3.39,41.32a36.47,36.47,0,0,0-.32,5.23c.14,2.16-.71,2.39-2.55,2-6.76-1.43-13.53-2.76-20.31-4.1-.89-.17-2,.1-2.64-.37s-3.7,0-1.27-2.28c.28-.27-.06-1.26-.21-1.9q-6.44-27.82-12.91-55.64c-.13-.57-.25-1.14-.42-1.7-.74-2.45.17-4.44,2.58-5.24,6.07-2,12.16-4,18.24-6,.65-.21,1.76.11,1.79-.9,0-.84-1-1-1.64-1.32a87.31,87.31,0,0,1-22.05-17.41c-9-10.06-14.69-21.52-14.46-35.38,0-.53.32-1.2-.34-1.58-.46-.27-.76.12-1.07.37-7.33,6-16.07,7.74-25.19,8.14s-17.78-.82-26-5a21.47,21.47,0,0,1-5.46-3.91c-5.39-5.32-5-11.85,1-16.56a33.92,33.92,0,0,1,14-6.23,59.08,59.08,0,0,1,29.15.75C966.67,329.12,972.45,331.92,976.29,338.12Zm115.34,61.78-.58-.38a16.56,16.56,0,0,1,1-1.85q4.8-6.67,9.65-13.3c1.86-2.55,1.78-3.51-.85-5.3q-23.65-16.12-47.34-32.2c-1.28-.87-1.79-.7-2.57.64q-11.78,20.22-23.76,40.32c-1.2,2-.64,2.43,1.2,3.19a143.93,143.93,0,0,0,40.24,9.81,162,162,0,0,0,28.61.7,183.87,183.87,0,0,0,28.93-4.17,90.11,90.11,0,0,0,15.25-4.75c-.27-.3-.36-.49-.49-.53-11.46-3.47-22.93-6.91-34.38-10.43-1.16-.36-1.64.08-2.22.91-2.48,3.53-5,7.06-7.55,10.52C1095.1,395.37,1093.71,397.91,1091.64,399.9Zm-2.16-104c-1.29-.28-2.41.2-3.4,1.69q-15.34,23.13-30.83,46.16c-.92,1.37-1.3,2,.46,3.22q22.93,15.41,45.69,31.08c1.55,1.06,2.17.66,3-.79,6.26-10.56,12.51-21.14,19-31.58,1.66-2.68,2.27-5.1.95-8a36.35,36.35,0,0,1-1.39-4.5q-5-16.48-10-33c-.31-1-.43-2.11-2.06-2.37C1103.88,296.75,1096.83,296.55,1089.48,295.92ZM1150.81,409a5.94,5.94,0,0,0,2.08,2.25l23,18.26q18.64,14.79,37.26,29.62a3.74,3.74,0,0,0,3.79.73c10.62-3,21.25-6,31.88-9,.55-.15,1.41-.29,1.53-.65.27-.76-.66-1-1.12-1.43q-17.39-15.57-34.8-31.11-16-14.29-32-28.58c-1-.86-1.56-.84-2.47.06-2,2-4.14,3.85-6.21,5.78-4.14,3.84-9,6.74-13.72,9.72A41.9,41.9,0,0,1,1150.81,409Zm-159.89,7.43c.13.61.24,1.09.35,1.57q3.13,13.47,6.26,26.95c2.36,10.19,4.69,20.38,7.07,30.57a2.69,2.69,0,0,0,2.52,2.46c5.93,1,11.81,2.27,17.7,3.47,4,.82,3.93.83,4.18-3.35q.46-8,1.11-15.9c.59-7.36,1.3-14.71,1.88-22.08.56-7.2,1-14.4,1.57-21.6.07-.86,0-1.94,1.09-2.55,1.25-.72,1-1.19-.3-1.74-2.35-1-4.91-1.3-7.22-2.52-3.27-1.73-6.78-3-10.14-4.57a3.74,3.74,0,0,0-3-.27c-6.48,2.1-13,4-19.48,6.22C992.93,413.63,991.28,414.54,990.92,416.45ZM1113.48,298.3c4.69,14.43,8.43,28.73,13.22,42.7a3.17,3.17,0,0,0,2.39,2.39q13.2,4.28,26.36,8.64c7.85,2.6,15.67,5.25,23.53,7.82.6.2,1.29,1,2,.11,1.83-2.23,2.28-7.77.87-10.73a.73.73,0,0,1,.07-.67c2-1.89.89-4.08.42-6.07a39.81,39.81,0,0,0-5.7-12.33c-.75-1.16-2.5-.63-2.61-2.08s-1.16-2.52-2.15-3.51a75.31,75.31,0,0,0-16.3-12.21,113.41,113.41,0,0,0-22.58-9.48A146.63,146.63,0,0,0,1113.48,298.3Zm-119,33.08c2.48.54,4.72,1.06,7,1.51,17,3.43,34,6.83,51,10.34,1.29.27,1.8.1,2.49-.94,4.33-6.6,8.74-13.14,13.13-19.71l16.22-24.23c.41-.61,1.1-1.28.78-2s-1.35-.45-2-.42c-4.14.17-8.31.17-12.41.66q-8.83,1.06-17.6,2.61a158.87,158.87,0,0,0-19.12,5,88.58,88.58,0,0,0-20.7,9.61A60.8,60.8,0,0,0,994.5,331.37ZM989.74,352a32.21,32.21,0,0,0,5.36,14.2c6.89,10.27,16.7,16.93,27.65,22.15,1.08.52,2.06,1.49,3.17-.43,8.16-14.08,16.45-28.08,24.72-42.1.65-1.1.8-1.64-.76-2-9.8-1.95-19.58-4-29.37-6-8.17-1.67-16.39-3.14-24.49-5.14-2.09-.52-2.38.14-3.11,1.51A28.45,28.45,0,0,0,989.74,352Zm190.71,9.91c-.34-.67-1.15-.74-1.78-.95-7.06-2.37-14.13-4.7-21.19-7-9.57-3.17-19.23-6.12-28.66-9.66-2.84-1.07-3.4,0-4.54,1.88-6.06,10.29-12.22,20.53-18.36,30.78-1.73,2.9-1.74,2.89,1.38,3.84.16,0,.33.06.49.1,11.15,3.34,22.34,6.58,33.42,10.14a6.87,6.87,0,0,0,5.36-.33c11.82-5.23,22.65-11.8,30.37-22.55A32.83,32.83,0,0,0,1180.46,361.94Zm15.63-9.6,58-38.83c-1-.44-1.63-.77-2.31-1-9.27-3.44-18.57-6.83-27.81-10.35a3.61,3.61,0,0,0-4.16.71Q1205.16,315,1190.31,327c-1.29,1-1.49,1.8-.64,3.25A48.49,48.49,0,0,1,1196.09,352.34ZM914.85,345a6.73,6.73,0,0,0,2.33,3.41,24.76,24.76,0,0,0,9.34,5.49c9.09,3.33,18.49,3.75,27.93,2.36,6.06-.89,11.94-2.69,16.84-6.69,5.09-4.16,6-10.37.15-15.22a28.14,28.14,0,0,0-9.1-4.94,55.26,55.26,0,0,0-26.22-2.4c-6.5,1-12.82,2.62-18.08,6.9-2.4,1.95-4.11,4.31-4.2,7.57-.05,1.82.54,2.56,2.59,2.41,6.3-.48,12.61-.73,18.92-1.05.58,0,1.36-.41,1.73.91ZM995,311.76a102.82,102.82,0,0,1,17.72-12c.57-.3.67-.9.86-1.46,4.57-13.62,9.18-27.22,13.66-40.87.48-1.45.86-3.31-1.33-4.21q-12.93-5.35-25.83-10.79c-1.15-.48-1.57-.34-1.63,1q-.69,16.08-1.49,32.16c-.23,4.57-.53,9.13-.86,13.7-.25,3.49-.71,7.1-.3,10.44a24.52,24.52,0,0,1-.27,7.51C995.33,308.57,995.24,309.94,995,311.76Zm92,109.22c3.54-.4,8.14.38,12.68-.53.87-.17,1.55-.29.89-1.35-2.65-4.27-3.66-9.18-5.29-13.84-.63-1.78-1.44-2.42-3.36-2.39-7.56.12-15.13.23-22.63-.93-1.46-.23-1.9.38-1.84,1.79q.32,7.47.49,15c0,1.32.65,1.63,1.85,1.74C1075.24,420.91,1080.64,420.94,1087.05,421Zm-55.62-8.91c2.92,1.13,5.69,1.25,8.21,2.54,2.21,1.14,4.88,1.41,7.36,2,5.76,1.45,11.63,2.29,17.49,3.19,1.1.17,2.64.56,2.51-1.6-.29-5-.69-9.94-.56-14.93,0-1.28-.67-1.76-2-1.94-4.4-.6-8.81-1.27-13.15-2.23-2.25-.5-4-.8-5.66,1.31-.94,1.21-2.44,2-3.65,3C1038.52,406.23,1035.09,409.07,1031.43,412.08Zm126.26-7.82c-7.1-3.35-14.35-5-20.84-8.49-.28-.15-.79,0-1.17.17a188.79,188.79,0,0,1-19.18,4.69,136.4,136.4,0,0,0,9.76,14.34,2.31,2.31,0,0,0,2.89.67c4.38-1.48,8.85-2.71,13.2-4.27A93.59,93.59,0,0,0,1157.7,404.26Zm-56.4-1.74,0-.22c-1.15.14-2.29.35-3.45.4-1.73.08-2,.68-1.44,2.36a122.79,122.79,0,0,0,5.64,14.43,1.3,1.3,0,0,0,1.56.85c6.94-.91,13.86-2,20.71-3.45,1.21-.26.83-.64.38-1.47-2.39-4.38-5.67-8.17-8.17-12.45-1.18-2-2.34-2.17-4.4-1.78C1108.55,401.87,1104.91,402.1,1101.3,402.52ZM1179.67,388c-8.07-.73-15.62-.51-23.17-.52a2.68,2.68,0,0,0-1.17.35,119.65,119.65,0,0,1-17.1,7.31c.16.24.23.45.35.5q10,3.81,20,7.6a1.69,1.69,0,0,0,1.62-.2A90.84,90.84,0,0,0,1179.67,388Zm-186.33,1.53a80.75,80.75,0,0,0,16,12.16,3.53,3.53,0,0,0,2.89,0c3.81-1.08,7.64-2.11,11.46-3.17s7.63-1.78,11.66-3.5c-3.68-1.47-7-2.65-10.19-4.13a16.45,16.45,0,0,0-7.23-1.44c-6.74,0-13.49-.09-20.23-.06C996.38,389.33,995.08,388.55,993.34,389.49Zm26.28-1.23c-5.37-2.92-9.79-6.29-14.49-9.16-3-1.84-6.81-2.4-10.26-3.5-4.88-1.55-9.77-3.07-15.09-4.74,2.53,5.81,6,10.33,9.64,14.74a6.25,6.25,0,0,0,5.65,2.4C1003,387.73,1011,388.81,1019.62,388.26Zm138.26-1.87c7.3,0,13.94,0,20.58,0a5.08,5.08,0,0,0,4.3-2,60.62,60.62,0,0,0,6.75-10.09c1.89-3.74,1.9-3.88-2.28-4.26-5.41-.5-10.53-.93-14.47,4.61C1169.21,379.65,1163.65,382.76,1157.88,386.39Zm-68.24-102.06a4.72,4.72,0,0,0,2.28,2c4.68,3,9.41,5.92,14.09,8.92a8.12,8.12,0,0,0,3.19,1.19c4.87.81,9.78,1.51,14.57,2.79,2.94.78,5.91,1.43,8.86,2.14-3.08-3.48-6.63-6.26-9.67-9.52a15.73,15.73,0,0,0-10.51-5.28c-1.07-.1-2.13-.28-3.19-.44C1102.86,285.22,1096.43,284.69,1089.63,284.33Zm-27.77,1.75c4.4,2.32,8.34,4.42,12.3,6.47a19,19,0,0,0,10.27,2.44,58.87,58.87,0,0,1,12.43.33c2.14.31,4.37.12,6.51.61a1.21,1.21,0,0,0-.71-1.46c-4.9-3.38-10.31-6-14.9-9.82-.36-.31-1.11-.19-1.68-.21a124,124,0,0,0-17.15.59C1066.77,285.23,1064.46,285,1061.86,286.08Zm-15.19,112.1c-2-.53-3.5-.94-5-1.33s-2.81-1.06-4.55-.67c-6.13,1.35-12.13,3.22-18.19,4.82-2.24.59-4.62.86-7.11,2.31,4.87,2,9,4.55,13.43,6.46,3.27,1.39,5.69,1.81,8.59-1C1037.67,405,1042.11,401.88,1046.67,398.18Zm109.13-87.41c-1.32-4.17-3.87-7.64-5-11.75-.26-1-1.19-1.31-2-1.66-2.61-1.06-5.18-2.19-7.81-3.19a146.19,146.19,0,0,0-16.81-5.15c-.61-.15-1.61-.64-2,.22s.66,1,1.11,1.43c1.15,1.08,2.27,2.21,3.47,3.23,5.07,4.3,9.36,9.6,16.31,11.4C1147.51,306.44,1151.5,308.93,1155.8,310.77Zm28.38,35,.79.51c1.84-2,3.54-4.19,5.55-6a3.1,3.1,0,0,0,.86-4.12A64.13,64.13,0,0,0,1177.29,316c-1.07-1.06-2.34-1.93-4-3.29.47,3.61.94,6.55,1.2,9.51.17,1.92.24,3.83,1.53,5.4A37,37,0,0,1,1184.18,345.74ZM1038,290.88c5.08,2.48,9.65,4.73,14.26,6.91a3.08,3.08,0,0,0,1.71,0c4.38-.84,8.81-1.37,13.24-1.93,2.67-.34,5.41-.13,8.12-1-5-3-10.13-5.73-15.28-8.33a4.74,4.74,0,0,0-2.71-.08A133.3,133.3,0,0,0,1038,290.88Zm-33.92,15.52c6.93,2.67,13.21,5.45,20,.55,2.75-2,6.37-2.78,9.85-4.23l-11.58-4.78c-.77-.31-1.61-.81-2.39-.44A95.67,95.67,0,0,0,1004.12,306.4Zm169.54,18.34c-.56-4.2-1-7.68-1.51-11.13-.16-1,0-2.09-1.07-2.92a99.2,99.2,0,0,0-16.55-10.53c-1.26-.64-1.64-.12-1.51,1.14a9.68,9.68,0,0,0,1.45,3.4c1.46,2.78,2.32,6.37,4.59,8.14C1163.82,316.54,1168.85,319.89,1173.66,324.75ZM1015,311.14c-4-1.24-7.74-2.39-11.48-3.61-.89-.29-1.38.18-2,.63a82.78,82.78,0,0,0-10.89,9.44c-.67.69-1.84,1.39-1.41,2.39.22.52,1.57.57,2.42.8,5.25,1.46,10.31,2,14.08-3.14.09-.12.29-.16.42-.26Zm-13.4,65.46.33-.63a30.31,30.31,0,0,1-5.81-6.44c-1.88-2.72-3.75-5-7.22-5.79s-6.71-2.32-10-3.59c-.78-.3-1.56-1-2.56-.54a36.27,36.27,0,0,0,2.14,8.12,3.18,3.18,0,0,0,2.21,2.12q3.67,1.16,7.32,2.34ZM1195,353.3a73.38,73.38,0,0,0-1.75-11.49c-.44-1.61-1.1-1.87-2.31-.62-1.85,1.91-3.76,3.77-5.65,5.65a2.23,2.23,0,0,0-.84,1.72,34.16,34.16,0,0,1-1.11,8.59c-.34,1.52.15,1.73,1.38,1.77,2.82.09,5.66-.31,8.45.38.83.21,1.2-.16,1.27-1C1194.63,356.61,1194.86,355,1195,353.3ZM981.53,335.37c-1.35.18-2.56-.36-3.15,1.27A56.06,56.06,0,0,0,976,346.7c-.18,1.09.09,1.5,1.32,1.78,3,.68,6.12.18,9.11.91,1.53.37,1.81-.76,1.88-1.9a26.54,26.54,0,0,1,1.71-9.19c.82-1.89-.27-2.23-1.6-2.3C986,335.86,983.61,336,981.53,335.37Zm6.48-.44c1.17-.43,2.82.92,3.73-.91a49.19,49.19,0,0,1,6.45-9.42c.8-1,.93-1.48-.6-1.7-2.69-.39-5.34-1-8-1.4-.91-.13-1.95-.46-2.75.55A55,55,0,0,0,980,333c-.44.93-.3,1.36.79,1.43C983.16,334.55,985.55,334.75,988,334.93Zm62.34-36.68c-3.13-1.56-5.84-2.54-8.13-4.13-4.15-2.88-8.18-2.87-12.53-.66-2.27,1.15-4.87,1.63-7.42,3.22,4.42,1.82,8.39,3.48,12.39,5.06a3.82,3.82,0,0,0,2.2.14C1041.16,300.77,1045.44,299.58,1050.35,298.25ZM976.89,350c-1.41-.64-1.38.21-1.38,1,0,1.5,0,3,0,4.5a2.87,2.87,0,0,0,2,2.81c4.1,1.54,8.19,3.12,12.3,4.66.5.19,1.14.72,1.57.08.19-.29-.06-.94-.24-1.38a32,32,0,0,1-2.73-10c-.06-1-.74-1.22-1.56-1.19C983.49,350.53,980.14,349.51,976.89,350Zm208.34,19h0c.92,0,1.83,0,2.75,0,4,.06,4,.07,5.18-3.76.09-.32.23-.62.31-.94.86-3.44.86-3.45-2.75-3.89-1.15-.14-2.41-.61-3.44-.31-1.62.48-4.7-2-4.71,2.09-2.21.9-2.21,3.37-3.49,4.93s-.42,1.94,1.15,1.9S1183.57,368.91,1185.23,368.91Z" transform="translate(-611.45 -37.86)"/><path class="cls-3" d="M1091.64,399.9c2.07-2,3.46-4.53,5.16-6.81,2.58-3.46,5.07-7,7.55-10.52.58-.83,1.06-1.27,2.22-.91,11.45,3.51,22.92,7,34.38,10.43.13,0,.22.23.49.53a90.11,90.11,0,0,1-15.25,4.75,183.87,183.87,0,0,1-28.93,4.17,162,162,0,0,1-28.61-.7A143.93,143.93,0,0,1,1028.4,391c-1.84-.76-2.4-1.19-1.2-3.19q12-20.07,23.76-40.32c.78-1.34,1.29-1.51,2.57-.64q23.65,16.13,47.34,32.2c2.63,1.79,2.71,2.75.85,5.3q-4.84,6.64-9.65,13.3a16.56,16.56,0,0,0-1,1.85Zm-24.22-25.58a14.34,14.34,0,0,0-9.52,3.17,6.67,6.67,0,0,0-2.85,6.52c.36,2.6,2.41,3.64,4.68,4.24,4.66,1.23,8.84,0,12.59-2.78,2-1.52,3.33-3.64,3-6.18s-2.42-4.06-4.94-4.64A23.85,23.85,0,0,0,1067.42,374.32Z" transform="translate(-611.45 -37.86)"/><path class="cls-3" d="M1089.48,295.92c7.35.62,14.41.83,21.39,1.95,1.64.26,1.75,1.35,2.06,2.37q5,16.47,10,33a36.35,36.35,0,0,0,1.39,4.5c1.32,2.92.71,5.33-.95,8-6.45,10.45-12.7,21-19,31.58-.86,1.45-1.47,1.85-3,.79q-22.78-15.63-45.69-31.08c-1.76-1.18-1.38-1.85-.46-3.22q15.48-23,30.83-46.16C1087.06,296.12,1088.18,295.64,1089.48,295.92Zm-13,52a7.84,7.84,0,0,0,.63,3.38c2.71,6.68,12.27,10.56,19.56,8.33,7.13-2.18,9.56-9.09,5.3-15.19-4.15-5.94-12.35-7.8-18.49-5.88C1078.57,340.05,1076.5,343,1076.49,347.87Zm17.08-34a11.46,11.46,0,0,0-1.77,0c-6.32.78-9.11,5.94-6.09,11,2.89,4.87,11.42,7.57,17,5.09a6.9,6.9,0,0,0,2.33-11.33A13.85,13.85,0,0,0,1093.58,313.91Z" transform="translate(-611.45 -37.86)"/><path class="cls-4" d="M1150.81,409a41.9,41.9,0,0,0,9.23-4.35c4.7-3,9.57-5.88,13.72-9.72,2.07-1.92,4.2-3.79,6.21-5.78.91-.91,1.52-.92,2.47-.06q16,14.32,32,28.58,17.41,15.54,34.8,31.11c.46.41,1.39.68,1.12,1.43-.12.35-1,.49-1.53.65-10.63,3-21.26,6-31.88,9a3.74,3.74,0,0,1-3.79-.73q-18.58-14.87-37.26-29.62l-23-18.26A5.94,5.94,0,0,1,1150.81,409Zm81.22,36.7a4.84,4.84,0,0,0-1.49-3.86c-4-4.29-12.8-2.44-14.76,3.1a6.13,6.13,0,0,0,.37,5.28c1.73,3,5.62,4.23,9.63,3.13A8.3,8.3,0,0,0,1232,445.73Zm-33-12.78a16.81,16.81,0,0,0-3.34-10.22c-1.1-1.58-2.54-2.87-4.57-2.25s-2.47,2.57-2.63,4.42a17.89,17.89,0,0,0,2.2,10.06c1.55,2.94,3.81,4.73,5.52,4.31C1198.13,438.81,1199.11,436.61,1199.06,433Zm-31.64-20.08c.42,4.26,1.36,8.27,4,11.65.88,1.12,2,2.22,3.58,1.74,1.41-.43,1.83-1.77,2-3.17a18.49,18.49,0,0,0-2.56-12.14c-1-1.66-2.16-3.78-4.51-3.2C1167.39,408.38,1167.9,411,1167.41,412.88Z" transform="translate(-611.45 -37.86)"/><path class="cls-4" d="M990.92,416.45c.36-1.92,2-2.82,3.56-3.35,6.46-2.18,13-4.11,19.48-6.22a3.74,3.74,0,0,1,3,.27c3.36,1.57,6.87,2.84,10.14,4.57,2.31,1.23,4.87,1.51,7.22,2.52,1.27.54,1.55,1,.3,1.74-1.07.62-1,1.69-1.09,2.55-.58,7.19-1,14.4-1.57,21.6-.58,7.36-1.29,14.72-1.88,22.08q-.64,7.94-1.11,15.9c-.24,4.18-.18,4.16-4.18,3.35-5.89-1.2-11.77-2.52-17.7-3.47a2.69,2.69,0,0,1-2.52-2.46c-2.38-10.18-4.71-20.38-7.07-30.57Q994.4,431.5,991.26,418C991.15,417.54,991.05,417.06,990.92,416.45Zm23.16,40c4.16,0,9.56-4.08,10.71-8.08.69-2.41-.36-3.91-2.84-4-4.16-.22-9.44,3.41-11,7.58C1009.86,454.67,1011.1,456.44,1014.08,456.43Zm1.38-37.56c-2.85,0-8.15,4-9,6.77-.49,1.53.51,2.63,2.18,2.14a14.11,14.11,0,0,0,8.43-6.23C1018.07,419.86,1017.41,418.84,1015.45,418.87Z" transform="translate(-611.45 -37.86)"/><path class="cls-3" d="M1113.48,298.3a146.63,146.63,0,0,1,19.53,4.59,113.41,113.41,0,0,1,22.58,9.48,75.31,75.31,0,0,1,16.3,12.21c1,1,2,1.93,2.15,3.51s1.87.92,2.61,2.08a39.81,39.81,0,0,1,5.7,12.33c.47,2,1.62,4.18-.42,6.07a.73.73,0,0,0-.07.67c1.41,3,1,8.5-.87,10.73-.72.88-1.41.09-2-.11-7.85-2.57-15.68-5.23-23.53-7.82q-13.17-4.36-26.36-8.64a3.17,3.17,0,0,1-2.39-2.39C1121.91,327,1118.17,312.73,1113.48,298.3Zm36.68,29.6c-3.23,0-5.33.56-7.31,2.12-3.9,3.07-4.15,8.59.92,10.82,4.16,1.83,10.75-.14,13-4.08a5.84,5.84,0,0,0-3.05-8.38A9.52,9.52,0,0,0,1150.16,327.89Z" transform="translate(-611.45 -37.86)"/><path class="cls-3" d="M994.5,331.37a60.8,60.8,0,0,1,18.71-17.57,88.58,88.58,0,0,1,20.7-9.61,158.87,158.87,0,0,1,19.12-5q8.78-1.55,17.6-2.61c4.11-.49,8.27-.5,12.41-.66.7,0,1.68-.39,2,.42s-.37,1.37-.78,2l-16.22,24.23c-4.39,6.56-8.8,13.11-13.13,19.71-.69,1-1.2,1.21-2.49.94-17-3.52-34-6.91-51-10.34C999.21,332.43,997,331.91,994.5,331.37Zm49.68,6.52c3.21.4,6.23-.83,8.95-2.62,2.54-1.67,4.76-4,4.24-7.34s-3.16-4.64-6.21-5.22c-5.39-1-10,.69-13.9,4.29a5.81,5.81,0,0,0,0,8.94C1039.18,337.75,1041.51,338,1044.17,337.9Z" transform="translate(-611.45 -37.86)"/><path class="cls-3" d="M989.74,352a28.45,28.45,0,0,1,3.17-17.73c.73-1.37,1-2,3.11-1.51,8.09,2,16.31,3.47,24.49,5.14,9.79,2,19.57,4,29.37,6,1.56.31,1.41.85.76,2-8.28,14-16.56,28-24.72,42.1-1.11,1.92-2.08.94-3.17.43-10.94-5.22-20.76-11.87-27.65-22.15A32.21,32.21,0,0,1,989.74,352Zm39.72,1.27a5.39,5.39,0,0,0-2.15-3.49c-4.3-2.7-10.19-.49-12.53,2.64-2,2.61-1.1,5.57,1.77,7,3.39,1.71,6.55.77,9.45-1A6.54,6.54,0,0,0,1029.47,353.3Z" transform="translate(-611.45 -37.86)"/><path class="cls-3" d="M1180.46,361.94a32.83,32.83,0,0,1-3.5,6.21c-7.72,10.75-18.54,17.32-30.37,22.55a6.87,6.87,0,0,1-5.36.33c-11.08-3.56-22.27-6.79-33.42-10.14-.16,0-.33-.06-.49-.1-3.13-.94-3.12-.94-1.38-3.84,6.13-10.25,12.3-20.48,18.36-30.78,1.13-1.93,1.69-3,4.54-1.88,9.43,3.55,19.09,6.49,28.66,9.66,7.07,2.34,14.13,4.67,21.19,7C1179.31,361.21,1180.12,361.27,1180.46,361.94Zm-32.4,19c5.19,0,8.44-3,8.44-8,0-5.15-3.31-8.56-8.3-8.54-4.78,0-8.19,3.51-8.21,8.41S1143.17,380.91,1148.06,380.93Z" transform="translate(-611.45 -37.86)"/><path class="cls-5" d="M1196.09,352.34a48.49,48.49,0,0,0-6.41-22.1c-.85-1.44-.66-2.2.64-3.25q14.84-12,29.53-24.15a3.61,3.61,0,0,1,4.16-.71c9.24,3.52,18.54,6.91,27.81,10.35.68.25,1.33.59,2.31,1Zm27.49-25.94c0-4.09-2.67-7-6.41-7.06a6.12,6.12,0,0,0-6.18,6.38c0,3.76,3.12,7.19,6.54,7.22S1223.57,330.12,1223.58,326.4Z" transform="translate(-611.45 -37.86)"/><path class="cls-6" d="M914.85,345l22.21-1.28c-.37-1.32-1.14-.94-1.73-.91-6.31.32-12.62.57-18.92,1.05-2,.16-2.64-.59-2.59-2.41.09-3.26,1.8-5.62,4.2-7.57,5.26-4.28,11.59-5.94,18.08-6.9a55.26,55.26,0,0,1,26.22,2.4,28.14,28.14,0,0,1,9.1,4.94c5.81,4.85,4.94,11.07-.15,15.22-4.9,4-10.77,5.8-16.84,6.69-9.44,1.39-18.84,1-27.93-2.36a24.76,24.76,0,0,1-9.34-5.49A6.73,6.73,0,0,1,914.85,345Zm37.64-11.59,0,0c-.79-.1-1.09.27-1,1l0,0c-1.67,1.17-1,2.34,0,3.51l0,0,.53.52,0,0c2.31,2.35,5.74,2.22,7.05-.29a.21.21,0,0,1,.25-.17c1.77-.67,1.39-1.81.67-3l0,0c0-.44,0-.86-.52-1l0,0c-.07-1-.77-1-1.52-1l0,0c-1.67-1.74-3.35-1.31-5,0l0,0Zm9.58,13.71c.06-1.63-.89-2.4-2.33-2.13a6.61,6.61,0,0,0-5,3.66c-.56,1.21-.79,2.7,1.07,3.21C958.25,352.56,962,349.69,962.08,347.14Zm5.43-3c2.22-.11,4.52-2.21,4.54-3.89,0-1.33-.75-1.71-1.92-1.61-2,.18-4.24,2.32-4.17,4A1.45,1.45,0,0,0,967.51,344.18Zm-24.27-9.81a3.4,3.4,0,0,0,3.35-3.22,1.58,1.58,0,0,0-1.71-1.72,3.88,3.88,0,0,0-3.41,3.12C941.45,333.86,942.29,334.24,943.23,334.37Z" transform="translate(-611.45 -37.86)"/><path class="cls-6" d="M995,311.76c.2-1.81.29-3.19.53-4.54a24.52,24.52,0,0,0,.27-7.51c-.41-3.33.05-6.95.3-10.44.33-4.56.63-9.13.86-13.7q.8-16.08,1.49-32.16c.06-1.36.49-1.5,1.63-1q12.9,5.43,25.83,10.79c2.19.91,1.81,2.77,1.33,4.21-4.48,13.65-9.1,27.25-13.66,40.87-.19.56-.29,1.15-.86,1.46A102.82,102.82,0,0,0,995,311.76Zm18.56-54.94c-4,0-7.71,3.35-7.67,6.92,0,1.69.74,2.6,2.5,2.73a8.75,8.75,0,0,0,8.23-4.94C1017.9,258.54,1016.77,256.8,1013.6,256.82ZM1004,286.45c3.32,0,7.85-3.36,8.85-6.62a2.51,2.51,0,0,0-2.94-3.36c-3.71.77-6.81,2.59-8.38,6.25C1000.5,285.05,1001.47,286.43,1004,286.45Z" transform="translate(-611.45 -37.86)"/><path class="cls-7" d="M1087.05,421c-6.42,0-11.82-.08-17.21-.56-1.2-.11-1.82-.42-1.85-1.74q-.18-7.48-.49-15c-.06-1.41.39-2,1.84-1.79,7.51,1.16,15.08,1.06,22.63.93,1.92,0,2.73.61,3.36,2.39,1.64,4.66,2.64,9.57,5.29,13.84.66,1.06,0,1.18-.89,1.35C1095.19,421.36,1090.59,420.59,1087.05,421Z" transform="translate(-611.45 -37.86)"/><path class="cls-8" d="M1031.43,412.08c3.66-3,7.08-5.85,10.53-8.66,1.22-1,2.72-1.76,3.65-3,1.64-2.11,3.41-1.81,5.66-1.31,4.33,1,8.74,1.63,13.15,2.23,1.35.19,2.05.66,2,1.94-.13,5,.26,10,.56,14.93.13,2.16-1.41,1.77-2.51,1.6-5.86-.9-11.73-1.73-17.49-3.19-2.48-.63-5.15-.9-7.36-2C1037.12,413.32,1034.35,413.2,1031.43,412.08Z" transform="translate(-611.45 -37.86)"/><path class="cls-7" d="M1157.7,404.26a93.59,93.59,0,0,1-15.35,7.1c-4.35,1.56-8.82,2.79-13.2,4.27a2.31,2.31,0,0,1-2.89-.67,136.4,136.4,0,0,1-9.76-14.34,188.79,188.79,0,0,0,19.18-4.69c.38-.12.89-.32,1.17-.17C1143.34,399.28,1150.6,400.91,1157.7,404.26Z" transform="translate(-611.45 -37.86)"/><path class="cls-7" d="M1101.3,402.52c3.61-.42,7.25-.65,10.81-1.33,2.06-.39,3.21-.26,4.4,1.78,2.49,4.28,5.78,8.07,8.17,12.45.45.82.83,1.21-.38,1.47-6.85,1.49-13.77,2.55-20.71,3.45a1.3,1.3,0,0,1-1.56-.85,122.79,122.79,0,0,1-5.64-14.43c-.53-1.68-.29-2.28,1.44-2.36,1.15-.05,2.3-.26,3.45-.4Z" transform="translate(-611.45 -37.86)"/><path class="cls-9" d="M1179.67,388a90.84,90.84,0,0,1-19.49,15,1.69,1.69,0,0,1-1.62.2q-10-3.81-20-7.6c-.13,0-.19-.26-.35-.5a119.65,119.65,0,0,0,17.1-7.31,2.68,2.68,0,0,1,1.17-.35C1164,387.45,1171.6,387.24,1179.67,388Z" transform="translate(-611.45 -37.86)"/><path class="cls-7" d="M993.34,389.49c1.75-.94,3-.16,4.33-.17,6.74,0,13.49.1,20.23.06a16.45,16.45,0,0,1,7.23,1.44c3.19,1.48,6.51,2.66,10.19,4.13-4,1.72-7.89,2.45-11.66,3.5s-7.65,2.09-11.46,3.17a3.53,3.53,0,0,1-2.89,0A80.75,80.75,0,0,1,993.34,389.49Z" transform="translate(-611.45 -37.86)"/><path class="cls-7" d="M1019.62,388.26c-8.61.55-16.58-.53-24.55-.26a6.25,6.25,0,0,1-5.65-2.4c-3.65-4.41-7.11-8.93-9.64-14.74,5.32,1.67,10.21,3.19,15.09,4.74,3.46,1.1,7.25,1.66,10.26,3.5C1009.82,382,1014.24,385.34,1019.62,388.26Z" transform="translate(-611.45 -37.86)"/><path class="cls-7" d="M1157.88,386.39c5.78-3.63,11.33-6.74,14.88-11.72,3.94-5.54,9.07-5.11,14.47-4.61,4.19.38,4.17.53,2.28,4.26a60.62,60.62,0,0,1-6.75,10.09,5.08,5.08,0,0,1-4.3,2C1171.82,386.39,1165.18,386.39,1157.88,386.39Z" transform="translate(-611.45 -37.86)"/><path class="cls-9" d="M1089.63,284.33c6.8.36,13.23.89,19.62,1.82,1.06.15,2.12.34,3.19.44a15.73,15.73,0,0,1,10.51,5.28c3,3.26,6.58,6,9.67,9.52-3-.71-5.93-1.35-8.86-2.14-4.79-1.28-9.69-2-14.57-2.79a8.12,8.12,0,0,1-3.19-1.19c-4.68-3-9.41-5.92-14.09-8.92A4.72,4.72,0,0,1,1089.63,284.33Z" transform="translate(-611.45 -37.86)"/><path class="cls-7" d="M1061.86,286.08c2.6-1.08,4.91-.85,7.08-1.05a124,124,0,0,1,17.15-.59c.57,0,1.32-.09,1.68.21,4.59,3.85,10,6.44,14.9,9.82a1.21,1.21,0,0,1,.71,1.46c-2.14-.48-4.37-.29-6.51-.61a58.87,58.87,0,0,0-12.43-.33,19,19,0,0,1-10.27-2.44C1070.2,290.5,1066.26,288.4,1061.86,286.08Z" transform="translate(-611.45 -37.86)"/><path class="cls-7" d="M1046.67,398.18c-4.56,3.7-9,6.83-12.84,10.58-2.9,2.82-5.32,2.4-8.59,1-4.47-1.91-8.57-4.48-13.43-6.46,2.49-1.45,4.87-1.72,7.11-2.31,6.06-1.6,12.06-3.46,18.19-4.82,1.74-.38,3.06.29,4.55.67S1044.67,397.65,1046.67,398.18Z" transform="translate(-611.45 -37.86)"/><path class="cls-9" d="M1155.8,310.77c-4.3-1.83-8.3-4.33-12.74-5.48-6.95-1.8-11.23-7.09-16.31-11.4-1.2-1-2.32-2.15-3.47-3.23-.46-.43-1.44-.69-1.11-1.43s1.37-.37,2-.22a146.19,146.19,0,0,1,16.81,5.15c2.63,1,5.21,2.13,7.81,3.19.86.35,1.79.7,2,1.66C1151.93,303.13,1154.49,306.59,1155.8,310.77Z" transform="translate(-611.45 -37.86)"/><path class="cls-7" d="M1184.18,345.74a37,37,0,0,0-8.17-18.1c-1.29-1.57-1.36-3.48-1.53-5.4-.27-3-.73-5.9-1.2-9.51,1.67,1.36,2.93,2.22,4,3.29a64.13,64.13,0,0,1,14.08,20.08,3.1,3.1,0,0,1-.86,4.12c-2,1.83-3.71,4-5.55,6Z" transform="translate(-611.45 -37.86)"/><path class="cls-9" d="M1038,290.88a133.3,133.3,0,0,1,19.33-4.43,4.74,4.74,0,0,1,2.71.08c5.15,2.6,10.24,5.34,15.28,8.33-2.71.82-5.45.61-8.12,1-4.43.56-8.85,1.09-13.24,1.93a3.08,3.08,0,0,1-1.71,0C1047.69,295.61,1043.12,293.35,1038,290.88Z" transform="translate(-611.45 -37.86)"/><path class="cls-9" d="M1004.12,306.4A95.67,95.67,0,0,1,1020,297.5c.79-.37,1.63.13,2.39.44l11.58,4.78c-3.48,1.45-7.09,2.24-9.85,4.23C1017.33,311.85,1011.05,309.07,1004.12,306.4Z" transform="translate(-611.45 -37.86)"/><path class="cls-9" d="M1173.66,324.75c-4.81-4.86-9.84-8.2-14.59-11.9-2.27-1.77-3.13-5.36-4.59-8.14a9.68,9.68,0,0,1-1.45-3.4c-.14-1.26.25-1.78,1.51-1.14a99.2,99.2,0,0,1,16.55,10.53c1,.82.91,1.92,1.07,2.92C1172.68,317.07,1173.1,320.54,1173.66,324.75Z" transform="translate(-611.45 -37.86)"/><path class="cls-9" d="M1015,311.14l-8.84,6.24c-.14.1-.33.14-.42.26-3.77,5.19-8.83,4.61-14.08,3.14-.85-.24-2.2-.28-2.42-.8-.43-1,.74-1.7,1.41-2.39a82.78,82.78,0,0,1,10.89-9.44c.61-.44,1.09-.92,2-.63C1007.21,308.75,1011,309.9,1015,311.14Z" transform="translate(-611.45 -37.86)"/><path class="cls-9" d="M1001.55,376.6l-13.62-4.4q-3.66-1.18-7.32-2.34a3.18,3.18,0,0,1-2.21-2.12,36.27,36.27,0,0,1-2.14-8.12c1-.44,1.79.24,2.56.54,3.32,1.27,6.55,2.84,10,3.59s5.34,3.07,7.22,5.79a30.31,30.31,0,0,0,5.81,6.44Z" transform="translate(-611.45 -37.86)"/><path class="cls-9" d="M1195,353.3c-.19,1.67-.42,3.32-.56,5-.07.86-.44,1.23-1.27,1-2.79-.69-5.63-.29-8.45-.38-1.23,0-1.72-.25-1.38-1.77a34.16,34.16,0,0,0,1.11-8.59,2.23,2.23,0,0,1,.84-1.72c1.89-1.87,3.8-3.73,5.65-5.65,1.21-1.25,1.87-1,2.31.62A73.38,73.38,0,0,1,1195,353.3Z" transform="translate(-611.45 -37.86)"/><path class="cls-9" d="M981.53,335.37c2.08.61,4.49.49,6.88.62,1.33.07,2.41.42,1.6,2.3a26.54,26.54,0,0,0-1.71,9.19c-.06,1.14-.35,2.27-1.88,1.9-3-.73-6.1-.22-9.11-.91-1.23-.28-1.5-.69-1.32-1.78a56.06,56.06,0,0,1,2.39-10.06C979,335,980.19,335.55,981.53,335.37Z" transform="translate(-611.45 -37.86)"/><path class="cls-7" d="M988,334.93c-2.46-.18-4.85-.38-7.24-.53-1.09-.07-1.23-.51-.79-1.43A55,55,0,0,1,986.81,322c.81-1,1.85-.68,2.75-.55,2.69.39,5.34,1,8,1.4,1.53.22,1.41.73.6,1.7a49.19,49.19,0,0,0-6.45,9.42C990.83,335.85,989.19,334.5,988,334.93Z" transform="translate(-611.45 -37.86)"/><path class="cls-9" d="M1050.35,298.25c-4.91,1.33-9.19,2.52-13.49,3.62a3.82,3.82,0,0,1-2.2-.14c-4-1.58-8-3.24-12.39-5.06,2.55-1.58,5.15-2.06,7.42-3.22,4.35-2.21,8.39-2.22,12.53.66C1044.51,295.71,1047.22,296.69,1050.35,298.25Z" transform="translate(-611.45 -37.86)"/><path class="cls-9" d="M976.89,350c3.25-.45,6.6.57,10,.47.83,0,1.5.2,1.56,1.19a32,32,0,0,0,2.73,10c.18.44.43,1.09.24,1.38-.42.64-1.06.11-1.57-.08-4.11-1.54-8.19-3.12-12.3-4.66a2.87,2.87,0,0,1-2-2.81c0-1.5,0-3,0-4.5C975.51,350.17,975.48,349.32,976.89,350Z" transform="translate(-611.45 -37.86)"/><path class="cls-9" d="M1185.23,368.91c-1.67,0-3.33,0-5,0s-2.42-.34-1.15-1.9,1.28-4,3.49-4.93c0-4.08,3.09-1.61,4.71-2.09,1-.31,2.29.17,3.44.31,3.6.44,3.61.44,2.75,3.89-.08.32-.21.63-.31.94C1192,369,1192,369,1188,368.9c-.92,0-1.83,0-2.75,0Z" transform="translate(-611.45 -37.86)"/><path class="cls-8" d="M1067.42,374.32a23.85,23.85,0,0,1,3,.32c2.52.58,4.59,2,4.94,4.64s-1,4.67-3,6.18c-3.75,2.83-7.93,4-12.59,2.78-2.28-.6-4.33-1.63-4.68-4.24a6.67,6.67,0,0,1,2.85-6.52A14.34,14.34,0,0,1,1067.42,374.32Z" transform="translate(-611.45 -37.86)"/><path class="cls-8" d="M1076.49,347.87c0-4.87,2.07-7.82,7-9.36,6.14-1.92,14.34-.06,18.49,5.88,4.26,6.1,1.83,13-5.3,15.19-7.29,2.23-16.86-1.65-19.56-8.33A7.84,7.84,0,0,1,1076.49,347.87Z" transform="translate(-611.45 -37.86)"/><path class="cls-8" d="M1093.58,313.91a13.85,13.85,0,0,1,11.48,4.79,6.9,6.9,0,0,1-2.33,11.33c-5.59,2.48-14.12-.22-17-5.09-3-5.08-.23-10.24,6.09-11A11.46,11.46,0,0,1,1093.58,313.91Z" transform="translate(-611.45 -37.86)"/><path class="cls-10" d="M1232,445.73a8.3,8.3,0,0,1-6.25,7.65c-4,1.1-7.9-.15-9.63-3.13a6.13,6.13,0,0,1-.37-5.28c2-5.54,10.78-7.39,14.76-3.1A4.84,4.84,0,0,1,1232,445.73Z" transform="translate(-611.45 -37.86)"/><path class="cls-10" d="M1199.06,433c.05,3.66-.93,5.86-2.83,6.32-1.71.42-4-1.37-5.52-4.31a17.89,17.89,0,0,1-2.2-10.06c.16-1.85.61-3.8,2.63-4.42s3.47.67,4.57,2.25A16.82,16.82,0,0,1,1199.06,433Z" transform="translate(-611.45 -37.86)"/><path class="cls-10" d="M1167.41,412.88c.48-1.88,0-4.49,2.55-5.12,2.35-.58,3.54,1.54,4.51,3.2A18.49,18.49,0,0,1,1177,423.1c-.19,1.39-.62,2.73-2,3.17-1.57.48-2.7-.62-3.58-1.74C1168.77,421.14,1167.83,417.14,1167.41,412.88Z" transform="translate(-611.45 -37.86)"/><path class="cls-10" d="M1014.08,456.43c-3,0-4.22-1.77-3.16-4.54,1.59-4.17,6.87-7.81,11-7.58,2.48.13,3.54,1.64,2.84,4C1023.63,452.35,1018.24,456.42,1014.08,456.43Z" transform="translate(-611.45 -37.86)"/><path class="cls-10" d="M1015.45,418.87c2,0,2.61,1,1.58,2.69a14.11,14.11,0,0,1-8.43,6.23c-1.67.48-2.67-.61-2.18-2.14C1007.31,422.88,1012.61,418.91,1015.45,418.87Z" transform="translate(-611.45 -37.86)"/><path class="cls-8" d="M1150.16,327.89a9.52,9.52,0,0,1,3.57.49,5.84,5.84,0,0,1,3.05,8.38c-2.26,3.93-8.86,5.9-13,4.08-5.07-2.23-4.82-7.75-.92-10.82C1144.83,328.45,1146.92,327.89,1150.16,327.89Z" transform="translate(-611.45 -37.86)"/><path class="cls-8" d="M1044.17,337.9c-2.66.14-5-.15-6.91-2a5.81,5.81,0,0,1,0-8.94c3.87-3.59,8.51-5.32,13.9-4.29,3,.58,5.69,1.9,6.21,5.22s-1.7,5.66-4.24,7.34C1050.41,337.07,1047.39,338.3,1044.17,337.9Z" transform="translate(-611.45 -37.86)"/><path class="cls-8" d="M1029.47,353.3a6.54,6.54,0,0,1-3.46,5.2c-2.9,1.74-6.05,2.68-9.45,1-2.88-1.45-3.73-4.41-1.77-7,2.34-3.13,8.23-5.34,12.53-2.64A5.39,5.39,0,0,1,1029.47,353.3Z" transform="translate(-611.45 -37.86)"/><path class="cls-8" d="M1148.06,380.93c-4.89,0-8.08-3.22-8.06-8.11s3.43-8.4,8.21-8.41c5,0,8.31,3.39,8.3,8.54C1156.5,377.88,1153.25,380.94,1148.06,380.93Z" transform="translate(-611.45 -37.86)"/><path class="cls-10" d="M1223.58,326.4c0,3.72-2.64,6.56-6.06,6.53s-6.52-3.46-6.54-7.22a6.12,6.12,0,0,1,6.18-6.38C1220.91,319.35,1223.58,322.3,1223.58,326.4Z" transform="translate(-611.45 -37.86)"/><path class="cls-10" d="M962.08,347.14c-.06,2.55-3.83,5.42-6.3,4.74-1.86-.51-1.63-2-1.07-3.21a6.61,6.61,0,0,1,5-3.66C961.19,344.74,962.14,345.51,962.08,347.14Z" transform="translate(-611.45 -37.86)"/><path class="cls-10" d="M959.06,338.09c-1.31,2.5-4.75,2.64-7.05.29.47-.08,1-.06.94-.81-.21-2.36,1.29-2.59,3.14-2.7C958.53,334.73,958.08,337,959.06,338.09Z" transform="translate(-611.45 -37.86)"/><path class="cls-10" d="M967.51,344.18a1.45,1.45,0,0,1-1.55-1.53c-.08-1.65,2.14-3.79,4.17-4,1.17-.11,1.93.28,1.92,1.61C972,342,969.73,344.07,967.51,344.18Z" transform="translate(-611.45 -37.86)"/><path class="cls-11" d="M959.06,338.09c-1-1.07-.53-3.36-3-3.22-1.85.11-3.35.33-3.14,2.7.07.75-.47.72-.94.81l0,0c0-.35-.12-.58-.53-.52l0,0a9.61,9.61,0,0,1,0-3.51l0,0,1-1,0,0,.53-.53,0,0a10.39,10.39,0,0,1,5,0l0,0a2.32,2.32,0,0,0,1.52,1l0,0a1,1,0,0,0,.52,1l0,0a4,4,0,0,1-.67,3A.21.21,0,0,0,959.06,338.09Z" transform="translate(-611.45 -37.86)"/><path class="cls-10" d="M943.23,334.37c-.95-.13-1.79-.51-1.77-1.82a3.88,3.88,0,0,1,3.41-3.12,1.58,1.58,0,0,1,1.71,1.72A3.4,3.4,0,0,1,943.23,334.37Z" transform="translate(-611.45 -37.86)"/><path class="cls-10" d="M958,332.93a10.39,10.39,0,0,0-5,0C954.66,331.62,956.34,331.19,958,332.93Z" transform="translate(-611.45 -37.86)"/><path class="cls-10" d="M951.52,334.41a9.61,9.61,0,0,0,0,3.51C950.48,336.75,949.85,335.58,951.52,334.41Z" transform="translate(-611.45 -37.86)"/><path class="cls-10" d="M959.31,337.92a4,4,0,0,0,.67-3C960.7,336.11,961.09,337.26,959.31,337.92Z" transform="translate(-611.45 -37.86)"/><path class="cls-10" d="M959.49,333.94a2.32,2.32,0,0,1-1.52-1C958.73,332.89,959.43,332.94,959.49,333.94Z" transform="translate(-611.45 -37.86)"/><path class="cls-10" d="M952.52,333.41l-1,1C951.43,333.68,951.74,333.31,952.52,333.41Z" transform="translate(-611.45 -37.86)"/><path class="cls-10" d="M960,334.93a1,1,0,0,1-.52-1C960,334.08,960,334.5,960,334.93Z" transform="translate(-611.45 -37.86)"/><path class="cls-10" d="M951.5,337.88c.41-.06.52.18.53.52Z" transform="translate(-611.45 -37.86)"/><path class="cls-10" d="M953,332.91l-.53.53Z" transform="translate(-611.45 -37.86)"/><path class="cls-10" d="M1013.6,256.82c3.18,0,4.3,1.72,3.06,4.71a8.75,8.75,0,0,1-8.23,4.94c-1.76-.13-2.49-1-2.5-2.73C1005.89,260.17,1009.55,256.85,1013.6,256.82Z" transform="translate(-611.45 -37.86)"/><path class="cls-10" d="M1004,286.45c-2.5,0-3.47-1.4-2.47-3.73,1.57-3.67,4.68-5.49,8.38-6.25a2.51,2.51,0,0,1,2.94,3.36C1011.82,283.09,1007.29,286.48,1004,286.45Z" transform="translate(-611.45 -37.86)"/></svg>