<svg xmlns="http://www.w3.org/2000/svg" viewBox="0 0 2263.78 698.3"><defs><style>.cls-1{fill:#00dff0;}.cls-2{fill:#15d3ff;}.cls-3{fill:#d1940d;}.cls-4{fill:#a5d1ba;}</style></defs><title>see</title><g id="Ebene_1" data-name="Ebene 1"><path class="cls-1" d="M0,147.29c111.7-36.7,202.58-43.18,264.06-42.55C416,106.3,467.7,152.08,689.53,162.89c94.17,4.59,148.95-.54,204.23-15.6,91.69-25,94.81-52.79,167.35-70.91,117-29.21,230.08,12.8,306.34,41.13,101,37.51,178.75,91,242.52,63.82,8.48-3.61,29.75-14.21,62.4-22.69,8.69-2.26,40.44-10.14,86.51-11.35,76.4-2,139.67,17.24,148.92,19.86,58.12,16.44,160.78,23.63,356-19.86V764.78H0V147.29Z" transform="translate(0 -66.48)"/><path class="cls-2" d="M174.71,628.07" transform="translate(0 -66.48)"/><path class="cls-2" d="M113.73,615.31" transform="translate(0 -66.48)"/><path class="cls-3" d="M367.59,535.89" transform="translate(0 -66.48)"/></g><g id="Ebene_2" data-name="Ebene 2"><path class="cls-4" d="M0,664.95c151.72-19.3,274.76-19.85,357.67-17,239.2,8.18,289.2,49.54,490.71,36.87,167.05-10.5,167-41.07,317.69-38.29,109.17,2,136.16,18.55,326.19,25.53,110.43,4.06,166.75,5.82,221.25-7.09,48-11.37,76.67-25.43,126.22-21.27,65.17,5.47,63.4,33.79,134.73,51.06,88.81,21.49,178.9-1.26,258.12-21.27,13-3.29,23.77-6.33,31.2-8.51v99.83H0Z" transform="translate(0 -66.48)"/></g></svg>