<svg id="Ebene_1" data-name="Ebene 1" xmlns="http://www.w3.org/2000/svg" xmlns:xlink="http://www.w3.org/1999/xlink" viewBox="0 0 1365.34 764.78"><defs><style>.cls-1{fill:url(#Unbenannter_Verlauf);}.cls-2{fill:#a5d1ba;}.cls-3{fill:#0f799b;}</style><linearGradient id="Unbenannter_Verlauf" y1="264.39" x2="1365.32" y2="264.39" gradientTransform="matrix(1, 0, 0, -1, 0, 646.78)" gradientUnits="userSpaceOnUse"><stop offset="0" stop-color="#0071bc"/><stop offset="0.06" stop-color="#0087c7"/><stop offset="0.26" stop-color="#00c8e5"/><stop offset="0.41" stop-color="#00f0f8"/><stop offset="0.49" stop-color="aqua"/><stop offset="0.59" stop-color="#09edf9"/><stop offset="1" stop-color="#29abe2"/></linearGradient></defs><title>see</title><g id="Ebene_2" data-name="Ebene 2"><path class="cls-1" d="M0,8.81C100.3-9.8,172.21,4.26,220.46,21.63c74.63,26.87,98.18,63.68,173.08,71.79,52.69,5.71,57.4-10.73,157.69-26.92,77.4-12.5,162.41-26.22,257.69-3.85,88.31,20.74,82,48.2,146.15,50,70.92,2,90.36-31.24,200-37.18,72.85-3.95,96.53,9,106.41,15.38,14.77,9.58,25.33,21.91,46.15,25.64,22.72,4.07,43.49-4.63,57.69-12.82L1364,764.77H0Z" transform="translate(0 0)"/><path class="cls-2" d="M0,656.24c249.93-12.59,449.78-7.3,587.13,0,120.82,6.42,198.3,14.66,323.08,11.54,185.91-4.66,357-31,455.13-52.56l-1.28,149.56H0V661.37" transform="translate(0 0)"/></g><g id="Ebene_3" data-name="Ebene 3"><path class="cls-3" d="M0,46A609.33,609.33,0,0,1,186.35,57.53c112.82,25,125.11,62.59,199.17,66.67,118.46,6.52,129.63-87.35,272-100,38.9-3.46,147.4-6.17,246.41,51.28,40.69,23.61,67.8,50.43,127.68,65.38,18.15,4.53,63.11,15.3,118.74,6.41,52.78-8.43,71.5-27.58,155.76-48.72,22.52-5.65,41.25-9.31,53.62-11.54,9.23,27.91,5.6,45.36,0,56.41-46.14,91.11-361.64,15.48-393.24,7.69-158.4-39-146.07-69-228.54-69.23-163.19-.46-203.28,116.93-347.28,97.44-72.37-9.8-77.33-41.49-204.28-75.64A896.44,896.44,0,0,0,0,74.19Z" transform="translate(0 0)"/></g></svg>