<svg id="Ebene_1" data-name="Ebene 1" xmlns="http://www.w3.org/2000/svg" viewBox="0 0 187.6 192.1"><defs><style>.cls-1{fill:#fefdfd;}.cls-2{fill:#774534;}.cls-3{fill:#3d190e;}.cls-4{fill:#603425;}.cls-5{fill:#573f3b;}.cls-6{fill:#7e635d;}.cls-7{fill:#e45c2e;}.cls-8{fill:#f2602d;}.cls-9{fill:#f56337;}.cls-10{fill:#f0653a;}.cls-11{fill:#ed5e2c;}.cls-12{fill:#f5602b;}.cls-13{fill:#f26237;}.cls-14{fill:#2b1109;}.cls-15{fill:#ca5025;}.cls-16{fill:#d4552a;}</style></defs><title>starfish orange</title><path class="cls-1" d="M1057.5,442.66q0-46.88,0-93.75c0-1.71.34-2,2-2q91.75.09,183.5,0c1.71,0,2,.34,2,2q-.08,94,0,188c0,1.71-.34,2-2,2q-91.75-.09-183.5,0c-1.71,0-2.05-.33-2-2Q1057.55,489.79,1057.5,442.66Zm79.44,11.67.13.15a.76.76,0,0,0,.47.79l.17.59c-.16.43.09.73.32,1l.17,1a11.42,11.42,0,0,0,.36,4l.18,1.53a6.15,6.15,0,0,0,.07,2.7l-.15,1.49a11.12,11.12,0,0,0-.21,3.78,3.86,3.86,0,0,0,.13,2.47l.28,4.47c0,2.38,0,4.74,1.44,6.82,1.48,4.12,4,7.74,5.8,11.68l.37,1.08.59,1.81a42.24,42.24,0,0,1,2,8.16c.49,2.81,0,5.6-.41,8.35-.56,4-2,7.92-.79,12,.63,2.08,1.65,3.82,4.15,4a1,1,0,0,0,1.46-.35c3.29-2.71,4-6.44,4.16-10.42,1.52-4.4,1.94-9,2.3-13.57l.56-6.49a7.2,7.2,0,0,0,.71-5.1l.14-.86c.36-1.83.87-3.67.09-5.52l-.33-1.06-.17-1v-3.5a2.46,2.46,0,0,0,0-2v-1a2.45,2.45,0,0,0,.13-2l.06-.84a4,4,0,0,0,.46-2.71l.58-2.71a1.89,1.89,0,0,0,.44-1.78l.34-1.47a.79.79,0,0,0,.16-1,8.82,8.82,0,0,1,1.39-5.09l.44-1c.47-.11,1-.09,1.17-.7.43-2.09,2-2.37,3.73-2.36l3.19,0a1.49,1.49,0,0,0,1.5.12c3.45.81,6.94,1.5,10.35,2.46a31.1,31.1,0,0,0,15.17.07,21.77,21.77,0,0,0,8.52-2.18,12.22,12.22,0,0,0,8.08-5.1c4.7-5.57,5.32-11.93,3.47-18.69-.75-2.75-3-4.07-5.58-4.66-3.3-.76-5.49,1-5.52,4.53a9.64,9.64,0,0,1-2.89,7.14,33.54,33.54,0,0,1-3.11,2.43c-3.75,1.18-6.82-.09-8.45-3.67a34.67,34.67,0,0,1-1.36-4.4c.35-.92-.27-1.61-.69-2.25-1.83-2.74-3.73-5.42-5.61-8.12,0-1.9-1-3.52-1.47-5.31l-.3-3.07a8.66,8.66,0,0,0,.24-3.64l1.72-9.87.13-.56.42-.38a1.11,1.11,0,0,0,.45-1.16,2.73,2.73,0,0,0,.57-1.78,1.43,1.43,0,0,0,.49-1.22.15.15,0,0,0,.06-.23.65.65,0,0,0,.3-.8v-.59c.54-.71,1.26-1.33,1.11-2.37a5.44,5.44,0,0,0,2.39-4.56,3.83,3.83,0,0,1,.79-1.94c.88-1.38,2.34-2.37,2.75-4.06a7.88,7.88,0,0,1,3.65-3.46l7.8-4.22c3.37-2.69,2-8.16-2.43-9.95-1.22-1.69-2.94-1.7-4.81-1.64s-3.85,1-4.82-1.64c-.3-.8-1.29-.38-1.57.22-.39.82-1.1.93-1.77,1.16a6.86,6.86,0,0,0-4.19,3.93.22.22,0,0,0-.14.25c-4.36,4.77-6.8,10.69-9.74,16.32l-.66,1a15.26,15.26,0,0,0-2,4.28,25.2,25.2,0,0,0-3.31,5.77c-1.78,1.92-2,4.44-2.66,6.82-.22.34-.47.66-.67,1-2.46,4.31-5.21,5.24-9.75,3.3-.61-.26-1.23-.49-1.84-.74-3-2.32-5.44-4.82-5.71-9.12-.12-1.88.27-3.91-.47-5.77q0-2.51,0-5l2.9-8a9.56,9.56,0,0,0,2.2-5,5.1,5.1,0,0,1,.28-1.39c2.42-4.6,1.83-9-.76-13.32a.09.09,0,0,1,0,.09.29.29,0,0,0-.25-.31c-2-3.79-5.3-4.58-9.19-4l-1.52,0c-1.53,0-3.25-1.07-4.39.85l-.2.09c-3.76,3.22-4.1,9.19-1.08,13.73a4.61,4.61,0,0,1,.63,4.85c-1.54,6.25-4.39,12.12-5.33,18.54a3.06,3.06,0,0,0-.1,2,31.13,31.13,0,0,0-1.83,6.63l-2,7.36-1.87,8.29L1126,425.4l-3.27,5.19a22.94,22.94,0,0,0-5.06,5.39c-2.89,2.88-6.87,4.35-9.64,7.4a24.88,24.88,0,0,0-4.48,1.1A25.24,25.24,0,0,1,1091,447a5,5,0,0,1-4-1.87c-1.08-1.33-2-2.87-4-3.12-1.89-.46-2-1.87-1.92-3.46.07-1.06.22-2.54-1.07-2.66-2.16-.2-4.65-.43-6.14,1.61a19.67,19.67,0,0,0-4,14,2.7,2.7,0,0,0-.08.73c.76,4.63,4.6,6.65,7.81,9.21,2.09,2.67,5.35,1.89,8.06,2.75,2.51,1,5,1.95,7.78,1.09a18.38,18.38,0,0,0,4.07-.37,1.93,1.93,0,0,0,1.47-.26c7.57-1.69,14.93-3.94,21.5-8.24l.56-.42,0,0,7.47-3.62c1.48-.36,2.9-1,4.48-.78a9.25,9.25,0,0,0,3,1.81l.64.59Z" transform="translate(-1057.45 -346.86)"/><path class="cls-2" d="M1203,445.88a33.54,33.54,0,0,0,3.11-2.43,9.64,9.64,0,0,0,2.89-7.14c0-3.49,2.22-5.3,5.52-4.53,2.56.59,4.83,1.92,5.58,4.66,1.85,6.76,1.24,13.12-3.47,18.69l-.81-.85,1.07-1.86a10.33,10.33,0,0,0,2-5,.8.8,0,0,0,.06-.48c.61-3.38,1.31-6.77-.36-10.07a4.25,4.25,0,0,0-3.11-3.48c-3.62-1-4.91-.25-5,3l-.51,3.49c-1.13,1.69-2,3.57-3.47,5l-2.91,1.52Z" transform="translate(-1057.45 -346.86)"/><path class="cls-3" d="M1160.94,484.4v3.5c-.46.41-.44.73.17,1l.33,1.06a10.5,10.5,0,0,0-.09,5.52l-.14.86c-1.51,1.52-.66,3.37-.71,5.1l-.56,6.49h-.82l-.12-4.48a41.35,41.35,0,0,1,.8-9.34c.21-1.2.71-2.49.49-3.62-1.06-5.33-.64-10.7-.72-16.05-.11-2.39,1.27-4.42,1.61-6.71,1.4-1,.78-3.8,3.29-3.91a8.82,8.82,0,0,0-1.39,5.09c-.47.27-.65.59-.16,1l-.34,1.47c-.74.45-.61,1.11-.44,1.78l-.58,2.71c-.9.78-.57,1.76-.46,2.71l-.06.84a1.28,1.28,0,0,0-.13,2v1A1.33,1.33,0,0,0,1160.94,484.4Z" transform="translate(-1057.45 -346.86)"/><path class="cls-4" d="M1069.86,451.44a19.67,19.67,0,0,1,4-14c1.49-2,4-1.81,6.14-1.61,1.29.12,1.14,1.6,1.07,2.66-.11,1.59,0,3,1.92,3.46v.94c-1.9-.23-3.27-.75-3-3.22.2-2.06-1.52-3-3.27-1.84A11.57,11.57,0,0,0,1072,444c-1,2.79-.69,5.64-1,8.46Z" transform="translate(-1057.45 -346.86)"/><path class="cls-2" d="M1140,375.91a4.61,4.61,0,0,0-.63-4.85c-3-4.54-2.67-10.51,1.08-13.73.27.5.78.62,1.26.78-.87,1.39-2.37,2.44-2.37,4.31a3.33,3.33,0,0,0-.29,2.88c.83,1.83.43,4.55,3.31,5a8.13,8.13,0,0,0,.52,3.14c-1.63.49-1,2.5-2.24,3.28Z" transform="translate(-1057.45 -346.86)"/><path class="cls-5" d="M1120.48,456.35c-6.57,4.31-13.93,6.56-21.5,8.24q0-.6,0-1.2.13-.2.24-.41c7.28-2.2,15-3.35,21.27-8.08.93,0,.7.53.52,1.06l0,0Z" transform="translate(-1057.45 -346.86)"/><path class="cls-5" d="M1200,462.42a31.1,31.1,0,0,1-15.17-.07c-3.41-1-6.9-1.65-10.35-2.46a1.9,1.9,0,0,0,0-.48c.55,0,1.14.09,1.56-.42h2c.89.67,2,.34,2.94.52a10.38,10.38,0,0,0,5.52,1.33l3.49.14a3.27,3.27,0,0,0,3.56.42,12.1,12.1,0,0,0,4.9.39C1199,461.94,1199.64,461.8,1200,462.42Z" transform="translate(-1057.45 -346.86)"/><path class="cls-2" d="M1083,442.91V442c1.94.26,2.91,1.79,4,3.12a5,5,0,0,0,4,1.87,25.24,25.24,0,0,0,12.52-2.5,24.88,24.88,0,0,1,4.48-1.1l0,0c-2.09,2.24-5.06,2.65-7.74,3.58-5.82,2-11.57,3.1-15.92-3A6.29,6.29,0,0,0,1083,442.91Z" transform="translate(-1057.45 -346.86)"/><path class="cls-6" d="M1188.36,370.32a6.86,6.86,0,0,1,4.19-3.93c.68-.24,1.38-.34,1.77-1.16.29-.6,1.27-1,1.57-.22,1,2.64,3.1,1.69,4.82,1.64s3.59,0,4.81,1.64l-.1.62c-2.35-1-4.89-.35-7.25-.76-3.65-.63-6.84-.77-9.12,2.72Z" transform="translate(-1057.45 -346.86)"/><path class="cls-5" d="M1152,532.24c-2.5-.14-3.52-1.88-4.15-4-1.24-4.1.23-8,.79-12,.39-2.75.9-5.54.41-8.35l1.34,0q0,.49,0,1c-1.38.51-.6,1,0,1.47l-.26,4.53c-1,4.11-2,8.23-1.23,12.52a7.33,7.33,0,0,0,2.09,3.46l.69.38,1.24-.08.08.57Z" transform="translate(-1057.45 -346.86)"/><path class="cls-6" d="M1140,375.91l.65.86-.1.5c-.74.6-.54,1.43-.54,2.21a1.47,1.47,0,0,0,.11.42l-.12,1a.91.91,0,0,0-.39,1l-.14,1-2,6.49-.51,2.37-.43.65v0l-.29.45-.34,1.51-1.2.07C1135.6,388,1138.45,382.16,1140,375.91Z" transform="translate(-1057.45 -346.86)"/><path class="cls-4" d="M1185.11,419.06l.3,3.07L1185,424l-.49-.1-.95-2.87-.06-.06c.32,0,.32-.26.28-.5l.11-3,0-1c.83-5.54,1.53-11.11,4.41-16.08l.11.08.14,1.27a2.73,2.73,0,0,1-.57,1.78c-.53.24-.56.68-.45,1.16l-.41.38-.13.56-1.72,9.87A5.46,5.46,0,0,0,1185.11,419.06Z" transform="translate(-1057.45 -346.86)"/><path class="cls-4" d="M1108,443.37c2.76-3,6.74-4.52,9.64-7.4,1.6.24,2.28-1.83,3.89-1.55-2.77,3.77-6.84,5.87-10.66,8.31a4.29,4.29,0,0,1-2.84.68Z" transform="translate(-1057.45 -346.86)"/><path class="cls-5" d="M1178.48,386.89c2.94-5.62,5.38-11.54,9.74-16.32l.46.51a26.65,26.65,0,0,1-3.61,5.94c-2.14,3-2.89,6.75-5.56,9.39l-.45.55,0,0-.54,0Z" transform="translate(-1057.45 -346.86)"/><path class="cls-4" d="M1151.39,393.4c.74,1.86.36,3.89.47,5.77.27,4.3,2.67,6.8,5.71,9.12q0,.64,0,1.28c-3.49-1.37-6-3.79-6.46-7.53-.35-2.85-1-5.73-.56-8.65Z" transform="translate(-1057.45 -346.86)"/><path class="cls-4" d="M1085.65,464.13c-2.71-.86-6-.07-8.06-2.75l2,0-.07,0c.42.76.78.44,1.12-.07,3.14.62,6,2.31,9.36,2.16,1,1.16,2.23,1,3.5.8l2,.15v.74a3.39,3.39,0,0,1-2,.07Z" transform="translate(-1057.45 -346.86)"/><path class="cls-3" d="M1208,378.24l-7.8,4.22a7.88,7.88,0,0,0-3.65,3.46l-.53-.52c.23-.5.61-1,.4-1.57a4,4,0,0,1,1.9-1.91c2-1.23,4.14-2.37,6.21-3.54,1.1,0,1.81-.92,2.82-1.11A1.09,1.09,0,0,1,1208,378.24Z" transform="translate(-1057.45 -346.86)"/><path class="cls-4" d="M1156,360.7c2.59,4.31,3.17,8.72.76,13.32a5.1,5.1,0,0,0-.28,1.39l-.67-1.17c.24-2.29,1.61-4.42.93-6.83.24-2.73-1.14-4.85-2.6-6.95l1.59,0a.29.29,0,0,1,.25.31Z" transform="translate(-1057.45 -346.86)"/><path class="cls-2" d="M1200,462.42c-.38-.62-1.06-.48-1.62-.64l1.22-.75a28.33,28.33,0,0,0,11.61-4l.77.34c-.67,1.53-2.73,1.39-3.46,2.85A21.77,21.77,0,0,1,1200,462.42Z" transform="translate(-1057.45 -346.86)"/><path class="cls-6" d="M1157.58,409.57v-1.28c.61.25,1.23.48,1.84.74,4.54,1.94,7.29,1,9.75-3.3.2-.35.45-.67.67-1l.26,1c0,1.35-1.26,2.08-1.56,3.27a2.12,2.12,0,0,0-1.22,1.37c-.52,0-1,0-1.33.56l-1.93.44a1.06,1.06,0,0,0-1.61,0l-1.44-.39-1-.06C1159.23,410.38,1158,410.76,1157.58,409.57Z" transform="translate(-1057.45 -346.86)"/><path class="cls-4" d="M1203,445.88l.59.55a3.9,3.9,0,0,1-2.57,1.4l-2.51-.36-3.27-2.14a17.9,17.9,0,0,1-2.61-5.42l-.37-2.93c.57,0,.65.53.94.83a34.67,34.67,0,0,0,1.36,4.4C1196.17,445.79,1199.24,447.06,1203,445.88Z" transform="translate(-1057.45 -346.86)"/><path class="cls-3" d="M1079.58,461.34l-2,0c-3.21-2.56-7-4.58-7.81-9.21a2.7,2.7,0,0,1,.08-.73l1.15,1,.46,1.05.4.46,3.5,3.53C1075.79,459.83,1078.4,459.8,1079.58,461.34Z" transform="translate(-1057.45 -346.86)"/><path class="cls-4" d="M1138.2,457.86l-.17-1c.53-.54.19-.82-.32-1l-.17-.59c0-.38,0-.69-.47-.79l-.13-.15-.37-.38-.64-.59c-1-2.05-1.28-2.22-3-1.81-1.58-.25-3,.42-4.48.78l-.53-1c2.82-1.1,5.64-2.66,8.42.09.72,1.76,3.14,2.54,2.81,4.9l-.08,1.79Z" transform="translate(-1057.45 -346.86)"/><path class="cls-3" d="M1128.82,418.71l1.87-8.29c1.26-.8.85-2.66,2.18-3.41,1,.62.23,1.26,0,1.89-.05,0-.15.1-.15.14a1.88,1.88,0,0,0,.13.35,1.9,1.9,0,0,1-.38,1.56c-.28,0-.42.13-.3.43l-2,6.53-.63,1.59Z" transform="translate(-1057.45 -346.86)"/><path class="cls-4" d="M1146.09,496.85c-1.83-3.95-4.32-7.56-5.8-11.68l.27-1.78a.59.59,0,0,0,.32.09c1.87,3.65,3.12,7.6,5.55,11-.69.71-.27,1.53-.21,2.31Z" transform="translate(-1057.45 -346.86)"/><path class="cls-2" d="M1193.18,437.81c-.29-.3-.37-.85-.94-.83-1.56-2-3.18-4-4.68-6a6.2,6.2,0,0,1-1.63-4.29l.95.75c1.88,2.7,3.78,5.39,5.61,8.12C1192.91,436.21,1193.52,436.89,1193.18,437.81Z" transform="translate(-1057.45 -346.86)"/><path class="cls-7" d="M1164.46,463.79c-2.52.1-1.89,2.86-3.29,3.9-.38-3.9,2.19-6.61,4-9.58.75-1.24,1.85-.79,2.43.52a14.89,14.89,0,0,0-2.31,1.76c-.57.63-1.49,1.43-.37,2.41Z" transform="translate(-1057.45 -346.86)"/><path class="cls-4" d="M1208,378.24a1.09,1.09,0,0,0-.64-1c.74-1.38,1.84-2.7.75-4.39a2.74,2.74,0,0,0-1.17-1.92,3,3,0,0,0-1.26-1.48l-.21-.56.1-.62C1210,370.08,1211.33,375.54,1208,378.24Z" transform="translate(-1057.45 -346.86)"/><path class="cls-2" d="M1164.9,462.81c-1.12-1-.2-1.78.37-2.41a15,15,0,0,1,2.31-1.77l1.87-.07,4.06-.19a5.58,5.58,0,0,1,2.51.62c-.42.5-1,.39-1.56.42s-1.06-.1-1.47.36l-3.19,0c-1.74,0-3.3.28-3.73,2.36C1165.94,462.73,1165.37,462.7,1164.9,462.81Z" transform="translate(-1057.45 -346.86)"/><path class="cls-2" d="M1128,451.38l.53,1L1121,456c.18-.53.4-1.08-.52-1.06C1122.58,452.87,1124.92,451.39,1128,451.38Z" transform="translate(-1057.45 -346.86)"/><path class="cls-2" d="M1153,531.77l-.08-.57a26.69,26.69,0,0,0,3-5.34c.64-1.46.21-3.14,1.21-4.44l.53,0c-.12,4-.87,7.71-4.16,10.42Z" transform="translate(-1057.45 -346.86)"/><path class="cls-5" d="M1154.29,380.38l-2.9,8c-.78-.68.11-2-1-2.56a4,4,0,0,1,.89-2.44.68.68,0,0,0,.29-.36l.08-.58,1.24-1.11a.59.59,0,0,0,.53-.64.48.48,0,0,1,0-.33Z" transform="translate(-1057.45 -346.86)"/><path class="cls-3" d="M1150.39,507.92l-1.34,0a42.24,42.24,0,0,0-2-8.16l.49-1.89c.93.6,2,1.5,1.77,2.47C1148.71,503.05,1150.08,505.39,1150.39,507.92Z" transform="translate(-1057.45 -346.86)"/><path class="cls-4" d="M1141.71,358.11c-.48-.16-1-.28-1.27-.78l.2-.09,4.39-.85,1.52,0a16.62,16.62,0,0,1,3.13.56c1.24.47,3.16.11,3.26,2.26l-1.95-.77-1.76-.14-.71-.31-1-.07a4.52,4.52,0,0,0-4.44.05Z" transform="translate(-1057.45 -346.86)"/><path class="cls-3" d="M1132.72,403.06a31.13,31.13,0,0,1,1.83-6.63l.79,1-.36,3.44v0c-.27.06-.42.2-.31.5l-.23,3.5c-1.13.21-.57,1.8-1.65,2.05C1132.67,405.65,1133.41,404.34,1132.72,403.06Z" transform="translate(-1057.45 -346.86)"/><path class="cls-4" d="M1157.63,521.47l-.53,0,2-13.53h.82C1159.57,512.49,1159.15,517.07,1157.63,521.47Z" transform="translate(-1057.45 -346.86)"/><path class="cls-2" d="M1152.95,359.26c-.1-2.15-2-1.8-3.26-2.26a16.62,16.62,0,0,0-3.13-.56c3.89-.53,7.2.26,9.19,4l-1.59,0Z" transform="translate(-1057.45 -346.86)"/><path class="cls-2" d="M1128.82,418.71l.77.79a16.63,16.63,0,0,1-2.93,7.07c-.13-.45-.2-.94-.7-1.18Z" transform="translate(-1057.45 -346.86)"/><path class="cls-5" d="M1126,425.4c.5.23.57.72.7,1.17l-.52,1.41-.13.19c-1.12,1.62-1.43,3.83-3.48,4.78,0-.8.62-1.55.16-2.37Z" transform="translate(-1057.45 -346.86)"/><path class="cls-5" d="M1138.45,471.41a11.07,11.07,0,0,1,.21-3.78c.26.62.28,1.35.88,1.8.22,1.16-.36,2.4.4,3.49l.14,2c-.35,1.15.41,2.32-.1,3.46h-1.12l-.28-4.47A1.79,1.79,0,0,0,1138.45,471.41Z" transform="translate(-1057.45 -346.86)"/><path class="cls-6" d="M1122.69,430.58c.46.83-.18,1.58-.16,2.37v0l-.54.49,0,.52v0l-.52.51h0c-1.61-.27-2.29,1.79-3.89,1.55A22.94,22.94,0,0,1,1122.69,430.58Z" transform="translate(-1057.45 -346.86)"/><path class="cls-5" d="M1208.54,460.24c.73-1.46,2.79-1.32,3.46-2.85,1.31-1,3-1.51,3.82-3.11l.81.85A12.22,12.22,0,0,1,1208.54,460.24Z" transform="translate(-1057.45 -346.86)"/><path class="cls-3" d="M1150.35,385.83c1.15.53.26,1.88,1,2.56q0,2.51,0,5h-.83a1.23,1.23,0,0,0-.38-.11l-.53-3.38.26-3.47.1-.51Z" transform="translate(-1057.45 -346.86)"/><path class="cls-5" d="M1170.09,405.68l-.26-1c.63-2.37.88-4.9,2.66-6.82l.66.6C1172.17,400.91,1171.48,403.44,1170.09,405.68Z" transform="translate(-1057.45 -346.86)"/><path class="cls-5" d="M1196,385.39l.53.52c-.41,1.69-1.87,2.68-2.75,4.06a3.83,3.83,0,0,0-.79,1.94l-.95,0-.12-1,0,0a2,2,0,0,0,.93-2l0-.08.23,0-.17-.33a1.27,1.27,0,0,1,.82-1.12c.91-.08,1.21-.64,1.16-1.47l.44-.49Z" transform="translate(-1057.45 -346.86)"/><path class="cls-2" d="M1154.29,380.38l-.91,0,.65-2.44a6.15,6.15,0,0,0,1.37-3.53,2,2,0,0,0,.41-.16l.67,1.17A9.56,9.56,0,0,1,1154.29,380.38Z" transform="translate(-1057.45 -346.86)"/><path class="cls-6" d="M1173.15,398.49l-.66-.6a25.19,25.19,0,0,1,3.31-5.77l.2.91C1175.1,394.88,1174.94,397.11,1173.15,398.49Z" transform="translate(-1057.45 -346.86)"/><path class="cls-6" d="M1138.85,478.35H1140l.6,5-.27,1.78C1138.87,483.1,1138.83,480.73,1138.85,478.35Z" transform="translate(-1057.45 -346.86)"/><path class="cls-5" d="M1085.65,464.13l7.78,1.09C1090.66,466.08,1088.16,465.08,1085.65,464.13Z" transform="translate(-1057.45 -346.86)"/><path class="cls-6" d="M1192,391.88l.95,0a5.44,5.44,0,0,1-2.39,4.56.31.31,0,0,1-.24-.07c0-1.61.8-3,1.23-4.49Z" transform="translate(-1057.45 -346.86)"/><path class="cls-4" d="M1139.53,469.43c-.6-.45-.61-1.18-.88-1.8.05-.5.1-1,.15-1.5a3.05,3.05,0,0,0-.07-2.7l-.18-1.53c.79-.71-.05-1.94.84-2.61.33,1.19-.24,2.52.57,3.63q0,2.25,0,4.49C1139.38,468,1139.68,468.75,1139.53,469.43Z" transform="translate(-1057.45 -346.86)"/><path class="cls-5" d="M1132.72,403.06c.69,1.28-.06,2.58.07,3.87l.08.08c-1.33.75-.92,2.61-2.18,3.41Z" transform="translate(-1057.45 -346.86)"/><path class="cls-6" d="M1186.88,427.44l-.95-.75,0,0-.49-1-.42-.27,0-1.42.37-1.87C1185.83,423.92,1186.85,425.54,1186.88,427.44Z" transform="translate(-1057.45 -346.86)"/><path class="cls-2" d="M1176,393l-.2-.91a15.24,15.24,0,0,1,2-4.28l.79.16A10.28,10.28,0,0,1,1176,393Z" transform="translate(-1057.45 -346.86)"/><path class="cls-6" d="M1161.34,495.44a10.5,10.5,0,0,1,.09-5.52C1162.22,491.77,1161.7,493.61,1161.34,495.44Z" transform="translate(-1057.45 -346.86)"/><path class="cls-6" d="M1160.5,501.4c0-1.73-.8-3.58.71-5.1A7.2,7.2,0,0,1,1160.5,501.4Z" transform="translate(-1057.45 -346.86)"/><path class="cls-6" d="M1139.4,459.29c-.89.67-.05,1.9-.84,2.61a11.42,11.42,0,0,1-.36-4l.91.3Z" transform="translate(-1057.45 -346.86)"/><path class="cls-6" d="M1133,451.56c1.69-.41,2-.24,3,1.81A9.26,9.26,0,0,1,1133,451.56Z" transform="translate(-1057.45 -346.86)"/><path class="cls-2" d="M1190.35,396.4a.32.32,0,0,0,.24.07c.15,1-.56,1.66-1.11,2.37l0-1C1189.48,397.18,1189.49,396.52,1190.35,396.4Z" transform="translate(-1057.45 -346.86)"/><path class="cls-2" d="M1135.34,397.46l-.79-1a3.07,3.07,0,0,1,.1-2l1.2-.07A5.68,5.68,0,0,1,1135.34,397.46Z" transform="translate(-1057.45 -346.86)"/><path class="cls-2" d="M1145,356.4l-4.39.85C1141.79,355.33,1143.51,356.35,1145,356.4Z" transform="translate(-1057.45 -346.86)"/><path class="cls-4" d="M1099,463.4q0,.6,0,1.2a1.93,1.93,0,0,1-1.47.26c-.42-.54-1-.41-1.6-.51A6.48,6.48,0,0,1,1099,463.4Z" transform="translate(-1057.45 -346.86)"/><path class="cls-6" d="M1138.45,471.41a1.79,1.79,0,0,1,.13,2.48A3.86,3.86,0,0,1,1138.45,471.41Z" transform="translate(-1057.45 -346.86)"/><path class="cls-5" d="M1161.09,478.57c-.11-.95-.43-1.93.46-2.71A4,4,0,0,1,1161.09,478.57Z" transform="translate(-1057.45 -346.86)"/><path class="cls-5" d="M1160.9,481.39a1.28,1.28,0,0,1,.13-2A2.45,2.45,0,0,1,1160.9,481.39Z" transform="translate(-1057.45 -346.86)"/><path class="cls-5" d="M1095.9,464.34c.56.1,1.19,0,1.6.51a3.38,3.38,0,0,1-2,.3q0-.37,0-.74A2.22,2.22,0,0,1,1095.9,464.34Z" transform="translate(-1057.45 -346.86)"/><path class="cls-5" d="M1160.94,484.4a1.33,1.33,0,0,1,0-2A2.46,2.46,0,0,1,1160.94,484.4Z" transform="translate(-1057.45 -346.86)"/><path class="cls-4" d="M1189.45,397.82l0,1v.59a.66.66,0,0,0-.3.8.15.15,0,0,1-.06.23l-.63,0-.11-.08A3.23,3.23,0,0,1,1189.45,397.82Z" transform="translate(-1057.45 -346.86)"/><path class="cls-6" d="M1185.11,419.06a5.46,5.46,0,0,1,.25-3.64A8.66,8.66,0,0,1,1185.11,419.06Z" transform="translate(-1057.45 -346.86)"/><path class="cls-4" d="M1147.55,497.85l-.49,1.89-.59-1.81.21-.19.88.14Z" transform="translate(-1057.45 -346.86)"/><path class="cls-5" d="M1162.14,473.14c-.17-.67-.3-1.33.44-1.78A1.89,1.89,0,0,1,1162.14,473.14Z" transform="translate(-1057.45 -346.86)"/><path class="cls-6" d="M1138.73,463.43a3.05,3.05,0,0,1,.07,2.7A6.14,6.14,0,0,1,1138.73,463.43Z" transform="translate(-1057.45 -346.86)"/><path class="cls-6" d="M1173,459.77c.4-.46,1-.32,1.47-.36a1.92,1.92,0,0,1,0,.48A1.49,1.49,0,0,1,1173,459.77Z" transform="translate(-1057.45 -346.86)"/><path class="cls-5" d="M1162.92,469.89c-.49-.42-.32-.74.16-1A.79.79,0,0,1,1162.92,469.89Z" transform="translate(-1057.45 -346.86)"/><path class="cls-6" d="M1137.71,455.86c.51.22.85.5.32,1C1137.8,456.6,1137.55,456.29,1137.71,455.86Z" transform="translate(-1057.45 -346.86)"/><path class="cls-6" d="M1153,531.77l.45.12a1,1,0,0,1-1.46.35Z" transform="translate(-1057.45 -346.86)"/><path class="cls-5" d="M1178.6,388l-.79-.16.66-1,.06.05,0,1Z" transform="translate(-1057.45 -346.86)"/><path class="cls-5" d="M1161.11,488.86c-.6-.22-.62-.55-.17-1Z" transform="translate(-1057.45 -346.86)"/><path class="cls-4" d="M1146.46,497.94l-.37-1.08.13-.1.45,1Z" transform="translate(-1057.45 -346.86)"/><path class="cls-2" d="M1188.5,400.41l.63,0a1.43,1.43,0,0,1-.49,1.22Z" transform="translate(-1057.45 -346.86)"/><path class="cls-2" d="M1187.61,404.62c-.1-.49-.07-.92.45-1.16A1.11,1.11,0,0,1,1187.61,404.62Z" transform="translate(-1057.45 -346.86)"/><path class="cls-6" d="M1137.07,454.48c.43.1.5.42.47.79A.76.76,0,0,1,1137.07,454.48Z" transform="translate(-1057.45 -346.86)"/><path class="cls-2" d="M1189.19,400.23a.66.66,0,0,1,.3-.8A.65.65,0,0,1,1189.19,400.23Z" transform="translate(-1057.45 -346.86)"/><path class="cls-5" d="M1188.36,370.32l.7.54a1.19,1.19,0,0,1-.38.21l-.46-.51A.22.22,0,0,1,1188.36,370.32Z" transform="translate(-1057.45 -346.86)"/><path class="cls-2" d="M1156,360.7l0,.09A.09.09,0,0,0,1156,360.7Z" transform="translate(-1057.45 -346.86)"/><path class="cls-6" d="M1136.58,454l.37.38Z" transform="translate(-1057.45 -346.86)"/><path class="cls-2" d="M1187.07,405.56l.13-.56Z" transform="translate(-1057.45 -346.86)"/><path class="cls-2" d="M1120.48,456.35l.56-.42Z" transform="translate(-1057.45 -346.86)"/><path class="cls-8" d="M1211.23,457a28.32,28.32,0,0,1-11.61,4l-5.62-.12-.06-2.14a2.52,2.52,0,0,0,.19-2.89h4.95c.91.6,1.85,1.25,2.83.18s.51-2.09-.42-3v-2.69c1.27,1.28,2.67,1.83,4.37.8,3.1-1.87,4.38-5,5.57-8.16.24-.63-.24-1.08-.95-1.15-.07-.7.24-1.5-.53-2l.51-3.49c1.51-.17,2.68-2.27,4.47-.76-.87.81-1.12,1.75-.07,2.5s1.87.21,2.48-.75l1.27-.55c1.66,3.3,1,6.69.36,10.07-.06,0-.18.09-.18.12a2,2,0,0,0,.12.36,10.34,10.34,0,0,1-2,5c-1-.19-1.64.58-2.41,1-1,.52-1.58,1.74-2.94,1.5,0-1.52-.35-2.83-2.19-2.94a1.93,1.93,0,0,0-2.12,1.67c-.4,2.17,1,2.67,2.77,2.73C1210.26,456.87,1210.77,456.91,1211.23,457Zm4.21-7.11a1.21,1.21,0,0,0-1-1.43,1.12,1.12,0,0,0-1.42,1,1.06,1.06,0,0,0,.94,1.41A1.23,1.23,0,0,0,1215.44,449.94Zm1.39-7a.8.8,0,0,0-.65-.88c-.7-.13-1,.33-1.1,1a.64.64,0,0,0,.71.76A1,1,0,0,0,1216.83,443Z" transform="translate(-1057.45 -346.86)"/><path class="cls-9" d="M1210.5,441.9c.71.06,1.18.51.95,1.15-1.19,3.16-2.47,6.29-5.57,8.16-1.7,1-3.1.48-4.37-.8l-.5-2.59a3.9,3.9,0,0,0,2.57-1.4l2.91-1.52C1209,445.49,1209.27,443.05,1210.5,441.9Z" transform="translate(-1057.45 -346.86)"/><path class="cls-10" d="M1211.23,457c-.46-.13-1-.18-1.23-.68l1.54-1.46c1.36.24,2-1,2.94-1.5.77-.41,1.39-1.19,2.41-1l-1.07,1.86c-.82,1.59-2.51,2.12-3.82,3.11Z" transform="translate(-1057.45 -346.86)"/><path class="cls-7" d="M1214.95,435.65c-1.79-1.51-3,.59-4.47.76.12-3.29,1.42-4.07,5-3v2.08Z" transform="translate(-1057.45 -346.86)"/><path class="cls-7" d="M1210.5,441.9c-1.22,1.15-1.49,3.58-4,3,1.5-1.43,2.34-3.32,3.47-5C1210.74,440.41,1210.43,441.2,1210.5,441.9Z" transform="translate(-1057.45 -346.86)"/><path class="cls-11" d="M1215.5,435.45v-2.08a4.25,4.25,0,0,1,3.11,3.48l-1.27.55A1.93,1.93,0,0,0,1215.5,435.45Z" transform="translate(-1057.45 -346.86)"/><path class="cls-11" d="M1218.92,447.39a2,2,0,0,1-.12-.36s.12-.08.18-.12A.8.8,0,0,1,1218.92,447.39Z" transform="translate(-1057.45 -346.86)"/><path class="cls-12" d="M1201,447.82l.5,2.59q0,1.35,0,2.69l-1.44-.06c-.17-.24-.33-.57-.7-.37s-.29.64-.27,1l0,2.21h-4.95c-1-.42-2-.66-2.78.49h-2.23l-1.58-1.62c-.45-1.11-1-1.15-1.58-.12a4.85,4.85,0,0,0-2,1.75h-2.26c0-1.33-.18-2.7-1.89-2.37s-1.41,1.67-.85,2.89c-.87.44-.94,1.22-.91,2.06h-2a5.58,5.58,0,0,0-2.51-.62l-.14-2.25c1.12-1.31,1.84-2.7.14-4a2.09,2.09,0,0,0-3.22.61c-1.14,1.66-.07,2.73,1.23,3.65.41,1.77-1.61,1.25-2.07,2.2l-1.87.07c-.58-1.31-1.68-1.76-2.43-.52-1.79,3-4.36,5.69-4,9.58-.34,2.28-1.72,4.32-1.61,6.71-1.63.16-2.19,1.39-2.49,2.7-.7,3-1.74,3.49-4.48,2s-3.22-2.67-2.69-6.1c.16-1,.07-1.92-1.14-2.06-1.47-.17-1.21,1-1.25,1.86-.08,1.77,1.24,3.26,1,5.06l-1.68-.06c.21-1,.24-2.23-1.17-2.13-1.58.11-1.09,1.51-1.07,2.53,0,1.58-2.24,3.37.47,4.68-1.46,2.71-1.23,3.53,1.44,5.2l0,.78c-.33,1.48.64,2.3,1.57,3.15-.12,1-.15,2,1.22,1.87,1.19-.09,1.12-1,.89-1.86l1.82-.16c-.2,1.32.93,2.26,1,3.5-.65,0-1.49-.07-1.71.61-.76,2.37-2.13,1.78-3.63.89l-.66-1.52-.39-.46-.18-.49c-2.43-3.36-3.68-7.32-5.55-11a23.62,23.62,0,0,0-.38-8.4c0-.09-.29-.12-.44-.18l-.14-2c.47-.18.55-.58.59-1,1.84-.22,3.91,0,4.49-2.51.77-.13,1.69,0,1.86-1.12a1,1,0,0,0-.67-1.16,1.67,1.67,0,0,0-2.25.79c-1.31.94-2.29-.35-3.44-.5H1140q0-2.25,0-4.49c.65-2.29,1.43-4.6-.78-6.55.33-2.36-2.09-3.14-2.81-4.9.58-.58,1.46-1.06.61-2.06.53-.69,1.78-.93,1.4-2.2a5.05,5.05,0,0,0-.51-3.73l1.82-.63c1.48,1.26,3.05,1.74,4.48.06s.57-3-.79-4.21c-.24-1.39,1.12-1.86,1.62-2.82l1,.54c.87.66,1,1.71,1.48,2.61a.91.91,0,0,0,1,.86c.53,1.16-1.34,2.29-.47,3,1.41,1.19.7,2.29.48,3.49a1,1,0,0,0-1,.75,3.24,3.24,0,0,0-2.58,3.24l-1,.11c-.94-.36-1.92-.65-2.58.39s-.15,1.67.68,2.24l.35.53.28-.37a2.4,2.4,0,0,0,1.61-1.34l1.35-.07A4.21,4.21,0,0,0,1148,453c-.13,1,.34,2-.41,2.87a10.84,10.84,0,0,0-1.3-.7,2.92,2.92,0,0,0-3.64,1.28,2.66,2.66,0,0,0,.34,3.6,3,3,0,0,0,3.62.66c1-.39,1.33-1.39,1.75-2.28,1.08-.66.27-1.07-.2-1.53l-.15-.51c1.67-.31,2.61,2,4.34,1.28a3.44,3.44,0,0,1,3.67.73c-.15,1.8.16,3.47,2.37,3.45s2.72-1.66,2.4-3.61c.48-1.3,1.63-2.27,1.89-3.69,1.27.35,2.65.85,3.61-.44a2.26,2.26,0,0,0,.31-2.74c-.8-1.17-1.82-1.88-3.33-1.42l.19-1.63c.81-1,1.64-2.09.3-3.23s-2.3-.23-3.22.7l0,.79.31,1.16c-2.62,2.57-6.19,3.22-9.37,4.68a.93.93,0,0,0-1-1l.22-2c2.2-.13,2.6-2,3.3-3.5.81-.41,1.62-.84,2.44-1.22,2.82-1.3,6.36-1.47,7.36-5.45.22-.88,1.61-1.59,1.67-2.85,0-.62.3-1.41-.44-1.79s-1.28.23-1.67.73c-1.63,2.06-3.66,1.79-5.85,1.18-1.18-.33-2.18-1.25-3.51-1.1-.5-.72-1.25-.43-1.92-.5l-1.09-2.46a4.1,4.1,0,0,1,1.74-1.69,3.78,3.78,0,0,0,1.77-3.59c-.05-1-.5-1.51-1.32-.64-1.09,1.16-2.43.79-3.71.88-1-.71-2.24-.45-3.38-.57l.39-2.44c.75-.73.22-.9-.45-1l-2-1.29-.56-.67v-3c.41-.73.6-1.64,1.5-2a11.83,11.83,0,0,0,8.5-4.5h4c0,.73-.05,1.57.86,1.8.75.18,1.1-.56,1.56-1a2.42,2.42,0,0,0,1.08-1.82l1.44.39c.53.77,1.06.79,1.61,0l1.93-.44c1.2,1.66,2.71,3,3.42,5.1.54,1.58,2.18,1.28,3,.16a27.31,27.31,0,0,1,3.36-3.61,14.13,14.13,0,0,0,3.3-5.6c1.1-2.94,2.17-6.32,6.05-7a.7.7,0,0,0,.4.15,15.92,15.92,0,0,1-1.39,7.9,22.34,22.34,0,0,0-1.48,5.43c-.21,1.18-.13,2.48,1.34,3l0,1c-1.41.74-1.2,2.38-1.93,3.5h0a4,4,0,0,1-2.57-.12c-3-1.44-3.71-1-5.58,1.81a11.53,11.53,0,0,1-2.28,2.26c-1.42,1.21-2.89,2.35-4.35,3.52a3,3,0,0,0-2-.87c-1.05-.71-2.12-1.41-3.49-1-.82,0-1.66-.35-2.44.13a2,2,0,0,0-.81,3c1.11,1.82,2.47,1.16,3.81.24l1.72.08a2.4,2.4,0,0,0,2.51,1c1.25,3.61,1.3,3.63,4,1.89a2.84,2.84,0,0,0,2.67-1.39l3.29,0a13.7,13.7,0,0,1,3.89,5.06,2.15,2.15,0,0,0,2.27,1.44c3.46-.07,7-.36,9.95,2a17.94,17.94,0,0,0,2.61,5.42c-2.18,2-4.43,1.71-7,.7-1.48-.57-2.72-1.83-4.18-2-2.72-.24-4-1.56-4.45-4.1-.31-1.69-1.26-2.25-3.09-1.7a26.68,26.68,0,0,1-5.8,1.26c-2.62.19-2.56,2.77-3,4.57a2.8,2.8,0,0,0,1.84,3.2c5.18,2.32,10.72,2.92,16.27,3.73,3.82.56,7.56-.37,11.31.26.93.16,1.37-.48,1.42-1.34s0-1.66,0-2.49Zm-43.5-26.41c-1.16,0-1.91.55-1.92,1.77a1.6,1.6,0,0,0,1.7,1.75,1.75,1.75,0,0,0,2-1.8C1159.3,422,1158.56,421.52,1157.5,421.41Zm2.47-3.12a1.47,1.47,0,0,0-2.92.22c.06,1,.72,1.44,1.69,1.34S1160,419.15,1160,418.29Zm21.72-10.3a1.11,1.11,0,0,0-1.1,1.05,1.06,1.06,0,0,0,.91,1.23c.77.15,1-.37,1-1S1182.51,408.1,1181.69,408Z" transform="translate(-1057.45 -346.86)"/><path class="cls-8" d="M1147.66,496.91c1.5.89,2.87,1.48,3.63-.89.22-.67,1.06-.61,1.71-.61a4.81,4.81,0,0,1,2.52,4.45c0,2.28,1.17,3.48,3.47,3.55l.12,4.48-2,13.53c-1,1.3-.57,3-1.21,4.44a26.69,26.69,0,0,1-3,5.34l-1.24.08-.69-.38a7.32,7.32,0,0,1-2.09-3.46c.85-1.44.4-3.79,3.1-4,.62,0,.19-1-.53-1-1.69,0-1.39-1.16-1.52-2.22-.23-1.79,1.25-3.51.19-5.31l.26-4.53,0-1.47q0-.49,0-1c-.31-2.53-1.68-4.87-1.07-7.6.22-1-.84-1.88-1.77-2.47v0Zm6.28,17.83a1.3,1.3,0,0,0-1.51-1.28c-.77,0-1.35.37-1.35,1.15,0,.94.7,1.23,1.53,1.26A1.12,1.12,0,0,0,1153.95,514.74Zm.07-10.3c-.87,0-1,.61-1,1.33s.15,1.46,1,1.42a1.47,1.47,0,0,0,1.43-1.65C1155.37,504.78,1154.78,504.46,1154,504.44Z" transform="translate(-1057.45 -346.86)"/><path class="cls-13" d="M1159,503.41c-2.3-.07-3.51-1.27-3.47-3.55a4.81,4.81,0,0,0-2.52-4.45c-.07-1.24-1.2-2.18-1-3.5.07-1,.09-1.92.21-2.88.19-1.39-.2-2.36-1.71-2.63l-.52-.5-.49-2.49a10,10,0,0,0-1-5.5c.25-1.8-1.07-3.3-1-5.06,0-.87-.23-2,1.25-1.86,1.21.14,1.3,1.05,1.14,2.06-.53,3.44,0,4.7,2.69,6.1s3.78.94,4.48-2c.31-1.31.86-2.54,2.49-2.7.09,5.36-.33,10.72.72,16.05.22,1.13-.28,2.41-.49,3.62A41.35,41.35,0,0,0,1159,503.41Z" transform="translate(-1057.45 -346.86)"/><path class="cls-13" d="M1137,449.4c.86,1,0,1.49-.61,2.06-2.78-2.75-5.6-1.19-8.42-.09-3,0-5.38,1.49-7.46,3.52-6.32,4.73-14,5.89-21.27,8.08l-2.74-.6,0-1.22c1.46-.38,2.39-1.23,2.19-2.84s-1.29-2-2.7-1.95c-.77-.72-.91-.16-1,.5l-.84.81a5.8,5.8,0,0,0-5.81-2.21l-1.84-.25a1.7,1.7,0,0,0-1.24-1.93c-1.57-.5-3.15-.95-4.73-1.42l-1-.64a8.47,8.47,0,0,0-1-2c-1.17-1.36-2.48-2.55-4.41-1.16-1.44,1-1.6,3.1-.28,4.81.6.78,1.41,1.39,2,2.15.77,1,1.16,1.92-.52,2.38l-3.5-3.53a.38.38,0,0,0-.4-.46l-.46-1.05c.3-2.82,0-5.68,1-8.46a11.57,11.57,0,0,1,4.71-6.1c1.75-1.12,3.47-.22,3.27,1.84-.24,2.47,1.13,3,3,3.22a6.29,6.29,0,0,1,1.35,1.08c4.36,6.09,10.1,5,15.92,3,2.68-.93,5.65-1.34,7.74-3.58a4.29,4.29,0,0,0,2.84-.68c3.82-2.43,7.89-4.53,10.66-8.31h0l.52-.51v0l.41-.52.11-.49v0c2-.95,2.36-3.16,3.48-4.78l.17,0,0-.16.52-1.41a16.62,16.62,0,0,0,2.93-7.06l.63-1.59a5.78,5.78,0,0,1,2.7-.5l.52,1c-1.57,1.17-1,2.57-.43,4-.63,1.31-1.85,2.07-2.81,3.09-1.91,2-1.48,3.76,1.07,4.78.5.2,1.33-.13,1.47.62s-.59,1.12-1.14,1.45c-5.72,3.46-11.43,6.94-17.19,10.34-2.51,1.48-3,2.75-1.91,5.72v1.32c-2.68,1.63-2.8,2.76-.54,4.87.19.87.87.78,1.51.79,3.69,1,5.5.09,6-3,1.73,0,3.32-.21,4.17-2s.2-3.19-.9-4.55c.18-1.2.45-2.36,1.72-2.92,1.19-.35,1.7,1.27,2.86,1l.22,1.37-.1.63c-1.7.52-.48,1.17,0,1.67.89,1,1.79,1.2,2.55-.18a4.34,4.34,0,0,1,2.56-.51,5,5,0,0,0,1.91,1.75C1135,449.92,1136.13,449.21,1137,449.4Zm-29.37,8.53a2.58,2.58,0,0,0,.32-4c-.85-.91-2.56-1.94-4-.23a3.3,3.3,0,0,0-2.36,3.59,2.64,2.64,0,0,0,2.09,2.45C1105.44,460.2,1106.69,459.38,1107.61,457.94Z" transform="translate(-1057.45 -346.86)"/><path class="cls-9" d="M1145,416.41c-.9.36-1.09,1.27-1.5,2l-2.62.55a3,3,0,0,0-2.4-.63c-.62-.53.42-1.59-.64-2l-1.37-1.86c-.09-1.6.81-3.09.51-4.71a2.75,2.75,0,0,0,1.56-2.37c1.59-.09,3.17-.56,3.38-2.29.67-5.41,4.05-10,4.32-15.56.06-1.18,1-2.28.49-3.58l.07-1.51c1,0,1.33-.83,1.72-1.57a28.37,28.37,0,0,0,2.74-7.72c.82-4.12,2-8.35-1.55-12.14-1.4-1.49-2.46-2-4.22-1.13a2.65,2.65,0,0,0-3.64.62l-2.48-.11c0-1.87,1.49-2.92,2.37-4.31l1.34-.1c1.48,0,3,2,4.44-.05l1,.07.71.31,1.76.14a28.52,28.52,0,0,1,3.87,7.15,2.61,2.61,0,0,0,1.89,1.78c.68,2.41-.69,4.54-.93,6.83a2.06,2.06,0,0,1-.41.15c-2.45.67-2.74,1.42-1.37,3.53l-.65,2.44a.47.47,0,0,0,0,.33l-.53.64-1.24,1.11-.58.51,0,0c-2,.39-.68,2-1.05,2.93l-.1.51c-.3,1.14-1.75,2.19-.26,3.47l.53,3.38c-2.23,6.29-2,11.84,3.76,15.78,1.08.74,2.36,1.3,2.55,2.84h-3a2.6,2.6,0,0,0-2.1.59,11.59,11.59,0,0,1-5.34,2.92C1145.64,415.53,1145.35,416.07,1145,416.41Z" transform="translate(-1057.45 -346.86)"/><path class="cls-8" d="M1145.47,361.92c1.76-.9,2.82-.36,4.22,1.13,3.54,3.79,2.37,8,1.55,12.14a28.37,28.37,0,0,1-2.74,7.72c-.39.73-.68,1.56-1.72,1.57-.93-1-1.95-1.66-3.13-.42a1.84,1.84,0,0,0,.07,2.68c1.41,1.6,2-.3,3-.75.54,1.3-.43,2.39-.49,3.58-.26,5.52-3.65,10.15-4.32,15.56-.21,1.73-1.79,2.2-3.38,2.29a2.62,2.62,0,0,0-2-2,21.94,21.94,0,0,1,.22-2.37c.29-1.46-.29-2.12-1.73-2.12l.36-3.44a5.69,5.69,0,0,0,.51-3.08l.34-1.51.29-.46v0l.43-.65.51-2.37a5.43,5.43,0,0,0,2-6.49l.14-1c.65-.14,1.13-.35.39-1l.12-1,.34-.59.09-2,.1-.5c1.2-.78.61-2.79,2.24-3.28,1.6.94,3,.86,3.91-.93.8-.59.77-1.19,0-1.79-1.6-2-2.6-2.09-4.45-.41-2.88-.5-2.48-3.22-3.31-5a3.33,3.33,0,0,1,.29-2.88l2.48.11c-.3,1.31-.11,2.45,1.23,3.1a1.86,1.86,0,0,0,2.25-.37C1146.41,364.21,1146.06,363.07,1145.47,361.92Zm3,16c-.11-1.24-.69-2.13-1.94-2.23a2.05,2.05,0,0,0-2.31,2.07,1.88,1.88,0,0,0,1.89,2.16A2.1,2.1,0,0,0,1148.42,377.94ZM1142,395a1.94,1.94,0,0,0,1.95-2.12,1.78,1.78,0,0,0-2-1.95,1.87,1.87,0,0,0-2,2.07A2,2,0,0,0,1142,395Zm-.62,4.9c0-1.41-.53-2.22-1.72-2.28a1.83,1.83,0,0,0-.07,3.66A1.7,1.7,0,0,0,1141.43,399.88Z" transform="translate(-1057.45 -346.86)"/><path class="cls-14" d="M1142.36,370.35c1.85-1.68,2.85-1.59,4.45.41a2.33,2.33,0,0,0,0,1.79c-1,1.8-2.31,1.87-3.91.93A8.12,8.12,0,0,1,1142.36,370.35Z" transform="translate(-1057.45 -346.86)"/><path class="cls-10" d="M1096.48,462.39l2.74.6a4.59,4.59,0,0,1-.24.41,6.48,6.48,0,0,0-3.09.94,2.2,2.2,0,0,0-.42.07l-2-.15C1093.45,462,1095.16,462.49,1096.48,462.39Z" transform="translate(-1057.45 -346.86)"/><path class="cls-7" d="M1181.65,456.41h2.26l.3,2.4c-1.07.34-2.36-.37-3.28.7-1-.18-2.05.15-2.94-.52,0-.83,0-1.62.91-2.06A2.1,2.1,0,0,0,1181.65,456.41Z" transform="translate(-1057.45 -346.86)"/><path class="cls-15" d="M1189.11,456.38h2.23l.4,2.33c-1,.42-1.33,1.41-1.81,2.27l-3.49-.14-.91-1C1188.06,460.07,1189.23,458.88,1189.11,456.38Z" transform="translate(-1057.45 -346.86)"/><path class="cls-11" d="M1189.94,461c.48-.86.79-1.84,1.81-2.26a4.06,4.06,0,0,0,2.19.06l.06,2.14-.5.48A3.27,3.27,0,0,1,1189.94,461Z" transform="translate(-1057.45 -346.86)"/><path class="cls-10" d="M1185.54,459.84l.91,1a10.39,10.39,0,0,1-5.52-1.33c.91-1.07,2.21-.36,3.28-.7Z" transform="translate(-1057.45 -346.86)"/><path class="cls-16" d="M1193.5,461.39l.5-.48,5.62.12-1.22.75A12.11,12.11,0,0,1,1193.5,461.39Z" transform="translate(-1057.45 -346.86)"/><path class="cls-10" d="M1188.67,371.08a1.19,1.19,0,0,0,.38-.21c2.29-3.48,5.48-3.35,9.12-2.72,2.36.41,4.9-.29,7.25.76l.21.56c-.62.59-1.4.42-2.14.43-1.78-1-3.92-.16-4.22,1.07-.81,3.32-3.29,3.14-5.57,3.4-3.24.37-4.78,1.78-4.66,5,.06,1.69-.43,2.52-2.09,3s-3.05,1.29-2.64,3.52a1.32,1.32,0,0,1-1.34,1.49c-2.83,0-3.27.78-1.85,3.17.19,1.79-1,3.81.89,5.32-.07,3.42-1.2,4.78-4.26,5.09-.9-.88-1.88-1.41-3.05-.48a1.81,1.81,0,0,0-.81,2.15,2.21,2.21,0,0,0,3,1.39c.53,3.43-2.48,5.24-3.64,7.89-.35.8-.76,1.87-1.86,1.73s-.7-1.35-1.06-2a14.74,14.74,0,0,0-.82-1.24c.08-.76-.66-1-1-1.46.31-1.19,1.59-1.92,1.56-3.27,1.39-2.24,2.08-4.77,3.06-7.18,1.79-1.38,1.95-3.62,2.86-5.46a10.28,10.28,0,0,0,2.59-5l0-.06a1,1,0,0,0,.5-1l0,0,.46-.55c2.67-2.64,3.42-6.41,5.56-9.39A26.65,26.65,0,0,0,1188.67,371.08Zm-8.92,25a1.52,1.52,0,0,0-1.75-1.63c-1,0-1.89.06-2,1.34s.88,1.77,1.87,1.9S1179.56,397.09,1179.76,396Z" transform="translate(-1057.45 -346.86)"/><path class="cls-15" d="M1150.15,514.91c1.06,1.8-.41,3.52-.19,5.31.13,1.06-.17,2.23,1.52,2.22.72,0,1.15,1,.53,1-2.69.19-2.24,2.55-3.1,4C1148.17,523.15,1149.12,519,1150.15,514.91Z" transform="translate(-1057.45 -346.86)"/><path class="cls-3" d="M1150.38,508.9l0,1.47C1149.79,509.89,1149,509.41,1150.38,508.9Z" transform="translate(-1057.45 -346.86)"/><path class="cls-2" d="M1151,530.9l.69.38Z" transform="translate(-1057.45 -346.86)"/><path class="cls-7" d="M1139.47,382.9a5.43,5.43,0,0,1-2,6.49Z" transform="translate(-1057.45 -346.86)"/><path class="cls-2" d="M1140.54,377.27l-.09,2a2.51,2.51,0,0,0-.46.17C1140,378.69,1139.8,377.87,1140.54,377.27Z" transform="translate(-1057.45 -346.86)"/><path class="cls-7" d="M1140,380.9c.74.67.26.88-.39,1A.91.91,0,0,1,1140,380.9Z" transform="translate(-1057.45 -346.86)"/><path class="cls-7" d="M1140,379.48a2.51,2.51,0,0,1,.46-.17l-.34.59A1.5,1.5,0,0,1,1140,379.48Z" transform="translate(-1057.45 -346.86)"/><path class="cls-7" d="M1136.49,392.41l-.29.46Z" transform="translate(-1057.45 -346.86)"/><path class="cls-7" d="M1136.93,391.75l-.43.65Z" transform="translate(-1057.45 -346.86)"/><path class="cls-9" d="M1192.6,439.91c-3-2.35-6.49-2.07-9.95-2a2.15,2.15,0,0,1-2.27-1.44,13.7,13.7,0,0,0-3.89-5.06v-1.07c.84-.59,1.61-1.24,1.22-2.42s-1.3-1.37-2.37-1.28a1.19,1.19,0,0,1-.63-1.62c.74-2.26,2.33-1.46,3.81-1.11,1.62.85,2.55.58,2.38-1.47,1,0,1.13-.73,1.1-1.53h0l1.6.11.95,2.87a1.61,1.61,0,0,0,.52,1.52l.42.27a.83.83,0,0,0,.49,1l0,0a6.2,6.2,0,0,0,1.63,4.29c1.5,2,3.11,4,4.68,6Z" transform="translate(-1057.45 -346.86)"/><path class="cls-8" d="M1177.74,401c3.06-.31,4.19-1.67,4.26-5.09l.5-.5c2.78-.31,2.8-2.47,3-4.5.28-.69,1.07-1.13,1-2a9.36,9.36,0,0,0,3.5-.5c.7.29,1.15,1.08,2,1l-.09,1.43,0,0c-.64.18-1.16.4-.32,1-.43,1.49-1.22,2.89-1.23,4.49-.86.12-.86.77-.9,1.41a3.23,3.23,0,0,0-1.06,2.51c-2.89,5-3.58,10.55-4.41,16.08-1.47-.55-1.55-1.86-1.34-3a22.34,22.34,0,0,1,1.48-5.43,15.92,15.92,0,0,0,1.39-7.9c.95-.34,1.71-.84,1.15-2a1,1,0,0,0-1.49-.47c-1.17.69-.54,1.53-.06,2.32-3.89.71-5,4.09-6.05,7a14.13,14.13,0,0,1-3.3,5.6,27.31,27.31,0,0,0-3.36,3.61c-.81,1.12-2.44,1.42-3-.16-.71-2.08-2.23-3.44-3.42-5.1.28-.57.81-.55,1.33-.56l2.19.09a14.74,14.74,0,0,1,.82,1.24c.36.68,0,1.89,1.06,2s1.52-.93,1.86-1.73c1.16-2.66,4.17-4.47,3.64-7.89A2.62,2.62,0,0,0,1177.74,401Zm11.7-9.21c0-.6-.22-1.12-.77-1.15-.75-.05-1.18.65-1.45,1.18s.27.92.81,1A1.16,1.16,0,0,0,1189.44,391.79Z" transform="translate(-1057.45 -346.86)"/><path class="cls-8" d="M1183.6,421l-1.6-.11c.73-1.12.52-2.76,1.93-3.5l-.11,3-.28.5Z" transform="translate(-1057.45 -346.86)"/><path class="cls-2" d="M1185.07,425.42a1.61,1.61,0,0,1-.52-1.52l.49.1Q1185.05,424.71,1185.07,425.42Z" transform="translate(-1057.45 -346.86)"/><path class="cls-9" d="M1183.54,421l.28-.5C1183.86,420.7,1183.86,420.92,1183.54,421Z" transform="translate(-1057.45 -346.86)"/><path class="cls-2" d="M1179.07,387a1,1,0,0,1-.5,1l0-1Z" transform="translate(-1057.45 -346.86)"/><path class="cls-2" d="M1179.51,386.41l-.46.55Z" transform="translate(-1057.45 -346.86)"/><path class="cls-10" d="M1156.5,411.91c-.2-1.54-1.47-2.1-2.55-2.84-5.75-3.94-6-9.49-3.76-15.78a1.21,1.21,0,0,1,.38.11c-.41,2.92.21,5.8.56,8.65.47,3.74,3,6.17,6.46,7.53.41,1.19,1.65.81,2.44,1.28-.48,1.21-1.53,1.05-2.52,1.06Z" transform="translate(-1057.45 -346.86)"/><path class="cls-11" d="M1075.37,457.47c1.68-.46,1.3-1.43.52-2.38-.62-.76-1.43-1.38-2-2.15-1.32-1.71-1.16-3.78.28-4.81,1.93-1.39,3.24-.2,4.41,1.16a8.47,8.47,0,0,1,1,2,8.2,8.2,0,0,0-1.43.29,1.75,1.75,0,0,0-1.23,2.11,1.65,1.65,0,0,0,1.55,1.35,2,2,0,0,0,2.18-1.2,2.61,2.61,0,0,0,0-1.9c1.58.47,3.16.92,4.73,1.42a1.7,1.7,0,0,1,1.24,1.93c-1.31.68-2.62,1.48-1.59,3.17.77,1.26,2.16,1.17,3.28.52,1.7-1,1.19-2.25.14-3.45a5.8,5.8,0,0,1,5.81,2.21l-.17.71c-1.71.31-1.86,1.64-2,3-.87.48-2,.7-2,2.05-3.32.15-6.22-1.54-9.37-2.16-.38-.13-.77-.26-1.12.07l.07,0C1078.4,459.8,1075.79,459.83,1075.37,457.47Z" transform="translate(-1057.45 -346.86)"/><path class="cls-7" d="M1090,463.46c0-1.35,1.13-1.57,2-2.05,1.08.53,2.14,1,3-.4l1.53.17,0,1.22c-1.32.1-3-.42-3,1.87C1092.23,464.42,1091,464.62,1090,463.46Z" transform="translate(-1057.45 -346.86)"/><path class="cls-3" d="M1079.51,461.37c.35-.33.74-.2,1.12-.07C1080.29,461.81,1079.94,462.13,1079.51,461.37Z" transform="translate(-1057.45 -346.86)"/><path class="cls-13" d="M1182.5,395.41l-.5.5c-1.91-1.5-.7-3.53-.89-5.31,2.54-.11,2.88-.7,1.85-3.17a1.32,1.32,0,0,0,1.34-1.49c-.41-2.22,1.09-3,2.64-3.52s2.15-1.34,2.09-3c-.12-3.23,1.42-4.64,4.66-5,2.28-.26,4.76-.08,5.57-3.4.3-1.24,2.45-2.07,4.22-1.07-2.31,1-2.59,2.9-2.49,5-.94.14-1.58.59-1.43,1.62a1,1,0,0,0,1.3.79c1.09-.24,1.13-1,.93-1.91a3.73,3.73,0,0,1,1,0c1.89.49,3.1.48,2.44-2.15a1.83,1.83,0,0,1,1.66-2.33,2.74,2.74,0,0,1,1.17,1.92,7.2,7.2,0,0,1-2.94,4.22c-.34.22-.43.84-.63,1.28-2.07,1.17-4.17,2.3-6.21,3.54a4,4,0,0,0-1.9,1.91c-.8.19-.93.84-1,1.52l-.44.49c-.84.13-1,.81-1.16,1.47a1.26,1.26,0,0,0-.82,1.12.43.43,0,0,0-.06.37l0,.08-.84.56c-.88.08-1.33-.71-2-1l.48-1.52c.1-.94,1.7-1.58.47-2.8a1.75,1.75,0,0,0-2.45-.17c-3.13.6-3.6,1.77-2,5,.07.87-.72,1.31-1,2C1182.95,391.19,1182.51,391.85,1182.5,395.41Zm13-15.37c1.59-.68,1.72-1.62.49-2.79-.24-2.3-2-1.27-3.09-1.25a2.51,2.51,0,0,0-2.39,2.45c-.2,1.7.92,2.67,2.24,3.24a1.85,1.85,0,0,0,2.74-1.26A2.61,2.61,0,0,0,1195.52,380Z" transform="translate(-1057.45 -346.86)"/><path class="cls-10" d="M1204.5,378.37c.2-.44.29-1.06.63-1.28a7.2,7.2,0,0,0,2.94-4.22c1.08,1.69,0,3-.75,4.39C1206.31,377.45,1205.6,378.42,1204.5,378.37Z" transform="translate(-1057.45 -346.86)"/><path class="cls-2" d="M1195.38,385.34c.07-.68.2-1.32,1-1.52.2.61-.17,1.07-.4,1.57Z" transform="translate(-1057.45 -346.86)"/><path class="cls-10" d="M1156.75,367.41a2.61,2.61,0,0,1-1.89-1.78,28.52,28.52,0,0,0-3.87-7.15l1.95.77,1.21,1.21C1155.61,362.56,1157,364.68,1156.75,367.41Z" transform="translate(-1057.45 -346.86)"/><path class="cls-8" d="M1157.5,411.92c1,0,2,.15,2.52-1.06l1,.05a2.42,2.42,0,0,1-1.08,1.82c-.46.42-.82,1.17-1.56,1C1157.45,413.49,1157.51,412.65,1157.5,411.92Z" transform="translate(-1057.45 -346.86)"/><path class="cls-7" d="M1169.5,410.41l-2.19-.09a2.11,2.11,0,0,1,1.21-1.37C1168.84,409.44,1169.58,409.65,1169.5,410.41Z" transform="translate(-1057.45 -346.86)"/><path class="cls-8" d="M1164,411.32c-.55.76-1.09.74-1.61,0A1.06,1.06,0,0,1,1164,411.32Z" transform="translate(-1057.45 -346.86)"/><path class="cls-9" d="M1198.49,447.47c0,.83,0,1.67,0,2.49s-.49,1.49-1.42,1.34c-3.75-.63-7.49.3-11.31-.26-5.55-.81-11.1-1.41-16.27-3.73a2.8,2.8,0,0,1-1.84-3.2c.48-1.8.42-4.38,3-4.57a26.68,26.68,0,0,0,5.8-1.26c1.83-.55,2.78,0,3.09,1.7.47,2.53,1.72,3.86,4.45,4.1,1.46.13,2.7,1.39,4.18,2,2.6,1,4.86,1.32,7-.7Z" transform="translate(-1057.45 -346.86)"/><path class="cls-4" d="M1071.46,453.48a.38.38,0,0,1,.4.46Z" transform="translate(-1057.45 -346.86)"/><path class="cls-16" d="M1139.19,456.37c2.2,2,1.43,4.26.78,6.55-.81-1.11-.24-2.44-.57-3.63l-.29-1.13Q1139.15,457.27,1139.19,456.37Z" transform="translate(-1057.45 -346.86)"/><path class="cls-7" d="M1137,409.78c.3,1.62-.59,3.11-.51,4.71-2.39-.49-3.38.73-3.56,2.93a5.78,5.78,0,0,0-2.7.5l2-6.53.3-.43a1.9,1.9,0,0,0,.38-1.56l0-.49c.2-.63,1-1.28,0-1.89l-.07-.08c1.09-.25.52-1.83,1.65-2l1.28.66C1133.91,407.81,1134.25,408.95,1137,409.78Z" transform="translate(-1057.45 -346.86)"/><path class="cls-15" d="M1132.5,411l-.3.43C1132.08,411.1,1132.22,411,1132.5,411Z" transform="translate(-1057.45 -346.86)"/><path class="cls-5" d="M1132.9,408.91l0,.49a1.88,1.88,0,0,1-.13-.35S1132.85,409,1132.9,408.91Z" transform="translate(-1057.45 -346.86)"/><path class="cls-16" d="M1140.07,474.9c.15.06.41.08.44.18a23.62,23.62,0,0,1,.38,8.4.59.59,0,0,1-.32-.09l-.6-5C1140.48,477.22,1139.72,476,1140.07,474.9Z" transform="translate(-1057.45 -346.86)"/><path class="cls-3" d="M1147.66,496.91l-.11,1-.88-.14-.45-1c-.06-.78-.48-1.6.21-2.32l.18.49c-.07.32.1.44.39.46Z" transform="translate(-1057.45 -346.86)"/><path class="cls-16" d="M1201,375c-.1-2.14.18-4.1,2.49-5,.74,0,1.52.16,2.14-.43a3,3,0,0,1,1.26,1.48,1.83,1.83,0,0,0-1.66,2.33c.66,2.63-.55,2.64-2.44,2.15a3.73,3.73,0,0,0-1,0Z" transform="translate(-1057.45 -346.86)"/><path class="cls-7" d="M1169.45,458.56c.46-.95,2.48-.43,2.07-2.2l1.85-.24.14,2.25Z" transform="translate(-1057.45 -346.86)"/><path class="cls-10" d="M1150,385.92c.37-1-.92-2.54,1.05-2.93a1,1,0,0,0,.18.4,4,4,0,0,0-.89,2.44Z" transform="translate(-1057.45 -346.86)"/><path class="cls-2" d="M1151.24,383.39a1,1,0,0,1-.18-.4l0,0,.5.07A.68.68,0,0,1,1151.24,383.39Z" transform="translate(-1057.45 -346.86)"/><path class="cls-10" d="M1151.53,383l-.5-.07.58-.51Z" transform="translate(-1057.45 -346.86)"/><path class="cls-2" d="M1152.85,381.33l.53-.64A.59.59,0,0,1,1152.85,381.33Z" transform="translate(-1057.45 -346.86)"/><path class="cls-10" d="M1147.49,358c-1.46,2.06-3,.06-4.44.05A4.52,4.52,0,0,1,1147.49,358Z" transform="translate(-1057.45 -346.86)"/><path class="cls-10" d="M1149.24,358.34l-.71-.31Z" transform="translate(-1057.45 -346.86)"/><path class="cls-11" d="M1135.73,405.54l-1.28-.66.23-3.5.31-.5v0c1.44,0,2,.66,1.73,2.12a21.94,21.94,0,0,0-.22,2.37Z" transform="translate(-1057.45 -346.86)"/><path class="cls-7" d="M1135,400.88l-.31.5C1134.57,401.08,1134.72,400.95,1135,400.88Z" transform="translate(-1057.45 -346.86)"/><polygon class="cls-2" points="68.68 81.12 68.73 81.28 68.56 81.32 68.68 81.12"/><path class="cls-16" d="M1140.51,471.91c0,.43-.12.83-.59,1-.76-1.09-.18-2.34-.4-3.49.15-.67-.16-1.45.45-2h.52C1140.3,468.91,1141.16,470.41,1140.51,471.91Z" transform="translate(-1057.45 -346.86)"/><path class="cls-4" d="M1122,433.91l-.52.51Z" transform="translate(-1057.45 -346.86)"/><path class="cls-4" d="M1122.43,433.41l-.41.52,0-.52h.43Z" transform="translate(-1057.45 -346.86)"/><path class="cls-5" d="M1122.43,433.41H1122l.54-.49Z" transform="translate(-1057.45 -346.86)"/><path class="cls-10" d="M1149.65,389.9c-1.49-1.28,0-2.33.26-3.47Z" transform="translate(-1057.45 -346.86)"/><path class="cls-2" d="M1193.78,387.3c.17-.66.32-1.34,1.16-1.47C1195,386.66,1194.7,387.22,1193.78,387.3Z" transform="translate(-1057.45 -346.86)"/><path class="cls-2" d="M1192,389.41l.84-.56a2,2,0,0,1-.93,2Z" transform="translate(-1057.45 -346.86)"/><path class="cls-2" d="M1191.58,391.91c-.84-.64-.31-.86.32-1l.12,1Z" transform="translate(-1057.45 -346.86)"/><path class="cls-2" d="M1192.9,388.78a.43.43,0,0,1,.06-.37l.17.33Z" transform="translate(-1057.45 -346.86)"/><path class="cls-10" d="M1154,377.92c-1.37-2.1-1.07-2.86,1.37-3.53A6.15,6.15,0,0,1,1154,377.92Z" transform="translate(-1057.45 -346.86)"/><path class="cls-2" d="M1186,426.65a.83.83,0,0,1-.49-1Z" transform="translate(-1057.45 -346.86)"/><path class="cls-3" d="M1211.54,454.91l-1.54,1.46c-1.77-.05-3.18-.56-2.77-2.73a1.93,1.93,0,0,1,2.12-1.67C1211.19,452.09,1211.54,453.39,1211.54,454.91Z" transform="translate(-1057.45 -346.86)"/><path class="cls-3" d="M1199.08,455.89q0-1.11,0-2.21l1-.63,1.44.06c.93.88,1.46,1.84.42,3S1200,456.49,1199.08,455.89Z" transform="translate(-1057.45 -346.86)"/><path class="cls-3" d="M1193.94,458.77a4.06,4.06,0,0,1-2.19-.06l-.4-2.33c.75-1.15,1.75-.91,2.78-.49A2.52,2.52,0,0,1,1193.94,458.77Z" transform="translate(-1057.45 -346.86)"/><path class="cls-3" d="M1215.5,435.45a1.93,1.93,0,0,1,1.86,1.95c-.62,1-1.48,1.47-2.48.75s-.8-1.69.07-2.5Z" transform="translate(-1057.45 -346.86)"/><path class="cls-3" d="M1215.44,449.94a1.23,1.23,0,0,1-1.48,1,1.06,1.06,0,0,1-.94-1.41,1.12,1.12,0,0,1,1.42-1A1.21,1.21,0,0,1,1215.44,449.94Z" transform="translate(-1057.45 -346.86)"/><path class="cls-11" d="M1216.83,443a1,1,0,0,1-1,.84.64.64,0,0,1-.71-.76c.07-.63.4-1.09,1.1-1A.8.8,0,0,1,1216.83,443Z" transform="translate(-1057.45 -346.86)"/><path class="cls-9" d="M1154,435.41c1.33-.16,2.33.76,3.51,1.1,2.18.62,4.21.89,5.85-1.18.39-.5.91-1.11,1.67-.73s.47,1.17.44,1.79c-.05,1.26-1.45,2-1.67,2.85-1,4-4.54,4.16-7.36,5.45-.83.38-1.63.81-2.44,1.22a1.37,1.37,0,0,1-1.47-1.36,2,2,0,0,0-1.42-1.84c-1.51-.71-1.22-1.63-.44-2.79C1151.71,438.36,1153.25,437.17,1154,435.41Z" transform="translate(-1057.45 -346.86)"/><path class="cls-11" d="M1156,458.42a3.44,3.44,0,0,0-3.67-.73c-1.73.72-2.67-1.6-4.34-1.28l-.43-.52c.75-.87.27-1.91.41-2.87l1.88-.83c.45.76,1,1,1.62.22,3.18-1.45,6.75-2.11,9.37-4.68a2.66,2.66,0,0,0,2.6.59l-.19,1.63a4,4,0,0,0-1.47,2.92h-2.58c-.7-1.27-1.63-1.94-2.91-.8a1.48,1.48,0,0,0,0,2.37c1.11,1,2.07.57,2.9-.47,1.16-.09,2.21.72,3.4.42l.11.19c-.26,1.42-1.41,2.38-1.89,3.69Q1158.32,455.74,1156,458.42Z" transform="translate(-1057.45 -346.86)"/><path class="cls-8" d="M1178.52,423.9c-1.48-.35-3.07-1.15-3.81,1.11a1.19,1.19,0,0,0,.63,1.62c-1.8,2.21-1.55,3,1.15,3.7v1.07l-3.29,0c.17-1.47-.19-2.63-1.85-2.89a1.85,1.85,0,0,0-2.23,1.08c-.62,1.52.14,2.48,1.4,3.2-2.74,1.74-2.79,1.72-4-1.89a2.57,2.57,0,0,0,.73-2.5c1.45-1.17,2.93-2.31,4.35-3.52a11.53,11.53,0,0,0,2.28-2.26c1.88-2.86,2.56-3.25,5.58-1.81a4,4,0,0,0,2.57.12c0,.79-.07,1.49-1.1,1.53C1179.24,421.51,1178.5,422.09,1178.52,423.9Z" transform="translate(-1057.45 -346.86)"/><path class="cls-8" d="M1145,435.87c-.5,1-1.86,1.43-1.62,2.82l-2.39-.12c.18-2.06,2.39-2.76,3-4.6s.46-3-1.52-3.57c0-.56-.08-1.16.54-1.51a.93.93,0,0,0,1-.75l1.87-1c.68.9.24,2.78,2,2.68,1.24-.07,1.68-1.15,1.57-2.37,1.28-.09,2.62.27,3.71-.88.82-.87,1.27-.41,1.32.64a3.78,3.78,0,0,1-1.77,3.59,4.1,4.1,0,0,0-1.74,1.69c-2.15-1.07-4-.89-5.19,1.42C1144.7,434.21,1145.11,435.14,1145,435.87Z" transform="translate(-1057.45 -346.86)"/><path class="cls-8" d="M1154,435.41c-.75,1.76-2.29,3-3.34,4.51-.78,1.16-1.06,2.09.44,2.79a2,2,0,0,1,1.42,1.84,1.37,1.37,0,0,0,1.47,1.36c-.7,1.54-1.11,3.37-3.3,3.5L1150,448c.1-1.07-.82-1.18-1.46-1.56.22-1.2.93-2.3-.48-3.49-.88-.74,1-1.88.47-3l.08-.61,1-.84c1.09,0,1.95-.28,1.87-1.62l.64-1.9C1152.75,435,1153.5,434.69,1154,435.41Z" transform="translate(-1057.45 -346.86)"/><path class="cls-14" d="M1152.08,434.91l-.64,1.9c-.64.53-1.59.69-1.87,1.62l-1,.84-1.12-.25c-.43-.9-.61-2-1.48-2.61l-.18-2.54c1.23-2.3,3-2.49,5.19-1.42Z" transform="translate(-1057.45 -346.86)"/><path class="cls-14" d="M1134.47,448.64a5,5,0,0,1-1.91-1.75l.2-2.85,1.33-1.34.19,0,.18-.07,2.54.21a.68.68,0,0,0,.44.2l.44.38a5.06,5.06,0,0,1,.51,3.73A5.36,5.36,0,0,1,1134.47,448.64Z" transform="translate(-1057.45 -346.86)"/><path class="cls-14" d="M1147.59,455.89l.43.52.15.51.2,1.53c-.42.89-.72,1.89-1.75,2.28a3,3,0,0,1-3.62-.66,2.66,2.66,0,0,1-.34-3.6,2.92,2.92,0,0,1,3.64-1.28A10.84,10.84,0,0,1,1147.59,455.89Z" transform="translate(-1057.45 -346.86)"/><path class="cls-14" d="M1145.91,427.1l-1.87,1-1.1,0a6,6,0,0,1-2.35-1.46.23.23,0,0,0-.12-.3l-.22-1a4.34,4.34,0,0,1,2.21-3.18l1.6-.13,2,1.3a1,1,0,0,0,.45,1l-.39,2.44A.21.21,0,0,0,1145.91,427.1Z" transform="translate(-1057.45 -346.86)"/><path class="cls-14" d="M1150,448l.73,1.43-.22,2-.59.78L1148,453a4.21,4.21,0,0,1-2.46-1.13l-.66-1.48a3.24,3.24,0,0,1,2.58-3.24Z" transform="translate(-1057.45 -346.86)"/><path class="cls-14" d="M1149.5,483.41l.49,2.49a1.1,1.1,0,0,0-.45,1l-2,1.21h-1c-2.67-1.67-2.9-2.49-1.44-5.2A3.66,3.66,0,0,1,1149.5,483.41Z" transform="translate(-1057.45 -346.86)"/><path class="cls-14" d="M1141,438.57l2.39.12c1.35,1.2,2.17,2.59.79,4.21s-3,1.2-4.48-.06c-.58-.94-.26-1.94-.18-2.93Z" transform="translate(-1057.45 -346.86)"/><path class="cls-8" d="M1147.51,488.14l2-1.21a1,1,0,0,0,1-.51c1.51.26,1.89,1.23,1.71,2.63-.13,1-.15,1.92-.21,2.88l-1.82.16a2.51,2.51,0,0,0-2.11,0c-.93-.85-1.9-1.67-1.57-3.15C1147,488.9,1147.42,488.71,1147.51,488.14Z" transform="translate(-1057.45 -346.86)"/><path class="cls-8" d="M1149.5,483.41a3.66,3.66,0,0,0-4.46-.49c-2.7-1.31-.49-3.1-.47-4.68a3.19,3.19,0,0,0,2.24-.4l1.68.06A10,10,0,0,1,1149.5,483.41Z" transform="translate(-1057.45 -346.86)"/><path class="cls-14" d="M1162.69,454.56l-.11-.19-.77-1.5a4,4,0,0,1,1.47-2.92c1.51-.46,2.52.25,3.33,1.42a2.26,2.26,0,0,1-.31,2.74C1165.34,455.41,1164,454.91,1162.69,454.56Z" transform="translate(-1057.45 -346.86)"/><path class="cls-14" d="M1185.54,459.84l-1.33-1-.3-2.4a4.84,4.84,0,0,1,2-1.75l1.58.12,1.58,1.62C1189.23,458.88,1188.06,460.07,1185.54,459.84Z" transform="translate(-1057.45 -346.86)"/><path class="cls-14" d="M1156,458.42q2.29-2.69,4.77-.17c.32,2-.11,3.59-2.4,3.61S1155.88,460.22,1156,458.42Z" transform="translate(-1057.45 -346.86)"/><path class="cls-3" d="M1173.36,456.12l-1.85.24c-1.31-.92-2.37-2-1.23-3.65a2.09,2.09,0,0,1,3.22-.61C1175.2,453.42,1174.48,454.81,1173.36,456.12Z" transform="translate(-1057.45 -346.86)"/><path class="cls-8" d="M1142.46,422.23a4.34,4.34,0,0,0-2.21,3.18H1138l.5-3.44c1.83-.18,2.89-1,2.38-3l2.62-.55q0,1.51,0,3A.93.93,0,0,0,1142.46,422.23Z" transform="translate(-1057.45 -346.86)"/><path class="cls-3" d="M1170.54,432.77c-1.26-.72-2-1.68-1.4-3.2a1.85,1.85,0,0,1,2.23-1.08c1.66.26,2,1.43,1.85,2.89A2.84,2.84,0,0,1,1170.54,432.77Z" transform="translate(-1057.45 -346.86)"/><path class="cls-3" d="M1162.26,429.83c-1.33.92-2.7,1.58-3.8-.24a2,2,0,0,1,.81-3c.78-.48,1.62-.13,2.44-.13A3.53,3.53,0,0,1,1162.26,429.83Z" transform="translate(-1057.45 -346.86)"/><path class="cls-8" d="M1140.51,471.91c.64-1.5-.22-3,0-4.5,1.15.15,2.13,1.44,3.44.5a2,2,0,0,0,1.05,1.49C1144.42,471.87,1142.36,471.69,1140.51,471.91Z" transform="translate(-1057.45 -346.86)"/><path class="cls-3" d="M1163.47,448.32a2.66,2.66,0,0,1-2.6-.59l-.3-1.16c.4-.27.4-.54,0-.79.93-.92,1.93-1.79,3.22-.7S1164.28,447.31,1163.47,448.32Z" transform="translate(-1057.45 -346.86)"/><path class="cls-3" d="M1157.5,421.41c1.06.11,1.8.59,1.73,1.72a1.75,1.75,0,0,1-2,1.8,1.6,1.6,0,0,1-1.7-1.75C1155.59,422,1156.34,421.42,1157.5,421.41Z" transform="translate(-1057.45 -346.86)"/><path class="cls-3" d="M1167.22,428.38a2.57,2.57,0,0,1-.73,2.5,2.4,2.4,0,0,1-2.51-1,2.72,2.72,0,0,1,1.21-2.4A3,3,0,0,1,1167.22,428.38Z" transform="translate(-1057.45 -346.86)"/><path class="cls-8" d="M1145,416.41c.35-.34.64-.88,1-1a11.59,11.59,0,0,0,5.34-2.92,2.6,2.6,0,0,1,2.1-.59A11.83,11.83,0,0,1,1145,416.41Z" transform="translate(-1057.45 -346.86)"/><path class="cls-3" d="M1181.65,456.41a2.1,2.1,0,0,1-2.75.52c-.56-1.22-.87-2.56.85-2.89S1181.69,455.07,1181.65,456.41Z" transform="translate(-1057.45 -346.86)"/><path class="cls-15" d="M1145.91,427.1a.21.21,0,0,1,.18-.25c1.14.12,2.34-.14,3.38.57.11,1.22-.34,2.3-1.57,2.37C1146.15,429.89,1146.59,428,1145.91,427.1Z" transform="translate(-1057.45 -346.86)"/><path class="cls-8" d="M1160,418.3c0,.86-.34,1.46-1.24,1.56s-1.63-.3-1.69-1.34a1.47,1.47,0,0,1,2.92-.22Z" transform="translate(-1057.45 -346.86)"/><path class="cls-3" d="M1144.18,452a2.4,2.4,0,0,1-1.61,1.34l-.63-.15c-.83-.56-1.27-1.31-.68-2.24s1.64-.75,2.58-.39Z" transform="translate(-1057.45 -346.86)"/><path class="cls-3" d="M1146.82,477.85a3.19,3.19,0,0,1-2.24.4c0-1-.5-2.42,1.07-2.53C1147.06,475.62,1147,476.8,1146.82,477.85Z" transform="translate(-1057.45 -346.86)"/><path class="cls-8" d="M1165.2,427.51a2.72,2.72,0,0,0-1.21,2.4l-1.72-.08a3.53,3.53,0,0,0-.55-3.33C1163.08,426.1,1164.14,426.79,1165.2,427.51Z" transform="translate(-1057.45 -346.86)"/><path class="cls-3" d="M1145,469.4a2,2,0,0,1-1.05-1.49,1.67,1.67,0,0,1,2.25-.79,1,1,0,0,1,.67,1.16C1146.69,469.37,1145.77,469.26,1145,469.4Z" transform="translate(-1057.45 -346.86)"/><path class="cls-4" d="M1185.11,399.9c-.49-.79-1.11-1.62.06-2.32a1,1,0,0,1,1.49.47c.56,1.16-.2,1.66-1.15,2A.73.73,0,0,1,1185.11,399.9Z" transform="translate(-1057.45 -346.86)"/><path class="cls-3" d="M1148.07,492.06a2.51,2.51,0,0,1,2.11,0c.23.87.3,1.77-.89,1.86C1147.92,494,1148,493,1148.07,492.06Z" transform="translate(-1057.45 -346.86)"/><path class="cls-8" d="M1139.52,439.91c-.08,1-.4,2,.18,2.93l-1.82.63-.44-.38C1137.64,441.7,1137.65,440.2,1139.52,439.91Z" transform="translate(-1057.45 -346.86)"/><path class="cls-8" d="M1181.69,408c.82.1.79.7.79,1.27s-.22,1.17-1,1a1.06,1.06,0,0,1-.91-1.23A1.11,1.11,0,0,1,1181.69,408Z" transform="translate(-1057.45 -346.86)"/><path class="cls-16" d="M1134.47,448.64a5.36,5.36,0,0,0,3.92-1.44c.37,1.27-.87,1.51-1.4,2.2C1136.13,449.21,1135,449.92,1134.47,448.64Z" transform="translate(-1057.45 -346.86)"/><path class="cls-15" d="M1150,448l-2.51-.81a1,1,0,0,1,1-.76C1149.14,446.8,1150.06,446.91,1150,448Z" transform="translate(-1057.45 -346.86)"/><path class="cls-15" d="M1145.8,433.87l.18,2.54-1-.54C1145.11,435.14,1144.7,434.21,1145.8,433.87Z" transform="translate(-1057.45 -346.86)"/><path class="cls-8" d="M1149.88,452.19l.59-.78a.93.93,0,0,1,1,1C1150.85,453.16,1150.33,452.94,1149.88,452.19Z" transform="translate(-1057.45 -346.86)"/><path class="cls-15" d="M1144.18,452l-.34-1.45,1-.11.66,1.48Z" transform="translate(-1057.45 -346.86)"/><path class="cls-15" d="M1142.46,422.23a.93.93,0,0,1,1-.8l.56.67Z" transform="translate(-1057.45 -346.86)"/><path class="cls-15" d="M1187.53,454.76l-1.58-.12C1186.56,453.61,1187.08,453.66,1187.53,454.76Z" transform="translate(-1057.45 -346.86)"/><path class="cls-16" d="M1148.37,458.45l-.2-1.53C1148.64,457.37,1149.45,457.79,1148.37,458.45Z" transform="translate(-1057.45 -346.86)"/><path class="cls-15" d="M1147.45,439l1.12.25-.08.61A.91.91,0,0,1,1147.45,439Z" transform="translate(-1057.45 -346.86)"/><path class="cls-11" d="M1200.06,453l-1,.63c0-.36-.14-.78.27-1S1199.88,452.81,1200.06,453Z" transform="translate(-1057.45 -346.86)"/><path class="cls-7" d="M1147.51,488.14c-.09.58-.48.76-1,.77l0-.78Z" transform="translate(-1057.45 -346.86)"/><path class="cls-15" d="M1146.48,424.42a1,1,0,0,1-.45-1C1146.69,423.51,1147.23,423.68,1146.48,424.42Z" transform="translate(-1057.45 -346.86)"/><path class="cls-15" d="M1141.94,453.14l.63.15-.28.37Z" transform="translate(-1057.45 -346.86)"/><path class="cls-8" d="M1160.54,445.8c.42.25.42.51,0,.79Z" transform="translate(-1057.45 -346.86)"/><path class="cls-8" d="M1147,495.39c-.29,0-.45-.14-.39-.46Z" transform="translate(-1057.45 -346.86)"/><path class="cls-3" d="M1153.95,514.74a1.12,1.12,0,0,1-1.33,1.13c-.83,0-1.54-.32-1.53-1.26,0-.78.58-1.13,1.35-1.15A1.3,1.3,0,0,1,1153.95,514.74Z" transform="translate(-1057.45 -346.86)"/><path class="cls-7" d="M1154,504.44c.76,0,1.35.34,1.39,1.1a1.47,1.47,0,0,1-1.43,1.65c-.82,0-1-.74-1-1.42S1153.15,504.46,1154,504.44Z" transform="translate(-1057.45 -346.86)"/><path class="cls-7" d="M1150.5,486.41a1,1,0,0,1-1,.51,1.1,1.1,0,0,1,.45-1Z" transform="translate(-1057.45 -346.86)"/><path class="cls-12" d="M1138.5,422l-.5,3.44c.24.82-1.49,2,.5,2.5,1.51,1,1.82-.06,2.09-1.2a6,6,0,0,0,2.35,1.46l.09.73c-.61.35-.52,1-.54,1.51-3.39.65-6,2.82-8.5,4.88-1.92,1.57-4.74,2.28-5.5,5.12a5.21,5.21,0,0,0-4,2.5c-1.27.56-1.54,1.72-1.72,2.92l-1.78-.64-.5-.61-.49.62a5.58,5.58,0,0,0-2.89,2.25c-1.49.53-3.16.22-4.61,1-1.09-3-.6-4.24,1.91-5.72,5.75-3.4,11.47-6.88,17.19-10.34.55-.33,1.28-.68,1.14-1.45s-1-.42-1.47-.62c-2.55-1-3-2.74-1.07-4.78,1-1,2.17-1.78,2.81-3.09,1.67.19,3.08-.8,4.64-1.06Z" transform="translate(-1057.45 -346.86)"/><path class="cls-14" d="M1117.11,447.45a5.58,5.58,0,0,1,2.89-2.25h1l1.78.64c1.1,1.36,1.73,2.82.9,4.55s-2.45,2-4.17,2A4.26,4.26,0,0,1,1117.11,447.45Z" transform="translate(-1057.45 -346.86)"/><path class="cls-8" d="M1117.11,447.45a4.26,4.26,0,0,0,2.39,4.92c-.53,3.11-2.35,4-6,3l.55-.93c1.85-2.55,1.46-3.76-1.52-4.73v-1.32C1114,447.67,1115.62,448,1117.11,447.45Z" transform="translate(-1057.45 -346.86)"/><path class="cls-14" d="M1107.61,457.94c-.92,1.44-2.17,2.26-3.92,1.81a2.64,2.64,0,0,1-2.09-2.45,3.3,3.3,0,0,1,2.36-3.59C1107.24,454.15,1107.52,454.47,1107.61,457.94Z" transform="translate(-1057.45 -346.86)"/><path class="cls-8" d="M1124.5,442.91a5.21,5.21,0,0,1,4-2.5,1.61,1.61,0,0,0,2.28.82c1.67-.7,2.67-.06,3.31,1.47l-1.33,1.34c-1-.15-1.83-.8-2.87-.58-1-.62-1.85-.65-2.53.45C1126.2,444.17,1125.69,442.56,1124.5,442.91Z" transform="translate(-1057.45 -346.86)"/><path class="cls-14" d="M1112.5,449.73c3,1,3.37,2.18,1.52,4.73l-2.05.14C1109.69,452.49,1109.82,451.36,1112.5,449.73Z" transform="translate(-1057.45 -346.86)"/><path class="cls-14" d="M1132.91,417.42c.18-2.2,1.16-3.42,3.56-2.93l1.37,1.86c-.43,2.12-1.68,3-3.83,2.52l-.59-.43Z" transform="translate(-1057.45 -346.86)"/><path class="cls-14" d="M1096.51,461.17,1095,461a4.73,4.73,0,0,1-1-2.6l.17-.71.84-.81a1.09,1.09,0,0,0,1-.5c1.41-.06,2.51.4,2.7,1.95S1098,460.79,1096.51,461.17Z" transform="translate(-1057.45 -346.86)"/><path class="cls-3" d="M1088.34,455.49c1,1.2,1.56,2.46-.14,3.45-1.12.65-2.51.74-3.28-.52-1-1.69.28-2.5,1.59-3.17Z" transform="translate(-1057.45 -346.86)"/><path class="cls-7" d="M1133.43,418.43l.59.43c.8,2.39,2.35,0,3.45.54l.18,1.94c-1.57.26-3,1.25-4.64,1.06C1132.44,421,1131.86,419.6,1133.43,418.43Z" transform="translate(-1057.45 -346.86)"/><path class="cls-16" d="M1129.89,443.46c1-.22,1.9.43,2.87.58l-.2,2.85a4.34,4.34,0,0,0-2.56.51,2.45,2.45,0,0,1-2.52-1.5l.1-.63C1129.2,445.76,1130.21,445.46,1129.89,443.46Z" transform="translate(-1057.45 -346.86)"/><path class="cls-14" d="M1080.54,451.9a2.61,2.61,0,0,1,0,1.9,2,2,0,0,1-2.18,1.2,1.65,1.65,0,0,1-1.55-1.35,1.75,1.75,0,0,1,1.23-2.11,8.2,8.2,0,0,1,1.43-.29Z" transform="translate(-1057.45 -346.86)"/><path class="cls-15" d="M1107.61,457.94c-.1-3.46-.37-3.78-3.66-4.23,1.42-1.7,3.13-.68,4,.23A2.58,2.58,0,0,1,1107.61,457.94Z" transform="translate(-1057.45 -346.86)"/><path class="cls-3" d="M1129.89,443.46c.32,2-.69,2.29-2.31,1.81l-.22-1.37C1128,442.82,1128.91,442.85,1129.89,443.46Z" transform="translate(-1057.45 -346.86)"/><path class="cls-8" d="M1127.48,445.91a2.45,2.45,0,0,0,2.52,1.5c-.76,1.38-1.66,1.17-2.55.18C1127,447.07,1125.78,446.43,1127.48,445.91Z" transform="translate(-1057.45 -346.86)"/><path class="cls-15" d="M1112,454.6l2.05-.14-.55.93C1112.83,455.38,1112.15,455.47,1112,454.6Z" transform="translate(-1057.45 -346.86)"/><path class="cls-15" d="M1096,456.39a1.09,1.09,0,0,1-1,.5C1095.08,456.23,1095.22,455.67,1096,456.39Z" transform="translate(-1057.45 -346.86)"/><path class="cls-3" d="M1145.47,361.92c.6,1.15.94,2.29-.17,3.34a1.86,1.86,0,0,1-2.25.37c-1.34-.66-1.52-1.79-1.23-3.1A2.66,2.66,0,0,1,1145.47,361.92Z" transform="translate(-1057.45 -346.86)"/><path class="cls-3" d="M1135.73,405.54l.77-.16a2.62,2.62,0,0,1,2,2,2.75,2.75,0,0,1-1.56,2.37C1134.25,408.95,1133.91,407.81,1135.73,405.54Z" transform="translate(-1057.45 -346.86)"/><path class="cls-3" d="M1146.72,386c-1,.45-1.58,2.35-3,.75a1.84,1.84,0,0,1-.07-2.68c1.19-1.24,2.2-.6,3.13.42Q1146.75,385.23,1146.72,386Z" transform="translate(-1057.45 -346.86)"/><path class="cls-3" d="M1137.64,421.35l-.18-1.94,1-1.08a3,3,0,0,1,2.4.63c.51,2-.55,2.82-2.38,3Z" transform="translate(-1057.45 -346.86)"/><path class="cls-15" d="M1138.48,418.32l-1,1.08c-1.09-.54-2.64,1.85-3.45-.54,2.14.48,3.39-.4,3.83-2.52C1138.9,416.74,1137.86,417.8,1138.48,418.32Z" transform="translate(-1057.45 -346.86)"/><path class="cls-3" d="M1148.42,377.94a2.1,2.1,0,0,1-2.36,2,1.88,1.88,0,0,1-1.89-2.16,2.05,2.05,0,0,1,2.31-2.07C1147.73,375.81,1148.31,376.71,1148.42,377.94Z" transform="translate(-1057.45 -346.86)"/><path class="cls-14" d="M1142,395a2,2,0,0,1-2.06-2,1.87,1.87,0,0,1,2-2.07,1.78,1.78,0,0,1,2,1.95A1.94,1.94,0,0,1,1142,395Z" transform="translate(-1057.45 -346.86)"/><path class="cls-3" d="M1141.43,399.88a1.7,1.7,0,0,1-1.79,1.38,1.83,1.83,0,0,1,.07-3.66C1140.9,397.66,1141.41,398.46,1141.43,399.88Z" transform="translate(-1057.45 -346.86)"/><path class="cls-2" d="M1146.8,372.55a2.33,2.33,0,0,1,0-1.79C1147.57,371.36,1147.59,372,1146.8,372.55Z" transform="translate(-1057.45 -346.86)"/><path class="cls-3" d="M1177.74,401a2.62,2.62,0,0,1-.86,3.06,2.21,2.21,0,0,1-3-1.39,1.81,1.81,0,0,1,.81-2.15C1175.86,399.6,1176.84,400.13,1177.74,401Z" transform="translate(-1057.45 -346.86)"/><path class="cls-3" d="M1179.75,396c-.19,1-.83,1.74-1.88,1.6s-2-.57-1.87-1.9,1-1.32,2-1.34A1.51,1.51,0,0,1,1179.75,396Z" transform="translate(-1057.45 -346.86)"/><path class="cls-14" d="M1183,387.42c1,2.47.68,3.06-1.85,3.17C1179.7,388.2,1180.13,387.45,1183,387.42Z" transform="translate(-1057.45 -346.86)"/><path class="cls-3" d="M1176.49,430.34c-2.7-.66-3-1.5-1.15-3.7,1.07-.08,2,.14,2.37,1.29S1177.34,429.75,1176.49,430.34Z" transform="translate(-1057.45 -346.86)"/><path class="cls-3" d="M1178.52,423.9c0-1.81.71-2.39,2.38-1.47C1181.07,424.49,1180.14,424.75,1178.52,423.9Z" transform="translate(-1057.45 -346.86)"/><path class="cls-7" d="M1190.48,386.89l-.48,1.52a9.36,9.36,0,0,1-3.5.5c-1.59-3.22-1.12-4.39,2-5a2.13,2.13,0,0,1-.76,1.5c-.5.49-.89,1-.27,1.69s1.13.89,1.89.23A3.7,3.7,0,0,1,1190.48,386.89Z" transform="translate(-1057.45 -346.86)"/><path class="cls-7" d="M1182.5,395.41c0-3.56.45-4.22,3-4.5C1185.3,392.94,1185.28,395.1,1182.5,395.41Z" transform="translate(-1057.45 -346.86)"/><path class="cls-7" d="M1189.44,391.79a1.16,1.16,0,0,1-1.4,1c-.54-.09-1.06-.52-.81-1s.7-1.23,1.45-1.18C1189.22,390.68,1189.44,391.2,1189.44,391.79Z" transform="translate(-1057.45 -346.86)"/><path class="cls-15" d="M1094,458.4a4.73,4.73,0,0,0,1,2.6c-.82,1.36-1.89.94-3,.4C1092.12,460,1092.27,458.71,1094,458.4Z" transform="translate(-1057.45 -346.86)"/><path class="cls-7" d="M1195.51,380.43a1.85,1.85,0,0,1-2.74,1.26c-1.33-.57-2.45-1.54-2.24-3.24a2.51,2.51,0,0,1,2.39-2.45c1.07,0,2.86-1.06,3.09,1.25l-1.48.29c-.89-1.22-1.53-.3-2.17.28-.47.43-1.09.94-.47,1.65s.92,1.42,1.94,1.24Z" transform="translate(-1057.45 -346.86)"/><path class="cls-15" d="M1190.48,386.89a3.7,3.7,0,0,0-1.12.45c-.76.66-1.31.42-1.89-.23s-.23-1.2.27-1.69a2.13,2.13,0,0,0,.76-1.5,1.75,1.75,0,0,1,2.45.17C1192.18,385.31,1190.59,386,1190.48,386.89Z" transform="translate(-1057.45 -346.86)"/><path class="cls-16" d="M1195.51,380.43l-1.67.28c-1,.18-1.43-.66-1.94-1.24s0-1.21.47-1.65c.64-.58,1.28-1.5,2.17-.28-.76,1.27-.42,2.1,1,2.5A2.61,2.61,0,0,1,1195.51,380.43Z" transform="translate(-1057.45 -346.86)"/><path class="cls-3" d="M1195.52,380c-1.41-.41-1.76-1.24-1-2.5l1.48-.29C1197.25,378.43,1197.11,379.36,1195.52,380Z" transform="translate(-1057.45 -346.86)"/><path class="cls-3" d="M1201,375l.81.5c.2.89.15,1.68-.94,1.91a1,1,0,0,1-1.3-.79C1199.43,375.54,1200.07,375.09,1201,375Z" transform="translate(-1057.45 -346.86)"/><path class="cls-3" d="M1159.18,454c-.82,1-1.78,1.49-2.9.47a1.48,1.48,0,0,1,0-2.37c1.28-1.14,2.21-.46,2.91.8Z" transform="translate(-1057.45 -346.86)"/><path class="cls-15" d="M1159.18,454l0-1.1h2.58l.77,1.5C1161.39,454.68,1160.34,453.87,1159.18,454Z" transform="translate(-1057.45 -346.86)"/><path class="cls-9" d="M1134.09,442.71c-.64-1.54-1.64-2.18-3.31-1.47a1.61,1.61,0,0,1-2.28-.82c.75-2.84,3.58-3.55,5.5-5.12,2.53-2.06,5.12-4.23,8.5-4.88,2,.56,2.13,1.77,1.52,3.57s-2.84,2.53-3,4.6l-1.48,1.34c-1.87.29-1.89,1.8-2.08,3.18a.68.68,0,0,1-.44-.2c-.76-1.08-1.58-1.5-2.54-.21l-.18.07Z" transform="translate(-1057.45 -346.86)"/><path class="cls-15" d="M1143,428.89l-.09-.73,1.1,0A.93.93,0,0,1,1143,428.89Z" transform="translate(-1057.45 -346.86)"/><path class="cls-15" d="M1149.56,438.43c.29-.93,1.24-1.1,1.87-1.62C1151.51,438.15,1150.65,438.43,1149.56,438.43Z" transform="translate(-1057.45 -346.86)"/><path class="cls-16" d="M1134.46,442.69c1-1.3,1.78-.87,2.54.21Z" transform="translate(-1057.45 -346.86)"/><path class="cls-13" d="M1138.5,427.91c-2-.47-.26-1.68-.5-2.5h2.26l.22,1C1139.3,426.23,1138.87,427,1138.5,427.91Z" transform="translate(-1057.45 -346.86)"/><path class="cls-8" d="M1138.5,427.91c.37-.88.8-1.68,2-1.5a.23.23,0,0,1,.12.3C1140.32,427.85,1140,428.92,1138.5,427.91Z" transform="translate(-1057.45 -346.86)"/><path class="cls-8" d="M1121,445.19h-1l.49-.62Z" transform="translate(-1057.45 -346.86)"/></svg>