<svg id="Ebene_1" data-name="Ebene 1" xmlns="http://www.w3.org/2000/svg" viewBox="0 0 151.31 176.34"><defs><style>.cls-1{fill:#774534;}.cls-2{fill:#3d190e;}.cls-3{fill:#603425;}.cls-4{fill:#573f3b;}.cls-5{fill:#7e635d;}.cls-6{fill:#e45c2e;}.cls-7{fill:#f2602d;}.cls-8{fill:#f56337;}.cls-9{fill:#f0653a;}.cls-10{fill:#ed5e2c;}.cls-11{fill:#f5602b;}.cls-12{fill:#f26237;}.cls-13{fill:#2b1109;}.cls-14{fill:#ca5025;}.cls-15{fill:#d4552a;}</style></defs><title>starfish orange</title><path class="cls-1" d="M145.55,99a33.54,33.54,0,0,0,3.11-2.43,9.64,9.64,0,0,0,2.89-7.14c0-3.49,2.22-5.3,5.52-4.53,2.56.59,4.83,1.92,5.58,4.66,1.85,6.76,1.24,13.12-3.47,18.69l-.81-.85,1.07-1.86a10.33,10.33,0,0,0,2-5,.8.8,0,0,0,.06-.48c.61-3.38,1.31-6.77-.36-10.07A4.25,4.25,0,0,0,158,86.53c-3.62-1-4.91-.25-5,3L152.52,93c-1.13,1.69-2,3.57-3.47,5l-2.91,1.52Z" transform="translate(-12.31 -9.22)"/><path class="cls-2" d="M103.49,137.54V141c-.46.41-.44.73.17,1l.33,1.06a10.5,10.5,0,0,0-.09,5.52l-.14.86c-1.51,1.52-.66,3.37-.71,5.1l-.56,6.49h-.82l-.12-4.48a41.35,41.35,0,0,1,.8-9.34c.21-1.2.71-2.49.49-3.62-1.06-5.33-.64-10.7-.72-16-.11-2.39,1.27-4.42,1.61-6.71,1.4-1,.78-3.8,3.29-3.91a8.82,8.82,0,0,0-1.39,5.09c-.47.27-.65.59-.16,1l-.34,1.47c-.74.45-.61,1.11-.44,1.78l-.58,2.71c-.9.78-.57,1.76-.46,2.71l-.06.84a1.28,1.28,0,0,0-.13,2v1a1.33,1.33,0,0,0-.07,1.88Z" transform="translate(-12.31 -9.22)"/><path class="cls-3" d="M12.41,104.58a19.67,19.67,0,0,1,4-14c1.49-2,4-1.81,6.14-1.61,1.29.12,1.14,1.6,1.07,2.66-.11,1.59,0,3,1.92,3.46V96c-1.9-.23-3.27-.75-3-3.22.2-2.06-1.52-3-3.27-1.84a11.57,11.57,0,0,0-4.72,6.17c-1,2.79-.69,5.64-1,8.46Z" transform="translate(-12.31 -9.22)"/><path class="cls-1" d="M82.55,29.05a4.61,4.61,0,0,0-.63-4.85c-3-4.54-2.67-10.51,1.08-13.73a1.91,1.91,0,0,0,1.26.78c-.87,1.39-2.37,2.44-2.37,4.31a3.33,3.33,0,0,0-.29,2.88c.83,1.83.43,4.55,3.31,5a8.13,8.13,0,0,0,.52,3.14c-1.63.49-1,2.5-2.24,3.28Z" transform="translate(-12.31 -9.22)"/><path class="cls-4" d="M63,109.49c-6.57,4.31-13.93,6.56-21.5,8.24v-1.2q.13-.2.24-.41c7.28-2.2,15-3.35,21.27-8.08.93,0,.7.53.52,1.06h0Z" transform="translate(-12.31 -9.22)"/><path class="cls-4" d="M142.55,115.56a31.1,31.1,0,0,1-15.17-.07c-3.41-1-6.9-1.65-10.35-2.46a1.9,1.9,0,0,0,0-.48c.55,0,1.14.09,1.56-.42h2c.89.67,2,.34,2.94.52a10.38,10.38,0,0,0,5.52,1.33l3.49.14a3.27,3.27,0,0,0,3.56.42,12.1,12.1,0,0,0,4.9.39C141.55,115.08,142.19,114.94,142.55,115.56Z" transform="translate(-12.31 -9.22)"/><path class="cls-1" d="M25.55,96.05v-.91c1.94.26,2.91,1.79,4,3.12a5,5,0,0,0,4,1.87,25.24,25.24,0,0,0,12.52-2.5,24.88,24.88,0,0,1,4.48-1.1h0c-2.09,2.24-5.06,2.65-7.74,3.58-5.82,2-11.57,3.1-15.92-3A6.29,6.29,0,0,0,25.55,96.05Z" transform="translate(-12.31 -9.22)"/><path class="cls-5" d="M130.91,23.46a6.86,6.86,0,0,1,4.19-3.93c.68-.24,1.38-.34,1.77-1.16.29-.6,1.27-1,1.57-.22,1,2.64,3.1,1.69,4.82,1.64s3.59,0,4.81,1.64l-.1.62c-2.35-1-4.89-.35-7.25-.76-3.65-.63-6.84-.77-9.12,2.72Z" transform="translate(-12.31 -9.22)"/><path class="cls-4" d="M94.55,185.38c-2.5-.14-3.52-1.88-4.15-4-1.24-4.1.23-8,.79-12,.39-2.75.9-5.54.41-8.35h1.34v1c-1.38.51-.6,1,0,1.47L92.68,168c-1,4.11-2,8.23-1.23,12.52A7.33,7.33,0,0,0,93.54,184l.69.38,1.24-.08.08.57Z" transform="translate(-12.31 -9.22)"/><path class="cls-5" d="M82.55,29.05l.65.86-.1.5c-.74.6-.54,1.43-.54,2.21a1.47,1.47,0,0,0,.11.42l-.12,1a.91.91,0,0,0-.39,1L82,36l-2,6.49-.51,2.37-.43.65h0l-.29.45-.34,1.51-1.2.07C78.15,41.14,81,35.3,82.55,29.05Z" transform="translate(-12.31 -9.22)"/><path class="cls-3" d="M127.66,72.2l.3,3.07-.41,1.87-.49-.1-.95-2.87-.06-.06c.32,0,.32-.26.28-.5l.11-3v-1c.83-5.54,1.53-11.11,4.41-16.08l.11.08.14,1.27a2.73,2.73,0,0,1-.57,1.78c-.53.24-.56.68-.45,1.16l-.41.38-.13.56-1.72,9.87A5.46,5.46,0,0,0,127.66,72.2Z" transform="translate(-12.31 -9.22)"/><path class="cls-3" d="M50.55,96.51c2.76-3,6.74-4.52,9.64-7.4,1.6.24,2.28-1.83,3.89-1.55-2.77,3.77-6.84,5.87-10.66,8.31a4.29,4.29,0,0,1-2.84.68Z" transform="translate(-12.31 -9.22)"/><path class="cls-4" d="M121,40c2.94-5.62,5.38-11.54,9.74-16.32l.46.51a26.65,26.65,0,0,1-3.61,5.94c-2.14,3-2.89,6.75-5.56,9.39l-.45.55h-.54Z" transform="translate(-12.31 -9.22)"/><path class="cls-3" d="M93.94,46.54c.74,1.86.36,3.89.47,5.77.27,4.3,2.67,6.8,5.71,9.12v1.28c-3.49-1.37-6-3.79-6.46-7.53-.35-2.85-1-5.73-.56-8.65Z" transform="translate(-12.31 -9.22)"/><path class="cls-3" d="M28.2,117.27c-2.71-.86-6-.07-8.06-2.75h1.93c.42.76.78.44,1.12-.07,3.14.62,6,2.31,9.36,2.16,1,1.16,2.23,1,3.5.8l2,.15v.74a3.39,3.39,0,0,1-2,.07Z" transform="translate(-12.31 -9.22)"/><path class="cls-2" d="M150.55,31.38l-7.8,4.22a7.88,7.88,0,0,0-3.65,3.46l-.53-.52c.23-.5.61-1,.4-1.57a4,4,0,0,1,1.9-1.91c2-1.23,4.14-2.37,6.21-3.54,1.1,0,1.81-.92,2.82-1.11A1.09,1.09,0,0,1,150.55,31.38Z" transform="translate(-12.31 -9.22)"/><path class="cls-3" d="M98.55,13.84c2.59,4.31,3.17,8.72.76,13.32A5.1,5.1,0,0,0,99,28.55l-.67-1.17c.24-2.29,1.61-4.42.93-6.83.24-2.73-1.14-4.85-2.6-7h1.59a.29.29,0,0,1,.25.31Z" transform="translate(-12.31 -9.22)"/><path class="cls-1" d="M142.55,115.56c-.38-.62-1.06-.48-1.62-.64l1.22-.75a28.33,28.33,0,0,0,11.61-4l.77.34c-.67,1.53-2.73,1.39-3.46,2.85A21.77,21.77,0,0,1,142.55,115.56Z" transform="translate(-12.31 -9.22)"/><path class="cls-5" d="M100.13,62.71V61.43c.61.25,1.23.48,1.84.74,4.54,1.94,7.29,1,9.75-3.3.2-.35.45-.67.67-1l.26,1c0,1.35-1.26,2.08-1.56,3.27a2.12,2.12,0,0,0-1.22,1.37c-.52,0-1,0-1.33.56l-1.93.44a1.06,1.06,0,0,0-1.49-.12l-.12.12-1.44-.39-1-.06C101.78,63.52,100.55,63.9,100.13,62.71Z" transform="translate(-12.31 -9.22)"/><path class="cls-3" d="M145.55,99l.59.55a3.9,3.9,0,0,1-2.57,1.4l-2.51-.36-3.27-2.14a17.9,17.9,0,0,1-2.61-5.42l-.37-2.93c.57,0,.65.53.94.83a34.69,34.69,0,0,0,1.36,4.4C138.72,98.93,141.79,100.2,145.55,99Z" transform="translate(-12.31 -9.22)"/><path class="cls-2" d="M22.13,114.48h-2c-3.21-2.56-7-4.58-7.81-9.21a2.7,2.7,0,0,1,.08-.73l1.15,1,.46,1,.4.46,3.5,3.53C18.34,113,21,112.94,22.13,114.48Z" transform="translate(-12.31 -9.22)"/><path class="cls-3" d="M80.75,111l-.17-1c.53-.54.19-.82-.32-1l-.17-.59c0-.38,0-.69-.47-.79l-.13-.15-.37-.38-.64-.59c-1-2-1.28-2.22-3-1.81-1.58-.25-3,.42-4.48.78l-.53-1c2.82-1.1,5.64-2.66,8.42.09.72,1.76,3.14,2.54,2.81,4.9l-.08,1.79Z" transform="translate(-12.31 -9.22)"/><path class="cls-2" d="M71.37,71.85l1.87-8.29c1.26-.8.85-2.66,2.18-3.41,1,.62.23,1.26,0,1.89a.23.23,0,0,0-.15.14,1.88,1.88,0,0,0,.13.35A1.9,1.9,0,0,1,75,64.09c-.28,0-.42.13-.3.43l-2,6.53-.63,1.59Z" transform="translate(-12.31 -9.22)"/><path class="cls-3" d="M88.64,150c-1.83-4-4.32-7.56-5.8-11.68l.27-1.78a.59.59,0,0,0,.32.09c1.87,3.65,3.12,7.6,5.55,11-.69.71-.27,1.53-.21,2.31Z" transform="translate(-12.31 -9.22)"/><path class="cls-1" d="M135.73,91c-.29-.3-.37-.85-.94-.83-1.56-2-3.18-4-4.68-6a6.2,6.2,0,0,1-1.63-4.29l.95.75c1.88,2.7,3.78,5.39,5.61,8.12C135.46,89.35,136.07,90,135.73,91Z" transform="translate(-12.31 -9.22)"/><path class="cls-6" d="M107,116.93c-2.52.1-1.89,2.86-3.29,3.9-.38-3.9,2.19-6.61,4-9.58.75-1.24,1.85-.79,2.43.52a14.89,14.89,0,0,0-2.31,1.76c-.57.63-1.49,1.43-.37,2.41Z" transform="translate(-12.31 -9.22)"/><path class="cls-3" d="M150.55,31.38a1.09,1.09,0,0,0-.64-1c.74-1.38,1.84-2.7.75-4.39a2.74,2.74,0,0,0-1.17-1.92,3,3,0,0,0-1.26-1.48L148,22l.1-.62C152.55,23.22,153.88,28.68,150.55,31.38Z" transform="translate(-12.31 -9.22)"/><path class="cls-1" d="M107.45,116c-1.12-1-.2-1.78.37-2.41a15,15,0,0,1,2.31-1.77l1.87-.07,4.06-.19a5.58,5.58,0,0,1,2.51.62c-.42.5-1,.39-1.56.42s-1.06-.1-1.47.36h-3.19c-1.74,0-3.3.28-3.73,2.36C108.49,115.87,107.92,115.84,107.45,116Z" transform="translate(-12.31 -9.22)"/><path class="cls-1" d="M70.55,104.52l.53,1-7.53,3.62c.18-.53.4-1.08-.52-1.06C65.13,106,67.47,104.53,70.55,104.52Z" transform="translate(-12.31 -9.22)"/><path class="cls-1" d="M95.55,184.91l-.08-.57a26.69,26.69,0,0,0,3-5.34c.64-1.46.21-3.14,1.21-4.44h.53c-.12,4-.87,7.71-4.16,10.42Z" transform="translate(-12.31 -9.22)"/><path class="cls-4" d="M96.84,33.52l-2.9,8c-.78-.68.11-2-1-2.56a4,4,0,0,1,.89-2.44.68.68,0,0,0,.29-.36l.08-.58,1.24-1.11a.59.59,0,0,0,.53-.64.48.48,0,0,1,0-.33Z" transform="translate(-12.31 -9.22)"/><path class="cls-2" d="M92.94,161.06H91.6a42.24,42.24,0,0,0-2-8.16l.49-1.89c.93.6,2,1.5,1.77,2.47C91.26,156.19,92.63,158.53,92.94,161.06Z" transform="translate(-12.31 -9.22)"/><path class="cls-3" d="M84.26,11.25A1.93,1.93,0,0,1,83,10.47l.2-.09,4.39-.85H89.1a16.62,16.62,0,0,1,3.13.56c1.24.47,3.16.11,3.26,2.26l-1.95-.77-1.76-.14-.71-.31-1-.07a4.52,4.52,0,0,0-4.44,0Z" transform="translate(-12.31 -9.22)"/><path class="cls-2" d="M75.27,56.2a31.13,31.13,0,0,1,1.83-6.63l.79,1L77.53,54h0c-.27.06-.42.2-.31.5L77,58c-1.13.21-.57,1.8-1.65,2C75.22,58.79,76,57.48,75.27,56.2Z" transform="translate(-12.31 -9.22)"/><path class="cls-3" d="M100.18,174.61h-.53l2-13.53h.82A53.47,53.47,0,0,1,100.18,174.61Z" transform="translate(-12.31 -9.22)"/><path class="cls-1" d="M95.5,12.4c-.1-2.15-2-1.8-3.26-2.26a16.62,16.62,0,0,0-3.13-.56c3.89-.53,7.2.26,9.19,4H96.71Z" transform="translate(-12.31 -9.22)"/><path class="cls-1" d="M71.37,71.85l.77.79a16.63,16.63,0,0,1-2.93,7.07c-.13-.45-.2-.94-.7-1.18Z" transform="translate(-12.31 -9.22)"/><path class="cls-4" d="M68.55,78.54c.5.23.57.72.7,1.17l-.52,1.41-.13.19c-1.12,1.62-1.43,3.83-3.48,4.78,0-.8.62-1.55.16-2.37Z" transform="translate(-12.31 -9.22)"/><path class="cls-4" d="M81,124.55a11.07,11.07,0,0,1,.21-3.78c.26.62.28,1.35.88,1.8.22,1.16-.36,2.4.4,3.49l.14,2c-.35,1.15.41,2.32-.1,3.46H81.41l-.28-4.47A1.79,1.79,0,0,0,81,124.55Z" transform="translate(-12.31 -9.22)"/><path class="cls-5" d="M65.24,83.72c.46.83-.18,1.58-.16,2.37h0l-.54.49v.52h0l-.52.51h0c-1.61-.27-2.29,1.79-3.89,1.55A22.94,22.94,0,0,1,65.24,83.72Z" transform="translate(-12.31 -9.22)"/><path class="cls-4" d="M151.09,113.38c.73-1.46,2.79-1.32,3.46-2.85,1.31-1,3-1.51,3.82-3.11l.81.85A12.22,12.22,0,0,1,151.09,113.38Z" transform="translate(-12.31 -9.22)"/><path class="cls-2" d="M92.9,39c1.15.53.26,1.88,1,2.56v5h-.83a1.23,1.23,0,0,0-.38-.11L92.16,43l.26-3.47.1-.51Z" transform="translate(-12.31 -9.22)"/><path class="cls-4" d="M112.64,58.82l-.26-1c.63-2.37.88-4.9,2.66-6.82l.66.6C114.72,54.05,114,56.58,112.64,58.82Z" transform="translate(-12.31 -9.22)"/><path class="cls-4" d="M138.55,38.53l.53.52c-.41,1.69-1.87,2.68-2.75,4.06a3.83,3.83,0,0,0-.79,1.94h-.95l-.12-1h0a2,2,0,0,0,.93-2V42h.23l-.17-.33a1.27,1.27,0,0,1,.82-1.12c.91-.08,1.21-.64,1.16-1.47l.44-.49Z" transform="translate(-12.31 -9.22)"/><path class="cls-1" d="M96.84,33.52h-.91l.65-2.44A6.15,6.15,0,0,0,98,27.55a2,2,0,0,0,.41-.16L99,28.56A9.56,9.56,0,0,1,96.84,33.52Z" transform="translate(-12.31 -9.22)"/><path class="cls-5" d="M115.7,51.63,115,51a25.19,25.19,0,0,1,3.31-5.77l.2.91C117.65,48,117.49,50.25,115.7,51.63Z" transform="translate(-12.31 -9.22)"/><path class="cls-5" d="M81.4,131.49h1.15l.6,5-.27,1.78C81.42,136.24,81.38,133.87,81.4,131.49Z" transform="translate(-12.31 -9.22)"/><path class="cls-4" d="M28.2,117.27,36,118.36C33.21,119.22,30.71,118.22,28.2,117.27Z" transform="translate(-12.31 -9.22)"/><path class="cls-5" d="M134.55,45h.95a5.44,5.44,0,0,1-2.39,4.56.31.31,0,0,1-.24-.07c0-1.61.8-3,1.23-4.49Z" transform="translate(-12.31 -9.22)"/><path class="cls-3" d="M82.08,122.57c-.6-.45-.61-1.18-.88-1.8l.15-1.5a3,3,0,0,0-.07-2.7L81.1,115c.79-.71-.05-1.94.84-2.61.33,1.19-.24,2.52.57,3.63v4.49C81.93,121.14,82.23,121.89,82.08,122.57Z" transform="translate(-12.31 -9.22)"/><path class="cls-4" d="M75.27,56.2c.69,1.28-.06,2.58.07,3.87l.08.08c-1.33.75-.92,2.61-2.18,3.41Z" transform="translate(-12.31 -9.22)"/><path class="cls-5" d="M129.43,80.58l-.95-.75h0l-.49-1-.42-.27V77.14l.37-1.87C128.38,77.06,129.4,78.68,129.43,80.58Z" transform="translate(-12.31 -9.22)"/><path class="cls-1" d="M118.55,46.14l-.2-.91a15.24,15.24,0,0,1,2-4.28l.79.16A10.28,10.28,0,0,1,118.55,46.14Z" transform="translate(-12.31 -9.22)"/><path class="cls-5" d="M103.89,148.58a10.5,10.5,0,0,1,.09-5.52C104.77,144.91,104.25,146.75,103.89,148.58Z" transform="translate(-12.31 -9.22)"/><path class="cls-5" d="M103.05,154.54c0-1.73-.8-3.58.71-5.1A7.2,7.2,0,0,1,103.05,154.54Z" transform="translate(-12.31 -9.22)"/><path class="cls-5" d="M82,112.43c-.89.67-.05,1.9-.84,2.61a11.42,11.42,0,0,1-.36-4l.91.3Z" transform="translate(-12.31 -9.22)"/><path class="cls-5" d="M75.55,104.7c1.69-.41,2-.24,3,1.81A9.26,9.26,0,0,1,75.55,104.7Z" transform="translate(-12.31 -9.22)"/><path class="cls-1" d="M132.9,49.54a.32.32,0,0,0,.24.07c.15,1-.56,1.66-1.11,2.37V51C132,50.32,132,49.66,132.9,49.54Z" transform="translate(-12.31 -9.22)"/><path class="cls-1" d="M77.89,50.6l-.79-1a3.07,3.07,0,0,1,.1-2l1.2-.07A5.68,5.68,0,0,1,77.89,50.6Z" transform="translate(-12.31 -9.22)"/><path class="cls-1" d="M87.55,9.54l-4.39.85C84.34,8.47,86.06,9.49,87.55,9.54Z" transform="translate(-12.31 -9.22)"/><path class="cls-3" d="M41.55,116.54v1.2a1.93,1.93,0,0,1-1.47.26c-.42-.54-1-.41-1.6-.51A6.48,6.48,0,0,1,41.55,116.54Z" transform="translate(-12.31 -9.22)"/><path class="cls-5" d="M81,124.55a1.79,1.79,0,0,1,.13,2.48A3.86,3.86,0,0,1,81,124.55Z" transform="translate(-12.31 -9.22)"/><path class="cls-4" d="M103.64,131.71c-.11-1-.43-1.93.46-2.71A4,4,0,0,1,103.64,131.71Z" transform="translate(-12.31 -9.22)"/><path class="cls-4" d="M103.45,134.53a1.28,1.28,0,0,1,.13-2A2.45,2.45,0,0,1,103.45,134.53Z" transform="translate(-12.31 -9.22)"/><path class="cls-4" d="M38.45,117.48c.56.1,1.19,0,1.6.51a3.38,3.38,0,0,1-2,.3v-.74A2.22,2.22,0,0,1,38.45,117.48Z" transform="translate(-12.31 -9.22)"/><path class="cls-4" d="M103.49,137.54a1.33,1.33,0,0,1-.12-1.88l.12-.12A2.46,2.46,0,0,1,103.49,137.54Z" transform="translate(-12.31 -9.22)"/><path class="cls-3" d="M132,51v1.59a.66.66,0,0,0-.3.8.15.15,0,0,1,0,.21l0,0H131l-.11-.08A3.23,3.23,0,0,1,132,51Z" transform="translate(-12.31 -9.22)"/><path class="cls-5" d="M127.66,72.2a5.46,5.46,0,0,1,.25-3.64A8.66,8.66,0,0,1,127.66,72.2Z" transform="translate(-12.31 -9.22)"/><path class="cls-3" d="M90.1,151l-.49,1.89L89,151.07l.21-.19.88.14Z" transform="translate(-12.31 -9.22)"/><path class="cls-4" d="M104.69,126.28c-.17-.67-.3-1.33.44-1.78A1.89,1.89,0,0,1,104.69,126.28Z" transform="translate(-12.31 -9.22)"/><path class="cls-5" d="M81.28,116.57a3,3,0,0,1,.07,2.7A6.14,6.14,0,0,1,81.28,116.57Z" transform="translate(-12.31 -9.22)"/><path class="cls-5" d="M115.55,112.91c.4-.46,1-.32,1.47-.36a1.93,1.93,0,0,1,0,.48A1.49,1.49,0,0,1,115.55,112.91Z" transform="translate(-12.31 -9.22)"/><path class="cls-4" d="M105.47,123c-.49-.42-.32-.74.16-1A.79.79,0,0,1,105.47,123Z" transform="translate(-12.31 -9.22)"/><path class="cls-5" d="M80.26,109c.51.22.85.5.32,1A1,1,0,0,1,80.26,109Z" transform="translate(-12.31 -9.22)"/><path class="cls-5" d="M95.55,184.91,96,185a1,1,0,0,1-1.35.42l-.11-.07Z" transform="translate(-12.31 -9.22)"/><path class="cls-4" d="M121.15,41.14l-.79-.16.66-1,.06,0v1Z" transform="translate(-12.31 -9.22)"/><path class="cls-4" d="M103.66,142c-.6-.22-.62-.55-.17-1Z" transform="translate(-12.31 -9.22)"/><path class="cls-3" d="M89,151.08,88.64,150l.13-.1.45,1Z" transform="translate(-12.31 -9.22)"/><path class="cls-1" d="M131.05,53.55h.63a1.43,1.43,0,0,1-.49,1.22Z" transform="translate(-12.31 -9.22)"/><path class="cls-1" d="M130.16,57.76c-.1-.49-.07-.92.45-1.16A1.11,1.11,0,0,1,130.16,57.76Z" transform="translate(-12.31 -9.22)"/><path class="cls-5" d="M79.62,107.62c.43.1.5.42.47.79A.76.76,0,0,1,79.62,107.62Z" transform="translate(-12.31 -9.22)"/><path class="cls-1" d="M131.74,53.37a.66.66,0,0,1,.3-.8A.65.65,0,0,1,131.74,53.37Z" transform="translate(-12.31 -9.22)"/><path class="cls-4" d="M130.91,23.46l.7.54a1.19,1.19,0,0,1-.38.21l-.46-.51A.22.22,0,0,1,130.91,23.46Z" transform="translate(-12.31 -9.22)"/><path class="cls-1" d="M98.55,13.84v.09A.09.09,0,0,0,98.55,13.84Z" transform="translate(-12.31 -9.22)"/><path class="cls-5" d="M79.13,107.14l.37.38Z" transform="translate(-12.31 -9.22)"/><path class="cls-1" d="M129.62,58.7l.13-.56Z" transform="translate(-12.31 -9.22)"/><path class="cls-1" d="M63,109.49l.56-.42Z" transform="translate(-12.31 -9.22)"/><path class="cls-7" d="M153.78,110.14a28.32,28.32,0,0,1-11.61,4l-5.62-.12-.06-2.14a2.52,2.52,0,0,0,.19-2.89h4.95c.91.6,1.85,1.25,2.83.18s.51-2.09-.42-3v-2.69c1.27,1.28,2.67,1.83,4.37.8,3.1-1.87,4.38-5,5.57-8.16.24-.63-.24-1.08-.95-1.15-.07-.7.24-1.5-.53-2l.51-3.49c1.51-.17,2.68-2.27,4.47-.76-.87.81-1.12,1.75-.07,2.5s1.87.21,2.48-.75l1.27-.55c1.66,3.3,1,6.69.36,10.07-.06,0-.18.09-.18.12a2,2,0,0,0,.12.36,10.34,10.34,0,0,1-2,5c-1-.19-1.64.58-2.41,1-1,.52-1.58,1.74-2.94,1.5,0-1.52-.35-2.83-2.19-2.94a1.93,1.93,0,0,0-2.12,1.67c-.4,2.17,1,2.67,2.77,2.73C152.81,110,153.32,110.05,153.78,110.14ZM158,103a1.21,1.21,0,0,0-1-1.42h0a1.12,1.12,0,0,0-1.42,1,1.06,1.06,0,0,0,.94,1.41,1.23,1.23,0,0,0,1.48-.92h0Zm1.39-7a.8.8,0,0,0-.65-.88c-.7-.13-1,.33-1.1,1a.64.64,0,0,0,.71.76,1,1,0,0,0,1-.77Z" transform="translate(-12.31 -9.22)"/><path class="cls-8" d="M153.05,95c.71.06,1.18.51.95,1.15-1.19,3.16-2.47,6.29-5.57,8.16-1.7,1-3.1.48-4.37-.8l-.5-2.59a3.9,3.9,0,0,0,2.57-1.4L149,98C151.55,98.63,151.82,96.19,153.05,95Z" transform="translate(-12.31 -9.22)"/><path class="cls-9" d="M153.78,110.14c-.46-.13-1-.18-1.23-.68l1.54-1.46c1.36.24,2-1,2.94-1.5.77-.41,1.39-1.19,2.41-1l-1.07,1.86c-.82,1.59-2.51,2.12-3.82,3.11Z" transform="translate(-12.31 -9.22)"/><path class="cls-6" d="M157.5,88.79c-1.79-1.51-3,.59-4.47.76.12-3.29,1.42-4.07,5-3v2.08Z" transform="translate(-12.31 -9.22)"/><path class="cls-6" d="M153.05,95c-1.22,1.15-1.49,3.58-4,3,1.5-1.43,2.34-3.32,3.47-5C153.29,93.55,153,94.34,153.05,95Z" transform="translate(-12.31 -9.22)"/><path class="cls-10" d="M158.05,88.59V86.51A4.25,4.25,0,0,1,161.16,90l-1.27.55A1.93,1.93,0,0,0,158.05,88.59Z" transform="translate(-12.31 -9.22)"/><path class="cls-10" d="M161.47,100.53a2,2,0,0,1-.12-.36l.18-.12A.8.8,0,0,1,161.47,100.53Z" transform="translate(-12.31 -9.22)"/><path class="cls-11" d="M143.55,101l.5,2.59v2.69l-1.44-.06c-.17-.24-.33-.57-.7-.37s-.29.64-.27,1V109h-4.95c-1-.42-2-.66-2.78.49h-2.23l-1.58-1.62c-.45-1.11-1-1.15-1.58-.12a4.85,4.85,0,0,0-2,1.75h-2.26c0-1.33-.18-2.7-1.89-2.37s-1.41,1.67-.85,2.89c-.87.44-.94,1.22-.91,2.06h-2a5.58,5.58,0,0,0-2.51-.62l-.14-2.25c1.12-1.31,1.84-2.7.14-4a2.09,2.09,0,0,0-3.22.61c-1.14,1.66-.07,2.73,1.23,3.65.41,1.77-1.61,1.25-2.07,2.2l-1.87.07c-.58-1.31-1.68-1.76-2.43-.52-1.79,3-4.36,5.69-4,9.58-.34,2.28-1.72,4.32-1.61,6.71-1.63.16-2.19,1.39-2.49,2.7-.7,3-1.74,3.49-4.48,2s-3.22-2.67-2.69-6.1c.16-1,.07-1.92-1.14-2.06-1.47-.17-1.21,1-1.25,1.86-.08,1.77,1.24,3.26,1,5.06l-1.68-.06c.21-1,.24-2.23-1.17-2.13-1.58.11-1.09,1.51-1.07,2.53,0,1.58-2.24,3.37.47,4.68-1.46,2.71-1.23,3.53,1.44,5.2V142c-.33,1.48.64,2.3,1.57,3.15-.12,1-.15,2,1.22,1.87,1.19-.09,1.12-1,.89-1.86l1.82-.16c-.2,1.32.93,2.26,1,3.5-.65,0-1.49-.07-1.71.61-.76,2.37-2.13,1.78-3.63.89l-.66-1.52-.39-.46-.18-.49c-2.43-3.36-3.68-7.32-5.55-11a23.62,23.62,0,0,0-.38-8.4c0-.09-.29-.12-.44-.18l-.14-2c.47-.18.55-.58.59-1,1.84-.22,3.91,0,4.49-2.51.77-.13,1.69,0,1.86-1.12a1,1,0,0,0-.67-1.16,1.67,1.67,0,0,0-2.24.76v0c-1.31.94-2.29-.35-3.44-.5h-.52V116c.65-2.29,1.43-4.6-.78-6.55.33-2.36-2.09-3.14-2.81-4.9.58-.58,1.46-1.06.61-2.06.53-.69,1.78-.93,1.4-2.2a5,5,0,0,0-.51-3.73l1.82-.63c1.48,1.26,3.05,1.74,4.48.06s.57-3-.79-4.21c-.24-1.39,1.12-1.86,1.62-2.82l1,.54c.87.66,1,1.71,1.48,2.61a.91.91,0,0,0,1,.86h0c.53,1.16-1.34,2.29-.47,3,1.41,1.19.7,2.29.48,3.49a1,1,0,0,0-1,.75,3.24,3.24,0,0,0-2.58,3.24l-1,.11c-.94-.36-1.92-.65-2.58.39s-.15,1.67.68,2.24l.35.53.28-.37A2.4,2.4,0,0,0,86.84,105l1.35-.07a4.21,4.21,0,0,0,2.36,1.25c-.13,1,.34,2-.41,2.87a10.85,10.85,0,0,0-1.3-.7,2.92,2.92,0,0,0-3.64,1.28,2.66,2.66,0,0,0,.34,3.6,3,3,0,0,0,3.62.66c1-.39,1.33-1.39,1.75-2.28,1.08-.66.27-1.07-.2-1.53l-.15-.51c1.67-.31,2.61,2,4.34,1.28a3.44,3.44,0,0,1,3.67.73c-.15,1.8.16,3.47,2.37,3.45s2.72-1.66,2.4-3.61c.48-1.3,1.63-2.27,1.89-3.69,1.27.35,2.65.85,3.61-.44a2.26,2.26,0,0,0,.31-2.74c-.8-1.17-1.82-1.88-3.33-1.42l.19-1.63c.81-1,1.64-2.09.3-3.23s-2.3-.23-3.22.7v.79l.31,1.16c-2.62,2.57-6.19,3.22-9.37,4.68a.93.93,0,0,0-.85-1H93l.22-2c2.2-.13,2.6-2,3.3-3.5.81-.41,1.62-.84,2.44-1.22,2.82-1.3,6.36-1.47,7.36-5.45.22-.88,1.61-1.59,1.67-2.85,0-.62.3-1.41-.44-1.79s-1.28.23-1.67.73c-1.63,2.06-3.66,1.79-5.85,1.18-1.18-.33-2.18-1.25-3.51-1.1-.5-.72-1.25-.43-1.92-.5L93.54,85.6a4.1,4.1,0,0,1,1.74-1.69,3.78,3.78,0,0,0,1.77-3.59c-.05-1-.5-1.51-1.32-.64-1.09,1.16-2.43.79-3.71.88-1-.71-2.24-.45-3.38-.57L89,77.55c.75-.73.22-.9-.45-1l-2-1.29L86,74.59v-3c.41-.73.6-1.64,1.5-2a11.83,11.83,0,0,0,8.5-4.5h4c0,.73-.05,1.57.86,1.8.75.18,1.1-.56,1.56-1a2.42,2.42,0,0,0,1.08-1.82l1.44.39c.53.77,1.06.79,1.61,0L108.5,64c1.2,1.66,2.71,3,3.42,5.1.54,1.58,2.18,1.28,3,.16a27.31,27.31,0,0,1,3.36-3.61,14.13,14.13,0,0,0,3.3-5.6c1.1-2.94,2.17-6.32,6.05-7a.7.7,0,0,0,.4.15,15.92,15.92,0,0,1-1.39,7.9,22.34,22.34,0,0,0-1.48,5.43c-.21,1.18-.13,2.48,1.34,3v1c-1.41.74-1.2,2.38-1.93,3.5h0a4,4,0,0,1-2.57-.12c-3-1.44-3.71-1-5.58,1.81A11.53,11.53,0,0,1,114.14,78c-1.42,1.21-2.89,2.35-4.35,3.52a3,3,0,0,0-2-.87c-1.05-.71-2.12-1.41-3.49-1-.82,0-1.66-.35-2.44.13a2,2,0,0,0-.81,3c1.11,1.82,2.47,1.16,3.81.24l1.72.08a2.4,2.4,0,0,0,2.51,1c1.25,3.61,1.3,3.63,4,1.89a2.84,2.84,0,0,0,2.67-1.39h3.29a13.7,13.7,0,0,1,3.89,5.06,2.15,2.15,0,0,0,2.27,1.44c3.46-.07,7-.36,9.95,2a17.94,17.94,0,0,0,2.61,5.42c-2.18,2-4.43,1.71-7,.7-1.48-.57-2.72-1.83-4.18-2-2.72-.24-4-1.56-4.45-4.1-.31-1.69-1.26-2.25-3.09-1.7a26.68,26.68,0,0,1-5.8,1.26c-2.62.19-2.56,2.77-3,4.57a2.8,2.8,0,0,0,1.84,3.2c5.18,2.32,10.72,2.92,16.27,3.73,3.82.56,7.56-.37,11.31.26.93.16,1.37-.48,1.42-1.34s0-1.66,0-2.49Zm-43.5-26.41c-1.16,0-1.91.55-1.92,1.77a1.6,1.6,0,0,0,1.44,1.75h.26a1.75,1.75,0,0,0,2-1.8C101.85,75.14,101.11,74.66,100.05,74.55Zm2.47-3.12a1.47,1.47,0,0,0-2.92.22A1.35,1.35,0,0,0,101.29,73c1-.1,1.26-.7,1.26-1.56Zm21.72-10.3a1.11,1.11,0,0,0-1.1,1A1.06,1.06,0,0,0,124,63.4h0c.77.15,1-.37,1-1s0-1.17-.81-1.27Z" transform="translate(-12.31 -9.22)"/><path class="cls-7" d="M90.21,150.05c1.5.89,2.87,1.48,3.63-.89.22-.67,1.06-.61,1.71-.61A4.81,4.81,0,0,1,98.07,153c0,2.28,1.17,3.48,3.47,3.55l.12,4.48-2,13.53c-1,1.3-.57,3-1.21,4.44a26.69,26.69,0,0,1-3,5.34l-1.24.08-.69-.38a7.32,7.32,0,0,1-2.09-3.46c.85-1.44.4-3.79,3.1-4,.62,0,.19-1-.53-1-1.69,0-1.39-1.16-1.52-2.22-.23-1.79,1.25-3.51.19-5.31l.26-4.53v-2.47c-.31-2.53-1.68-4.87-1.07-7.6.22-1-.84-1.88-1.77-2.47h0Zm6.28,17.83a1.3,1.3,0,0,0-1.3-1.3l-.21,0c-.77,0-1.35.37-1.35,1.15,0,.94.7,1.23,1.53,1.26a1.12,1.12,0,0,0,1.34-1.13Zm.07-10.3c-.87,0-1,.61-1,1.33s.15,1.46,1,1.42a1.47,1.47,0,0,0,1.44-1.5,1.5,1.5,0,0,0,0-.15c-.07-.76-.66-1.08-1.44-1.1Z" transform="translate(-12.31 -9.22)"/><path class="cls-12" d="M101.55,156.55c-2.3-.07-3.51-1.27-3.47-3.55a4.81,4.81,0,0,0-2.52-4.45c-.07-1.24-1.2-2.18-1-3.5.07-1,.09-1.92.21-2.88.19-1.39-.2-2.36-1.71-2.63l-.52-.5-.49-2.49a10,10,0,0,0-1-5.5c.25-1.8-1.07-3.3-1-5.06,0-.87-.23-2,1.25-1.86,1.21.14,1.3,1,1.14,2.06-.53,3.44,0,4.7,2.69,6.1s3.78.94,4.48-2c.31-1.31.86-2.54,2.49-2.7.09,5.36-.33,10.72.72,16,.22,1.13-.28,2.41-.49,3.62A41.35,41.35,0,0,0,101.55,156.55Z" transform="translate(-12.31 -9.22)"/><path class="cls-12" d="M79.55,102.54c.86,1,0,1.49-.61,2.06-2.78-2.75-5.6-1.19-8.42-.09-3,0-5.38,1.49-7.46,3.52-6.32,4.73-14,5.89-21.27,8.08l-2.74-.6v-1.22c1.46-.38,2.39-1.23,2.19-2.84s-1.29-2-2.7-2c-.77-.72-.91-.16-1,.5l-.84.81a5.8,5.8,0,0,0-5.81-2.21l-1.84-.25a1.7,1.7,0,0,0-1.24-1.93c-1.57-.5-3.15-1-4.73-1.42l-1-.64a8.47,8.47,0,0,0-1-2c-1.17-1.36-2.48-2.55-4.41-1.16-1.44,1-1.6,3.1-.28,4.81.6.78,1.41,1.39,2,2.15.77,1,1.16,1.92-.52,2.38L14.37,107a.38.38,0,0,0-.29-.45H14l-.46-1c.3-2.82,0-5.68,1-8.46a11.57,11.57,0,0,1,4.71-6.1c1.75-1.12,3.47-.22,3.27,1.84-.24,2.47,1.13,3,3,3.22a6.29,6.29,0,0,1,1.35,1.08c4.36,6.09,10.1,5,15.92,3,2.68-.93,5.65-1.34,7.74-3.58a4.29,4.29,0,0,0,2.84-.68c3.82-2.43,7.89-4.53,10.66-8.31h0l.52-.51h0l.41-.52L65,86h0c2-1,2.36-3.16,3.48-4.78h.17v-.16l.52-1.41a16.62,16.62,0,0,0,2.93-7.06L72.77,71a5.78,5.78,0,0,1,2.7-.5l.52,1c-1.57,1.17-1,2.57-.43,4-.63,1.31-1.85,2.07-2.81,3.09-1.91,2-1.48,3.76,1.07,4.78.5.2,1.33-.13,1.47.62s-.59,1.12-1.14,1.45C68.43,88.89,62.72,92.37,57,95.77c-2.51,1.48-3,2.75-1.91,5.72v1.32c-2.68,1.63-2.8,2.76-.54,4.87.19.87.87.78,1.51.79,3.69,1,5.5.09,6-3,1.73,0,3.32-.21,4.17-2s.2-3.19-.9-4.55c.18-1.2.45-2.36,1.72-2.92,1.19-.35,1.7,1.27,2.86,1l.22,1.37L70,99c-1.7.52-.48,1.17,0,1.67.89,1,1.79,1.2,2.55-.18A4.34,4.34,0,0,1,75.1,100,5,5,0,0,0,77,101.73C77.55,103.06,78.68,102.35,79.55,102.54Zm-29.37,8.53a2.58,2.58,0,0,0,.32-4c-.85-.91-2.56-1.94-4-.23a3.3,3.3,0,0,0-2.36,3.59,2.64,2.64,0,0,0,2.09,2.45c1.76.46,3-.36,3.93-1.8Z" transform="translate(-12.31 -9.22)"/><path class="cls-8" d="M87.55,69.55c-.9.36-1.09,1.27-1.5,2l-2.62.55a3,3,0,0,0-2.4-.63c-.62-.53.42-1.59-.64-2L79,67.61c-.09-1.6.81-3.09.51-4.71a2.75,2.75,0,0,0,1.56-2.37c1.59-.09,3.17-.56,3.38-2.29.67-5.41,4.05-10,4.32-15.56.06-1.18,1-2.28.49-3.58l.07-1.51c1,0,1.33-.83,1.72-1.57a28.37,28.37,0,0,0,2.74-7.72c.82-4.12,2-8.35-1.55-12.14-1.4-1.49-2.46-2-4.22-1.13a2.65,2.65,0,0,0-3.64.62l-2.48-.11c0-1.87,1.49-2.92,2.37-4.31l1.34-.1c1.48,0,3,2,4.44,0l1,.07.71.31,1.76.14a28.52,28.52,0,0,1,3.87,7.15,2.61,2.61,0,0,0,1.89,1.78c.68,2.41-.69,4.54-.93,6.83a2.06,2.06,0,0,1-.41.15c-2.45.67-2.74,1.42-1.37,3.53l-.65,2.44a.47.47,0,0,0,0,.33l-.53.64-1.24,1.11-.58.51h0c-2,.39-.68,2-1.05,2.93l-.1.51c-.3,1.14-1.75,2.19-.26,3.47l.53,3.38c-2.23,6.29-2,11.84,3.76,15.78,1.08.74,2.36,1.3,2.55,2.84H96a2.6,2.6,0,0,0-2.1.59,11.59,11.59,0,0,1-5.34,2.92C88.19,68.67,87.9,69.21,87.55,69.55Z" transform="translate(-12.31 -9.22)"/><path class="cls-7" d="M88,15.06c1.76-.9,2.82-.36,4.22,1.13,3.54,3.79,2.37,8,1.55,12.14a28.37,28.37,0,0,1-2.74,7.72c-.39.73-.68,1.56-1.72,1.57-.93-1-1.95-1.66-3.13-.42a1.84,1.84,0,0,0,0,2.6l.08.08c1.41,1.6,2-.3,3-.75.54,1.3-.43,2.39-.49,3.58-.26,5.52-3.65,10.15-4.32,15.56-.21,1.73-1.79,2.2-3.38,2.29a2.62,2.62,0,0,0-2-2,21.93,21.93,0,0,1,.22-2.37c.29-1.46-.29-2.12-1.73-2.12l.36-3.44a5.69,5.69,0,0,0,.51-3.08L78.78,46l.29-.46h0l.43-.65L80,42.56a5.43,5.43,0,0,0,2-6.49l.14-1c.65-.14,1.13-.35.39-1l.12-1,.34-.59.09-2,.1-.5c1.2-.78.61-2.79,2.24-3.28,1.6.94,3,.86,3.91-.93.8-.59.77-1.19,0-1.79-1.6-2-2.6-2.09-4.45-.41-2.88-.5-2.48-3.22-3.31-5a3.33,3.33,0,0,1,.29-2.88l2.48.11c-.3,1.31-.11,2.45,1.23,3.1a1.86,1.86,0,0,0,2.25-.37C89,17.35,88.61,16.21,88,15.06Zm3,16c-.11-1.24-.69-2.13-1.94-2.23a2,2,0,0,0-2.31,2.07A1.88,1.88,0,0,0,88.35,33l.31,0A2.1,2.1,0,0,0,91,31.18s0-.07,0-.1ZM84.55,48.14A1.94,1.94,0,0,0,86.5,46a1.78,1.78,0,0,0-2-2,1.87,1.87,0,0,0-2,2.07,2,2,0,0,0,2,2ZM83.93,53c0-1.41-.53-2.22-1.72-2.28a1.83,1.83,0,1,0-.07,3.66h0A1.7,1.7,0,0,0,84,53Z" transform="translate(-12.31 -9.22)"/><path class="cls-13" d="M84.91,23.49c1.85-1.68,2.85-1.59,4.45.41a2.33,2.33,0,0,0,0,1.79c-1,1.8-2.31,1.87-3.91.93A8.12,8.12,0,0,1,84.91,23.49Z" transform="translate(-12.31 -9.22)"/><path class="cls-9" d="M39,115.53l2.74.6a4.59,4.59,0,0,1-.24.41,6.48,6.48,0,0,0-3.09.94,2.2,2.2,0,0,0-.42.07l-2-.15C36,115.14,37.71,115.63,39,115.53Z" transform="translate(-12.31 -9.22)"/><path class="cls-6" d="M124.2,109.55h2.26l.3,2.4c-1.07.34-2.36-.37-3.28.7-1-.18-2.05.15-2.94-.52,0-.83,0-1.62.91-2.06A2.1,2.1,0,0,0,124.2,109.55Z" transform="translate(-12.31 -9.22)"/><path class="cls-14" d="M131.66,109.52h2.23l.4,2.33c-1,.42-1.33,1.41-1.81,2.27L129,114l-.91-1C130.61,113.21,131.78,112,131.66,109.52Z" transform="translate(-12.31 -9.22)"/><path class="cls-10" d="M132.49,114.14c.48-.86.79-1.84,1.81-2.26a4.06,4.06,0,0,0,2.19.06l.06,2.14-.5.48A3.27,3.27,0,0,1,132.49,114.14Z" transform="translate(-12.31 -9.22)"/><path class="cls-9" d="M128.09,113l.91,1a10.39,10.39,0,0,1-5.52-1.33c.91-1.07,2.21-.36,3.28-.7Z" transform="translate(-12.31 -9.22)"/><path class="cls-15" d="M136.05,114.53l.5-.48,5.62.12-1.22.75A12.11,12.11,0,0,1,136.05,114.53Z" transform="translate(-12.31 -9.22)"/><path class="cls-9" d="M131.22,24.22a1.19,1.19,0,0,0,.38-.21c2.29-3.48,5.48-3.35,9.12-2.72,2.36.41,4.9-.29,7.25.76l.21.56c-.62.59-1.4.42-2.14.43-1.78-1-3.92-.16-4.22,1.07-.81,3.32-3.29,3.14-5.57,3.4-3.24.37-4.78,1.78-4.66,5,.06,1.69-.43,2.52-2.09,3s-3.05,1.29-2.64,3.52a1.32,1.32,0,0,1-1.14,1.48h-.2c-2.83,0-3.27.78-1.85,3.17.19,1.79-1,3.81.89,5.32-.07,3.42-1.2,4.78-4.26,5.09-.9-.88-1.88-1.41-3.05-.48a1.81,1.81,0,0,0-.81,2.15,2.21,2.21,0,0,0,2.75,1.48l.25-.09c.53,3.43-2.48,5.24-3.64,7.89-.35.8-.76,1.87-1.86,1.73s-.7-1.35-1.06-2a14.76,14.76,0,0,0-.82-1.24c.08-.76-.66-1-1-1.46.31-1.19,1.59-1.92,1.56-3.27,1.39-2.24,2.08-4.77,3.06-7.18,1.79-1.38,1.95-3.62,2.86-5.46a10.28,10.28,0,0,0,2.59-5v-.06a1,1,0,0,0,.5-1h0l.46-.55c2.67-2.64,3.42-6.41,5.56-9.39A26.65,26.65,0,0,0,131.22,24.22Zm-8.92,25a1.52,1.52,0,0,0-1.75-1.63c-1,0-1.89.06-2,1.34s.88,1.77,1.87,1.9,1.69-.6,1.89-1.69Z" transform="translate(-12.31 -9.22)"/><path class="cls-14" d="M92.7,168.05c1.06,1.8-.41,3.52-.19,5.31.13,1.06-.17,2.23,1.52,2.22.72,0,1.15,1,.53,1-2.69.19-2.24,2.55-3.1,4C90.72,176.29,91.67,172.14,92.7,168.05Z" transform="translate(-12.31 -9.22)"/><path class="cls-2" d="M92.93,162v1.47C92.34,163,91.55,162.55,92.93,162Z" transform="translate(-12.31 -9.22)"/><path class="cls-1" d="M93.55,184l.69.38Z" transform="translate(-12.31 -9.22)"/><path class="cls-6" d="M82,36a5.43,5.43,0,0,1-2,6.49Z" transform="translate(-12.31 -9.22)"/><path class="cls-1" d="M83.09,30.41l-.09,2a2.52,2.52,0,0,0-.46.17C82.55,31.83,82.35,31,83.09,30.41Z" transform="translate(-12.31 -9.22)"/><path class="cls-6" d="M82.55,34c.74.67.26.88-.39,1A.91.91,0,0,1,82.55,34Z" transform="translate(-12.31 -9.22)"/><path class="cls-6" d="M82.55,32.62a2.52,2.52,0,0,1,.46-.17l-.34.59A1.5,1.5,0,0,1,82.55,32.62Z" transform="translate(-12.31 -9.22)"/><path class="cls-6" d="M79,45.55l-.29.46Z" transform="translate(-12.31 -9.22)"/><path class="cls-6" d="M79.48,44.89l-.43.65Z" transform="translate(-12.31 -9.22)"/><path class="cls-8" d="M135.15,93.05c-3-2.35-6.49-2.07-9.95-2a2.15,2.15,0,0,1-2.27-1.44A13.7,13.7,0,0,0,119,84.55V83.48c.84-.59,1.61-1.24,1.22-2.42s-1.3-1.37-2.37-1.28a1.19,1.19,0,0,1-.66-1.55l0-.07c.74-2.26,2.33-1.46,3.81-1.11,1.62.85,2.55.58,2.38-1.47,1,0,1.13-.73,1.1-1.53h0l1.6.11L127.1,77a1.61,1.61,0,0,0,.52,1.52l.42.27a.83.83,0,0,0,.49,1h0a6.2,6.2,0,0,0,1.63,4.29c1.5,2,3.11,4,4.68,6Z" transform="translate(-12.31 -9.22)"/><path class="cls-7" d="M120.29,54.14c3.06-.31,4.19-1.67,4.26-5.09l.5-.5c2.78-.31,2.8-2.47,3-4.5.28-.69,1.07-1.13,1-2a9.36,9.36,0,0,0,3.5-.5c.7.29,1.15,1.08,2,1L134.46,44h0c-.64.18-1.16.4-.32,1-.43,1.49-1.22,2.89-1.23,4.49-.86.12-.86.77-.9,1.41A3.23,3.23,0,0,0,131,53.39c-2.89,5-3.58,10.55-4.41,16.08-1.47-.55-1.55-1.86-1.34-3A22.34,22.34,0,0,1,126.68,61a15.92,15.92,0,0,0,1.39-7.9c.95-.34,1.71-.84,1.15-2a1,1,0,0,0-1.29-.57l-.2.1c-1.17.69-.54,1.53-.06,2.32-3.89.71-5,4.09-6.05,7a14.13,14.13,0,0,1-3.3,5.6A27.31,27.31,0,0,0,115,69.2c-.81,1.12-2.44,1.42-3-.16-.71-2.08-2.23-3.44-3.42-5.1.28-.57.81-.55,1.33-.56l2.19.09a14.76,14.76,0,0,1,.82,1.24c.36.68,0,1.89,1.06,2s1.52-.93,1.86-1.73c1.16-2.66,4.17-4.47,3.64-7.89A2.62,2.62,0,0,0,120.29,54.14ZM132,44.93c0-.6-.22-1.12-.77-1.15-.75,0-1.18.65-1.45,1.18s.27.92.81,1a1.16,1.16,0,0,0,1.41-1Z" transform="translate(-12.31 -9.22)"/><path class="cls-7" d="M126.15,74.14l-1.6-.11c.73-1.12.52-2.76,1.93-3.5l-.11,3-.28.5Z" transform="translate(-12.31 -9.22)"/><path class="cls-1" d="M127.62,78.56A1.61,1.61,0,0,1,127.1,77l.49.1Q127.6,77.85,127.62,78.56Z" transform="translate(-12.31 -9.22)"/><path class="cls-8" d="M126.09,74.14l.28-.5C126.41,73.84,126.41,74.06,126.09,74.14Z" transform="translate(-12.31 -9.22)"/><path class="cls-1" d="M121.62,40.14a1,1,0,0,1-.5,1v-1Z" transform="translate(-12.31 -9.22)"/><path class="cls-1" d="M122.06,39.55l-.46.55Z" transform="translate(-12.31 -9.22)"/><path class="cls-9" d="M99.05,65.05c-.2-1.54-1.47-2.1-2.55-2.84-5.75-3.94-6-9.49-3.76-15.78a1.21,1.21,0,0,1,.38.11c-.41,2.92.21,5.8.56,8.65.47,3.74,3,6.17,6.46,7.53.41,1.19,1.65.81,2.44,1.28-.48,1.21-1.53,1-2.52,1.06Z" transform="translate(-12.31 -9.22)"/><path class="cls-10" d="M17.92,110.61c1.68-.46,1.3-1.43.52-2.38-.62-.76-1.43-1.38-2-2.15-1.32-1.71-1.16-3.78.28-4.81,1.93-1.39,3.24-.2,4.41,1.16a8.47,8.47,0,0,1,1,2,8.2,8.2,0,0,0-1.43.29,1.75,1.75,0,0,0-1.23,2.11A1.65,1.65,0,0,0,21,108.18,2,2,0,0,0,23.2,107a2.61,2.61,0,0,0,0-1.9c1.58.47,3.16.92,4.73,1.42a1.7,1.7,0,0,1,1.24,1.93c-1.31.68-2.62,1.48-1.59,3.17.77,1.26,2.16,1.17,3.28.52,1.7-1,1.19-2.25.14-3.45a5.8,5.8,0,0,1,5.81,2.21l-.17.71c-1.71.31-1.86,1.64-2,3-.87.48-2,.7-2,2-3.32.15-6.22-1.54-9.37-2.16-.38-.13-.77-.26-1.12.07h.07C21,112.94,18.34,113,17.92,110.61Z" transform="translate(-12.31 -9.22)"/><path class="cls-6" d="M32.55,116.6c0-1.35,1.13-1.57,2-2,1.08.53,2.14,1,3-.4l1.53.17v1.22c-1.32.1-3-.42-3,1.87C34.78,117.56,33.55,117.76,32.55,116.6Z" transform="translate(-12.31 -9.22)"/><path class="cls-2" d="M22.06,114.51c.35-.33.74-.2,1.12-.07C22.84,115,22.49,115.27,22.06,114.51Z" transform="translate(-12.31 -9.22)"/><path class="cls-12" d="M125.05,48.55l-.5.5c-1.91-1.5-.7-3.53-.89-5.31,2.54-.11,2.88-.7,1.85-3.17a1.32,1.32,0,0,0,1.34-1.49c-.41-2.22,1.09-3,2.64-3.52a2.63,2.63,0,0,0,2.09-3c-.12-3.23,1.42-4.64,4.66-5,2.28-.26,4.76-.08,5.57-3.4.3-1.24,2.45-2.07,4.22-1.07-2.31,1-2.59,2.9-2.49,5-.94.14-1.58.59-1.43,1.62a1,1,0,0,0,1.15.83l.15,0c1.09-.24,1.13-1,.93-1.91a3.73,3.73,0,0,1,1,0c1.89.49,3.1.48,2.44-2.15a1.83,1.83,0,0,1,1.66-2.33A2.74,2.74,0,0,1,150.61,26a7.2,7.2,0,0,1-2.94,4.22c-.34.22-.43.84-.63,1.28-2.07,1.17-4.17,2.3-6.21,3.54a4,4,0,0,0-1.9,1.91c-.8.19-.93.84-1,1.52l-.44.49c-.84.13-1,.81-1.16,1.47a1.26,1.26,0,0,0-.82,1.12.43.43,0,0,0-.06.37V42l-.84.56c-.88.08-1.33-.71-2-1l.48-1.52c.1-.94,1.7-1.58.47-2.8a1.75,1.75,0,0,0-2.45-.17c-3.13.6-3.6,1.77-2,5,.07.87-.72,1.31-1,2C125.5,44.33,125.06,45,125.05,48.55Zm13-15.37c1.59-.68,1.72-1.62.49-2.79-.24-2.3-2-1.27-3.09-1.25a2.51,2.51,0,0,0-2.39,2.45c-.2,1.7.92,2.67,2.24,3.24A1.85,1.85,0,0,0,138,33.57a2.61,2.61,0,0,0,0-.43Z" transform="translate(-12.31 -9.22)"/><path class="cls-9" d="M147.05,31.51c.2-.44.29-1.06.63-1.28A7.2,7.2,0,0,0,150.62,26c1.08,1.69,0,3-.75,4.39C148.86,30.59,148.15,31.56,147.05,31.51Z" transform="translate(-12.31 -9.22)"/><path class="cls-1" d="M137.93,38.48c.07-.68.2-1.32,1-1.52.2.61-.17,1.07-.4,1.57Z" transform="translate(-12.31 -9.22)"/><path class="cls-9" d="M99.3,20.55a2.61,2.61,0,0,1-1.89-1.78,28.52,28.52,0,0,0-3.87-7.15l1.95.77L96.7,13.6C98.16,15.7,99.55,17.82,99.3,20.55Z" transform="translate(-12.31 -9.22)"/><path class="cls-7" d="M100.05,65.06c1,0,2,.15,2.52-1.06l1,0a2.42,2.42,0,0,1-1.08,1.82c-.46.42-.82,1.17-1.56,1C100,66.63,100.06,65.79,100.05,65.06Z" transform="translate(-12.31 -9.22)"/><path class="cls-6" d="M112.05,63.55l-2.19-.09a2.11,2.11,0,0,1,1.21-1.37C111.39,62.58,112.13,62.79,112.05,63.55Z" transform="translate(-12.31 -9.22)"/><path class="cls-7" d="M106.55,64.46c-.55.76-1.09.74-1.61,0a1.06,1.06,0,0,1,1.49-.12Z" transform="translate(-12.31 -9.22)"/><path class="cls-8" d="M141,100.61v2.49c0,.82-.49,1.49-1.42,1.34-3.75-.63-7.49.3-11.31-.26-5.55-.81-11.1-1.41-16.27-3.73a2.8,2.8,0,0,1-1.84-3.2c.48-1.8.42-4.38,3-4.57a26.68,26.68,0,0,0,5.8-1.26c1.83-.55,2.78,0,3.09,1.7.47,2.53,1.72,3.86,4.45,4.1,1.46.13,2.7,1.39,4.18,2,2.6,1,4.86,1.32,7-.7Z" transform="translate(-12.31 -9.22)"/><path class="cls-3" d="M14,106.62a.38.38,0,0,1,.4.46Z" transform="translate(-12.31 -9.22)"/><path class="cls-15" d="M81.74,109.51c2.2,2,1.43,4.26.78,6.55-.81-1.11-.24-2.44-.57-3.63l-.29-1.13Z" transform="translate(-12.31 -9.22)"/><path class="cls-6" d="M79.55,62.92c.3,1.62-.59,3.11-.51,4.71-2.39-.49-3.38.73-3.56,2.93a5.78,5.78,0,0,0-2.7.5l2-6.53.3-.43a1.9,1.9,0,0,0,.38-1.56v-.49c.2-.63,1-1.28,0-1.89l-.07-.08c1.09-.25.52-1.83,1.65-2l1.28.66C76.46,61,76.8,62.09,79.55,62.92Z" transform="translate(-12.31 -9.22)"/><path class="cls-14" d="M75.05,64.14l-.3.43C74.63,64.24,74.77,64.14,75.05,64.14Z" transform="translate(-12.31 -9.22)"/><path class="cls-4" d="M75.45,62.05v.49a1.88,1.88,0,0,1-.13-.35A.43.43,0,0,0,75.45,62.05Z" transform="translate(-12.31 -9.22)"/><path class="cls-15" d="M82.62,128c.15.06.41.08.44.18a23.62,23.62,0,0,1,.38,8.4.59.59,0,0,1-.32-.09l-.6-5C83,130.36,82.27,129.14,82.62,128Z" transform="translate(-12.31 -9.22)"/><path class="cls-2" d="M90.21,150.05l-.11,1-.88-.14-.45-1c-.06-.78-.48-1.6.21-2.32l.18.49c-.07.32.1.44.39.46Z" transform="translate(-12.31 -9.22)"/><path class="cls-15" d="M143.55,28.14c-.1-2.14.18-4.1,2.49-5,.74,0,1.52.16,2.14-.43a3,3,0,0,1,1.26,1.48,1.83,1.83,0,0,0-1.66,2.33c.66,2.63-.55,2.64-2.44,2.15a3.73,3.73,0,0,0-1,0Z" transform="translate(-12.31 -9.22)"/><path class="cls-6" d="M112,111.7c.46-1,2.48-.43,2.07-2.2l1.85-.24.14,2.25Z" transform="translate(-12.31 -9.22)"/><path class="cls-9" d="M92.55,39.06c.37-1-.92-2.54,1.05-2.93a1,1,0,0,0,.18.4A4,4,0,0,0,92.89,39Z" transform="translate(-12.31 -9.22)"/><path class="cls-1" d="M93.79,36.53a1,1,0,0,1-.18-.4h0l.5.07A.68.68,0,0,1,93.79,36.53Z" transform="translate(-12.31 -9.22)"/><path class="cls-9" d="M94.08,36.14l-.5-.07.58-.51Z" transform="translate(-12.31 -9.22)"/><path class="cls-1" d="M95.4,34.47l.53-.64A.59.59,0,0,1,95.4,34.47Z" transform="translate(-12.31 -9.22)"/><path class="cls-9" d="M90,11.14c-1.46,2.06-3,.06-4.44,0A4.52,4.52,0,0,1,90,11.14Z" transform="translate(-12.31 -9.22)"/><path class="cls-9" d="M91.79,11.48l-.71-.31Z" transform="translate(-12.31 -9.22)"/><path class="cls-10" d="M78.28,58.68,77,58l.23-3.5.31-.5h0c1.44,0,2,.66,1.73,2.12a21.93,21.93,0,0,0-.22,2.37Z" transform="translate(-12.31 -9.22)"/><path class="cls-6" d="M77.55,54l-.31.5C77.12,54.22,77.27,54.09,77.55,54Z" transform="translate(-12.31 -9.22)"/><polygon class="cls-1" points="56.37 71.89 56.42 72.06 56.25 72.09 56.37 71.89"/><path class="cls-15" d="M83.06,125.05a.94.94,0,0,1-.59,1c-.76-1.09-.18-2.34-.4-3.49.15-.67-.16-1.45.45-2H83C82.85,122.05,83.71,123.55,83.06,125.05Z" transform="translate(-12.31 -9.22)"/><path class="cls-3" d="M64.55,87.05l-.52.51Z" transform="translate(-12.31 -9.22)"/><path class="cls-3" d="M65,86.55l-.41.52v-.52H65Z" transform="translate(-12.31 -9.22)"/><path class="cls-4" d="M65,86.55h-.43l.54-.49Z" transform="translate(-12.31 -9.22)"/><path class="cls-9" d="M92.2,43c-1.49-1.28,0-2.33.26-3.47Z" transform="translate(-12.31 -9.22)"/><path class="cls-1" d="M136.33,40.44c.17-.66.32-1.34,1.16-1.47C137.55,39.8,137.25,40.36,136.33,40.44Z" transform="translate(-12.31 -9.22)"/><path class="cls-1" d="M134.55,42.55l.84-.56a2,2,0,0,1-.93,2Z" transform="translate(-12.31 -9.22)"/><path class="cls-1" d="M134.13,45.05c-.84-.64-.31-.86.32-1l.12,1Z" transform="translate(-12.31 -9.22)"/><path class="cls-1" d="M135.45,41.92a.43.43,0,0,1,.06-.37l.17.33Z" transform="translate(-12.31 -9.22)"/><path class="cls-9" d="M96.55,31.06c-1.37-2.1-1.07-2.86,1.37-3.53A6.15,6.15,0,0,1,96.55,31.06Z" transform="translate(-12.31 -9.22)"/><path class="cls-1" d="M128.55,79.79a.83.83,0,0,1-.49-1Z" transform="translate(-12.31 -9.22)"/><path class="cls-2" d="M154.09,108.05l-1.54,1.46c-1.77,0-3.18-.56-2.77-2.73a1.93,1.93,0,0,1,2.12-1.67C153.74,105.23,154.09,106.53,154.09,108.05Z" transform="translate(-12.31 -9.22)"/><path class="cls-2" d="M141.63,109v-2.21l1-.63,1.44.06c.93.88,1.46,1.84.42,3S142.55,109.63,141.63,109Z" transform="translate(-12.31 -9.22)"/><path class="cls-2" d="M136.49,111.91a4.06,4.06,0,0,1-2.19-.06l-.4-2.33c.75-1.15,1.75-.91,2.78-.49A2.52,2.52,0,0,1,136.49,111.91Z" transform="translate(-12.31 -9.22)"/><path class="cls-2" d="M158.05,88.59a1.93,1.93,0,0,1,1.86,2c-.62,1-1.48,1.47-2.48.75s-.8-1.69.07-2.5Z" transform="translate(-12.31 -9.22)"/><path class="cls-2" d="M158,103.08a1.23,1.23,0,0,1-1.41,1h-.07a1.06,1.06,0,0,1-.94-1.41,1.12,1.12,0,0,1,1.2-1l.22,0a1.21,1.21,0,0,1,1,1.39Z" transform="translate(-12.31 -9.22)"/><path class="cls-10" d="M159.38,96.14a1,1,0,0,1-1,.84.64.64,0,0,1-.71-.76c.07-.63.4-1.09,1.1-1A.8.8,0,0,1,159.38,96.14Z" transform="translate(-12.31 -9.22)"/><path class="cls-8" d="M96.55,88.55c1.33-.16,2.33.76,3.51,1.1,2.18.62,4.21.89,5.85-1.18.39-.5.91-1.11,1.67-.73s.47,1.17.44,1.79c-.05,1.26-1.45,2-1.67,2.85-1,4-4.54,4.16-7.36,5.45-.83.38-1.63.81-2.44,1.22a1.37,1.37,0,0,1-1.47-1.27s0-.06,0-.09a2,2,0,0,0-1.42-1.84c-1.51-.71-1.22-1.63-.44-2.79C94.26,91.5,95.8,90.31,96.55,88.55Z" transform="translate(-12.31 -9.22)"/><path class="cls-10" d="M98.55,111.56a3.44,3.44,0,0,0-3.67-.73c-1.73.72-2.67-1.6-4.34-1.28l-.43-.52c.75-.87.27-1.91.41-2.87l1.88-.83c.45.76,1,1,1.62.22,3.18-1.45,6.75-2.11,9.37-4.68a2.66,2.66,0,0,0,2.6.59l-.19,1.63a4,4,0,0,0-1.47,2.92h-2.58c-.7-1.27-1.63-1.94-2.91-.8a1.48,1.48,0,0,0,0,2.37c1.11,1,2.07.57,2.9-.47,1.16-.09,2.21.72,3.4.42l.11.19c-.26,1.42-1.41,2.38-1.89,3.69Q100.87,108.88,98.55,111.56Z" transform="translate(-12.31 -9.22)"/><path class="cls-7" d="M121.07,77c-1.48-.35-3.07-1.15-3.81,1.11a1.19,1.19,0,0,0,.56,1.59l.07,0c-1.8,2.21-1.55,3,1.15,3.7v1.07h-3.29c.17-1.47-.19-2.63-1.85-2.89a1.85,1.85,0,0,0-2.23,1.08c-.62,1.52.14,2.48,1.4,3.2-2.74,1.74-2.79,1.72-4-1.89a2.57,2.57,0,0,0,.73-2.5c1.45-1.17,2.93-2.31,4.35-3.52a11.53,11.53,0,0,0,2.28-2.26C118.31,72.9,119,72.51,122,74a4,4,0,0,0,2.57.12c0,.79-.07,1.49-1.1,1.53C121.79,74.65,121.05,75.23,121.07,77Z" transform="translate(-12.31 -9.22)"/><path class="cls-7" d="M87.55,89c-.5,1-1.86,1.43-1.62,2.82l-2.39-.12c.18-2.06,2.39-2.76,3-4.6s.46-3-1.52-3.57c0-.56-.08-1.16.54-1.51a.93.93,0,0,0,1-.75l1.87-1c.68.9.24,2.78,2,2.68,1.24-.07,1.68-1.15,1.57-2.37,1.28-.09,2.62.27,3.71-.88.82-.87,1.27-.41,1.32.64a3.78,3.78,0,0,1-1.77,3.59,4.1,4.1,0,0,0-1.74,1.69c-2.15-1.07-4-.89-5.19,1.42C87.25,87.35,87.66,88.28,87.55,89Z" transform="translate(-12.31 -9.22)"/><path class="cls-7" d="M96.55,88.55c-.75,1.76-2.29,3-3.34,4.51-.78,1.16-1.06,2.09.44,2.79a2,2,0,0,1,1.42,1.84,1.37,1.37,0,0,0,1.38,1.36h.09c-.7,1.54-1.11,3.37-3.3,3.5l-.69-1.41c.1-1.07-.82-1.18-1.46-1.56.22-1.2.93-2.3-.48-3.49-.88-.74,1-1.88.47-3l.08-.61,1-.84c1.09,0,1.95-.28,1.87-1.62l.64-1.9C95.3,88.14,96.05,87.83,96.55,88.55Z" transform="translate(-12.31 -9.22)"/><path class="cls-13" d="M94.63,88.05,94,90c-.64.53-1.59.69-1.87,1.62l-1,.84L90,92.16c-.43-.9-.61-2-1.48-2.61L88.34,87c1.23-2.3,3-2.49,5.19-1.42Z" transform="translate(-12.31 -9.22)"/><path class="cls-13" d="M77,101.78A5,5,0,0,1,75.11,100l.2-2.85,1.33-1.34h.19l.18-.07,2.54.21a.68.68,0,0,0,.44.2l.44.38a5.06,5.06,0,0,1,.51,3.73A5.36,5.36,0,0,1,77,101.78Z" transform="translate(-12.31 -9.22)"/><path class="cls-13" d="M90.14,109l.43.52.15.51.2,1.53c-.42.89-.72,1.89-1.75,2.28a3,3,0,0,1-3.62-.66,2.66,2.66,0,0,1-.34-3.6,2.92,2.92,0,0,1,3.64-1.28A10.84,10.84,0,0,1,90.14,109Z" transform="translate(-12.31 -9.22)"/><path class="cls-13" d="M88.46,80.24l-1.87,1h-1.1a6,6,0,0,1-2.35-1.46.23.23,0,0,0-.12-.3l-.22-1A4.34,4.34,0,0,1,85,75.3l1.6-.13,2,1.3a1,1,0,0,0,.45,1l-.39,2.44a.21.21,0,0,0-.21.33Z" transform="translate(-12.31 -9.22)"/><path class="cls-13" d="M92.55,101.14l.73,1.43-.22,2-.59.78-1.92.79A4.21,4.21,0,0,1,88.09,105l-.66-1.48A3.24,3.24,0,0,1,90,100.29Z" transform="translate(-12.31 -9.22)"/><path class="cls-13" d="M92.05,136.55l.49,2.49a1.1,1.1,0,0,0-.45,1l-2,1.21h-1c-2.67-1.67-2.9-2.49-1.44-5.2A3.66,3.66,0,0,1,92.05,136.55Z" transform="translate(-12.31 -9.22)"/><path class="cls-13" d="M83.55,91.71l2.39.12c1.35,1.2,2.17,2.59.79,4.21s-3,1.2-4.48-.06C81.67,95,82,94,82.07,93.05Z" transform="translate(-12.31 -9.22)"/><path class="cls-7" d="M90.06,141.28l2-1.21a1,1,0,0,0,1-.51c1.51.26,1.89,1.23,1.71,2.63-.13,1-.15,1.92-.21,2.88l-1.82.16a2.51,2.51,0,0,0-2.11,0c-.93-.85-1.9-1.67-1.57-3.15A1,1,0,0,0,90.06,141.28Z" transform="translate(-12.31 -9.22)"/><path class="cls-7" d="M92.05,136.55a3.66,3.66,0,0,0-4.46-.49c-2.7-1.31-.49-3.1-.47-4.68a3.19,3.19,0,0,0,2.24-.4L91,131A10,10,0,0,1,92.05,136.55Z" transform="translate(-12.31 -9.22)"/><path class="cls-13" d="M105.24,107.7l-.11-.19-.77-1.5a4,4,0,0,1,1.47-2.92c1.51-.46,2.52.25,3.33,1.42a2.26,2.26,0,0,1-.31,2.74C107.89,108.55,106.55,108.05,105.24,107.7Z" transform="translate(-12.31 -9.22)"/><path class="cls-13" d="M128.09,113l-1.33-1-.3-2.4a4.84,4.84,0,0,1,2-1.75L130,108l1.58,1.62C131.78,112,130.61,113.21,128.09,113Z" transform="translate(-12.31 -9.22)"/><path class="cls-13" d="M98.55,111.56q2.29-2.69,4.77-.17c.32,2-.11,3.59-2.4,3.61S98.43,113.36,98.55,111.56Z" transform="translate(-12.31 -9.22)"/><path class="cls-2" d="M115.91,109.26l-1.85.24c-1.31-.92-2.37-2-1.23-3.65a2.09,2.09,0,0,1,3.22-.61C117.75,106.56,117,108,115.91,109.26Z" transform="translate(-12.31 -9.22)"/><path class="cls-7" d="M85,75.37a4.34,4.34,0,0,0-2.21,3.18H80.55l.5-3.44c1.83-.18,2.89-1,2.38-3l2.62-.55v3a.93.93,0,0,0-1,.81Z" transform="translate(-12.31 -9.22)"/><path class="cls-2" d="M113.09,85.91c-1.26-.72-2-1.68-1.4-3.2a1.85,1.85,0,0,1,2.23-1.08c1.66.26,2,1.43,1.85,2.89A2.84,2.84,0,0,1,113.09,85.91Z" transform="translate(-12.31 -9.22)"/><path class="cls-2" d="M104.81,83c-1.33.92-2.7,1.58-3.8-.24a2,2,0,0,1,.81-3c.78-.48,1.62-.13,2.44-.13A3.53,3.53,0,0,1,104.81,83Z" transform="translate(-12.31 -9.22)"/><path class="cls-7" d="M83.06,125.05c.64-1.5-.22-3,0-4.5,1.15.15,2.13,1.44,3.44.5a2,2,0,0,0,1.05,1.49C87,125,84.91,124.83,83.06,125.05Z" transform="translate(-12.31 -9.22)"/><path class="cls-2" d="M106,101.46a2.66,2.66,0,0,1-2.6-.59l-.3-1.16c.4-.27.4-.54,0-.79.93-.92,1.93-1.79,3.22-.7S106.83,100.45,106,101.46Z" transform="translate(-12.31 -9.22)"/><path class="cls-2" d="M100.05,74.55c1.06.11,1.8.59,1.73,1.72a1.75,1.75,0,0,1-1.68,1.82l-.32,0a1.6,1.6,0,0,1-1.7-1.75A1.76,1.76,0,0,1,100.05,74.55Z" transform="translate(-12.31 -9.22)"/><path class="cls-2" d="M109.77,81.52A2.57,2.57,0,0,1,109,84a2.4,2.4,0,0,1-2.51-1,2.72,2.72,0,0,1,1.21-2.4A3,3,0,0,1,109.77,81.52Z" transform="translate(-12.31 -9.22)"/><path class="cls-7" d="M87.55,69.55c.35-.34.64-.88,1-1a11.59,11.59,0,0,0,5.34-2.92A2.6,2.6,0,0,1,96,65,11.83,11.83,0,0,1,87.55,69.55Z" transform="translate(-12.31 -9.22)"/><path class="cls-2" d="M124.2,109.55a2.1,2.1,0,0,1-2.75.52c-.56-1.22-.87-2.56.85-2.89S124.24,108.21,124.2,109.55Z" transform="translate(-12.31 -9.22)"/><path class="cls-14" d="M88.46,80.24a.21.21,0,0,1,.16-.25h0c1.14.12,2.34-.14,3.38.57.11,1.22-.34,2.3-1.57,2.37C88.7,83,89.14,81.14,88.46,80.24Z" transform="translate(-12.31 -9.22)"/><path class="cls-7" d="M102.55,71.44c0,.86-.34,1.46-1.24,1.56a1.36,1.36,0,0,1-1.69-1.34,1.47,1.47,0,0,1,2.92-.22Z" transform="translate(-12.31 -9.22)"/><path class="cls-2" d="M86.73,105.14a2.4,2.4,0,0,1-1.61,1.34l-.63-.15c-.83-.56-1.27-1.31-.68-2.24s1.64-.75,2.58-.39Z" transform="translate(-12.31 -9.22)"/><path class="cls-2" d="M89.37,131a3.19,3.19,0,0,1-2.24.4c0-1-.5-2.42,1.07-2.53C89.61,128.76,89.55,129.94,89.37,131Z" transform="translate(-12.31 -9.22)"/><path class="cls-7" d="M107.75,80.65a2.72,2.72,0,0,0-1.21,2.4L104.82,83a3.53,3.53,0,0,0-.55-3.33C105.63,79.24,106.69,79.93,107.75,80.65Z" transform="translate(-12.31 -9.22)"/><path class="cls-2" d="M87.55,122.54a2,2,0,0,1-1.05-1.49,1.67,1.67,0,0,1,2.22-.8h0a1,1,0,0,1,.67,1.16C89.24,122.51,88.32,122.4,87.55,122.54Z" transform="translate(-12.31 -9.22)"/><path class="cls-3" d="M127.66,53c-.49-.79-1.11-1.62.06-2.32a1,1,0,0,1,1.49.47c.56,1.16-.2,1.66-1.15,2A.73.73,0,0,1,127.66,53Z" transform="translate(-12.31 -9.22)"/><path class="cls-2" d="M90.62,145.2a2.51,2.51,0,0,1,2.11,0c.23.87.3,1.77-.89,1.86C90.47,147.14,90.55,146.14,90.62,145.2Z" transform="translate(-12.31 -9.22)"/><path class="cls-7" d="M82.07,93.05c-.08,1-.4,2,.18,2.93l-1.82.63L80,96.23C80.19,94.84,80.2,93.34,82.07,93.05Z" transform="translate(-12.31 -9.22)"/><path class="cls-7" d="M124.24,61.14c.82.1.79.7.79,1.27s-.22,1.17-1,1a1.06,1.06,0,0,1-.92-1.19v0A1.11,1.11,0,0,1,124.24,61.14Z" transform="translate(-12.31 -9.22)"/><path class="cls-15" d="M77,101.78a5.36,5.36,0,0,0,3.92-1.44c.37,1.27-.87,1.51-1.4,2.2C78.68,102.35,77.55,103.06,77,101.78Z" transform="translate(-12.31 -9.22)"/><path class="cls-14" d="M92.55,101.14,90,100.33a1,1,0,0,1,1-.76C91.69,99.94,92.61,100.05,92.55,101.14Z" transform="translate(-12.31 -9.22)"/><path class="cls-14" d="M88.35,87l.18,2.54-1-.54C87.66,88.28,87.25,87.35,88.35,87Z" transform="translate(-12.31 -9.22)"/><path class="cls-7" d="M92.43,105.33l.59-.78a.93.93,0,0,1,1,1C93.4,106.3,92.88,106.08,92.43,105.33Z" transform="translate(-12.31 -9.22)"/><path class="cls-14" d="M86.73,105.14l-.34-1.45,1-.11.66,1.48Z" transform="translate(-12.31 -9.22)"/><path class="cls-14" d="M85,75.37a.93.93,0,0,1,1-.8l.56.67Z" transform="translate(-12.31 -9.22)"/><path class="cls-14" d="M130.08,107.9l-1.58-.12C129.11,106.75,129.63,106.8,130.08,107.9Z" transform="translate(-12.31 -9.22)"/><path class="cls-15" d="M90.92,111.59l-.2-1.53C91.19,110.51,92,110.93,90.92,111.59Z" transform="translate(-12.31 -9.22)"/><path class="cls-14" d="M90,92.14l1.12.25L91,93a.91.91,0,0,1-1-.77A.9.9,0,0,1,90,92.14Z" transform="translate(-12.31 -9.22)"/><path class="cls-10" d="M142.61,106.14l-1,.63c0-.36-.14-.78.27-1S142.43,106,142.61,106.14Z" transform="translate(-12.31 -9.22)"/><path class="cls-6" d="M90.06,141.28c-.09.58-.48.76-1,.77v-.78Z" transform="translate(-12.31 -9.22)"/><path class="cls-14" d="M89,77.56a1,1,0,0,1-.45-1C89.24,76.65,89.78,76.82,89,77.56Z" transform="translate(-12.31 -9.22)"/><path class="cls-14" d="M84.49,106.28l.63.15-.28.37Z" transform="translate(-12.31 -9.22)"/><path class="cls-7" d="M103.09,98.94c.42.25.42.51,0,.79Z" transform="translate(-12.31 -9.22)"/><path class="cls-7" d="M89.55,148.53c-.29,0-.45-.14-.39-.46Z" transform="translate(-12.31 -9.22)"/><path class="cls-2" d="M96.5,167.88A1.12,1.12,0,0,1,95.41,169l-.24,0c-.83,0-1.54-.32-1.53-1.26,0-.78.58-1.13,1.35-1.15a1.3,1.3,0,0,1,1.51,1.28Z" transform="translate(-12.31 -9.22)"/><path class="cls-6" d="M96.55,157.58c.76,0,1.35.34,1.39,1.1a1.47,1.47,0,0,1-1.28,1.64h-.15c-.82,0-1-.74-1-1.42S95.7,157.6,96.55,157.58Z" transform="translate(-12.31 -9.22)"/><path class="cls-6" d="M93.05,139.55a1,1,0,0,1-1,.51,1.1,1.1,0,0,1,.45-1Z" transform="translate(-12.31 -9.22)"/><path class="cls-11" d="M81.05,75.14l-.5,3.44c.24.82-1.49,2,.5,2.5,1.51,1,1.82-.06,2.09-1.2a6,6,0,0,0,2.35,1.46l.09.73c-.61.35-.52,1-.54,1.51-3.39.65-6,2.82-8.5,4.88C74.62,90,71.8,90.74,71,93.58a5.21,5.21,0,0,0-4,2.5c-1.27.56-1.54,1.72-1.72,2.92l-1.78-.64-.5-.61-.49.62a5.58,5.58,0,0,0-2.89,2.25c-1.49.53-3.16.22-4.61,1-1.09-3-.6-4.24,1.91-5.72C62.71,92.5,68.43,89,74.15,85.56c.55-.33,1.28-.68,1.14-1.45s-1-.42-1.47-.62c-2.55-1-3-2.74-1.07-4.78a12.33,12.33,0,0,0,2.81-3.09c1.67.19,3.08-.8,4.64-1.06Z" transform="translate(-12.31 -9.22)"/><path class="cls-13" d="M59.66,100.59a5.58,5.58,0,0,1,2.89-2.25h1l1.78.64c1.1,1.36,1.73,2.82.9,4.55s-2.45,2-4.17,2A4.26,4.26,0,0,1,59.66,100.59Z" transform="translate(-12.31 -9.22)"/><path class="cls-7" d="M59.66,100.59a4.26,4.26,0,0,0,2.39,4.92c-.53,3.11-2.35,4-6,3l.55-.93c1.85-2.55,1.46-3.76-1.52-4.73v-1.32C56.55,100.81,58.17,101.14,59.66,100.59Z" transform="translate(-12.31 -9.22)"/><path class="cls-13" d="M50.16,111.08c-.92,1.44-2.17,2.26-3.92,1.81a2.64,2.64,0,0,1-2.09-2.45,3.3,3.3,0,0,1,2.36-3.59C49.79,107.29,50.07,107.61,50.16,111.08Z" transform="translate(-12.31 -9.22)"/><path class="cls-7" d="M67.05,96.05a5.21,5.21,0,0,1,4-2.5,1.61,1.61,0,0,0,2.09.91l.19-.09c1.67-.7,2.67-.06,3.31,1.47l-1.33,1.34c-1-.15-1.83-.8-2.87-.58-1-.62-1.85-.65-2.53.45C68.75,97.31,68.24,95.7,67.05,96.05Z" transform="translate(-12.31 -9.22)"/><path class="cls-13" d="M55.05,102.87c3,1,3.37,2.18,1.52,4.73l-2.05.14C52.24,105.63,52.37,104.5,55.05,102.87Z" transform="translate(-12.31 -9.22)"/><path class="cls-13" d="M75.46,70.56c.18-2.2,1.16-3.42,3.56-2.93l1.37,1.86c-.43,2.12-1.68,3-3.83,2.52L76,71.58Z" transform="translate(-12.31 -9.22)"/><path class="cls-13" d="M39.06,114.31l-1.51-.17a4.73,4.73,0,0,1-1-2.6l.17-.71.84-.81a1.09,1.09,0,0,0,1-.5c1.41-.06,2.51.4,2.7,2S40.55,113.93,39.06,114.31Z" transform="translate(-12.31 -9.22)"/><path class="cls-2" d="M30.89,108.63c1,1.2,1.56,2.46-.14,3.45-1.12.65-2.51.74-3.28-.52-1-1.69.28-2.5,1.59-3.17Z" transform="translate(-12.31 -9.22)"/><path class="cls-6" d="M76,71.57l.59.43c.8,2.39,2.35,0,3.45.54l.18,1.94c-1.57.26-3,1.25-4.64,1.06C75,74.14,74.41,72.74,76,71.57Z" transform="translate(-12.31 -9.22)"/><path class="cls-15" d="M72.44,96.6c1-.22,1.9.43,2.87.58l-.2,2.85a4.34,4.34,0,0,0-2.56.51A2.45,2.45,0,0,1,70,99l.1-.63C71.75,98.9,72.76,98.6,72.44,96.6Z" transform="translate(-12.31 -9.22)"/><path class="cls-13" d="M23.09,105a2.61,2.61,0,0,1,0,1.9,2,2,0,0,1-2.18,1.2,1.65,1.65,0,0,1-1.55-1.35,1.75,1.75,0,0,1,1.23-2.11,8.2,8.2,0,0,1,1.43-.29Z" transform="translate(-12.31 -9.22)"/><path class="cls-14" d="M50.16,111.08c-.1-3.46-.37-3.78-3.66-4.23,1.42-1.7,3.13-.68,4,.23a2.58,2.58,0,0,1-.34,4Z" transform="translate(-12.31 -9.22)"/><path class="cls-2" d="M72.44,96.6c.32,2-.69,2.29-2.31,1.81L69.91,97C70.55,96,71.46,96,72.44,96.6Z" transform="translate(-12.31 -9.22)"/><path class="cls-7" d="M70,99.05a2.45,2.45,0,0,0,2.52,1.5c-.76,1.38-1.66,1.17-2.55.18C69.55,100.21,68.33,99.57,70,99.05Z" transform="translate(-12.31 -9.22)"/><path class="cls-14" d="M54.55,107.74l2.05-.14-.55.93C55.38,108.52,54.7,108.61,54.55,107.74Z" transform="translate(-12.31 -9.22)"/><path class="cls-14" d="M38.55,109.53a1.09,1.09,0,0,1-1,.5C37.63,109.37,37.77,108.81,38.55,109.53Z" transform="translate(-12.31 -9.22)"/><path class="cls-2" d="M88,15.06c.6,1.15.94,2.29-.17,3.34a1.86,1.86,0,0,1-2.25.37c-1.34-.66-1.52-1.79-1.23-3.1A2.66,2.66,0,0,1,88,15.06Z" transform="translate(-12.31 -9.22)"/><path class="cls-2" d="M78.28,58.68l.77-.16a2.62,2.62,0,0,1,2,2,2.75,2.75,0,0,1-1.56,2.37C76.8,62.09,76.46,61,78.28,58.68Z" transform="translate(-12.31 -9.22)"/><path class="cls-2" d="M89.27,39.14c-1,.45-1.58,2.35-3,.75a1.84,1.84,0,0,1-.15-2.6l.08-.08c1.19-1.24,2.2-.6,3.13.42Q89.3,38.37,89.27,39.14Z" transform="translate(-12.31 -9.22)"/><path class="cls-2" d="M80.19,74.49,80,72.55l1-1.08a3,3,0,0,1,2.4.63c.51,2-.55,2.82-2.38,3Z" transform="translate(-12.31 -9.22)"/><path class="cls-14" d="M81,71.46l-1,1.08c-1.09-.54-2.64,1.85-3.45-.54,2.14.48,3.39-.4,3.83-2.52C81.45,69.88,80.41,70.94,81,71.46Z" transform="translate(-12.31 -9.22)"/><path class="cls-2" d="M91,31.08a2.1,2.1,0,0,1-2.18,2h-.18a1.88,1.88,0,0,1-1.89-2.16,2,2,0,0,1,2-2.09l.3,0C90.28,29,90.86,29.85,91,31.08Z" transform="translate(-12.31 -9.22)"/><path class="cls-13" d="M84.55,48.14a2,2,0,0,1-2.06-1.94v-.06a1.87,1.87,0,0,1,2-2.07,1.78,1.78,0,0,1,2,2,1.94,1.94,0,0,1-1.75,2.11Z" transform="translate(-12.31 -9.22)"/><path class="cls-2" d="M84,53a1.7,1.7,0,0,1-1.79,1.38,1.83,1.83,0,1,1,.07-3.66h0C83.45,50.8,84,51.6,84,53Z" transform="translate(-12.31 -9.22)"/><path class="cls-1" d="M89.35,25.69a2.33,2.33,0,0,1,0-1.79C90.12,24.5,90.14,25.14,89.35,25.69Z" transform="translate(-12.31 -9.22)"/><path class="cls-2" d="M120.29,54.14a2.62,2.62,0,0,1-.86,3.06,2.21,2.21,0,0,1-3-1.39,1.81,1.81,0,0,1,.81-2.15C118.41,52.74,119.39,53.27,120.29,54.14Z" transform="translate(-12.31 -9.22)"/><path class="cls-2" d="M122.3,49.14c-.19,1-.83,1.74-1.88,1.6s-2-.57-1.87-1.9,1-1.32,2-1.34a1.51,1.51,0,0,1,1.75,1.64Z" transform="translate(-12.31 -9.22)"/><path class="cls-13" d="M125.55,40.56c1,2.47.68,3.06-1.85,3.17C122.25,41.34,122.68,40.59,125.55,40.56Z" transform="translate(-12.31 -9.22)"/><path class="cls-2" d="M119,83.48c-2.7-.66-3-1.5-1.15-3.7,1.07-.08,2,.14,2.37,1.29S119.89,82.89,119,83.48Z" transform="translate(-12.31 -9.22)"/><path class="cls-2" d="M121.07,77c0-1.81.71-2.39,2.38-1.47C123.62,77.63,122.69,77.89,121.07,77Z" transform="translate(-12.31 -9.22)"/><path class="cls-6" d="M133,40l-.48,1.52a9.36,9.36,0,0,1-3.5.5c-1.59-3.22-1.12-4.39,2-5a2.13,2.13,0,0,1-.76,1.5c-.5.49-.89,1-.27,1.69s1.13.89,1.89.23A3.7,3.7,0,0,1,133,40Z" transform="translate(-12.31 -9.22)"/><path class="cls-6" d="M125.05,48.55c0-3.56.45-4.22,3-4.5C127.85,46.08,127.83,48.24,125.05,48.55Z" transform="translate(-12.31 -9.22)"/><path class="cls-6" d="M132,44.93a1.16,1.16,0,0,1-1.29,1l-.11,0c-.54-.09-1.06-.52-.81-1s.7-1.23,1.45-1.18C131.77,43.82,132,44.34,132,44.93Z" transform="translate(-12.31 -9.22)"/><path class="cls-14" d="M36.55,111.54a4.73,4.73,0,0,0,1,2.6c-.82,1.36-1.89.94-3,.4C34.67,113.14,34.82,111.85,36.55,111.54Z" transform="translate(-12.31 -9.22)"/><path class="cls-6" d="M138.06,33.57a1.85,1.85,0,0,1-2.74,1.26c-1.33-.57-2.45-1.54-2.24-3.24a2.51,2.51,0,0,1,2.39-2.45c1.07,0,2.86-1.06,3.09,1.25l-1.48.29c-.89-1.22-1.53-.3-2.17.28-.47.43-1.09.94-.47,1.65s.92,1.42,1.94,1.24Z" transform="translate(-12.31 -9.22)"/><path class="cls-14" d="M133,40a3.7,3.7,0,0,0-1.12.45c-.76.66-1.31.42-1.89-.23s-.23-1.2.27-1.69a2.13,2.13,0,0,0,.76-1.5,1.75,1.75,0,0,1,2.45.17C134.73,38.45,133.14,39.14,133,40Z" transform="translate(-12.31 -9.22)"/><path class="cls-15" d="M138.06,33.57l-1.67.28c-1,.18-1.43-.66-1.94-1.24s0-1.21.47-1.65c.64-.58,1.28-1.5,2.17-.28-.76,1.27-.42,2.1,1,2.5A2.61,2.61,0,0,1,138.06,33.57Z" transform="translate(-12.31 -9.22)"/><path class="cls-2" d="M138.07,33.14c-1.41-.41-1.76-1.24-1-2.5l1.48-.29C139.8,31.57,139.66,32.5,138.07,33.14Z" transform="translate(-12.31 -9.22)"/><path class="cls-2" d="M143.55,28.14l.81.5c.2.89.15,1.68-.94,1.91a1,1,0,0,1-1.3-.79C142,28.68,142.62,28.23,143.55,28.14Z" transform="translate(-12.31 -9.22)"/><path class="cls-2" d="M101.73,107.14c-.82,1-1.78,1.49-2.9.47a1.48,1.48,0,0,1,0-2.37c1.28-1.14,2.21-.46,2.91.8Z" transform="translate(-12.31 -9.22)"/><path class="cls-14" d="M101.73,107.14V106h2.58l.77,1.5C103.94,107.82,102.89,107,101.73,107.14Z" transform="translate(-12.31 -9.22)"/><path class="cls-8" d="M76.64,95.85C76,94.31,75,93.67,73.33,94.38A1.61,1.61,0,0,1,71,93.56c.75-2.84,3.58-3.55,5.5-5.12,2.53-2.06,5.12-4.23,8.5-4.88,2,.56,2.13,1.77,1.52,3.57s-2.84,2.53-3,4.6l-1.48,1.34c-1.87.29-1.89,1.8-2.08,3.18a.68.68,0,0,1-.44-.2C78.81,95,78,94.55,77,95.84l-.18.07Z" transform="translate(-12.31 -9.22)"/><path class="cls-14" d="M85.55,82l-.09-.73h1.1A.93.93,0,0,1,85.55,82Z" transform="translate(-12.31 -9.22)"/><path class="cls-14" d="M92.11,91.57c.29-.93,1.24-1.1,1.87-1.62C94.06,91.29,93.2,91.57,92.11,91.57Z" transform="translate(-12.31 -9.22)"/><path class="cls-15" d="M77,95.83c1-1.3,1.78-.87,2.54.21Z" transform="translate(-12.31 -9.22)"/><path class="cls-12" d="M81.05,81.05c-2-.47-.26-1.68-.5-2.5h2.26l.22,1C81.85,79.37,81.42,80.14,81.05,81.05Z" transform="translate(-12.31 -9.22)"/><path class="cls-7" d="M81.05,81.05c.37-.88.8-1.68,2-1.5a.23.23,0,0,1,.12.3C82.87,81,82.55,82.06,81.05,81.05Z" transform="translate(-12.31 -9.22)"/><path class="cls-7" d="M63.55,98.33h-1l.49-.62Z" transform="translate(-12.31 -9.22)"/></svg>