<svg id="Ebene_1" data-name="Ebene 1" xmlns="http://www.w3.org/2000/svg" viewBox="0 0 151.22 176.02"><defs><style>.cls-1{fill:#f2602d;}.cls-2{fill:#3d190e;}</style></defs><title>starfish_orange</title><path class="cls-1" d="M1192.94,392.06c-.31,1.73-.72,3.42-2.43,4.38-.86.07-1,.84-1.24,1.41a57.89,57.89,0,0,0-5.25,19.88,20.5,20.5,0,0,0,4.29,14c2.23,3.06,4.2,6,5.05,9.83s5.06,6.66,8.11,6.06c3.63-.71,8.05-5.58,8.48-9.33.11-1,.31-2,.39-3,.15-1.79,1.25-2.38,2.86-2.44a6.26,6.26,0,0,1,6.33,5.51,24.17,24.17,0,0,1-.91,10.86c-.85,2.73-2.28,5.37-4.65,6.9-9.85,6.32-20.61,6.57-31.64,4-4.62-1.05-9.24-1.86-14-1.29-2.55.31-3.94,1.88-3.39,3.82l-.5,1c-1.14-.13-1.54.66-2,1.5a27.74,27.74,0,0,0-2.93,15.47c.24,3.63.7,7.31.61,10.88-.1,3.92-1.31,7.8-1.07,11.84.42,7-1.64,13.76-2.59,20.63a15.69,15.69,0,0,1-2.09,5.31c-1.23,2.18-3,2.16-4.53.18a4.82,4.82,0,0,1-1.28-3.15,44.42,44.42,0,0,1,.63-7.68,33.89,33.89,0,0,0-1.65-21.63c-1.69-4-4.18-7.46-5.86-11.43a20.37,20.37,0,0,1-1.76-6.39c-.51-6.45.13-12.92-.45-19.36-.29-3.17-.61-6.22-3.35-8.41-1.06-.85-2-1.86-3.51-1.48-4.08,1-8.3,1.64-11.74,4.46a29.73,29.73,0,0,1-5.22,3.41c-4.55,2.34-9.67,3-14.44,4.7-2.72,1-5.48,2.19-8.45,1.77a61,61,0,0,1-13.11-3.56c-4.73-1.8-8.8-7-8.62-12,.16-4.42,1.55-8.49,5.64-11,1.32-.82,3.23-.72,3.16.78-.15,3.15,1.48,4.2,4,4.91a2.3,2.3,0,0,1,1.12,1c1.77,2.73,4.07,3.54,7.47,3.71,6,.31,10.72-2.12,15.61-4.72l-.06,0a6.89,6.89,0,0,0,2.16-.41c4.16-2.37,8.33-4.74,11.39-8.58l0,0,.53-.54,0,0c.45-.21.43-.65.52-1l0,0a8,8,0,0,0,2.5-3,73.15,73.15,0,0,0,5.65-13.4,96.24,96.24,0,0,0,5.06-21c.07-.65,0-1.16-.77-1.28.41-3.58,1-7.09,3.1-10.16.52.15.7,0,.89-.58,1-3.33,1.69-6.77,3.26-10a10.85,10.85,0,0,0,1.61.66,2.52,2.52,0,0,0,3.11-1.43,2.39,2.39,0,0,0-.56-3,2.28,2.28,0,0,0-3.37-.24c-1.79,1.86-2.21.56-2.77-.91-.27-.7-.7-1.33-1-2-1.42-3.79.62-8.09,4.26-9.07a10.47,10.47,0,0,1,13.41,9.71c.26,5.34-1.79,10.17-4.6,14.51a13.56,13.56,0,0,0-2.31,9.66c.48,3.37.75,6.76,1.09,10.14a9.12,9.12,0,0,0,5.28,7.39c.62.32,1.28.71,1.41-.47.31.1.62.19.92.31,6.15,2.48,8.27,1.17,11.07-3.84,1.17.17,1.12-.86,1.4-1.49a254.42,254.42,0,0,1,16.5-30.61c.39-.62,1-1.14.82-2l0,0c.66-.17.26-.47.09-.74a6,6,0,0,1,3.35-3.46c.93-.44,2.1-.45,2.64-1.64.18-.4,1-.67,1.26-.14,1.12,2.75,3.44,1.77,5.35,1.72a5.22,5.22,0,0,1,4.62,1.79,3.37,3.37,0,0,0,.92,2c3.1,3.87,2.67,6-1.92,7.94-5.84,2.44-10.25,6.19-12.92,12C1191,392.11,1191.9,392,1192.94,392.06ZM1117,448.69a3.63,3.63,0,0,0,3.29,3.68,3.48,3.48,0,0,0,3.77-3.42,3.33,3.33,0,0,0-3.24-3.63A3.47,3.47,0,0,0,1117,448.69Zm34.92-13.83a3,3,0,0,0-3.24-3,2.73,2.73,0,0,0-2.84,3.06c.12,1.68.68,3.48,2.46,4.13C1149.33,439.4,1151.94,436.19,1151.92,434.86Zm-47.15,25.07c1.69-.33,2.93-1.26,2.91-3.28a2.58,2.58,0,0,0-3-2.87,3,3,0,0,0-3.12,3.18C1101.58,458.87,1102.76,459.77,1104.77,459.93Zm40.79,1.09a2.77,2.77,0,0,0,2.62-3.08,2.74,2.74,0,0,0-3-2.92,2.93,2.93,0,0,0-3,3A3,3,0,0,0,1145.56,461Zm-10.09-12.37c1.81-.16,3-1.05,3-2.94a3,3,0,0,0-6-.07C1132.47,447.5,1133.65,448.46,1135.48,448.65Zm7.78-20.58c2-.07,3.16-1.13,3.16-2.94a2.69,2.69,0,0,0-2.79-2.9,2.77,2.77,0,0,0-3.16,2.79C1140.37,426.92,1141.58,427.85,1143.26,428.08Zm3.72,60a2.72,2.72,0,0,0,2.9-2.75,2.84,2.84,0,0,0-5.68-.21C1144.12,486.79,1145.15,487.84,1147,488ZM1142.09,444a2.66,2.66,0,0,0,2.76-2.76,2.51,2.51,0,0,0-2.63-2.69,2.56,2.56,0,0,0-2.87,2.72C1139.34,442.86,1140.33,443.79,1142.09,444Zm8.51,6c-.23-1.73-1.15-2.77-2.94-2.66a2.77,2.77,0,0,0,.16,5.53A2.7,2.7,0,0,0,1150.6,450Zm38.53,7.16a2.37,2.37,0,0,0-2.75-2.36,2.28,2.28,0,0,0-2.42,2.57,2.47,2.47,0,0,0,2.77,2.55A2.38,2.38,0,0,0,1189.13,457.13ZM1164,454.87c2.21.2,2.86-1,2.93-2.37a2.36,2.36,0,0,0-2.47-2.54c-1.63-.09-2.4,1-2.49,2.48A2.19,2.19,0,0,0,1164,454.87Zm-5.63,7.08c1.54-.11,2.56-.88,2.58-2.43a2.45,2.45,0,1,0-2.58,2.43Zm13.92-5.64a2.35,2.35,0,0,0,2.18-2.59,2,2,0,0,0-2.35-2,2.17,2.17,0,0,0-2.22,2.25C1169.86,455.42,1170.84,456.14,1172.24,456.31Zm39.26-2.19a2.09,2.09,0,0,0-2.28-2.14,2.06,2.06,0,0,0-2.08,2.33,1.94,1.94,0,0,0,2.12,2A2.1,2.1,0,0,0,1211.5,454.12Zm-96.34-1.79c-.1-1.45-.79-2.42-2.28-2.43a2.2,2.2,0,0,0-2.45,2.25,2.14,2.14,0,0,0,2.26,2.41A2.24,2.24,0,0,0,1115.16,452.34ZM1144,365.86a2.13,2.13,0,0,0,2-2.36,2,2,0,0,0-2.33-2,2,2,0,0,0-1.93,2.17C1141.74,365,1142.63,365.71,1144,365.86Zm-57.31,93.45c1.38-.06,2.5-.5,2.56-1.93s-1-2-2.3-2a2.1,2.1,0,0,0-2.34,2.08C1084.56,458.81,1085.56,459.25,1086.68,459.32Zm48.73-45c-1.49.21-2.41,1-2.38,2.42a2.31,2.31,0,1,0,4.63,0A2.45,2.45,0,0,0,1135.41,414.3Zm27.07,14.06a2.08,2.08,0,0,0-2.35-1.94,1.93,1.93,0,0,0-2,2.08,2,2,0,0,0,2.22,2.16A2.06,2.06,0,0,0,1162.48,428.36Zm-14.06-50.44c-.13-1.24-.72-2.13-2-2.21a2.05,2.05,0,0,0-2.28,2.1,1.88,1.88,0,0,0,1.92,2.14A2.1,2.1,0,0,0,1148.42,377.92Zm-49.66,80.89c-.07-1.35-.67-2.32-2-2.35a2.51,2.51,0,0,0-2.67,2.39,1.89,1.89,0,0,0,2,2.24A2.39,2.39,0,0,0,1098.77,458.81Zm72.31-30.36a1.88,1.88,0,0,0-2.12,1.94,1.92,1.92,0,0,0,2.08,2.24,2,2,0,0,0,2.16-2.22A1.93,1.93,0,0,0,1171.08,428.45Zm6.84-26.29c-.1-1.18-.67-2.05-1.95-2.08a2,2,0,0,0-2.15,1.94,1.89,1.89,0,0,0,2,2.09A1.94,1.94,0,0,0,1177.92,402.16Zm-41.48,3.34c-1.2.26-1.95,1-1.82,2.22s.78,2.06,2.09,1.92a1.84,1.84,0,0,0,1.7-2.06A2,2,0,0,0,1136.44,405.5ZM1142,395a2,2,0,0,0,2-2.08,2,2,0,1,0-4,0A2,2,0,0,0,1142,395Zm15.1,26.42a1.76,1.76,0,0,0,.39,3.5,1.67,1.67,0,0,0,1.72-2C1159.08,421.89,1158.36,421.39,1157.09,421.42Zm-76.27,31.5a1.77,1.77,0,0,0-2.08-1.58c-1.2.12-2,.79-2,2.07a1.73,1.73,0,0,0,2.05,1.63C1080.13,455,1080.64,454.11,1080.82,452.93Zm83.67-6.61c-.29-.94-.8-1.8-2-1.64-1,.13-1.78.59-1.65,1.91s.63,1.94,1.8,1.83S1164.31,447.51,1164.49,446.32ZM1176,426.7a1.75,1.75,0,0,0-1.71,1.8,1.58,1.58,0,0,0,1.69,1.74,1.63,1.63,0,0,0,1.82-1.86A1.71,1.71,0,0,0,1176,426.7Zm-30.85-43.31c-1.14.12-1.93.69-1.9,1.86,0,.91.37,2,1.43,2,1.23.06,1.86-1,2-2.06S1146.07,383.62,1145.1,383.38Zm-5.41,14.18a1.92,1.92,0,0,0-1.74,2,1.55,1.55,0,0,0,1.73,1.66,1.65,1.65,0,0,0,1.74-1.67A1.82,1.82,0,0,0,1139.69,397.57Zm60.89,59c1-.15,1.83-.59,1.85-1.7a1.64,1.64,0,0,0-1.67-1.8,1.57,1.57,0,0,0-1.78,1.65A1.71,1.71,0,0,0,1200.58,456.6ZM1178,394.42c-1,0-1.88.12-1.94,1.38s.92,1.74,1.92,1.84a1.57,1.57,0,0,0,1.8-1.65C1179.76,394.87,1179.06,394.36,1178,394.42ZM1141,420c-.13-1-.66-1.69-1.75-1.62a1.73,1.73,0,0,0-1.75,2c0,.93.47,1.6,1.54,1.49A1.87,1.87,0,0,0,1141,420Zm24.63,7.65a1.68,1.68,0,0,0-1.58,1.62,1.41,1.41,0,0,0,1.49,1.61,1.54,1.54,0,0,0,1.73-1.68A1.57,1.57,0,0,0,1165.64,427.62ZM1157.42,455a1.71,1.71,0,1,0-1.64-1.81C1155.7,454.25,1156.4,454.82,1157.42,455ZM1182,390.73a1.74,1.74,0,0,0,1.52-1.93,1.46,1.46,0,0,0-1.68-1.46,1.56,1.56,0,0,0-1.6,1.6C1180.27,390,1181,390.58,1182,390.73Zm-.4,64.73a1.52,1.52,0,0,0-1.52-1.49,1.41,1.41,0,0,0-1.6,1.48,1.51,1.51,0,0,0,1.62,1.74C1181.06,457.17,1181.6,456.56,1181.63,455.46Zm11.16,3.42a1.63,1.63,0,0,0,1.7-1.46,1.5,1.5,0,0,0-1.57-1.82,1.46,1.46,0,0,0-1.58,1.56A1.54,1.54,0,0,0,1192.79,458.89Zm23.06-20.45a1.36,1.36,0,0,0,1.37-1.45,1.35,1.35,0,0,0-1.41-1.42,1.37,1.37,0,0,0-1.49,1.58A1.33,1.33,0,0,0,1215.84,438.44Zm-71.78,13.23a1.45,1.45,0,0,0-1.41-1.44,1.39,1.39,0,0,0-1.62,1.43,1.28,1.28,0,0,0,1.36,1.4A1.46,1.46,0,0,0,1144.07,451.67Zm1.62,24a1.34,1.34,0,0,0-1.2,1.55c0,.62.29,1.1,1,1.06s1.39-.48,1.38-1.36A1.2,1.2,0,0,0,1145.69,475.66Zm6.95,40.22c.78,0,1.33-.32,1.29-1.16s-.63-1.29-1.52-1.26-1.34.39-1.33,1.17C1151.09,515.57,1151.81,515.84,1152.64,515.88Zm-7.11-48.9c-.74,0-1.36.26-1.42,1-.07,1,.61,1.26,1.45,1.26s1.31-.37,1.3-1.16S1146.3,467,1145.53,467Zm51.26-88.64a1.25,1.25,0,0,0-1.39-1,1.28,1.28,0,0,0-1.29,1.27,1.16,1.16,0,0,0,1.25,1.26C1196.28,379.93,1196.67,379.34,1196.78,378.34ZM1128.72,443a1.3,1.3,0,0,0-1.22,1.31,1.07,1.07,0,0,0,1.25,1.17,1.12,1.12,0,0,0,1.23-1.23A1.24,1.24,0,0,0,1128.72,443Zm73.17-66.95a1.09,1.09,0,0,0-1.17-1,1.17,1.17,0,0,0-1.16,1.32,1,1,0,0,0,1.14,1A1.15,1.15,0,0,0,1201.89,376.1Zm12.22,74.83c.66,0,1.24-.3,1.32-1.09a1.14,1.14,0,0,0-1.09-1.35,1.12,1.12,0,0,0-1.34,1.08C1212.9,450.35,1213.28,450.81,1214.11,450.93Zm-33.19-27.76c-.11-.71-.46-1.23-1.29-1.15a1.16,1.16,0,1,0,.21,2.31C1180.54,424.3,1180.88,423.87,1180.93,423.17Zm4.74-25.65a1,1,0,0,0-1.07,1.08,1,1,0,0,0,1.07,1.1,1,1,0,0,0,1.09-1.09A1.08,1.08,0,0,0,1185.67,397.53Zm-35.42,95.39a1,1,0,0,0-1.08-1.07,1,1,0,1,0-.07,2.08A1,1,0,0,0,1150.24,492.91Z" transform="translate(-1069.73 -356.24)"/><path class="cls-2" d="M1108,443.37c-4.88,2.61-9.65,5-15.61,4.72-3.4-.18-5.7-1-7.47-3.71a2.3,2.3,0,0,0-1.12-1c-2.5-.71-4.12-1.75-4-4.91.07-1.51-1.83-1.6-3.16-.78-4.09,2.53-5.48,6.6-5.64,11-.18,5,3.89,10.24,8.62,12a61,61,0,0,0,13.11,3.56c3,.42,5.73-.8,8.45-1.77,4.78-1.7,9.9-2.36,14.44-4.7a29.73,29.73,0,0,0,5.22-3.41c3.44-2.82,7.67-3.42,11.74-4.46,1.48-.38,2.45.64,3.51,1.48,2.74,2.19,3.07,5.24,3.35,8.41.58,6.45-.06,12.92.45,19.36a20.37,20.37,0,0,0,1.76,6.39c1.68,4,4.17,7.48,5.86,11.43a33.89,33.89,0,0,1,1.65,21.63,44.42,44.42,0,0,0-.63,7.68,4.82,4.82,0,0,0,1.28,3.15c1.53,2,3.3,2,4.53-.18a15.69,15.69,0,0,0,2.09-5.31c.94-6.87,3-13.61,2.59-20.63-.24-4,1-7.92,1.07-11.84.09-3.57-.36-7.25-.61-10.88a27.74,27.74,0,0,1,2.93-15.47c.45-.84.85-1.62,2-1.5-1.56,6.18-3.16,12.33-3.51,18.76-.24,4.42,1.32,8.77.4,13.15-1.46,7-1.09,14.15-2.7,21.13-.83,3.59-1.16,7.33-2.32,10.86-.68,2.07-1.65,4-4.09,4.59l0-.14,0,.13c-2.75-.3-3.92-2.09-4.47-4.58-.7-3.12-.16-6.12.59-9.13,1.85-7.38.46-14.44-2.09-21.38-1.4-3.81-4-7-5.45-10.8a19.6,19.6,0,0,1-1.72-5.67,98.35,98.35,0,0,1-.39-14.94,27,27,0,0,0-1.3-10.84c.08-.34,0-.54-.4-.53l0,0a.6.6,0,0,0-.57-.59.92.92,0,0,1-.34-.33c-1.2-2.1-1.36-2.2-3.19-2-4.25.1-7.82,2.11-11.3,4.22a72.89,72.89,0,0,1-25.06,9.33c-4.28.79-8.33-.4-12.51-1.05-5.48-.85-9-4.28-12.53-7.84a5.25,5.25,0,0,1-1.74-3.45,22.61,22.61,0,0,1,3.86-14.9c1-1.5,4.6-2.6,6.27-1.95a1.78,1.78,0,0,1,1.13,2.17c-.36,2.13.13,3.64,2.58,4.2,1.49.34,2.38,1.77,3.3,2.95a5,5,0,0,0,4,1.87,27,27,0,0,0,12.82-2.53A30.36,30.36,0,0,1,1108,443.37Z" transform="translate(-1069.73 -356.24)"/><path class="cls-2" d="M1165,462.72c-.55-1.95.84-3.51,3.39-3.82,4.76-.58,9.37.23,14,1.29,11,2.52,21.79,2.27,31.64-4,2.37-1.52,3.8-4.17,4.65-6.9a24.17,24.17,0,0,0,.91-10.86,6.26,6.26,0,0,0-6.33-5.51c-1.61.06-2.72.65-2.86,2.44-.08,1-.28,2-.39,3-.43,3.74-4.85,8.62-8.48,9.33-3.05.6-7.24-2.14-8.11-6.06s-2.82-6.77-5.05-9.83a20.5,20.5,0,0,1-4.29-14,57.89,57.89,0,0,1,5.25-19.88c.26-.57.38-1.34,1.24-1.41-1,2.87-2.2,5.68-3,8.56-2.83,9.55-4.33,19.07,2.83,27.7a13.37,13.37,0,0,1,3.43,7.35,7.05,7.05,0,0,0,5.93,6.28c2.73.32,6.55-1.92,8.06-4.75a10.93,10.93,0,0,0,1.34-5.21c0-3.47,1.94-5.14,5.25-4.51,2.59.49,4.79,1.84,5.69,4.54,3,9-1.14,21.27-11.55,24a79.73,79.73,0,0,1-14,2.83c-5.42.43-10.71-1.11-15.94-2.55-1.44-.4-2.93-.59-4.39-.88-.2-.36-.42-.41-.68,0-1.14-.06-2.27-.15-3.41-.16-1.88,0-3.63.22-4.1,2.54C1165.85,462.65,1165.29,462.53,1165,462.72Z" transform="translate(-1069.73 -356.24)"/><path class="cls-2" d="M1157.77,408.47c-.13,1.17-.79.79-1.41.47a9.12,9.12,0,0,1-5.28-7.39c-.33-3.38-.61-6.77-1.09-10.14a13.56,13.56,0,0,1,2.31-9.66c2.81-4.34,4.86-9.16,4.6-14.51a10.47,10.47,0,0,0-13.41-9.71c-3.65,1-5.68,5.27-4.26,9.07.26.7.69,1.33,1,2,.56,1.47,1,2.76,2.77.91a2.28,2.28,0,0,1,3.37.24,2.39,2.39,0,0,1,.56,3,2.52,2.52,0,0,1-3.11,1.43,10.85,10.85,0,0,1-1.61-.66c-1.57,3.21-2.24,6.66-3.26,10-.19.62-.36.73-.89.58.06-3,1.44-5.59,2.13-8.39a5.46,5.46,0,0,0-.62-4.64c-2.41-4-3-8-.37-12.22,1.09-1.75,2.38-2.81,4.57-2.49a10,10,0,0,0,3,0c8.77-1.43,13.5,9.21,10.56,16.95-1.46,3.85-3.26,7.54-4.75,11.36-1.83,4.7-.91,9.57-.69,14.43C1152.06,403.56,1154.53,406.15,1157.77,408.47Z" transform="translate(-1069.73 -356.24)"/><path class="cls-2" d="M1134.93,394.23c.78.12.83.63.77,1.28a96.24,96.24,0,0,1-5.06,21,73.15,73.15,0,0,1-5.65,13.4,8,8,0,0,1-2.5,3c-.39-.52.73-1.28-.28-1.7,4.43-5.47,6.58-11.88,8-18.66,1.05-5,2.39-9.93,3.85-14.82C1134.43,396.58,1134.08,395.25,1134.93,394.23Z" transform="translate(-1069.73 -356.24)"/><path class="cls-2" d="M1192.94,392.06c-1-.11-1.9,0-1.11-1.67,2.67-5.84,7.09-9.59,12.92-12,4.59-1.92,5-4.08,1.92-7.94a3.37,3.37,0,0,1-.92-2,6.57,6.57,0,0,1,3.73,8.08,3.52,3.52,0,0,1-1.8,2c-2.45,1.26-4.8,2.74-7.32,3.82-3,1.3-3.92,4.35-5.79,6.58C1193.84,389.76,1192.61,390.57,1192.94,392.06Z" transform="translate(-1069.73 -356.24)"/><path class="cls-2" d="M1188.48,370.86c.18.85-.43,1.37-.82,2a254.42,254.42,0,0,0-16.5,30.61c-.28.62-.23,1.66-1.4,1.49a30.77,30.77,0,0,1,3.45-8.42c4.31-7.22,7.61-15,12.16-22.11C1186.21,373.08,1186.79,371.47,1188.48,370.86Z" transform="translate(-1069.73 -356.24)"/><path class="cls-2" d="M1121.52,434.4c-3.06,3.84-7.24,6.2-11.39,8.58a6.89,6.89,0,0,1-2.16.41c3-3,7-4.66,10-7.68C1119.43,436,1120,434,1121.52,434.4Z" transform="translate(-1069.73 -356.24)"/><path class="cls-1" d="M1121.52,434.4c-1.48-.37-2.09,1.61-3.54,1.31a14.86,14.86,0,0,1,4.23-4.49c1,.42-.11,1.18.28,1.7l0,0c-.57.14-.71.51-.52,1l0,0c-.41-.05-.58.13-.53.54Z" transform="translate(-1069.73 -356.24)"/><path class="cls-1" d="M1132.93,451.5c1.83-.22,2-.12,3.19,2A8.82,8.82,0,0,1,1132.93,451.5Z" transform="translate(-1069.73 -356.24)"/><path class="cls-1" d="M1173.46,459.78c.25-.36.48-.31.68,0C1173.89,460.14,1173.67,460,1173.46,459.78Z" transform="translate(-1069.73 -356.24)"/><path class="cls-1" d="M1136.47,453.81a.6.6,0,0,1,.57.59A.62.62,0,0,1,1136.47,453.81Z" transform="translate(-1069.73 -356.24)"/><path class="cls-1" d="M1137,454.37c.39,0,.48.19.4.53Z" transform="translate(-1069.73 -356.24)"/><path class="cls-2" d="M1188.54,370.16c.17.27.57.57-.09.74Z" transform="translate(-1069.73 -356.24)"/><polygon class="cls-1" points="82.51 176.01 82.54 175.88 82.51 176.02 82.51 176.01"/><path class="cls-2" d="M1117,448.69a3.47,3.47,0,0,1,3.81-3.37,3.33,3.33,0,0,1,3.24,3.63,3.48,3.48,0,0,1-3.77,3.42A3.63,3.63,0,0,1,1117,448.69Z" transform="translate(-1069.73 -356.24)"/><path class="cls-2" d="M1151.92,434.86c0,1.33-2.59,4.54-3.62,4.17-1.77-.64-2.34-2.44-2.46-4.13a2.73,2.73,0,0,1,2.84-3.06A3,3,0,0,1,1151.92,434.86Z" transform="translate(-1069.73 -356.24)"/><path class="cls-2" d="M1104.77,459.93c-2-.16-3.2-1.06-3.2-3a3,3,0,0,1,3.12-3.18,2.58,2.58,0,0,1,3,2.87C1107.7,458.67,1106.46,459.6,1104.77,459.93Z" transform="translate(-1069.73 -356.24)"/><path class="cls-2" d="M1145.56,461a3,3,0,0,1-3.4-3,2.93,2.93,0,0,1,3-3,2.74,2.74,0,0,1,3,2.92A2.77,2.77,0,0,1,1145.56,461Z" transform="translate(-1069.73 -356.24)"/><path class="cls-2" d="M1135.48,448.65c-1.83-.19-3-1.15-3-3a3,3,0,0,1,6,.07C1138.5,447.6,1137.29,448.49,1135.48,448.65Z" transform="translate(-1069.73 -356.24)"/><path class="cls-2" d="M1143.26,428.08c-1.68-.23-2.89-1.16-2.79-3a2.77,2.77,0,0,1,3.16-2.79,2.69,2.69,0,0,1,2.79,2.9C1146.42,426.95,1145.29,428,1143.26,428.08Z" transform="translate(-1069.73 -356.24)"/><path class="cls-2" d="M1147,488c-1.83-.2-2.86-1.25-2.79-3a2.84,2.84,0,0,1,5.68.21A2.72,2.72,0,0,1,1147,488Z" transform="translate(-1069.73 -356.24)"/><path class="cls-2" d="M1142.09,444c-1.76-.19-2.76-1.11-2.74-2.73a2.56,2.56,0,0,1,2.87-2.72,2.51,2.51,0,0,1,2.63,2.69A2.66,2.66,0,0,1,1142.09,444Z" transform="translate(-1069.73 -356.24)"/><path class="cls-2" d="M1150.6,450a2.7,2.7,0,0,1-2.78,2.87,2.77,2.77,0,0,1-.16-5.53C1149.45,447.2,1150.37,448.24,1150.6,450Z" transform="translate(-1069.73 -356.24)"/><path class="cls-2" d="M1189.13,457.13a2.38,2.38,0,0,1-2.4,2.76,2.47,2.47,0,0,1-2.77-2.55,2.28,2.28,0,0,1,2.42-2.57A2.37,2.37,0,0,1,1189.13,457.13Z" transform="translate(-1069.73 -356.24)"/><path class="cls-2" d="M1164,454.87a2.19,2.19,0,0,1-2-2.43c.09-1.48.85-2.56,2.49-2.48a2.36,2.36,0,0,1,2.47,2.54C1166.82,453.88,1166.17,455.08,1164,454.87Z" transform="translate(-1069.73 -356.24)"/><path class="cls-2" d="M1158.33,462a2.47,2.47,0,1,1,2.58-2.43C1160.89,461.07,1159.86,461.85,1158.33,462Z" transform="translate(-1069.73 -356.24)"/><path class="cls-2" d="M1172.24,456.31c-1.41-.18-2.39-.9-2.38-2.38a2.17,2.17,0,0,1,2.22-2.25,2,2,0,0,1,2.35,2A2.35,2.35,0,0,1,1172.24,456.31Z" transform="translate(-1069.73 -356.24)"/><path class="cls-2" d="M1211.5,454.12a2.1,2.1,0,0,1-2.24,2.18,1.94,1.94,0,0,1-2.12-2,2.06,2.06,0,0,1,2.08-2.33A2.09,2.09,0,0,1,1211.5,454.12Z" transform="translate(-1069.73 -356.24)"/><path class="cls-2" d="M1115.16,452.34a2.24,2.24,0,0,1-2.46,2.23,2.14,2.14,0,0,1-2.26-2.41,2.2,2.2,0,0,1,2.45-2.25C1114.37,449.91,1115.06,450.89,1115.16,452.34Z" transform="translate(-1069.73 -356.24)"/><path class="cls-2" d="M1144,365.86c-1.36-.15-2.26-.86-2.26-2.2a2,2,0,0,1,1.93-2.17,2,2,0,0,1,2.33,2A2.13,2.13,0,0,1,1144,365.86Z" transform="translate(-1069.73 -356.24)"/><path class="cls-2" d="M1086.68,459.32c-1.12-.07-2.12-.5-2.08-1.87a2.1,2.1,0,0,1,2.34-2.08c1.35,0,2.36.59,2.3,2S1088.06,459.26,1086.68,459.32Z" transform="translate(-1069.73 -356.24)"/><path class="cls-2" d="M1135.41,414.3a2.45,2.45,0,0,1,2.25,2.43,2.31,2.31,0,1,1-4.63,0C1133,415.27,1133.92,414.51,1135.41,414.3Z" transform="translate(-1069.73 -356.24)"/><path class="cls-2" d="M1162.48,428.36a2.06,2.06,0,0,1-2.13,2.31,2,2,0,0,1-2.22-2.16,1.93,1.93,0,0,1,2-2.08A2.08,2.08,0,0,1,1162.48,428.36Z" transform="translate(-1069.73 -356.24)"/><path class="cls-2" d="M1148.42,377.92a2.1,2.1,0,0,1-2.33,2,1.88,1.88,0,0,1-1.92-2.14,2.05,2.05,0,0,1,2.28-2.1C1147.71,375.79,1148.29,376.68,1148.42,377.92Z" transform="translate(-1069.73 -356.24)"/><path class="cls-2" d="M1098.77,458.81a2.39,2.39,0,0,1-2.68,2.28,1.89,1.89,0,0,1-2-2.24,2.51,2.51,0,0,1,2.67-2.39C1098.1,456.49,1098.7,457.46,1098.77,458.81Z" transform="translate(-1069.73 -356.24)"/><path class="cls-2" d="M1171.08,428.45a1.93,1.93,0,0,1,2.11,2,2,2,0,0,1-2.16,2.22,1.92,1.92,0,0,1-2.08-2.24A1.88,1.88,0,0,1,1171.08,428.45Z" transform="translate(-1069.73 -356.24)"/><path class="cls-2" d="M1177.92,402.16a1.94,1.94,0,0,1-2.14,2,1.89,1.89,0,0,1-2-2.09,2,2,0,0,1,2.15-1.94C1177.25,400.11,1177.82,401,1177.92,402.16Z" transform="translate(-1069.73 -356.24)"/><path class="cls-2" d="M1136.44,405.5a2,2,0,0,1,2,2.08,1.84,1.84,0,0,1-1.7,2.06c-1.31.14-2-.74-2.09-1.92S1135.24,405.76,1136.44,405.5Z" transform="translate(-1069.73 -356.24)"/><path class="cls-2" d="M1142,395a2,2,0,0,1-2-2.07,2,2,0,1,1,4,0A2,2,0,0,1,1142,395Z" transform="translate(-1069.73 -356.24)"/><path class="cls-2" d="M1157.09,421.42c1.27,0,2,.46,2.11,1.52a1.67,1.67,0,0,1-1.72,2,1.76,1.76,0,0,1-.39-3.5Z" transform="translate(-1069.73 -356.24)"/><path class="cls-2" d="M1080.82,452.93c-.18,1.19-.69,2.06-2,2.12a1.73,1.73,0,0,1-2.05-1.63c-.08-1.27.75-1.94,2-2.07A1.77,1.77,0,0,1,1080.82,452.93Z" transform="translate(-1069.73 -356.24)"/><path class="cls-2" d="M1164.49,446.32c-.17,1.19-.77,2-1.85,2.1s-1.68-.65-1.8-1.83.64-1.78,1.65-1.91C1163.69,444.52,1164.19,445.38,1164.49,446.32Z" transform="translate(-1069.73 -356.24)"/><path class="cls-2" d="M1176,426.7a1.71,1.71,0,0,1,1.8,1.67,1.63,1.63,0,0,1-1.82,1.86,1.58,1.58,0,0,1-1.69-1.74A1.75,1.75,0,0,1,1176,426.7Z" transform="translate(-1069.73 -356.24)"/><path class="cls-2" d="M1145.1,383.38c1,.23,1.77.73,1.58,1.83s-.82,2.12-2,2.06c-1.06,0-1.41-1.13-1.43-2C1143.17,384.07,1144,383.5,1145.1,383.38Z" transform="translate(-1069.73 -356.24)"/><path class="cls-2" d="M1139.69,397.57a1.82,1.82,0,0,1,1.73,2,1.65,1.65,0,0,1-1.74,1.67,1.55,1.55,0,0,1-1.73-1.66A1.92,1.92,0,0,1,1139.69,397.57Z" transform="translate(-1069.73 -356.24)"/><path class="cls-2" d="M1200.58,456.6a1.71,1.71,0,0,1-1.59-1.84,1.57,1.57,0,0,1,1.78-1.65,1.64,1.64,0,0,1,1.67,1.8C1202.41,456,1201.62,456.45,1200.58,456.6Z" transform="translate(-1069.73 -356.24)"/><path class="cls-2" d="M1177.95,394.42c1.11-.06,1.81.45,1.77,1.57a1.57,1.57,0,0,1-1.8,1.65c-1-.1-2-.51-1.92-1.84S1177,394.4,1177.95,394.42Z" transform="translate(-1069.73 -356.24)"/><path class="cls-2" d="M1141,420a1.87,1.87,0,0,1-2,1.85c-1.07.1-1.5-.57-1.54-1.49a1.73,1.73,0,0,1,1.75-2C1140.35,418.28,1140.88,419,1141,420Z" transform="translate(-1069.73 -356.24)"/><path class="cls-2" d="M1165.64,427.62a1.57,1.57,0,0,1,1.64,1.55,1.54,1.54,0,0,1-1.73,1.68,1.41,1.41,0,0,1-1.49-1.61A1.68,1.68,0,0,1,1165.64,427.62Z" transform="translate(-1069.73 -356.24)"/><path class="cls-2" d="M1157.42,455c-1-.16-1.73-.73-1.64-1.81a1.56,1.56,0,0,1,1.82-1.61,1.71,1.71,0,0,1-.18,3.41Z" transform="translate(-1069.73 -356.24)"/><path class="cls-2" d="M1182,390.73c-1.08-.15-1.77-.73-1.76-1.79a1.56,1.56,0,0,1,1.6-1.6,1.46,1.46,0,0,1,1.68,1.46A1.74,1.74,0,0,1,1182,390.73Z" transform="translate(-1069.73 -356.24)"/><path class="cls-2" d="M1181.63,455.46c0,1.09-.57,1.71-1.5,1.72a1.51,1.51,0,0,1-1.62-1.74,1.41,1.41,0,0,1,1.6-1.48A1.52,1.52,0,0,1,1181.63,455.46Z" transform="translate(-1069.73 -356.24)"/><path class="cls-2" d="M1192.79,458.89a1.54,1.54,0,0,1-1.45-1.73,1.46,1.46,0,0,1,1.58-1.56,1.5,1.5,0,0,1,1.57,1.82A1.63,1.63,0,0,1,1192.79,458.89Z" transform="translate(-1069.73 -356.24)"/><path class="cls-2" d="M1215.84,438.44a1.33,1.33,0,0,1-1.52-1.29,1.37,1.37,0,0,1,1.49-1.58,1.44,1.44,0,0,1,0,2.87Z" transform="translate(-1069.73 -356.24)"/><path class="cls-2" d="M1144.07,451.67a1.46,1.46,0,0,1-1.67,1.39,1.28,1.28,0,0,1-1.36-1.4,1.39,1.39,0,0,1,1.62-1.43A1.45,1.45,0,0,1,1144.07,451.67Z" transform="translate(-1069.73 -356.24)"/><path class="cls-2" d="M1145.69,475.66a1.2,1.2,0,0,1,1.22,1.26c0,.88-.51,1.31-1.38,1.36s-1-.44-1-1.06A1.34,1.34,0,0,1,1145.69,475.66Z" transform="translate(-1069.73 -356.24)"/><path class="cls-2" d="M1152.64,515.87c-.83,0-1.55-.31-1.56-1.24,0-.78.56-1.14,1.33-1.17s1.48.35,1.52,1.26S1153.42,515.88,1152.64,515.87Z" transform="translate(-1069.73 -356.24)"/><path class="cls-2" d="M1145.53,467c.77,0,1.31.38,1.33,1.16s-.52,1.16-1.3,1.16-1.52-.31-1.45-1.26C1144.16,467.24,1144.79,467,1145.53,467Z" transform="translate(-1069.73 -356.24)"/><path class="cls-2" d="M1196.78,378.34c-.11,1-.51,1.59-1.43,1.56a1.16,1.16,0,0,1-1.25-1.26,1.28,1.28,0,0,1,1.29-1.27A1.25,1.25,0,0,1,1196.78,378.34Z" transform="translate(-1069.73 -356.24)"/><path class="cls-2" d="M1128.72,443a1.24,1.24,0,0,1,1.26,1.25,1.12,1.12,0,0,1-1.23,1.23,1.07,1.07,0,0,1-1.25-1.17A1.3,1.3,0,0,1,1128.72,443Z" transform="translate(-1069.73 -356.24)"/><path class="cls-2" d="M1201.89,376.1a1.15,1.15,0,0,1-1.19,1.28,1,1,0,0,1-1.14-1,1.17,1.17,0,0,1,1.16-1.32A1.09,1.09,0,0,1,1201.89,376.1Z" transform="translate(-1069.73 -356.24)"/><path class="cls-2" d="M1214.11,450.93c-.84-.12-1.21-.58-1.11-1.35a1.12,1.12,0,0,1,1.34-1.08,1.14,1.14,0,0,1,1.09,1.35C1215.35,450.63,1214.78,450.89,1214.11,450.93Z" transform="translate(-1069.73 -356.24)"/><path class="cls-2" d="M1180.93,423.17c-.05.7-.39,1.13-1.07,1.16a1.16,1.16,0,1,1-.21-2.31C1180.47,421.94,1180.81,422.46,1180.93,423.17Z" transform="translate(-1069.73 -356.24)"/><path class="cls-2" d="M1185.67,397.52a1.08,1.08,0,0,1,1.09,1.1,1,1,0,0,1-1.09,1.09,1,1,0,0,1-1.07-1.1A1,1,0,0,1,1185.67,397.52Z" transform="translate(-1069.73 -356.24)"/><path class="cls-2" d="M1150.24,492.91a1,1,0,0,1-1.15,1,1,1,0,1,1,.07-2.08A1,1,0,0,1,1150.24,492.91Z" transform="translate(-1069.73 -356.24)"/><path class="cls-2" d="M1122,433.93c-.19-.53-.06-.89.52-1C1122.42,433.29,1122.44,433.73,1122,433.93Z" transform="translate(-1069.73 -356.24)"/><path class="cls-2" d="M1121.49,434.43c0-.4.12-.59.53-.54Z" transform="translate(-1069.73 -356.24)"/></svg>