<svg id="Ebene_1" data-name="Ebene 1" xmlns="http://www.w3.org/2000/svg" viewBox="0 0 106.86 95.3"><defs><style>.cls-1{fill:#fff;}.cls-2{fill:#ffdb1a;}.cls-3{fill:#ffc900;}.cls-4{fill:#f9a880;}.cls-5{fill:#d2000b;}.cls-6{fill:#f8a47a;}.cls-7{fill:#682e0c;}.cls-8{fill:#fab48e;}</style></defs><title>surfer</title><path class="cls-1" d="M124.16,291.41" transform="translate(-51.49 -219.37)"/><path class="cls-2" d="M126.07,291.73,148.86,290s4.94-.8,8.44,1.59-2.87,5.1-2.87,5.1l-24.54,9.4-18.16,5.74S74.29,319.29,52.14,310c-1.59-1-3.51-7.17,37.28-13.7Z" transform="translate(-51.49 -219.37)"/><path class="cls-3" d="M62.82,302.72s31.07-7.33,47.64-9.24S145.35,290,145.35,290s12.91-.16,12.43,1.91-.64,4.46-9.4,7.33-18.8,6.05-18.8,6.05S119.22,307.82,113,308s-38.4-.64-38.4-.64S53.42,306.07,62.82,302.72Z" transform="translate(-51.49 -219.37)"/><path class="cls-4" d="M96,271.32c-.42.16-.28,1.63-.3,2l-.51,10.38-.72,14.64a2.37,2.37,0,0,1-.22,1.05,2.16,2.16,0,0,1-1.56.87c-1.2.23-2.43.25-3.61.54a4.42,4.42,0,0,0-3,2,.47.47,0,0,0-.08.34c0,.14.19.22.33.27,1.49.59,3.16.4,4.74.67,2.71.47,5.22,2.31,7.94,1.94.61-4.36-.46-8.89.66-13.14.8-3,2.69-5.83,2.78-9a12.35,12.35,0,0,0-2.31-6.86c-.86-1.34-1.84-2.59-2.77-3.89-.22-.31-1-1.79-1.33-1.81Z" transform="translate(-51.49 -219.37)"/><path class="cls-4" d="M106,296.35l4.46-.64s1-1.12-.16-3.19-5.42-8.6-5.42-8.6l-.32-3.51,5.9-1.12.8,5.9L114.6,294a6.74,6.74,0,0,1,1.91,2.39c.48,1.27,1.59,6.21-1.59,4.78a77.14,77.14,0,0,0-8.13-2.87Z" transform="translate(-51.49 -219.37)"/><path class="cls-5" d="M133.56,265.44c1.12,8-5.9,10.68-10.2,11.47s-20.55,4.14-20.55,4.14l-7.49-10.52,21-5.9,1-1.27,16.09,1Z" transform="translate(-51.49 -219.37)"/><path class="cls-6" d="M133.4,264.48s-4.94-13.7-7-15.14c.48-1,1.91-.64,1.91-.64l1.75.32s2.55,2.07,4,2.23,9.08,1.75,9.08,1.75,5.9.48,7.17,2.55a8,8,0,0,0,2.87,2.87l.8-.48-.8-2.71,2.23-1,1-1.27,1-.48.16-1.75-1.12-.8-8.44.48s-8.76-5.11-11.15-5.1a44.47,44.47,0,0,1-5.68-.65,2.35,2.35,0,0,1-.64-.26c-1.59-.85-10.75-5.27-18.86-6.57l-3.66-1.12h-2.39l-1.59-.48-1.48-2.18-.27,1.22s.68,4-2.35,4.59-3.51-.44-3.51-.44l-4.81,7.16-4,3.51-1,2.39-1.91,2.23a10.07,10.07,0,0,0-4,3.66,36.11,36.11,0,0,1-3.82,5.42L75.09,267l-.8,1.59-1,1.27-.8.8-.8.8-.48.64-.48.64v.64l-.48,1.91.8,2.23,1.43,1.12.48-1.12-.16-3.35,1-.32s1.12,4.3,1.75,2.07a24.08,24.08,0,0,0,.64-5.42l5.9-5.26,4.62-4,1.43-1.43,1-2.23,3-2.71,2.55-1.12,1.91-2.23L98,249.66s.48-3.19,2.71-1,3.66,3.51,3.66,3.51l1.43,1.12,1.59,1.12,1.27.16h.64l1.59,1.43,1,.16s2.71,2.39,3.19,2.71S117,260.5,117,260.5l1.12,1.43.48,1.43Z" transform="translate(-51.49 -219.37)"/><path class="cls-7" d="M103.25,235s-.29.75.63-.08a7.7,7.7,0,0,0,1.5-2.87,24.19,24.19,0,0,0,.29-4.87c-.25-1.17.33-1.29-.5-2.37s-.54-3.17-2.33-3.75-2.08-2-3.67-1.54-3,0-3.58.08a7.53,7.53,0,0,0-1.92.75,15.82,15.82,0,0,0-1.87.92c-.12.21-1,.5-1.08.92s-1.08.33-1.33,1.13a9.65,9.65,0,0,0-.75,2.29,9,9,0,0,1,0,1.83,14.75,14.75,0,0,0,.21,2.42A4.56,4.56,0,0,0,90.17,231c.54.21.63.33.92.17S103.25,235,103.25,235Z" transform="translate(-51.49 -219.37)"/><path class="cls-8" d="M90.94,232s0,.07,0,.11a8.62,8.62,0,0,0,.3,1.64,33.4,33.4,0,0,0,1.12,3.82,4.18,4.18,0,0,0,.62,1.18,3.89,3.89,0,0,0,1.06.84,8.55,8.55,0,0,0,4.7,1.24,4.57,4.57,0,0,0,1.58-.33,3.58,3.58,0,0,0,1.86-1.92,4,4,0,0,0,.1-2.69c-.08-.27-.17-.61.06-.78a2.67,2.67,0,0,1,.3-.14c.26-.15.28-.5.28-.8l0-2c-.59-.2-1.21-.29-1.8-.49a2.7,2.7,0,0,1-1.5-1,4.69,4.69,0,0,1-.44-1.27,2.79,2.79,0,0,0-1.42-2,3.47,3.47,0,0,0-1.33-.17c-1.55,0-3.1-.06-4.65-.13-.51,0-.51,0-.55.49s-.06.82-.09,1.23c-.05.75-.1,1.5-.16,2.26C91,231.36,90.93,231.68,90.94,232Z" transform="translate(-51.49 -219.37)"/></svg>