<svg id="Ebene_1" data-name="Ebene 1" xmlns="http://www.w3.org/2000/svg" viewBox="0 0 153.74 96.21"><defs><style>.cls-1{fill:#fede13;}.cls-2{fill:#5e380e;}.cls-3{fill:#603814;}</style></defs><title>treasure</title><path class="cls-1" d="M13.26,0H141.78a12,12,0,0,1,12,12V96.21a0,0,0,0,1,0,0H0a0,0,0,0,1,0,0v-83A13.21,13.21,0,0,1,13.26,0Z"/><rect class="cls-2" x="45.91" y="48.29" width="24.63" height="37.13"/><circle class="cls-2" cx="77.43" cy="30.43" r="5.44"/><rect class="cls-2" x="74.31" y="30.35" width="6.25" height="13.39"/><rect class="cls-2" x="11.65" y="48.53" width="24.63" height="37.13"/><rect class="cls-2" x="84.36" y="48.55" width="24.63" height="37.13"/><rect class="cls-2" x="117.56" y="48.33" width="24.63" height="37.13"/><rect class="cls-2" y="35.52" width="66.09" height="2.86"/><rect class="cls-2" x="89.64" y="35.69" width="64.06" height="2.86"/><rect class="cls-3" x="12.3" y="0.11" width="56.05" height="21.6"/><rect class="cls-3" x="86.18" y="0.23" width="56.05" height="21.6"/></svg>