<svg id="Ebene_1" data-name="Ebene 1" xmlns="http://www.w3.org/2000/svg" viewBox="0 0 83.51 86.38"><defs><style>.cls-1{fill:#fcb7f3;}.cls-2{fill:#ee1ada;}.cls-3{fill:#fed2f6;}.cls-4{fill:#fb6de6;}.cls-5{fill:#fd9ded;}.cls-6{fill:#f545e0;}.cls-7{fill:#ed2cdc;}.cls-8{fill:#c407df;}.cls-9{fill:#d801d9;}.cls-10{fill:#fefdfe;}.cls-11{fill:#e201d6;}.cls-12{fill:#a300e8;}.cls-13{fill:#9300ef;}.cls-14{fill:#bb00c2;}.cls-15{fill:#ab00e3;}.cls-16{fill:#b900ee;}</style></defs><title>vegetation spiky</title><path class="cls-1" d="M50.5,31.52c1-1.7,3.09-2.72,3.15-5,2,2.49,2.4,2.43,3.87-.74.9.82.35,3.73,3,2.08.41-.26.51.54.49.9-.09,1.44.85.77,1.47.75,1.11-.06.91,1.23,1.62,1.58-.11.55-.07,1.45-.35,1.57-1.15.49-.24-1.58-1.52-1.26L62,33.51a1.72,1.72,0,0,1-1.6-.43q-5.17-5.31-8.35,1a1.56,1.56,0,0,1-1-1.48Z" transform="translate(-13.87 -25.74)"/><path class="cls-2" d="M70.74,99.75,70,99c0-2-1.28-2.51-3-2.41-.6-1.55-1.66-2-3-1-.83.62-1.68.39-2.53.47l-.52-.53c.39-1-.89-1.46-.88-2.24,1.62.06,3-.81,4.41-1.14.45-.1.08-.71,0-1.09,1,0,1.95,0,2.57-1,.36-.61.94-.57,1.41,0-1.27,2.32.74,2.06,1.93,2.45a3.3,3.3,0,0,1,0,.42L71,95c-1.57,1.13-.7,1.85.43,2.52v1A1.33,1.33,0,0,1,70.74,99.75Z" transform="translate(-13.87 -25.74)"/><path class="cls-3" d="M38,103.55c-.07-.64-.17-1.29-.2-1.93-.12-2.17-.54-3.4-2.5-1-.54.66-1.19-.23-1.81-.1.73-1.11,1.58-2.07,3.06-2.08.68.09,1-.35,1.43-.79s.06-1.82,1.56-1.09c1,.47,1.59.67,1.11,1.85-.14.35-.12,1.11.36,1,2.29-.75.78,1.5,1.58,2.06.75-.94.58-2.2,1.43-2.93a.88.88,0,0,0,.23.42c-.66,1.69.09,3.13.78,4.59-1.91.54-1,2.88-2.43,3.76-.73-.07-.6-.67-.57-1.12.18-2.52-.7-3.24-3.29-2.65a3.77,3.77,0,0,1-.75,0Zm3.22-1.83c.05,0,.13,0,.15-.09a.6.6,0,0,0,0-.19l-.23.13Z" transform="translate(-13.87 -25.74)"/><path class="cls-4" d="M80.5,40.14c2.51-.34.18,1,.48,1.4a.82.82,0,0,0-.22.09v.17l.23-.27h1c1.31.16.9,1.15.93,1.93a3,3,0,0,0-2.45,3.46V47h-1c.45-1.54-1.37-2.43-1.1-3.92a3.27,3.27,0,0,0-2.59-3.66c-2.52-.4-3-2.27-3.85-4a1.94,1.94,0,0,1,1.67-1.79c.57.7-.72,1.72.38,2.2a1.68,1.68,0,0,0,2.2-.91l0-.09c.5-1,1.54-.83,2.25-1.34-.1,1.3-1.56,1.85-1.72,3.11-1.19.54-1,1.15-.1,1.81C77.94,38,79,38,79.38,39.65,79.58,40.49,79.89,40.72,80.5,40.14Z" transform="translate(-13.87 -25.74)"/><path class="cls-5" d="M23.5,58.58c-.65-1.11-2-1-3-1.61a1.61,1.61,0,0,0,.22-.38,6,6,0,0,1,3.09-4.66c.16-.09.21-.7.07-.91-2.46-3.79.81-1.68,1.84-1.77,1.19-.1,3,1.68,3.18-1.2h1.65l1.52.53c-.85.9-1.62,1.91-3,2.15-3,.47-3.1.49-2.28,2.82.21.59-.13.47-.35.5-.59.09-1.33.19-1.23.91.13.94,1,.47,1.63.61-.63,1.22-2.65.82-2.9,2.48Zm-.78-3.76a.23.23,0,0,0-.11-.17.81.81,0,0,0-.22,0l.15.28Z" transform="translate(-13.87 -25.74)"/><path class="cls-1" d="M30.56,48H28.91c-.49-.42-1.34-.14-1.68-.87a7.3,7.3,0,0,0-.49-.8c2.87-.41,1.09-2.77,1.75-4.11.13-.26.58-.63.69-.57,1.9.94,2.87.06,3.69-1.59.19-.39,1-.49.78-1.26-.47-1.62.57-2,1.84-2.26.18.34.36.33.51,0v-1.5c1.31.44,2.57.94,3.11,2.39-.76.27-2-.32-2.11,1.1h0c-2.32-.3-2.7,1-2.46,2.9-.83.52-.21,1.08-.05,1.63-1.18,0-.31,1-.6,1.38H31C30.25,45.57,29.12,46.65,30.56,48Z" transform="translate(-13.87 -25.74)"/><path class="cls-1" d="M33,100.57a1.1,1.1,0,0,1-.88,1c-.44.09-.67-.17-.58-.52.6-2.37-.84-4.07-1.93-5.87A5.59,5.59,0,0,1,29,91.75l.38-.73.64-.58L30.49,89l1.19-.52L31.55,90c-.16.9.41,1,1.09,1l-.18,1c-.53.7-.53.7.46,5.36.21-2.27,2-3.4,2.09-5.32l1,.5c-.27.91-1.33,2,.48,2.46h0a6,6,0,0,1-1.09,2.48c-.7.41-1.55.63-1.92,1.48-.31.08-1-.14-.49.6C32.94,99.94,32.5,100.25,33,100.57Z" transform="translate(-13.87 -25.74)"/><path class="cls-1" d="M92.5,77.54c0,.51,1.47.69.34,1.45-.27.18-.73.5-.37.63,2,.68.84,2,.85,3.14,0,2.25-1,1.89-2.47,1.43s-2.48-2-4-.52A2.67,2.67,0,0,1,85,82l1.5-.54c.8-.14,2,.58,2.3-.55.2-.88-.8-1.5-1.69-1.83L86.89,79c.48-.82,1.67-.13,2.13-1,.74-.51,1.8,1.18,2.38-.35l.17-.16h1Z" transform="translate(-13.87 -25.74)"/><path class="cls-4" d="M71.08,95l-.63-2.13c2.49.65,3.92-.17,4-2.87l1-.52h1.49l.79,1a4.63,4.63,0,0,0,1.33,3c-.61.6-1.26-.06-1.89.07a7.72,7.72,0,0,0-2.85,1.47c1.54,1.28-.48,2.69.15,4l-1-.49H73l-1-1Z" transform="translate(-13.87 -25.74)"/><path class="cls-1" d="M94.5,71c-.77,1.45-3.38.77-3.47,3l.53.46c1.22.07,2.52,0,3,1.51l-.06,1.51h-2c-.32-.49-.65-.53-1,0l-.16.15c-1.21-.27-2.49-.48-2.44-2.18.29-.52,1.46-1.21.89-1.42-1.64-.59-1.23-3.18-3.31-3.11a3.74,3.74,0,0,0,0-.45l1-.11H92l2,.06Z" transform="translate(-13.87 -25.74)"/><path class="cls-1" d="M74.5,99c-.63-1.31,1.39-2.72-.15-4a7.72,7.72,0,0,1,2.85-1.47c.63-.13,1.28.52,1.89-.07a1.52,1.52,0,0,1,1.38,1.56c-2.61-.65-2.61-.65-2,2-.36.18-.33.34,0,.49h0c-1.7,1.4-.35,3.39-1,5h0c-1.87.23-2.23-1.38-3-2.48Z" transform="translate(-13.87 -25.74)"/><path class="cls-5" d="M83,43.5c0-.78.38-1.76-.93-1.93,1-1.56,2.74-1.63,4.46-2-.32.9-1.41,1.06-1.36,2,.59.93,1.54-.49,2.23.33l-1.69,4c1.93.14,3.58-.82,5.63-.17L89,46.54l-5.48,1a2.5,2.5,0,0,0-.61-2,1.24,1.24,0,0,0,0-2Z" transform="translate(-13.87 -25.74)"/><path class="cls-6" d="M77.79,90.51l-.79-1,.51-1c1.76.19,3.84,1.77,4.88-1.21.09-.25,1-.21,1.6-.3.91,2,2.66,3,4.36,4.13L89,92.46l-1.74-.14A7,7,0,0,0,82.76,90c-.52-.06-1.23-.34-1.57.31s.31.86.61,1.23c1.19,1.51-.47.72-.8,1Z" transform="translate(-13.87 -25.74)"/><path class="cls-1" d="M64.5,101.49a8.12,8.12,0,0,0-.21,4.46c-2.17-.62-2-2.67-3-4-.62.32-.17,1.83-1.4,1.4l.05-.55c0-.64.18-1.38-.61-1.75h-.72a14.23,14.23,0,0,1-.69-5h.52c.85,1,.6,2.88,2.52,2.92.46.88.9.4,1.33,0s.83-.51,1.1.16c-.76.92-.41,1.34.64,1.45Z" transform="translate(-13.87 -25.74)"/><path class="cls-1" d="M91,50.14c-.38,2.55,1.19,3.41,3.28,3.4,2.33,0,2.16,1.43,2.16,3,0,1.9-1,2.22-2.6,1.87.19-1.53-.73-1.37-1.72-1.14-.82.19-1.81.9-2.1-.64,1.06,0,1.41-.43,1.84-1.5.63-1.55-.55-.78-.91-1a3.47,3.47,0,0,1-1-3.58A1,1,0,0,1,91,50.14Z" transform="translate(-13.87 -25.74)"/><path class="cls-1" d="M25,86.58c-.39-.11-1-.11-1.12-.34-.81-2-.78-2-2.81-1-1.24.63-1.24.63-2,.31l.66-.63-.31-.21-.4.8c-.47-.14-1.65,0-1.14-.69,1.26-1.66,1.88-4.13,4.57-4.31.67.06,1.63-.58,1.8.72-.23.83-.4,1.64.77,1.9l.07,3A1.24,1.24,0,0,1,25,86.58Z" transform="translate(-13.87 -25.74)"/><path class="cls-1" d="M23.44,79.52c-.86-2.1-2.4-.92-3.13-.26-1.44,1.3-2.68,1.85-4.31.47.33-.65,1.64-.62,1.64-1.81-.48-.93-1.33.39-2-.37.93-1.36,2.44-1.87,3.85-2.53v1.5l-.2.24.25-.19a13.83,13.83,0,0,0,3.12-.28c1.23-.46,1.32.43,1.34,1.31C23.93,78.28,24.27,79.07,23.44,79.52Z" transform="translate(-13.87 -25.74)"/><path class="cls-3" d="M78.5,33.57c-.7.51-1.75.38-2.25,1.34a1.68,1.68,0,0,1-2.14,1l-.09,0c-1.11-.48.19-1.5-.38-2.2A1.94,1.94,0,0,0,72,35.5l-.48.13c-.41-.83-1.25-1.52-.91-2.61.63,0,1.34.25,1.81-.46.59-.89.54-2.91,2.54-.94.73.72,1.43-1.52,2.72-2,.26,1.17-.17,2.49.83,3.37Zm-2.18-.65c-.14-.06-.31-.2-.4-.15s-.13.26-.19.39c.14.06.31.2.4.16S76.26,33.06,76.32,32.92Z" transform="translate(-13.87 -25.74)"/><path class="cls-1" d="M51.42,104.14c-1-.1-.67-1.2-1.19-1.66-.6,1.54-2.77,1-3.38,2.5a11.53,11.53,0,0,1-.55,1.36c-.33.6-.48,1.72-1.37,1.38s-.38-1.28-.19-2a4,4,0,0,1,.48-.85c1.21-.78,1-1.92.93-3.13-.11-1.41-.26-2.92,1.35-3.75l.36,1.17c-.14.46-.32.92-.42,1.39s-.58.94,0,1.3,1.43.36,1.58,0c.7-1.83,2.38-.69,3.45-1.29a1.52,1.52,0,0,1,.11.41l-.15,1.57C51.38,102.62,51.55,103.48,51.42,104.14Z" transform="translate(-13.87 -25.74)"/><path class="cls-4" d="M24,77.6c0-.88-.11-1.76-1.34-1.31a13.83,13.83,0,0,1-3.12.28l-.05,0V75a2,2,0,0,0,.44-1.93L21.48,72v.51c.12.28.18.77.36.81.57.15.57-.39.68-.77h1.4c.94.63,2,1.15,1.16,2.63-.28.51.3.85.83,1L26,77.57h-.16Z" transform="translate(-13.87 -25.74)"/><path class="cls-5" d="M21.5,72.46V72L21,70.54c.43-.75,1.33-1.76-.58-1.48-1.31.19-1.73-.46-1.93-1.52a3.71,3.71,0,0,0,1.19-.23c.67-.39,1.76-.56,1.69-1.53s-1.08-1-1.86-1.26V63l2.11.7c.07,1.3,1.13.73,1.77.94-.15.42-1.09.88-.56,1.13,1.83.87.85,1.43.19,2.52C22.6,69,21.36,71,24,71l.06.06L24,72.51H22.5Z" transform="translate(-13.87 -25.74)"/><path class="cls-3" d="M94.5,71l-.55-.5c.67-1.06-.25-1.19-.88-1.38s-1.5,0-1.54-1.09c.52-.1,1.09-.37.3-.75a7.1,7.1,0,0,0-2.29-.27h0c.09-.4-1.13-.56-.3-1,1.2-.63,2.29-1.64,3.81-1.42,0,.56.51.7.86,1s2.94-.2,1,1.65a.45.45,0,0,0,.11.4C98.56,69.41,95.12,70,94.5,71Z" transform="translate(-13.87 -25.74)"/><path class="cls-4" d="M90.06,56.6c.3,1.54,1.29.83,2.1.64,1-.23,1.91-.39,1.72,1.14a11.14,11.14,0,0,1-1.11.26c-.37.05-1.12-.09-1.06.57s.75.38,1.17.49l.06.78h0a16.35,16.35,0,0,0-6,1l-1-.48c0-1.58,2.12-1.89,2.09-3.48h0a3.51,3.51,0,0,0,.47-.06l1-1Z" transform="translate(-13.87 -25.74)"/><path class="cls-3" d="M21,70.54,21.49,72,19.91,73.1a12.33,12.33,0,0,1-5.55-.56c.55-.78,1.57-.15,1.88-.93-.11-.17-.16-.35-.27-.42-.68-.41-2.12.23-2.1-.65,0-1.54,1.93-.69,2.71-1.49h.91C18.23,70.61,19.79,70.14,21,70.54Z" transform="translate(-13.87 -25.74)"/><path class="cls-1" d="M65,29.05l.48-.52c.5,0,1,2,1.52,0h.54c.09.54-.37,1.61.94,1a2.62,2.62,0,0,0,2.58,0l-.23,2.13c-.75.06-2.33-1.16-1.52,1.17.74,2.13-1,1-1.77,1.15a4.1,4.1,0,0,0-3.42-3.27C63.56,29.71,65.16,29.85,65,29.05Z" transform="translate(-13.87 -25.74)"/><path class="cls-1" d="M78.5,33.57V33c.15-1.15.93-1.64,2.24-2.21a17.78,17.78,0,0,0-.24,9.34c-.64.55-1,.33-1.12-.43-.35-1.62-1.44-1.66-2.73-1.25a2.76,2.76,0,0,0,.1-1.81C76.94,35.42,78.4,34.87,78.5,33.57Z" transform="translate(-13.87 -25.74)"/><path class="cls-3" d="M81,92.57c.33-.28,2,.51.8-1-.29-.37-.9-.67-.61-1.23s1-.38,1.57-.31a7,7,0,0,1,4.49,2.33,11.21,11.21,0,0,1-1.44,0c-.56-.07-1.11-1.2-1.64-.28s.3,1.47,1.08,1.84a2.69,2.69,0,0,1,1.69,1.87C84.21,95.82,82.57,94.25,81,92.57Z" transform="translate(-13.87 -25.74)"/><path class="cls-5" d="M88.34,91.14C86.65,90,84.9,89,84,87l.48-.06c.54,0,1.24.27,1.37-.5.17-1-.7-.86-1.28-1L84,85c1.39-1.32,2.81.51,4.21,0a3,3,0,0,1,2.52.69c-1.17.41-2.52.5-3.24,1.23-1.34,1.35,1.29,1.83,1,3.09Z" transform="translate(-13.87 -25.74)"/><path class="cls-1" d="M40.62,34l-.07-1.44c1.94,0,3.68-.37,4.42-2.5.41.61.55,1.47,1.48,1.58v.79l-.08.57c-.72.73-.15,1.37.13,2C44.62,36.39,43.34,35,42,34H40.62Z" transform="translate(-13.87 -25.74)"/><path class="cls-5" d="M37,38.55c.15-1.42,1.35-.84,2.11-1.1l1.37.07C41.6,39.08,41.82,38,42,37c.57.68,1.59.92,1.88,1.88a23.24,23.24,0,0,1-2.61.15c-1.11,0-1.37.56-1.39,1.46-2.72-1.35-3.28-1.22-3.79.92h-1.6c-.24-1.86.14-3.21,2.46-2.9l.2.11Z" transform="translate(-13.87 -25.74)"/><path class="cls-5" d="M29.37,91.06l-.38.73c-.69.68-1.37,1.41-2.49,1.14v-.74c1.07-.35,1.37-.89.44-1.75.17-.88,1-2.09-1-1.88-.19-.54-1,0-1.12-.6l.13-.91c2,.13,4.45-.84,5.48,2l-.48,1.44Z" transform="translate(-13.87 -25.74)"/><path class="cls-4" d="M67.5,34c.76-.14,2.51,1,1.77-1.15-.81-2.33.77-1.11,1.52-1.17L70.54,33c-.34,1.09.5,1.78.91,2.61-1.25,1,.33,2.36-.52,3.39H68.42c.43-1.4.83-2.79-.55-3.93Z" transform="translate(-13.87 -25.74)"/><path class="cls-1" d="M59,108.5c-1.8-.31-1.45,1.66-2.52,2.36a7.56,7.56,0,0,1-1-4.31c1.21,1.34,1.62-.34,2.12-.74.72-.58.64-1.47-.53-1.78l-.17-1,.09-1a2.32,2.32,0,0,1,.15-.48C59.37,103.45,58.82,106.08,59,108.5Z" transform="translate(-13.87 -25.74)"/><path class="cls-4" d="M30.5,89C29.5,86.2,27,87.17,25,87L25,86.58A1.24,1.24,0,0,0,25,86.1c.92.19,1.45-1.49,1.87-.94,1.5,1.93,1.48-.48,2.21-.63.87.7,1.9.48,2.89.52.12,1.18-1.14,2.23-.33,3.47Z" transform="translate(-13.87 -25.74)"/><path class="cls-5" d="M64.5,101.49l-.44-.93-.54-1,2.34.15c-.21-1.09-1.35-1.62-1.12-2.72l2.19.19A7.15,7.15,0,0,1,68,101.09c-1,0-1,.77-1,1.5H65.5Z" transform="translate(-13.87 -25.74)"/><path class="cls-6" d="M91,50.14A1,1,0,0,0,90,50.5l-2.88.62a3.67,3.67,0,0,0-4.09,0c-1.08,0-1.56-.49-1.5-1.54.53-.28.69-1.11,1.48-1,1.36,1.26,2.35-.32,3.52-.46.23,1.44.62,2.62,2.44,1.53a6.64,6.64,0,0,1,2.32,0C92.13,49.94,91.14,50,91,50.14Z" transform="translate(-13.87 -25.74)"/><path class="cls-3" d="M67,102.54c0-.73,0-1.45,1-1.5h0l.55.47h.35c1.69-.18,1.84,1.37,2.49,2.29.23.32.22,1.06-.66.73s-.71.3-.6.75c.15.61.72,1.34-.29,1.63-.81.24-.78-.68-1.1-1.09s-.54-.81-.8-1.21c.83-.8.72-1.33-.44-1.57l-.5-.51Z" transform="translate(-13.87 -25.74)"/><path class="cls-5" d="M59,108.5c-.21-2.42.35-5-1.88-6.93.14-1.31.92-.64,1.53-.5h.72c.13.61.08,1.28.61,1.75l-.05.55c-.89,1.72.06,3.37.27,5a11.26,11.26,0,0,1,0,3.75A4.73,4.73,0,0,1,59,108.5Z" transform="translate(-13.87 -25.74)"/><path class="cls-4" d="M93,64.62c-1.52-.23-2.62.79-3.81,1.42-.84.44.39.6.3,1-.65-.1-1.59.4-1.85-.59a1.47,1.47,0,0,1,.92-1.78c1.13-.39.73-1,.4-1.67,1.48-2,2.4,0,3.54.49l2,0-.48,1.07Z" transform="translate(-13.87 -25.74)"/><path class="cls-4" d="M47.5,98c-1.61.83-1.46,2.35-1.35,3.75.09,1.2.29,2.35-.93,3.13-.19-.44.29-1-.2-1.36-.68-1.46-1.43-2.91-.78-4.59.82.19,1.06-.25,1.37-1C46.16,96.73,46.89,97,47.5,98Z" transform="translate(-13.87 -25.74)"/><path class="cls-5" d="M22.43,60h1L25,59.59a3.53,3.53,0,0,0,.87,2l.11,1-.49.6L24,63.68l-1-.12c.28-.56.4-1-.52-.93l-1-.54C21.42,61.14,22.68,60.92,22.43,60Z" transform="translate(-13.87 -25.74)"/><path class="cls-3" d="M92.5,63.5C91.36,63,90.43,61.06,89,63l-1,.17c-.12-.48-.49-.62-.93-.66l-.15-1a16.35,16.35,0,0,1,6-1A7.83,7.83,0,0,1,92.5,63.5Z" transform="translate(-13.87 -25.74)"/><path class="cls-4" d="M88.2,85c-1.4.55-2.82-1.29-4.21,0a5.9,5.9,0,0,1-2.46-1,2.67,2.67,0,0,1,1.92-2c.1.37.12.88.66.78.17,0,.27-.49.39-.75a3.33,3.33,0,0,1,.47,0,2.67,2.67,0,0,0,1.84,1.64Z" transform="translate(-13.87 -25.74)"/><path class="cls-3" d="M78.5,97.08c-.58-2.68-.58-2.68,2-2,.35,1.1,2,2,1.1,3.18s-2-.76-3.12-.67h0Q78.5,97.32,78.5,97.08Z" transform="translate(-13.87 -25.74)"/><path class="cls-3" d="M45,30.08c-.74,2.13-2.47,2.5-4.42,2.5,1.13-1.44,2.75-2.49,3.27-4.4A2,2,0,0,1,45,30.08Z" transform="translate(-13.87 -25.74)"/><path class="cls-5" d="M57.07,104c1.17.31,1.25,1.2.53,1.78-.5.4-.91,2.08-2.12.74l-.48-.13a2.89,2.89,0,0,1-.51-1.86c.6-.33.52-.91.52-1.45h.87l.2,1,.42.45Z" transform="translate(-13.87 -25.74)"/><path class="cls-7" d="M68.91,101.52h-.35l-.55-.47h0a7.16,7.16,0,0,0-1.06-3.91v-.58c1.73-.1,3,.38,3,2.41C67.95,99.14,69.88,100.93,68.91,101.52Z" transform="translate(-13.87 -25.74)"/><path class="cls-5" d="M50.5,31.52l.45,1.09c-1.69-.47-1.78,1.09-2.43,1.94-1-.44-1.12-1-.45-1.9a1.33,1.33,0,0,0-.17-2.11l.63-1a3.45,3.45,0,0,0,.48,0C50.32,29.59,49.77,31,50.5,31.52Z" transform="translate(-13.87 -25.74)"/><path class="cls-3" d="M86.5,48.14c-1.18.13-2.17,1.71-3.52.46,0-.41.07-.83.57-1l5.48-1c-.64.69,1.93,1.26.07,2C88.21,48.46,87.63,46.74,86.5,48.14Z" transform="translate(-13.87 -25.74)"/><path class="cls-1" d="M21,70.54c-1.22-.37-2.78.07-3.5-1.48l.19-.22-.22.19h-.91l-.06-.53v-.92l2-.06c.21,1.06.63,1.71,1.93,1.52C22.34,68.79,21.44,69.8,21,70.54Z" transform="translate(-13.87 -25.74)"/><path class="cls-3" d="M71.06,29.54a2.62,2.62,0,0,1-2.58,0c.38-1.72,2.3-2.21,2.94-3.8C71.5,27.07,71.84,28.37,71.06,29.54Z" transform="translate(-13.87 -25.74)"/><path class="cls-5" d="M51.42,104.14c.13-.66,0-1.52,1-1.58,1.82-.89,1.51.5,1.57,1.48-1.05.75-2.54,1.21-2,3h-.91Z" transform="translate(-13.87 -25.74)"/><path class="cls-5" d="M24,77.6h1.9a2.86,2.86,0,0,1-1.68,3.67c-.17-1.3-1.13-.66-1.8-.72l1-1C24.27,79.07,23.93,78.28,24,77.6Z" transform="translate(-13.87 -25.74)"/><path class="cls-3" d="M47.9,30.55a1.33,1.33,0,0,1,.17,2.11c-.67.88-.51,1.46.45,1.9l.22,1.06-1.38-.4-.83-.15c-.28-.66-.86-1.31-.13-2a3.32,3.32,0,0,0,.39.19c.25-.39-.08-.55-.31-.76v-.79Z" transform="translate(-13.87 -25.74)"/><path class="cls-1" d="M24.88,88c.15.63.93.06,1.12.6.15,1.16-.15,2-1.46,2.26L23,91.54h0A4.42,4.42,0,0,1,24.88,88Z" transform="translate(-13.87 -25.74)"/><path class="cls-1" d="M52,107.06c-.53-1.8,1-2.27,2-3l.47.53a2.89,2.89,0,0,0,.51,1.86C54.25,107.78,52.88,106.25,52,107.06Z" transform="translate(-13.87 -25.74)"/><path class="cls-3" d="M94,64.62l.48-1.07c.47-.67,1.16-.53,1.8-.45a1.11,1.11,0,0,1,1.08,1.14h0c0,.83-.7.8-1.27.79S94.61,65.3,94,64.62Z" transform="translate(-13.87 -25.74)"/><path class="cls-3" d="M65,29.05c.16.79-1.45.66-.88,1.66a2,2,0,0,1,0,.37c-.71-.35-.51-1.64-1.62-1.58l1.31-2.7Z" transform="translate(-13.87 -25.74)"/><path class="cls-3" d="M22.43,60c.25,1-1,1.21-.94,2.08-1-.14-1.41-1-2.44-1.72C20.35,60,21.28,59.34,22.43,60Z" transform="translate(-13.87 -25.74)"/><path class="cls-5" d="M86.5,48.14c1.13-1.36,1.72.36,2.6.46l-.16,1.07C87.12,50.72,86.72,49.54,86.5,48.14Z" transform="translate(-13.87 -25.74)"/><path class="cls-1" d="M26.5,92.14v.74c-.51,2.37-1.31.41-2,.13L24,92.49l.75-1h1.22Z" transform="translate(-13.87 -25.74)"/><path class="cls-3" d="M24,92.54l.52.52c-.24,1.46-1.41,2.1-2.76,2.73L23,93h0Z" transform="translate(-13.87 -25.74)"/><path class="cls-6" d="M73.07,98.53h.42v1.35l-1,.68H71.17l-.49-.85a1.33,1.33,0,0,0,.78-1.19Z" transform="translate(-13.87 -25.74)"/><path class="cls-5" d="M33.5,99c.37-.85,1.22-1.06,1.92-1.48a1,1,0,0,1,1.12.87v.05c-1.48,0-2.32,1-3.06,2.08a2.84,2.84,0,0,1-.48,0c-.56-.31-.08-.62,0-.94Z" transform="translate(-13.87 -25.74)"/><path class="cls-3" d="M88.34,91.14,88.51,90c1.34.18,1,1.73,2,2.33.52.34,0,.66-.39.85-.79.4-1,0-1.1-.72Z" transform="translate(-13.87 -25.74)"/><path class="cls-1" d="M51.1,107H52a10.06,10.06,0,0,1-.9,4C49.93,109.49,51.15,108.25,51.1,107Z" transform="translate(-13.87 -25.74)"/><path class="cls-1" d="M92.94,60.48l-.06-.78c1.23.13,2.44-1,4,0C95.43,60.19,94.27,60.7,92.94,60.48Z" transform="translate(-13.87 -25.74)"/><path class="cls-3" d="M67,28.55c-.53,1.94-1,0-1.52,0,.08-.75-.15-1.57.38-2.3C67,26.77,66.09,28.07,67,28.55Z" transform="translate(-13.87 -25.74)"/><path class="cls-1" d="M67.5,103.05c1.16.24,1.27.77.44,1.57-.58-1-2.21-.69-2.46-2.06H67Z" transform="translate(-13.87 -25.74)"/><path class="cls-3" d="M18.5,62.57a3.81,3.81,0,0,1-2.66-1.71c1.6,0,2.72-.07,2.7,1.67Z" transform="translate(-13.87 -25.74)"/><path class="cls-3" d="M19.5,63v1.55c-2,.24-1.11-1.09-1-2h0A1,1,0,0,1,19.5,63Z" transform="translate(-13.87 -25.74)"/><path class="cls-1" d="M42.05,37c-.23,1-.45,2.1-1.57.53l.1-1h1.35A1.49,1.49,0,0,1,42.05,37Z" transform="translate(-13.87 -25.74)"/><path class="cls-5" d="M41.93,36.57H40.58v-1a1.42,1.42,0,0,0,.92-1.5H42Q42,35.32,41.93,36.57Z" transform="translate(-13.87 -25.74)"/><path class="cls-3" d="M25,59.56l-1.59.38.05-1.36L24,58l.92.18L25,59.56Z" transform="translate(-13.87 -25.74)"/><path class="cls-7" d="M71.24,100.6h1.32a1.76,1.76,0,0,1,.42,1.5l-.57.52Z" transform="translate(-13.87 -25.74)"/><path class="cls-6" d="M23,63.52l1,.11-.47.87-.18.12c-.65-.21-1.71.36-1.77-.94l.94-.23-.07.17c.22.24.39.2.51-.09Z" transform="translate(-13.87 -25.74)"/><path class="cls-3" d="M41.5,34.06a1.42,1.42,0,0,1-.92,1.5c-.72-.54-.71-1,.07-1.53Z" transform="translate(-13.87 -25.74)"/><path class="cls-6" d="M72.41,102.6l.57-.52c.92.46.93,1.33.26,1.71C72.76,104.06,72.5,103.14,72.41,102.6Z" transform="translate(-13.87 -25.74)"/><path class="cls-3" d="M94.5,77.51,94.56,76c.51.1,1,.27.87.93S94.89,77.48,94.5,77.51Z" transform="translate(-13.87 -25.74)"/><path class="cls-1" d="M23,93c-.39-.07-.83-.09-.88-.62s.37-.81.89-.86h0V93Z" transform="translate(-13.87 -25.74)"/><path class="cls-3" d="M16.5,67.6v.92c-.39-.09-1.08.3-1.1-.37S16.06,67.6,16.5,67.6Z" transform="translate(-13.87 -25.74)"/><path class="cls-7" d="M73.5,99.9V98.55l1,.49v1Z" transform="translate(-13.87 -25.74)"/><path class="cls-3" d="M67.5,28.55H67c.15-.33.34-.82.73-.64S67.79,28.38,67.5,28.55Z" transform="translate(-13.87 -25.74)"/><path class="cls-3" d="M22.5,62.59c.91-.11.8.36.52.93h0l-.51.09.07-.17Z" transform="translate(-13.87 -25.74)"/><path class="cls-1" d="M32.65,37.75c0,.06,0,.17-.06.17a.68.68,0,0,1-.21-.06c0-.06,0-.17.06-.17A.68.68,0,0,1,32.65,37.75Z" transform="translate(-13.87 -25.74)"/><path class="cls-1" d="M36,35l-.66-.16c.36-.48.47,0,.64.18Z" transform="translate(-13.87 -25.74)"/><path class="cls-3" d="M49,29.53a3.45,3.45,0,0,1-.48,0l.2-.67Z" transform="translate(-13.87 -25.74)"/><path class="cls-3" d="M91.5,74.5,91,74Z" transform="translate(-13.87 -25.74)"/><path class="cls-3" d="M36,36.56c-.16.35-.33.36-.51,0Z" transform="translate(-13.87 -25.74)"/><path class="cls-1" d="M77.5,102.56l.2.1-.18-.11Z" transform="translate(-13.87 -25.74)"/><path class="cls-3" d="M38,103.54l-.11.21.12-.2Z" transform="translate(-13.87 -25.74)"/><path class="cls-6" d="M41.93,36.57v-2.5c1.39.9,2.67,2.34,4.55,1l.83.15c.16.58.16,1.34,1.06,1.23.47-.06.62-.4.32-.83l-.22-1.06c.65-.85.74-2.4,2.43-1.94a1.56,1.56,0,0,0,1,1.48c.17.47-.35,1.5.88,1.09.19-.06.4-.42.54,0a3.59,3.59,0,0,1,.07,1c-.52.72-1.31.28-2,.45a11.33,11.33,0,0,1-5.31,1c-1,0-1,0-1.13,1l-1.08.5-.07-.21c-.29-1-1.31-1.2-1.88-1.88A1.47,1.47,0,0,0,41.93,36.57Z" transform="translate(-13.87 -25.74)"/><path class="cls-4" d="M53.5,36.14a3.58,3.58,0,0,0-.07-1c-.14-.4-.34,0-.54,0-1.24.41-.71-.62-.88-1.09q3.17-6.31,8.35-1a1.72,1.72,0,0,0,1.6.44l.58.53q0,.72.05,1.44c-1.27.48-1.82-1.63-3.17-.87,0-2-1.88-1-2.7-1.66-.54,1.15-2.86,1-2.2,3Z" transform="translate(-13.87 -25.74)"/><path class="cls-6" d="M62.5,34l-.58-.53.26-2.11c1.28-.31.37,1.75,1.52,1.26.29-.12.24-1,.35-1.57a1.89,1.89,0,0,0,0-.37A4.1,4.1,0,0,1,67.47,34l.36,1.12C65.87,36,64.5,33.73,62.5,34Z" transform="translate(-13.87 -25.74)"/><path class="cls-8" d="M64.5,91.05c.08.38.45,1,0,1.09-1.46.33-2.8,1.19-4.41,1.14,0,.78,1.27,1.22.88,2.25H58.49c0-.33.12-.77,0-1-1-1.16-.67-2-.2-3.44s2.77-1.2,2.25-3H61l2.55.07Z" transform="translate(-13.87 -25.74)"/><path class="cls-6" d="M67,96.55v.58l-2.19-.19c-.23,1.1.92,1.63,1.12,2.72l-2.34-.15a2.05,2.05,0,0,0-.1-.41c-.28-.67-.65-.61-1.1-.16s-.87.9-1.33,0c.1-1-.38-2.06.48-2.91.85-.08,1.7.15,2.53-.47C65.34,94.6,66.4,95,67,96.55Z" transform="translate(-13.87 -25.74)"/><path class="cls-9" d="M64.5,91.05l-1-2.91,1-.1c2.15-.14,4,1,6,1.5h0v1l-2-.5c-.47-.58-1-.62-1.41,0C66.5,91.09,65.5,91.07,64.5,91.05Z" transform="translate(-13.87 -25.74)"/><path class="cls-7" d="M70.5,90.53v-1c1.33,0,2.52,1.27,3.95.49-.09,2.7-1.52,3.52-4,2.87a3.55,3.55,0,0,0,0-.42Q70.5,91.51,70.5,90.53Z" transform="translate(-13.87 -25.74)"/><path class="cls-7" d="M61.5,96.05C60.63,96.9,61.12,98,61,99c-1.92,0-1.67-2-2.51-2.93v-.55H61Z" transform="translate(-13.87 -25.74)"/><path class="cls-8" d="M70.5,90.53q0,1-.09,2c-1.19-.39-3.2-.13-1.93-2.45Z" transform="translate(-13.87 -25.74)"/><path class="cls-6" d="M71.08,95l1,2.46-.54.06C70.38,96.88,69.5,96.14,71.08,95Z" transform="translate(-13.87 -25.74)"/><path class="cls-7" d="M71.5,97.55l.54-.06,1,1H71.49Q71.5,98.06,71.5,97.55Z" transform="translate(-13.87 -25.74)"/><path class="cls-4" d="M36.55,98.47a1,1,0,0,0-1.07-.92h-.05a6,6,0,0,0,1.09-2.48l.21-.24-.25.2c-1.81-.5-.75-1.56-.48-2.46s-.5-2.17.7-2.29.63,1.22.82,1.92c.32,1.25.42,2.7,2.42,1.94a1.4,1.4,0,0,1,1.78.88v0a3.92,3.92,0,0,0,1.74,2L44,98.49c-.85.73-.69,2-1.43,2.93-.8-.56.71-2.81-1.58-2.06-.48.16-.5-.6-.36-1,.48-1.18-.14-1.38-1.11-1.85-1.5-.73-1.15.66-1.56,1.09S37.23,98.56,36.55,98.47Z" transform="translate(-13.87 -25.74)"/><path class="cls-7" d="M44,98.52l-.56-1.43,1.45-.52c1.51-.3,1.21-1.12.58-2v-2c1.27,1.28,1.88,3.31,4.05,3.56a2.87,2.87,0,0,1-1.66,3.09l-.36-1.17c-.62-1.06-1.34-1.28-1.89,0-.3.7-.55,1.15-1.37,1A.9.9,0,0,1,44,98.52Z" transform="translate(-13.87 -25.74)"/><path class="cls-10" d="M41.23,101.72l-.1-.16.23-.13v.19S41.28,101.69,41.23,101.72Z" transform="translate(-13.87 -25.74)"/><path class="cls-7" d="M71,39c.84-1-.73-2.42.52-3.39L72,35.5c.88,1.7,1.33,3.57,3.85,4a3.27,3.27,0,0,1,2.59,3.66l-2.88-1h-1C73,42.05,71.43,41.83,71,44.5c-.55-1.57-.37-2.79-1.5-3.34C70.5,40.75,72,40.8,71,39Z" transform="translate(-13.87 -25.74)"/><path class="cls-8" d="M75.5,42.14l2.88,1c-.27,1.49,1.55,2.38,1.1,3.92l.43,2a6.14,6.14,0,0,1-2.46-2C77.77,45,76,43.81,75.5,42.14Z" transform="translate(-13.87 -25.74)"/><path class="cls-1" d="M83,43.5a1.24,1.24,0,0,1,0,2.11L81.5,47l-.94.07a3,3,0,0,1,2.36-3.52Z" transform="translate(-13.87 -25.74)"/><path class="cls-7" d="M80.5,47l.94-.07L81,49.57H80a1.38,1.38,0,0,0-.09-.49l-.43-2Z" transform="translate(-13.87 -25.74)"/><path class="cls-7" d="M76.78,36.68a2.76,2.76,0,0,1-.1,1.81C75.74,37.83,75.58,37.22,76.78,36.68Z" transform="translate(-13.87 -25.74)"/><path class="cls-10" d="M81,41.54l-.23.27v-.17a.82.82,0,0,1,.22-.09Z" transform="translate(-13.87 -25.74)"/><path class="cls-8" d="M29.13,50.72c1.34-.23,2.1-1.25,3-2.15l1.49-.51c.51.37.43.92.43,1.44-.72.08-2.1-.73-1.46,1.12v2.84L32,53.6H29.66C28.44,52.79,28.5,51.8,29.13,50.72Z" transform="translate(-13.87 -25.74)"/><path class="cls-6" d="M24.92,58.22,24,58c.25-1.66,2.27-1.27,2.9-2.48h.61c0,.75.54,1,1.18,1L28.51,58c-1.36.17-.93,1.18-.93,2a3.31,3.31,0,0,1-1.7,1.55,3.54,3.54,0,0,1-.87-2h0c.57-.08,1.29-.12,1.14-.92C26,58.06,25.44,58,24.92,58.22Z" transform="translate(-13.87 -25.74)"/><path class="cls-4" d="M27.5,55.56h-.61c-.58-.14-1.5.33-1.63-.61-.1-.72.64-.82,1.23-.91.22,0,.56.09.35-.5-.82-2.34-.77-2.35,2.28-2.82-.62,1.08-.69,2.07.48,2.85l-.63,1c-.72,0-1.46,0-1.47,1Z" transform="translate(-13.87 -25.74)"/><path class="cls-4" d="M33.57,48.06l-1.49.51L30.56,48c-1.44-1.39-.31-2.47.44-3.59.13,1.51,1.54,1.47,2.45,2C32.92,47.05,33.62,47.53,33.57,48.06Z" transform="translate(-13.87 -25.74)"/><path class="cls-10" d="M22.7,54.82l-.18.12-.15-.28h.22C22.65,54.66,22.66,54.76,22.7,54.82Z" transform="translate(-13.87 -25.74)"/><path class="cls-3" d="M34.5,41.45h1.6l1.35.68L38,43l-1.48,1.1-1-.12-1-.93C34.34,42.53,33.71,42,34.5,41.45Z" transform="translate(-13.87 -25.74)"/><path class="cls-6" d="M33.5,46.48c-.91-.56-2.32-.53-2.45-2h2.88l.18.14c.34.7,0,1.32-.24,2A1.89,1.89,0,0,1,33.5,46.48Z" transform="translate(-13.87 -25.74)"/><path class="cls-6" d="M34.5,43.08l1,.93-1.4.59-.18-.14C34.18,44,33.31,43.14,34.5,43.08Z" transform="translate(-13.87 -25.74)"/><path class="cls-2" d="M45.5,92.52v2a3.76,3.76,0,0,0-.58,2L43.47,97a3.92,3.92,0,0,1-1.74-2A1.4,1.4,0,0,0,40,94.11h0c-2,.75-2.1-.69-2.42-1.94-.18-.71.41-2-.82-1.92s-.51,1.49-.7,2.29l-1-.5c-.6-.44-.91-.18-1.32.36-.63.84-1,.45-1.23-.4l.18-1c.39-.27.9-.66.6-1.09-.47-.66-1.1.26-1.69,0l.13-1.48c-.81-1.24.45-2.29.33-3.47l.67-.26c-1.15-1.29-.94-3.69-2.78-4.22-1.5-.44-1.84-.73-1-2,.16-.23,0-.65,0-1a1,1,0,0,1,.49-1c1.84,1,2.26,3.55,4.54,4,0,1.16-1.74,2.87.46,3.3,1.55.3,2.49,1.58,4,1.73l.07.5v.92a1.94,1.94,0,0,0,2.47,2,1.87,1.87,0,0,1,0,.74c-.8,1.56.5,1.67,1.39,2.11.35.18.73.64,1,.1.65-1.29-.77-1.36-1.28-2-.32-.37-.69-.69-1-1l.5-.51,1.87.09,1.07.52c.16.81-.29,1.75.54,2.41A1,1,0,0,0,45.5,92.52Z" transform="translate(-13.87 -25.74)"/><path class="cls-4" d="M32.5,92c.18.85.6,1.24,1.23.4.41-.55.72-.81,1.32-.36C35,94,33.17,95.13,33,97.39,31.93,92.73,31.93,92.73,32.5,92Z" transform="translate(-13.87 -25.74)"/><path class="cls-4" d="M31.55,90c.58.21,1.22-.71,1.69,0,.31.43-.2.82-.6,1.09C32,91,31.39,90.9,31.55,90Z" transform="translate(-13.87 -25.74)"/><path class="cls-10" d="M33.5,99l-.49.6C32.5,98.88,33.2,99.14,33.5,99Z" transform="translate(-13.87 -25.74)"/><path class="cls-10" d="M29.37,91.06l.64-.58Z" transform="translate(-13.87 -25.74)"/><path class="cls-6" d="M85,82a3.34,3.34,0,0,0-.47,0H83.45a2.67,2.67,0,0,0-1.92,2,2.79,2.79,0,0,1-2.15-1c1.34-.72,1.34-.72.56-1.45l1-1.52h3.51c.88.18,1.83.27,2,1.44Z" transform="translate(-13.87 -25.74)"/><path class="cls-6" d="M89,78c-.46.87-1.65.18-2.13,1H84.5l-1.06-.52L83.52,76h1.06l2,.59C86.77,78.14,88.33,77.28,89,78Z" transform="translate(-13.87 -25.74)"/><path class="cls-4" d="M84.45,79.05h2.39l.23.08c.89.33,1.89,1,1.69,1.83-.26,1.12-1.5.4-2.3.55-.16-1.17-1.11-1.26-2-1.44Z" transform="translate(-13.87 -25.74)"/><path class="cls-4" d="M89,78c-.64-.76-2.2.08-2.42-1.4,1,.09,1.65-.6,2.37-1.13-.06,1.7,1.22,1.9,2.44,2.18C90.77,79.22,89.71,77.53,89,78Z" transform="translate(-13.87 -25.74)"/><path class="cls-10" d="M91.5,77.54c.34-.51.67-.47,1,0Z" transform="translate(-13.87 -25.74)"/><path class="cls-2" d="M79.94,81.54c.78.73.78.73-.56,1.45a2.79,2.79,0,0,0,2.15,1A5.9,5.9,0,0,0,84,85l.56.42-.09,1.5L84,87c-.55.09-1.51,0-1.6.3-1,3-3.12,1.4-4.88,1.21l-1.94-2.89-.39.16.32,3.68-1,.52c-1.43.78-2.62-.45-3.95-.49h0V88c1.75-.76,2-2.64,3-4l.91-.13a1.31,1.31,0,0,0,1-1.45,3.59,3.59,0,0,1,2.42-1.1Z" transform="translate(-13.87 -25.74)"/><path class="cls-9" d="M75.5,89.52l-.32-3.68.39-.16,1.94,2.89-.51,1Z" transform="translate(-13.87 -25.74)"/><path class="cls-7" d="M88,63.14,89,63c.33.67.73,1.28-.4,1.67a1.47,1.47,0,0,0-.92,1.78c.25,1,1.19.48,1.85.59h0L89,68l-.51.48c-1.3.1-.8,1.21-1.06,1.9l-1,.11h-1c-.28-.82-1.05-1.34-.59-2.55.64-1.68-.53-1.88-1.88-1.4a3.39,3.39,0,0,0,.51-2c.56-.39.46-1,.46-1.52a3,3,0,0,0,.47-2h1.47l1,.48.15,1c-.14.49-1.27.68-.68,1.26S87.76,64.14,88,63.14Z" transform="translate(-13.87 -25.74)"/><path class="cls-7" d="M88.92,75.52c-.72.53-1.36,1.21-2.37,1.13l-2-.59c-.19-.5.7-1.42-.55-1.5-.95-.07-1.11-.88-1.51-1.48l.53-1.5c.7-.27,1.11-1.17,2-1,.4.5.94.42,1.47.38,2.08-.08,1.67,2.51,3.31,3.11C90.38,74.31,89.21,75,88.92,75.52Z" transform="translate(-13.87 -25.74)"/><path class="cls-5" d="M88.5,68.53l.51-.48H91.5c0,1,.89.89,1.54,1.09s1.54.32.88,1.38l-2-.06c0-1.14-.91-.87-1.59-.93S88.65,69.7,88.5,68.53Z" transform="translate(-13.87 -25.74)"/><path class="cls-4" d="M88.5,68.53c.16,1.16,1.08,1,1.85,1s1.54-.21,1.59.93H87.45C87.69,69.75,87.18,68.64,88.5,68.53Z" transform="translate(-13.87 -25.74)"/><path class="cls-4" d="M86.5,71c-.53,0-1.08.12-1.47-.38l.46-.11h1A3.82,3.82,0,0,1,86.5,71Z" transform="translate(-13.87 -25.74)"/><path class="cls-10" d="M78.5,97.08v.49C78.14,97.42,78.11,97.26,78.5,97.08Z" transform="translate(-13.87 -25.74)"/><path class="cls-2" d="M81,49.57,81.46,47l1.46-1.35a2.5,2.5,0,0,1,.61,2c-.5.15-.53.57-.57,1-.79-.11-1,.72-1.48,1Z" transform="translate(-13.87 -25.74)"/><path class="cls-9" d="M58.5,95.49V96H58c-.85.06-1.3-.7-2-1l-.28-.57-.2,1.07V96h-1c-1,.22-1.43-.5-2-1V94c1.16-.68,2-1.43.36-2.48-.34-.22-.87-.25-.63-.8s1-.93,1.41-.52c.87.77,1.81.47,2.75.54,1.65.12.64-.73.49-1.27.19-.64.62-1.28.1-2h.5c1.14-.66,2.08-.18,3,.53.53,1.8-1.77,1.49-2.25,3s-.76,2.29.2,3.44C58.61,94.72,58.5,95.14,58.5,95.49Z" transform="translate(-13.87 -25.74)"/><path class="cls-7" d="M56,95.05c.68.28,1.13,1,2,1a14.22,14.22,0,0,0,.69,5c-.61-.14-1.39-.81-1.53.5A2.37,2.37,0,0,0,57,102l-1.5-2.51h0c.53,0,1-.18.91-.85s-.49-.57-.89-.63l.5-.53.64-.24L56,97a1,1,0,0,1-.5-1v-.5Z" transform="translate(-13.87 -25.74)"/><path class="cls-10" d="M63.45,99.14a2.05,2.05,0,0,1,.1.41l.54,1C63,100.44,62.69,100,63.45,99.14Z" transform="translate(-13.87 -25.74)"/><path class="cls-10" d="M60,102.78c-.53-.47-.49-1.14-.61-1.75C60.18,101.41,60,102.14,60,102.78Z" transform="translate(-13.87 -25.74)"/><path class="cls-6" d="M90.06,56.6h-.53c-1-1.35-2.47.36-3.55-.52l.52-1.45.1-1c1.52-.38,2.9.63,4.4.43.36.26,1.54-.52.91,1C91.5,56.14,91.12,56.63,90.06,56.6Z" transform="translate(-13.87 -25.74)"/><path class="cls-5" d="M91,54.07c-1.5.2-2.88-.81-4.4-.43l-.17-.17.15-1.87.51-.5L90,50.48A3.47,3.47,0,0,0,91,54.07Z" transform="translate(-13.87 -25.74)"/><path class="cls-6" d="M29,77.55a3,3,0,0,1,0,1c-.88,1.29-.55,1.59,1,2,1.84.53,1.63,2.93,2.78,4.22l-.67.26c-1,0-2,.18-2.89-.52-.24-1.15-.34-2.57-2.06-1.31-.77.56-1.39-.37-2.09-.07-1.17-.26-1-1.07-.77-1.9A2.86,2.86,0,0,0,26,77.56h3Z" transform="translate(-13.87 -25.74)"/><path class="cls-5" d="M25,83.14c.7-.3,1.32.63,2.09.07,1.72-1.26,1.82.16,2.06,1.31-.72.15-.7,2.55-2.2.63-.42-.54-1,1.13-1.87.94Z" transform="translate(-13.87 -25.74)"/><path class="cls-10" d="M19,85.52l.4-.8.31.21-.66.63Z" transform="translate(-13.87 -25.74)"/><path class="cls-4" d="M19.5,76.57l-.25.19.2-.24Z" transform="translate(-13.87 -25.74)"/><path class="cls-10" d="M76.32,32.92c-.06.14-.09.35-.19.4s-.27-.1-.4-.16c.06-.14.09-.35.19-.39S76.18,32.86,76.32,32.92Z" transform="translate(-13.87 -25.74)"/><path class="cls-4" d="M47.87,99.14a2.87,2.87,0,0,0,1.66-3.09h0c.78.23.84,1.11,1.41,1.53.57,1,1.85,1.55,1.56,3-1.07.6-2.75-.54-3.45,1.29-.14.37-1.08.32-1.58,0s-.1-.87,0-1.3S47.72,99.64,47.87,99.14Z" transform="translate(-13.87 -25.74)"/><path class="cls-7" d="M52.5,100.57c.3-1.42-1-2-1.55-3l.63-.09L54,98l-.45,3-.9-.06A1.52,1.52,0,0,0,52.5,100.57Z" transform="translate(-13.87 -25.74)"/><path class="cls-4" d="M52.59,101l.9.06c1.29.12,1,1.4,1.52,2.07,0,.54.08,1.12-.52,1.45L54,104c-.07-1,.25-2.37-1.57-1.48Z" transform="translate(-13.87 -25.74)"/><path class="cls-6" d="M24,71c-2.65-.06-1.41-2-1-2.75.66-1.08,1.65-1.65-.19-2.52-.53-.25.42-.7.56-1.13l.18-.12H25c.24,1,1.8,1.84.41,3.07L26,68c0,1,.77,1,1.49,1a1.58,1.58,0,0,1,0,2c-.16.59-1.33.47-1,1.52h3v1L29,74h0a3,3,0,0,0-3,2.06c-.53-.12-1.11-.45-.83-1,.81-1.48-.23-2-1.16-2.63L24.09,71c.46,0,1,.1,1.24-.4a.62.62,0,0,0-.28-.52C24.25,69.94,24,70.36,24,71Z" transform="translate(-13.87 -25.74)"/><path class="cls-7" d="M25.94,76.14a3,3,0,0,1,3-2.06c-.65,1.17-.2,1.6,1,1.52a1.07,1.07,0,0,1-.52,1,1,1,0,0,0-.49,1h-3Z" transform="translate(-13.87 -25.74)"/><path class="cls-6" d="M21.5,72.46h1c-.1.38-.11.91-.68.76C21.69,73.23,21.63,72.75,21.5,72.46Z" transform="translate(-13.87 -25.74)"/><path class="cls-4" d="M91.5,68.06H89l.51-1a7.1,7.1,0,0,1,2.29.27C92.6,67.69,92,68,91.5,68.06Z" transform="translate(-13.87 -25.74)"/><path class="cls-2" d="M86.5,54.6,86,56.05c-.24,1.87-.15,1.93,2.05,1.53,0,1.59-2.09,1.9-2.09,3.48H84.5c-.56-.36-.45-.94-.48-1.48,1.28-1.34-.2-2.69,0-4A.9.9,0,0,0,85,55Z" transform="translate(-13.87 -25.74)"/><path class="cls-7" d="M88,57.58c-2.21.4-2.29.34-2.05-1.53,1.08.88,2.54-.84,3.55.52l-1,1c-.19-.29-.35-.23-.47.06Z" transform="translate(-13.87 -25.74)"/><path class="cls-2" d="M88,57.58c.12-.29.27-.35.47-.06A3.56,3.56,0,0,1,88,57.58Z" transform="translate(-13.87 -25.74)"/><path class="cls-6" d="M84.5,87l.09-1.5c.59.14,1.45,0,1.28,1C85.71,87.25,85,87,84.5,87Z" transform="translate(-13.87 -25.74)"/><path class="cls-10" d="M46.5,32.45c.23.2.56.37.31.76a3.32,3.32,0,0,1-.39-.19Z" transform="translate(-13.87 -25.74)"/><path class="cls-7" d="M37.5,42.09l-1.35-.68c.51-2.14,1.06-2.27,3.79-.92l.1.09-.05.51C39.08,41.25,37.8,40.47,37.5,42.09Z" transform="translate(-13.87 -25.74)"/><path class="cls-7" d="M39.93,40.49c0-.91.29-1.52,1.39-1.46a23.24,23.24,0,0,0,2.61-.15l.07.2-.05,1-1.36.48c-.86-1-1.71-.44-2.56,0Z" transform="translate(-13.87 -25.74)"/><path class="cls-1" d="M37,38.55l.2.11Z" transform="translate(-13.87 -25.74)"/><path class="cls-4" d="M26,91.53H24.74l-.19-.67c1.3-.23,1.6-1.1,1.46-2.26,2-.21,1.13,1,1,1.88Z" transform="translate(-13.87 -25.74)"/><path class="cls-10" d="M26,91.53l1-1.08c.94.85.63,1.4-.44,1.74Z" transform="translate(-13.87 -25.74)"/><path class="cls-8" d="M69.5,41.07c1.13.55.95,1.77,1.5,3.34.42-2.67,2-2.45,3.51-2.34-1,2.08.27,3.74,1,5.5v.52c-.69,0-.95.4-1,1a3.53,3.53,0,0,0-3.33,0,1.2,1.2,0,0,0-1.09-.57,1.39,1.39,0,0,0-1.32-1.46h-.16c0-1,.25-2.15-.19-2.91A18.68,18.68,0,0,1,66,38.88c.84-3.4-1.65-.72-2.35-1.29.54-1.11.36-1.88-1-2.1l-.05-1.44c1.93-.31,3.34,2,5.38,1.06,1.37,1.15,1,2.54.55,3.93C67.35,40.44,68.85,40.53,69.5,41.07Z" transform="translate(-13.87 -25.74)"/><path class="cls-6" d="M69.5,41.07c-.62-.54-2.12-.63-1-2H71C72,40.8,70.5,40.75,69.5,41.07Z" transform="translate(-13.87 -25.74)"/><path class="cls-6" d="M55,103.14c-.54-.67-.23-2-1.52-2.07l.45-3,.5-.08,1,1.59,1.5,2.51-.09,1h-1Z" transform="translate(-13.87 -25.74)"/><path class="cls-7" d="M55.89,103.08h1l.17,1-.56.46-.42-.45Z" transform="translate(-13.87 -25.74)"/><path class="cls-9" d="M84,55.54c-.23,1.34,1.26,2.7,0,4-.69-.36-2,0-1.7.21,1.08.93-1,3.41,1.71,3.26,0,.55.09,1.14-.46,1.52-1-1.59-1.85-.27-2.63.33-.78-.87.56-1.94-.33-2.43-2.15-1.17-.8-2.26-.08-3.41V57.14c.64-.19,1.65.28,1.85-.66.25-1.14-1-.7-1.48-1.11-.3-.26-.57-.55-.85-.83.08-2.69-2.08-.62-2.91-1.37,0,1-2.64.72-1.22,2.53.36.47-.31.8-.85.86-.4-.88-2-.06-2-1.47,0-.55-.07-1.16.52-1.52A1.09,1.09,0,0,0,74.65,53c1.78.56,1.36-2.22,3-1.94a2,2,0,0,0,2.47-1.37l0-.1h1.47c-.06,1.06.42,1.6,1.5,1.54q0,1.23.07,2.46C82.77,54.51,83.44,55,84,55.54Z" transform="translate(-13.87 -25.74)"/><path class="cls-2" d="M83.06,53.55,83,51.09a3.67,3.67,0,0,1,4.09,0l-.51.5C84.81,51.14,84.26,53,83.06,53.55Z" transform="translate(-13.87 -25.74)"/><path class="cls-5" d="M68,101l.55.47Z" transform="translate(-13.87 -25.74)"/><path class="cls-5" d="M67.5,103.05l-.5-.51Z" transform="translate(-13.87 -25.74)"/><path class="cls-2" d="M25,64.55H23.55l.47-.87,1.48-.54c1.21,1.09,1.21,1.09,2.33-.71-.65-.6-1.22.21-1.84.11l-.11-1A3.31,3.31,0,0,0,27.58,60a3.86,3.86,0,0,1,2.43.51c.6.94-1.36,2.32.52,3v.94c-.71.08-1.31.33-1.42,1.13s.39.83.91.9c-.15.84.32,1.8-.48,2.51-.67-.93-1.35-.28-2,0-.72,0-1.45,0-1.49-1,.56-.11,1.45.24,1.26-.9S26.69,64.61,25,64.55Z" transform="translate(-13.87 -25.74)"/><path class="cls-6" d="M26,62.55c.62.1,1.18-.71,1.84-.11-1.12,1.79-1.12,1.79-2.33.71Z" transform="translate(-13.87 -25.74)"/><path class="cls-4" d="M88,63.14c-.25,1-1.07,1.14-1.62.6s.55-.77.68-1.26C87.5,62.56,87.88,62.69,88,63.14Z" transform="translate(-13.87 -25.74)"/><path class="cls-1" d="M83.44,82h1.05c-.13.26-.22.72-.39.75C83.56,82.9,83.5,82.39,83.44,82Z" transform="translate(-13.87 -25.74)"/><path class="cls-6" d="M56.08,104l.42.45Z" transform="translate(-13.87 -25.74)"/><path class="cls-3" d="M17.5,69l.22-.19-.19.22Z" transform="translate(-13.87 -25.74)"/><path class="cls-5" d="M48.74,35.61c.31.44.15.78-.32.83-.9.11-.9-.65-1.06-1.23Z" transform="translate(-13.87 -25.74)"/><path class="cls-10" d="M24.5,90.82l.19.67-.75,1-1,.51V91.54Z" transform="translate(-13.87 -25.74)"/><path class="cls-5" d="M24.92,58.22c.52-.18,1.12-.16,1.23.42.16.8-.56.84-1.14.92Z" transform="translate(-13.87 -25.74)"/><path class="cls-5" d="M22.5,63.62l.51-.09C22.85,63.82,22.68,63.86,22.5,63.62Z" transform="translate(-13.87 -25.74)"/><path class="cls-11" d="M45.08,38.58c.09-1,.09-1.08,1.13-1a11.33,11.33,0,0,0,5.31-1c.32.74.61,1.51,1,2.23.69,1.37,1.07.28,1.52-.22l1,1c-.47.94-1.18,1.8-1,3v1c-1.63,1.34-3.31,2-5.28.59-.26-.19-.8,0-1.2,0,.37-.91,1.55-.27,2-1,1.62-.46.91-1.42.58-3-.61,1.35-1,2.23-2.08,2a1,1,0,0,0-.49-1C46.89,40.05,47.26,38.06,45.08,38.58Z" transform="translate(-13.87 -25.74)"/><path class="cls-12" d="M54,38.57c-.45.5-.83,1.59-1.52.22-.37-.72-.65-1.48-1-2.23.65-.17,1.44.27,2-.45l1-.11c1,1-.86,1.2-.53,2Z" transform="translate(-13.87 -25.74)"/><path class="cls-12" d="M45.08,38.58c2.18-.52,1.81,1.47,2.44,2.48H46c-.44-.85-1.58-.22-2.07-1l.05-1Z" transform="translate(-13.87 -25.74)"/><path class="cls-8" d="M54,38c-.33-.8,1.53-1,.53-2-.66-2,1.66-1.89,2.2-3,.82.69,2.68-.33,2.7,1.66,0,.67.29,1.42-.46,1.92H57.5C56.06,36.37,55.5,38.31,54,38Z" transform="translate(-13.87 -25.74)"/><path class="cls-6" d="M58.95,36.54c.75-.5.44-1.25.46-1.92,1.34-.76,1.9,1.36,3.16.87,1.36.21,1.54,1,1,2.1h0l-1.08.07c-1.31-1.07-1.58.72-2.44.9C59.75,37.86,58.93,37.42,58.95,36.54Z" transform="translate(-13.87 -25.74)"/><path class="cls-12" d="M60.5,88.07c-.9-.71-1.84-1.2-3-.53.16-.62-.8-1.28-.07-1.81s1.31.87,2.18.56l-.12-1.73c.52-.3.72-1.09,1.5-1l.5,2.5a3.66,3.66,0,0,0-.53,2Z" transform="translate(-13.87 -25.74)"/><path class="cls-13" d="M61,88.08a3.66,3.66,0,0,1,.53-2c1.17.32,2.75-.78,3.51,1a1,1,0,0,0-.5,1l-1,.1Z" transform="translate(-13.87 -25.74)"/><path class="cls-8" d="M64.5,88.05a1,1,0,0,1,.5-1h1.5c1.23.39,2.32-.2,3.45-.48l.56,1.56v1.46C68.5,89.06,66.65,87.91,64.5,88.05Z" transform="translate(-13.87 -25.74)"/><path class="cls-1" d="M36.5,95l.25-.2-.21.24Z" transform="translate(-13.87 -25.74)"/><path class="cls-8" d="M45.5,92.52a1,1,0,0,1-.48-1c1-.49,1.61-1.78,3-1.49h.5a.88.88,0,0,0,1,1v.51c-.48.88-1.56.18-2.3,1,1.35.82,2.7,1.7,2.31,3.57h0C47.36,95.84,46.75,93.8,45.5,92.52Z" transform="translate(-13.87 -25.74)"/><path class="cls-4" d="M44.92,96.56a3.76,3.76,0,0,1,.58-2C46.12,95.44,46.42,96.26,44.92,96.56Z" transform="translate(-13.87 -25.74)"/><path class="cls-11" d="M75.5,47.57c-.73-1.76-2-3.42-1-5.5h1c.51,1.71,2.25,2.93,2,5a1,1,0,0,0-1,.49Z" transform="translate(-13.87 -25.74)"/><path class="cls-14" d="M76.5,47.55a1,1,0,0,1,1-.49,6.13,6.13,0,0,0,2.46,2q0,.24.09.49a2,2,0,0,1-2.4,1.5l-.1,0,.49-1C78.06,48.9,76.33,48.79,76.5,47.55Z" transform="translate(-13.87 -25.74)"/><path class="cls-15" d="M31.9,53.61l.63-.14a6.88,6.88,0,0,1,3.06-1.2c-1.11-.49-1.79-1.61-3.05-1.64-.64-1.85.75-1,1.46-1.12.51.81,1,.11,1.51,0a3.38,3.38,0,0,1,1,2.08c0,.57-.06,1.17.54,1.54-.92,1.63-.28,3.28,0,4.92v2l1,2H35.5c-1.39-1.37-2.24,1.1-3.51.49v-2l.52-1.48c.65-.41.46-1.91,1.87-1.36,1.21.48,1.17-.44,1.12-1.18s-.34-1.45-1.35-1.28c-.55.09-1.11.2-1.66.31Z" transform="translate(-13.87 -25.74)"/><path class="cls-2" d="M31.9,53.61l.59,2L32,57.1c-1.09-.22-2.14-.73-3.3-.47-.65-.06-1.14-.29-1.18-1h0a1.45,1.45,0,0,0,1.47-1l.63-1Z" transform="translate(-13.87 -25.74)"/><path class="cls-7" d="M35.5,49.49c-.5.13-1,.83-1.51,0,0-.52.07-1.07-.43-1.44,0-.53-.64-1-.11-1.58a1.92,1.92,0,0,0,.37.07l1.16.55a1.16,1.16,0,0,0,1,.51Z" transform="translate(-13.87 -25.74)"/><path class="cls-9" d="M32.5,50.62c1.26,0,1.94,1.16,3.05,1.64a6.88,6.88,0,0,0-3.06,1.2Q32.5,52.05,32.5,50.62Z" transform="translate(-13.87 -25.74)"/><path class="cls-8" d="M32.5,59.09,32,60.57H30a3.86,3.86,0,0,0-2.43-.51c0-.81-.43-1.82.93-2,1.32-.68,2.64.12,4,0Z" transform="translate(-13.87 -25.74)"/><path class="cls-15" d="M32.5,58c-1.32.12-2.64-.68-4,0l.18-1.45a7.88,7.88,0,0,1,3.3.47Z" transform="translate(-13.87 -25.74)"/><path class="cls-6" d="M29,54.55a1.45,1.45,0,0,1-1.47,1C27.5,54.53,28.26,54.55,29,54.55Z" transform="translate(-13.87 -25.74)"/><path class="cls-8" d="M36.5,44.14,38,43c1,0,1.8.23,2,1.39s1.07,1.15,1.94,1.16v2h-1c-.17-.34-.35-.35-.52,0-.78.1-1.85-.39-2,1-1.47.55-1.63-.29-1.52-1.42.18-1.37-1.47-.73-1.79-1.63Z" transform="translate(-13.87 -25.74)"/><path class="cls-2" d="M42,45.55c-.87,0-1.73-.11-1.94-1.16S39,43,38.05,43l-.53-.91c.31-1.62,1.59-.84,2.49-1,.18,1.46,1.57,1.44,2.47,2v1.45Z" transform="translate(-13.87 -25.74)"/><path class="cls-12" d="M36.5,44.14l-1.32,1.38c.32.89,2,.25,1.79,1.62H35l-1.16-.55c.2-.64.58-1.25.24-2l1.4-.59Z" transform="translate(-13.87 -25.74)"/><path class="cls-9" d="M48,90.06c-1.39-.29-2,1-3,1.49-.83-.66-.38-1.6-.54-2.41,2.17-1.78,2.36-3.28.57-4.56A3.8,3.8,0,0,1,43,85c-.2-1-.82-1.76-1.75-1.75S40,84.11,40,85.09s-.76.93-1.42,1l-.07-.5c-.08-1.08-3-4.36-4.44-5-2.29-.46-2.71-3-4.54-4a1.07,1.07,0,0,0,.52-1c.79,0,1.52-.1,1.48-1.14S32.07,73,33,73.08H34.5v1.51c-.53,1.67-.89,3.32.7,5L36,77.07h1.57c1,0,1.08.9,1.5,1.47l-.51,2.56c.31.59-1.23.89-.26,1.59.7.51,1.23.18,1.73-.35a1.91,1.91,0,0,1,1.49-.77,1.06,1.06,0,0,1,1,.48c-.41.8.28.39.53.48a2.82,2.82,0,0,1,3.5,1.54,6,6,0,0,1,.5,3.12c0,.77-.28,1.75,1,1.88Z" transform="translate(-13.87 -25.74)"/><path class="cls-15" d="M34,80.57c1.46.67,4.36,4,4.44,5-1.49-.15-2.43-1.43-4-1.73C32.29,83.44,34,81.74,34,80.57Z" transform="translate(-13.87 -25.74)"/><path class="cls-12" d="M38.5,86.14c.66-.09,1.45-.08,1.42-1s.35-1.79,1.28-1.8,1.55.78,1.75,1.75h0c-1.63.35-2.21,3.09-4.49,2Z" transform="translate(-13.87 -25.74)"/><path class="cls-8" d="M43,85a3.8,3.8,0,0,0,2-.46c.06,1.59-1,2.73-1.64,4l-1.87-.09c-.53-1.59,1.86-2,1.48-3.5Z" transform="translate(-13.87 -25.74)"/><path class="cls-9" d="M43,85c.39,1.54-2,1.9-1.48,3.5l-.5.51h0a1.94,1.94,0,0,1-2.47-2C40.79,88.14,41.36,85.39,43,85Z" transform="translate(-13.87 -25.74)"/><path class="cls-12" d="M43.39,88.62c.63-1.32,1.7-2.45,1.64-4,1.79,1.28,1.6,2.79-.57,4.56Z" transform="translate(-13.87 -25.74)"/><path class="cls-9" d="M41,89a13.48,13.48,0,0,1,1,1c.52.6,1.93.66,1.28,2-.27.54-.64.07-1-.1-.89-.44-2.19-.55-1.39-2.11a1.87,1.87,0,0,0,0-.74Z" transform="translate(-13.87 -25.74)"/><path class="cls-9" d="M82.5,73.07c.4.6.56,1.41,1.51,1.48,1.25.09.36,1,.55,1.5H83.5c-1.07.58-3.23.08-2.47,2.48V80l-1,1.52-2-.09c.08-.8.19-1.7-1.06-1-.64.38-1.21.84-2.08.23,1.21-.63.23-1.94,1.24-3s2.91-2.45,2-4.63l1.93.5c.05.94.61,1.68,1.46,1.6C82.61,75.05,81.5,73.48,82.5,73.07Zm-3.43,5.56c.23-.18.68-.07.45-.45a1.43,1.43,0,0,0-.83-.45c-.29-.07-.53.18-.38.42s.46.33.72.48Z" transform="translate(-13.87 -25.74)"/><path class="cls-2" d="M81,80v-1.5h2.39l1.06.52v1Z" transform="translate(-13.87 -25.74)"/><path class="cls-8" d="M83.39,78.53H81c-.76-2.4,1.39-1.9,2.47-2.48Z" transform="translate(-13.87 -25.74)"/><path class="cls-12" d="M78,73c.87,2.18-1.11,3.6-2,4.63s0,2.42-1.24,3c.87.6,1.44.15,2.08-.23,1.26-.75,1.14.15,1.06,1a3.58,3.58,0,0,0-2.42,1.1c-1,0-1,.76-1,1.45l-.91.13V83l.11-1.44c.45-.37.44-.72-.07-1-.89-.62-1.53-1.32-.95-2.5.89-.68,2.57-.67,2.65-1.92.06-.83-1.15-1.45-2.2-1.59l.59-2.09c1.76-.57,1,2.86,3.11,1.85-1-1.26-.24-3.93-3.11-3.65l-.09-.6c0-.55-.09-1.14.5-1.5.5.73,1.25.42,1.91.48,0,2.6,1.77,1.61,3.09,1.53h0C79.19,71.57,76.73,71.59,78,73Z" transform="translate(-13.87 -25.74)"/><path class="cls-13" d="M73.5,83.55v.57c-1,1.33-1.28,3.21-3,4l-.56-1.56,1.52-2C72.07,84.05,72.55,83.32,73.5,83.55Z" transform="translate(-13.87 -25.74)"/><path class="cls-8" d="M74.5,84c.06-.69.08-1.4,1-1.45A1.31,1.31,0,0,1,74.5,84Z" transform="translate(-13.87 -25.74)"/><path class="cls-15" d="M82.5,73.07c-1,.41.15,2-1,2.08-.85.07-1.41-.67-1.46-1.6-.25-1,.78-2.47-1-3h0c-.24-.68-1.48-.6-1.24-1.61a.67.67,0,0,1,.58-.3c3.46,1.3,1.14-1.62,2.19-2.42-1.48,0-2.43.92-3.52.35v-.51A2.53,2.53,0,0,1,77.82,64c1.31-1.07,1.32-2.19-.77-2.42v-1l1.51-1,2-.48c-.72,1.15-2.06,2.24.08,3.41.89.49-.45,1.56.33,2.43.78-.59,1.61-1.91,2.63-.33a3.39,3.39,0,0,1-.51,2c-1.17,1.13-.92,2.72-1.3,4.09-.3,1.1.7.8,1.26.93Z" transform="translate(-13.87 -25.74)"/><path class="cls-11" d="M83,71.57c-.56-.13-1.57.17-1.26-.93.38-1.38.14-3,1.3-4.09,1.35-.48,2.52-.28,1.88,1.4-.46,1.21.31,1.73.59,2.55l-.46.11C84.1,70.4,83.69,71.3,83,71.57Z" transform="translate(-13.87 -25.74)"/><path class="cls-15" d="M84,63.05c-2.67.14-.62-2.34-1.71-3.26-.29-.25,1-.56,1.7-.21,0,.53-.08,1.11.48,1.48A3,3,0,0,1,84,63.05Z" transform="translate(-13.87 -25.74)"/><path class="cls-15" d="M49.5,91.54V91a.93.93,0,0,0-.85-1H48.5c1.18-.65,3-.18,3.52-2,2.86,1.1,1.67-.84,1.5-2,.85,0,1.28.72,2,1,.22,1-.68,2.57,1.41,2.46.15.54,1.17,1.39-.48,1.27-.94-.07-1.88.23-2.75-.54a.92.92,0,0,0-1.41.52c-.26.62.3.58.63.8,1.62,1,.8,1.8-.36,2.48C52.23,92.35,50.5,92.37,49.5,91.54Z" transform="translate(-13.87 -25.74)"/><path class="cls-2" d="M49.5,91.54c1,.83,2.72.81,3,2.5v1a2.69,2.69,0,0,0-1,2.52l-.63.09c-.57-.42-.63-1.31-1.41-1.53.39-1.87-1-2.75-2.31-3.57C47.95,91.72,49,92.41,49.5,91.54Z" transform="translate(-13.87 -25.74)"/><path class="cls-16" d="M55.5,87c-.68-.28-1.12-1-2-1-.21-.56-.9-1.15-.2-1.71s1.17,0,1.59.55c.73.93,1.29.91,1.6-.31h3l.12,1.73c-.87.31-1.36-1.16-2.18-.56s.23,1.19.07,1.81H57Z" transform="translate(-13.87 -25.74)"/><path class="cls-8" d="M51.56,97.52a2.69,2.69,0,0,1,1-2.52c.56.55,1,1.27,2,1l-.05,1.9L54,98Z" transform="translate(-13.87 -25.74)"/><path class="cls-13" d="M55.5,87l1.52.51c.51.68.09,1.31-.1,2C54.82,89.61,55.71,88,55.5,87Z" transform="translate(-13.87 -25.74)"/><path class="cls-2" d="M54.5,98l.05-1.9h1a1,1,0,0,0,.5,1v.48l-.5.53v1.48h0Z" transform="translate(-13.87 -25.74)"/><path class="cls-2" d="M56,95.05l-.48.5.2-1.07Z" transform="translate(-13.87 -25.74)"/><path class="cls-6" d="M55.5,99.54V98.06c.41.06.84.11.89.63S56,99.5,55.5,99.54Z" transform="translate(-13.87 -25.74)"/><path class="cls-9" d="M56,97.53v-.48l.65.24Z" transform="translate(-13.87 -25.74)"/><path class="cls-5" d="M86.5,54.6,85,55c-.2-1.14.45-1.47,1.43-1.47l.17.17Z" transform="translate(-13.87 -25.74)"/><path class="cls-6" d="M86.43,53.48c-1,0-1.62.33-1.43,1.47-.14.5-.55.57-1,.59-.58-.54-1.26-1-1-2,1.19-.6,1.74-2.37,3.51-1.94Z" transform="translate(-13.87 -25.74)"/><path class="cls-11" d="M33,73.05c-1-.07-1.56.28-1.52,1.37S30.8,75.57,30,75.56c-1.22.09-1.67-.34-1-1.52h0l.5-.49v-3c1-.17.79,1.18,1.91,1.26-.14-1.91.42-3.84-1.44-5.24-.53-.08-1-.24-.91-.9a1.45,1.45,0,0,1,1.42-1.13c1.09.66,1.47,1.87,2.19,2.81s1.46,1.21,2.32.18l2,.06v1c-1,.82.13,1.67,0,2.5h-.5C33.13,69.69,33.07,69.72,33,73.05Z" transform="translate(-13.87 -25.74)"/><path class="cls-7" d="M25,64.55c1.69,0,2.05,1.26,2.27,2.6.19,1.14-.71.79-1.26.9l-.59-.43C26.8,66.39,25.24,65.56,25,64.55Z" transform="translate(-13.87 -25.74)"/><path class="cls-2" d="M29.5,71v1.54h-3c-.36-1,.81-.93,1-1.52Z" transform="translate(-13.87 -25.74)"/><path class="cls-7" d="M29.5,71h-2a1.58,1.58,0,0,0,0-2c.67-.28,1.35-.93,2,0v2Z" transform="translate(-13.87 -25.74)"/><path class="cls-5" d="M24,71c0-.66.28-1.08,1-.87.14,0,.34.42.28.52-.26.5-.78.4-1.24.4Z" transform="translate(-13.87 -25.74)"/><path class="cls-7" d="M29.5,73.55,29,74Z" transform="translate(-13.87 -25.74)"/><path class="cls-12" d="M42.45,43.14c-.9-.59-2.29-.57-2.47-2l.05-.51c.85-.46,1.7-1,2.56,0l.47,2.48Z" transform="translate(-13.87 -25.74)"/><path class="cls-2" d="M43.06,43l-.47-2.48L44,40.08c.49.74,1.62.12,2.07,1C45.38,42.22,44.72,43.38,43.06,43Z" transform="translate(-13.87 -25.74)"/><path class="cls-16" d="M68.5,47.06A1.39,1.39,0,0,1,70,48.52a4.8,4.8,0,0,0,0,4.54c-1.17.16-1.3,1.08-1.47,2-.55.07-1,.23-.42.81a16.63,16.63,0,0,0,1.42,1.18c.31,1.62,1.61.79,2.49,1h1.5v1.48c-.68-.17-1.37-1.5-2,0-.7.56-.72-1.61-1.6-.38-.41.58-1.39.74-1.3,1.68.07.7.7.94,1.24,1.06.85.19,1.87.55,2.19-.8,1.07-.11,1.58.35,1.44,1.44-.17,1.3-1,1.06-1.87.81s-1.75-.45-1.43.78c.54,2.07-.84,3.62-1.14,5.44-.7.07-1.21.48-.86,1.13.57,1,0,1.92-.18,2.86a.89.89,0,0,1-1-1v-3c1.28-1.17-.28-2.34,0-3.52.67-.08,1.46-.25,1.32-1.07-.2-1.19-1.4-1.44-2.3-2,.16-1,1.56-.71,1.87-2-1.89.88-2.58-1.86-4.38-1,0-.65,0-1.72-.64-1.66-1.72.17-1.73-.84-2.12-2-.26-.8-1.21-2.44-2.25-.31a1,1,0,0,0-1,.5H54c-.64-1.54-2.55-1.18-3.5-2.34-.27-.33-1,0-.59.74.9,1.46-.23,1.45-1.11,1.58s-1.68-.24-2.32.52H46c0-.73,0-1.47-1-1.5h0c.07-2.11,1.33-3.44,3-4.52,1.58.3,2.76.1,2.5-2h1c2.34,1.63-.56,2.14-.87,3.48H53C53.42,54,54.5,55,56,54.68s2.89-1.07,2.45-3.08c.7-.35.42-1.62,1.51-1.6.19,1.31,1.21,1,2,1,1.32,1,2.6-.64,3.65-.22,1.68.67,2-.17,2.34-1.36Z" transform="translate(-13.87 -25.74)"/><path class="cls-11" d="M68.5,47.06,68,49.47c-1.85.62-1.07-2-2.43-2C65,46.56,67,45.18,65,44.54c-.59-.42-.37-.94-.3-1.52a1.83,1.83,0,0,0-1.55-2.07l-.28,0c-1.63.13-.14,1.39-.4,2.09H61c-.55-.49-.2-1.54-1.07-1.78-.19,0-.73.37-.71.51.36,2.26-1.48,2.26-2.8,2.79L56,44l.51-1c.61-.37.48-1,.47-1.53l1.74-1.65A2.18,2.18,0,0,0,57,39l.52-2.5h1.44c0,.88.8,1.33,1.07,2.06,1.87,2.2,3.87,1.52,5.9.29a18.68,18.68,0,0,0,2.4,5.27C68.77,44.9,68.5,46.08,68.5,47.06Z" transform="translate(-13.87 -25.74)"/><path class="cls-11" d="M74.56,53a1.09,1.09,0,0,1-1.06.58c-.12-.74.3-1.58-.46-2.32-.65.44-.82,1.67-1.95,1.27-.61-1.14,0-2.28,0-3.42a3.53,3.53,0,0,1,3.33,0Q74.5,51,74.56,53Z" transform="translate(-13.87 -25.74)"/><path class="cls-12" d="M65.93,38.88c-2,1.24-4,1.91-5.9-.29.86-.17,1.12-2,2.44-.9.08.31.16.68.57.65s.45-.4.51-.71h0C64.28,38.14,66.77,35.48,65.93,38.88Z" transform="translate(-13.87 -25.74)"/><path class="cls-12" d="M74.56,53l-.14-3.88c.09-.6.34-1,1-1-.65,2.58,1.32,1.81,2.55,2l-.49,1C75.93,50.75,76.34,53.53,74.56,53Z" transform="translate(-13.87 -25.74)"/><path class="cls-12" d="M71.09,49.14c0,1.14-.62,2.28,0,3.42a1.16,1.16,0,0,1-1.11.55,4.8,4.8,0,0,1,0-4.54A1.2,1.2,0,0,1,71.09,49.14Z" transform="translate(-13.87 -25.74)"/><path class="cls-9" d="M78,50.08c-1.23-.18-3.2.59-2.55-2v-.52h1C76.33,48.79,78.06,48.9,78,50.08Z" transform="translate(-13.87 -25.74)"/><path class="cls-8" d="M73.5,59.52V58c.38-.64,1.6-.41,1.53-1.5.53-.07,1.21-.4.85-.86-1.41-1.81,1.22-1.51,1.22-2.53.83.75,3-1.32,2.91,1.37l-.61,1.59c-1.73-.14-2.52.29-1.29,2a4.64,4.64,0,0,1,.41,1.39l-1.51,1c-1.1,0-1.78-1.34-3-1Z" transform="translate(-13.87 -25.74)"/><path class="cls-8" d="M70,53.06a1.16,1.16,0,0,0,1.11-.55c1.13.4,1.3-.84,1.95-1.27.77.73.34,1.58.46,2.32-.59.37-.48,1-.52,1.52-2.81.18-.13,2.16-1,3-.88-.21-2.18.61-2.49-1,.7-.06,1.12-.41.86-1.13s-1.11-.86-1.86-.87C68.67,54.14,68.81,53.22,70,53.06Z" transform="translate(-13.87 -25.74)"/><path class="cls-11" d="M78.5,59.54a4.64,4.64,0,0,0-.41-1.39c-1.23-1.77-.44-2.19,1.29-2l1.1,1V59Z" transform="translate(-13.87 -25.74)"/><path class="cls-12" d="M72,58.05c.85-.82-1.83-2.8,1-3,0,1.4,1.64.59,2,1.47.07,1.09-1.15.86-1.53,1.5Z" transform="translate(-13.87 -25.74)"/><path class="cls-12" d="M80.5,57.14l-1.1-1L80,54.55c.28.28.55.57.85.83.48.41,1.73,0,1.48,1.11C82.14,57.4,81.13,56.93,80.5,57.14Z" transform="translate(-13.87 -25.74)"/><path class="cls-15" d="M35,67.52c-.86,1-1.61.73-2.32-.18s-1.11-2.15-2.19-2.81v-.94l1.46,0c1.35.16,1.84,1.6,3,2Z" transform="translate(-13.87 -25.74)"/><path class="cls-9" d="M29.5,70.54V69.07c.8-.71.33-1.67.48-2.51,1.86,1.4,1.29,3.34,1.44,5.24C30.31,71.72,30.5,70.37,29.5,70.54Z" transform="translate(-13.87 -25.74)"/><path class="cls-11" d="M32,63.54l-1.46,0c-1.88-.72.07-2.1-.52-3h2v2Z" transform="translate(-13.87 -25.74)"/><path class="cls-13" d="M56,44.07l.45.5c-1.56.5-3.34.75-3.46,3H52c-.1-.36-.15-.9-.68-.68s-.17.51.1.73l.05,1.51h-1L48.55,49c-.19-.65.86-1.3,0-1.94.25-1.18-.95-1.86-1-2.93.41,0,.94-.19,1.2,0,2,1.45,3.65.75,5.28-.59A3,3,0,0,0,56,44.07Z" transform="translate(-13.87 -25.74)"/><path class="cls-9" d="M47.5,44.14c.07,1.07,1.27,1.75,1,2.93a3,3,0,0,0-1,1.55c-1.29,0-2.09-1.48-3.49-1.06v-1c1.34.12,2-.47,2-1.84,0-.75-.05-1.54,1-1.65l2.5.06C49.06,43.85,47.89,43.21,47.5,44.14Z" transform="translate(-13.87 -25.74)"/><path class="cls-2" d="M57.5,36.54,57,39l-1,1.09-1-.55-1-1V38C55.5,38.31,56.06,36.37,57.5,36.54Z" transform="translate(-13.87 -25.74)"/><path class="cls-15" d="M55,39.57l1,.55c0,.71,0,1.38,1,1.42,0,.56.14,1.16-.47,1.53a3.83,3.83,0,0,0-2.49-.53C53.86,41.38,54.56,40.52,55,39.57Z" transform="translate(-13.87 -25.74)"/><path class="cls-15" d="M49.5,43.14,47,43.08v-1h1c1.09.28,1.47-.6,2.08-2C50.42,41.68,51.13,42.64,49.5,43.14Z" transform="translate(-13.87 -25.74)"/><path class="cls-9" d="M54,42.54a3.83,3.83,0,0,1,2.49.53l-.51,1a3,3,0,0,1-2-.53Z" transform="translate(-13.87 -25.74)"/><path class="cls-9" d="M48,42H47a1,1,0,0,1-.49-1h1A1,1,0,0,1,48,42Z" transform="translate(-13.87 -25.74)"/><path class="cls-8" d="M46.5,41.07a1,1,0,0,0,.49,1v1c-1.06.11-1,.9-1,1.65,0,1.37-.64,2-2,1.84.32-1.29,1.16-3-1.52-2V43.11l.61-.07c1.66.33,2.32-.82,3-2Z" transform="translate(-13.87 -25.74)"/><path class="cls-8" d="M63.5,37.63c-.06.32-.11.69-.51.71s-.49-.33-.57-.65Z" transform="translate(-13.87 -25.74)"/><path class="cls-13" d="M59.5,84.55h-2c.09-2,3.1-1.4,3-3.51.16,0,.41,0,.46-.12.7-1.33,1.23-2.81,2.88-.66.48.63,1.54.23,1.26-.86-.17-.66.47-1.28-.08-1.86A4.13,4.13,0,0,0,65.49,75V74c.69-.42,1.19-.29,1.49.49a4.32,4.32,0,0,0,.59,3.34c.34.66.08.78,2.82,1.24.22,0,.4.27.6.41l-.51.52c-1.69-.71-1.38.62-1.51,1.49-.32,0-.79.06-.95-.12-1.1-1.23-2.19-.74-3.22,0-1.35,1,.49,1.38.47,2.12,0,.2-.23.39-.36.58-1.34,0-2.32-2.46-3.94-.59C60.22,83.47,60,84.25,59.5,84.55Z" transform="translate(-13.87 -25.74)"/><path class="cls-9" d="M61,83.55c1.62-1.87,2.6.55,3.94.59l.58,1.34V87H65c-.76-1.78-2.33-.68-3.51-1Z" transform="translate(-13.87 -25.74)"/><path class="cls-11" d="M65.5,87V85.48H67c.77.79.9.19,1-.46l1-1c.83.15,1.79-.33,2.48.5l-1.52,2c-1.13.28-2.22.88-3.45.48-.18-.27-.35-.24-.51,0H65.5Z" transform="translate(-13.87 -25.74)"/><path class="cls-9" d="M66,87c.16-.27.33-.29.51,0Z" transform="translate(-13.87 -25.74)"/><path class="cls-11" d="M52,88c-.51,1.84-2.33,1.36-3.52,2H48V89c-.5-.61,1.84.08.47-1.18-1.09-1-.06-1.62,1-1.85L51,85.55C52.11,86.07,52,87.14,52,88Z" transform="translate(-13.87 -25.74)"/><path class="cls-11" d="M48.5,90a.93.93,0,0,1,1,1,.88.88,0,0,1-1-1Z" transform="translate(-13.87 -25.74)"/><path class="cls-16" d="M35.5,62.05H37c.82,1.55,1.69,1.74,3,.36.91-1,2.35-1.49,2-3.21,3.43-.39,1.06-2.32,1-3.64v-.51a3.17,3.17,0,0,1,2,.5h0v1.5c-.85,1.17.3,2.34,0,3.52-1.1,0-2.14.22-1.94,1.57.22,1.53,1.55.71,2.41.88h2c.42.29.52.69.17,1-1,1-.56,1.75.34,2.46-1.74,1.86-.47,3,1,4a5.08,5.08,0,0,0-.5,3,3.44,3.44,0,0,0,.51,2c-1.35,1.12-5.53,1.6-6.55.48-.69-.75-2.29-.92-2-2.49v-1a9.5,9.5,0,0,0,1.66.46c1.08.1,3.62-2.07,3.15-2.63a6.12,6.12,0,0,0-2.54-2.16c-1-.29-.72,1.25-1.27,1.81l-.5.54-.52-1a2.84,2.84,0,0,0-1-2.54l-.49-1a1.68,1.68,0,0,0,.49-.07c.87-.42,1.92-.57,2.41-1.54a.77.77,0,0,0-.19-.62A3.73,3.73,0,0,0,38.82,65h-.47c-.1-1.3-1.21-.78-1.88-1.08S34.28,63.55,35.5,62.05ZM47.91,73.67c0-.54-.05-1.1-.74-1s-1,.84-1.1,1.48a.89.89,0,0,0,.57,1.12l.11,0c1.11,0,.66-1.16,1.18-1.63Zm-2.82-5.3c1,.15,1.31-.14,1.31-.59a1.08,1.08,0,0,0-1-1.15.65.65,0,0,0-.81.67,1.17,1.17,0,0,0,.52,1.07ZM42,66.22c-.12.07-.31.12-.33.22s.08.25.13.38l.46-.29Z" transform="translate(-13.87 -25.74)"/><path class="cls-13" d="M43,55.56c.1,1.32,2.47,3.25-1,3.64.31,1.71-1.13,2.24-2,3.21-1.3,1.38-2.17,1.19-3-.36h1c.95-1.31.56-1.94-1-2v-2c.86-.15,2.66.52,1.29-1.54-.59-.88.55-1.26.7-1.94.82-.85.59-1.31-.53-1.45H37c-.6-.37-.52-1-.54-1.54l2.42-.14c1.14.14,1.38,1.6,2.6,1.71.83.07,1.9,1,2.31-.24.31-.9.86-2.32-.83-2.84V47.64l1-.08c1.4-.43,2.21,1.1,3.49,1V49l.49,2c-1.64,1.08-2.9,2.41-3,4.52a3.17,3.17,0,0,0-2-.5L42.73,55c-.65-.4-1.22-1.27-2.07-.33-.27.29-.73.64-.45,1,.63.85,1.3-.09,2-.07A4.88,4.88,0,0,0,43,55.56Z" transform="translate(-13.87 -25.74)"/><path class="cls-9" d="M35.5,62.05c-1.24,1.5.29,1.58,1.06,1.91s1.78-.22,1.88,1.08a.9.9,0,0,0-1,1L35,65.59c-1.17-.43-1.66-1.87-3-2v-1C33.28,63.14,34.13,60.68,35.5,62.05Z" transform="translate(-13.87 -25.74)"/><path class="cls-11" d="M38.92,51.43l-2.42.14a3.38,3.38,0,0,0-1-2.08L36,47.61a2,2,0,0,1,.06-.48H37c-.11,1.13.05,2,1.52,1.43a1.07,1.07,0,0,1,.54,1Z" transform="translate(-13.87 -25.74)"/><path class="cls-8" d="M37,53.14H38.5c.06.53,0,1.11.53,1.45-.15.68-1.29,1.06-.7,1.94,1.38,2.06-.43,1.39-1.29,1.54C36.75,56.39,36.11,54.74,37,53.14Z" transform="translate(-13.87 -25.74)"/><path class="cls-11" d="M32.5,58,32,57l.5-1.49c.55-.1,1.1-.22,1.66-.31,1-.17,1.3.48,1.35,1.28s.08,1.66-1.12,1.18c-1.4-.55-1.22.94-1.87,1.36Z" transform="translate(-13.87 -25.74)"/><path class="cls-16" d="M37,60.06c1.57,0,2,.65,1,2Z" transform="translate(-13.87 -25.74)"/><path class="cls-8" d="M36.05,47.14a2,2,0,0,1-.06.48,1.16,1.16,0,0,1-1-.51Z" transform="translate(-13.87 -25.74)"/><path class="cls-12" d="M39,49.55a1.07,1.07,0,0,0-.54-1c.14-1.38,1.21-.9,2-1H42l1,.08v2.43C41.62,50.38,40.5,48.54,39,49.55Z" transform="translate(-13.87 -25.74)"/><path class="cls-11" d="M43,47.63l-1-.08v-2l.51-1c2.68-1,1.84.68,1.52,2v1Z" transform="translate(-13.87 -25.74)"/><path class="cls-9" d="M41,47.56H40.5C40.67,47.21,40.84,47.22,41,47.56Z" transform="translate(-13.87 -25.74)"/><path class="cls-13" d="M40.5,73.54c-.34,1.57,1.27,1.74,2,2.49,1,1.12,5.2.64,6.55-.48,2.38,0,1.2,1.84,1.46,2.93-.91.4-1.84-.94-2.64,0-.17.19.43,1,.67,1.61-.72.54-.43,1.32-.49,2l-.07,2H46.5A2.82,2.82,0,0,0,43,82.55v-.44c.46-.68,0-1.34,0-2l.53-.52,1-.49c.15.76-.94,1.47-.11,2.27,1.77-1.74,1.77-1.74.11-2.27-1.44-1.84-2.1-2.08-2.55-.93-.81,2.08-1.8,1.35-2.91.4-.42-.57-.54-1.45-1.5-1.47V74.66C38.5,74.14,39.28,73.21,40.5,73.54Z" transform="translate(-13.87 -25.74)"/><path class="cls-8" d="M40.5,73.54c-1.22-.33-2,.65-2.93,1.06-.68-1-1.4.12-2.09,0h-1V73.09l2-2h.44c.7.31,1.46.76,1.55-.57.1-1.55,1.12-1,2-.89l.52,1-.51,2Z" transform="translate(-13.87 -25.74)"/><path class="cls-8" d="M44.5,79.05l-1,.49c-.18-.29-.44-.5-.72-.22s-.08.55.19.74c0,.67.49,1.33,0,2h-.52a1.06,1.06,0,0,0-1-.48c-.87-.9-2-.39-3-.47L39,78.55c1.11,1,2.1,1.68,2.91-.4.45-1.16,1.11-.91,2.55.93Z" transform="translate(-13.87 -25.74)"/><path class="cls-12" d="M46.5,84.05h1.44c1.53-.14,1.64.83,1.53,2-1.07.24-2.1.86-1,1.85,1.37,1.26-1,.57-.47,1.18C46.74,89,47,88,47,87.2A6,6,0,0,0,46.5,84.05Z" transform="translate(-13.87 -25.74)"/><path class="cls-12" d="M36.5,71l-2,2H33C33.07,69.72,33.13,69.69,36.5,71Z" transform="translate(-13.87 -25.74)"/><path class="cls-15" d="M34.5,74.55h1c.57.76-1,1.94.5,2.51l-.77,2.52C33.62,77.87,34,76.22,34.5,74.55Z" transform="translate(-13.87 -25.74)"/><path class="cls-11" d="M36,77.06c-1.53-.57.07-1.76-.5-2.51.69.16,1.41-.92,2.09,0V77Z" transform="translate(-13.87 -25.74)"/><path class="cls-12" d="M38.5,81.08c1,.08,2.09-.43,3,.47a1.91,1.91,0,0,0-1.5.77c-.49.53-1,.86-1.73.35C37.3,82,38.84,81.67,38.5,81.08Z" transform="translate(-13.87 -25.74)"/><path class="cls-12" d="M42.5,82H43v.44C42.77,82.42,42.08,82.83,42.5,82Z" transform="translate(-13.87 -25.74)"/><path class="cls-11" d="M79,70.55c1.77.53.73,2,1,3l-1.93-.5C76.73,71.59,79.19,71.57,79,70.55Z" transform="translate(-13.87 -25.74)"/><path class="cls-2" d="M79,78.63c-.26-.15-.61-.24-.76-.47s.09-.5.38-.42a1.43,1.43,0,0,1,.83.45C79.71,78.55,79.26,78.45,79,78.63Z" transform="translate(-13.87 -25.74)"/><path class="cls-13" d="M73.5,59.52l.47.06c.19.91.36,1.84,1.54,2-1.36,3.3-1.36,3.3,1.47,4.5v.51l-1.1,2.46c-.66,0-1.42.25-1.91-.48,1.53-1.8.57-2.21-1.63-2.2,1.55,1.09-1,2.86,1.14,3.7l.09.6v1.8L73,74.56A2.72,2.72,0,0,1,71,74a4.15,4.15,0,0,0,.23-4.54c-.46-1-1.46.19-2.23.06.3-1.82,1.68-3.36,1.14-5.44-.32-1.22.65-1,1.43-.78s1.7.49,1.87-.81c.14-1.09-.36-1.55-1.44-1.44-.59-.38-.51-1-.53-1.55C72.15,58,72.84,59.35,73.5,59.52Z" transform="translate(-13.87 -25.74)"/><path class="cls-8" d="M71,74a2.72,2.72,0,0,0,2,.52c1,.13,2.26.76,2.2,1.59-.08,1.25-1.76,1.24-2.65,1.92H71.5l-.42-.5a4.73,4.73,0,0,0-1.58-3C69.85,74,70.5,74.06,71,74Z" transform="translate(-13.87 -25.74)"/><path class="cls-9" d="M75.91,69,77,66.57c1.09.57,2-.33,3.52-.34-1.05.8,1.27,3.72-2.19,2.42a.67.67,0,0,0-.58.3c-.25,1,1,.93,1.24,1.61C77.68,70.63,75.9,71.63,75.91,69Z" transform="translate(-13.87 -25.74)"/><path class="cls-8" d="M71.5,84.53c-.7-.83-1.65-.35-2.48-.5V81.54c.14-.87-.17-2.2,1.51-1.49.37,1.6,1.81,2.13,3,3v.53C72.55,83.32,72.07,84.05,71.5,84.53Z" transform="translate(-13.87 -25.74)"/><path class="cls-11" d="M73.5,83c-1.15-.82-2.59-1.35-3-3L71,79.5c.59-.36.47-1,.48-1.5h1c-.59,1.18.06,1.88.95,2.5l.07,1Z" transform="translate(-13.87 -25.74)"/><path class="cls-9" d="M73.59,72.45v-1.8c2.87-.28,2.07,2.4,3.11,3.65C74.56,75.32,75.34,71.88,73.59,72.45Z" transform="translate(-13.87 -25.74)"/><path class="cls-16" d="M73.5,70.05c-2.18-.84.41-2.61-1.14-3.7,2.2,0,3.16.4,1.63,2.2C73.41,68.91,73.5,69.5,73.5,70.05Z" transform="translate(-13.87 -25.74)"/><path class="cls-8" d="M73.56,81.58l-.07-1C74,80.86,74,81.21,73.56,81.58Z" transform="translate(-13.87 -25.74)"/><path class="cls-9" d="M77,66.06c-2.83-1.19-2.83-1.19-1.47-4.5a1.25,1.25,0,0,0,1.47,0c2.09.23,2.08,1.34.77,2.42C77,64.64,77.07,65.3,77,66.06Z" transform="translate(-13.87 -25.74)"/><path class="cls-12" d="M77,61.55a1.25,1.25,0,0,1-1.47,0c-1.18-.15-1.35-1.07-1.54-2,1.23-.35,1.9,1,3,1Z" transform="translate(-13.87 -25.74)"/><path class="cls-13" d="M52,88c-.07-.94.08-2-1-2.49-.1-1.44.1-2.64,2-2.48,1,.27,1.78.12,2-1.06.1-.55.33-1,1-.8s.55.79.31,1.24a2.07,2.07,0,0,0,.24,2.12c-.31,1.23-.87,1.24-1.6.31-.42-.53-.92-1.08-1.59-.55s0,1.15.2,1.71C53.69,87.2,54.89,89.14,52,88Z" transform="translate(-13.87 -25.74)"/><path class="cls-12" d="M56.5,84.56a2.07,2.07,0,0,1-.24-2.12c.24-.46.32-1-.31-1.24s-.86.25-1,.8c-.22,1.19-1,1.33-2,1.06v-1c.68-.11,1.14-.32.63-1.11-.4-.62-.75-1.27-1.13-1.9.52-.71,1.29-.43,2-.48.85.9,1.7-.36,2.55,0,1.46-.4,1.68,1.64,3,1.52l.5,1c.1,2.11-2.91,1.56-3,3.51Z" transform="translate(-13.87 -25.74)"/><path class="cls-12" d="M40.5,69.58c-.86-.15-1.88-.66-2,.89-.09,1.34-.85.88-1.55.57.17-.83-1-1.68,0-2.5a.88.88,0,0,0,1-1h0l1.49-.5A2.84,2.84,0,0,1,40.5,69.58Z" transform="translate(-13.87 -25.74)"/><path class="cls-13" d="M35,65.57,37.5,66,38,67.55H37l-2-.06Q35,66.54,35,65.57Z" transform="translate(-13.87 -25.74)"/><path class="cls-8" d="M37,67.58h1a.88.88,0,0,1-1,1Z" transform="translate(-13.87 -25.74)"/><path class="cls-14" d="M57,78.55c-.85-.34-1.69.92-2.55,0a4.68,4.68,0,0,0,.53-3V74.42a1.93,1.93,0,0,0,.63.36c.85.11,1.76,1.15,2.47.4.94-1-.57-1.23-.95-1.81s.69-1.27-.22-1.7l-2,.88c-1,0-2.16-.46-3,.51H50.46l-.52-2.53V69c1.06.3,1.73-.88,2.5-.81,1.19.55-.81,2.09.92,2.12.66,0,1.25-.79,1.48-1.52a1.26,1.26,0,0,0-.71-1.63l0,0A5.89,5.89,0,0,0,51,66.57c-1.15-2,1.08-3.27,1-5,1.38-.12,1.48-2.16,3-2,.55,1.53,1,3-1.63,3.49,1.22.61,2,.78,2.53-.15.33-.57.8-1.16,1.29-.58,1.08,1.27,2.17.1,3.23.2.6.06,1.32-.17,1.29-.85s-.86-.57-1.39-.59c-1.61-.08-3.42.45-4.37-1.52,0-1.1,1.17-.85,1.58-1.47.54.56,1,1.17,2,1,.81,1.57,2.55-.08,3.5,1-.5,2.12,1.48,2.17,2.52,3-1.19,1.83-.08,2.52,1.47,3-.27,1.17,1.28,2.34,0,3.52H66a2.05,2.05,0,0,0-3.08.8c-.41,1,1,.43,1.54.67,0,.55-.05,1.14.53,1.5l.52,1.51v1c-.73,0-1.62.25-2.15-.08-2.22-1.39-2,.47-2.32,1.62l-1,1C58.91,77.62,57.21,75.79,57,78.55Zm1.94-9.4c-.59,0-.93.23-.74.73.31.8.23,1.93,1.44,2.08a.6.6,0,0,0,.73-.74c-.2-.89-.47-1.78-1.43-2.08Zm3.36-3.69c-.25-.84-1-1-1.69-1.22a.69.69,0,0,0-.88.64c.07.94.94,1,1.64,1.13a.69.69,0,0,0,.93-.56Z" transform="translate(-13.87 -25.74)"/><path class="cls-13" d="M46.5,57.05c.64-.77,1.53-.41,2.32-.52s2-.12,1.11-1.58c-.43-.69.32-1.07.59-.74,1,1.16,2.87.8,3.5,2.34-1.5.7-2.63,1.66-2.52,3.51v1a1.54,1.54,0,0,1-1.52-1c0-.89.25-1.92-.84-2.37-.73-.3-1.06.17-1.14.86C47.36,58.2,46.5,58,46.5,57.05Z" transform="translate(-13.87 -25.74)"/><path class="cls-8" d="M51.5,49.05l-.05-1.51.58,0H53c.53.41.65,2,1.82.54.7-.84,1.3-.28,1.7.49L56,51c-.79,1-2.62-.26-3,1.47H50.67C50.95,51.19,53.85,50.68,51.5,49.05Z" transform="translate(-13.87 -25.74)"/><path class="cls-12" d="M71,74c-.56,0-1.16-.07-1.52.53l-1,.49-.49-.5v-1c.16-.94.75-1.81.18-2.86-.35-.65.15-1.06.86-1.13.77.12,1.77-1.06,2.23-.06A4.15,4.15,0,0,1,71,74Z" transform="translate(-13.87 -25.74)"/><path class="cls-13" d="M53,52.53c.41-1.73,2.25-.52,3-1.47a.65.65,0,0,1,.26.88l-.08.12c-.27.42-1,.91-.16,1.35.56.3,1.1-.12,1.33-.69a4.85,4.85,0,0,0,.16-1.17l.95.07c.44,2-1,2.78-2.45,3.08S53.42,54.05,53,52.53Z" transform="translate(-13.87 -25.74)"/><path class="cls-9" d="M58.5,51.62l-.95-.07c-.33-.71-.82-1.39.08-2.11a.79.79,0,0,0-.09-1.39,2,2,0,0,1,2.73-1.71c1.25.33-.65,1-.21,1.72,0,.65.43,1.32-.05,2C58.88,50,59.15,51.27,58.5,51.62Z" transform="translate(-13.87 -25.74)"/><path class="cls-12" d="M51.5,61V60c1.24-1.27,3.48-1.41,4-3.5h2v1.53c-.41.61-1.62.37-1.58,1.46H55c-1.55-.14-1.65,1.9-3,2Z" transform="translate(-13.87 -25.74)"/><path class="cls-15" d="M63,60.06c-.95-1.09-2.69.56-3.5-1-.08-1.08.39-2.35-1-3,1-2.13,2-.5,2.25.31.39,1.19.4,2.2,2.12,2,.64-.06.62,1,.64,1.66Z" transform="translate(-13.87 -25.74)"/><path class="cls-12" d="M46.5,57.05c0,1,.87,1.15,1.51,1.51V59c-1.92.81-.55,2.85-1.51,4h-1c-.08-.83.35-1.76-.47-2.45.3-1.17-.86-2.34,0-3.52H46.5Z" transform="translate(-13.87 -25.74)"/><path class="cls-12" d="M65.56,47.49c1.35,0,.58,2.59,2.43,2-.35,1.19-.66,2-2.34,1.36-1-.42-2.33,1.21-3.65.22l.47-.49c2.34.35,2.15-1.86,3-3Z" transform="translate(-13.87 -25.74)"/><path class="cls-8" d="M63,60.06h.51c1.79-.87,2.48,1.87,4.38,1-.31,1.29-1.72,1-1.87,2h-.5C64.5,62.23,62.5,62.14,63,60.06Z" transform="translate(-13.87 -25.74)"/><path class="cls-12" d="M71.5,59.54c0,.57-.06,1.17.53,1.55-.33,1.35-1.34,1-2.19.8-.54-.12-1.17-.35-1.24-1.06-.09-.94.89-1.1,1.3-1.68C70.77,57.93,70.79,60.14,71.5,59.54Z" transform="translate(-13.87 -25.74)"/><path class="cls-15" d="M65.5,63.06H66c.9.5,2.1.76,2.3,2,.14.82-.65,1-1.32,1.07C65.43,65.58,64.31,64.89,65.5,63.06Z" transform="translate(-13.87 -25.74)"/><path class="cls-15" d="M55.5,56.56c-.53,2.09-2.76,2.23-4,3.5-.11-1.85,1-2.81,2.52-3.51Z" transform="translate(-13.87 -25.74)"/><path class="cls-9" d="M48,51l-.49-2h1l1.95.09C50.74,51.14,49.55,51.34,48,51Z" transform="translate(-13.87 -25.74)"/><path class="cls-12" d="M65,72.56c-.58-.35-.5-1-.53-1.5A1.43,1.43,0,0,0,66,69.59h1v3Z" transform="translate(-13.87 -25.74)"/><path class="cls-8" d="M58.5,56.05c1.39.65.92,1.92,1,3-.91.2-1.42-.41-2-1V56.52A1,1,0,0,1,58.5,56.05Z" transform="translate(-13.87 -25.74)"/><path class="cls-13" d="M62.5,50.55,62,51c-.82,0-1.84.29-2-1,.48-.64,0-1.31.05-2h1C60.5,49.48,62.5,49.39,62.5,50.55Z" transform="translate(-13.87 -25.74)"/><path class="cls-13" d="M68.5,55c.75,0,1.55,0,1.86.87S70.2,57,69.5,57a16.66,16.66,0,0,1-1.42-1.18C67.5,55.28,68,55.14,68.5,55Z" transform="translate(-13.87 -25.74)"/><path class="cls-15" d="M65,72.56h2a.89.89,0,0,0,1,1v1H67c-.29-.78-.8-.91-1.49-.49Z" transform="translate(-13.87 -25.74)"/><path class="cls-13" d="M46,57.05H45v-1.5C46,55.58,46,56.32,46,57.05Z" transform="translate(-13.87 -25.74)"/><path class="cls-15" d="M61,48.05H60c-.44-.67,1.46-1.39.21-1.72A2,2,0,0,0,57.5,48l-1,.49c-.4-.77-1-1.33-1.7-.49-1.18,1.43-1.29-.14-1.82-.54.12-2.2,1.9-2.45,3.46-3,1.32-.54,3.17-.53,2.8-2.79,0-.14.52-.56.71-.51.87.24.53,1.29,1.07,1.78a11.1,11.1,0,0,0,1.15,2.33c.62.76,1.48,1.2,1.82-.33h1l-.49,2.49C63.42,48.25,62.2,48,61,48.05Z" transform="translate(-13.87 -25.74)"/><path class="cls-9" d="M64,45c-.34,1.53-1.2,1.1-1.82.33A11.1,11.1,0,0,1,61,43H62.5C63.29,43.47,64.41,43.67,64,45Z" transform="translate(-13.87 -25.74)"/><path class="cls-8" d="M64,45c.42-1.37-.7-1.57-1.52-2,.27-.71-1.22-2,.4-2.09A1.83,1.83,0,0,1,64.7,43c-.07.59-.29,1.11.3,1.52V45Z" transform="translate(-13.87 -25.74)"/><path class="cls-12" d="M57,41.54c-1,0-1-.72-1-1.42L57,39a2.18,2.18,0,0,1,1.73.86Z" transform="translate(-13.87 -25.74)"/><path class="cls-12" d="M65,45.05v-.48c2,.63,0,2,.55,2.93l-.07.06h-1Z" transform="translate(-13.87 -25.74)"/><path class="cls-15" d="M48.5,49h-1v-.43c.28-.56.44-1.2,1-1.55C49.39,47.7,48.34,48.35,48.5,49Z" transform="translate(-13.87 -25.74)"/><path class="cls-15" d="M52,47.49l-.58,0c-.27-.22-.5-.56-.1-.73S51.93,47.14,52,47.49Z" transform="translate(-13.87 -25.74)"/><path class="cls-15" d="M69,81.55V84l-1,1a1,1,0,0,0-1,.46H65.51l-.58-1.34c.12-.19.35-.38.36-.58,0-.74-1.82-1.12-.47-2.12,1-.76,2.11-1.25,3.22,0C68.2,81.6,68.67,81.51,69,81.55Z" transform="translate(-13.87 -25.74)"/><path class="cls-16" d="M67,74.55h1l.49.5c.41,1.3.8,2.62,2.58,2.51l.42.5c0,.55.1,1.14-.48,1.5-.2-.14-.38-.37-.6-.41-2.74-.46-2.48-.58-2.82-1.24A4.32,4.32,0,0,1,67,74.55Z" transform="translate(-13.87 -25.74)"/><path class="cls-16" d="M60.5,81,60,80c.58-.37.48-1,.48-1.51,1.6.2,2.23-2.18,4-1.52l.53.5c.55.58-.08,1.21.08,1.86.28,1.09-.78,1.49-1.26.86-1.65-2.15-2.17-.67-2.88.66C60.92,81,60.66,81,60.5,81Z" transform="translate(-13.87 -25.74)"/><path class="cls-15" d="M65,77.54l-.53-.5c-.86-2.3-2.37.08-3.47-.47.34-1.15.1-3,2.32-1.62.53.33,1.42.07,2.15.08A4.13,4.13,0,0,1,65,77.54Z" transform="translate(-13.87 -25.74)"/><path class="cls-9" d="M67,85.52a1,1,0,0,1,1-.46C67.89,85.71,67.76,86.31,67,85.52Z" transform="translate(-13.87 -25.74)"/><path class="cls-16" d="M53,82.07v1c-1.89-.16-2.09,1-2,2.48L49.46,86c.11-1.14,0-2.1-1.53-2q0-1,.07-2c1.21.08,2.5.68,3.5-.55Z" transform="translate(-13.87 -25.74)"/><path class="cls-15" d="M55,75.6a4.68,4.68,0,0,1-.53,3c-.68,0-1.45-.23-2,.49H51l-.55-.57c-.26-1.09.92-2.9-1.46-2.93a3.44,3.44,0,0,1-.5-2c.69-.06,1.46.23,2-.47h1.46C52,75.08,54.05,74.69,55,75.6Z" transform="translate(-13.87 -25.74)"/><path class="cls-8" d="M51.5,61l.49.52c.08,1.76-2.15,3.06-1,5-.09.92-2.34,1-1,2.47v1.49H49c-1.47-1-2.75-2.15-1-4a23.23,23.23,0,0,0,2-6.46A1.54,1.54,0,0,0,51.5,61Z" transform="translate(-13.87 -25.74)"/><path class="cls-13" d="M40.5,72.55l.51-2c.17-.18.33-.37.5-.54.55-.56.28-2.1,1.27-1.81a6.12,6.12,0,0,1,2.54,2.16c.47.57-2.07,2.74-3.15,2.63A9.5,9.5,0,0,1,40.5,72.55Z" transform="translate(-13.87 -25.74)"/><path class="cls-15" d="M50,60.08a23.23,23.23,0,0,1-2,6.46c-.89-.71-1.34-1.46-.34-2.46a.59.59,0,0,0-.17-1c-.14-1.37,2.91-2.34.52-4V58.6c.08-.69.41-1.16,1.14-.86C50.23,58.14,50,59.19,50,60.08Z" transform="translate(-13.87 -25.74)"/><path class="cls-13" d="M45,60.57c.82.69.38,1.62.47,2.45-.86-.17-2.19.64-2.41-.88C42.88,60.78,43.92,60.54,45,60.57Z" transform="translate(-13.87 -25.74)"/><path class="cls-13" d="M48,59c2.39,1.67-.66,2.63-.52,4h-1C47.5,61.89,46.09,59.85,48,59Z" transform="translate(-13.87 -25.74)"/><path class="cls-9" d="M49,70.55h1l.52,2.53c-.54.7-1.31.41-2,.47A5.08,5.08,0,0,1,49,70.55Z" transform="translate(-13.87 -25.74)"/><path class="cls-13" d="M38.92,65.08a3.73,3.73,0,0,1,2.78-1.24.77.77,0,0,1,.19.62c-.49,1-1.54,1.12-2.41,1.54a1.67,1.67,0,0,1-.49.07Z" transform="translate(-13.87 -25.74)"/><path class="cls-13" d="M47.93,73.67c-.52.48-.06,1.68-1.16,1.62a.89.89,0,0,1-.71-1l0-.11c.14-.64.31-1.37,1.1-1.48S47.92,73.14,47.93,73.67Z" transform="translate(-13.87 -25.74)"/><path class="cls-12" d="M43,55.56h-.73c-.67,0-1.35.92-2,.07-.28-.39.18-.73.45-1,.85-.94,1.43-.07,2.07.33l.22.11Z" transform="translate(-13.87 -25.74)"/><path class="cls-13" d="M45.11,68.37a1.17,1.17,0,0,1-.53-1.06.65.65,0,0,1,.81-.67,1.08,1.08,0,0,1,1,1.15C46.42,68.23,46.12,68.53,45.11,68.37Z" transform="translate(-13.87 -25.74)"/><path class="cls-8" d="M38.92,65.08l.07,1,.49,1-1.49.5-.49-1.53a.9.9,0,0,1,.79-1h.21Z" transform="translate(-13.87 -25.74)"/><path class="cls-13" d="M42,66.23l.26.31-.46.29c-.05-.13-.16-.28-.13-.38S41.91,66.3,42,66.23Z" transform="translate(-13.87 -25.74)"/><path class="cls-16" d="M39,49.55c1.47-1,2.58.84,4,.52,1.69.52,1.14,1.94.83,2.84-.42,1.23-1.49.31-2.31.24C40.35,53,40.1,51.58,39,51.44Z" transform="translate(-13.87 -25.74)"/><path class="cls-15" d="M39,54.55c-.56-.34-.47-.92-.53-1.45C39.58,53.24,39.81,53.7,39,54.55Z" transform="translate(-13.87 -25.74)"/><path class="cls-12" d="M51,79.05h.48v2.46c-1,1.23-2.29.63-3.5.55.05-.7-.24-1.48.49-2C49.5,80,51,81.53,51,79.05Z" transform="translate(-13.87 -25.74)"/><path class="cls-8" d="M51,79.05c0,2.47-1.56,1-2.52,1-.24-.55-.84-1.42-.67-1.61.79-.9,1.72.45,2.64,0Z" transform="translate(-13.87 -25.74)"/><path class="cls-16" d="M44.5,79.05c1.66.53,1.66.53-.11,2.27C43.56,80.52,44.65,79.81,44.5,79.05Z" transform="translate(-13.87 -25.74)"/><path class="cls-12" d="M43,80.05c-.28-.19-.48-.46-.19-.74s.55-.06.72.22Z" transform="translate(-13.87 -25.74)"/><path class="cls-13" d="M71.07,77.55c-1.78.12-2.17-1.21-2.58-2.51l1-.49A4.73,4.73,0,0,1,71.07,77.55Z" transform="translate(-13.87 -25.74)"/><path class="cls-13" d="M60.5,78.55c0,.55.1,1.14-.48,1.51-1.32.13-1.54-1.92-3-1.52.2-2.76,1.9-.93,3-1Z" transform="translate(-13.87 -25.74)"/><path class="cls-13" d="M51.5,81.51V79.05h1c.37.64.73,1.28,1.13,1.9.51.79.05,1-.63,1.11Z" transform="translate(-13.87 -25.74)"/><path class="cls-15" d="M55,59.55H56c.95,2,2.76,1.44,4.37,1.52.53,0,1.36-.24,1.39.59s-.7.91-1.29.85c-1.06-.1-2.14,1.07-3.23-.2-.49-.58-1,0-1.29.58-.53.93-1.31.76-2.53.15C56,62.57,55.56,61.08,55,59.55Z" transform="translate(-13.87 -25.74)"/><path class="cls-15" d="M50,69.07c-1.34-1.5.92-1.54,1-2.47a5.9,5.9,0,0,1,3.14.61,1.26,1.26,0,0,1,.77,1.61l0,0c-.23.73-.81,1.53-1.48,1.52-1.73,0,.27-1.57-.92-2.12C51.7,68.14,51,69.36,50,69.07Z" transform="translate(-13.87 -25.74)"/><path class="cls-12" d="M55,72.61l2-.88c.91.43-.16,1.12.22,1.7s1.89.82.95,1.81c-.71.75-1.62-.29-2.47-.4-.22,0-.42-.24-.63-.36Z" transform="translate(-13.87 -25.74)"/><path class="cls-11" d="M55,72.61v3c-.94-.91-3-.52-3-2.48C52.84,72.14,54,72.67,55,72.61Z" transform="translate(-13.87 -25.74)"/><path class="cls-8" d="M60.5,78.55l-.49-1,1-1c1.1.55,2.61-1.82,3.47.47C62.71,76.38,62.08,78.76,60.5,78.55Z" transform="translate(-13.87 -25.74)"/><path class="cls-13" d="M58.95,69.14c1,.29,1.23,1.19,1.44,2.07a.6.6,0,0,1-.73.74c-1.21-.15-1.13-1.29-1.44-2.08C58,69.38,58.36,69.14,58.95,69.14Z" transform="translate(-13.87 -25.74)"/><path class="cls-15" d="M66,69.59a1.43,1.43,0,0,1-1.39,1.47h-.16c-.55-.24-2,.33-1.54-.67a2.05,2.05,0,0,1,3.08-.8Z" transform="translate(-13.87 -25.74)"/><path class="cls-11" d="M62.31,65.45a.69.69,0,0,1-.78.59l-.15,0c-.7-.14-1.56-.19-1.64-1.13a.69.69,0,0,1,.71-.67l.17,0C61.32,64.42,62.06,64.61,62.31,65.45Z" transform="translate(-13.87 -25.74)"/><path class="cls-16" d="M56.5,48.55l1-.49c.57.43.62,1,.09,1.39-.9.71-.41,1.39-.08,2.11a4.85,4.85,0,0,1-.16,1.17c-.23.58-.77,1-1.33.69-.81-.43-.11-.92.16-1.35a.65.65,0,0,0-.06-.92L56,51.07Z" transform="translate(-13.87 -25.74)"/><path class="cls-16" d="M64.5,47.54h1c-.87,1.13-.68,3.34-3,3,.06-1.15-2-1.07-1.46-2.5C62.2,48,63.42,48.25,64.5,47.54Z" transform="translate(-13.87 -25.74)"/></svg>