<svg id="Ebene_1" data-name="Ebene 1" xmlns="http://www.w3.org/2000/svg" viewBox="0 0 119.55 124.6"><defs><style>.cls-1{fill:#fefdfe;}.cls-2{fill:#fcb7f3;}.cls-3{fill:#ee1ada;}.cls-4{fill:#fed2f6;}.cls-5{fill:#fb6de6;}.cls-6{fill:#fd9ded;}.cls-7{fill:#f545e0;}.cls-8{fill:#ed2cdc;}.cls-9{fill:#c407df;}.cls-10{fill:#d801d9;}.cls-11{fill:#e201d6;}.cls-12{fill:#a300e8;}.cls-13{fill:#9300ef;}.cls-14{fill:#bb00c2;}.cls-15{fill:#ab00e3;}.cls-16{fill:#b900ee;}</style></defs><title>vegetation spiky</title><path class="cls-1" d="M1091.5,505.41q0-62.25,0-124.5,58.75,0,117.5,0c1.71,0,2.05.34,2,2q-.09,60.25,0,120.5c0,1.71-.34,2.05-2,2Q1150.25,505.36,1091.5,505.41Zm22.54-61.1-.94.23-2.11-.7a1,1,0,0,0-1-.45c0-1.74-1.1-1.66-2.7-1.67a3.8,3.8,0,0,0,2.66,1.71c-.08.88-1,2.21,1,2,.78.2,1.8.3,1.86,1.26s-1,1.14-1.69,1.53a3.71,3.71,0,0,1-1.19.23l-2,.06c-.47,0-1.12,0-1.1.55s.7.28,1.1.37l.06.53c-.78.8-2.68-.05-2.71,1.49,0,.88,1.43.25,2.1.65.12.07.17.25.27.42-.31.78-1.34.15-1.88.93a12.33,12.33,0,0,0,5.55.56,2,2,0,0,1-.44,1.93c-1.4.66-2.92,1.17-3.85,2.53.7.75,1.54-.56,2,.37,0,1.19-1.31,1.16-1.64,1.81,1.63,1.39,2.87.83,4.31-.47.73-.66,2.27-1.84,3.13.26l-1,1c-2.69.17-3.31,2.65-4.57,4.31-.51.67.67.55,1.14.69l0,0c.76.31.76.31,2-.31,2-1,2-1,2.81,1,.09.23.74.23,1.12.34l.05.46-.13.91a4.42,4.42,0,0,0-1.88,3.6c-.52.05-1,.22-.89.86s.49.55.88.62l-1.24,2.75c1.35-.63,2.52-1.27,2.76-2.73.68.28,1.48,2.25,2-.13,1.13.27,1.8-.46,2.49-1.14a5.59,5.59,0,0,0,.64,3.43c1.09,1.8,2.53,3.5,1.93,5.87-.09.35.15.61.58.52a1.1,1.1,0,0,0,.88-1,2.81,2.81,0,0,0,.48,0c.62-.14,1.27.76,1.81.1,2-2.42,2.38-1.19,2.5,1,0,.65.13,1.29.2,1.93l-.12.2.11-.21a3.77,3.77,0,0,0,.75,0c2.58-.59,3.46.13,3.29,2.65,0,.45-.16,1.05.57,1.12,1.42-.88.52-3.22,2.43-3.76.49.39,0,.92.2,1.36a4,4,0,0,0-.49.85c-.19.69-.61,1.67.19,2s1-.78,1.37-1.38a11.51,11.51,0,0,0,.55-1.36c.61-1.54,2.78-1,3.38-2.5.52.47.16,1.56,1.19,1.66l-.33,2.88c.06,1.23-1.17,2.47,0,4a10.07,10.07,0,0,0,.9-4h0c.87-.81,2.24.73,3-.63l.48.14a7.56,7.56,0,0,0,1,4.31c1.07-.7.72-2.67,2.52-2.36a4.73,4.73,0,0,0,1.21,3.61,11.26,11.26,0,0,0,0-3.75c-.21-1.66-1.16-3.31-.27-5,1.23.44.78-1.07,1.4-1.39,1,1.33.8,3.39,3,4a8.12,8.12,0,0,1,.21-4.46l1,1.07c.24,1.37,1.87,1.1,2.46,2.07.27.41.51.83.8,1.21s.3,1.33,1.1,1.09c1-.3.44-1,.29-1.63-.11-.45-.32-1.1.6-.75s.89-.41.66-.73c-.66-.92-.81-2.48-2.49-2.29,1-.59-1-2.43,1.1-2.56l.74.78.49.85,1.18,2c0,.59.34,1.46.82,1.19.67-.38.67-1.25-.26-1.71a1.76,1.76,0,0,0-.42-1.5l1-.68,1,.16c.77,1.11,1.12,2.71,3,2.48l.18.11-.2-.1c.64-1.61-.71-3.61,1-5,1.14-.09,2.15,1.83,3.12.67s-.75-2.08-1.1-3.18a1.52,1.52,0,0,0-1.38-1.56,4.63,4.63,0,0,1-1.33-3l3.2,2.06c1.58,1.68,3.22,3.25,5.93,3.22a2.69,2.69,0,0,0-1.69-1.87c-.79-.37-1.64-.89-1.08-1.84s1.08.21,1.64.28a11,11,0,0,0,1.45,0l1.74.14c.06.72.31,1.12,1.1.72.37-.19.91-.51.39-.85-.92-.6-.62-2.15-2-2.33.26-1.27-2.37-1.74-1-3.09.72-.72,2.07-.81,3.24-1.23a3,3,0,0,0-2.52-.69l-1.4-1.36c1.56-1.51,2.74.1,4,.52s2.49.82,2.47-1.43c0-1.19,1.1-2.46-.85-3.14-.36-.13.1-.45.37-.63,1.13-.75-.33-.94-.34-1.45l2,0c.41,0,.85,0,.93-.58s-.35-.83-.87-.93c-.47-1.54-1.78-1.44-3-1.51l-.53-.46c.1-2.23,2.7-1.55,3.47-3,.64-1,4.07-1.63.53-3.34a.45.45,0,0,1-.11-.4c1.92-1.86-.58-1.26-1-1.65s-.81-.46-.86-1h1c.59.68,1.38.39,2.09.41s1.25,0,1.27-.79a1.11,1.11,0,0,0-1.08-1.14c-.64-.09-1.33-.23-1.8.45l-2-.05a7.83,7.83,0,0,0,.44-3l0,0c1.33.23,2.48-.28,4-.77-1.58-1-2.79.13-4,0-.43-.11-1.12.07-1.17-.49s.61-.51,1.06-.57.74-.17,1.11-.26c1.56.35,2.61,0,2.6-1.87,0-1.55.17-3-2.16-3-2.09,0-3.66-.85-3.28-3.4.1-.18,1.09-.19.21-.51a6.66,6.66,0,0,0-2.32,0l.16-1.07c1.86-.73-.71-1.3-.07-2l2.29-.76c-2.06-.65-3.7.31-5.63.17l1.69-4c-.69-.83-1.64.6-2.23-.33,0-1,1-1.15,1.36-2.05-1.72.4-3.41.47-4.46,2l-1,0,0,0c-.3-.42,2-1.73-.48-1.4a17.77,17.77,0,0,1,.17-9.36c-1.31.57-2.09,1.06-2.24,2.21-1-.88-.57-2.19-.83-3.37-1.29.46-2,2.69-2.72,2-2-2-1.94,0-2.54.94-.47.71-1.18.42-1.81.46l.25-1.35.23-2.13c.78-1.18.4-2.47.37-3.81-.64,1.59-2.57,2.08-2.94,3.8-1.31.63-.85-.44-.94-1,.25-.17.57-.47.19-.64s-.57.31-.73.64h0c-.91-.47,0-1.77-1.13-2.31-.53.72-.3,1.55-.38,2.3l-.48.52-1.24-2.25-1.31,2.7c-.62,0-1.56.69-1.47-.75,0-.36-.08-1.16-.49-.9-2.62,1.65-2.08-1.26-3-2.08-1.47,3.17-1.82,3.23-3.87.74-.07,2.29-2.14,3.32-3.15,5-.73-.49-.19-1.93-1.5-2l-.28-.62-.2.67-.63,1-1.45,1.12c-.94-.11-1.07-1-1.48-1.58a2,2,0,0,0-1.14-1.9c-.53,1.92-2.15,3-3.27,4.4,0,.48,0,1,.06,1.44-.78.47-.79,1-.07,1.53l0,1-.1,1-1.37-.08c-.54-1.45-1.8-1.95-3.11-2.39-.18-.19-.28-.65-.64-.18l.66.16v1.52l-.51,0c-1.27.22-2.31.64-1.84,2.26.22.78-.58.87-.78,1.26-.83,1.65-1.8,2.54-3.69,1.59-.11-.06-.56.32-.69.57-.66,1.34,1.12,3.7-1.75,4.11a7.29,7.29,0,0,1,.49.8c.34.74,1.19.46,1.68.88-.14,2.87-2,1.1-3.18,1.2-1,.09-4.3-2-1.84,1.77.14.21.08.82-.07.91a6,6,0,0,0-3.09,4.66c0,.11-.12.21-.22.38,1,.59,2.31.5,3,1.61l-.06,1.35-1,0c-1.15-.63-2.08.06-3.38.36,1,.68,1.46,1.58,2.44,1.72l1,.54Zm10.11-25.71a.68.68,0,0,0-.21-.06s0,.11-.06.17a.68.68,0,0,0,.21.06S1124.13,418.67,1124.15,418.61Z" transform="translate(-1091.5 -380.86)"/><path class="cls-2" d="M1142,412.38c1-1.7,3.09-2.72,3.15-5,2,2.49,2.4,2.43,3.87-.74.9.82.35,3.73,3,2.08.41-.26.51.54.49.9-.09,1.44.85.77,1.47.75,1.11-.06.91,1.23,1.62,1.58-.11.55-.07,1.45-.35,1.57-1.15.49-.24-1.58-1.52-1.26l-.26,2.11a1.72,1.72,0,0,1-1.6-.43q-5.17-5.31-8.35,1a1.56,1.56,0,0,1-1-1.48Z" transform="translate(-1091.5 -380.86)"/><path class="cls-3" d="M1162.24,480.61l-.74-.78c0-2-1.28-2.51-3-2.41-.6-1.55-1.66-2-3-1-.83.62-1.68.39-2.53.47l-.52-.53c.39-1-.89-1.46-.88-2.24,1.62.06,3-.81,4.41-1.14.45-.1.08-.71,0-1.09,1,0,1.95,0,2.57-1,.36-.61.94-.57,1.41,0-1.27,2.32.74,2.06,1.93,2.45a3.29,3.29,0,0,1,0,.42l.63,2.13c-1.57,1.13-.7,1.85.43,2.52v1A1.33,1.33,0,0,1,1162.24,480.61Z" transform="translate(-1091.5 -380.86)"/><path class="cls-4" d="M1129.51,484.41c-.07-.64-.17-1.29-.2-1.93-.12-2.17-.54-3.4-2.5-1-.54.66-1.19-.23-1.81-.1.73-1.11,1.58-2.07,3.06-2.08.68.09,1-.35,1.43-.79s.06-1.82,1.56-1.09c1,.47,1.59.67,1.11,1.85-.14.35-.12,1.11.36.95,2.29-.75.78,1.5,1.58,2.06.75-.94.58-2.2,1.43-2.93a.88.88,0,0,0,.23.42c-.66,1.69.09,3.13.78,4.59-1.91.54-1,2.88-2.43,3.76-.73-.07-.6-.67-.57-1.12.18-2.52-.7-3.24-3.29-2.65a3.77,3.77,0,0,1-.75,0Zm3.22-1.83c.05,0,.13,0,.15-.09s0-.13,0-.19l-.23.13Z" transform="translate(-1091.5 -380.86)"/><path class="cls-5" d="M1172,421c2.51-.34.18,1,.48,1.4a.82.82,0,0,0-.22.09s0,.11,0,.17l.23-.27,1,0c1.31.16.9,1.15.93,1.93a3,3,0,0,0-2.44,3.53h-1c.45-1.54-1.37-2.43-1.1-3.92a3.27,3.27,0,0,0-2.59-3.66c-2.52-.4-3-2.27-3.85-4a1.94,1.94,0,0,1,1.67-1.79c.57.7-.72,1.72.38,2.2a1.68,1.68,0,0,0,2.23-1c.5-1,1.54-.83,2.25-1.34-.1,1.3-1.56,1.85-1.72,3.11-1.19.54-1,1.15-.1,1.81,1.29-.42,2.39-.38,2.73,1.25C1171.08,421.35,1171.39,421.58,1172,421Z" transform="translate(-1091.5 -380.86)"/><path class="cls-6" d="M1115,439.44c-.65-1.11-2-1-3-1.61.1-.17.2-.27.22-.38a6,6,0,0,1,3.09-4.66c.16-.09.21-.7.07-.91-2.46-3.79.81-1.68,1.84-1.77,1.19-.1,3,1.68,3.18-1.2l1.65,0,1.52.53c-.85.9-1.62,1.91-3,2.15-3,.47-3.1.49-2.28,2.82.21.59-.13.47-.35.5-.59.09-1.33.19-1.23.91.13.94,1,.47,1.63.61-.63,1.22-2.65.82-2.9,2.48Zm-.78-3.76c0-.06-.06-.15-.11-.17s-.15,0-.22,0l.15.28Z" transform="translate(-1091.5 -380.86)"/><path class="cls-2" d="M1122.06,428.9l-1.65,0c-.49-.42-1.34-.14-1.68-.87a7.29,7.29,0,0,0-.49-.8c2.87-.41,1.09-2.77,1.75-4.11.13-.26.58-.63.69-.57,1.9.94,2.87.06,3.69-1.59.19-.39,1-.49.78-1.26-.47-1.62.57-2,1.84-2.26.18.34.36.33.51,0v-1.5c1.31.44,2.57.94,3.11,2.39-.76.27-2-.32-2.11,1.1h0c-2.32-.3-2.7,1-2.46,2.9-.83.52-.21,1.08-.05,1.63-1.18,0-.31,1-.6,1.38h-2.88C1121.75,426.43,1120.62,427.51,1122.06,428.9Z" transform="translate(-1091.5 -380.86)"/><path class="cls-2" d="M1124.52,481.43a1.1,1.1,0,0,1-.88,1c-.44.09-.67-.17-.58-.52.6-2.37-.84-4.07-1.93-5.87a5.59,5.59,0,0,1-.64-3.43l.38-.73.64-.58.48-1.44,1.19-.52-.13,1.48c-.16.9.41,1,1.09,1l-.18,1c-.53.7-.53.7.46,5.36.21-2.27,2-3.4,2.09-5.32l1,.5c-.27.91-1.33,2,.48,2.46l0,0a6,6,0,0,1-1.09,2.48c-.7.41-1.55.63-1.92,1.48-.31.08-1-.14-.49.6C1124.44,480.8,1124,481.11,1124.52,481.43Z" transform="translate(-1091.5 -380.86)"/><path class="cls-2" d="M1184,458.4c0,.51,1.47.69.34,1.45-.27.18-.73.5-.37.63,2,.68.84,2,.85,3.14,0,2.25-1,1.89-2.47,1.43s-2.48-2-4-.52a2.67,2.67,0,0,1-1.84-1.64l1.5-.54c.8-.14,2,.58,2.3-.55.2-.88-.8-1.5-1.69-1.83l-.23-.08c.48-.82,1.67-.13,2.13-1,.74-.51,1.8,1.18,2.38-.35l.17-.16,1,0Z" transform="translate(-1091.5 -380.86)"/><path class="cls-5" d="M1162.58,475.89l-.63-2.13c2.49.65,3.92-.17,4-2.87l1-.52,1.49,0,.79,1a4.63,4.63,0,0,0,1.33,3c-.61.6-1.26-.06-1.89.07a7.72,7.72,0,0,0-2.85,1.47c1.54,1.28-.48,2.69.15,4l-1-.49-.42,0-1-1Z" transform="translate(-1091.5 -380.86)"/><path class="cls-2" d="M1186,451.9c-.77,1.45-3.38.77-3.47,3l.53.46c1.22.07,2.52,0,3,1.51l-.06,1.51-2,0h0c-.32-.49-.65-.53-1,0l-.16.15c-1.21-.27-2.49-.48-2.44-2.18.29-.52,1.46-1.21.89-1.42-1.64-.59-1.23-3.18-3.31-3.11a3.74,3.74,0,0,0,0-.45l1-.11,4.49,0,2,.06Z" transform="translate(-1091.5 -380.86)"/><path class="cls-2" d="M1166,479.9c-.63-1.31,1.39-2.72-.15-4a7.72,7.72,0,0,1,2.85-1.47c.63-.13,1.28.52,1.89-.07a1.52,1.52,0,0,1,1.38,1.56c-2.61-.65-2.61-.65-2,2-.36.18-.33.34,0,.49h0c-1.7,1.4-.35,3.39-1,5l0,0c-1.87.23-2.23-1.38-3-2.48Z" transform="translate(-1091.5 -380.86)"/><path class="cls-6" d="M1174.46,424.36c0-.78.38-1.76-.93-1.93,1-1.56,2.74-1.63,4.46-2-.32.9-1.41,1.06-1.36,2.05.59.93,1.54-.49,2.23.33l-1.69,4c1.93.14,3.58-.82,5.63-.17l-2.29.76-5.48,1a2.5,2.5,0,0,0-.61-2A1.24,1.24,0,0,0,1174.46,424.36Z" transform="translate(-1091.5 -380.86)"/><path class="cls-7" d="M1169.29,471.37l-.79-1,.51-1c1.76.19,3.84,1.77,4.88-1.21.09-.25,1-.21,1.6-.3.91,1.95,2.66,3,4.36,4.13l.64,1.33-1.74-.14a7,7,0,0,0-4.49-2.33c-.52-.06-1.23-.34-1.57.31s.31.86.61,1.23c1.19,1.51-.47.72-.8,1Z" transform="translate(-1091.5 -380.86)"/><path class="cls-2" d="M1156,482.35a8.12,8.12,0,0,0-.21,4.46c-2.17-.62-2-2.67-3-4-.62.32-.17,1.83-1.4,1.4l.05-.55c0-.64.18-1.38-.61-1.75l-.72,0a14.23,14.23,0,0,1-.69-5h.52c.85,1,.6,2.88,2.52,2.92.46.88.9.4,1.33,0s.83-.51,1.1.16c-.76.92-.41,1.34.64,1.45Z" transform="translate(-1091.5 -380.86)"/><path class="cls-2" d="M1182.54,431c-.38,2.55,1.19,3.41,3.28,3.4,2.33,0,2.16,1.43,2.16,3,0,1.9-1,2.22-2.6,1.87.19-1.53-.73-1.37-1.72-1.14-.82.19-1.81.9-2.1-.64,1.06,0,1.41-.43,1.84-1.5.63-1.55-.55-.78-.91-1a3.47,3.47,0,0,1-1-3.58A1,1,0,0,1,1182.54,431Z" transform="translate(-1091.5 -380.86)"/><path class="cls-2" d="M1116.46,467.44c-.39-.11-1-.11-1.12-.34-.81-2-.78-2-2.81-1-1.24.63-1.24.63-2,.31l.66-.63-.31-.21-.4.8c-.47-.14-1.65,0-1.14-.69,1.26-1.66,1.88-4.13,4.57-4.31.67.06,1.63-.58,1.8.72-.23.83-.4,1.64.77,1.9l.07,2.95A1.24,1.24,0,0,1,1116.46,467.44Z" transform="translate(-1091.5 -380.86)"/><path class="cls-2" d="M1114.94,460.38c-.86-2.1-2.4-.92-3.13-.26-1.44,1.3-2.68,1.85-4.31.47.33-.65,1.64-.62,1.64-1.81-.48-.93-1.33.39-2-.37.93-1.36,2.44-1.87,3.85-2.53q0,.75,0,1.5l-.2.24.25-.19a13.83,13.83,0,0,0,3.12-.28c1.23-.46,1.32.43,1.34,1.31C1115.43,459.14,1115.77,459.93,1114.94,460.38Z" transform="translate(-1091.5 -380.86)"/><path class="cls-4" d="M1170,414.43c-.7.51-1.75.38-2.25,1.34a1.68,1.68,0,0,1-2.23,1c-1.11-.48.19-1.5-.38-2.2a1.94,1.94,0,0,0-1.67,1.79l-.48.13c-.41-.83-1.25-1.52-.91-2.61.63,0,1.34.25,1.81-.46.59-.89.54-2.91,2.54-.94.73.72,1.43-1.52,2.72-2,.26,1.17-.17,2.49.83,3.37Zm-2.18-.65c-.14-.06-.31-.2-.4-.15s-.13.26-.19.39c.14.06.31.2.4.16S1167.76,413.92,1167.82,413.78Z" transform="translate(-1091.5 -380.86)"/><path class="cls-2" d="M1142.92,485c-1-.1-.67-1.2-1.19-1.66-.6,1.54-2.77,1-3.38,2.5a11.51,11.51,0,0,1-.55,1.36c-.33.6-.48,1.72-1.37,1.38s-.38-1.28-.19-2a4,4,0,0,1,.48-.85c1.21-.78,1-1.92.93-3.13-.11-1.41-.26-2.92,1.35-3.75l.36,1.17c-.14.46-.32.92-.42,1.39s-.58.94,0,1.3,1.43.36,1.58,0c.7-1.83,2.38-.69,3.45-1.29a1.52,1.52,0,0,1,.11.41l-.15,1.57C1142.88,483.48,1143.05,484.34,1142.92,485Z" transform="translate(-1091.5 -380.86)"/><path class="cls-5" d="M1115.47,458.46c0-.88-.11-1.76-1.34-1.31a13.83,13.83,0,0,1-3.12.28l-.05-.05q0-.75,0-1.5a2,2,0,0,0,.44-1.93l1.58-1.14,0,.51c.12.28.18.77.36.81.57.15.57-.39.68-.77h1.4c.94.63,2,1.15,1.16,2.63-.28.51.3.85.83,1l.11,1.44-.16,0Z" transform="translate(-1091.5 -380.86)"/><path class="cls-6" d="M1113,453.32l0-.5-.48-1.42c.43-.75,1.33-1.76-.58-1.48-1.31.19-1.73-.46-1.93-1.52a3.71,3.71,0,0,0,1.19-.23c.67-.39,1.76-.56,1.69-1.53s-1.08-1.05-1.86-1.26l0-1.55,2.11.7c.07,1.3,1.13.73,1.77.94-.15.42-1.09.88-.56,1.13,1.83.87.85,1.43.19,2.52-.44.72-1.68,2.69,1,2.75l.06.06-.08,1.44H1114Z" transform="translate(-1091.5 -380.86)"/><path class="cls-4" d="M1186,451.9l-.55-.5c.67-1.06-.25-1.19-.88-1.38s-1.5,0-1.54-1.09c.52-.1,1.09-.37.3-.75a7.1,7.1,0,0,0-2.29-.27h0c.09-.4-1.13-.56-.3-1,1.2-.63,2.29-1.64,3.81-1.42,0,.56.51.7.86,1s2.94-.2,1,1.65a.45.45,0,0,0,.11.4C1190.06,450.27,1186.62,450.86,1186,451.9Z" transform="translate(-1091.5 -380.86)"/><path class="cls-5" d="M1181.56,437.46c.3,1.54,1.29.83,2.1.64,1-.23,1.91-.39,1.72,1.14-.37.09-.74.21-1.11.26s-1.12-.09-1.06.57.75.38,1.17.49l.06.78,0,0a16.35,16.35,0,0,0-6,1l-1-.48c0-1.58,2.12-1.89,2.09-3.48h0a3.51,3.51,0,0,0,.47-.06l1-.95Z" transform="translate(-1091.5 -380.86)"/><path class="cls-4" d="M1112.51,451.4l.48,1.42-1.58,1.14a12.33,12.33,0,0,1-5.55-.56c.55-.78,1.57-.15,1.88-.93-.11-.17-.16-.35-.27-.42-.68-.41-2.12.23-2.1-.65,0-1.54,1.93-.69,2.71-1.49h.91l0,0C1109.73,451.47,1111.29,451,1112.51,451.4Z" transform="translate(-1091.5 -380.86)"/><path class="cls-2" d="M1156.5,409.91l.48-.52c.5,0,1,2,1.52,0h.54c.09.54-.37,1.61.94,1a2.62,2.62,0,0,0,2.58,0l-.23,2.13c-.75.06-2.33-1.16-1.52,1.17.74,2.13-1,1-1.77,1.15a4.1,4.1,0,0,0-3.42-3.27C1155.06,410.57,1156.66,410.71,1156.5,409.91Z" transform="translate(-1091.5 -380.86)"/><path class="cls-2" d="M1170,414.43l0-.56c.15-1.15.93-1.64,2.24-2.21A17.78,17.78,0,0,0,1172,421c-.64.55-1,.33-1.12-.43-.35-1.62-1.44-1.66-2.73-1.25a2.76,2.76,0,0,0,.1-1.81C1168.44,416.28,1169.9,415.73,1170,414.43Z" transform="translate(-1091.5 -380.86)"/><path class="cls-4" d="M1172.49,473.43c.33-.28,2,.51.8-1-.29-.37-.9-.67-.61-1.23s1-.38,1.57-.31a7,7,0,0,1,4.49,2.33,11.21,11.21,0,0,1-1.44,0c-.56-.07-1.11-1.2-1.64-.28s.3,1.47,1.08,1.84a2.69,2.69,0,0,1,1.69,1.87C1175.71,476.68,1174.07,475.11,1172.49,473.43Z" transform="translate(-1091.5 -380.86)"/><path class="cls-6" d="M1179.84,472c-1.69-1.12-3.44-2.18-4.36-4.13l.48-.06c.54,0,1.24.27,1.37-.5.17-1-.7-.86-1.28-1l-.56-.42c1.39-1.32,2.81.51,4.21,0a3,3,0,0,1,2.52.69c-1.17.41-2.52.5-3.24,1.23-1.34,1.35,1.29,1.83,1,3.09Z" transform="translate(-1091.5 -380.86)"/><path class="cls-2" d="M1132.12,414.89l-.07-1.44c1.94,0,3.68-.37,4.42-2.5.41.61.55,1.47,1.48,1.58,0,.26,0,.52,0,.79l-.08.57c-.72.73-.15,1.37.13,2-1.88,1.36-3.16-.08-4.55-1l-.51,0Z" transform="translate(-1091.5 -380.86)"/><path class="cls-6" d="M1128.5,419.41c.15-1.42,1.35-.84,2.11-1.1l1.37.07c1.12,1.56,1.34.5,1.57-.53.57.68,1.59.92,1.88,1.88a23.23,23.23,0,0,1-2.61.15c-1.11-.05-1.37.56-1.39,1.46-2.72-1.35-3.28-1.22-3.79.92l-1.6,0c-.24-1.86.14-3.21,2.46-2.9l.2.11Z" transform="translate(-1091.5 -380.86)"/><path class="cls-6" d="M1120.87,471.92l-.38.73c-.69.68-1.37,1.41-2.49,1.14l0-.74c1.07-.35,1.37-.89.44-1.75.17-.88,1-2.09-1-1.88-.19-.54-1,0-1.12-.6l.13-.91c2,.13,4.45-.84,5.48,2l-.48,1.44Z" transform="translate(-1091.5 -380.86)"/><path class="cls-5" d="M1159,414.85c.76-.14,2.51,1,1.77-1.15-.81-2.33.77-1.11,1.52-1.17l-.25,1.35c-.34,1.09.5,1.78.91,2.61-1.25,1,.33,2.36-.52,3.39l-2.51,0c.43-1.4.83-2.79-.55-3.93Z" transform="translate(-1091.5 -380.86)"/><path class="cls-2" d="M1150.52,489.36c-1.8-.31-1.45,1.66-2.52,2.36a7.56,7.56,0,0,1-1-4.31c1.21,1.34,1.62-.34,2.12-.74.72-.58.64-1.47-.53-1.78l-.17-1,.09-1a2.32,2.32,0,0,1,.15-.48C1150.87,484.31,1150.32,486.94,1150.52,489.36Z" transform="translate(-1091.5 -380.86)"/><path class="cls-5" d="M1122,469.9c-1-2.84-3.46-1.87-5.48-2l-.06-.46a1.24,1.24,0,0,0,.09-.48c.92.19,1.45-1.49,1.87-.94,1.5,1.93,1.48-.48,2.21-.63.87.7,1.9.48,2.89.52.12,1.18-1.14,2.23-.33,3.47Z" transform="translate(-1091.5 -380.86)"/><path class="cls-6" d="M1156,482.35l-.44-.93-.54-1,2.34.15c-.21-1.09-1.35-1.62-1.12-2.72l2.19.19a7.15,7.15,0,0,1,1.06,3.91c-1,0-1,.77-1,1.5H1157Z" transform="translate(-1091.5 -380.86)"/><path class="cls-7" d="M1182.54,431a1,1,0,0,0-1.08.36l-2.88.62a3.67,3.67,0,0,0-4.09,0c-1.08.05-1.56-.49-1.5-1.54.53-.28.69-1.11,1.48-1,1.36,1.26,2.35-.32,3.52-.46.23,1.44.62,2.62,2.44,1.53a6.64,6.64,0,0,1,2.32,0C1183.63,430.8,1182.64,430.81,1182.54,431Z" transform="translate(-1091.5 -380.86)"/><path class="cls-4" d="M1158.52,483.4c0-.73,0-1.45,1-1.5h0l.55.47h.18l.17,0c1.69-.18,1.84,1.37,2.49,2.29.23.32.22,1.06-.66.73s-.71.3-.6.75c.15.61.72,1.34-.29,1.63-.81.24-.78-.68-1.1-1.09s-.54-.81-.8-1.21c.83-.8.72-1.33-.44-1.57l-.5-.51Z" transform="translate(-1091.5 -380.86)"/><path class="cls-6" d="M1150.52,489.36c-.21-2.42.35-5.05-1.88-6.93.14-1.31.92-.64,1.53-.5l.72,0c.13.61.08,1.28.61,1.75l-.05.55c-.89,1.72.06,3.37.27,5a11.26,11.26,0,0,1,0,3.75A4.73,4.73,0,0,1,1150.52,489.36Z" transform="translate(-1091.5 -380.86)"/><path class="cls-5" d="M1184.53,445.48c-1.52-.23-2.62.79-3.81,1.42-.84.44.39.6.3,1-.65-.1-1.59.4-1.85-.59a1.47,1.47,0,0,1,.92-1.78c1.13-.39.73-1,.4-1.67,1.48-1.95,2.4,0,3.54.49l2,.05-.48,1.07Z" transform="translate(-1091.5 -380.86)"/><path class="cls-5" d="M1139,478.88c-1.61.83-1.46,2.35-1.35,3.75.09,1.2.29,2.35-.93,3.13-.19-.44.29-1-.2-1.36-.68-1.46-1.43-2.91-.78-4.59.82.19,1.06-.25,1.37-1C1137.66,477.59,1138.39,477.82,1139,478.88Z" transform="translate(-1091.5 -380.86)"/><path class="cls-6" d="M1113.93,440.83l1,0,1.59-.38a3.53,3.53,0,0,0,.87,2l.11,1-.49.6-1.48.49-1-.12c.28-.56.4-1-.52-.93l-1-.54C1112.92,442,1114.18,441.78,1113.93,440.83Z" transform="translate(-1091.5 -380.86)"/><path class="cls-4" d="M1184,444.36c-1.14-.46-2.07-2.44-3.54-.49l-1,.17c-.12-.48-.49-.62-.93-.66l-.15-1a16.35,16.35,0,0,1,6-1A7.83,7.83,0,0,1,1184,444.36Z" transform="translate(-1091.5 -380.86)"/><path class="cls-5" d="M1179.7,465.89c-1.4.55-2.82-1.29-4.21,0a5.9,5.9,0,0,1-2.46-1,2.67,2.67,0,0,1,1.92-2c.1.37.12.88.66.78.17,0,.27-.49.39-.75a3.33,3.33,0,0,1,.47,0,2.67,2.67,0,0,0,1.84,1.64Z" transform="translate(-1091.5 -380.86)"/><path class="cls-4" d="M1170,477.94c-.58-2.68-.58-2.68,2-2,.35,1.1,2,2,1.1,3.18s-2-.76-3.12-.67h0Q1170,478.18,1170,477.94Z" transform="translate(-1091.5 -380.86)"/><path class="cls-4" d="M1136.47,410.94c-.74,2.13-2.47,2.5-4.42,2.5,1.13-1.44,2.75-2.49,3.27-4.4A2,2,0,0,1,1136.47,410.94Z" transform="translate(-1091.5 -380.86)"/><path class="cls-6" d="M1148.57,484.9c1.17.31,1.25,1.2.53,1.78-.5.4-.91,2.08-2.12.74l-.48-.13a2.89,2.89,0,0,1-.51-1.86c.6-.33.52-.91.52-1.45l.87,0,.2,1,.42.45Z" transform="translate(-1091.5 -380.86)"/><path class="cls-8" d="M1160.41,482.38l-.17,0h-.18l-.55-.47h0a7.16,7.16,0,0,0-1.06-3.91l0-.58c1.73-.1,3,.38,3,2.41C1159.45,480,1161.38,481.79,1160.41,482.38Z" transform="translate(-1091.5 -380.86)"/><path class="cls-6" d="M1142,412.38l.45,1.09c-1.69-.47-1.78,1.09-2.43,1.94-1-.44-1.12-1-.45-1.9a1.33,1.33,0,0,0-.17-2.11l.63-1a3.45,3.45,0,0,0,.48,0C1141.82,410.45,1141.27,411.9,1142,412.38Z" transform="translate(-1091.5 -380.86)"/><path class="cls-4" d="M1178,429c-1.18.13-2.17,1.71-3.52.46,0-.41.07-.83.57-1l5.48-1c-.64.69,1.93,1.26.07,2C1179.71,429.32,1179.13,427.6,1178,429Z" transform="translate(-1091.5 -380.86)"/><path class="cls-2" d="M1112.51,451.4c-1.22-.37-2.78.07-3.5-1.48l.19-.22-.22.19h-.91l-.06-.53q0-.46,0-.92l2-.06c.21,1.06.63,1.71,1.93,1.52C1113.84,449.65,1112.94,450.66,1112.51,451.4Z" transform="translate(-1091.5 -380.86)"/><path class="cls-4" d="M1162.56,410.4a2.62,2.62,0,0,1-2.58,0c.38-1.72,2.3-2.21,2.94-3.8C1163,407.93,1163.34,409.23,1162.56,410.4Z" transform="translate(-1091.5 -380.86)"/><path class="cls-6" d="M1142.92,485c.13-.66,0-1.52,1-1.58,1.82-.89,1.51.5,1.57,1.48-1.05.75-2.54,1.21-2,3h0l-.91,0Z" transform="translate(-1091.5 -380.86)"/><path class="cls-6" d="M1115.47,458.46l1.9,0a2.86,2.86,0,0,1-1.68,3.67c-.17-1.3-1.13-.66-1.8-.72l1-1C1115.77,459.93,1115.43,459.14,1115.47,458.46Z" transform="translate(-1091.5 -380.86)"/><path class="cls-4" d="M1139.4,411.41a1.33,1.33,0,0,1,.17,2.11c-.67.88-.51,1.46.45,1.9l.22,1.06-1.38-.4-.83-.15c-.28-.66-.86-1.31-.13-2a3.32,3.32,0,0,0,.39.19c.25-.39-.08-.55-.31-.76,0-.26,0-.53,0-.79Z" transform="translate(-1091.5 -380.86)"/><path class="cls-2" d="M1116.38,468.82c.15.63.93.06,1.12.6.15,1.16-.15,2-1.46,2.26l-1.55.72h0A4.42,4.42,0,0,1,1116.38,468.82Z" transform="translate(-1091.5 -380.86)"/><path class="cls-2" d="M1143.51,487.92c-.53-1.8,1-2.27,2-3l.47.53a2.89,2.89,0,0,0,.51,1.86C1145.75,488.64,1144.38,487.11,1143.51,487.92Z" transform="translate(-1091.5 -380.86)"/><path class="cls-4" d="M1185.52,445.48l.48-1.07c.47-.67,1.16-.53,1.8-.45a1.11,1.11,0,0,1,1.08,1.14c0,.83-.7.8-1.27.79S1186.11,446.16,1185.52,445.48Z" transform="translate(-1091.5 -380.86)"/><path class="cls-4" d="M1156.5,409.91c.16.79-1.45.66-.88,1.66a2,2,0,0,1,0,.37c-.71-.35-.51-1.64-1.62-1.58l1.31-2.7Z" transform="translate(-1091.5 -380.86)"/><path class="cls-4" d="M1113.93,440.83c.25.95-1,1.21-.94,2.08-1-.14-1.41-1-2.44-1.72C1111.85,440.9,1112.78,440.2,1113.93,440.83Z" transform="translate(-1091.5 -380.86)"/><path class="cls-6" d="M1178,429c1.13-1.36,1.72.36,2.6.46l-.16,1.07C1178.62,431.58,1178.22,430.4,1178,429Z" transform="translate(-1091.5 -380.86)"/><path class="cls-2" d="M1118,473l0,.74c-.51,2.37-1.31.41-2,.13l-.52-.52.75-1.05,1.22,0Z" transform="translate(-1091.5 -380.86)"/><path class="cls-4" d="M1115.49,473.4l.52.52c-.24,1.46-1.41,2.1-2.76,2.73l1.24-2.75v0Z" transform="translate(-1091.5 -380.86)"/><path class="cls-7" d="M1164.57,479.39l.42,0,0,1.35-1,.68-1.32,0-.49-.85a1.33,1.33,0,0,0,.78-1.19Z" transform="translate(-1091.5 -380.86)"/><path class="cls-6" d="M1125,479.89c.37-.85,1.22-1.06,1.92-1.48a1,1,0,0,1,1.12.92c-1.48,0-2.32,1-3.06,2.08a2.84,2.84,0,0,1-.48,0c-.56-.31-.08-.62,0-.94Z" transform="translate(-1091.5 -380.86)"/><path class="cls-4" d="M1179.84,472l.17-1.13c1.34.18,1,1.73,2,2.33.52.34,0,.66-.39.85-.79.4-1,0-1.1-.72Z" transform="translate(-1091.5 -380.86)"/><path class="cls-2" d="M1142.6,487.88l.91,0a10.06,10.06,0,0,1-.9,4C1141.43,490.35,1142.65,489.11,1142.6,487.88Z" transform="translate(-1091.5 -380.86)"/><path class="cls-2" d="M1184.44,441.34l-.06-.78c1.23.13,2.44-1,4,0C1186.93,441.05,1185.77,441.56,1184.44,441.34Z" transform="translate(-1091.5 -380.86)"/><path class="cls-4" d="M1158.5,409.41c-.53,1.94-1,0-1.52,0,.08-.75-.15-1.57.38-2.3C1158.47,407.63,1157.59,408.93,1158.5,409.41Z" transform="translate(-1091.5 -380.86)"/><path class="cls-2" d="M1159,483.91c1.16.24,1.27.77.44,1.57-.58-1-2.21-.69-2.46-2.06h1.51Z" transform="translate(-1091.5 -380.86)"/><path class="cls-4" d="M1110,443.43a3.81,3.81,0,0,1-2.66-1.71c1.6,0,2.72-.07,2.7,1.67Z" transform="translate(-1091.5 -380.86)"/><path class="cls-4" d="M1111,443.85l0,1.55c-2,.24-1.11-1.09-1-2l0,0A1,1,0,0,1,1111,443.85Z" transform="translate(-1091.5 -380.86)"/><path class="cls-2" d="M1133.55,417.85c-.23,1-.45,2.1-1.57.53l.1-1,1.35,0A1.49,1.49,0,0,1,1133.55,417.85Z" transform="translate(-1091.5 -380.86)"/><path class="cls-6" d="M1133.43,417.43l-1.35,0q0-.48,0-1a1.42,1.42,0,0,0,.92-1.5l.51,0Q1133.45,416.18,1133.43,417.43Z" transform="translate(-1091.5 -380.86)"/><path class="cls-4" d="M1116.51,440.42l-1.59.38.05-1.36.52-.54.92.18.09,1.34Z" transform="translate(-1091.5 -380.86)"/><path class="cls-8" d="M1162.74,481.46l1.32,0a1.76,1.76,0,0,1,.42,1.5l-.57.52Z" transform="translate(-1091.5 -380.86)"/><path class="cls-7" d="M1114.49,444.38l1,.11-.47.87-.18.12c-.65-.21-1.71.36-1.77-.94l.94-.23-.07.17c.22.24.39.2.51-.09Z" transform="translate(-1091.5 -380.86)"/><path class="cls-4" d="M1133,414.92a1.42,1.42,0,0,1-.92,1.5c-.72-.54-.71-1.05.07-1.53Z" transform="translate(-1091.5 -380.86)"/><path class="cls-7" d="M1163.91,483.46l.57-.52c.92.46.93,1.33.26,1.71C1164.26,484.92,1164,484,1163.91,483.46Z" transform="translate(-1091.5 -380.86)"/><path class="cls-4" d="M1186,458.37l.06-1.51c.51.1,1,.27.87.93S1186.39,458.34,1186,458.37Z" transform="translate(-1091.5 -380.86)"/><path class="cls-2" d="M1114.49,473.89c-.39-.07-.83-.09-.88-.62s.37-.81.89-.86h0v1.49Z" transform="translate(-1091.5 -380.86)"/><path class="cls-4" d="M1108,448.46q0,.46,0,.92c-.39-.09-1.08.3-1.1-.37S1107.56,448.46,1108,448.46Z" transform="translate(-1091.5 -380.86)"/><path class="cls-8" d="M1165,480.76l0-1.35,1,.49q0,.51,0,1Z" transform="translate(-1091.5 -380.86)"/><path class="cls-4" d="M1159,409.41h-.54c.15-.33.34-.82.73-.64S1159.29,409.24,1159,409.41Z" transform="translate(-1091.5 -380.86)"/><path class="cls-4" d="M1114,443.45c.91-.11.8.36.52.93h0l-.51.09.07-.17Z" transform="translate(-1091.5 -380.86)"/><path class="cls-2" d="M1124.15,418.61c0,.06,0,.17-.06.17a.68.68,0,0,1-.21-.06c0-.06,0-.17.06-.17A.68.68,0,0,1,1124.15,418.61Z" transform="translate(-1091.5 -380.86)"/><path class="cls-2" d="M1127.51,415.9l-.66-.16c.36-.48.47,0,.64.18Z" transform="translate(-1091.5 -380.86)"/><path class="cls-4" d="M1140.51,410.39a3.45,3.45,0,0,1-.48,0l.2-.67Z" transform="translate(-1091.5 -380.86)"/><path class="cls-4" d="M1183,455.36l-.53-.46Z" transform="translate(-1091.5 -380.86)"/><path class="cls-4" d="M1127.5,417.42c-.16.35-.33.36-.51,0Z" transform="translate(-1091.5 -380.86)"/><path class="cls-2" d="M1169,483.42l.2.1-.18-.11Z" transform="translate(-1091.5 -380.86)"/><path class="cls-4" d="M1129.5,484.4l-.11.21.12-.2Z" transform="translate(-1091.5 -380.86)"/><path class="cls-7" d="M1133.43,417.43q0-1.25,0-2.5c1.39.9,2.67,2.34,4.55,1l.83.15c.16.58.16,1.34,1.06,1.23.47-.06.62-.4.32-.83l-.22-1.06c.65-.85.74-2.4,2.43-1.94a1.56,1.56,0,0,0,1,1.48c.17.47-.35,1.5.88,1.09.19-.06.4-.42.54,0a3.59,3.59,0,0,1,.07,1c-.52.72-1.31.28-2,.45a11.33,11.33,0,0,1-5.31,1c-1-.05-1,0-1.13,1l-1.08.5-.07-.21c-.29-1-1.31-1.2-1.88-1.88A1.47,1.47,0,0,0,1133.43,417.43Z" transform="translate(-1091.5 -380.86)"/><path class="cls-5" d="M1145,417a3.58,3.58,0,0,0-.07-1c-.14-.4-.34,0-.54,0-1.24.41-.71-.62-.88-1.09q3.17-6.31,8.35-1a1.72,1.72,0,0,0,1.6.44l.58.53q0,.72.05,1.44c-1.27.48-1.82-1.63-3.17-.87,0-2-1.88-1-2.7-1.66-.54,1.15-2.86,1-2.2,3Z" transform="translate(-1091.5 -380.86)"/><path class="cls-7" d="M1154,414.9l-.58-.53.26-2.11c1.28-.31.37,1.75,1.52,1.26.29-.12.24-1,.35-1.57a1.89,1.89,0,0,0,0-.37,4.1,4.1,0,0,1,3.42,3.27l.36,1.12C1157.37,416.86,1156,414.59,1154,414.9Z" transform="translate(-1091.5 -380.86)"/><path class="cls-9" d="M1156,471.91c.08.38.45,1,0,1.09-1.46.33-2.8,1.19-4.41,1.14,0,.78,1.27,1.22.88,2.25l-2.48,0c0-.33.12-.77,0-1-1-1.16-.67-2-.2-3.44s2.77-1.2,2.25-3h.48l2.55.07Z" transform="translate(-1091.5 -380.86)"/><path class="cls-7" d="M1158.5,477.41l0,.58-2.19-.19c-.23,1.1.92,1.63,1.12,2.72l-2.34-.15a2.05,2.05,0,0,0-.1-.41c-.28-.67-.65-.61-1.1-.16s-.87.9-1.33,0c.1-1-.38-2.06.48-2.91.85-.08,1.7.15,2.53-.47C1156.84,475.46,1157.9,475.86,1158.5,477.41Z" transform="translate(-1091.5 -380.86)"/><path class="cls-10" d="M1156,471.91l-1-2.91,1-.1c2.15-.14,4,1,6,1.5h0v1l-2-.5c-.47-.58-1-.62-1.41,0C1158,471.95,1157,471.93,1156,471.91Z" transform="translate(-1091.5 -380.86)"/><path class="cls-8" d="M1162,471.39q0-.49,0-1c1.33,0,2.52,1.27,3.95.49-.09,2.7-1.52,3.52-4,2.87a3.56,3.56,0,0,0,0-.42Q1162,472.37,1162,471.39Z" transform="translate(-1091.5 -380.86)"/><path class="cls-8" d="M1153,476.91c-.87.85-.38,1.93-.48,2.91-1.92,0-1.67-2-2.51-2.93v-.55l2.48,0Z" transform="translate(-1091.5 -380.86)"/><path class="cls-9" d="M1162,471.39q0,1-.09,2c-1.19-.39-3.2-.13-1.93-2.45Z" transform="translate(-1091.5 -380.86)"/><path class="cls-7" d="M1162.58,475.89l1,2.46-.54.06C1161.88,477.74,1161,477,1162.58,475.89Z" transform="translate(-1091.5 -380.86)"/><path class="cls-8" d="M1163,478.41l.54-.06,1,1-1.55,0Q1163,478.92,1163,478.41Z" transform="translate(-1091.5 -380.86)"/><path class="cls-5" d="M1128.05,479.33a1,1,0,0,0-1.12-.92,6,6,0,0,0,1.09-2.48l.21-.24-.25.2c-1.81-.5-.75-1.56-.48-2.46s-.5-2.17.7-2.29.63,1.22.82,1.92c.32,1.25.42,2.7,2.42,1.94a1.4,1.4,0,0,1,1.79.92,3.92,3.92,0,0,0,1.74,2l.56,1.43c-.85.73-.69,2-1.43,2.93-.8-.56.71-2.81-1.58-2.06-.48.16-.5-.6-.36-.95.48-1.18-.14-1.38-1.11-1.85-1.5-.73-1.15.66-1.56,1.09S1128.73,479.42,1128.05,479.33Z" transform="translate(-1091.5 -380.86)"/><path class="cls-8" d="M1135.53,479.38l-.56-1.43,1.45-.52c1.51-.3,1.21-1.12.58-2l0-2c1.27,1.28,1.88,3.31,4.05,3.56a2.87,2.87,0,0,1-1.66,3.09l-.36-1.17c-.62-1.06-1.34-1.28-1.89,0-.3.7-.55,1.15-1.37,1A.9.9,0,0,1,1135.53,479.38Z" transform="translate(-1091.5 -380.86)"/><path class="cls-1" d="M1132.73,482.58l-.1-.16.23-.13c0,.06,0,.14,0,.19S1132.78,482.55,1132.73,482.58Z" transform="translate(-1091.5 -380.86)"/><path class="cls-8" d="M1162.46,419.88c.84-1-.73-2.42.52-3.39l.48-.13c.88,1.7,1.33,3.57,3.85,4a3.27,3.27,0,0,1,2.59,3.66l-2.88-1-1,0c-1.52-.11-3.09-.33-3.51,2.34-.55-1.57-.37-2.79-1.5-3.34C1162,421.61,1163.47,421.66,1162.46,419.88Z" transform="translate(-1091.5 -380.86)"/><path class="cls-9" d="M1167,423l2.88,1c-.27,1.49,1.55,2.38,1.1,3.92l.43,2a6.14,6.14,0,0,1-2.46-2C1169.27,425.89,1167.54,424.67,1167,423Z" transform="translate(-1091.5 -380.86)"/><path class="cls-2" d="M1174.46,424.36a1.24,1.24,0,0,1,0,2.11l-1.46,1.35-.94.07A3,3,0,0,1,1174.46,424.36Z" transform="translate(-1091.5 -380.86)"/><path class="cls-8" d="M1172,427.89l.94-.07-.44,2.61h-1q0-.25-.09-.49l-.43-2Z" transform="translate(-1091.5 -380.86)"/><path class="cls-8" d="M1168.28,417.54a2.76,2.76,0,0,1-.1,1.81C1167.24,418.69,1167.08,418.08,1168.28,417.54Z" transform="translate(-1091.5 -380.86)"/><path class="cls-1" d="M1172.49,422.4l-.23.27c0-.06,0-.14,0-.17a.82.82,0,0,1,.22-.09Z" transform="translate(-1091.5 -380.86)"/><path class="cls-9" d="M1120.63,431.58c1.34-.23,2.1-1.25,3-2.15l1.49-.51c.51.37.43.92.43,1.44-.72.08-2.1-.73-1.46,1.12v2.84l-.64.14-2.29,0C1119.94,433.65,1120,432.66,1120.63,431.58Z" transform="translate(-1091.5 -380.86)"/><path class="cls-7" d="M1116.42,439.08l-.92-.18c.25-1.66,2.27-1.27,2.9-2.48h.61c0,.75.54,1,1.18,1q-.09.73-.18,1.45c-1.36.17-.93,1.18-.93,2a3.31,3.31,0,0,1-1.7,1.55,3.54,3.54,0,0,1-.87-2h0c.57-.08,1.29-.12,1.14-.92C1117.53,438.92,1116.94,438.9,1116.42,439.08Z" transform="translate(-1091.5 -380.86)"/><path class="cls-5" d="M1119,436.42h-.61c-.58-.14-1.5.33-1.63-.61-.1-.72.64-.82,1.23-.91.22,0,.56.09.35-.5-.82-2.34-.77-2.35,2.28-2.82-.62,1.08-.69,2.07.48,2.85l-.63,1c-.72,0-1.46,0-1.47,1Z" transform="translate(-1091.5 -380.86)"/><path class="cls-5" d="M1125.07,428.92l-1.49.51-1.52-.53c-1.44-1.39-.31-2.47.44-3.59.13,1.51,1.54,1.47,2.45,2C1124.42,427.91,1125.12,428.39,1125.07,428.92Z" transform="translate(-1091.5 -380.86)"/><path class="cls-1" d="M1114.2,435.68l-.18.12-.15-.28c.07,0,.16,0,.22,0S1114.16,435.62,1114.2,435.68Z" transform="translate(-1091.5 -380.86)"/><path class="cls-4" d="M1126,422.31l1.6,0,1.35.68.53.91L1128,425l-1-.12-1-.93C1125.84,423.39,1125.21,422.83,1126,422.31Z" transform="translate(-1091.5 -380.86)"/><path class="cls-7" d="M1125,427.34c-.91-.56-2.32-.53-2.45-2h2.88l.18.14c.34.7,0,1.32-.24,2A1.89,1.89,0,0,1,1125,427.34Z" transform="translate(-1091.5 -380.86)"/><path class="cls-7" d="M1126,423.94l1,.93-1.4.59-.18-.14C1125.68,424.9,1124.81,424,1126,423.94Z" transform="translate(-1091.5 -380.86)"/><path class="cls-3" d="M1137,473.38l0,2a3.76,3.76,0,0,0-.58,2l-1.45.52a3.92,3.92,0,0,1-1.74-2,1.4,1.4,0,0,0-1.79-.92c-2,.75-2.1-.69-2.42-1.94-.18-.71.41-2.05-.82-1.92s-.51,1.49-.7,2.29l-1-.5c-.6-.44-.91-.18-1.32.36-.63.84-1,.45-1.23-.4l.18-1c.39-.27.9-.66.6-1.09-.47-.66-1.1.26-1.69,0l.13-1.48c-.81-1.24.45-2.29.33-3.47l.67-.26c-1.15-1.29-.94-3.69-2.78-4.22-1.5-.44-1.84-.73-1-2,.16-.23,0-.65,0-1a1,1,0,0,1,.49-1c1.84,1,2.26,3.55,4.54,4,0,1.16-1.74,2.87.46,3.3,1.55.3,2.49,1.58,4,1.73l.07.5,0,.92a1.94,1.94,0,0,0,2.47,2,1.87,1.87,0,0,1,0,.74c-.8,1.56.5,1.67,1.39,2.11.35.18.73.64,1,.1.65-1.29-.77-1.36-1.28-2-.32-.37-.69-.69-1-1l.5-.51,1.87.09,1.07.52c.16.81-.29,1.75.54,2.41A1,1,0,0,0,1137,473.38Z" transform="translate(-1091.5 -380.86)"/><path class="cls-5" d="M1124,472.89c.18.85.6,1.24,1.23.4.41-.55.72-.81,1.32-.36-.06,1.92-1.88,3.06-2.09,5.32C1123.43,473.59,1123.43,473.59,1124,472.89Z" transform="translate(-1091.5 -380.86)"/><path class="cls-5" d="M1123.05,470.86c.58.21,1.22-.71,1.69,0,.31.43-.2.82-.6,1.09C1123.46,471.88,1122.89,471.76,1123.05,470.86Z" transform="translate(-1091.5 -380.86)"/><path class="cls-1" d="M1125,479.89l-.49.6C1124,479.74,1124.7,480,1125,479.89Z" transform="translate(-1091.5 -380.86)"/><path class="cls-1" d="M1120.87,471.92l.64-.58Z" transform="translate(-1091.5 -380.86)"/><path class="cls-7" d="M1176.47,462.89a3.34,3.34,0,0,0-.47,0l-1.05,0a2.67,2.67,0,0,0-1.92,2,2.79,2.79,0,0,1-2.15-1c1.34-.72,1.34-.72.56-1.45l1-1.52,3.51,0c.88.18,1.83.27,2,1.44Z" transform="translate(-1091.5 -380.86)"/><path class="cls-7" d="M1180.47,458.9c-.46.87-1.65.18-2.13,1H1176l-1.06-.52.08-2.49,1.06,0,2,.59C1178.27,459,1179.83,458.14,1180.47,458.9Z" transform="translate(-1091.5 -380.86)"/><path class="cls-5" d="M1175.95,459.91h2.39l.23.08c.89.33,1.89,1,1.69,1.83-.26,1.12-1.5.4-2.3.55-.16-1.17-1.11-1.26-2-1.44Z" transform="translate(-1091.5 -380.86)"/><path class="cls-5" d="M1180.47,458.9c-.64-.76-2.2.08-2.42-1.4,1,.09,1.65-.6,2.37-1.13-.06,1.7,1.22,1.9,2.44,2.18C1182.27,460.08,1181.21,458.39,1180.47,458.9Z" transform="translate(-1091.5 -380.86)"/><path class="cls-1" d="M1183,458.4c.34-.51.67-.47,1,0Z" transform="translate(-1091.5 -380.86)"/><path class="cls-3" d="M1171.44,462.4c.78.73.78.73-.56,1.45a2.79,2.79,0,0,0,2.15,1,5.9,5.9,0,0,0,2.47,1l.56.42-.09,1.5-.48.06c-.55.09-1.51,0-1.6.3-1,3-3.12,1.4-4.88,1.21l-1.94-2.89-.39.16.32,3.68-1,.52c-1.43.78-2.62-.45-3.95-.49h0q0-.73,0-1.46c1.75-.76,2-2.64,3-4l.91-.13a1.31,1.31,0,0,0,1-1.45,3.59,3.59,0,0,1,2.42-1.1Z" transform="translate(-1091.5 -380.86)"/><path class="cls-10" d="M1167,470.38l-.32-3.68.39-.16,1.94,2.89-.51,1Z" transform="translate(-1091.5 -380.86)"/><path class="cls-8" d="M1179.5,444l1-.17c.33.67.73,1.28-.4,1.67a1.47,1.47,0,0,0-.92,1.78c.25,1,1.19.48,1.85.59h0l-.51,1-.51.48c-1.3.1-.8,1.21-1.06,1.9l-1,.11-1,0c-.28-.82-1.05-1.34-.59-2.55.64-1.68-.53-1.88-1.88-1.4a3.39,3.39,0,0,0,.51-2c.56-.39.46-1,.46-1.52a3,3,0,0,0,.47-2h1.47l1,.48.15,1c-.14.49-1.27.68-.68,1.26S1179.26,445,1179.5,444Z" transform="translate(-1091.5 -380.86)"/><path class="cls-8" d="M1180.42,456.38c-.72.53-1.36,1.21-2.37,1.13l-2-.59c-.19-.5.7-1.42-.55-1.5-.95-.07-1.11-.88-1.51-1.48l.53-1.5c.7-.27,1.11-1.17,2-1,.4.5.94.42,1.47.38,2.08-.08,1.67,2.51,3.31,3.11C1181.88,455.17,1180.71,455.86,1180.42,456.38Z" transform="translate(-1091.5 -380.86)"/><path class="cls-6" d="M1180,449.39l.51-.48H1183c0,1,.89.89,1.54,1.09s1.54.32.88,1.38l-2-.06c0-1.14-.91-.87-1.59-.93S1180.15,450.56,1180,449.39Z" transform="translate(-1091.5 -380.86)"/><path class="cls-5" d="M1180,449.39c.16,1.16,1.08,1,1.85,1s1.54-.21,1.59.93l-4.49,0C1179.19,450.61,1178.68,449.5,1180,449.39Z" transform="translate(-1091.5 -380.86)"/><path class="cls-5" d="M1178,451.86c-.53,0-1.08.12-1.47-.38l.46-.11,1,0A3.81,3.81,0,0,1,1178,451.86Z" transform="translate(-1091.5 -380.86)"/><path class="cls-1" d="M1170,477.94q0,.24,0,.49C1169.64,478.28,1169.61,478.12,1170,477.94Z" transform="translate(-1091.5 -380.86)"/><path class="cls-3" d="M1172.52,430.43l.44-2.61,1.46-1.35a2.5,2.5,0,0,1,.61,2c-.5.15-.53.57-.57,1-.79-.11-1,.72-1.48,1Z" transform="translate(-1091.5 -380.86)"/><path class="cls-10" d="M1150,476.35v.55h-.52c-.85.06-1.3-.7-2-1l-.28-.57-.2,1.07v.5h-1c-1,.22-1.43-.5-2-1.05l0-1c1.16-.68,2-1.43.36-2.48-.34-.22-.87-.25-.63-.8s1-.93,1.41-.52c.87.77,1.81.47,2.75.54,1.65.12.64-.73.49-1.27.19-.64.62-1.28.1-2l.5,0c1.14-.66,2.08-.18,3,.53.53,1.8-1.77,1.49-2.25,3s-.76,2.29.2,3.44C1150.11,475.58,1150,476,1150,476.35Z" transform="translate(-1091.5 -380.86)"/><path class="cls-8" d="M1147.5,475.91c.68.28,1.13,1,2,1a14.22,14.22,0,0,0,.69,5c-.61-.14-1.39-.81-1.53.5a2.37,2.37,0,0,0-.15.48l-1.5-2.51h0c.53,0,1-.18.91-.85s-.49-.57-.89-.63l.5-.53.64-.24-.65-.24a1,1,0,0,1-.5-1v-.5Z" transform="translate(-1091.5 -380.86)"/><path class="cls-1" d="M1154.95,480a2.05,2.05,0,0,1,.1.41l.54,1C1154.53,481.3,1154.19,480.88,1154.95,480Z" transform="translate(-1091.5 -380.86)"/><path class="cls-1" d="M1151.5,483.64c-.53-.47-.49-1.14-.61-1.75C1151.68,482.27,1151.46,483,1151.5,483.64Z" transform="translate(-1091.5 -380.86)"/><path class="cls-7" d="M1181.56,437.46l-.53,0c-1-1.35-2.47.36-3.55-.52l.52-1.45.1-1c1.52-.38,2.9.63,4.4.43.36.26,1.54-.52.91,1C1183,437,1182.62,437.49,1181.56,437.46Z" transform="translate(-1091.5 -380.86)"/><path class="cls-6" d="M1182.5,434.93c-1.5.2-2.88-.81-4.4-.43l-.17-.17.15-1.87.51-.5,2.88-.62A3.47,3.47,0,0,0,1182.5,434.93Z" transform="translate(-1091.5 -380.86)"/><path class="cls-7" d="M1120.5,458.41c0,.33.11.75,0,1-.88,1.29-.55,1.59,1,2,1.84.53,1.63,2.93,2.78,4.22l-.67.26c-1,0-2,.18-2.89-.52-.24-1.15-.34-2.57-2.06-1.31-.77.56-1.39-.37-2.09-.07-1.17-.26-1-1.07-.77-1.9a2.86,2.86,0,0,0,1.68-3.67l.16,0Z" transform="translate(-1091.5 -380.86)"/><path class="cls-6" d="M1116.47,464c.7-.3,1.32.63,2.09.07,1.72-1.26,1.82.16,2.06,1.31-.72.15-.7,2.55-2.2.63-.42-.54-1,1.13-1.87.94Q1116.51,465.48,1116.47,464Z" transform="translate(-1091.5 -380.86)"/><path class="cls-1" d="M1110.47,466.38l.4-.8.31.21-.66.63Z" transform="translate(-1091.5 -380.86)"/><path class="cls-5" d="M1111,457.43l-.25.19.2-.24Z" transform="translate(-1091.5 -380.86)"/><path class="cls-1" d="M1167.82,413.78c-.06.14-.09.35-.19.4s-.27-.1-.4-.16c.06-.14.09-.35.19-.39S1167.68,413.72,1167.82,413.78Z" transform="translate(-1091.5 -380.86)"/><path class="cls-5" d="M1139.37,480a2.87,2.87,0,0,0,1.66-3.09h0c.78.23.84,1.11,1.41,1.53.57,1,1.85,1.55,1.56,3-1.07.6-2.75-.54-3.45,1.29-.14.37-1.08.32-1.58,0s-.1-.87,0-1.3S1139.22,480.5,1139.37,480Z" transform="translate(-1091.5 -380.86)"/><path class="cls-8" d="M1144,481.43c.3-1.42-1-2-1.55-3l.63-.09,2.39.51-.45,3-.9-.06A1.52,1.52,0,0,0,1144,481.43Z" transform="translate(-1091.5 -380.86)"/><path class="cls-5" d="M1144.09,481.84l.9.06c1.29.12,1,1.4,1.52,2.07,0,.54.08,1.12-.52,1.45l-.47-.53c-.07-1,.25-2.37-1.57-1.48Z" transform="translate(-1091.5 -380.86)"/><path class="cls-7" d="M1115.47,451.88c-2.65-.06-1.41-2-1-2.75.66-1.08,1.65-1.65-.19-2.52-.53-.25.42-.7.56-1.13l.18-.12,1.45,0c.24,1,1.8,1.84.41,3.07l.59.43c0,1,.77,1,1.49,1a1.58,1.58,0,0,1,0,2c-.16.59-1.33.47-1,1.52H1121l0,1-.5.49h0a3,3,0,0,0-3,2.06c-.53-.12-1.11-.45-.83-1,.81-1.48-.23-2-1.16-2.63l.08-1.44c.46,0,1,.1,1.24-.4.05-.11-.14-.48-.28-.52C1115.75,450.8,1115.5,451.22,1115.47,451.88Z" transform="translate(-1091.5 -380.86)"/><path class="cls-8" d="M1117.44,457a3,3,0,0,1,3-2.06c-.65,1.17-.2,1.6,1,1.52a1.07,1.07,0,0,1-.52,1,1,1,0,0,0-.49,1h-3Z" transform="translate(-1091.5 -380.86)"/><path class="cls-7" d="M1113,453.32l1,0c-.1.38-.11.91-.68.76C1113.19,454.09,1113.13,453.61,1113,453.32Z" transform="translate(-1091.5 -380.86)"/><path class="cls-5" d="M1183,448.92h-2.51l.51-1a7.1,7.1,0,0,1,2.29.27C1184.1,448.55,1183.54,448.82,1183,448.92Z" transform="translate(-1091.5 -380.86)"/><path class="cls-3" d="M1178,435.46l-.52,1.45c-.24,1.87-.15,1.93,2.05,1.53,0,1.59-2.09,1.9-2.09,3.48H1176c-.56-.36-.45-.94-.48-1.48,1.28-1.34-.2-2.69,0-4,.43,0,.83-.09,1-.59Z" transform="translate(-1091.5 -380.86)"/><path class="cls-8" d="M1179.53,438.44c-2.21.4-2.29.34-2.05-1.53,1.08.88,2.54-.84,3.55.52l-1,.95c-.19-.29-.35-.23-.47.06Z" transform="translate(-1091.5 -380.86)"/><path class="cls-3" d="M1179.51,438.44c.12-.29.27-.35.47-.06A3.56,3.56,0,0,1,1179.51,438.44Z" transform="translate(-1091.5 -380.86)"/><path class="cls-7" d="M1176,467.84l.09-1.5c.59.14,1.45,0,1.28,1C1177.21,468.11,1176.51,467.88,1176,467.84Z" transform="translate(-1091.5 -380.86)"/><path class="cls-1" d="M1138,413.31c.23.2.56.37.31.76a3.32,3.32,0,0,1-.39-.19Z" transform="translate(-1091.5 -380.86)"/><path class="cls-8" d="M1129,422.95l-1.35-.68c.51-2.14,1.06-2.27,3.79-.92l.1.09-.05.51C1130.58,422.11,1129.3,421.33,1129,422.95Z" transform="translate(-1091.5 -380.86)"/><path class="cls-8" d="M1131.43,421.35c0-.91.29-1.52,1.39-1.46a23.23,23.23,0,0,0,2.61-.15l.07.2-.05,1-1.36.48c-.86-1-1.71-.44-2.56,0Z" transform="translate(-1091.5 -380.86)"/><path class="cls-2" d="M1128.5,419.41l.2.11-.2-.11Z" transform="translate(-1091.5 -380.86)"/><path class="cls-5" d="M1117.47,472.39l-1.23,0-.19-.67c1.3-.23,1.6-1.1,1.46-2.26,2-.21,1.13,1,1,1.88Z" transform="translate(-1091.5 -380.86)"/><path class="cls-1" d="M1117.47,472.39l1-1.08c.94.85.63,1.4-.44,1.74Z" transform="translate(-1091.5 -380.86)"/><path class="cls-9" d="M1161,421.93c1.13.55.95,1.77,1.5,3.34.42-2.67,2-2.45,3.51-2.34-1,2.08.27,3.74,1,5.5l0,.52c-.69,0-.95.4-1,1a3.53,3.53,0,0,0-3.33,0,1.2,1.2,0,0,0-1.09-.57,1.39,1.39,0,0,0-1.48-1.46c0-1,.25-2.15-.19-2.91a18.68,18.68,0,0,1-2.4-5.27c.84-3.4-1.65-.72-2.35-1.29.54-1.11.36-1.88-1-2.1l-.05-1.44c1.93-.31,3.34,2,5.38,1.06,1.37,1.15,1,2.54.55,3.93C1158.85,421.3,1160.35,421.39,1161,421.93Z" transform="translate(-1091.5 -380.86)"/><path class="cls-7" d="M1161,421.93c-.62-.54-2.12-.63-1-2l2.51,0C1163.47,421.66,1162,421.61,1161,421.93Z" transform="translate(-1091.5 -380.86)"/><path class="cls-7" d="M1146.52,484c-.54-.67-.23-2-1.52-2.07l.45-3,.5-.08,1,1.59,1.5,2.51-.09,1h-1Z" transform="translate(-1091.5 -380.86)"/><path class="cls-8" d="M1147.39,483.94h1l.17,1-.56.46-.42-.45Z" transform="translate(-1091.5 -380.86)"/><path class="cls-10" d="M1175.52,436.4c-.23,1.34,1.26,2.7,0,4-.69-.36-2,0-1.7.21,1.08.93-1,3.41,1.71,3.26,0,.55.09,1.14-.46,1.52-1-1.59-1.85-.27-2.63.33-.78-.87.56-1.94-.33-2.43-2.15-1.17-.8-2.26-.08-3.41V438c.64-.19,1.65.28,1.85-.66.25-1.14-1-.7-1.48-1.11-.3-.26-.57-.55-.85-.83.08-2.69-2.08-.62-2.91-1.37,0,1-2.64.72-1.22,2.53.36.47-.31.8-.85.86-.4-.88-2-.06-2-1.47,0-.55-.07-1.16.52-1.52a1.09,1.09,0,0,0,1.06-.58c1.78.56,1.36-2.22,3-1.94a2,2,0,0,0,2.5-1.47h1l.47,0c-.06,1.06.42,1.6,1.5,1.54q0,1.23.07,2.46C1174.27,435.37,1174.94,435.86,1175.52,436.4Z" transform="translate(-1091.5 -380.86)"/><path class="cls-3" d="M1174.56,434.41l-.08-2.46a3.67,3.67,0,0,1,4.09,0l-.51.5C1176.31,432,1175.76,433.81,1174.56,434.41Z" transform="translate(-1091.5 -380.86)"/><path class="cls-6" d="M1159.51,481.9l.55.47Z" transform="translate(-1091.5 -380.86)"/><path class="cls-6" d="M1159,483.91l-.5-.51Z" transform="translate(-1091.5 -380.86)"/><path class="cls-3" d="M1116.5,445.41l-1.45,0,.47-.87L1117,444c1.21,1.09,1.21,1.09,2.33-.71-.65-.6-1.22.21-1.84.11l-.11-1a3.31,3.31,0,0,0,1.7-1.54,3.86,3.86,0,0,1,2.43.51c.6.94-1.36,2.32.52,3l0,.94c-.71.08-1.31.33-1.42,1.13s.39.83.91.9c-.15.84.32,1.8-.48,2.51-.67-.93-1.35-.28-2,0-.72,0-1.45,0-1.49-1,.56-.11,1.45.24,1.26-.9C1118.55,446.68,1118.19,445.47,1116.5,445.41Z" transform="translate(-1091.5 -380.86)"/><path class="cls-7" d="M1117.49,443.41c.62.1,1.18-.71,1.84-.11-1.12,1.79-1.12,1.79-2.33.71Z" transform="translate(-1091.5 -380.86)"/><path class="cls-5" d="M1179.5,444c-.25,1-1.07,1.14-1.62.6s.55-.77.68-1.26C1179,443.42,1179.38,443.55,1179.5,444Z" transform="translate(-1091.5 -380.86)"/><path class="cls-2" d="M1174.94,462.88l1.05,0c-.13.26-.22.72-.39.75C1175.06,463.76,1175,463.25,1174.94,462.88Z" transform="translate(-1091.5 -380.86)"/><path class="cls-7" d="M1147.58,484.9l.42.45Z" transform="translate(-1091.5 -380.86)"/><path class="cls-4" d="M1109,449.89l.22-.19-.19.22Z" transform="translate(-1091.5 -380.86)"/><path class="cls-6" d="M1140.24,416.47c.31.44.15.78-.32.83-.9.11-.9-.65-1.06-1.23Z" transform="translate(-1091.5 -380.86)"/><path class="cls-1" d="M1116,471.68l.19.67-.75,1.05-1,.51v-1.51Z" transform="translate(-1091.5 -380.86)"/><path class="cls-6" d="M1116.42,439.08c.52-.18,1.12-.16,1.23.42.16.8-.56.84-1.14.92Z" transform="translate(-1091.5 -380.86)"/><path class="cls-6" d="M1114,444.48l.51-.09C1114.35,444.68,1114.18,444.72,1114,444.48Z" transform="translate(-1091.5 -380.86)"/><path class="cls-11" d="M1136.58,419.44c.09-1,.09-1.08,1.13-1a11.33,11.33,0,0,0,5.31-1c.32.74.61,1.51,1,2.23.69,1.37,1.07.28,1.52-.22l1,1c-.47.94-1.18,1.8-1,3v1c-1.63,1.34-3.31,2-5.28.59-.26-.19-.8,0-1.2,0,.37-.91,1.55-.27,2-1,1.62-.46.91-1.42.58-3-.61,1.35-1,2.23-2.08,2a1,1,0,0,0-.49-1C1138.39,420.91,1138.76,418.92,1136.58,419.44Z" transform="translate(-1091.5 -380.86)"/><path class="cls-12" d="M1145.51,419.43c-.45.5-.83,1.59-1.52.22-.37-.72-.65-1.48-1-2.23.65-.17,1.44.27,2-.45l1-.11c1,1-.86,1.2-.53,2Z" transform="translate(-1091.5 -380.86)"/><path class="cls-12" d="M1136.58,419.44c2.18-.52,1.81,1.47,2.44,2.48h-1l-.49,0c-.44-.85-1.58-.22-2.07-1l.05-1Z" transform="translate(-1091.5 -380.86)"/><path class="cls-9" d="M1145.48,418.86c-.33-.8,1.53-1,.53-2-.66-2,1.66-1.89,2.2-3,.82.69,2.68-.33,2.7,1.66,0,.67.29,1.42-.46,1.92H1149C1147.56,417.23,1147,419.17,1145.48,418.86Z" transform="translate(-1091.5 -380.86)"/><path class="cls-7" d="M1150.45,417.4c.75-.5.44-1.25.46-1.92,1.34-.76,1.9,1.36,3.16.87,1.36.21,1.54,1,1,2.1l0,0-1.08.07c-1.31-1.07-1.58.72-2.44.9C1151.25,418.72,1150.43,418.28,1150.45,417.4Z" transform="translate(-1091.5 -380.86)"/><path class="cls-12" d="M1152,468.93c-.9-.71-1.84-1.2-3-.53.16-.62-.8-1.28-.07-1.81s1.31.87,2.18.56l-.12-1.73c.52-.3.72-1.09,1.5-1l.5,2.5a3.66,3.66,0,0,0-.53,2Z" transform="translate(-1091.5 -380.86)"/><path class="cls-13" d="M1152.47,468.94a3.66,3.66,0,0,1,.53-2c1.17.32,2.75-.78,3.51,1a1,1,0,0,0-.5,1l-1,.1Z" transform="translate(-1091.5 -380.86)"/><path class="cls-9" d="M1156,468.91a1,1,0,0,1,.5-1l.5,0h.49l.51,0c1.23.39,2.32-.2,3.45-.48l.56,1.56,0,1.46C1160,469.92,1158.15,468.77,1156,468.91Z" transform="translate(-1091.5 -380.86)"/><path class="cls-2" d="M1128,475.89l.25-.2-.21.24Z" transform="translate(-1091.5 -380.86)"/><path class="cls-9" d="M1137,473.38a1,1,0,0,1-.48-1c1-.49,1.61-1.78,3-1.49h.5a.88.88,0,0,0,1,1l0,.51c-.48.88-1.56.18-2.3,1,1.35.82,2.7,1.7,2.31,3.57h0C1138.86,476.7,1138.25,474.66,1137,473.38Z" transform="translate(-1091.5 -380.86)"/><path class="cls-5" d="M1136.42,477.42a3.76,3.76,0,0,1,.58-2C1137.62,476.3,1137.92,477.12,1136.42,477.42Z" transform="translate(-1091.5 -380.86)"/><path class="cls-11" d="M1167,428.43c-.73-1.76-2-3.42-1-5.5l1,0c.51,1.71,2.25,2.93,2,5a1,1,0,0,0-1,.49Z" transform="translate(-1091.5 -380.86)"/><path class="cls-14" d="M1168,428.41a1,1,0,0,1,1-.49,6.13,6.13,0,0,0,2.46,2q.05.24.09.49a2,2,0,0,1-2.5,1.47l.49-.95C1169.56,429.76,1167.83,429.65,1168,428.41Z" transform="translate(-1091.5 -380.86)"/><path class="cls-15" d="M1123.4,434.47l.63-.14a6.88,6.88,0,0,1,3.06-1.2c-1.11-.49-1.79-1.61-3.05-1.64-.64-1.85.75-1,1.46-1.12.51.81,1,.11,1.51,0a3.38,3.38,0,0,1,1,2.08c0,.57-.06,1.17.54,1.54-.92,1.63-.28,3.28,0,4.92v2l1,2-1,0H1127c-1.39-1.37-2.24,1.1-3.51.49l0-2,.52-1.48c.65-.41.46-1.91,1.87-1.36,1.21.48,1.17-.44,1.12-1.18s-.34-1.45-1.35-1.28c-.55.09-1.11.2-1.66.31Z" transform="translate(-1091.5 -380.86)"/><path class="cls-3" d="M1123.4,434.47l.59,2-.5,1.49c-1.09-.22-2.14-.73-3.3-.47-.65-.06-1.14-.29-1.18-1h0a1.45,1.45,0,0,0,1.47-1l.63-1Z" transform="translate(-1091.5 -380.86)"/><path class="cls-8" d="M1127,430.35c-.5.13-1,.83-1.51,0,0-.52.07-1.07-.43-1.44,0-.53-.64-1-.11-1.58a1.92,1.92,0,0,0,.37.07l1.16.55a1.16,1.16,0,0,0,1,.51Z" transform="translate(-1091.5 -380.86)"/><path class="cls-10" d="M1124,431.48c1.26,0,1.94,1.16,3.05,1.64a6.88,6.88,0,0,0-3.06,1.2Q1124,432.91,1124,431.48Z" transform="translate(-1091.5 -380.86)"/><path class="cls-9" d="M1124,439.95l-.52,1.48-2,0a3.86,3.86,0,0,0-2.43-.51c0-.81-.43-1.82.93-2,1.32-.68,2.64.12,4,0Z" transform="translate(-1091.5 -380.86)"/><path class="cls-15" d="M1124,438.9c-1.32.12-2.64-.68-4,0l.18-1.45c1.16-.25,2.21.25,3.3.47Z" transform="translate(-1091.5 -380.86)"/><path class="cls-7" d="M1120.48,435.41a1.45,1.45,0,0,1-1.47,1C1119,435.39,1119.76,435.41,1120.48,435.41Z" transform="translate(-1091.5 -380.86)"/><path class="cls-9" d="M1128,425l1.51-1.12c1,0,1.8.23,2,1.39s1.07,1.15,1.94,1.16q0,1,0,2h-1c-.17-.34-.35-.35-.52,0-.78.1-1.85-.39-2,1-1.47.55-1.63-.29-1.52-1.42.18-1.37-1.47-.73-1.79-1.63Z" transform="translate(-1091.5 -380.86)"/><path class="cls-3" d="M1133.49,426.41c-.87,0-1.73-.11-1.94-1.16s-1.06-1.37-2-1.39l-.53-.91c.31-1.62,1.59-.84,2.49-1,.18,1.46,1.57,1.44,2.47,2q0,.72,0,1.45Z" transform="translate(-1091.5 -380.86)"/><path class="cls-12" d="M1128,425l-1.32,1.38c.32.89,2,.25,1.79,1.62h-.93l-1.07,0-1.16-.55c.2-.64.58-1.25.24-2l1.4-.59Z" transform="translate(-1091.5 -380.86)"/><path class="cls-10" d="M1139.5,470.92c-1.39-.29-2,1-3,1.49-.83-.66-.38-1.6-.54-2.41,2.17-1.78,2.36-3.28.57-4.56a3.8,3.8,0,0,1-2,.46c-.2-1-.82-1.76-1.75-1.75s-1.31.82-1.28,1.8-.76.93-1.42,1l-.07-.5c-.08-1.08-3-4.36-4.44-5-2.29-.46-2.71-3-4.54-4a1.07,1.07,0,0,0,.52-1c.79,0,1.52-.1,1.48-1.14s.54-1.43,1.52-1.37H1126v1.51c-.53,1.67-.89,3.32.7,5l.77-2.52,1.57,0c1,0,1.08.9,1.5,1.47l-.51,2.56c.31.59-1.23.89-.26,1.59.7.51,1.23.18,1.73-.35a1.91,1.91,0,0,1,1.49-.77,1.06,1.06,0,0,1,1,.48c-.41.8.28.39.53.48a2.82,2.82,0,0,1,3.5,1.54,6,6,0,0,1,.5,3.12c0,.77-.28,1.75,1,1.88Z" transform="translate(-1091.5 -380.86)"/><path class="cls-15" d="M1125.53,461.43c1.46.67,4.36,4,4.44,5-1.49-.15-2.43-1.43-4-1.73C1123.79,464.3,1125.49,462.6,1125.53,461.43Z" transform="translate(-1091.5 -380.86)"/><path class="cls-12" d="M1130,467c.66-.09,1.45-.08,1.42-1s.35-1.79,1.28-1.8,1.55.78,1.75,1.75h0c-1.63.35-2.21,3.09-4.49,2Z" transform="translate(-1091.5 -380.86)"/><path class="cls-9" d="M1134.49,465.9a3.8,3.8,0,0,0,2-.46c.06,1.59-1,2.73-1.64,4l-1.87-.09c-.53-1.59,1.86-2,1.48-3.5Z" transform="translate(-1091.5 -380.86)"/><path class="cls-10" d="M1134.5,465.9c.39,1.54-2,1.9-1.48,3.5l-.5.51,0,0a1.94,1.94,0,0,1-2.47-2C1132.29,469,1132.86,466.25,1134.5,465.9Z" transform="translate(-1091.5 -380.86)"/><path class="cls-12" d="M1134.89,469.48c.63-1.32,1.7-2.45,1.64-4,1.79,1.28,1.6,2.79-.57,4.56Z" transform="translate(-1091.5 -380.86)"/><path class="cls-10" d="M1132.52,469.9c.35.34.72.66,1,1,.52.6,1.93.66,1.28,2-.27.54-.64.07-1-.1-.89-.44-2.19-.55-1.39-2.11a1.87,1.87,0,0,0,0-.74Z" transform="translate(-1091.5 -380.86)"/><path class="cls-10" d="M1174,453.93c.4.6.56,1.41,1.51,1.48,1.25.09.36,1,.55,1.5l-1.06,0c-1.07.58-3.23.08-2.47,2.48l0,1.5-1,1.52-2-.09c.08-.8.19-1.7-1.06-1-.64.38-1.21.84-2.08.23,1.21-.63.23-1.94,1.24-3s2.91-2.45,2-4.63l1.93.5c.05.94.61,1.68,1.46,1.6C1174.11,455.91,1173,454.34,1174,453.93Zm-3.43,5.56c.23-.18.68-.07.45-.45a1.43,1.43,0,0,0-.83-.45c-.29-.07-.53.18-.38.42S1170.27,459.34,1170.53,459.49Z" transform="translate(-1091.5 -380.86)"/><path class="cls-3" d="M1172.47,460.88l0-1.5h2.39l1.06.52q0,.5,0,1Z" transform="translate(-1091.5 -380.86)"/><path class="cls-9" d="M1174.89,459.39h-2.39c-.76-2.4,1.39-1.9,2.47-2.48Z" transform="translate(-1091.5 -380.86)"/><path class="cls-12" d="M1169.54,453.9c.87,2.18-1.11,3.6-2,4.63s0,2.42-1.24,3c.87.6,1.44.15,2.08-.23,1.26-.75,1.14.15,1.06,1a3.58,3.58,0,0,0-2.42,1.1c-1,0-1,.76-1,1.45l-.91.13,0-.57,0-.53.11-1.44c.45-.37.44-.72-.07-1-.89-.62-1.53-1.32-.95-2.5.89-.68,2.57-.67,2.65-1.92.06-.83-1.15-1.45-2.2-1.59l.59-2.09c1.76-.57,1,2.86,3.11,1.85-1-1.26-.24-3.93-3.11-3.65l-.09-.6c0-.55-.09-1.14.5-1.5.5.73,1.25.42,1.91.48,0,2.6,1.77,1.61,3.09,1.53h0C1170.69,452.43,1168.23,452.45,1169.54,453.9Z" transform="translate(-1091.5 -380.86)"/><path class="cls-13" d="M1165,464.41l0,.57c-1,1.33-1.28,3.21-3,4l-.56-1.56,1.52-2C1163.57,464.91,1164.05,464.18,1165,464.41Z" transform="translate(-1091.5 -380.86)"/><path class="cls-9" d="M1166,464.85c.06-.69.08-1.4,1-1.45A1.31,1.31,0,0,1,1166,464.85Z" transform="translate(-1091.5 -380.86)"/><path class="cls-15" d="M1174,453.93c-1,.41.15,2-1,2.08-.85.07-1.41-.67-1.46-1.6-.25-1,.78-2.47-1-3h0c-.24-.68-1.48-.6-1.24-1.61a.67.67,0,0,1,.58-.3c3.46,1.3,1.14-1.62,2.19-2.42-1.48,0-2.43.92-3.52.35v-.51c.07-.76,0-1.42.77-2.09,1.31-1.07,1.32-2.19-.77-2.42v-1l1.51-1,2-.48c-.72,1.15-2.06,2.24.08,3.41.89.49-.45,1.56.33,2.43.78-.59,1.61-1.91,2.63-.33a3.39,3.39,0,0,1-.51,2c-1.17,1.13-.92,2.72-1.3,4.09-.3,1.1.7.8,1.26.93Z" transform="translate(-1091.5 -380.86)"/><path class="cls-11" d="M1174.49,452.43c-.56-.13-1.57.17-1.26-.93.38-1.38.14-3,1.3-4.09,1.35-.48,2.52-.28,1.88,1.4-.46,1.21.31,1.73.59,2.55l-.46.11C1175.6,451.26,1175.19,452.16,1174.49,452.43Z" transform="translate(-1091.5 -380.86)"/><path class="cls-15" d="M1175.5,443.91c-2.67.14-.62-2.34-1.71-3.26-.29-.25,1-.56,1.7-.21,0,.53-.08,1.11.48,1.48A3,3,0,0,1,1175.5,443.91Z" transform="translate(-1091.5 -380.86)"/><path class="cls-15" d="M1141,472.4l0-.51a.93.93,0,0,0-1-1h0c1.18-.65,3-.18,3.52-2,2.86,1.1,1.67-.84,1.5-2,.85,0,1.28.72,2,1,.22,1-.68,2.57,1.41,2.46.15.54,1.17,1.39-.48,1.27-.94-.07-1.88.23-2.75-.54-.46-.4-1.15-.1-1.41.52s.3.58.63.8c1.62,1,.8,1.8-.36,2.48C1143.73,473.21,1142,473.23,1141,472.4Z" transform="translate(-1091.5 -380.86)"/><path class="cls-3" d="M1141,472.4c1,.83,2.72.81,3,2.5q0,.48,0,1a2.69,2.69,0,0,0-1,2.52l-.63.09c-.57-.42-.63-1.31-1.41-1.53.39-1.87-1-2.75-2.31-3.57C1139.45,472.58,1140.53,473.27,1141,472.4Z" transform="translate(-1091.5 -380.86)"/><path class="cls-16" d="M1147,467.9c-.68-.28-1.12-1-2-1-.21-.56-.9-1.15-.2-1.71s1.17,0,1.59.55c.73.93,1.29.91,1.6-.31h3l.12,1.73c-.87.31-1.36-1.16-2.18-.56s.23,1.19.07,1.81l-.5,0Z" transform="translate(-1091.5 -380.86)"/><path class="cls-9" d="M1143.06,478.38a2.69,2.69,0,0,1,1-2.52c.56.55,1,1.27,2,1l-.05,1.9-.5.08Z" transform="translate(-1091.5 -380.86)"/><path class="cls-13" d="M1147,467.9l1.52.51c.51.68.09,1.31-.1,2C1146.32,470.47,1147.21,468.87,1147,467.9Z" transform="translate(-1091.5 -380.86)"/><path class="cls-3" d="M1146,478.81l.05-1.9h1a1,1,0,0,0,.5,1q0,.24,0,.48l-.5.53,0,1.48h0Z" transform="translate(-1091.5 -380.86)"/><path class="cls-3" d="M1147.5,475.91l-.48.5.2-1.07Z" transform="translate(-1091.5 -380.86)"/><path class="cls-7" d="M1147,480.4l0-1.48c.41.06.84.11.89.63S1147.52,480.36,1147,480.4Z" transform="translate(-1091.5 -380.86)"/><path class="cls-10" d="M1147.52,478.39q0-.24,0-.48l.65.24Z" transform="translate(-1091.5 -380.86)"/><path class="cls-6" d="M1178,435.46l-1.5.35c-.2-1.14.45-1.47,1.43-1.47l.17.17Z" transform="translate(-1091.5 -380.86)"/><path class="cls-7" d="M1177.93,434.34c-1,0-1.62.33-1.43,1.47-.14.5-.55.57-1,.59-.58-.54-1.26-1-1-2,1.19-.6,1.74-2.37,3.51-1.94Z" transform="translate(-1091.5 -380.86)"/><path class="cls-11" d="M1124.51,453.91c-1-.07-1.56.28-1.52,1.37s-.69,1.15-1.48,1.14c-1.22.09-1.67-.34-1-1.52h0l.5-.49,0-1q0-.77,0-1.54,0-.25,0-.49c1-.17.79,1.18,1.91,1.26-.14-1.91.42-3.84-1.44-5.24-.53-.08-1-.24-.91-.9s.7-1.05,1.42-1.13c1.09.66,1.47,1.87,2.19,2.81s1.46,1.21,2.32.18l2,.06v1c-1,.82.13,1.67,0,2.5H1128C1124.63,450.55,1124.57,450.58,1124.51,453.91Z" transform="translate(-1091.5 -380.86)"/><path class="cls-8" d="M1116.5,445.41c1.69.05,2.05,1.26,2.27,2.6.19,1.14-.71.79-1.26.9l-.59-.43C1118.3,447.25,1116.74,446.42,1116.5,445.41Z" transform="translate(-1091.5 -380.86)"/><path class="cls-3" d="M1121,451.9q0,.77,0,1.54H1118c-.36-1.05.81-.93,1-1.52Z" transform="translate(-1091.5 -380.86)"/><path class="cls-8" d="M1121,451.9l-2,0a1.58,1.58,0,0,0,0-2c.67-.28,1.35-.93,2,0q0,.74,0,1.47Q1121,451.65,1121,451.9Z" transform="translate(-1091.5 -380.86)"/><path class="cls-6" d="M1115.47,451.88c0-.66.28-1.08,1-.87.14,0,.34.42.28.52-.26.5-.78.4-1.24.4Z" transform="translate(-1091.5 -380.86)"/><path class="cls-8" d="M1121,454.41l-.5.49Z" transform="translate(-1091.5 -380.86)"/><path class="cls-12" d="M1133.95,424c-.9-.59-2.29-.57-2.47-2l.05-.51c.85-.46,1.7-1,2.56,0l.47,2.48Z" transform="translate(-1091.5 -380.86)"/><path class="cls-3" d="M1134.56,423.9l-.47-2.48,1.37-.48c.49.74,1.62.12,2.07,1C1136.88,423.08,1136.22,424.24,1134.56,423.9Z" transform="translate(-1091.5 -380.86)"/><path class="cls-16" d="M1160,427.92a1.39,1.39,0,0,1,1.48,1.46,4.8,4.8,0,0,0,0,4.54c-1.17.16-1.3,1.08-1.47,2-.55.07-1,.23-.42.81a16.62,16.62,0,0,0,1.42,1.18c.31,1.62,1.61.79,2.49,1H1165l0,1.48c-.68-.17-1.37-1.5-2,0-.7.56-.72-1.61-1.6-.38-.41.58-1.39.74-1.3,1.68.07.7.7.94,1.24,1.06.85.19,1.87.55,2.19-.8,1.07-.11,1.58.35,1.44,1.44-.17,1.3-1,1.06-1.87.81s-1.75-.45-1.43.78c.54,2.07-.84,3.62-1.14,5.44-.7.07-1.21.48-.86,1.13.57,1.05,0,1.92-.18,2.86a.89.89,0,0,1-1-1v-3c1.28-1.17-.28-2.34,0-3.52.67-.08,1.46-.25,1.32-1.07-.2-1.19-1.4-1.44-2.3-1.95.16-1,1.56-.71,1.87-2-1.89.88-2.58-1.86-4.38-1,0-.65,0-1.72-.64-1.66-1.72.17-1.73-.84-2.12-2-.26-.8-1.21-2.44-2.25-.31a1,1,0,0,0-1,.5h-3.49c-.64-1.54-2.55-1.18-3.5-2.34-.27-.33-1,.05-.59.74.9,1.46-.23,1.45-1.11,1.58s-1.68-.24-2.32.52h-.46c0-.73,0-1.47-1-1.5h0c.07-2.11,1.33-3.44,3-4.52,1.58.3,2.76.1,2.5-2l1,0c2.34,1.63-.56,2.14-.87,3.48h2.32c.45,1.51,1.53,2.49,3,2.18s2.89-1.07,2.45-3.08c.7-.35.42-1.62,1.51-1.6.19,1.31,1.21,1,2,1,1.32,1,2.6-.64,3.65-.22,1.68.67,2-.17,2.34-1.36Z" transform="translate(-1091.5 -380.86)"/><path class="cls-11" d="M1160,427.92l-.53,2.41c-1.85.62-1.07-2-2.43-2-.51-.91,1.45-2.29-.55-2.93-.59-.42-.37-.94-.3-1.52a1.83,1.83,0,0,0-1.83-2.09c-1.63.13-.14,1.39-.4,2.09h-1.46c-.55-.49-.2-1.54-1.07-1.78-.19-.05-.73.37-.71.51.36,2.26-1.48,2.26-2.8,2.79l-.45-.5.51-1c.61-.37.48-1,.47-1.53l1.74-1.65a2.18,2.18,0,0,0-1.73-.86l.52-2.5h1.44c0,.88.8,1.33,1.07,2.06,1.87,2.2,3.87,1.52,5.9.29a18.68,18.68,0,0,0,2.4,5.27C1160.27,425.76,1160,426.94,1160,427.92Z" transform="translate(-1091.5 -380.86)"/><path class="cls-11" d="M1166.06,433.83a1.09,1.09,0,0,1-1.06.58c-.12-.74.3-1.58-.46-2.32-.65.44-.82,1.67-1.95,1.27-.61-1.14,0-2.28,0-3.42a3.53,3.53,0,0,1,3.33,0Q1166,431.89,1166.06,433.83Z" transform="translate(-1091.5 -380.86)"/><path class="cls-12" d="M1157.43,419.74c-2,1.24-4,1.91-5.9-.29.86-.17,1.12-2,2.44-.9.08.31.16.68.57.65s.45-.4.51-.71l0,0C1155.78,419,1158.27,416.34,1157.43,419.74Z" transform="translate(-1091.5 -380.86)"/><path class="cls-12" d="M1166.06,433.83q-.07-1.94-.14-3.88c.09-.6.34-1,1-1-.65,2.58,1.32,1.81,2.55,2l-.49.95C1167.43,431.61,1167.84,434.39,1166.06,433.83Z" transform="translate(-1091.5 -380.86)"/><path class="cls-12" d="M1162.59,430c0,1.14-.62,2.28,0,3.42a1.16,1.16,0,0,1-1.11.55,4.8,4.8,0,0,1,0-4.54A1.2,1.2,0,0,1,1162.59,430Z" transform="translate(-1091.5 -380.86)"/><path class="cls-10" d="M1169.51,430.94c-1.23-.18-3.2.59-2.55-2l0-.52,1,0C1167.83,429.65,1169.56,429.76,1169.51,430.94Z" transform="translate(-1091.5 -380.86)"/><path class="cls-9" d="M1165,440.38l0-1.48c.38-.64,1.6-.41,1.53-1.5.53-.07,1.21-.4.85-.86-1.41-1.81,1.22-1.51,1.22-2.53.83.75,3-1.32,2.91,1.37l-.61,1.59c-1.73-.14-2.52.29-1.29,2.05a4.64,4.64,0,0,1,.41,1.39l-1.51,1c-1.1,0-1.78-1.34-3-1Z" transform="translate(-1091.5 -380.86)"/><path class="cls-9" d="M1161.48,433.92a1.16,1.16,0,0,0,1.11-.55c1.13.4,1.3-.84,1.95-1.27.77.73.34,1.58.46,2.32-.59.37-.48,1-.52,1.52-2.81.18-.13,2.16-1,3-.88-.21-2.18.61-2.49-1,.7-.06,1.12-.41.86-1.13s-1.11-.86-1.86-.87C1160.17,435,1160.31,434.08,1161.48,433.92Z" transform="translate(-1091.5 -380.86)"/><path class="cls-11" d="M1170,440.4a4.64,4.64,0,0,0-.41-1.39c-1.23-1.77-.44-2.19,1.29-2.05l1.1,1v1.94Z" transform="translate(-1091.5 -380.86)"/><path class="cls-12" d="M1163.5,438.91c.85-.82-1.83-2.8,1-3,0,1.4,1.64.59,2,1.47.07,1.09-1.15.86-1.53,1.5Z" transform="translate(-1091.5 -380.86)"/><path class="cls-12" d="M1172,438l-1.1-1,.61-1.59c.28.28.55.57.85.83.48.41,1.73,0,1.48,1.11C1173.64,438.26,1172.63,437.79,1172,438Z" transform="translate(-1091.5 -380.86)"/><path class="cls-15" d="M1126.51,448.38c-.86,1-1.61.73-2.32-.18s-1.11-2.15-2.19-2.81l0-.94,1.46-.05c1.35.16,1.84,1.6,3,2Z" transform="translate(-1091.5 -380.86)"/><path class="cls-10" d="M1121,451.4q0-.74,0-1.47c.8-.71.33-1.67.48-2.51,1.86,1.4,1.29,3.34,1.44,5.24C1121.81,452.58,1122,451.23,1121,451.4Z" transform="translate(-1091.5 -380.86)"/><path class="cls-11" d="M1123.5,444.4l-1.46.05c-1.88-.72.07-2.1-.52-3l2,0,0,2Z" transform="translate(-1091.5 -380.86)"/><path class="cls-13" d="M1147.49,424.93l.45.5c-1.56.5-3.34.75-3.46,3l-.95,0c-.1-.36-.15-.9-.68-.68s-.17.51.1.73l.05,1.51-1,0-1.95-.09c-.19-.65.86-1.3,0-1.94.25-1.18-.95-1.86-1-2.93.41,0,.94-.19,1.2,0,2,1.45,3.65.75,5.28-.59A3,3,0,0,0,1147.49,424.93Z" transform="translate(-1091.5 -380.86)"/><path class="cls-10" d="M1139,425c.07,1.07,1.27,1.75,1,2.93-.59.35-.75,1-1,1.55-1.29,0-2.09-1.48-3.49-1.06l0-1c1.34.12,2-.47,2-1.84,0-.75-.05-1.54,1-1.65l2.5.06C1140.56,424.71,1139.39,424.07,1139,425Z" transform="translate(-1091.5 -380.86)"/><path class="cls-3" d="M1149,417.4l-.52,2.5-1,1.09-1-.55-1-1,0-.57C1147,419.17,1147.56,417.23,1149,417.4Z" transform="translate(-1091.5 -380.86)"/><path class="cls-15" d="M1146.54,420.43l1,.55c0,.71,0,1.38,1,1.42,0,.56.14,1.16-.47,1.53a3.83,3.83,0,0,0-2.49-.53C1145.36,422.24,1146.06,421.38,1146.54,420.43Z" transform="translate(-1091.5 -380.86)"/><path class="cls-15" d="M1141,424l-2.5-.06q0-.49,0-1l1,0c1.09.28,1.47-.6,2.08-2C1141.92,422.54,1142.63,423.5,1141,424Z" transform="translate(-1091.5 -380.86)"/><path class="cls-10" d="M1145.51,423.4a3.83,3.83,0,0,1,2.49.53l-.51,1a3,3,0,0,1-2-.53Z" transform="translate(-1091.5 -380.86)"/><path class="cls-10" d="M1139.51,422.87l-1,0a1,1,0,0,1-.49-1h1A1,1,0,0,1,1139.51,422.87Z" transform="translate(-1091.5 -380.86)"/><path class="cls-9" d="M1138,421.93a1,1,0,0,0,.49,1v1c-1.06.11-1,.9-1,1.65,0,1.37-.64,2-2,1.84.32-1.29,1.16-3-1.52-2q0-.72,0-1.45l.61-.07c1.66.33,2.32-.82,3-2Z" transform="translate(-1091.5 -380.86)"/><path class="cls-9" d="M1155,418.49c-.06.32-.11.69-.51.71s-.49-.33-.57-.65Z" transform="translate(-1091.5 -380.86)"/><path class="cls-13" d="M1151,465.41h-2c.09-2,3.1-1.4,3-3.51.16,0,.41,0,.46-.12.7-1.33,1.23-2.81,2.88-.66.48.63,1.54.23,1.26-.86-.17-.66.47-1.28-.08-1.86a4.13,4.13,0,0,0,.47-2.51l0-1c.69-.42,1.19-.29,1.49.49a4.32,4.32,0,0,0,.59,3.34c.34.66.08.78,2.82,1.24.22,0,.4.27.6.41l-.51.52c-1.69-.71-1.38.62-1.51,1.49-.32,0-.79.06-.95-.12-1.1-1.23-2.19-.74-3.22,0-1.35,1,.49,1.38.47,2.12,0,.2-.23.39-.36.58-1.34,0-2.32-2.46-3.94-.59C1151.72,464.33,1151.52,465.11,1151,465.41Z" transform="translate(-1091.5 -380.86)"/><path class="cls-10" d="M1152.5,464.41c1.62-1.87,2.6.55,3.94.59l.58,1.34v1.55l-.5,0c-.76-1.78-2.33-.68-3.51-1Z" transform="translate(-1091.5 -380.86)"/><path class="cls-11" d="M1157,467.89q0-.77,0-1.55l1.48,0c.77.79.9.19,1-.46l1-1c.83.15,1.79-.33,2.48.5l-1.52,2c-1.13.28-2.22.88-3.45.48-.18-.27-.35-.24-.51,0H1157Z" transform="translate(-1091.5 -380.86)"/><path class="cls-10" d="M1157.5,467.89c.16-.27.33-.29.51,0Z" transform="translate(-1091.5 -380.86)"/><path class="cls-11" d="M1143.53,468.9c-.51,1.84-2.33,1.36-3.52,2h-.51q0-.51,0-1c-.5-.61,1.84.08.47-1.18-1.09-1-.06-1.62,1-1.85l1.53-.46C1143.61,466.93,1143.46,468,1143.53,468.9Z" transform="translate(-1091.5 -380.86)"/><path class="cls-11" d="M1140,470.9a.93.93,0,0,1,1,1A.88.88,0,0,1,1140,470.9Z" transform="translate(-1091.5 -380.86)"/><path class="cls-16" d="M1127,442.91h1.46c.82,1.55,1.69,1.74,3,.36.91-1,2.35-1.49,2-3.21,3.43-.39,1.06-2.32,1-3.64l0-.51a3.17,3.17,0,0,1,2,.5h0v1.5c-.85,1.17.3,2.34,0,3.52-1.1,0-2.14.22-1.94,1.57.22,1.53,1.55.71,2.41.88l1,0,1,0c.42.29.52.69.17,1-1,1-.56,1.75.34,2.46-1.74,1.86-.47,3,1,4a5.08,5.08,0,0,0-.5,3,3.44,3.44,0,0,0,.51,2c-1.35,1.12-5.53,1.6-6.55.48-.69-.75-2.29-.92-2-2.49v-1a9.5,9.5,0,0,0,1.66.46c1.08.1,3.62-2.07,3.15-2.63a6.12,6.12,0,0,0-2.54-2.16c-1-.29-.72,1.25-1.27,1.81-.17.18-.33.36-.5.54l-.52-1a2.84,2.84,0,0,0-1-2.54l-.49-1a1.68,1.68,0,0,0,.49-.07c.87-.42,1.92-.57,2.41-1.54a.77.77,0,0,0-.19-.62,3.73,3.73,0,0,0-2.78,1.24l-.47,0c-.1-1.3-1.21-.78-1.88-1.08S1125.78,444.41,1127,442.91Zm12.41,11.62c0-.54-.05-1.1-.74-1s-1,.84-1.1,1.48a.89.89,0,0,0,.68,1.15C1139.36,456.21,1138.91,455,1139.43,454.53Zm-2.82-5.3c1,.15,1.31-.14,1.31-.59a1.08,1.08,0,0,0-1-1.15.65.65,0,0,0-.81.67A1.17,1.17,0,0,0,1136.61,449.23Zm-3.07-2.15c-.12.07-.31.12-.33.22s.08.25.13.38l.46-.29Z" transform="translate(-1091.5 -380.86)"/><path class="cls-13" d="M1134.47,436.42c.1,1.32,2.47,3.25-1,3.64.31,1.71-1.13,2.24-2,3.21-1.3,1.38-2.17,1.19-3-.36l1,0c.95-1.31.56-1.94-1-2q0-1,0-2c.86-.15,2.66.52,1.29-1.54-.59-.88.55-1.26.7-1.94.82-.85.59-1.31-.53-1.45h-1.42c-.6-.37-.52-1-.54-1.54l2.42-.14c1.14.14,1.38,1.6,2.6,1.71.83.07,1.9,1,2.31-.24.31-.9.86-2.32-.83-2.84l0-2.43,1-.08c1.4-.43,2.21,1.1,3.49,1.05q0,.21,0,.43l.49,2c-1.64,1.08-2.9,2.41-3,4.52a3.17,3.17,0,0,0-2-.5l-.22-.11c-.65-.4-1.22-1.27-2.07-.33-.27.29-.73.64-.45,1,.63.85,1.3-.09,2-.07C1134,436.44,1134.22,436.43,1134.47,436.42Z" transform="translate(-1091.5 -380.86)"/><path class="cls-10" d="M1127,442.91c-1.24,1.5.29,1.58,1.06,1.91s1.78-.22,1.88,1.08a.9.9,0,0,0-1,1l-2.49-.45c-1.17-.43-1.66-1.87-3-2v-1C1124.78,444,1125.63,441.54,1127,442.91Z" transform="translate(-1091.5 -380.86)"/><path class="cls-11" d="M1130.42,432.29l-2.42.14a3.38,3.38,0,0,0-1-2.08l.49-1.88q0-.24.06-.48h.93c-.11,1.13.05,2,1.52,1.43a1.07,1.07,0,0,1,.54,1Z" transform="translate(-1091.5 -380.86)"/><path class="cls-9" d="M1128.54,434H1130c.06.53,0,1.11.53,1.45-.15.68-1.29,1.06-.7,1.94,1.38,2.06-.43,1.39-1.29,1.54C1128.25,437.25,1127.61,435.6,1128.54,434Z" transform="translate(-1091.5 -380.86)"/><path class="cls-11" d="M1124,438.9l-.49-1,.5-1.49c.55-.1,1.1-.22,1.66-.31,1-.17,1.3.48,1.35,1.28s.08,1.66-1.12,1.18c-1.4-.55-1.22.94-1.87,1.36Z" transform="translate(-1091.5 -380.86)"/><path class="cls-16" d="M1128.5,440.92c1.57,0,2,.65,1,2Z" transform="translate(-1091.5 -380.86)"/><path class="cls-9" d="M1127.55,428q0,.24-.06.48a1.16,1.16,0,0,1-1-.51Z" transform="translate(-1091.5 -380.86)"/><path class="cls-12" d="M1130.54,430.41a1.07,1.07,0,0,0-.54-1c.14-1.38,1.21-.9,2-1h1.5l1,.08,0,2.43C1133.12,431.24,1132,429.4,1130.54,430.41Z" transform="translate(-1091.5 -380.86)"/><path class="cls-11" d="M1134.52,428.49l-1-.08q0-1,0-2l.51-1c2.68-1,1.84.68,1.52,2l0,1Z" transform="translate(-1091.5 -380.86)"/><path class="cls-10" d="M1132.52,428.42H1132C1132.17,428.07,1132.34,428.08,1132.52,428.42Z" transform="translate(-1091.5 -380.86)"/><path class="cls-13" d="M1132,454.4c-.34,1.57,1.27,1.74,2,2.49,1,1.12,5.2.64,6.55-.48,2.38,0,1.2,1.84,1.46,2.93-.91.4-1.84-.94-2.64,0-.17.19.43,1.05.67,1.61-.72.54-.43,1.32-.49,2l-.07,2H1138a2.82,2.82,0,0,0-3.5-1.54q0-.22,0-.44c.46-.68,0-1.34,0-2l.53-.52,1-.49c.15.76-.94,1.47-.11,2.27,1.77-1.74,1.77-1.74.11-2.27-1.44-1.84-2.1-2.08-2.55-.93-.81,2.08-1.8,1.35-2.91.4-.42-.57-.54-1.45-1.5-1.47q0-1.22,0-2.44C1130,455,1130.78,454.07,1132,454.4Z" transform="translate(-1091.5 -380.86)"/><path class="cls-9" d="M1132,454.4c-1.22-.33-2,.65-2.93,1.06-.68-1-1.4.12-2.09,0h-1v-1.51l2-2h.44c.7.31,1.46.76,1.55-.57.1-1.55,1.12-1,2-.89l.52,1-.51,2Z" transform="translate(-1091.5 -380.86)"/><path class="cls-9" d="M1136,459.91l-1,.49c-.18-.29-.44-.5-.72-.22s-.08.55.19.74c0,.67.49,1.33,0,2l-.52,0a1.06,1.06,0,0,0-1-.48c-.87-.9-2-.39-3-.47l.51-2.56c1.11,1,2.1,1.68,2.91-.4.45-1.16,1.11-.91,2.55.93Z" transform="translate(-1091.5 -380.86)"/><path class="cls-12" d="M1138,464.91h1.44c1.53-.14,1.64.83,1.53,2-1.07.24-2.1.86-1,1.85,1.37,1.26-1,.57-.47,1.18-1.26-.13-1-1.11-1-1.88A6,6,0,0,0,1138,464.91Z" transform="translate(-1091.5 -380.86)"/><path class="cls-12" d="M1128,451.9l-2,2h-1.49C1124.57,450.58,1124.63,450.55,1128,451.9Z" transform="translate(-1091.5 -380.86)"/><path class="cls-15" d="M1126,455.41h1c.57.76-1,1.94.5,2.51l-.77,2.52C1125.12,458.73,1125.47,457.08,1126,455.41Z" transform="translate(-1091.5 -380.86)"/><path class="cls-11" d="M1127.48,457.92c-1.53-.57.07-1.76-.5-2.51.69.16,1.41-.92,2.09,0q0,1.22,0,2.44Z" transform="translate(-1091.5 -380.86)"/><path class="cls-12" d="M1130,461.94c1,.08,2.09-.43,3,.47a1.91,1.91,0,0,0-1.5.77c-.49.53-1,.86-1.73.35C1128.8,462.82,1130.34,462.53,1130,461.94Z" transform="translate(-1091.5 -380.86)"/><path class="cls-12" d="M1134,462.88l.52,0q0,.22,0,.44C1134.27,463.28,1133.58,463.69,1134,462.88Z" transform="translate(-1091.5 -380.86)"/><path class="cls-11" d="M1170.49,451.41c1.77.53.73,2,1,3l-1.93-.5C1168.23,452.45,1170.69,452.43,1170.49,451.41Z" transform="translate(-1091.5 -380.86)"/><path class="cls-3" d="M1170.53,459.49c-.26-.15-.61-.24-.76-.47s.09-.5.38-.42a1.43,1.43,0,0,1,.83.45C1171.21,459.41,1170.76,459.31,1170.53,459.49Z" transform="translate(-1091.5 -380.86)"/><path class="cls-13" d="M1165,440.38l.47.06c.19.91.36,1.84,1.54,2-1.36,3.3-1.36,3.3,1.47,4.5v.51l-1.1,2.46c-.66-.05-1.42.25-1.91-.48,1.53-1.8.57-2.21-1.63-2.2,1.55,1.09-1,2.86,1.14,3.7l.09.6q0,.9,0,1.8l-.59,2.09a2.72,2.72,0,0,1-2-.52,4.15,4.15,0,0,0,.23-4.54c-.46-1-1.46.19-2.23.06.3-1.82,1.68-3.36,1.14-5.44-.32-1.22.65-1,1.43-.78s1.7.49,1.87-.81c.14-1.09-.36-1.55-1.44-1.44-.59-.38-.51-1-.53-1.55C1163.65,438.88,1164.34,440.21,1165,440.38Z" transform="translate(-1091.5 -380.86)"/><path class="cls-9" d="M1162.51,454.88a2.72,2.72,0,0,0,2,.52c1,.13,2.26.76,2.2,1.59-.08,1.25-1.76,1.24-2.65,1.92H1163l-.42-.5a4.73,4.73,0,0,0-1.58-3C1161.35,454.82,1162,454.92,1162.51,454.88Z" transform="translate(-1091.5 -380.86)"/><path class="cls-10" d="M1167.41,449.89l1.1-2.46c1.09.57,2-.33,3.52-.34-1.05.8,1.27,3.72-2.19,2.42a.67.67,0,0,0-.58.3c-.25,1,1,.93,1.24,1.61C1169.18,451.49,1167.4,452.49,1167.41,449.89Z" transform="translate(-1091.5 -380.86)"/><path class="cls-9" d="M1163,465.39c-.7-.83-1.65-.35-2.48-.5q0-1.24,0-2.49c.14-.87-.17-2.2,1.51-1.49.37,1.6,1.81,2.13,3,3l0,.53C1164.05,464.18,1163.57,464.91,1163,465.39Z" transform="translate(-1091.5 -380.86)"/><path class="cls-11" d="M1165,463.88c-1.15-.82-2.59-1.35-3-3l.51-.52c.59-.36.47-1,.48-1.5H1164c-.59,1.18.06,1.88.95,2.5l.07,1Z" transform="translate(-1091.5 -380.86)"/><path class="cls-10" d="M1165.09,453.31q0-.9,0-1.8c2.87-.28,2.07,2.4,3.11,3.65C1166.06,456.18,1166.84,452.74,1165.09,453.31Z" transform="translate(-1091.5 -380.86)"/><path class="cls-16" d="M1165,450.91c-2.18-.84.41-2.61-1.14-3.7,2.2,0,3.16.4,1.63,2.2C1164.91,449.77,1165,450.36,1165,450.91Z" transform="translate(-1091.5 -380.86)"/><path class="cls-9" d="M1165.06,462.44l-.07-1C1165.51,461.72,1165.51,462.07,1165.06,462.44Z" transform="translate(-1091.5 -380.86)"/><path class="cls-10" d="M1168.5,446.92c-2.83-1.19-2.83-1.19-1.47-4.5a1.25,1.25,0,0,0,1.47,0c2.09.23,2.08,1.34.77,2.42C1168.46,445.5,1168.57,446.16,1168.5,446.92Z" transform="translate(-1091.5 -380.86)"/><path class="cls-12" d="M1168.5,442.41a1.25,1.25,0,0,1-1.47,0c-1.18-.15-1.35-1.07-1.54-2,1.23-.35,1.9,1,3,1Z" transform="translate(-1091.5 -380.86)"/><path class="cls-13" d="M1143.53,468.9c-.07-.94.08-2-1-2.49-.1-1.44.1-2.64,2-2.48,1,.27,1.78.12,2-1.06.1-.55.33-1,1-.8s.55.79.31,1.24a2.07,2.07,0,0,0,.24,2.12c-.31,1.23-.87,1.24-1.6.31-.42-.53-.92-1.08-1.59-.55s0,1.15.2,1.71C1145.19,468.06,1146.39,470,1143.53,468.9Z" transform="translate(-1091.5 -380.86)"/><path class="cls-12" d="M1148,465.42a2.07,2.07,0,0,1-.24-2.12c.24-.46.32-1-.31-1.24s-.86.25-1,.8c-.22,1.19-1,1.33-2,1.06v-1c.68-.11,1.14-.32.63-1.11-.4-.62-.75-1.27-1.13-1.9.52-.71,1.29-.43,2-.48.85.9,1.7-.36,2.55,0,1.46-.4,1.68,1.64,3,1.52l.5,1c.1,2.11-2.91,1.56-3,3.51Z" transform="translate(-1091.5 -380.86)"/><path class="cls-12" d="M1132,450.44c-.86-.15-1.88-.66-2,.89-.09,1.34-.85.88-1.55.57.17-.83-1-1.68,0-2.5a.88.88,0,0,0,1-1h0l1.49-.5A2.84,2.84,0,0,1,1132,450.44Z" transform="translate(-1091.5 -380.86)"/><path class="cls-13" d="M1126.51,446.43l2.49.45.49,1.53h0l-1,0-2-.06Q1126.51,447.4,1126.51,446.43Z" transform="translate(-1091.5 -380.86)"/><path class="cls-9" d="M1128.48,448.44l1,0a.88.88,0,0,1-1,1Z" transform="translate(-1091.5 -380.86)"/><path class="cls-14" d="M1148.51,459.41c-.85-.34-1.69.92-2.55,0a4.68,4.68,0,0,0,.53-3l0-1.13c.21.13.41.33.63.36.85.11,1.76,1.15,2.47.4.94-1-.57-1.23-.95-1.81s.69-1.27-.22-1.7l-2,.88c-1,.05-2.16-.46-3,.51l-1.46,0-.52-2.53v-1.49c1.06.3,1.73-.88,2.5-.81,1.19.55-.81,2.09.92,2.12.66,0,1.25-.79,1.48-1.52a1.26,1.26,0,0,0-.75-1.65,5.89,5.89,0,0,0-3.14-.61c-1.15-2,1.08-3.27,1-5,1.38-.12,1.48-2.16,3-2,.55,1.53,1,3-1.63,3.49,1.22.61,2,.78,2.53-.15.33-.57.8-1.16,1.29-.58,1.08,1.27,2.17.1,3.23.2.6.06,1.32-.17,1.29-.85s-.86-.57-1.39-.59c-1.61-.08-3.42.45-4.37-1.52,0-1.1,1.17-.85,1.58-1.47.54.56,1,1.17,2,1,.81,1.57,2.55-.08,3.5,1-.5,2.12,1.48,2.17,2.52,3-1.19,1.83-.08,2.52,1.47,3-.27,1.17,1.28,2.34,0,3.52h-1a2.05,2.05,0,0,0-3.08.8c-.41,1,1,.43,1.54.67,0,.55-.05,1.14.53,1.5l.52,1.51,0,1c-.73,0-1.62.25-2.15-.08-2.22-1.39-2,.47-2.32,1.62l-1,1C1150.41,458.48,1148.71,456.65,1148.51,459.41Zm1.94-9.4c-.59,0-.93.23-.74.73.31.8.23,1.93,1.44,2.08a.6.6,0,0,0,.73-.74C1151.68,451.19,1151.41,450.3,1150.45,450Zm3.36-3.69c-.25-.84-1-1-1.69-1.22a.69.69,0,0,0-.88.64c.07.94.94,1,1.64,1.13A.69.69,0,0,0,1153.81,446.31Z" transform="translate(-1091.5 -380.86)"/><path class="cls-13" d="M1138,437.91c.64-.77,1.53-.41,2.32-.52s2-.12,1.11-1.58c-.43-.69.32-1.07.59-.74,1,1.16,2.87.8,3.5,2.34-1.5.7-2.63,1.66-2.52,3.51v1a1.54,1.54,0,0,1-1.52-1c0-.89.25-1.92-.84-2.37-.73-.3-1.06.17-1.14.86C1138.86,439.06,1138,438.89,1138,437.91Z" transform="translate(-1091.5 -380.86)"/><path class="cls-9" d="M1143,429.91l-.05-1.51.58-.05.95,0c.53.41.65,2,1.82.54.7-.84,1.3-.28,1.7.49l-.51,2.52c-.79,1-2.62-.26-3,1.47h-2.32C1142.45,432.05,1145.35,431.54,1143,429.91Z" transform="translate(-1091.5 -380.86)"/><path class="cls-12" d="M1162.51,454.88c-.56,0-1.16-.07-1.52.53l-1,.49-.49-.5,0-1c.16-.94.75-1.81.18-2.86-.35-.65.15-1.06.86-1.13.77.12,1.77-1.06,2.23-.06A4.15,4.15,0,0,1,1162.51,454.88Z" transform="translate(-1091.5 -380.86)"/><path class="cls-13" d="M1144.46,433.39c.41-1.73,2.25-.52,3-1.47a.65.65,0,0,1,.18,1c-.27.42-1,.91-.16,1.35.56.3,1.1-.12,1.33-.69a4.85,4.85,0,0,0,.16-1.17l.95.07c.44,2-1,2.78-2.45,3.08S1144.92,434.91,1144.46,433.39Z" transform="translate(-1091.5 -380.86)"/><path class="cls-10" d="M1150,432.48l-.95-.07c-.33-.71-.82-1.39.08-2.11.53-.42.48-1-.09-1.39a2,2,0,0,1,2.73-1.71c1.25.33-.65,1-.21,1.72,0,.65.43,1.32-.05,2C1150.38,430.86,1150.65,432.13,1150,432.48Z" transform="translate(-1091.5 -380.86)"/><path class="cls-12" d="M1143,441.9v-1c1.24-1.27,3.48-1.41,4-3.5h2l0,1.53c-.41.61-1.62.37-1.58,1.46h-.95c-1.55-.14-1.65,1.9-3,2Z" transform="translate(-1091.5 -380.86)"/><path class="cls-15" d="M1154.49,440.92c-.95-1.09-2.69.56-3.5-1-.08-1.08.39-2.35-1-3,1-2.13,2-.5,2.25.31.39,1.19.4,2.2,2.12,2,.64-.06.62,1,.64,1.66Z" transform="translate(-1091.5 -380.86)"/><path class="cls-12" d="M1138,437.91c0,1,.87,1.15,1.51,1.51q0,.24,0,.48c-1.92.81-.55,2.85-1.51,4l-1,0c-.08-.83.35-1.76-.47-2.45.3-1.17-.86-2.34,0-3.52H1138Z" transform="translate(-1091.5 -380.86)"/><path class="cls-12" d="M1157.06,428.35c1.35,0,.58,2.59,2.43,2-.35,1.19-.66,2-2.34,1.36-1-.42-2.33,1.21-3.65.22l.47-.49c2.34.35,2.15-1.86,3-3Z" transform="translate(-1091.5 -380.86)"/><path class="cls-9" d="M1154.49,440.92h.51c1.79-.87,2.48,1.87,4.38,1-.31,1.29-1.72,1-1.87,2h-.5C1156,443.09,1154,443,1154.49,440.92Z" transform="translate(-1091.5 -380.86)"/><path class="cls-12" d="M1163,440.4c0,.57-.06,1.17.53,1.55-.33,1.35-1.34,1-2.19.8-.54-.12-1.17-.35-1.24-1.06-.09-.94.89-1.1,1.3-1.68C1162.27,438.79,1162.29,441,1163,440.4Z" transform="translate(-1091.5 -380.86)"/><path class="cls-15" d="M1157,443.92h.5c.9.5,2.1.76,2.3,1.95.14.82-.65,1-1.32,1.07C1156.93,446.44,1155.81,445.75,1157,443.92Z" transform="translate(-1091.5 -380.86)"/><path class="cls-15" d="M1147,437.42c-.53,2.09-2.76,2.23-4,3.5-.11-1.85,1-2.81,2.52-3.51Z" transform="translate(-1091.5 -380.86)"/><path class="cls-10" d="M1139.48,431.9l-.49-2,1,0,1.95.09C1142.24,432,1141.05,432.2,1139.48,431.9Z" transform="translate(-1091.5 -380.86)"/><path class="cls-12" d="M1156.5,453.42c-.58-.35-.5-.95-.53-1.5a1.43,1.43,0,0,0,1.54-1.47h1q0,1.48,0,3Z" transform="translate(-1091.5 -380.86)"/><path class="cls-9" d="M1150,436.91c1.39.65.92,1.92,1,3-.91.2-1.42-.41-2-1q0-.77,0-1.53A1,1,0,0,1,1150,436.91Z" transform="translate(-1091.5 -380.86)"/><path class="cls-13" d="M1154,431.41l-.47.49c-.82-.05-1.84.29-2-1,.48-.64,0-1.31.05-2h1C1152,430.34,1154,430.25,1154,431.41Z" transform="translate(-1091.5 -380.86)"/><path class="cls-13" d="M1160,435.9c.75,0,1.55,0,1.86.87s-.16,1.07-.86,1.13a16.65,16.65,0,0,1-1.42-1.18C1159,436.14,1159.46,436,1160,435.9Z" transform="translate(-1091.5 -380.86)"/><path class="cls-15" d="M1156.5,453.42l2,0a.89.89,0,0,0,1,1l0,1h-1c-.29-.78-.8-.91-1.49-.49Z" transform="translate(-1091.5 -380.86)"/><path class="cls-13" d="M1137.53,437.91h-1v-1.5C1137.53,436.44,1137.51,437.18,1137.53,437.91Z" transform="translate(-1091.5 -380.86)"/><path class="cls-15" d="M1152.52,428.91h-1c-.44-.67,1.46-1.39.21-1.72a2,2,0,0,0-2.73,1.71l-1,.49c-.4-.77-1-1.33-1.7-.49-1.18,1.43-1.29-.14-1.82-.54.12-2.2,1.9-2.45,3.46-3,1.32-.54,3.17-.53,2.8-2.79,0-.14.52-.56.71-.51.87.24.53,1.29,1.07,1.78a11.1,11.1,0,0,0,1.15,2.33c.62.76,1.48,1.2,1.82-.33h1l-.49,2.49C1154.92,429.11,1153.7,428.87,1152.52,428.91Z" transform="translate(-1091.5 -380.86)"/><path class="cls-10" d="M1155.49,425.9c-.34,1.53-1.2,1.1-1.82.33a11.1,11.1,0,0,1-1.15-2.33H1154C1154.79,424.33,1155.91,424.53,1155.49,425.9Z" transform="translate(-1091.5 -380.86)"/><path class="cls-9" d="M1155.49,425.9c.42-1.37-.7-1.57-1.52-2,.27-.71-1.22-2,.4-2.09a1.83,1.83,0,0,1,1.83,2.09c-.07.59-.29,1.11.3,1.52q0,.24,0,.48Z" transform="translate(-1091.5 -380.86)"/><path class="cls-12" d="M1148.47,422.4c-1,0-1-.72-1-1.42l1-1.08a2.18,2.18,0,0,1,1.73.86Z" transform="translate(-1091.5 -380.86)"/><path class="cls-12" d="M1156.5,425.91q0-.24,0-.48c2,.63,0,2,.55,2.93l-.07.06-1,0Z" transform="translate(-1091.5 -380.86)"/><path class="cls-15" d="M1140,429.85l-1,0q0-.22,0-.43c.28-.56.44-1.2,1-1.55C1140.89,428.56,1139.84,429.21,1140,429.85Z" transform="translate(-1091.5 -380.86)"/><path class="cls-15" d="M1143.54,428.35l-.58.05c-.27-.22-.5-.56-.1-.73S1143.43,428,1143.54,428.35Z" transform="translate(-1091.5 -380.86)"/><path class="cls-15" d="M1160.49,462.41q0,1.24,0,2.49l-1,1a1,1,0,0,0-1,.46l-1.48,0-.58-1.34c.12-.19.35-.38.36-.58,0-.74-1.82-1.12-.47-2.12,1-.76,2.11-1.25,3.22,0C1159.7,462.46,1160.17,462.37,1160.49,462.41Z" transform="translate(-1091.5 -380.86)"/><path class="cls-16" d="M1158.5,455.41h1l.49.5c.41,1.3.8,2.62,2.58,2.51l.42.5c0,.55.1,1.14-.48,1.5-.2-.14-.38-.37-.6-.41-2.74-.46-2.48-.58-2.82-1.24A4.32,4.32,0,0,1,1158.5,455.41Z" transform="translate(-1091.5 -380.86)"/><path class="cls-16" d="M1152,461.9l-.5-1c.58-.37.48-1,.48-1.51,1.6.2,2.23-2.18,4-1.52l.53.5c.55.58-.08,1.21.08,1.86.28,1.09-.78,1.49-1.26.86-1.65-2.15-2.17-.67-2.88.66C1152.42,461.88,1152.16,461.86,1152,461.9Z" transform="translate(-1091.5 -380.86)"/><path class="cls-15" d="M1156.52,458.4l-.53-.5c-.86-2.3-2.37.08-3.47-.47.34-1.15.1-3,2.32-1.62.53.33,1.42.07,2.15.08A4.13,4.13,0,0,1,1156.52,458.4Z" transform="translate(-1091.5 -380.86)"/><path class="cls-10" d="M1158.49,466.38a1,1,0,0,1,1-.46C1159.39,466.57,1159.26,467.17,1158.49,466.38Z" transform="translate(-1091.5 -380.86)"/><path class="cls-16" d="M1144.49,462.93v1c-1.89-.16-2.09,1-2,2.48l-1.53.46c.11-1.14,0-2.1-1.53-2q0-1,.07-2c1.21.08,2.5.68,3.5-.55Z" transform="translate(-1091.5 -380.86)"/><path class="cls-15" d="M1146.49,456.46a4.68,4.68,0,0,1-.53,3c-.68.05-1.45-.23-2,.49h-1.47l-.55-.57c-.26-1.09.92-2.9-1.46-2.93a3.44,3.44,0,0,1-.5-2c.69-.06,1.46.23,2-.47l1.46,0C1143.54,455.94,1145.55,455.55,1146.49,456.46Z" transform="translate(-1091.5 -380.86)"/><path class="cls-9" d="M1143,441.9l.49.52c.08,1.76-2.15,3.06-1,5-.09.92-2.34,1-1,2.47q0,.75,0,1.49h-1c-1.47-1.05-2.75-2.15-1-4a23.23,23.23,0,0,0,2-6.46A1.54,1.54,0,0,0,1143,441.9Z" transform="translate(-1091.5 -380.86)"/><path class="cls-13" d="M1132,453.41l.51-2c.17-.18.33-.37.5-.54.55-.56.28-2.1,1.27-1.81a6.12,6.12,0,0,1,2.54,2.16c.47.57-2.07,2.74-3.15,2.63A9.5,9.5,0,0,1,1132,453.41Z" transform="translate(-1091.5 -380.86)"/><path class="cls-15" d="M1141.48,440.94a23.23,23.23,0,0,1-2,6.46c-.89-.71-1.34-1.46-.34-2.46.35-.35.25-.75-.17-1-.14-1.37,2.91-2.34.52-4q0-.24,0-.48c.08-.69.41-1.16,1.14-.86C1141.73,439,1141.46,440.05,1141.48,440.94Z" transform="translate(-1091.5 -380.86)"/><path class="cls-13" d="M1136.52,441.43c.82.69.38,1.62.47,2.45-.86-.17-2.19.64-2.41-.88C1134.38,441.64,1135.42,441.4,1136.52,441.43Z" transform="translate(-1091.5 -380.86)"/><path class="cls-13" d="M1139.5,439.9c2.39,1.67-.66,2.63-.52,4l-1,0C1139,442.75,1137.59,440.71,1139.5,439.9Z" transform="translate(-1091.5 -380.86)"/><path class="cls-10" d="M1140.5,451.41h1l.52,2.53c-.54.7-1.31.41-2,.47A5.08,5.08,0,0,1,1140.5,451.41Z" transform="translate(-1091.5 -380.86)"/><path class="cls-13" d="M1130.42,445.94a3.73,3.73,0,0,1,2.78-1.24.77.77,0,0,1,.19.62c-.49,1-1.54,1.12-2.41,1.54a1.67,1.67,0,0,1-.49.07Z" transform="translate(-1091.5 -380.86)"/><path class="cls-13" d="M1139.43,454.53c-.52.48-.06,1.68-1.16,1.62a.89.89,0,0,1-.68-1.15c.14-.64.31-1.37,1.1-1.48S1139.42,454,1139.43,454.53Z" transform="translate(-1091.5 -380.86)"/><path class="cls-12" d="M1134.47,436.42c-.24,0-.49,0-.73,0-.67,0-1.35.92-2,.07-.28-.39.18-.73.45-1,.85-.94,1.43-.07,2.07.33l.22.11Z" transform="translate(-1091.5 -380.86)"/><path class="cls-13" d="M1136.61,449.23a1.17,1.17,0,0,1-.53-1.06.65.65,0,0,1,.81-.67,1.08,1.08,0,0,1,1,1.15C1137.92,449.09,1137.62,449.39,1136.61,449.23Z" transform="translate(-1091.5 -380.86)"/><path class="cls-9" d="M1130.42,445.94l.07,1,.49,1-1.49.5-.49-1.53a.9.9,0,0,1,1-1Z" transform="translate(-1091.5 -380.86)"/><path class="cls-13" d="M1133.53,447.09l.26.31-.46.29c-.05-.13-.16-.28-.13-.38S1133.41,447.16,1133.53,447.09Z" transform="translate(-1091.5 -380.86)"/><path class="cls-16" d="M1130.54,430.41c1.47-1,2.58.84,4,.52,1.69.52,1.14,1.94.83,2.84-.42,1.23-1.49.31-2.31.24-1.21-.11-1.46-1.57-2.6-1.71Z" transform="translate(-1091.5 -380.86)"/><path class="cls-15" d="M1130.49,435.41c-.56-.34-.47-.92-.53-1.45C1131.08,434.1,1131.31,434.56,1130.49,435.41Z" transform="translate(-1091.5 -380.86)"/><path class="cls-12" d="M1142.52,459.91h.48l0,2.46c-1,1.23-2.29.63-3.5.55.05-.7-.24-1.48.49-2C1141,460.88,1142.53,462.39,1142.52,459.91Z" transform="translate(-1091.5 -380.86)"/><path class="cls-9" d="M1142.52,459.91c0,2.47-1.56,1-2.52,1-.24-.55-.84-1.42-.67-1.61.79-.9,1.72.45,2.64,0Z" transform="translate(-1091.5 -380.86)"/><path class="cls-16" d="M1136,459.91c1.66.53,1.66.53-.11,2.27-.83-.8.26-1.51.11-2.27Z" transform="translate(-1091.5 -380.86)"/><path class="cls-12" d="M1134.47,460.91c-.28-.19-.48-.46-.19-.74s.55-.06.72.22Z" transform="translate(-1091.5 -380.86)"/><path class="cls-13" d="M1162.57,458.41c-1.78.12-2.17-1.21-2.58-2.51l1-.49A4.73,4.73,0,0,1,1162.57,458.41Z" transform="translate(-1091.5 -380.86)"/><path class="cls-13" d="M1152,459.41c0,.55.1,1.14-.48,1.51-1.32.13-1.54-1.92-3-1.52.2-2.76,1.9-.93,3-1Z" transform="translate(-1091.5 -380.86)"/><path class="cls-13" d="M1143,462.37l0-2.46h1c.37.64.73,1.28,1.13,1.9.51.79.05,1-.63,1.11Z" transform="translate(-1091.5 -380.86)"/><path class="cls-15" d="M1146.51,440.41h.95c.95,2,2.76,1.44,4.37,1.52.53,0,1.36-.24,1.39.59s-.7.91-1.29.85c-1.06-.1-2.14,1.07-3.23-.2-.49-.58-1,0-1.29.58-.53.93-1.31.76-2.53.15C1147.5,443.43,1147.06,441.94,1146.51,440.41Z" transform="translate(-1091.5 -380.86)"/><path class="cls-15" d="M1141.48,449.93c-1.34-1.5.92-1.54,1-2.47a5.9,5.9,0,0,1,3.14.61,1.26,1.26,0,0,1,.75,1.65c-.23.73-.81,1.53-1.48,1.52-1.73,0,.27-1.57-.92-2.12C1143.2,449,1142.54,450.22,1141.48,449.93Z" transform="translate(-1091.5 -380.86)"/><path class="cls-12" d="M1146.49,453.47l2-.88c.91.43-.16,1.12.22,1.7s1.89.82.95,1.81c-.71.75-1.62-.29-2.47-.4-.22,0-.42-.24-.63-.36Z" transform="translate(-1091.5 -380.86)"/><path class="cls-11" d="M1146.49,453.47l0,1.86,0,1.13c-.94-.91-3-.52-3-2.48C1144.34,453,1145.46,453.53,1146.49,453.47Z" transform="translate(-1091.5 -380.86)"/><path class="cls-9" d="M1152,459.41l-.49-1,1-1c1.1.55,2.61-1.82,3.47.47C1154.21,457.24,1153.58,459.62,1152,459.41Z" transform="translate(-1091.5 -380.86)"/><path class="cls-13" d="M1150.45,450c1,.29,1.23,1.19,1.44,2.07a.6.6,0,0,1-.73.74c-1.21-.15-1.13-1.29-1.44-2.08C1149.52,450.24,1149.86,450,1150.45,450Z" transform="translate(-1091.5 -380.86)"/><path class="cls-15" d="M1157.51,450.45a1.43,1.43,0,0,1-1.54,1.47c-.55-.24-2,.33-1.54-.67A2.05,2.05,0,0,1,1157.51,450.45Z" transform="translate(-1091.5 -380.86)"/><path class="cls-11" d="M1153.81,446.31a.69.69,0,0,1-.93.55c-.7-.14-1.56-.19-1.64-1.13a.69.69,0,0,1,.88-.64C1152.82,445.28,1153.56,445.47,1153.81,446.31Z" transform="translate(-1091.5 -380.86)"/><path class="cls-16" d="M1148,429.41l1-.49c.57.43.62,1,.09,1.39-.9.71-.41,1.39-.08,2.11a4.85,4.85,0,0,1-.16,1.17c-.23.58-.77,1-1.33.69-.81-.43-.11-.92.16-1.35a.65.65,0,0,0-.18-1Z" transform="translate(-1091.5 -380.86)"/><path class="cls-16" d="M1156,428.4l1,0c-.87,1.13-.68,3.34-3,3,.06-1.15-2-1.07-1.46-2.5C1153.7,428.87,1154.92,429.11,1156,428.4Z" transform="translate(-1091.5 -380.86)"/></svg>